<?xml version="1.0" encoding="UTF-8"?>
<svg xmlns="http://www.w3.org/2000/svg" version="1.1" viewBox="0 0 46.5 46.5">
  <defs>
    <style>
      .cls-1 {
        stroke-width: .7px;
      }

      .cls-1, .cls-2, .cls-3 {
        fill: #fff;
        stroke: #000;
        stroke-linecap: square;
        stroke-miterlimit: 10;
      }

      .cls-2 {
        stroke-width: 1.1px;
      }

      .cls-3 {
        stroke-width: .4px;
      }
    </style>
  </defs>
  <!-- Generator: Adobe Illustrator 28.6.0, SVG Export Plug-In . SVG Version: 1.2.0 Build 709)  -->
  <g>
    <g id="Layer_1">
      <g>
        <circle class="cls-2" cx="23.2" cy="23.2" r="22.7" transform="translate(-4.7 6) rotate(-13.3)"/>
        <path class="cls-2" d="M23.2,13c-10.3,0-18.6,0-18.6,10.3s8.3,18.6,18.6,18.6,18.6-8.3,18.6-18.6-8.3-10.3-18.6-10.3Z"/>
        <polygon class="cls-1" points="18.4 7.2 15.3 7.2 15.3 4 14.1 4 14.1 7.2 11 7.2 11 8.3 14.1 8.3 14.1 11.5 15.3 11.5 15.3 8.3 18.4 8.3 18.4 7.2"/>
        <polygon class="cls-1" points="35 7.2 31.9 7.2 31.9 4 30.7 4 30.7 7.2 27.6 7.2 27.6 8.3 30.7 8.3 30.7 11.5 31.9 11.5 31.9 8.3 35 8.3 35 7.2"/>
        <path class="cls-3" d="M18.4,19.9c0,2.6,2.1,4.8,4.8,4.8s4.8-2.1,4.8-4.8-2.1-4.8-4.8-4.8-4.8,2.1-4.8,4.8Z"/>
        <path class="cls-2" d="M21.6,4.8c-1.5,1-1.6,3.1-.4,4.4,0,0,.2.2.3.2v10.8c0,1,.8,1.7,1.7,1.7h0c1,0,1.7-.8,1.7-1.7v-10.8c0,0,.2-.1.2-.2,1.2-1.2,1.1-3.3-.4-4.4-1-.7-2.3-.7-3.2,0Z"/>
      </g>
    </g>
  </g>
</svg>