<?xml version="1.0" encoding="UTF-8"?>
<svg xmlns="http://www.w3.org/2000/svg" version="1.1" viewBox="0 0 46.8 40.5">
  <defs>
    <style>
      .cls-1 {
        stroke-width: 1.1px;
      }

      .cls-1, .cls-2 {
        fill: #fff;
        stroke: #000;
        stroke-linecap: square;
        stroke-miterlimit: 10;
      }

      .cls-2 {
        stroke-width: .4px;
      }
    </style>
  </defs>
  <!-- Generator: Adobe Illustrator 28.6.0, SVG Export Plug-In . SVG Version: 1.2.0 Build 709)  -->
  <g>
    <g id="Layer_1">
      <g>
        <path class="cls-1" d="M23.4,40c12.6,0,22.8-5.7,22.8-12.7V.5H.5v26.7c0,7,10.2,12.7,22.8,12.7Z"/>
        <path class="cls-1" d="M41.8,8.7v18.5c0,3.4-7.2,8.3-18.4,8.3S5,30.6,5,27.3V8.7h36.8Z"/>
        <path class="cls-2" d="M26.3,27.5c0-1.6-1.3-2.9-2.9-2.9s-2.9,1.3-2.9,2.9,1.3,2.9,2.9,2.9,2.9-1.3,2.9-2.9Z"/>
        <path class="cls-1" d="M22.2,3c-1.1.8-1.2,2.2-.3,3.1s.1.1.2.2v7.7c0,.7.6,1.3,1.3,1.3h0c.7,0,1.3-.6,1.3-1.3v-7.8c0,0,.1,0,.2-.1.9-.9.8-2.4-.3-3.1-.7-.5-1.6-.5-2.3,0Z"/>
      </g>
    </g>
  </g>
</svg>