<?xml version="1.0" encoding="UTF-8"?>
<svg xmlns="http://www.w3.org/2000/svg" version="1.1" viewBox="0 0 45.6 39.4">
  <defs>
    <style>
      .cls-1 {
        stroke-width: 1.1px;
      }

      .cls-1, .cls-2 {
        fill: #fff;
        stroke: #000;
        stroke-linecap: square;
        stroke-miterlimit: 10;
      }

      .cls-2 {
        stroke-width: .4px;
      }
    </style>
  </defs>
  <!-- Generator: Adobe Illustrator 28.6.0, SVG Export Plug-In . SVG Version: 1.2.0 Build 709)  -->
  <g>
    <g id="Layer_1">
      <g>
        <path class="cls-1" d="M.5.5h44.6v17.3c0,11.6-9.4,21-21,21h-2.5C10,38.8.5,29.4.5,17.8V.5h0Z"/>
        <path class="cls-1" d="M10,4.3h9.1c9.1,0,16.5,7.4,16.5,16.5v2c0,9.1-7.4,16.5-16.5,16.5h-9.1V4.3h0Z" transform="translate(44.6 -1) rotate(90)"/>
        <circle class="cls-2" cx="22.8" cy="19.7" r="2.3"/>
        <path class="cls-1" d="M25.1,5c0-1.3-1-2.3-2.3-2.3s-2.3,1-2.3,2.3.6,1.8,1.4,2.1v8.1h1.8V7.1c.8-.3,1.4-1.2,1.4-2.1Z"/>
      </g>
    </g>
  </g>
</svg>