<?xml version="1.0" encoding="UTF-8"?>
<svg xmlns="http://www.w3.org/2000/svg" version="1.1" viewBox="0 0 281.1 229.8">
  <defs>
    <style>
      .cls-1 {
        stroke-width: 1.2px;
      }

      .cls-1, .cls-2, .cls-3, .cls-4, .cls-5, .cls-6, .cls-7, .cls-8, .cls-9, .cls-10, .cls-11 {
        fill: #fff;
        stroke: #000;
      }

      .cls-1, .cls-2, .cls-3, .cls-7, .cls-8, .cls-9, .cls-10 {
        stroke-miterlimit: 10;
      }

      .cls-1, .cls-2, .cls-3, .cls-11 {
        stroke-linecap: round;
      }

      .cls-2, .cls-10 {
        stroke-width: 1.2px;
      }

      .cls-3 {
        stroke-width: 1.1px;
      }

      .cls-4 {
        stroke-width: .8px;
      }

      .cls-4, .cls-5, .cls-6 {
        stroke-linecap: square;
      }

      .cls-4, .cls-5, .cls-6, .cls-11 {
        stroke-linejoin: round;
      }

      .cls-5 {
        stroke-width: .7px;
      }

      .cls-6, .cls-11 {
        stroke-width: 1px;
      }

      .cls-7 {
        stroke-width: .4px;
      }

      .cls-8 {
        stroke-width: .7px;
      }

      .cls-9 {
        stroke-width: 1.1px;
      }
    </style>
  </defs>
  <!-- Generator: Adobe Illustrator 28.6.0, SVG Export Plug-In . SVG Version: 1.2.0 Build 709)  -->
  <g>
    <g id="Layer_1">
      <g>
        <g>
          <rect class="cls-9" x="101.4" y=".6" width="78.7" height="45.2"/>
          <rect class="cls-9" x="101.4" y="45.8" width="78.7" height="6.9"/>
          <path class="cls-9" d="M160.2,10.3c0-2.5,2.1-4.5,4.6-4.4,2.5,0,4.5,2.1,4.4,4.6,0,2.5-2.1,4.5-4.6,4.4-2.5,0-4.5-2.1-4.4-4.6Z"/>
          <path class="cls-9" d="M107,14.2c.1-4.7,4-8.4,8.7-8.3s8.4,4,8.3,8.7c-.1,4.7-4,8.4-8.7,8.3-4.7-.1-8.4-4-8.3-8.7Z"/>
          <path class="cls-9" d="M175,30.6c-.1,5.6-4.8,10.1-10.4,9.9-5.6-.1-10.1-4.8-9.9-10.4s4.8-10.1,10.4-9.9,10.1,4.8,9.9,10.4Z"/>
          <circle class="cls-9" cx="115.5" cy="33.7" r="6.8" transform="translate(-3.3 14.4) rotate(-7)"/>
          <rect class="cls-9" x="133" y="6.1" width="15.5" height="33.4" rx="5.1" ry="5.1"/>
          <path class="cls-8" d="M162,10.4c0-1.5,1.3-2.7,2.8-2.7,1.5,0,2.7,1.3,2.7,2.8,0,1.5-1.3,2.7-2.8,2.7-1.5,0-2.7-1.3-2.7-2.8Z"/>
          <path class="cls-8" d="M109.1,14.2c0-3.5,3-6.3,6.5-6.2,3.5,0,6.3,3,6.2,6.5,0,3.5-3,6.3-6.5,6.2-3.5,0-6.3-3-6.2-6.5Z"/>
          <path class="cls-8" d="M172.4,30.6c-.1,4.2-3.6,7.5-7.8,7.4-4.2-.1-7.5-3.6-7.4-7.8.1-4.2,3.6-7.5,7.8-7.4s7.5,3.6,7.4,7.8Z"/>
          <path class="cls-8" d="M120.6,33.9c0,2.8-2.4,5-5.2,5-2.8,0-5-2.4-5-5.2,0-2.8,2.4-5,5.2-5,2.8,0,5,2.4,5,5.2Z"/>
          <rect class="cls-8" x="135" y="8.4" width="11.7" height="28.9" rx="3.9" ry="3.9"/>
          <g>
            <g>
              <g>
                <path class="cls-7" d="M117.2,47.7c-.6.2-1,.8-1,1.5s.4,1.3,1,1.5v-3.1Z"/>
                <path class="cls-7" d="M118.5,47.7v3.1c.6-.2,1-.8,1-1.5s-.4-1.3-1-1.5Z"/>
              </g>
              <rect class="cls-7" x="117.2" y="47.3" width="1.3" height="4"/>
            </g>
            <g>
              <g>
                <path class="cls-7" d="M124.7,47.7c-.6.2-1,.8-1,1.5s.4,1.3,1,1.5v-3.1Z"/>
                <path class="cls-7" d="M126,47.7v3.1c.6-.2,1-.8,1-1.5s-.4-1.3-1-1.5Z"/>
              </g>
              <rect class="cls-7" x="124.7" y="47.3" width="1.3" height="4"/>
            </g>
            <g>
              <g>
                <path class="cls-7" d="M155.6,47.7c-.6.2-1,.8-1,1.5s.4,1.3,1,1.5v-3.1Z"/>
                <path class="cls-7" d="M156.9,47.7v3.1c.6-.2,1-.8,1-1.5s-.4-1.3-1-1.5Z"/>
              </g>
              <rect class="cls-7" x="155.6" y="47.3" width="1.3" height="4"/>
            </g>
            <g>
              <g>
                <path class="cls-7" d="M163.1,47.7c-.6.2-1,.8-1,1.5s.4,1.3,1,1.5v-3.1Z"/>
                <path class="cls-7" d="M164.4,47.7v3.1c.6-.2,1-.8,1-1.5s-.4-1.3-1-1.5Z"/>
              </g>
              <rect class="cls-7" x="163.1" y="47.3" width="1.3" height="4"/>
            </g>
            <path d="M135.1,49.3c0,.5-.4.9-.9.9s-.9-.4-.9-.9.4-.9.9-.9.9.4.9.9Z"/>
            <path d="M141.9,49.3c0,.5-.4.9-.9.9s-.9-.4-.9-.9.4-.9.9-.9.9.4.9.9Z"/>
            <path d="M148.8,49.3c0,.5-.4.9-.9.9s-.9-.4-.9-.9.4-.9.9-.9.9.4.9.9Z"/>
          </g>
          <polygon class="cls-9" points="159.3 57.6 122.3 57.6 122.3 52.7 124.4 52.7 124.4 55.9 157.2 55.9 157.2 52.7 159.3 52.7 159.3 57.6"/>
        </g>
        <g>
          <rect class="cls-2" x=".6" y=".6" width="50.1" height="50.1"/>
          <rect class="cls-10" x=".6" y="47.6" width="50.1" height="3.2"/>
          <path d="M31.4,19l-4.5,5.9h0c0,0,7.1-.8,7.1-.8v3.2l-7.1-.8h0c0,0,4.5,5.7,4.5,5.7l-3,1.7-2.8-6.6h0l-3.1,6.6-2.7-1.7,4.5-5.7h0c0,0-7,.8-7,.8v-3.2l6.9.9h0c0,0-4.4-5.8-4.4-5.8l2.9-1.6,2.9,6.5h0l2.9-6.6,2.8,1.6Z"/>
        </g>
        <rect class="cls-1" x="50.7" y=".6" width="50.2" height="50.2"/>
        <polygon class="cls-3" points="280.5 50.8 280.5 .6 180.2 .6 180.2 50.8 230.3 50.8 230.3 229.2 280.6 229.2 280.6 50.8 280.5 50.8"/>
        <g>
          <rect class="cls-6" x="205.5" y="131.6" width="99.8" height="44.2" rx="4.4" ry="4.4" transform="translate(409.2 -101.7) rotate(90)"/>
          <rect class="cls-6" x="205.5" y="131.6" width="99.8" height="44.2" rx="4.4" ry="4.4" transform="translate(409.2 -101.7) rotate(90)"/>
          <rect class="cls-6" x="231.4" y="114.8" width="48.8" height="35.4" rx="3.2" ry="3.2" transform="translate(388.4 -123.4) rotate(90)"/>
          <path class="cls-6" d="M273.6,196.8v-32.9c0-.4,0-.8-.2-1.2l-10.2,9c-.6.5-1.4.5-2,0s-.6-1.4,0-2l8-9h-27.8c-1.8,0-3.2,1.4-3.2,3.2v32.9c0,1.8,1.4,3.2,3.2,3.2h29c1.8,0,3.2-1.4,3.2-3.2Z"/>
          <circle class="cls-6" cx="265.7" cy="179.5" r="4.3"/>
          <g>
            <rect class="cls-5" x="269" y="109.4" width="2" height="26.7"/>
            <rect class="cls-5" x="265" y="109.4" width="2" height="26.7"/>
            <rect class="cls-5" x="260.9" y="109.5" width="2" height="26.6"/>
            <rect class="cls-5" x="256.9" y="109.5" width="2" height="26.6"/>
            <rect class="cls-5" x="252.9" y="109.6" width="1.9" height="26.5"/>
            <rect class="cls-5" x="248.8" y="109.6" width="1.9" height="26.5"/>
            <rect class="cls-5" x="244.8" y="109.7" width="1.9" height="26.4"/>
            <rect class="cls-5" x="240.8" y="109.7" width="1.9" height="26.4"/>
          </g>
          <rect class="cls-6" x="246.3" y="129.7" width="19" height="35.4" rx="3.2" ry="3.2" transform="translate(403.3 -108.5) rotate(90)"/>
          <path class="cls-6" d="M265.7,142.8c-2.4,0-4.3,1.9-4.3,4.3s1.9,4.3,4.3,4.3,4.3-1.9,4.3-4.3-1.9-4.3-4.3-4.3Z"/>
          <circle class="cls-6" cx="274.3" cy="158.6" r="2.5"/>
          <g>
            <polygon class="cls-11" points="276 160.3 276 160.3 276 160.3 276 160.3"/>
            <path class="cls-11" d="M263.1,171.7l12.6-11.1c-.4.3-.9.5-1.5.5s-5.9,4.4-6.4,3.9c-.6-.5,4-5.6,4-6.4s.2-1,.5-1.4l-11.1,12.5c-.5.6-.5,1.4,0,2h0c.5.5,1.4.6,2,0Z"/>
            <polygon class="cls-11" points="272.6 156.8 272.6 156.8 272.6 156.8 272.6 156.8"/>
          </g>
          <path class="cls-4" d="M265.7,144.5c-1.4,0-2.6,1.2-2.6,2.6s1.2,2.6,2.6,2.6,2.6-1.2,2.6-2.6-1.2-2.6-2.6-2.6Z"/>
          <circle class="cls-4" cx="265.7" cy="179.5" r="2.6"/>
        </g>
      </g>
    </g>
  </g>
</svg>