<?xml version="1.0" encoding="UTF-8"?>
<svg xmlns="http://www.w3.org/2000/svg" version="1.1" viewBox="0 0 341.7 56.2">
  <defs>
    <style>
      .cls-1, .cls-2, .cls-3, .cls-4 {
        stroke-miterlimit: 10;
      }

      .cls-1, .cls-2, .cls-3, .cls-4, .cls-5, .cls-6, .cls-7, .cls-8 {
        stroke: #000;
      }

      .cls-1, .cls-2, .cls-3, .cls-5, .cls-6, .cls-7, .cls-8 {
        fill: #fff;
      }

      .cls-1, .cls-3 {
        stroke-width: 1.1px;
      }

      .cls-1, .cls-5, .cls-6, .cls-7, .cls-8 {
        stroke-linecap: round;
      }

      .cls-2 {
        stroke-width: 1.1px;
      }

      .cls-4 {
        fill: none;
        stroke-width: .4px;
      }

      .cls-5 {
        stroke-width: .8px;
      }

      .cls-5, .cls-6, .cls-7, .cls-8 {
        stroke-linejoin: round;
      }

      .cls-6 {
        stroke-width: .7px;
      }

      .cls-7 {
        stroke-width: 1px;
      }

      .cls-8 {
        stroke-width: 1px;
      }
    </style>
  </defs>
  <!-- Generator: Adobe Illustrator 28.6.0, SVG Export Plug-In . SVG Version: 1.2.0 Build 709)  -->
  <g>
    <g id="Layer_1">
      <g>
        <g>
          <rect class="cls-2" x="150.8" y="2.6" width="55.2" height="45.2"/>
          <rect class="cls-2" x="150.8" y="47.7" width="55.2" height="5"/>
          <g>
            <g>
              <path class="cls-4" d="M166.7,48.7c-.6.2-1,.8-1,1.5s.4,1.3,1,1.5v-3.1Z"/>
              <path class="cls-4" d="M168,48.7v3.1c.6-.2,1-.8,1-1.5s-.4-1.3-1-1.5Z"/>
            </g>
            <rect class="cls-4" x="166.7" y="48.2" width="1.3" height="4"/>
          </g>
          <g>
            <g>
              <path class="cls-4" d="M174.2,48.7c-.6.2-1,.8-1,1.5s.4,1.3,1,1.5v-3.1Z"/>
              <path class="cls-4" d="M175.4,48.7v3.1c.6-.2,1-.8,1-1.5s-.4-1.3-1-1.5Z"/>
            </g>
            <rect class="cls-4" x="174.2" y="48.2" width="1.3" height="4"/>
          </g>
          <g>
            <g>
              <path class="cls-4" d="M181.6,48.7c-.6.2-1,.8-1,1.5s.4,1.3,1,1.5v-3.1Z"/>
              <path class="cls-4" d="M182.9,48.7v3.1c.6-.2,1-.8,1-1.5s-.4-1.3-1-1.5Z"/>
            </g>
            <rect class="cls-4" x="181.6" y="48.2" width="1.3" height="4"/>
          </g>
          <g>
            <g>
              <path class="cls-4" d="M189.1,48.7c-.6.2-1,.8-1,1.5s.4,1.3,1,1.5v-3.1Z"/>
              <path class="cls-4" d="M190.4,48.7v3.1c.6-.2,1-.8,1-1.5s-.4-1.3-1-1.5Z"/>
            </g>
            <rect class="cls-4" x="189.1" y="48.2" width="1.3" height="4"/>
          </g>
          <path d="M190.7,17.6s0,0-.1,0c-1.3,0-2.5-.6-3.4-1.5s-1.4-2.2-1.3-3.4c0-2.7,2.3-4.8,4.9-4.7,2.7,0,4.8,2.3,4.7,4.9,0,2.6-2.2,4.7-4.8,4.7ZM190.7,8.5c-2.3,0-4.2,1.8-4.2,4.1,0,1.1.4,2.2,1.2,3s1.8,1.3,3,1.3c0,0,0,0,.1,0,2.3,0,4.2-1.8,4.2-4.1,0-1.1-.4-2.2-1.2-3-.8-.8-1.8-1.3-3-1.3,0,0,0,0-.1,0Z"/>
          <g>
            <path d="M164.9,21.8c0,0-.1,0-.2,0-2.2,0-4.2-1-5.8-2.6-1.5-1.6-2.3-3.7-2.3-5.9.1-4.5,3.9-8.1,8.4-8,2.2,0,4.2,1,5.8,2.6s2.3,3.7,2.3,5.9c0,2.2-1,4.2-2.6,5.8-1.5,1.5-3.5,2.3-5.7,2.3ZM157,13.4h.3c0,2.1.7,4,2.1,5.5s3.3,2.3,5.4,2.4c2,0,4-.7,5.5-2.1s2.3-3.3,2.4-5.4c0-2-.7-4-2.1-5.5-1.4-1.5-3.3-2.3-5.4-2.4-4.2-.1-7.7,3.2-7.9,7.5h-.3Z"/>
            <path d="M169.8,13.3c-.1-2.4-2.1-4.4-4.5-4.5V3.7h-.6v5.1c-1.1,0-2.2.5-3,1.3-.9.9-1.4,2-1.5,3.2h-5.1v.6h5.1c0,1.1.5,2.2,1.3,3,.9.9,2,1.4,3.2,1.5v5.1h.6v-5.1c1.1,0,2.2-.5,3-1.3.9-.9,1.4-2,1.5-3.2h5.1v-.6h-5.1Z"/>
          </g>
          <path d="M193.4,12.4c0-.6-.3-1.2-.7-1.6-.5-.5-1.1-.8-1.7-.8v-3.7h-.6v3.7c-1.3.1-2.3,1.2-2.5,2.5h-3.7v.6h3.7c.1,1.3,1.2,2.3,2.5,2.5v3.7h.6v-3.7c.6,0,1.2-.3,1.6-.7.5-.5.8-1.1.8-1.7h3.7v-.6h-3.7Z"/>
          <path d="M196.7,33.3c-.1-3.1-2.6-5.6-5.7-5.7v-6.1h-.6v6.1c-1.4,0-2.8.6-3.8,1.6-1.1,1.1-1.8,2.5-1.9,4.1h-6.1v.6h6.1c.1,3.1,2.6,5.6,5.7,5.7v6.1h.6v-6.1c3.1-.1,5.6-2.6,5.7-5.7h6.1v-.6h-6.1Z"/>
          <g>
            <path d="M164.9,41.7c0,0-.1,0-.2,0-3.9,0-7-3.3-6.9-7.2,0-1.9.8-3.6,2.2-4.9,1.4-1.3,3.2-2,5.1-1.9,1.9,0,3.6.8,4.9,2.2,1.3,1.4,2,3.2,1.9,5.1,0,3.8-3.3,6.9-7.1,6.9ZM164.9,28.1c-1.7,0-3.3.6-4.5,1.8-1.3,1.2-2,2.8-2,4.6,0,3.6,2.8,6.6,6.3,6.7,0,0,.1,0,.2,0,3.5,0,6.4-2.8,6.5-6.3,0-1.7-.6-3.4-1.8-4.6s-2.8-2-4.6-2c0,0-.1,0-.2,0Z"/>
            <path d="M173.8,34.3h-5.2c-.1-1.8-1.6-3.3-3.4-3.4v-5.2h-.6v5.2c-1.8.1-3.3,1.6-3.4,3.4h-5.2v.6h5.2c.1,1.8,1.6,3.3,3.4,3.4v5.2h.6v-5.2c1.8-.1,3.3-1.6,3.4-3.4h5.2v-.6Z"/>
          </g>
          <polygon class="cls-2" points="196.8 57.6 159.9 57.6 159.9 52.8 162 52.8 162 55.9 194.8 55.9 194.8 52.8 196.8 52.8 196.8 57.6"/>
          <path d="M190.7,44c0,0-.2,0-.3,0-2.8,0-5.4-1.2-7.3-3.2s-2.9-4.7-2.9-7.5,1.2-5.4,3.2-7.3c2-1.9,4.7-2.9,7.5-2.9,2.8,0,5.4,1.2,7.3,3.2,1.9,2,2.9,4.7,2.9,7.5h-.3s.3,0,.3,0c0,2.8-1.2,5.4-3.2,7.3-2,1.9-4.5,2.9-7.2,2.9ZM190.7,23.7c-2.5,0-5,1-6.8,2.7-1.9,1.8-3,4.3-3.1,6.9,0,2.6.9,5.1,2.7,7.1,1.8,1.9,4.3,3,6.9,3.1,2.6,0,5.1-.9,7.1-2.7,1.9-1.8,3-4.3,3.1-6.9,0-2.6-.9-5.1-2.7-7.1-1.8-1.9-4.3-3-6.9-3.1,0,0-.2,0-.3,0Z"/>
        </g>
        <g>
          <rect class="cls-1" x=".5" y="2.6" width="49.8" height="49.8"/>
          <rect class="cls-3" x=".5" y="49.3" width="49.8" height="3.2"/>
          <path d="M31.1,20.9l-4.4,5.8h0c0,0,7-.8,7-.8v3.2l-7-.8h0c0,0,4.5,5.7,4.5,5.7l-2.9,1.7-2.8-6.5h0l-3,6.6-2.7-1.7,4.4-5.7h0c0,0-6.9.8-6.9.8v-3.2l6.9.9h0c0,0-4.4-5.8-4.4-5.8l2.8-1.6,2.9,6.5h0l2.8-6.5,2.8,1.6Z"/>
        </g>
        <rect class="cls-1" x="50.3" y="2.6" width="100.5" height="50.2"/>
        <rect class="cls-1" x="206" y="2.6" width="135.2" height="50.2"/>
        <g>
          <path class="cls-8" d="M263.8,5.2h69.1c2.5,0,4.4,2,4.4,4.4v35.7c0,2.5-2,4.4-4.4,4.4h-69.1c-2.5,0-4.4-2-4.4-4.4V9.6c0-2.5,2-4.4,4.4-4.4Z" transform="translate(596.7 54.9) rotate(180)"/>
          <rect class="cls-7" x="264" y="10.7" width="39.3" height="35.4" rx="3.2" ry="3.2"/>
          <path class="cls-5" d="M307.4,10.7h24.1c1.3,0,2.3,1.4,2.3,3.2v29c0,1.8-1,3.2-2.3,3.2h-24.1c-1.3,0-2.3-1.4-2.3-3.2V13.9c0-1.8,1-3.2,2.3-3.2Z"/>
          <g>
            <path class="cls-7" d="M290.5,19.4l11.1-12.6c-.3.4,3,3.8,3.4,3.5l-12.5,11.1c-.6.5-1.4.5-2,0h0c-.5-.5-.6-1.4,0-2Z"/>
            <polygon class="cls-7" points="301.9 6.5 301.9 6.5 301.9 6.5 301.9 6.5"/>
          </g>
          <g>
            <polygon class="cls-7" points="301.9 6.5 301.9 6.5 301.9 6.5 301.9 6.5"/>
            <path class="cls-7" d="M290.5,19.4l11.1-12.6c-.3.4-.5.9-.5,1.5s-4.4,5.9-3.9,6.4c.5.6,5.6-4,6.4-4s1-.2,1.4-.5l-12.5,11.1c-.6.5-1.4.5-2,0h0c-.5-.5-.6-1.4,0-2Z"/>
          </g>
          <circle class="cls-7" cx="303.6" cy="8.3" r="2.5"/>
          <g>
            <rect class="cls-6" x="306.1" y="13.3" width="26.7" height="2"/>
            <rect class="cls-6" x="306.1" y="17.4" width="26.7" height="2"/>
            <rect class="cls-6" x="306.1" y="21.4" width="26.6" height="2"/>
            <rect class="cls-6" x="306.1" y="25.5" width="26.6" height="2"/>
            <rect class="cls-6" x="306.1" y="29.5" width="26.5" height="1.9"/>
            <rect class="cls-6" x="306.1" y="33.6" width="26.5" height="1.9"/>
            <rect class="cls-6" x="306.1" y="37.6" width="26.4" height="1.9"/>
            <rect class="cls-6" x="306.1" y="41.6" width="26.4" height="1.9"/>
          </g>
          <circle class="cls-7" cx="281.9" cy="17.9" r="3.6"/>
          <path class="cls-6" d="M284.1,17.9c0,1.2-1,2.2-2.2,2.2s-2.2-1-2.2-2.2,1-2.2,2.2-2.2,2.2,1,2.2,2.2Z"/>
        </g>
      </g>
    </g>
  </g>
</svg>