<?xml version="1.0" encoding="UTF-8"?>
<svg xmlns="http://www.w3.org/2000/svg" version="1.1" viewBox="0 0 48 51.8">
  <defs>
    <style>
      .cls-1 {
        fill: #fff;
        stroke: #000;
        stroke-linecap: square;
        stroke-miterlimit: 10;
        stroke-width: 1.1px;
      }
    </style>
  </defs>
  <!-- Generator: Adobe Illustrator 28.6.0, SVG Export Plug-In . SVG Version: 1.2.0 Build 709)  -->
  <g>
    <g id="Layer_1">
      <g>
        <path class="cls-1" d="M39.2,12.2l-15.1,1-15.7-1-1.7,32.1c0,3.8,3,6.9,6.8,6.9h21.2c3.8,0,6.8-3.1,6.8-6.9l-2.3-32.1Z"/>
        <path class="cls-1" d="M36.4.5H11.2c-1.6,0-2.8,1.3-2.8,2.8v8.4h0c0,1.6,1.3,2.8,2.8,2.8h25.2c1.6,0,2.8-1.3,2.8-2.8h0V3.4c0-1.6-1.3-2.8-2.8-2.8Z"/>
        <path class="cls-1" d="M36.4.5H11.2c-1.6,0-2.8,1.3-2.8,2.8h0c0,1.6,1.3,2.8,2.8,2.8h25.2c1.6,0,2.8-1.3,2.8-2.8h0c0-1.6-1.3-2.8-2.8-2.8Z"/>
        <rect class="cls-1" x="42" y="11.2" width="3.8" height="39.2" transform="translate(-2.3 3.6) rotate(-4.6)"/>
        <polygon class="cls-1" points=".6 50.2 4.4 50.5 7.1 11.3 3.3 11 .6 50.2"/>
      </g>
    </g>
  </g>
</svg>