<?xml version="1.0" encoding="UTF-8"?>
<svg xmlns="http://www.w3.org/2000/svg" version="1.1" viewBox="0 0 40.6 50.9">
  <defs>
    <style>
      .cls-1 {
        fill: #fff;
        stroke: #000;
        stroke-linecap: square;
        stroke-miterlimit: 10;
        stroke-width: 1.1px;
      }
    </style>
  </defs>
  <!-- Generator: Adobe Illustrator 28.6.0, SVG Export Plug-In . SVG Version: 1.2.0 Build 709)  -->
  <g>
    <g id="Layer_1">
      <g>
        <path class="cls-1" d="M40,42.1l-4-30.1-15.6,1.5-15.6-1.5L.6,42.1c-.4,3.1,1.6,6,4.6,6.6h0c9.9,2.2,20.2,2.2,30.1,0h0c3-.7,5-3.6,4.6-6.6Z"/>
        <polygon class="cls-1" points="6.1 12.1 6.1 4.9 11.2 4.9 11.2 12.5 12.7 12.7 12.7 4.9 16.7 4.9 16.7 13.1 18.2 13.2 18.2 4.9 22.3 4.9 22.3 13.2 23.8 13.1 23.8 4.9 27.9 4.9 27.9 12.7 29.4 12.5 29.4 4.9 34.4 4.9 34.4 12.1 35.9 11.9 35.9 11.9 35.9 1.9 4.6 1.9 4.6 11.9 6.1 12.1"/>
        <rect class="cls-1" x="4.6" y=".6" width="31.3" height="1.3"/>
      </g>
    </g>
  </g>
</svg>