<?xml version="1.0" encoding="UTF-8"?>
<svg xmlns="http://www.w3.org/2000/svg" version="1.1" viewBox="0 0 275 201">
  <defs>
    <style>
      .cls-1 {
        fill-rule: evenodd;
      }

      .cls-1, .cls-2 {
        fill: #fff;
      }
    </style>
  </defs>
  <!-- Generator: Adobe Illustrator 28.6.0, SVG Export Plug-In . SVG Version: 1.2.0 Build 709)  -->
  <g>
    <g id="Layer_1">
      <g>
        <g>
          <path class="cls-1" d="M137.4,143.9c9.7,0,22.6-.5,27.6-1.1,5.2-.6,8.6-1.5,9.4-5,.5-2.7,1.8-19.7-2.9-35.7-1.6-3.7-4-7.3-7.1-11.1-6.9-8.6-16-13.1-27-13.4-10.8.3-19.9,4.8-26.8,13.4-3.1,3.7-5.3,7.3-6.9,11-5.7,17.3-3.6,33.1-3.1,35.8.8,3.6,4.2,4.4,9.4,5,5,.6,17.9,1.1,27.4,1.1h0Z"/>
          <path d="M137.4,145.5c-9.1,0-22.4-.5-27.7-1.1-4.3-.5-9.6-1.2-10.7-6.3-.1-.8-3-17.9,3.1-36.7,1.7-3.9,4-7.6,7.2-11.5,7.3-8.9,16.7-13.6,28-14,11.5.3,21,5,28.3,14,3.6,4.5,5.8,8,7.3,11.5,4.9,16.7,3.5,33.9,3,36.6-1.2,5.1-6.5,5.8-10.8,6.3-5.3.7-18.7,1.1-27.8,1.1ZM137.4,79.2c-10.2.3-18.9,4.6-25.5,12.8-3,3.6-5.2,7.1-6.7,10.6-5.9,17.9-3.1,34.2-3,34.9.5,2.1,2.3,3,8,3.7,4.7.6,17.2,1.1,27.2,1.1s22.7-.5,27.4-1.1c5.7-.7,7.5-1.6,8-3.8.4-2.4,1.7-19.2-2.9-34.9-1.3-3-3.4-6.3-6.8-10.6-6.6-8.2-15.3-12.5-25.7-12.8Z"/>
        </g>
        <g>
          <path class="cls-2" d="M192.5,133.4c0,2.6-2.9,4.7-7.1,5.2-4.2.3-7.6-.6-7.9-3.9-1.6-17.8-1.5-29.4-13.1-43.8-6.9-8.6-16-13.1-27-13.4-10.8.3-19.9,4.8-26.8,13.4-11.6,14.4-11.5,26-13.1,43.8-.3,2.3-3.9,4.4-7.9,4-4.2-.3-7.1-2.7-7.1-5.3,1.9-21.3,2.3-40.2,16.5-57.6,9.7-11.8,22.9-18.4,38.4-18.7h.2c15.5.3,28.7,6.9,38.4,18.7,14.2,17.4,14.5,36.3,16.5,57.6h0Z"/>
          <path d="M90.5,140.4c-.3,0-.6,0-1,0-4.9-.4-8.6-3.4-8.6-6.9l.5-5.9c1.6-18.8,3.1-36.5,16.3-52.7,10.1-12.3,23.8-19,39.6-19.3,16,.3,29.8,7,39.9,19.3,13.2,16.2,14.7,34,16.3,52.7l.5,5.8c0,3.6-3.4,6.3-8.5,6.9-.6,0-1.1,0-1.7,0-6.8,0-7.9-3.8-8.1-5.4l-.4-5.1c-1.2-14.7-2.1-25.2-12.3-37.8-6.6-8.2-15.3-12.5-25.8-12.8-10.2.3-18.9,4.6-25.5,12.8-10.2,12.6-11.1,23.2-12.3,37.8l-.4,5.1c-.4,3.1-4.3,5.5-8.7,5.5ZM137.6,58.7c-14.9.3-27.8,6.6-37.3,18.1-12.6,15.5-14,31.9-15.6,51l-.5,5.8c0,1.4,2.2,3.3,5.6,3.6.2,0,.5,0,.7,0h0c3.1,0,5.3-1.6,5.5-2.7l.4-5c1.3-15.2,2.2-26.2,13-39.6,7.3-8.9,16.7-13.7,28-14,11.5.3,21,5,28.3,14,10.8,13.3,11.7,24.3,13,39.6l.4,5.1c.2,1.9,2.5,2.7,6.2,2.4,3.2-.4,5.6-1.9,5.6-3.6l-.5-5.6c-1.6-19.1-3-35.5-15.6-51-9.5-11.6-22.4-17.8-37.2-18.1Z"/>
        </g>
      </g>
    </g>
  </g>
</svg>