<?xml version="1.0" encoding="UTF-8"?>
<svg xmlns="http://www.w3.org/2000/svg" version="1.1" viewBox="0 0 48.8 52.6">
  <defs>
    <style>
      .cls-1 {
        fill: #fff;
        stroke: #000;
        stroke-linecap: square;
        stroke-miterlimit: 10;
        stroke-width: 1.1px;
      }
    </style>
  </defs>
  <!-- Generator: Adobe Illustrator 28.6.0, SVG Export Plug-In . SVG Version: 1.2.0 Build 709)  -->
  <g>
    <g id="Layer_1">
      <g>
        <path class="cls-1" d="M39.8,12.4l-15.3,1-15.9-1-1.8,32.6c0,3.9,3,7,6.9,7h21.6c3.9,0,7-3.2,6.9-7l-2.3-32.6Z"/>
        <path class="cls-1" d="M37,.6H11.4c-1.6,0-2.9,1.3-2.9,2.9v8.6h0c0,1.6,1.3,2.9,2.9,2.9h25.6c1.6,0,2.9-1.3,2.9-2.9h0V3.4c0-1.6-1.3-2.9-2.9-2.9Z"/>
        <path class="cls-1" d="M37,.6H11.4c-1.6,0-2.9,1.3-2.9,2.9h0c0,1.6,1.3,2.9,2.9,2.9h25.6c1.6,0,2.9-1.3,2.9-2.9h0c0-1.6-1.3-2.9-2.9-2.9Z"/>
        <rect class="cls-1" x="42.7" y="11.3" width="3.9" height="39.9" transform="translate(-2.4 3.7) rotate(-4.6)"/>
        <polygon class="cls-1" points=".6 51 4.5 51.3 7.2 11.5 3.4 11.2 .6 51"/>
      </g>
    </g>
  </g>
</svg>