<?xml version="1.0" encoding="UTF-8"?>
<svg xmlns="http://www.w3.org/2000/svg" version="1.1" viewBox="0 0 275 201">
  <defs>
    <style>
      .cls-1 {
        fill-rule: evenodd;
      }

      .cls-1, .cls-2 {
        fill: #fff;
      }
    </style>
  </defs>
  <!-- Generator: Adobe Illustrator 28.6.0, SVG Export Plug-In . SVG Version: 1.2.0 Build 709)  -->
  <g>
    <g id="Layer_1">
      <g>
        <g>
          <path class="cls-1" d="M111.8,82.5c17-1.6,34.2-1.8,51.7,0,3.4.3,5.7,2.4,6.1,5.3,2.7,16.6,3.4,33.1,2.7,49.4-.2,3.1-2.9,4.8-6.1,5.5-18.9,3.2-37.9,3.2-57.2,0-3.2-.6-5.8-2.4-6.1-5.5-1.3-16-.5-32.5,2.7-49.4.6-2.9,2.7-5,6.1-5.3h0Z"/>
          <path d="M137.8,146c-9.5,0-19.2-.8-28.8-2.4-4-.8-6.5-3.1-6.8-6.2-1.3-16.4-.4-33.1,2.8-49.6.8-3.5,3.3-5.6,6.9-6,17.8-1.7,35.2-1.7,51.8,0,3.7.3,6.3,2.6,6.8,6,2.6,15.5,3.5,31.7,2.8,49.6-.2,3.1-2.7,5.4-6.8,6.2-9.5,1.6-19.1,2.4-28.6,2.4ZM138.1,82.1c-8.5,0-17.3.4-26.2,1.3-2.9.3-4.8,1.9-5.4,4.7-3.1,16.4-4,32.9-2.7,49.2.3,3.2,3.6,4.4,5.5,4.8,19,3.2,38.2,3.2,56.9,0,1.6-.3,5.3-1.4,5.5-4.7.7-17.7-.2-33.8-2.7-49.2-.4-2.6-2.5-4.4-5.4-4.7-8.3-.8-16.8-1.3-25.3-1.3Z"/>
        </g>
        <path d="M138.1,140.1c-8.7,0-17.5-.7-26.3-2.1h-1c-2.1-.4-2.3-.7-2.4-2.7,0-.3,0-.6,0-1-1.1-14.9-.2-30,2.8-45.1.1-1.3.3-1.8,1.8-1.9.2,0,.4,0,.7,0,16-1.5,32.1-1.5,48.1,0,.3,0,.5,0,.7,0,1.3,0,1.5.6,1.6,1.8,2.4,14.1,3.3,29.7,2.6,46.1v.3c0,1.5-.2,1.9-1.7,2.2l-.7.2c-8.7,1.4-17.5,2.1-26.2,2.1ZM110.2,136.2c.1,0,.5,0,.9.1l1,.2c17.3,2.7,34.8,2.7,51.9,0l.6-.2c.2,0,.3,0,.5-.1,0-.1,0-.3,0-.5v-.4c.7-16.4-.2-31.8-2.6-45.9,0-.1,0-.3,0-.4,0,0,0,0,0,0-.2,0-.5,0-.8,0-15.8-1.4-31.9-1.4-47.8,0-.3,0-.6,0-.8,0,0,0-.2,0-.2,0,0,.2,0,.4,0,.5-2.9,15-3.8,30-2.7,44.7,0,.4,0,.7,0,1,0,.4,0,.8,0,.9,0,0,0,0,0,0Z"/>
        <g>
          <path class="cls-2" d="M114.3,82.9c.5,1.9-1,3.9-2.9,4.4-2.1.3-4-1.1-4.4-3.1l-4.2-23.9c-.3-2.1,1-4,2.9-4.4,2.1-.3,4,1,4.4,3.1l4.2,23.9Z"/>
          <path d="M110.8,88.1c-2.2,0-4.2-1.6-4.6-3.8l-4.2-23.9c-.4-2.5,1.2-4.9,3.6-5.3,2.7-.5,4.9,1.3,5.3,3.7l4.2,23.9c.3,1.1,0,2.3-.7,3.3-.7,1-1.7,1.7-2.8,2-.3,0-.6,0-.8,0ZM106.3,56.7c-.2,0-.3,0-.5,0-1.5.3-2.5,1.8-2.2,3.4l4.2,23.9c.3,1.5,1.8,2.6,3.4,2.4.7-.2,1.4-.7,1.8-1.3.4-.6.6-1.4.4-2.1l-4.2-23.9c-.2-1.5-1.4-2.5-2.9-2.5Z"/>
        </g>
        <g>
          <path class="cls-2" d="M168.3,84.1c-.3,1.9-2.3,3.4-4.4,3.1-1.9-.5-3.4-2.4-2.9-4.4l4.2-23.9c.3-2.1,2.3-3.4,4.4-3.1,1.9.3,3.2,2.3,2.9,4.4l-4.2,23.9Z"/>
          <path d="M164.6,88.1c-.2,0-.5,0-.7,0-1.2-.3-2.2-1-2.9-2-.7-1-1-2.2-.7-3.4l4.2-23.8c.4-2.5,2.7-4.2,5.3-3.7,2.4.4,4,2.8,3.6,5.3l-4.2,23.9c-.4,2.2-2.3,3.8-4.6,3.8ZM169,56.7c-1.5,0-2.7,1-2.9,2.4l-4.2,23.9c-.2.7,0,1.5.4,2.1.4.6,1.1,1.1,1.9,1.3,0,0,.2,0,.4,0,1.5,0,2.7-1,3-2.4l4.2-23.9c.3-1.6-.8-3.2-2.2-3.4-.2,0-.3,0-.5,0Z"/>
        </g>
        <g>
          <path class="cls-2" d="M110.9,62.8c-1.1.2-2.3-.8-2.3-2.1-.2-1.3.6-2.6,1.9-2.6,8.9-1,17.9-1.5,27-1.5s18.2.5,27.3,1.5c1.3,0,2.1,1.3,1.9,2.6,0,1.3-1.1,2.3-2.3,2.1-9-1-18.1-1.5-27-1.5s-17.8.5-26.6,1.5h0Z"/>
          <path d="M164.7,63.7c-.1,0-.2,0-.4,0-17.8-1.9-35.7-1.9-53.4,0,0,0-.2,0-.3,0-1.5,0-2.8-1.3-2.8-2.9-.1-.8.2-1.8.8-2.5.5-.6,1.2-.9,2-.9,17.6-1.9,36.3-1.9,54.3,0h0c.7,0,1.4.3,1.9.9.6.7.9,1.6.8,2.6,0,1.5-1.3,2.8-2.8,2.8ZM137.5,60.6c8.9,0,18,.5,27,1.5h.2c.6,0,1.2-.5,1.2-1.3,0-.6,0-1.1-.4-1.4-.2-.2-.5-.4-.8-.4-18-1.9-36.5-1.9-54.2,0-.4,0-.7.1-.9.4-.3.3-.4.8-.4,1.3,0,.9.6,1.4,1.2,1.4,9-1,18-1.5,26.9-1.5Z"/>
        </g>
        <g>
          <path class="cls-2" d="M112.5,74.1c-1.1,0-2.1-1-2.3-2.3-.2-1.3.6-2.4,1.8-2.6,8.6-1,17-1.3,25.5-1.5,8.6,0,17.1.5,25.8,1.5,1.1.2,1.9,1.3,1.8,2.6-.2,1.3-1.1,2.3-2.3,2.3-8.4-1-17-1.5-25.3-1.5s-16.8.5-25,1.5h0Z"/>
          <path d="M162.9,74.9h0c-16.6-1.9-33.8-1.9-50.2,0h0c-1.6,0-2.9-1.3-3.1-3-.2-1.7.9-3.3,2.5-3.5,9.1-1,18.1-1.3,25.6-1.5,8.6,0,17.1.5,25.9,1.5,1.6.2,2.7,1.8,2.5,3.5-.2,1.7-1.5,3-3.1,3ZM137.5,68.6c-7.5.1-16.4.4-25.4,1.4-.7.1-1.2.9-1.1,1.7.1.9.7,1.6,1.5,1.6,16.3-1.9,33.7-1.9,50.4,0,.7,0,1.3-.7,1.4-1.6.1-.8-.4-1.6-1.1-1.7-8.7-1-17.2-1.4-25.7-1.4Z"/>
        </g>
      </g>
    </g>
  </g>
</svg>