<?xml version="1.0" encoding="UTF-8"?>
<svg xmlns="http://www.w3.org/2000/svg" version="1.1" viewBox="0 0 51.8 63.2">
  <defs>
    <style>
      .cls-1 {
        stroke: #000;
        stroke-linecap: square;
        stroke-linejoin: round;
        stroke-width: 1.1px;
      }

      .cls-1, .cls-2 {
        fill: #fff;
      }
    </style>
  </defs>
  <!-- Generator: Adobe Illustrator 28.6.0, SVG Export Plug-In . SVG Version: 1.2.0 Build 709)  -->
  <g>
    <g id="Layer_1">
      <g>
        <path d="M8.2,5.2l2.1,17.3h0l-2.2-17.3ZM45.4,3.8h-.3c0,0-.2-.1-.5-.2-2.1-.4-10.6-1.9-18.3-2h-.3c-7.9,0-16.5,1.6-18.7,2-.3,0-.5,0-.5,0h-.3v.8s1.7,13.4,1.7,13.4h0c0,0,.4,3.2.4,3.2l.3,2.3h0s0,.4,0,.4h.3s.2,0,.4,0c.3,0,.7,0,1.3.1.3,0,.7,0,1.1.1.2,0,.3,0,.5,0,.3,0,.5,0,.8,0,.2,0,.3,0,.5,0,.3,0,.7,0,1,0,1.4.1,3,.2,4.7.3.4,0,.8,0,1.3,0,.4,0,.8,0,1.3,0,.4,0,.9,0,1.3,0,.9,0,1.7,0,2.6,0s1.7,0,2.6,0c.4,0,.9,0,1.3,0,.4,0,.9,0,1.3,0,.4,0,.8,0,1.3,0,2.1-.1,4.1-.2,5.7-.3.2,0,.4,0,.6,0,1.7-.1,2.9-.3,3.6-.3.3,0,.4,0,.4,0h.3s0-.4,0-.4l.3-2.2.4-3.2h0s1.7-13.6,1.7-13.6v-.4s0-.4,0-.4ZM42.8,18.4l-.6,4.8s-.1,0-.2,0c0,0-.1,0-.2,0s-.1,0-.2,0c-.1,0-.3,0-.4,0h0s2.3-18.1,2.3-18.1h-.4c-2.9-.6-10.5-1.8-17.3-1.8h-.7c-6.6,0-13.9,1.3-16.6,1.8h-.4c0,0,2.1,17.3,2.1,17.3h.5c0,0,0,0,0,0h.3s0-.4,0-.4l-2-16.1c3-.5,9.8-1.6,16.1-1.7h.7c6.5,0,13.6,1.1,16.8,1.7l-2.3,17.4c-.5,0-1.1.1-1.7.1h0c0,0-.2,0-.3,0-.1,0-.2,0-.3,0-.1,0-.2,0-.3,0-.1,0-.2,0-.3,0h-.2c-.8,0-1.6.1-2.5.2-.9,0-1.8.1-2.8.2-.8,0-1.7,0-2.6,0-.3,0-.6,0-.9,0-.8,0-1.6,0-2.4,0s-1,0-1.5,0c-.3,0-.6,0-.9,0h-.2c-.9,0-1.8,0-2.6,0-.2,0-.4,0-.6,0-.2,0-.4,0-.6,0-.4,0-.8,0-1.3,0-.1,0-.3,0-.4,0-.3,0-.6,0-.8,0h-.1c-.3,0-.7,0-1,0-.4,0-.7,0-1.1,0,0,0-.1,0-.2,0,0,0-.1,0-.2,0h-.2c-.2,0-.3,0-.4,0,0,0,0,0-.1,0h-.2c0,0-.2,0-.2,0,0,0-.1,0-.2,0-.2,0-.4,0-.6,0-.4,0-.7,0-1,0-.2,0-.3,0-.4,0-.2,0-.3,0-.4,0-.1,0-.2,0-.3,0h0c0,0-.1,0-.2,0-.1,0-.3,0-.4,0l-.6-4.9h0c0,0-1.7-13.8-1.7-13.8,1.9-.4,10.5-1.9,18.3-2h.3c7.9,0,16.7,1.6,18.6,2l-1.7,13.8h0ZM8.2,5.2l2.1,17.3h0l-2.2-17.3ZM8.2,5.2l2.1,17.3h0l-2.2-17.3Z"/>
        <path class="cls-2" d="M25.9,2.1h0c-9,0-19.1,2.1-19.1,2.1l2.4,19.4s.6,0,1.7.2c0,0,0-.2,0-.2l-2.3-18c3-.5,10-1.7,16.6-1.7h.7c6.7,0,14.1,1.2,17.2,1.8l-2.3,17.9c0,0,0,.2,0,.2,1.1,0,1.7-.2,1.7-.2l2.4-19.4s-10.1-2.1-19.1-2.1Z"/>
        <g>
          <path class="cls-2" d="M44.6,2.9v.8c-2.1-.4-10.6-1.9-18.3-2h-.3c-7.9,0-16.5,1.6-18.7,2v-.8c2-.4,10.7-2,18.7-2s16.7,1.7,18.7,2Z"/>
          <path d="M45.4,2.2h-.3c-.1,0-11.7-2.2-19.2-2.2S7.7,1.9,6.7,2.1h-.3c0,0,0,1.7,0,1.7h0v.8s1.7,13.4,1.7,13.4h0c0,0,.4,3.2.4,3.2l.3,2.3h0s0,.4,0,.4h.3s.2,0,.4,0c.3,0,.7,0,1.3.1.3,0,.7,0,1.1.1.2,0,.3,0,.5,0,.3,0,.5,0,.8,0,.2,0,.3,0,.5,0,.3,0,.7,0,1,0,1.4.1,3,.2,4.7.3.4,0,.8,0,1.3,0,.4,0,.8,0,1.3,0,.4,0,.9,0,1.3,0,.9,0,1.7,0,2.6,0s1.7,0,2.6,0c.4,0,.9,0,1.3,0,.4,0,.9,0,1.3,0,.4,0,.8,0,1.3,0,2.1-.1,4.1-.2,5.7-.3.2,0,.4,0,.6,0,1.7-.1,2.9-.3,3.6-.3.3,0,.4,0,.4,0h.3s0-.4,0-.4l.3-2.2.4-3.2h0s1.7-13.6,1.7-13.6v-.4s0-.1,0-.1h0v-2ZM7.2,3.7v-.8c2-.4,10.7-2,18.7-2s16.7,1.7,18.7,2v.8c-2.1-.4-10.6-1.9-18.3-2h-.3c-7.9,0-16.5,1.6-18.7,2,0,0,0,0,0,0ZM38.7,23.5h0c0,0-.2,0-.3,0-.1,0-.2,0-.3,0-.1,0-.2,0-.3,0h-.3s-.2,0-.2,0c-.8,0-1.6.1-2.5.2-.9,0-1.8.1-2.8.2-.8,0-1.7,0-2.6,0-.3,0-.6,0-.9,0-.8,0-1.6,0-2.4,0s-1,0-1.5,0c-.3,0-.6,0-.9,0h-.2c-.9,0-1.8,0-2.6,0-.2,0-.4,0-.6,0-.2,0-.4,0-.6,0-.4,0-.8,0-1.3,0-.1,0-.3,0-.4,0-.3,0-.6,0-.8,0h-.1c-.3,0-.7,0-1,0-.4,0-.7,0-1.1,0,0,0-.1,0-.2,0,0,0-.1,0-.2,0h-.2c-.2,0-.3,0-.4,0,0,0-.2,0-.3,0,0,0-.2,0-.2,0,0,0-.1,0-.2,0-.2,0-.4,0-.6,0-.4,0-.7,0-1,0l-.2-1.3-2.1-16.1c3-.5,9.8-1.6,16.1-1.7h.7c6.5,0,13.6,1.1,16.8,1.7l-2.3,17.4c-.5,0-1.1.1-1.7.1ZM42.8,18.4h0c0,0-.6,4.8-.6,4.8,0,0-.1,0-.2,0,0,0-.1,0-.2,0s-.1,0-.2,0c-.1,0-.3,0-.4,0h0s2.3-18.1,2.3-18.1h-.4c-2.9-.6-10.5-1.8-17.3-1.8h-.7c-6.6,0-13.9,1.3-16.6,1.8h-.4c0,0,2.2,17.3,2.2,17.3v.8s-.1,0-.2,0h0c0,0-.1,0-.2,0-.1,0-.3,0-.4,0l-.6-4.9h0c0,0-1.7-13.8-1.7-13.8,1.9-.4,10.5-1.9,18.3-2h.3c7.9,0,16.7,1.6,18.6,2l-1.7,13.8Z"/>
        </g>
        <g>
          <path class="cls-2" d="M43.4,29.4l-.7-5.4v-.4c0,0-3.5.4-8,.6-1.4,0-2.8.2-4.3.2-1.5,0-3,0-4.5,0-7.9,0-16.7-.9-16.7-.9v.4c0,0-.8,5.4-.8,5.4-.4,2.9-.6,5.8-.6,8.7v20.3c0,.7,2,1.2,5.3,1.7,3.3.4,7.8.7,12.8.7,10,0,18.1-1.1,18.1-2.4v-20.3c0-2.9-.2-5.8-.6-8.7ZM43.5,58.4c-.4.8-6.9,2-17.6,2s-17.3-1.2-17.7-1.9v-20.3c0-2.9.2-5.8.6-8.7l.7-5.4c.3,0,.7,0,1.3.1.3,0,.7,0,1.1.1.2,0,.3,0,.5,0,.3,0,.5,0,.8,0,.2,0,.3,0,.5,0,.3,0,.7,0,1,0,1.4.1,3,.2,4.7.3.4,0,.8,0,1.3,0,.4,0,.8,0,1.3,0,.4,0,.9,0,1.3,0,.9,0,1.7,0,2.6,0s1.7,0,2.6,0c.4,0,.9,0,1.3,0,.4,0,.9,0,1.3,0,.4,0,.8,0,1.3,0,2.1-.1,4.1-.2,5.7-.3.2,0,.4,0,.6,0,1.7-.1,2.9-.3,3.6-.3l.7,5.4c.4,2.9.6,5.8.6,8.7v20.3Z"/>
          <path d="M43.8,29.4l-.8-5.8h0c0-.3-.2-.4-.4-.4h0s-.1,0-.3,0c0,0-.1,0-.2,0,0,0-.1,0-.2,0s-.1,0-.2,0c-.1,0-.3,0-.4,0h0c-.1,0-.3,0-.4,0h0c-.1,0-.3,0-.4,0-.5,0-1.1.1-1.7.1h0c-.1,0-.2,0-.3,0-.1,0-.2,0-.3,0-.1,0-.2,0-.3,0-.1,0-.2,0-.4,0h-.2c-.8,0-1.6.1-2.5.2-.9,0-1.8.1-2.8.2-.8,0-1.7,0-2.6,0-.3,0-.6,0-.9,0-.8,0-1.6,0-2.4,0s-1,0-1.5,0c-.3,0-.6,0-.9,0h-.2c-.9,0-1.8,0-2.6,0-.2,0-.4,0-.6,0-.2,0-.4,0-.6,0-.4,0-.8,0-1.3,0-.1,0-.3,0-.4,0-.3,0-.6,0-.8,0-.8,0-1.5,0-2.2-.2,0,0-.1,0-.2,0,0,0-.1,0-.2,0h-.2c-.2,0-.3,0-.4,0,0,0,0,0-.1,0h-.2c0,0-.2,0-.2,0,0,0-.1,0-.2,0-.2,0-.4,0-.6,0-.4,0-.7,0-1,0-.2,0-.3,0-.4,0-.2,0-.3,0-.4,0-.1,0-.2,0-.3,0h0c0,0-.1,0-.2,0-.1,0-.3,0-.4,0-.2,0-.3,0-.3,0,0,0,0,0,0,0h0c-.2,0-.3.2-.4.4h0s-.8,5.8-.8,5.8c-.4,2.9-.6,5.9-.6,8.8v20.3c0,2.8,17.7,2.8,18.5,2.8s18.5,0,18.5-2.8v-20.3c0-2.9-.2-5.9-.6-8.8ZM43.5,58.4c-.4.8-6.9,2-17.6,2s-17.3-1.2-17.7-1.9v-20.3c0-2.9.2-5.8.6-8.7l.7-5.4c.3,0,.7,0,1.3.1.3,0,.7,0,1.1.1.2,0,.3,0,.5,0,.3,0,.5,0,.8,0,.2,0,.3,0,.5,0,.3,0,.7,0,1,0,1.4.1,3,.2,4.7.3.4,0,.8,0,1.3,0,.4,0,.8,0,1.3,0,.4,0,.9,0,1.3,0,.9,0,1.7,0,2.6,0s1.7,0,2.6,0c.4,0,.9,0,1.3,0,.4,0,.9,0,1.3,0,.4,0,.8,0,1.3,0,2.1-.1,4.1-.2,5.7-.3.2,0,.4,0,.6,0,1.7-.1,2.9-.3,3.6-.3l.7,5.4c.4,2.9.6,5.8.6,8.7v20.3Z"/>
          <path class="cls-2" d="M43.5,38.1v20.3c-.4.8-6.9,2-17.6,2s-17.3-1.2-17.7-1.9v-20.3c0-2.9.2-5.8.6-8.7l.7-5.4c.3,0,.7,0,1.3.1.3,0,.7,0,1.1.1.2,0,.3,0,.5,0,.3,0,.5,0,.8,0,.2,0,.3,0,.5,0,.3,0,.7,0,1,0,1.4.1,3,.2,4.7.3.4,0,.8,0,1.3,0,.4,0,.8,0,1.3,0,.4,0,.9,0,1.3,0,.9,0,1.7,0,2.6,0s1.7,0,2.6,0c.4,0,.9,0,1.3,0,.4,0,.9,0,1.3,0,.4,0,.8,0,1.3,0,2.1-.1,4.1-.2,5.7-.3.2,0,.4,0,.6,0,1.7-.1,2.9-.3,3.6-.3l.7,5.4c.4,2.9.6,5.8.6,8.7Z"/>
        </g>
        <g>
          <path class="cls-2" d="M45.2,39.4v20.7c-.4.9-7.5,2.2-19.3,2.2s-18.9-1.3-19.3-2.1v-21c0-3.6.2-7.2.7-10.7l1.2-7.1.3,2.3h0s-.8,5.8-.8,5.8c-.4,2.9-.6,5.9-.6,8.8v20.3c0,2.8,17.7,2.8,18.5,2.8s18.5,0,18.5-2.8v-20.3c0-2.9-.2-5.9-.6-8.8l-.8-5.8.3-2.2,1.1,6.7c.5,3.7.8,7.5.8,11.3Z"/>
          <path d="M46.1,39.4v20.7c0,3-19.4,3.1-20.2,3.1s-20.2,0-20.2-3.1v-21c0-3.6.2-7.3.7-10.9l1.7-10.3.9.2h0c0,0-.2,1.6-.2,1.6l-.2,1.5-1.2,7.1c-.5,3.5-.7,7.2-.7,10.7v21c.4.8,7.5,2.1,19.3,2.1s18.9-1.3,19.3-2.2v-20.7c0-3.8-.3-7.6-.8-11.3l-1.1-6.7-.3-1.5-.2-1.4h0c0,0,.9-.4.9-.4l1.6,9.9c.5,3.8.8,7.6.8,11.4Z"/>
        </g>
        <path class="cls-1" d="M4,51.3H.6v-8.2c-.3-12,2.2-22.2,2.3-22.6l3.3.8c0,.1-2.5,10.2-2.2,21.7v8.2Z"/>
        <path class="cls-1" d="M47.8,51.3h3.4v-8.2c.3-12-2.2-22.2-2.3-22.6l-3.3.8c0,.1,2.5,10.2,2.2,21.7v8.2Z"/>
        <path class="cls-2" d="M42.7,5.9l-2.3,17.4c-.5,0-1.1.1-1.7.1h0c0,0-.2,0-.3,0-.1,0-.2,0-.3,0-.1,0-.2,0-.3,0-.1,0-.2,0-.4,0h-.2c-.8,0-1.6.1-2.5.2-.9,0-1.8.1-2.8.2-.8,0-1.7,0-2.6,0-.3,0-.6,0-.9,0-.8,0-1.6,0-2.4,0s-1,0-1.5,0c-.3,0-.6,0-.9,0h-.2c-.9,0-1.8,0-2.6,0-.2,0-.4,0-.6,0-.2,0-.4,0-.6,0-.4,0-.8,0-1.3,0-.1,0-.3,0-.4,0-.3,0-.6,0-.8,0-.8,0-1.5,0-2.2-.2,0,0-.1,0-.2,0,0,0-.1,0-.2,0h-.2c-.2,0-.3,0-.4,0,0,0,0,0-.1,0h-.2c0,0-.2,0-.2,0,0,0-.1,0-.2,0-.2,0-.4,0-.6,0-.4,0-.7,0-1,0l-.2-1.3-2.1-16.1c3-.5,9.8-1.6,16.1-1.7h.7c6.5,0,13.6,1.1,16.8,1.7Z"/>
        <circle cx="15" cy="53.9" r="1"/>
        <circle cx="15" cy="31.6" r="1"/>
        <circle cx="37.8" cy="53.9" r="1"/>
        <circle cx="37.8" cy="31.6" r="1"/>
      </g>
    </g>
  </g>
</svg>