<?xml version="1.0" encoding="UTF-8"?>
<svg xmlns="http://www.w3.org/2000/svg" version="1.1" viewBox="0 0 275 201">
  <defs>
    <style>
      .cls-1 {
        fill: #fff;
        fill-rule: evenodd;
      }
    </style>
  </defs>
  <!-- Generator: Adobe Illustrator 28.6.0, SVG Export Plug-In . SVG Version: 1.2.0 Build 709)  -->
  <g>
    <g id="Layer_1">
      <g>
        <g>
          <path class="cls-1" d="M162,140.9h-49.2c-6.8,0-12.3-5.7-12.3-12.4v-34.4c0,2.9,2.3,5.2,5,5.2h63.8c2.7,0,5.2-2.3,5.2-5.2v34.4c0,6.8-5.7,12.4-12.4,12.4h0Z"/>
          <path d="M162,142.5h-49.2c-7.7,0-13.9-6.3-13.9-14v-34.4h3.2c0,2,1.5,3.6,3.4,3.6h63.8c1.9,0,3.6-1.6,3.6-3.6h3.2v34.4c0,7.6-6.4,14-14,14ZM102.1,99.9v28.6c0,6,4.8,10.8,10.7,10.8h49.2c5.9,0,10.8-5,10.8-10.8v-28.6c-1,.6-2.3,1-3.6,1h-63.8c-1.2,0-2.4-.4-3.4-1Z"/>
        </g>
        <g>
          <path class="cls-1" d="M169.3,99.2h-63.8c-2.7,0-5-2.3-5-5.2v-8.9c0-1.6,1.3-2.9,2.9-2.9h68c1.6,0,3.1,1.3,3.1,2.9v8.9c0,2.9-2.4,5.2-5.2,5.2h0Z"/>
          <path d="M169.3,100.8h-63.8c-3.6,0-6.6-3-6.6-6.8v-8.9c0-2.5,2-4.5,4.5-4.5h68c2.5,0,4.7,2.1,4.7,4.5v8.9c0,3.7-3,6.8-6.8,6.8ZM103.4,83.9c-.7,0-1.3.6-1.3,1.3v8.9c0,2,1.5,3.6,3.4,3.6h63.8c1.9,0,3.6-1.6,3.6-3.6v-8.9c0-.7-.7-1.3-1.5-1.3h-68Z"/>
        </g>
        <g>
          <path class="cls-1" d="M163.3,60.1h-51.8c-4.7,0-11,8.9-11,13.6v5.5c0,1.6,1.3,3.1,2.9,3.1h68c1.6,0,3.1-1.5,3.1-3.1v-5.5c0-4.7-6.5-13.6-11.1-13.6h0Z"/>
          <path d="M171.4,83.9h-68c-2.5,0-4.5-2.1-4.5-4.7v-5.5c0-5.3,6.7-15.2,12.6-15.2h51.8c5.9,0,12.8,10,12.8,15.2v5.5c0,2.5-2.2,4.7-4.7,4.7ZM111.5,61.8c-3.6,0-9.4,8-9.4,11.9v5.5c0,.8.6,1.5,1.3,1.5h68c.7,0,1.5-.7,1.5-1.5v-5.5c0-3.9-5.9-11.9-9.5-11.9h-51.8Z"/>
        </g>
        <g>
          <path class="cls-1" d="M100.5,73.7h-4c-2.3,0-4,1.8-4,4v46.7c0,2.3,1.8,4,4,4h4v-54.7Z"/>
          <path d="M102.1,130h-5.6c-3.2,0-5.7-2.5-5.7-5.7v-46.7c0-3.2,2.5-5.7,5.7-5.7h5.6v58ZM96.5,75.3c-1.4,0-2.4,1-2.4,2.4v46.7c0,1.4,1,2.4,2.4,2.4h2.4v-51.5h-2.4Z"/>
        </g>
        <g>
          <path class="cls-1" d="M174.5,73.7h4c2.1,0,4,1.8,4,4v46.7c0,2.3-1.9,4-4,4h-4v-54.7Z"/>
          <path d="M178.5,130h-5.6v-58h5.6c3.1,0,5.7,2.6,5.7,5.7v46.7c0,3.1-2.6,5.7-5.7,5.7ZM176.1,126.8h2.4c1.1,0,2.4-1,2.4-2.4v-46.7c0-1.4-1.3-2.4-2.4-2.4h-2.4v51.5Z"/>
        </g>
      </g>
    </g>
  </g>
</svg>