<?xml version="1.0" encoding="UTF-8"?>
<svg xmlns="http://www.w3.org/2000/svg" version="1.1" viewBox="0 0 40.4 50.9">
  <defs>
    <style>
      .cls-1 {
        fill: #fff;
        stroke: #000;
        stroke-linecap: square;
        stroke-miterlimit: 10;
        stroke-width: 1.1px;
      }
    </style>
  </defs>
  <!-- Generator: Adobe Illustrator 28.6.0, SVG Export Plug-In . SVG Version: 1.2.0 Build 709)  -->
  <g>
    <g id="Layer_1">
      <g>
        <path class="cls-1" d="M36.1,50.4H4.3c-2.1,0-3.8-1.7-3.8-3.8l2.1-29.1c0-2.1,1.7-3.8,3.8-3.8h27.5c2.1,0,3.8,1.7,3.8,3.8l2.2,29.1c0,2.1-1.7,3.8-3.8,3.8Z"/>
        <path class="cls-1" d="M3.7,14.9c.5-.5,1.1-.8,1.8-1-.4-2.1-1.5-7.2-1.5-7.2l5.4-.8,1.2,7.8h1.8l-.4-8h5.3v8h5.5v-8h5.3l-.4,8h1.8l1.2-7.8,5.5.8s-1.1,5-1.5,7.1c.7.2,1.3.5,1.8,1,.2-.8,2.1-9.4,2.1-9.4l-8.6-2.4H10.4L1.6,5.4s2.1,9.3,2.1,9.5h0Z"/>
        <polygon class="cls-1" points="38.7 3 30 .6 10.4 .6 1.6 3 1.6 5.4 10.4 3 30 3 38.7 5.4 38.7 3"/>
      </g>
    </g>
  </g>
</svg>