<?xml version="1.0" encoding="UTF-8"?>
<svg xmlns="http://www.w3.org/2000/svg" version="1.1" viewBox="0 0 275 201">
  <defs>
    <style>
      .cls-1 {
        fill: #fff;
        fill-rule: evenodd;
      }
    </style>
  </defs>
  <!-- Generator: Adobe Illustrator 28.6.0, SVG Export Plug-In . SVG Version: 1.2.0 Build 709)  -->
  <g>
    <g id="Layer_1">
      <g>
        <g>
          <path class="cls-1" d="M113,74c16.6-2.9,32.9-2.9,49.1,0,3.1.6,5,2.6,5.7,5.7,3.2,16.6,3.2,32.9,0,49.1-.6,3.1-2.6,5.2-5.7,5.7-16.1,3.2-32.5,3.2-49.1,0-3.1-.5-5-2.6-5.7-5.7-3.7-16.3-3.7-32.6,0-49.1.6-3.1,2.6-5,5.7-5.7h0Z"/>
          <path d="M137.7,138.4c-8.2,0-16.7-.8-25-2.5-3.6-.6-6.1-3.1-6.9-6.9-3.7-16.4-3.7-33.2,0-49.8.8-3.6,3.2-6.1,6.9-6.9,16.8-3,33.4-2.9,49.7,0,3.7.8,6.2,3.2,6.9,6.9,3.3,16.8,3.2,33.5,0,49.7-.8,3.8-3.4,6.4-7,6.9-8.1,1.6-16.4,2.4-24.6,2.4ZM137.7,73.5c-8,0-16.3.7-24.4,2.2-2.4.5-3.8,1.9-4.3,4.4-3.6,16.2-3.6,32.4,0,48.4.4,1.8,1.4,3.9,4.3,4.4,16.5,3.2,32.6,3.2,48.5,0,3-.5,4-2.6,4.4-4.4,3.2-15.8,3.2-32.1,0-48.4-.5-2.4-2-3.9-4.4-4.4-7.9-1.4-16-2.1-24-2.1Z"/>
        </g>
        <path d="M168,67.2c-.1,0-.2,0-.3,0-19.7-4.3-40-4.3-60.3,0-.9.2-1.7-.4-1.9-1.2-.2-.9.4-1.7,1.2-1.9,20.8-4.4,41.6-4.4,61.7,0,.9.2,1.4,1.1,1.2,1.9-.2.8-.8,1.3-1.6,1.3Z"/>
        <rect x="107.6" y="65.2" width="3.2" height="11.5" transform="translate(-18.7 46.6) rotate(-22.2)"/>
        <g>
          <path class="cls-1" d="M107,70c2.4,0,4.4-1.9,4.4-4.4s-1.9-4.4-4.4-4.4-4.4,1.9-4.4,4.4,1.9,4.4,4.4,4.4h0Z"/>
          <path d="M107,71.6c-3.3,0-6-2.7-6-6s2.7-6,6-6,6,2.7,6,6-2.7,6-6,6ZM107,62.9c-1.5,0-2.7,1.2-2.7,2.7s1.2,2.7,2.7,2.7,2.7-1.2,2.7-2.7-1.2-2.7-2.7-2.7Z"/>
        </g>
        <rect x="160.1" y="69.3" width="11.5" height="3.2" transform="translate(37.4 197.6) rotate(-67.8)"/>
        <g>
          <path class="cls-1" d="M168,70c2.4,0,4.4-1.9,4.4-4.4s-1.9-4.4-4.4-4.4-4.4,1.9-4.4,4.4,1.9,4.4,4.4,4.4h0Z"/>
          <path d="M168,71.6c-3.3,0-6-2.7-6-6s2.7-6,6-6,6,2.7,6,6-2.7,6-6,6ZM168,62.9c-1.5,0-2.7,1.2-2.7,2.7s1.2,2.7,2.7,2.7,2.7-1.2,2.7-2.7-1.2-2.7-2.7-2.7Z"/>
        </g>
        <path d="M110.4,141.3c-.2,0-.4,0-.6-.1-.8-.3-1.2-1.3-.9-2.1l2.1-5.3c.3-.8,1.3-1.2,2.1-.9.8.3,1.2,1.3.9,2.1l-2.1,5.3c-.3.6-.9,1-1.5,1Z"/>
        <path d="M164.1,141.3c-.6,0-1.3-.4-1.5-1l-2.1-5.3c-.3-.8,0-1.8.9-2.1.8-.3,1.8,0,2.1.9l2.1,5.3c.3.8,0,1.8-.9,2.1-.2,0-.4.1-.6.1Z"/>
      </g>
    </g>
  </g>
</svg>