<?xml version="1.0" encoding="UTF-8"?>
<svg xmlns="http://www.w3.org/2000/svg" version="1.1" viewBox="0 0 275 201">
  <defs>
    <style>
      .cls-1 {
        fill-rule: evenodd;
      }

      .cls-1, .cls-2 {
        fill: #fff;
      }
    </style>
  </defs>
  <!-- Generator: Adobe Illustrator 28.6.0, SVG Export Plug-In . SVG Version: 1.2.0 Build 709)  -->
  <g>
    <g id="Layer_1">
      <g>
        <g>
          <path class="cls-1" d="M150.4,82.6h-25.8c-5.8,0-12.4,4.8-13.4,10.7l-5.5,34.4c-.8,5.8,4.8,10.7,10.8,10.7h42c6,0,11.8-4.8,10.8-10.7l-3.1-17.3-2.4-17.1c-.8-5.8-7.4-10.7-13.4-10.7h0Z"/>
          <path d="M158.4,139.5h-42c-3.6,0-7.2-1.6-9.6-4.3-1.9-2.2-2.8-5-2.4-7.7l5.5-34.4c1-6.1,8-11.7,14.6-11.7h25.8c6.8,0,13.7,5.6,14.6,11.7l2.4,17.1,3.1,17.2c.5,2.7-.3,5.4-2.2,7.6-2.3,2.7-6.1,4.5-9.8,4.5ZM124.5,83.8c-5.4,0-11.4,4.7-12.2,9.6l-5.5,34.4c-.3,2,.4,4.1,1.9,5.8,1.9,2.1,4.8,3.5,7.8,3.5h42c3,0,6-1.4,7.9-3.6,1-1.2,2.1-3.1,1.7-5.6l-3.1-17.3-2.4-17.2c-.7-4.9-6.6-9.6-12.2-9.6h-25.8Z"/>
        </g>
        <g>
          <polygon class="cls-2" points="149.1 70.3 146.3 79.5 150.2 80.6 153 71.3 149.1 70.3"/>
          <path d="M151,82.1l-6.2-1.8,3.4-11.5,6.2,1.6-3.4,11.7ZM147.8,78.7l1.5.5,2-7-1.5-.4-2.1,6.9Z"/>
        </g>
        <g>
          <polygon class="cls-2" points="124.9 81 122.1 71.3 126 70.3 128.7 79.8 124.9 81"/>
          <path d="M124,82.5l-3.4-12.1,6.2-1.6,3.4,11.8-6.2,1.8ZM123.6,72.2l2.1,7.3,1.5-.5-2.1-7.2-1.5.4Z"/>
        </g>
        <g>
          <path class="cls-1" d="M111.3,92.4c1.9-8.7,8.2-12.6,12.4-14.2,4.2-1.5,8.1-1.5,13.7-1.5s9.5,0,13.7,1.5c4.4,1.6,10.8,5.2,12.6,14.4-1.3-5.5-7.7-10-13.4-10h-25.8c-5.7,0-11.8,4.4-13.2,9.8h0Z"/>
          <path d="M162.6,92.9c-1.1-4.7-6.9-9.1-12.2-9.1h-25.8c-5.3,0-10.8,4.1-12.1,8.9l-2.3-.6c2.1-9.5,9.2-13.5,13.2-15.1,4.4-1.5,8.5-1.5,14.2-1.5s9.7,0,14.1,1.5c7.5,2.8,12,7.9,13.4,15.3l-2.4.5ZM124.5,81.4h25.8c2.4,0,4.9.7,7.2,2-1.8-1.7-4.1-3-6.8-4-4-1.4-7.7-1.4-13.3-1.4s-9.3,0-13.3,1.4c-1.6.6-3.8,1.7-5.9,3.5,2-1,4.1-1.5,6.3-1.5Z"/>
        </g>
        <g>
          <path class="cls-1" d="M167,77.9c-3.6-2.1-7.3-4.5-13.1-6.5-5.8-1.9-12.9-2.3-16.5-2.3s-10.7.3-16.5,2.3c-5.8,1.9-9.5,4.4-13.1,6.5-3.6,2.1-3.4-.6-.8-3.1,2.6-2.4,8.2-7.1,14.9-9.5,6.8-2.4,12.3-2.4,15.5-2.6,3.2.2,8.7.2,15.5,2.6,6.8,2.4,12.3,7.1,15,9.5,2.6,2.4,2.6,5.2-1,3.1h0Z"/>
          <path d="M169,79.9c-.7,0-1.6-.3-2.6-.9l-1.3-.8c-3.2-1.9-6.6-3.9-11.6-5.6-6-2-13.2-2.2-16.1-2.2s-10.1.2-16.1,2.2c-5,1.7-8.4,3.7-11.6,5.6l-1.2.7c-2.3,1.3-3.9,1.1-4.4-.2-.6-1.5.7-3.4,2.1-4.8,2.2-2.1,8.1-7.2,15.3-9.8,6.3-2.3,11.5-2.5,14.9-2.6h1s1.1,0,1.1,0c3.4.1,8.5.4,14.8,2.6,7.3,2.6,13.2,7.8,15.4,9.8,1.8,1.7,2.6,3.5,2.1,4.7-.3.7-1,1.2-1.8,1.2ZM137.5,68c3,0,10.6.2,16.8,2.3,5.3,1.8,8.9,3.9,12.1,5.8l1.3.7c.3.2.5.3.7.4-.2-.4-.6-.9-1.2-1.5-2.1-1.8-7.7-6.8-14.6-9.3-5.9-2.1-10.9-2.3-14.1-2.5h-1s-.9,0-.9,0c-3.3.1-8.2.3-14.1,2.5-6.7,2.5-12.3,7.3-14.4,9.3-.6.5-1,1.1-1.2,1.4.2,0,.4-.2.6-.3l1.2-.7c3.2-1.9,6.8-4.1,12.1-5.8,6.3-2.1,13.9-2.3,16.9-2.3Z"/>
        </g>
      </g>
    </g>
  </g>
</svg>