<?xml version="1.0" encoding="UTF-8"?>
<svg xmlns="http://www.w3.org/2000/svg" version="1.1" viewBox="0 0 275 201">
  <defs>
    <style>
      .cls-1 {
        fill: #fff;
        fill-rule: evenodd;
      }
    </style>
  </defs>
  <!-- Generator: Adobe Illustrator 28.6.0, SVG Export Plug-In . SVG Version: 1.2.0 Build 709)  -->
  <g>
    <g id="Layer_1">
      <g>
        <g>
          <path class="cls-1" d="M137.5,75.8c6,0,13.6,1,21.1,5.2,7.4,4.4,10.7,6.9,15.5,10.7,4.8,3.9,12.8,2.3,12.9-3.1,0-5.2-1-12.8-10.8-24.1-9.7-11.1-26.6-17.3-38.7-17.3s-29.2,6.1-38.9,17.3c-9.8,11.3-10.8,18.9-10.7,24.1.2,5.3,7.9,6.9,12.8,3.1,4.8-3.7,8.1-6.3,15.5-10.7,7.6-4.2,15.2-5.2,21.3-5.2h0Z"/>
          <path d="M180.3,95.4c-2.6,0-5.2-.9-7.2-2.5l-1.1-.8c-4.3-3.3-7.5-5.7-14.3-9.7-6-3.3-12.7-4.9-20.3-4.9s-14.5,1.6-20.5,5c-6.7,4-9.9,6.4-14.2,9.7l-1.1.8c-2,1.6-4.5,2.5-7.1,2.5h0c-4.6,0-8.1-2.8-8.2-6.8-.2-5.6.9-13.5,11.1-25.2,10.2-11.7,27.9-17.8,40.1-17.8s29.8,6.1,40,17.8c9.9,11.4,11.2,19.4,11.2,25.1-.1,4-3.6,6.8-8.3,6.8ZM137.5,74.2c8.1,0,15.5,1.8,21.9,5.4,7,4.1,10.4,6.7,14.6,10l1.1.8c1.5,1.2,3.3,1.8,5.2,1.8s5-1.1,5.1-3.6c0-5.4-1.2-12.4-10.4-22.9-9.5-11-26.1-16.7-37.5-16.7s-28.1,5.7-37.7,16.7c-9.4,10.8-10.4,17.9-10.3,22.9,0,2.5,2.6,3.6,5,3.6h0c1.9,0,3.7-.6,5.1-1.8l1.1-.8c4.3-3.3,7.6-5.9,14.6-9.9,6.6-3.6,13.8-5.4,22.1-5.4Z"/>
        </g>
        <g>
          <path class="cls-1" d="M137.5,75.8c-6.1,0-13.7,1-21.3,5.2-7.4,4.4-10.7,6.9-15.5,10.7-9.2,15.8-11.5,30-8.7,41.2,2.7,11.3,9.8,15.7,19.9,17.9,9.8,2.4,16.8,3.2,25.7,3.1,8.9.2,15.8-.6,25.7-3.1,9.8-2.3,17-6.6,19.7-17.9,2.7-11.1.5-25.3-8.7-41.2-4.8-3.7-8.1-6.3-15.5-10.7-7.6-4.2-15.2-5.2-21.1-5.2h0Z"/>
          <path d="M139.6,155.4h-2.1s-2.1,0-2.1,0c-8,0-14.8-.9-23.9-3.1-8.6-1.9-17.8-5.7-21-19.1-3.1-12.4,0-27.1,8.9-42.4l.4-.5,1.1-.8c4.3-3.3,7.6-5.9,14.6-9.9,6.6-3.6,13.8-5.4,22.1-5.4s15.5,1.8,21.9,5.4c7,4.1,10.4,6.7,14.6,10l1.5,1.3c8.9,15.3,12,29.9,8.9,42.4-3.2,13.4-12.4,17.2-20.9,19.1-9.2,2.3-15.9,3.1-23.9,3.1ZM137.5,152.2h2.1c7.8,0,14.3-.8,23.2-3,10.9-2.5,16.2-7.3,18.5-16.7,2.8-11.5,0-25.3-8.4-39.7l-.8-.6c-4.3-3.3-7.5-5.7-14.3-9.7-6-3.3-12.7-4.9-20.3-4.9s-14.5,1.6-20.5,5c-6.7,4-9.9,6.4-14.2,9.7l-.8.6c-8.3,14.4-11.2,28.2-8.4,39.7,2.3,9.4,7.7,14.3,18.6,16.7,8.9,2.2,15.4,3,23.2,3h2.1Z"/>
        </g>
        <path d="M185.2,92.4h0c-2.7,0-4.8-3.5-7.5-7.9-.9-1.5-1.9-3-2.8-4.4-5.1-7-12-11-16.9-13-6.7-2.9-13-4.2-20.4-4.2s-13.8,1.3-20.3,4.2c-5,2-12,5.9-16.9,13-1.1,1.5-2.1,3.1-3.1,4.6-2.7,4.3-4.8,7.6-7.5,7.7-.7,0-1.9-.2-2.9-1.7l2.6-1.9c.2.3.3.3.3.3.9-.2,3.3-3.9,4.7-6.2,1-1.6,2.1-3.3,3.2-4.8,5.4-7.7,12.9-11.9,18.3-14.1,6.9-3.1,13.6-4.5,21.6-4.5s14.5,1.4,21.6,4.5c5.3,2.2,12.7,6.4,18.3,14.1,1,1.5,2,3,3,4.6,1.4,2.3,3.8,6.1,4.9,6.4,0,0,0-.1.2-.3l2.6,1.9c-1,1.4-2.1,1.7-2.8,1.7Z"/>
      </g>
    </g>
  </g>
</svg>