<?xml version="1.0" encoding="UTF-8"?>
<svg xmlns="http://www.w3.org/2000/svg" version="1.1" viewBox="0 0 275 201">
  <defs>
    <style>
      .cls-1 {
        fill-rule: evenodd;
      }

      .cls-1, .cls-2 {
        fill: #fff;
      }
    </style>
  </defs>
  <!-- Generator: Adobe Illustrator 28.6.0, SVG Export Plug-In . SVG Version: 1.2.0 Build 709)  -->
  <g>
    <g id="Layer_1">
      <g>
        <g>
          <path class="cls-2" d="M165.2,76c1-1,2.4-1,3.4,0s1,2.4,0,3.4l-6.1,6.3c-1,1-2.6,1-3.4,0-1-1-1-2.4,0-3.4l6.1-6.3ZM112.6,128.6c1-1,2.6-1,3.4,0,1,1,1,2.4,0,3.4l-6.1,6.3c-1,.8-2.4.8-3.4,0-1-1-1-2.6,0-3.4l6.1-6.3Z"/>
          <path d="M108.1,139.4c-.8,0-1.5-.3-2.1-.7-.6-.6-1-1.5-.9-2.3,0-.8.4-1.5.9-1.9l6.1-6.3c1.2-1.2,3.3-1.1,4.2,0,1.2,1.2,1.2,3,0,4.2l-6.1,6.3c-.6.5-1.3.8-2.1.8ZM114.3,128.4c-.5,0-1,.2-1.4.6l-6.1,6.3c-.4.3-.5.7-.6,1.2,0,.5.2,1.1.6,1.4.7.6,1.9.6,2.6,0l6.1-6.3c.8-.8.8-1.8,0-2.6-.3-.4-.7-.6-1.2-.6ZM160.7,86.9c-.8,0-1.6-.3-2.1-.9-1.2-1.2-1.2-3,0-4.2l6.1-6.3c1.2-1.2,3-1.2,4.2,0,1.2,1.2,1.2,3,0,4.2l-6.1,6.3c-.6.6-1.4.9-2.2.9ZM166.9,75.8c-.5,0-.9.2-1.3.6l-6.1,6.3c-.8.8-.8,1.8,0,2.6.6.8,1.9.7,2.6,0l6.1-6.3c.8-.8.8-1.8,0-2.6-.4-.4-.8-.6-1.3-.6Z"/>
        </g>
        <g>
          <path class="cls-2" d="M106.5,79.4c-1-1-1-2.4,0-3.4s2.4-1,3.4,0l6.1,6.3c1,1,1,2.4,0,3.4-.8,1-2.4,1-3.4,0l-6.1-6.3ZM159.1,132c-1-1-1-2.4,0-3.4.8-1,2.4-1,3.4,0l6.1,6.3c1,.8,1,2.4,0,3.4-1,.8-2.4.8-3.4,0l-6.1-6.3Z"/>
          <path d="M166.9,139.7c-.8,0-1.6-.3-2.2-.8l-6.2-6.4c-1.3-1.3-1.3-3.2,0-4.5,1-1.2,3.3-1.2,4.5,0l6.1,6.3c.6.5.9,1.2,1,2.1,0,.9-.3,1.8-1,2.5-.7.6-1.5.8-2.3.8ZM160.7,128.7c-.4,0-.8.2-1,.4-.7.7-.7,1.7,0,2.3l6.1,6.3c.5.4,1.7.5,2.3,0,.3-.3.5-.7.4-1.2,0-.4-.2-.7-.4-.9l-6.2-6.4c-.3-.3-.7-.5-1.2-.5ZM114.3,87.2c-.9,0-1.7-.4-2.3-1l-6.1-6.3c-1.3-1.3-1.3-3.2,0-4.5,1.3-1.2,3.3-1.2,4.5,0l6.1,6.3c1.3,1.3,1.3,3.2,0,4.5-.5.6-1.3,1-2.2,1ZM108.1,76c-.4,0-.8.2-1.1.5-.7.7-.7,1.6,0,2.2l6.1,6.3c.6.6,1.7.6,2.2,0,.7-.7.7-1.7,0-2.3l-6.1-6.3c-.3-.3-.7-.5-1.1-.5Z"/>
        </g>
        <g>
          <path class="cls-2" d="M99.2,92.8c-.5,1.5-2.3,2.3-3.7,1.8-1.6-.6-2.4-2.3-1.8-3.9,3.4-9,9.4-16.6,17.3-22.1,7.4-5.2,16.6-8.2,26.6-8.2s18.9,3.1,26.5,8.2c7.7,5.3,13.9,13.1,17.3,22,.5,1.6-.2,3.2-1.8,3.9-1.6.6-3.2-.2-3.9-1.8-2.9-7.7-8.2-14.5-15-19.2-6.6-4.5-14.5-7.1-23.1-7.1s-16.8,2.6-23.2,7.3c-6.8,4.7-12.1,11.3-15.2,19.2h0Z"/>
          <path d="M96.4,95.5c-.4,0-.8,0-1.1-.2-1.1-.4-1.9-1.2-2.3-2.1-.4-.9-.4-1.9,0-2.8,3.4-9.1,9.5-16.9,17.6-22.5,7.9-5.5,17.3-8.4,27.1-8.4s18.9,2.9,26.9,8.4c7.9,5.4,14.2,13.4,17.6,22.3.6,2.1-.3,4.1-2.2,4.9-2,.8-4.1-.2-4.9-2.2-2.8-7.6-8.1-14.2-14.7-18.8-6.7-4.5-14.5-7-22.6-7s-16.4,2.5-22.8,7.1c-6.8,4.7-11.9,11.2-14.9,18.9-.5,1.4-1.9,2.4-3.6,2.4ZM137.6,61.1c-9.5,0-18.6,2.8-26.2,8.1-7.8,5.4-13.7,12.9-17,21.7-.2.6-.2,1.1,0,1.6.2.5.7,1,1.3,1.2.2,0,.4,0,.6,0,.9,0,1.8-.6,2.1-1.4,3.1-8,8.5-14.8,15.5-19.6,6.7-4.8,14.9-7.4,23.7-7.4s16.6,2.5,23.5,7.2c6.9,4.8,12.4,11.7,15.3,19.6.5,1.2,1.7,1.8,2.8,1.3,1.2-.5,1.7-1.6,1.3-2.9-3.3-8.6-9.3-16.3-17-21.5-7.8-5.3-16.8-8.1-26-8.1Z"/>
        </g>
        <g>
          <path class="cls-1" d="M104.7,107.1c0-18.1,14.7-32.8,32.9-32.8s32.8,14.7,32.8,32.8-14.7,32.8-32.8,32.8-32.9-14.7-32.9-32.8h0Z"/>
          <path d="M137.6,141.5c-19,0-34.6-15.4-34.6-34.4s15.5-34.4,34.6-34.4,34.4,15.4,34.4,34.4-15.4,34.4-34.4,34.4ZM137.6,76c-17.3,0-31.3,14-31.3,31.2s14.1,31.2,31.3,31.2,31.2-14,31.2-31.2-14-31.2-31.2-31.2Z"/>
        </g>
      </g>
    </g>
  </g>
</svg>