<?xml version="1.0" encoding="UTF-8"?>
<svg xmlns="http://www.w3.org/2000/svg" version="1.1" viewBox="0 0 275 201">
  <defs>
    <style>
      .cls-1 {
        fill: #fff;
        fill-rule: evenodd;
      }
    </style>
  </defs>
  <!-- Generator: Adobe Illustrator 28.6.0, SVG Export Plug-In . SVG Version: 1.2.0 Build 709)  -->
  <g>
    <g id="Layer_1">
      <g>
        <g>
          <path class="cls-1" d="M133.8,49.9c0-2.1,1.6-3.7,3.7-3.7s3.7,1.6,3.7,3.7-1.6,3.7-3.7,3.7-3.7-1.6-3.7-3.7h0Z"/>
          <path d="M137.5,55.3c-3,0-5.3-2.3-5.3-5.3s2.3-5.3,5.3-5.3,5.3,2.3,5.3,5.3-2.3,5.3-5.3,5.3ZM137.5,47.8c-1.2,0-2.1.9-2.1,2.1s.9,2.1,2.1,2.1,2.1-.9,2.1-2.1-.9-2.1-2.1-2.1Z"/>
        </g>
        <rect x="135.9" y="53.7" width="3.2" height="4.2"/>
        <g>
          <path class="cls-1" d="M137.5,69.8c-16.5.8-31,9.4-34.2,28.7-1,5.2-1.5,9.8-1.3,15,.3,25.2,16.6,28.6,35.5,28.9,18.9-.3,35.4-3.7,35.7-28.9,0-5.2-.5-9.8-1.3-15-3.4-19.4-17.9-27.9-34.4-28.7h0Z"/>
          <path d="M137.5,144.1h0c-17.8-.3-36.8-2.9-37.1-30.5-.2-4.9.3-9.6,1.3-15.3,3-18.1,16-29.1,35.7-30.1,19.8,1,32.9,11.9,36.1,30.1.9,5.9,1.3,10.5,1.3,15.3-.4,27.6-19.4,30.2-37.3,30.5h0ZM137.4,71.4c-17.9.9-29.8,10.9-32.6,27.4-1,5.5-1.4,10-1.3,14.7.3,22.3,13.2,27,33.9,27.3,20.8-.4,33.8-5.1,34.1-27.3,0-4.6-.4-9-1.3-14.7-2.9-16.5-14.9-26.5-32.9-27.4Z"/>
        </g>
        <g>
          <path class="cls-1" d="M137.5,57.8c-15.8,0-28.3,6.9-34.2,13.6-6.5,7.3-5.5,14,6.3,11.9,10.7-2.1,17.4-3.7,27.9-3.7s17.4,1.6,28.1,3.7c11.6,2.1,12.6-4.7,6.1-11.9-6-6.6-18.2-13.6-34.2-13.6h0Z"/>
          <path d="M169.5,85.4h0c-1.3,0-2.7-.1-4.2-.4l-3.1-.6c-9-1.8-15.4-3.1-24.7-3.1s-15.5,1.3-24.2,3l-3.4.7c-1.6.3-3,.4-4.3.4-4.8,0-6.7-2-7.4-3.6-1.3-3,0-7.1,3.9-11.4,5.9-6.5,18.7-14.1,35.4-14.1s29.3,7.3,35.4,14.1c3.8,4.3,5.2,8.5,3.9,11.4-.7,1.6-2.6,3.6-7.3,3.6ZM137.5,78c9.6,0,16.2,1.3,25.4,3.1l3,.6c1.3.2,2.5.4,3.6.4h0c1.4,0,3.7-.2,4.4-1.7.8-1.7-.6-4.8-3.4-8-5.7-6.3-17.3-13-33-13s-27.6,7-33,13c-2.8,3.1-4.1,6.2-3.3,7.9.7,1.5,3.1,1.7,4.5,1.7s2.3-.1,3.7-.4l3.3-.7c8.9-1.8,15.4-3.1,24.9-3.1Z"/>
        </g>
        <g>
          <path class="cls-1" d="M91.6,99.8c-1.9-.5-3.2-2.4-2.9-4.5.5-1.9,2.6-3.2,4.5-2.7,1.9.5,3.2,2.4,2.7,4.4-.3,2.1-2.4,3.4-4.4,2.9h0Z"/>
          <path d="M92.5,101.5c-.4,0-.8,0-1.2-.2-2.8-.7-4.6-3.4-4.1-6.3.7-2.9,3.8-4.7,6.5-4.1,2.9.7,4.6,3.5,3.9,6.3-.4,2.3-2.6,4.2-5.1,4.2ZM92.4,94.1c-1,0-1.9.7-2.1,1.6-.2,1.1.6,2.3,1.7,2.6.9.3,2.2-.3,2.4-1.6.3-1.2-.4-2.3-1.5-2.5-.1,0-.3,0-.4,0Z"/>
        </g>
        <rect x="98" y="94" width="3.2" height="7.4" transform="translate(-17.4 173.8) rotate(-77.5)"/>
        <g>
          <path class="cls-1" d="M183.3,99.8c2.1-.5,3.4-2.4,2.9-4.5-.5-1.9-2.4-3.2-4.5-2.7-1.9.5-3.2,2.4-2.7,4.4.5,2.1,2.4,3.4,4.4,2.9h0Z"/>
          <path d="M182.5,101.5h0c-2.4,0-4.5-1.8-5.1-4.3-.7-2.7,1.1-5.6,3.9-6.3,3-.7,5.8,1.1,6.5,3.9.7,3-1.1,5.8-4.1,6.5-.4,0-.8.1-1.2.1ZM182.6,94.1c-.2,0-.3,0-.5,0-1.1.3-1.8,1.4-1.5,2.4.3,1.2,1.3,2,2.4,1.7,1.3-.3,2-1.4,1.7-2.6-.2-.9-1.1-1.6-2.1-1.6Z"/>
        </g>
        <rect x="171.8" y="96.1" width="7.3" height="3.2" transform="translate(-17.2 41.1) rotate(-12.7)"/>
        <g>
          <path class="cls-1" d="M112.9,150.4c-1,1.6-3.4,2.1-5,1-1.8-1.1-2.3-3.4-1.1-5.2,1.1-1.6,3.4-2.1,5.2-1,1.6,1.1,2.1,3.4,1,5.2h0Z"/>
          <path d="M109.9,153.6c-1.1,0-2.1-.3-2.9-.9-1.2-.7-2-1.9-2.3-3.3-.3-1.4,0-2.8.7-4.1,1.7-2.4,5-3,7.4-1.5,2.4,1.7,3,4.9,1.5,7.4-.9,1.4-2.5,2.3-4.4,2.3ZM109.9,146.2c-.7,0-1.4.3-1.7.9-.3.4-.4,1-.3,1.6.1.5.5,1,.9,1.3.4.3.9.4,1.2.4.7,0,1.3-.3,1.6-.8.7-1,.4-2.4-.5-3-.3-.2-.7-.3-1.2-.3Z"/>
        </g>
        <rect x="110.3" y="140.5" width="7.3" height="3.2" transform="translate(-67.1 162.4) rotate(-57.7)"/>
        <g>
          <path class="cls-1" d="M161.9,150.4c1.1,1.8,3.4,2.3,5.2,1.1,1.6-1.1,2.1-3.4,1-5.2s-3.4-2.3-5.2-1.1c-1.6,1.1-2.1,3.4-1,5.2h0Z"/>
          <path d="M165,153.7h0c-1.8,0-3.5-.9-4.5-2.5-1.6-2.5-1-5.7,1.4-7.4,2.6-1.7,5.9-.9,7.5,1.6,1.6,2.5,1,5.7-1.4,7.4-.9.6-2,.9-3,.9ZM164.9,146.2c-.4,0-.8.1-1.2.4-.9.6-1.1,1.9-.5,2.9.4.6,1,1,1.8,1h0c.4,0,.8-.1,1.2-.4.9-.6,1.1-1.9.5-2.9-.4-.6-1-1-1.8-1Z"/>
        </g>
        <rect x="159.3" y="138.5" width="3.2" height="7.3" transform="translate(-51 107.9) rotate(-32.3)"/>
      </g>
    </g>
  </g>
</svg>