<?xml version="1.0" encoding="UTF-8"?>
<svg xmlns="http://www.w3.org/2000/svg" version="1.1" viewBox="0 0 275 201">
  <defs>
    <style>
      .cls-1 {
        fill-rule: evenodd;
      }

      .cls-1, .cls-2 {
        fill: #fff;
      }
    </style>
  </defs>
  <!-- Generator: Adobe Illustrator 28.6.0, SVG Export Plug-In . SVG Version: 1.2.0 Build 709)  -->
  <g>
    <g id="Layer_1">
      <g>
        <g>
          <polygon class="cls-1" points="174.2 84.8 181.7 97.5 185.2 95.6 177.8 82.7 174.2 84.8"/>
          <path d="M181.4,98.6l-8.2-14.1,5-2.9,8.2,14.3-5,2.7ZM175.3,85l6.6,11.4,2.1-1.2-6.6-11.5-2.2,1.3Z"/>
        </g>
        <g>
          <path class="cls-1" d="M182.3,88.6c-.8-1.5-2.6-1.9-4-1.1l-7.6,4.4,3.1,5.2,7.6-4.2c1.5-1,1.9-2.7,1-4.2h0Z"/>
          <path d="M173.4,98.1l-3.9-6.5,8.3-4.8c1.8-1,4.1-.4,5.1,1.4,1.2,1.7.6,4-1.2,5.3l-8.3,4.6ZM171.8,92.2l2.3,3.8,6.9-3.8c1.1-.7,1.4-2,.7-3-.6-1.1-1.9-1.5-3-.9l-6.9,3.9Z"/>
        </g>
        <g>
          <rect class="cls-2" x="135.5" y="48.9" width="4" height="14.9"/>
          <path d="M140.3,64.6h-5.7v-16.5h5.7v16.5ZM136.3,63h2.4v-13.2h-2.4v13.2Z"/>
        </g>
        <g>
          <path class="cls-1" d="M137.6,53.3c1.6,0,2.9,1.3,2.9,3.1v7.4h-6v-7.4c0-1.8,1.3-3.1,3.1-3.1h0Z"/>
          <path d="M141.3,64.6h-7.6v-8.2c0-2.2,1.7-3.9,3.9-3.9s3.7,1.7,3.7,3.9v8.2ZM135.3,63h4.4v-6.6c0-1.3-.9-2.3-2.1-2.3s-2.3.9-2.3,2.3v6.6Z"/>
        </g>
        <g>
          <path class="cls-1" d="M132.6,64.1v-2.4c0-1.8,2.3-3.2,5-3.2s4.8,1.5,4.8,3.2v2.4h-9.8Z"/>
          <path d="M144,65.7h-13.1v-4c0-2.7,2.9-4.8,6.6-4.8s6.5,2.2,6.5,4.8v4ZM134.2,62.5h6.6v-.8c0-.6-1.4-1.6-3.2-1.6s-3.4,1-3.4,1.6v.8Z"/>
        </g>
        <g>
          <path class="cls-1" d="M103,74.3v-7.4c0-1.5,1.3-2.7,2.9-2.7h63.1c1.6,0,2.9,1.3,2.9,2.7v7.4c0,1.5-1.3,2.3-2.9,2.7-20.7,5.3-41.7,5.5-63.1,0-1.6-.5-2.9-1.3-2.9-2.7h0Z"/>
          <path d="M137.6,82.7c-10.6,0-21.4-1.4-32-4.1-3.4-1-4.1-2.9-4.1-4.3v-7.4c0-2.4,2.1-4.4,4.5-4.4h63.1c2.5,0,4.5,2,4.5,4.4v7.4c0,1.4-.7,3.3-4.1,4.3-10.6,2.7-21.4,4.1-32,4.1ZM105.9,65.7c-.7,0-1.3.6-1.3,1.1v7.4c0,.6,1.1,1,1.8,1.2,20.7,5.3,41.6,5.3,62.3,0,.6-.2,1.7-.6,1.7-1.2v-7.4c0-.5-.6-1.1-1.3-1.1h-63.1Z"/>
        </g>
        <g>
          <polygon class="cls-1" points="100.8 84.8 93.3 97.5 89.8 95.6 97.2 82.7 100.8 84.8"/>
          <path d="M93.6,98.6l-5-2.7,8.2-14.3,5,2.9-8.2,14.1ZM90.9,95.3l2.1,1.2,6.6-11.4-2.2-1.3-6.6,11.5Z"/>
        </g>
        <g>
          <path class="cls-1" d="M92.7,88.6c.8-1.5,2.6-1.9,4-1.1l7.6,4.4-3.1,5.2-7.4-4.2c-1.5-1-2.1-2.7-1.1-4.2h0Z"/>
          <path d="M101.5,98.1l-8.1-4.6c-2-1.3-2.6-3.6-1.4-5.3,1-1.7,3.3-2.4,5.1-1.4l8.3,4.8-3.9,6.6ZM95.3,87.9c-.8,0-1.5.4-1.9,1.1-.8,1.2-.1,2.5.9,3.1l6.7,3.8,2.2-3.8-6.9-4c-.3-.2-.7-.3-1.1-.3Z"/>
        </g>
        <g>
          <path class="cls-1" d="M101.3,140.9v-43.9c0-6,5.7-12.6,12.4-13.7,16.5-3.1,32.3-2.9,47.6,0,6.8,1.1,12.4,7.7,12.4,13.7v43.9c0,4-3.9,6.5-8.6,7.4-18.6,3.9-37,3.9-55.4,0-4.7-1-8.6-3.4-8.6-7.4h0Z"/>
          <path d="M137.4,152.9c-9.3,0-18.7-1-28-2.9-6.2-1.3-9.8-4.6-9.8-9v-43.9c0-6.9,6.4-14.1,13.8-15.3,16.1-3,32.3-3,48.2,0,7.3,1.2,13.7,8.4,13.7,15.3v43.9c0,4.4-3.7,7.7-9.8,9-9.3,2-18.8,2.9-28.1,2.9ZM137.6,82.7c-7.8,0-15.7.7-23.6,2.2-5.8,1-11.1,6.8-11.1,12.1v43.9c0,3.9,5.1,5.4,7.3,5.8,18.1,3.8,36.5,3.8,54.7,0,2.2-.5,7.3-1.9,7.3-5.8v-43.9c0-5.4-5.3-11.2-11.1-12.1-7.8-1.5-15.7-2.2-23.4-2.2Z"/>
        </g>
      </g>
    </g>
  </g>
</svg>