<?xml version="1.0" encoding="UTF-8"?>
<svg xmlns="http://www.w3.org/2000/svg" xmlns:xlink="http://www.w3.org/1999/xlink" version="1.1" viewBox="0 0 121 107">
  <defs>
    <style>
      .cls-1 {
        fill: url(#linear-gradient-3);
      }

      .cls-2 {
        fill: url(#linear-gradient-2);
      }

      .cls-3 {
        fill: url(#linear-gradient);
      }
    </style>
    <linearGradient id="linear-gradient" x1="-251.5" y1="538.2" x2="-185.6" y2="578.4" gradientTransform="translate(287 -518)" gradientUnits="userSpaceOnUse">
      <stop offset="0" stop-color="#aa59e1"/>
      <stop offset=".2" stop-color="#b05bd6"/>
      <stop offset=".4" stop-color="#c263ba"/>
      <stop offset=".7" stop-color="#de6f8d"/>
      <stop offset="1" stop-color="#fc7c5e"/>
    </linearGradient>
    <linearGradient id="linear-gradient-2" x1="-263.7" y1="586.7" x2="-225.9" y2="609.7" xlink:href="#linear-gradient"/>
    <linearGradient id="linear-gradient-3" x1="-276.1" y1="567.7" x2="-266.4" y2="573.6" gradientTransform="translate(287 -518)" gradientUnits="userSpaceOnUse">
      <stop offset=".3" stop-color="#a857e0"/>
      <stop offset="1" stop-color="#a55adf"/>
    </linearGradient>
  </defs>
  <!-- Generator: Adobe Illustrator 28.6.0, SVG Export Plug-In . SVG Version: 1.2.0 Build 709)  -->
  <g>
    <g id="Layer_1">
      <path class="cls-3" d="M71.5,80.8s-.6-34.8-38.4-40.1c0,0,33.5,2.2,38.4-37.1,0,0,0,34.8,39,38.6,0,0-35.8-2.1-39,38.6Z"/>
      <path class="cls-2" d="M44,103.4s-.4-20-22-23c0,0,19.2,1.2,22-21.3,0,0,0,20,22.3,22.1,0,0-20.5-1.2-22.3,22.1h0Z"/>
      <path class="cls-1" d="M16.2,58.1s0-4.7-5.7-5.4c0,0,5,.3,5.7-5,0,0,0,4.7,5.8,5.2,0,0-5.3-.3-5.8,5.2Z"/>
    </g>
  </g>
</svg>