<?xml version="1.0" encoding="iso-8859-1"?>
<!-- Uploaded to: SVG Repo, www.svgrepo.com, Generator: SVG Repo Mixer Tools -->
<svg height="800px" width="800px" version="1.1" id="Capa_1" xmlns="http://www.w3.org/2000/svg" xmlns:xlink="http://www.w3.org/1999/xlink" 
	 viewBox="0 0 57.475 57.475" xml:space="preserve">
<g>
	<g>
		<path style="fill:#010002;" d="M44.032,21.336h-3.854l-1.809-6.287c-0.247-0.857-1.03-1.447-1.922-1.447h-15
			c-0.855,0-1.616,0.544-1.893,1.354l-2.18,6.381h-3.93c-6.617,0-12,5.383-12,12v12.138c0,6.617,5.383,12,12,12h30.587
			c6.617,0,12-5.383,12-12V33.336C56.032,26.719,50.649,21.336,44.032,21.336z M22.878,17.602h12.064l1.075,3.734H21.602
			L22.878,17.602z M52.032,45.475c0,4.411-3.589,8-8,8H13.445c-4.411,0-8-3.589-8-8V33.336c0-4.411,3.589-8,8-8h5.349
			c0.004,0,0.008,0.001,0.012,0.001c0.002,0,0.004-0.001,0.006-0.001h25.221c4.411,0,8,3.589,8,8L52.032,45.475L52.032,45.475z"/>
		<path style="fill:#010002;" d="M28.739,27.472c-6.58,0-11.934,5.354-11.934,11.934S22.159,51.34,28.739,51.34
			s11.934-5.354,11.934-11.934S35.319,27.472,28.739,27.472z M28.739,47.339c-4.375,0-7.934-3.559-7.934-7.934
			s3.559-7.934,7.934-7.934c4.374,0,7.934,3.559,7.934,7.934S33.113,47.339,28.739,47.339z"/>
		<path style="fill:#010002;" d="M28.674,9.133c0.829,0,1.5-0.672,1.5-1.5V1.5c0-0.828-0.671-1.5-1.5-1.5
			c-0.829,0-1.5,0.672-1.5,1.5v6.133C27.174,8.461,27.846,9.133,28.674,9.133z"/>
		<path style="fill:#010002;" d="M22.247,11.295c0.293,0.293,0.677,0.439,1.061,0.439s0.768-0.146,1.06-0.439
			c0.586-0.586,0.586-1.535,0-2.121l-4.337-4.336c-0.586-0.586-1.536-0.586-2.121,0c-0.586,0.586-0.586,1.535,0,2.121L22.247,11.295
			z"/>
		<path style="fill:#010002;" d="M34.171,11.735c0.384,0,0.768-0.146,1.061-0.439l4.337-4.336c0.586-0.586,0.586-1.535,0-2.121
			c-0.585-0.586-1.535-0.586-2.121,0l-4.337,4.336c-0.586,0.586-0.586,1.535,0,2.121C33.403,11.588,33.787,11.735,34.171,11.735z"/>
	</g>
</g>
</svg>