<?xml version="1.0" encoding="UTF-8"?>
<svg xmlns="http://www.w3.org/2000/svg" version="1.1" viewBox="0 0 800 800">
  <defs>
    <style>
      .cls-1 {
        fill: none;
      }

      .cls-2 {
        fill: #fff;
      }
    </style>
  </defs>
  <!-- Generator: Adobe Illustrator 28.6.0, SVG Export Plug-In . SVG Version: 1.2.0 Build 709)  -->
  <g>
    <g id="_24x24_On_Light_Edit">
      <rect id="view-box" class="cls-1" width="800" height="800"/>
      <path id="Shape" class="cls-2" d="M133.3,691.7c-13.8,0-25-11.2-25-25v-139.4c0-6.6,2.7-13,7.3-17.7L490.4,135c35.4-35.4,92.8-35.4,128.2,0,0,0,0,0,0,0l46.4,46.4c35.4,35.4,35.4,92.8,0,128.2,0,0,0,0,0,0l-374.6,374.7c-4.7,4.7-11.1,7.3-17.7,7.3h-139.4ZM158.3,537.6v104h104l263.7-263.7-104-104-263.7,263.6ZM561.4,342.7l68.4-68.4c15.9-15.9,15.9-41.7,0-57.6l-46.4-46.5c-15.9-15.9-41.7-15.9-57.6,0l-68.4,68.4,104,104Z"/>
    </g>
  </g>
</svg>