<?xml version="1.0" encoding="UTF-8"?>
<svg xmlns="http://www.w3.org/2000/svg" version="1.1" viewBox="0 0 278 254">
  <!-- Generator: Adobe Illustrator 28.6.0, SVG Export Plug-In . SVG Version: 1.2.0 Build 709)  -->
  <g>
    <g id="Layer_1">
      <path d="M229.2,131.2c0,25.5,0,51,0,76.5,0,6.4-2.3,11.5-8.2,14.6-2.3,1.2-4.9,1.6-7.5,1.6-7.5,0-15,0-22.5,0-5,0-8.2-3-8.2-7.4,0-4.4,3.3-7.3,8.3-7.3,7.1,0,14.2,0,21.2,0,1.7,0,2.1-.5,2.1-2.1,0-50.6,0-101.3,0-151.9,0-1.8-.6-2.2-2.3-2.2-7.2,0-14.3,0-21.5,0-4,0-6.9-2.2-7.8-5.4-1.1-4.5,1.7-9,6.4-9.2,9-.3,18-.6,27,.2,7,.6,11.9,6,12.7,13,.1,1.4.2,2.8.2,4.2,0,25.2,0,50.3,0,75.5Z"/>
      <path d="M171.4,36.1c0-10.6-8-17.2-18.4-15.3-7.4,1.3-14.7,2.8-22.1,4.2-21.7,4.1-43.5,8.2-65.2,12.4-8.1,1.6-12.5,7.1-12.5,15.3,0,11.7,0,23.5,0,35.2,0,40.1,0,80.3,0,120.4,0,9.2,4.2,14.5,13,16.2,29.2,5.6,58.5,11.2,87.8,16.7,6.7,1.3,13.5-2.6,16.1-8.8,1-2.4,1.3-5,1.3-7.6,0-31.3,0-62.6,0-93.9,0-11.3,0-22.7,0-34,0-20.3,0-40.6,0-61ZM156.7,131.1h0c0,30.9,0,61.8,0,92.7,0,3.1,0,3.1-3,2.5-27.7-5.3-55.4-10.6-83.1-15.9-2.1-.4-2.6-1.2-2.6-3.2,0-41.2,0-82.5.1-123.7,0-9.6,0-19.2,0-28.7,0-2.1.4-2.9,2.7-3.4,27.8-5.2,55.6-10.4,83.4-15.7,2.1-.4,2.7,0,2.7,2.2,0,31.1,0,62.1,0,93.2Z"/>
      <path d="M127.5,130.8c0-2.3,0-4.7,0-7,.2-4,3.4-7.2,7.2-7.2,4.1,0,7.3,2.9,7.4,7.2.1,4.7.1,9.5,0,14.2-.1,4.1-3.4,7.2-7.4,7.2-3.8,0-7-3.2-7.1-7.2,0-2.4,0-4.8,0-7.2Z"/>
    </g>
  </g>
</svg>