<?xml version="1.0" encoding="iso-8859-1"?>
<!-- Uploaded to: SVG Repo, www.svgrepo.com, Generator: SVG Repo Mixer Tools -->
<svg fill="#000000" height="800px" width="800px" version="1.1" id="Layer_1" xmlns="http://www.w3.org/2000/svg" xmlns:xlink="http://www.w3.org/1999/xlink" 
	 viewBox="0 0 512 512" xml:space="preserve">
<g>
	<g>
		<path d="M507.097,483.423L268.32,244.647c-0.002-0.002-0.003-0.003-0.006-0.006c-0.002-0.002-0.003-0.003-0.006-0.006
			L28.577,4.904C23.79,0.115,16.588-1.316,10.334,1.275C4.079,3.866,0,9.97,0,16.741v478.52C0,504.505,7.495,512,16.74,512h478.52
			c6.771,0,12.874-4.079,15.465-10.334S511.884,488.211,507.097,483.423z M33.48,478.522v-0.001V57.154l57.283,57.283
			l-19.728,19.728c-6.537,6.537-6.537,17.136,0,23.673c3.269,3.269,7.553,4.904,11.836,4.904s8.568-1.634,11.836-4.904
			l19.728-19.728l47.348,47.348l-11.837,11.837c-6.537,6.537-6.537,17.136,0,23.673c3.269,3.269,7.553,4.904,11.836,4.904
			s8.568-1.634,11.836-4.904l11.837-11.837l47.348,47.348l-19.728,19.728c-6.537,6.537-6.537,17.136,0,23.673
			c3.269,3.269,7.553,4.904,11.836,4.904s8.568-1.634,11.836-4.904l19.728-19.727l47.347,47.346l-11.837,11.837
			c-6.537,6.537-6.537,17.136,0,23.673c3.269,3.269,7.553,4.904,11.836,4.904c4.283,0,8.569-1.634,11.836-4.904l11.837-11.837
			l47.348,47.348l-19.728,19.728c-6.537,6.537-6.537,17.136,0,23.673c3.269,3.269,7.553,4.904,11.836,4.904
			c4.283,0,8.568-1.634,11.836-4.904l19.728-19.728l56.328,56.328H33.48z"/>
	</g>
</g>
<g>
	<g>
		<path d="M264.621,382.985L129.015,247.384c-4.788-4.786-11.987-6.221-18.243-3.628c-6.255,2.59-10.334,8.695-10.334,15.465
			v135.602c0,9.245,7.495,16.74,16.74,16.74h135.607c6.771,0,12.874-4.079,15.465-10.334
			C270.841,394.973,269.409,387.773,264.621,382.985z M133.918,378.083v-78.449l78.452,78.449H133.918z"/>
	</g>
</g>
</svg>