<?xml version="1.0" encoding="UTF-8"?>
<svg xmlns="http://www.w3.org/2000/svg" version="1.1" viewBox="0 0 278 254">
  <defs>
    <style>
      .cls-1 {
        fill: #fff;
      }
    </style>
  </defs>
  <!-- Generator: Adobe Illustrator 28.6.0, SVG Export Plug-In . SVG Version: 1.2.0 Build 709)  -->
  <g>
    <g id="Layer_1">
      <path class="cls-1" d="M222.2,156.7c0-16.6-.1-33.2,0-49.7,0-5.2-1.3-8.2-5.2-10.5-21.4-12.9-42.7-26.2-64-39.3-22.3-13.7-44.6-27.5-66.8-41.2-1.7-1.1-3.4-1.5-5.2-.4-6.1,3.8-12.2,7.6-18.4,11.3-2.3,1.4-3.3,3.6-3.3,6.8,0,34.7,0,69.3,0,104,0,3.3,1,5.4,3.5,6.9,18.7,11.4,37.3,22.9,56,34.4,25.4,15.6,50.7,31.2,76.1,46.9,2.3,1.5,4.4,1.5,6.7,0,5.3-3.4,10.7-6.8,16.2-9.9,3.2-1.8,4.5-4.5,4.4-8.8-.1-16.8,0-33.7,0-50.5ZM193.4,209.9c0,.4,0,.8,0,1.8-1.1-.6-1.9-1.1-2.8-1.6-33.3-20.6-66.7-41.1-100-61.7-6.7-4.1-13.3-8.2-20-12.3-1-.6-1.6-1.2-1.6-2.8,0-29.9,0-59.8,0-89.7,0-.3,0-.7.1-1.2.6.3,1.2.6,1.7.9,40.3,24.8,80.6,49.7,121,74.5,1.1.7,1.6,1.3,1.6,3,0,29.7,0,59.5,0,89.2ZM198.8,108.1c-.5.3-1.4-.1-2-.5-18-11.1-35.9-22.2-53.9-33.2-21.7-13.3-43.3-26.7-65-40-.8-.5-1.6-1.1-2.9-1.9,2.8-1.7,5.1-3.2,7.5-4.5.6-.3,1.7,0,2.4.4,11.6,7.1,23.3,14.2,34.9,21.4,28,17.2,56,34.5,84.1,51.8.8.5,1.7,1.1,2.8,1.8-2.8,1.7-5.3,3.4-7.9,4.8ZM210.9,206.9c-2.5,1.4-4.9,3-7.9,4.9v-3.3c0-29,0-58,0-86.9,0-2.1.5-3.3,2.1-4.2,2.4-1.3,4.7-2.8,7.3-4.4,0,1,.1,1.8.1,2.6,0,29.3,0,58.6,0,87.9,0,1.7-.4,2.7-1.7,3.4Z"/>
    </g>
  </g>
</svg>