<?xml version="1.0" encoding="UTF-8"?>
<svg xmlns="http://www.w3.org/2000/svg" version="1.1" viewBox="0 0 278 254">
  <!-- Generator: Adobe Illustrator 28.6.0, SVG Export Plug-In . SVG Version: 1.2.0 Build 709)  -->
  <g>
    <g id="Layer_1">
      <path d="M213.9,48.6c0-4.3-1-5.3-5.3-5.3-44.2,0-88.5,0-132.7,0-4.5,0-5.3.9-5.3,5.5,0,26.7,0,53.3,0,80,0,26.7,0,53.5,0,80.2,0,4.9.9,5.7,5.6,5.7,44.1,0,88.1,0,132.2,0,4.5,0,5.5-1,5.5-5.4,0-53.6,0-107.1,0-160.7ZM204,207.8c-41.1,0-82.3,0-123.4,0-2.4,0-2.8-.7-2.8-2.9,0-25.3,0-50.6,0-76s0-50.5,0-75.7c0-2.2.5-2.9,2.8-2.9,41.1,0,82.3,0,123.4,0,2.4,0,2.8.7,2.8,2.9,0,50.6,0,101.1,0,151.7,0,2.2-.5,2.9-2.8,2.9Z"/>
      <path d="M201.2,61.3c0-4.5-.8-5.3-5.2-5.3-35.9,0-71.8,0-107.7,0-4.1,0-5,.9-5,5,0,45.3,0,90.6,0,135.9,0,4.4.8,5.2,5.3,5.2,35.7,0,71.5,0,107.2,0,4.7,0,5.4-.7,5.4-5.3,0-22.5,0-45,0-67.5,0-22.7,0-45.3,0-68ZM138.7,192.7c0,1.9-.5,2.3-2.3,2.3-14.6,0-29.2,0-43.7,0-1.9,0-2.4-.4-2.3-2.3,0-21.2,0-42.5,0-63.7,0-21.2,0-42.3,0-63.5,0-2.1.5-2.6,2.6-2.6,14.5,0,29,0,43.5,0,1.9,0,2.3.5,2.3,2.3,0,42.5,0,85,0,127.5ZM192.1,195c-14.7,0-29.5,0-44.2,0-1.6,0-2.1-.4-2.1-2.1,0-9.7,0-19.5,0-29.2,0-9.7,0-19.3,0-29,0-1.7.4-2.2,2.2-2.2,14.7,0,29.3,0,44,0,1.8,0,2.2.5,2.2,2.2,0,19.4,0,38.8,0,58.2,0,1.7-.5,2.1-2.1,2.1ZM192,125.5c-14.7,0-29.3,0-44,0-1.8,0-2.2-.5-2.2-2.2,0-19.4,0-38.8,0-58.2,0-1.6.5-2.1,2.1-2.1,14.7,0,29.5,0,44.2,0,1.6,0,2.1.4,2.1,2.1,0,9.7,0,19.3,0,29,0,9.7,0,19.5,0,29.2,0,1.7-.5,2.2-2.2,2.2Z"/>
      <path d="M100.5,129.1c0,1.4,0,2.8,0,4.2-.1,2.2-1.4,3.4-3.5,3.5-1.9.1-3.5-1.3-3.5-3.4,0-3,0-6,0-9,0-2,1.2-3.2,3.3-3.4,1.9-.2,3.5,1.2,3.7,3.3.1,1.6,0,3.2,0,4.7,0,0,0,0,0,0Z"/>
    </g>
  </g>
</svg>