<?xml version="1.0" encoding="UTF-8"?>
<svg xmlns="http://www.w3.org/2000/svg" version="1.1" viewBox="0 0 51.2 51.2">
  <defs>
    <style>
      .cls-1 {
        stroke-linecap: round;
      }

      .cls-1, .cls-2 {
        fill: #fff;
        stroke: #000;
        stroke-miterlimit: 10;
        stroke-width: 1.1px;
      }
    </style>
  </defs>
  <!-- Generator: Adobe Illustrator 28.6.0, SVG Export Plug-In . SVG Version: 1.2.0 Build 709)  -->
  <g>
    <g id="Layer_1">
      <g>
        <rect class="cls-1" x=".5" y=".5" width="50.1" height="50.1"/>
        <rect class="cls-2" x=".5" y="47.5" width="50.1" height="3.2"/>
        <polygon points="32.7 24.6 32.7 23.8 32.1 23.8 33 22.8 32.5 22.3 30.9 23.8 26.5 23.8 29.7 20.6 31.8 20.6 31.8 19.8 30.4 19.8 30.9 19.3 30.4 18.8 29.9 19.3 29.9 17.9 29.1 17.9 29.1 20.1 26 23.2 26 18.8 27.5 17.3 27 16.7 26 17.7 26 17 25.2 17 25.2 17.7 24.3 16.7 23.7 17.3 25.2 18.8 25.2 23.2 22.1 20.1 22.1 17.9 21.3 17.9 21.3 19.3 20.8 18.8 20.3 19.3 20.8 19.8 19.4 19.8 19.4 20.6 21.6 20.6 24.8 23.8 20.3 23.8 18.8 22.2 18.2 22.7 19.2 23.8 18.5 23.8 18.5 24.6 19.2 24.6 18.2 25.5 18.8 26.1 20.3 24.6 24.6 24.6 21.6 27.6 19.4 27.6 19.4 28.4 20.8 28.4 20.3 28.9 20.8 29.4 21.3 28.9 21.3 30.3 22.1 30.3 22.1 28.1 25.2 25 25.2 29.4 23.7 30.9 24.3 31.5 25.2 30.5 25.2 31.2 26 31.2 26 30.5 27 31.5 27.5 30.9 26 29.4 26 25 29.1 28.1 29.1 30.3 29.9 30.3 29.9 28.9 30.4 29.4 30.9 28.9 30.4 28.4 31.8 28.4 31.8 27.6 29.7 27.6 26.7 24.6 30.9 24.6 32.5 26.1 33 25.5 32.1 24.6 32.7 24.6"/>
      </g>
    </g>
  </g>
</svg>