<?xml version="1.0" encoding="UTF-8"?>
<svg xmlns="http://www.w3.org/2000/svg" version="1.1" viewBox="0 0 51.3 65">
  <defs>
    <style>
      .cls-1 {
        stroke: #000;
        stroke-linecap: round;
        stroke-miterlimit: 10;
        stroke-width: 1.1px;
      }

      .cls-1, .cls-2 {
        fill: #fff;
      }
    </style>
  </defs>
  <!-- Generator: Adobe Illustrator 28.6.0, SVG Export Plug-In . SVG Version: 1.2.0 Build 709)  -->
  <g>
    <g id="Layer_1">
      <g>
        <rect class="cls-1" x=".5" y=".5" width="50.2" height="50.2"/>
        <g>
          <g>
            <line class="cls-2" x1="30.8" y1="64" x2="1" y2="50.9"/>
            <rect x="15.2" y="40.4" width="1.5" height="34" transform="translate(-43.1 49) rotate(-66.4)"/>
          </g>
          <g>
            <line class="cls-2" x1="50.7" y1="50.9" x2="40.1" y2="61.5"/>
            <rect x="37.9" y="55.5" width="14.9" height="1.5" transform="translate(-26.5 48.8) rotate(-45.2)"/>
          </g>
          <path d="M40.2,61.3s-4.4-2-5.1-7v-1.6c-.1-.1-.2-.2-.3-.2-.1,0-.2.1-.2.2v1.5c0,1.8-.6,5.3-3.4,9.9v.2c-.1,0,.3.2.3.2v-.2c2.4-3.7,3.2-6.6,3.5-8.6,1.2,4.3,5,6,5.1,6h.2c0,0,.2-.3.2-.3h-.2Z"/>
        </g>
      </g>
    </g>
  </g>
</svg>