<?xml version="1.0" encoding="UTF-8"?>
<svg xmlns="http://www.w3.org/2000/svg" version="1.1" viewBox="0 0 53.7 85.9">
  <defs>
    <style>
      .cls-1 {
        stroke-linecap: round;
        stroke-width: 1px;
      }

      .cls-1, .cls-2 {
        fill: #fff;
        stroke: #000;
        stroke-miterlimit: 10;
      }

      .cls-2 {
        stroke-width: 1.1px;
      }
    </style>
  </defs>
  <!-- Generator: Adobe Illustrator 28.6.0, SVG Export Plug-In . SVG Version: 1.2.0 Build 709)  -->
  <g>
    <g id="Layer_1">
      <g>
        <rect class="cls-1" x="3" y=".5" width="50.1" height="47"/>
        <rect class="cls-2" x="-5.4" y="64.7" width="50.1" height="3.2" transform="translate(52.6 5.6) rotate(45)"/>
        <path d="M38.5,83.1s0,0-.1,0c0,0,0-.2,0-.3,14.2-15.1,14.6-35.1,14.6-35.3,0,0,0-.2.2-.2h0c.1,0,.2,0,.2.2,0,.2-.4,20.3-14.7,35.6,0,0,0,0-.1,0Z"/>
        <polygon points="35.2 23.3 35.2 22.5 34.5 22.5 35.5 21.6 34.9 21 33.4 22.5 28.9 22.5 32.1 19.3 34.3 19.3 34.3 18.6 32.9 18.6 33.4 18.1 32.8 17.5 32.3 18 32.3 16.7 31.6 16.7 31.6 18.8 28.5 21.9 28.5 17.5 30 16 29.4 15.4 28.5 16.4 28.5 15.7 27.7 15.7 27.7 16.4 26.7 15.4 26.2 16 27.7 17.5 27.7 21.9 24.6 18.8 24.6 16.7 23.8 16.7 23.8 18 23.3 17.5 22.7 18.1 23.2 18.6 21.9 18.6 21.9 19.3 24 19.3 27.2 22.5 22.7 22.5 21.2 20.9 20.7 21.5 21.7 22.5 20.9 22.5 20.9 23.3 21.6 23.3 20.7 24.3 21.2 24.8 22.7 23.3 27 23.3 24 26.3 21.9 26.3 21.9 27.1 23.2 27.1 22.7 27.6 23.3 28.2 23.8 27.7 23.8 29 24.6 29 24.6 26.9 27.7 23.8 27.7 28.2 26.2 29.7 26.7 30.2 27.7 29.3 27.7 30 28.5 30 28.5 29.3 29.4 30.2 30 29.7 28.5 28.2 28.5 23.8 31.6 26.9 31.6 29 32.3 29 32.3 27.7 32.8 28.2 33.4 27.6 32.9 27.1 34.3 27.1 34.3 26.3 32.1 26.3 29.1 23.3 33.4 23.3 34.9 24.8 35.5 24.3 34.5 23.3 35.2 23.3"/>
      </g>
    </g>
  </g>
</svg>