<?xml version="1.0" encoding="UTF-8"?>
<svg xmlns="http://www.w3.org/2000/svg" version="1.1" viewBox="0 0 100.8 45.2">
  <defs>
    <style>
      .cls-1 {
        stroke-width: .8px;
      }

      .cls-1, .cls-2, .cls-3 {
        stroke-linecap: square;
      }

      .cls-1, .cls-2, .cls-3, .cls-4 {
        fill: #fff;
        stroke: #000;
        stroke-linejoin: round;
      }

      .cls-2 {
        stroke-width: .7px;
      }

      .cls-3, .cls-4 {
        stroke-width: 1px;
      }

      .cls-4 {
        stroke-linecap: round;
      }
    </style>
  </defs>
  <!-- Generator: Adobe Illustrator 28.6.0, SVG Export Plug-In . SVG Version: 1.2.0 Build 709)  -->
  <g>
    <g id="Layer_1">
      <g>
        <rect class="cls-3" x=".5" y=".5" width="99.8" height="44.2" rx="4.4" ry="4.4"/>
        <rect class="cls-3" x=".5" y=".5" width="99.8" height="44.2" rx="4.4" ry="4.4"/>
        <rect class="cls-3" x="4.8" y="4.5" width="48.8" height="35.4" rx="3.2" ry="3.2"/>
        <path class="cls-3" d="M93.5,4.5h-32.9c-.4,0-.8,0-1.2.2l9,10.2c.5.6.5,1.4,0,2s-1.4.6-2,0l-9-8v27.8c0,1.8,1.4,3.2,3.2,3.2h32.9c1.8,0,3.2-1.4,3.2-3.2V7.7c0-1.8-1.4-3.2-3.2-3.2Z"/>
        <path class="cls-3" d="M71.8,12.4c0,2.4,1.9,4.3,4.3,4.3s4.3-1.9,4.3-4.3-1.9-4.3-4.3-4.3-4.3,1.9-4.3,4.3Z"/>
        <g>
          <rect class="cls-2" x="6.1" y="7.1" width="26.7" height="2"/>
          <rect class="cls-2" x="6.1" y="11.1" width="26.7" height="2"/>
          <rect class="cls-2" x="6.2" y="15.2" width="26.6" height="2"/>
          <rect class="cls-2" x="6.2" y="19.2" width="26.6" height="2"/>
          <rect class="cls-2" x="6.2" y="23.2" width="26.5" height="1.9"/>
          <rect class="cls-2" x="6.3" y="27.3" width="26.5" height="1.9"/>
          <rect class="cls-2" x="6.3" y="31.3" width="26.4" height="1.9"/>
          <rect class="cls-2" x="6.4" y="35.4" width="26.4" height="1.9"/>
        </g>
        <rect class="cls-3" x="34.6" y="4.5" width="19" height="35.4" rx="3.2" ry="3.2"/>
        <path class="cls-3" d="M39.4,12.4c0,2.4,1.9,4.3,4.3,4.3s4.3-1.9,4.3-4.3-1.9-4.3-4.3-4.3-4.3,1.9-4.3,4.3Z"/>
        <path class="cls-3" d="M52.8,3.8c0,1.4,1.1,2.5,2.5,2.5s2.5-1.1,2.5-2.5-1.1-2.5-2.5-2.5-2.5,1.1-2.5,2.5Z"/>
        <g>
          <polygon class="cls-4" points="57 2 57 2 57 2 57 2"/>
          <path class="cls-4" d="M68.3,14.9l-11.1-12.6c.3.4.5.9.5,1.5s4.4,5.9,3.9,6.4c-.5.6-5.6-4-6.4-4s-1-.2-1.4-.5l12.5,11.1c.6.5,1.4.5,2,0h0c.5-.5.6-1.4,0-2Z"/>
          <polygon class="cls-4" points="53.5 5.4 53.5 5.4 53.5 5.5 53.5 5.4"/>
        </g>
        <path class="cls-1" d="M41.2,12.4c0,1.4,1.2,2.6,2.6,2.6s2.6-1.2,2.6-2.6-1.2-2.6-2.6-2.6-2.6,1.2-2.6,2.6Z"/>
        <path class="cls-1" d="M73.5,12.4c0,1.4,1.2,2.6,2.6,2.6s2.6-1.2,2.6-2.6-1.2-2.6-2.6-2.6-2.6,1.2-2.6,2.6Z"/>
      </g>
    </g>
  </g>
</svg>