<?xml version="1.0" encoding="UTF-8"?>
<svg xmlns="http://www.w3.org/2000/svg" version="1.1" viewBox="0 0 79 45.6">
  <defs>
    <style>
      .cls-1 {
        stroke-width: .8px;
      }

      .cls-1, .cls-2, .cls-3, .cls-4 {
        fill: #fff;
        stroke: #000;
        stroke-linecap: round;
        stroke-linejoin: round;
      }

      .cls-2 {
        stroke-width: .7px;
      }

      .cls-3 {
        stroke-width: 1px;
      }

      .cls-4 {
        stroke-width: 1px;
      }
    </style>
  </defs>
  <!-- Generator: Adobe Illustrator 28.6.0, SVG Export Plug-In . SVG Version: 1.2.0 Build 709)  -->
  <g>
    <g id="Layer_1">
      <g>
        <rect class="cls-4" x=".5" y=".5" width="78" height="44.6" rx="4.4" ry="4.4"/>
        <rect class="cls-3" x="34.6" y="6.1" width="39.3" height="35.4" rx="3.2" ry="3.2"/>
        <path class="cls-1" d="M30.5,6.1H6.4c-1.3,0-2.3,1.4-2.3,3.2v29c0,1.8,1,3.2,2.3,3.2h24.1c1.3,0,2.3-1.4,2.3-3.2V9.3c0-1.8-1-3.2-2.3-3.2Z"/>
        <g>
          <path class="cls-2" d="M47.3,14.7l-11.1-12.6c.3.4-3,3.8-3.4,3.5l12.5,11.1c.6.5,1.4.5,2,0h0c.5-.5.6-1.4,0-2Z"/>
          <polygon class="cls-2" points="36 1.8 36 1.8 36 1.8 36 1.8"/>
        </g>
        <g>
          <polygon class="cls-2" points="36 1.8 36 1.8 36 1.8 36 1.8"/>
          <path class="cls-2" d="M47.3,14.7l-11.1-12.6c.3.4.5.9.5,1.5s4.4,5.9,3.9,6.4c-.5.6-5.6-4-6.4-4s-1-.2-1.4-.5l12.5,11.1c.6.5,1.4.5,2,0h0c.5-.5.6-1.4,0-2Z"/>
        </g>
        <path class="cls-2" d="M31.8,3.6c0,1.4,1.1,2.5,2.5,2.5s2.5-1.1,2.5-2.5-1.1-2.5-2.5-2.5-2.5,1.1-2.5,2.5Z"/>
        <g>
          <rect class="cls-2" x="5.1" y="8.7" width="26.7" height="2"/>
          <rect class="cls-2" x="5.1" y="12.7" width="26.7" height="2"/>
          <rect class="cls-2" x="5.2" y="16.8" width="26.6" height="2"/>
          <rect class="cls-2" x="5.2" y="20.8" width="26.6" height="2"/>
          <rect class="cls-2" x="5.2" y="24.8" width="26.5" height="1.9"/>
          <rect class="cls-2" x="5.3" y="28.9" width="26.5" height="1.9"/>
          <rect class="cls-2" x="5.3" y="32.9" width="26.4" height="1.9"/>
          <rect class="cls-2" x="5.4" y="37" width="26.4" height="1.9"/>
        </g>
        <circle class="cls-3" cx="55.9" cy="13.3" r="3.6"/>
        <path class="cls-2" d="M53.7,13.3c0,1.2,1,2.2,2.2,2.2s2.2-1,2.2-2.2-1-2.2-2.2-2.2-2.2,1-2.2,2.2Z"/>
      </g>
    </g>
  </g>
</svg>