<?xml version="1.0" encoding="UTF-8"?>
<svg xmlns="http://www.w3.org/2000/svg" version="1.1" viewBox="0 0 49.6 52.7">
  <defs>
    <style>
      .cls-1 {
        fill: #fff;
        stroke: #000;
        stroke-miterlimit: 10;
        stroke-width: 1.1px;
      }
    </style>
  </defs>
  <!-- Generator: Adobe Illustrator 28.6.0, SVG Export Plug-In . SVG Version: 1.2.0 Build 709)  -->
  <g>
    <g id="Layer_1">
      <g>
        <path class="cls-1" d="M39.7,18.1v-4.1l-3.3,4.1c.9,0,2.1,0,3.3,0Z"/>
        <path class="cls-1" d="M39.7,48.6v-15.6c-1.7-1-4.3-2.4-6.3-2.9-3.4-.9-8.6-.4-8.6-.4l3.4-6.6-1.6-1.4-10.4-3.7,5.7-4.2.3-.7H4.1c-1.9,0-3.5-1.6-3.5-3.5v-1.2h0v37.7c0,3.3,2.7,6,6,6h36.4s0,0,.1,0c-1.9,0-3.4-1.6-3.4-3.5Z"/>
        <path class="cls-1" d="M4.1,3.7c-1.9,0-3.5,1.6-3.5,3.5v2.4c0,1.9,1.6,3.5,3.5,3.5h18.1l2.3-4.7,2.3-4.7H4.1Z"/>
        <path class="cls-1" d="M48.7,8.4c-.8-2.7-3.3-4.7-6.3-4.7h-12.2l3.7,4.4.6.2,7.3,3-2.2,2.7v4.1c2.5-.2,5-.6,5-.6l-3,7v9.7s-.8-.5-1.9-1.2v15.6c0,1.9,1.5,3.5,3.4,3.5,0,0,0,0,.1,0h2.2c2,0,3.5-1.6,3.5-3.5V10.3c0-.7,0-1.3-.3-1.9Z"/>
        <path class="cls-1" d="M34.6,8.4l-.6-.2-3.7-4.4-2.3-2.7-1.3,2.7-2.3,4.7-2.3,4.7-.3.7-5.7,4.2,10.4,3.7,1.6,1.4.2-.5.7-7s5,2.1,6.9,2.4c.1,0,.2,0,.4,0l3.3-4.1,2.2-2.7-7.3-3Z"/>
        <path class="cls-1" d="M44.7,17.5s-2.5.4-5,.6c-1.2,0-2.5.1-3.3,0-.1,0-.2,0-.4,0-1.9-.3-6.9-2.4-6.9-2.4l-.7,7-.2.5-3.4,6.6s5.2-.4,8.6.4c2,.5,4.6,1.9,6.3,2.9,1.2.7,1.9,1.2,1.9,1.2v-9.7s3-7,3-7Z"/>
      </g>
    </g>
  </g>
</svg>