<?xml version="1.0" encoding="UTF-8"?>
<svg xmlns="http://www.w3.org/2000/svg" version="1.1" viewBox="0 0 92 49.5">
  <defs>
    <style>
      .cls-1 {
        fill: #fff;
        stroke: #000;
        stroke-miterlimit: 10;
        stroke-width: 1.1px;
      }
    </style>
  </defs>
  <!-- Generator: Adobe Illustrator 28.6.0, SVG Export Plug-In . SVG Version: 1.2.0 Build 709)  -->
  <g>
    <g id="Layer_1">
      <g>
        <path class="cls-1" d="M45.8,12c0-1.2.9-2.1,2.1-2.1h-2.1v2.1Z"/>
        <path class="cls-1" d="M91,6.8h0c0,0,0,.1,0,.2v-.2Z"/>
        <path class="cls-1" d="M91,43.1v-11.4c0,2.6-2.1,4.7-4.7,4.7h0c-2.6,0-4.7-2.1-4.7-4.7v-3.2l-.7,1.8s-2.2-3-4.8-5.6l.2,1.7-11.2-4.4h-10.4c0-.1,3.1-7.6,3.1-7.6h-10c-1.2,0-2.1-.9-2.1-2.1v30.7h0c0,3.3,2.6,5.9,5.9,5.9h33.3c3.3,0,5.9-2.6,5.9-5.9Z"/>
        <path class="cls-1" d="M.5,6.8v.2c0,0,0-.1,0-.2h0Z"/>
        <path class="cls-1" d="M43.7,9.8c1.2,0,2.1,1,2.1,2.1h0v-2.1h-2.1Z"/>
        <path class="cls-1" d="M45.8,12.3c0,1.2-1,2.1-2.1,2.1h-.4l1.3,6.3s-5.4-2.3-8.9-2.4-8.5,1.2-8.5,1.2l1.4-5h-3.9l-2.7,3-3.7,10.4-4.2-5.7-4.2-2v11.5c0,2.6-2.1,4.6-4.6,4.6h0c-2.6,0-4.6-2.1-4.6-4.6v11.3c0,3.3,2.6,5.9,5.9,5.9h33.4c3.3,0,5.9-2.6,5.9-5.9V12.3h0Z"/>
        <g>
          <path class="cls-1" d="M81.6,28.5v3.2c0,2.6,2.1,4.7,4.7,4.7h0c2.6,0,4.7-2.1,4.7-4.7V12.9l-6.2,6.5-3.2,9Z"/>
          <path class="cls-1" d="M91,6.8c0-3.4-2.9-6.2-6.4-6.2H6.9C3.4.5.6,3.3.5,6.8c0,0,0,.1,0,.2v24.8c0,2.6,2.1,4.6,4.6,4.6s4.6-2.1,4.6-4.6v-11.5L1.2,16l7.2-6,1.3-3.3,1.9-4.6,5.6,4.6,3,2.5,3.8.6h5l-.3-3.1-.2-1.8s5.3,1.1,7.2,1.1c2.5,0,8.4-2.2,8.4-2.2l-.7,3-.7,3.1h16.1l-.4-3.1-.5-4.3,10.4,4.1,5.4-.7.6-1.3s.5.4,1.1,1l3.4-.5-.5,1.6-.3,1.2c1.1.9,2.2,1.8,3,2.2,2.6,1.5,9.9,2.9,9.9,2.9v-6c0,0,0-.1,0-.2Z"/>
        </g>
        <path class="cls-1" d="M58.9,9.8h-11c-1.2,0-2.1.9-2.1,2.1h0v.4h0c0,1.2.9,2.1,2.1,2.1h10l1.3-3-.2-1.6Z"/>
        <path class="cls-1" d="M43.7,9.8h-.8l-.3,1.3.7,3.3h.4c1.2,0,2.1-1,2.1-2.1v-.3c0-1.2-1-2.1-2.1-2.1Z"/>
        <polygon class="cls-1" points="29 9.8 24.1 9.8 28.2 10.5 24.6 14.4 28.5 14.4 29.2 11.9 29 9.8"/>
        <path class="cls-1" d="M43.2,14.4l-.7-3.3.3-1.3.7-3.1.7-3s-5.9,2.1-8.4,2.2c-1.9,0-7.2-1.1-7.2-1.1l.2,1.8.3,3.1.2,2.1-.7,2.5-1.4,5s5-1.4,8.5-1.2,8.9,2.4,8.9,2.4l-1.3-6.3Z"/>
        <g>
          <path class="cls-1" d="M73.4,22.4c-3.5-2.3-9.4-3.9-9.4-3.9l4.3-4,2.5-2.3,1.1-2.2,1.5-3.1.4-.9-5.4.7-10.4-4.1.5,4.3.4,3.1.2,1.6-1.3,3-3.1,7.5h10.4c0,.1,11.2,4.5,11.2,4.5l-.2-1.7c-.9-.9-1.9-1.7-2.8-2.3Z"/>
          <path class="cls-1" d="M75.5,5.6c.4.3.8.7,1.3,1.1.4.4.9.8,1.4,1.2l.3-1.2.5-1.6-3.4.5Z"/>
        </g>
        <path class="cls-1" d="M81.1,10.1c-.7-.4-1.8-1.3-3-2.2-.5-.4-.9-.8-1.4-1.2-.5-.4-.9-.8-1.3-1.1-.7-.6-1.1-1-1.1-1l-.6,1.3-.4.9-1.5,3.1-1.1,2.2-2.5,2.3-4.3,4s5.9,1.6,9.4,3.9c.9.6,1.9,1.4,2.8,2.3,2.6,2.5,4.8,5.6,4.8,5.6l.7-1.8,3.2-9,6.2-6.5s-7.2-1.4-9.9-2.9Z"/>
        <polygon class="cls-1" points="24.1 9.8 20.2 9.2 17.2 6.8 11.6 2.2 9.7 6.8 8.4 10 1.2 16 9.8 20.2 14 22.2 18.2 27.9 21.9 17.5 24.6 14.4 28.2 10.5 24.1 9.8"/>
      </g>
    </g>
  </g>
</svg>