<?xml version="1.0" encoding="UTF-8"?>
<svg xmlns="http://www.w3.org/2000/svg" version="1.1" viewBox="0 0 478 201">
  <defs>
    <style>
      .cls-1 {
        fill: #fff;
        fill-rule: evenodd;
      }
    </style>
  </defs>
  <!-- Generator: Adobe Illustrator 28.6.0, SVG Export Plug-In . SVG Version: 1.2.0 Build 709)  -->
  <g>
    <g id="Layer_1">
      <g>
        <g>
          <path class="cls-1" d="M404,155v-78.1c0-5.5-8.4-10-13.2-10h-85.4c-4.8,0-13.2,4.5-13.2,10v78.1c0,5.7,10.7,12.6,15.5,12.6h80.9c4.8,0,15.5-6.9,15.5-12.6h0Z"/>
          <path d="M388.5,169.2h-80.9c-5.2,0-17.1-7.3-17.1-14.2v-78.1c0-6.8,9.6-11.6,14.9-11.6h85.4c5.2,0,14.9,4.8,14.9,11.6v78.1c0,6.9-11.9,14.2-17.1,14.2ZM305.4,68.5c-4.3,0-11.6,4.1-11.6,8.4v78.1c0,4.5,9.8,11,13.9,11h80.9c4.1,0,13.9-6.5,13.9-11v-78.1c0-4.2-7.4-8.4-11.6-8.4h-85.4Z"/>
        </g>
        <g>
          <path class="cls-1" d="M348.2,18.4c11.3,0,21.8.6,36.5,2.3,14.7,1.6,29.5,5,31.8,12.3,2.1,7.4-3.1,19.5-19.5,29.7-16.3,10.3-36.8,12.6-48.8,12.6s-32.5-2.3-48.9-12.6c-7.7-6.5-7.1-13.6-7.1-25.2s0-12.9,7.1-14.9c4.4-1.3,7.6-1.5,12.4-1.9,14.7-1.6,25.2-2.3,36.5-2.3h0Z"/>
          <path d="M348.2,76.9c-8.8,0-31.3-1.3-49.8-12.8-7.9-6.6-7.9-13.9-7.9-24.1v-2.5c0-6.6,0-14.1,8.3-16.4,3.9-1.1,6.9-1.4,10.7-1.8l2-.2c14.6-1.6,25.3-2.3,36.6-2.3s22,.7,36.7,2.3c20.2,2.2,31.1,6.6,33.2,13.4,2.3,8.1-3.1,21-20.2,31.6-18.3,11.6-40.8,12.8-49.6,12.8ZM348.2,20c-11.3,0-21.8.7-36.3,2.3l-2,.2c-3.8.4-6.6.6-10.2,1.7-5.7,1.5-5.9,6.1-5.9,13.3v2.5c0,10,0,16,6.5,21.5,17.6,11,39.4,12.2,47.9,12.2s30.3-1.2,47.9-12.3c15.7-9.7,20.8-21,18.8-27.9-1.6-5.2-12.4-9.1-30.4-11.1-14.5-1.6-25-2.3-36.3-2.3Z"/>
        </g>
        <g>
          <path class="cls-1" d="M437.6,86.1c0,15,1,58.3-4.5,65.4-5.3,7.1-7.4,6.8-16.1,6.8s-10.2.2-12.9-3.2v-78.1c0-5.5-8.4-10-13.2-10h-1.5c2.6-1.3,5.2-2.6,7.6-4.2,14.4-8.9,20.2-19.2,20-26.6,0,0,2.1-7.7,10.5-4.4,8.2,3.4,10.2,39.2,10.2,54.4h0Z"/>
          <path d="M419,159.8h-4.2c-7.1,0-9-.2-12-3.8-.2-.3-.4-.6-.4-1v-78.1c0-4.2-7.4-8.4-11.6-8.4h-1.5c-.8,0-1.4-.5-1.6-1.2-.2-.7.2-1.5.9-1.8,2.5-1.3,5.1-2.5,7.4-4.1,14.4-8.9,19.4-18.9,19.3-25.3,0-.2,0-.3,0-.5.6-2.2,3.1-6.4,8.1-6.4s2.9.3,4.5,1c11.1,4.6,11.2,53.8,11.2,55.9v6.1c.2,25.9,0,54.1-4.9,60.3-5.3,7-8.1,7.4-15.4,7.4ZM416.9,156.6h2c6.8,0,8.4-.2,12.8-6.1,4.5-5.9,4.3-42.6,4.2-58.3v-6.1c0-20.4-2.9-50.3-9.2-52.9-1.2-.5-2.3-.7-3.3-.7-3.4,0-4.7,3.1-4.9,3.8,0,9.3-7.7,19.7-20.8,27.8-1,.7-2,1.3-3.1,1.9,5.1,1.5,10.9,5.6,10.9,11v77.6c1.7,2,2.7,2.2,9.2,2.2h2.1Z"/>
        </g>
        <g>
          <path class="cls-1" d="M68.4,155v-78.1c0-5.5,8.4-10,13.2-10h85.4c4.8,0,13.2,4.5,13.2,10v78.1c0,5.7-10.7,12.6-15.5,12.6h-80.9c-4.8,0-15.5-6.9-15.5-12.6h0Z"/>
          <path d="M164.8,169.2h-80.9c-5.2,0-17.1-7.3-17.1-14.2v-78.1c0-6.8,9.6-11.6,14.9-11.6h85.4c5.2,0,14.9,4.8,14.9,11.6v78.1c0,6.9-11.9,14.2-17.1,14.2ZM81.6,68.5c-4.3,0-11.6,4.1-11.6,8.4v78.1c0,4.5,9.7,11,13.9,11h80.9c4.1,0,13.9-6.5,13.9-11v-78.1c0-4.2-7.4-8.4-11.6-8.4h-85.4Z"/>
        </g>
        <g>
          <path class="cls-1" d="M124.3,18.4c-11.3,0-21.6.6-36.3,2.3-14.7,1.6-29.7,5-31.8,12.3-2.3,7.4,2.9,19.5,19.4,29.7,16.3,10.3,36.8,12.6,48.8,12.6s32.5-2.3,48.9-12.6c7.7-6.5,7.1-13.6,7.1-25.2s0-12.9-7.1-14.9c-4.2-1.3-7.6-1.5-12.4-1.9-14.7-1.6-25-2.3-36.5-2.3h0Z"/>
          <path d="M124.3,76.9c-8.8,0-31.3-1.3-49.6-12.8-17.2-10.6-22.5-23.5-20.1-31.5,2-6.8,12.8-11.2,33.2-13.4,14.9-1.6,25.1-2.3,36.5-2.3s21.8.6,36.7,2.3l2.1.2c3.9.4,6.9.7,10.7,1.8,8.2,2.2,8.2,9.8,8.2,16.4v2.5c0,10.1,0,17.5-7.7,23.9-18.6,11.7-41.1,13-50,13ZM124.3,20c-11.3,0-21.4.6-36.1,2.3-24.5,2.7-29.6,8.1-30.4,11.1-2,6.6,3,18.2,18.7,27.9,17.6,11.2,39.4,12.4,47.9,12.4s30.3-1.2,48.1-12.4c6.4-5.4,6.4-11.4,6.4-21.3v-2.5c0-7.2-.3-11.8-5.9-13.3-3.5-1.1-6.4-1.3-10.1-1.7l-2.1-.2c-14.7-1.6-24.9-2.3-36.3-2.3Z"/>
        </g>
        <g>
          <path class="cls-1" d="M34.8,86.1c0,15-1,58.3,4.5,65.4,5.3,7.1,7.4,6.8,16.3,6.8s10,.2,12.8-3.2v-78.1c0-5.5,8.4-10,13.2-10h1.6c-2.7-1.3-5.3-2.6-7.7-4.2-14.4-8.9-20.2-19.2-19.9-26.6,0,0-2.3-7.7-10.5-4.4-8.4,3.4-10.3,39.2-10.3,54.4h0Z"/>
          <path d="M53.6,159.8c-7.4,0-10.2-.4-15.5-7.4-4.8-6.2-5-34.4-4.9-60.3v-6.1c0-5.3.3-51.4,11.4-55.9,1.6-.6,3.1-1,4.5-1,5,0,7.5,4.2,8.2,6.4,0,.2,0,.3,0,.5-.3,6.3,4.6,16.2,19.1,25.2,2.3,1.5,4.7,2.7,7.6,4.1.7.3,1.1,1.1.9,1.8-.2.7-.8,1.3-1.6,1.3h-1.6c-4.3,0-11.6,4.1-11.6,8.4v78.1c0,.4-.1.7-.4,1-3,3.7-4.9,3.8-11.9,3.8h-4.2ZM49,32.4c-1,0-2.1.3-3.3.7-6.4,2.6-9.3,32.5-9.3,52.9v6.1c-.1,15.7-.3,52.4,4.2,58.3,4.5,6,6.1,6.2,12.9,6.2h4.2c6.4,0,7.3-.2,9-2.2v-77.6c0-5.3,5.9-9.4,11-11-1.1-.6-2.1-1.2-3.1-1.9-13.1-8.1-20.8-18.5-20.6-27.7-.3-.8-1.7-3.8-5-3.8Z"/>
        </g>
        <g>
          <path class="cls-1" d="M292.2,155v-78.1c0-5.5-8.4-10-13.2-10h-85.4c-4.8,0-13.2,4.5-13.2,10v78.1c0,5.7,10.7,12.6,15.5,12.6h80.9c4.8,0,15.5-6.9,15.5-12.6h0Z"/>
          <path d="M276.7,169.2h-80.9c-5.2,0-17.1-7.3-17.1-14.2v-78.1c0-6.8,9.6-11.6,14.9-11.6h85.4c5.2,0,14.9,4.8,14.9,11.6v78.1c0,6.9-11.9,14.2-17.1,14.2ZM193.5,68.5c-4.3,0-11.6,4.1-11.6,8.4v78.1c0,4.5,9.8,11,13.9,11h80.9c4.1,0,13.9-6.5,13.9-11v-78.1c0-4.2-7.4-8.4-11.6-8.4h-85.4Z"/>
        </g>
        <g>
          <path class="cls-1" d="M236.3,75.2c-12.1,0-32.5-2.3-48.9-12.6-7.7-6.5-7.1-13.6-7.1-25.2s0-12.9,7.1-14.9c13.2-3.7,35.2-4.2,48.9-4.2s35.5.5,48.8,4.2c7.1,1.9,7.1,8.2,7.1,14.9,0,11.6.6,18.7-7.1,25.2-16.3,10.3-36.8,12.6-48.8,12.6h0Z"/>
          <path d="M236.3,76.9c-8.8,0-31.3-1.3-49.8-12.8-7.9-6.6-7.9-13.9-7.9-24.1v-2.5c0-6.6,0-14.1,8.3-16.4,10.1-2.8,26.7-4.3,49.3-4.3s39.1,1.4,49.2,4.3c8.3,2.3,8.3,9.8,8.3,16.4v2.5c0,10.1,0,17.5-7.7,23.9-18.5,11.7-41,13-49.8,13ZM236.3,20c-22.4,0-38.7,1.4-48.5,4.1-5.6,1.5-5.9,6.1-5.9,13.3v2.5c0,10,0,16,6.5,21.5,17.6,11,39.4,12.2,47.9,12.2s30.3-1.2,47.9-12.3c6.4-5.4,6.4-11.4,6.4-21.3v-2.5c0-7.2-.3-11.8-5.9-13.3-9.8-2.7-26.1-4.1-48.3-4.1Z"/>
        </g>
        <g>
          <g>
            <path class="cls-1" d="M218.9,91.1c10.2,0,20.5-.3,30.7,0,7.9.5,13.2-1.9,14.5-8.4.6-2.9,1.3-5.5.3-7.3-1.6-2.9,1.9-2.9,3.1-5,.5-.8,4.2-6.3,4.2-6.3.2-1.8-9,.6-10,1-2.7.5-4.5-1.8-7.1-3.1-2.6-1.5-4.8-1.9-7.9-2.1h-2.6c-4.8,0-8.7-.3-13.4-.6-8.2-.5-10.3.3-16.6,5.5-2.9,2.3-3.6,1-6.8.2-8.4-2.1-7.3,1-3.4,7.9,1.5,2.7,5.3,1.9,5.5,2.4.3.5-.6,2.4-1,3.7-.3,2.3,0,4.2.5,5.5,1.8,4.7,4.5,6.3,9.7,6.6h.3Z"/>
            <path d="M251.4,92.3c-.6,0-1.3,0-2,0-6.7-.2-13.6-.1-20.4,0-3.4,0-6.8,0-10.2,0h-.3c-5.9-.4-8.9-2.4-10.8-7.4-.4-1-1-3.2-.6-6.1.2-.6.4-1.2.6-1.7,0-.2.2-.6.3-.8-1.4-.1-4-.5-5.2-2.8-2.3-4.2-3.8-7.1-2.7-9,.9-1.6,3-1.8,7.5-.7.8.2,1.5.4,2.1.7.7.2,1.2.4,1.6.4s.9-.1,2.1-1c6.4-5.3,8.8-6.3,17.4-5.7h1.8c4,.4,7.4.6,11.6.6h2.6c3,.2,5.6.6,8.5,2.3.8.4,1.6.9,2.3,1.4,1.4,1,2.6,1.8,4,1.5.6-.2,5.9-1.6,8.7-1.6s1.8.2,2.3.7c.3.3.5.8.4,1.3v.3s-.2.3-.2.3c-1,1.5-3.8,5.6-4.2,6.2-.5,1-1.5,1.6-2.2,2.1-1.2.8-1.3.9-.8,1.7,1.1,2.1.5,4.8-.1,7.7v.4c-.9,4.3-4,9.4-13.9,9.4ZM239.3,89.7c3.4,0,6.8,0,10.3.1.7,0,1.3,0,1.9,0,6.7,0,10.4-2.4,11.5-7.5v-.4c.6-2.4,1.1-4.7.4-6-1.6-2.8.5-4.2,1.6-4.9.6-.4,1.2-.8,1.5-1.3.4-.6,2.3-3.5,3.4-5.1-2.5.1-7.2,1.3-7.8,1.5-.5.1-.8.1-1.1.1-1.9,0-3.4-1-4.8-2-.7-.4-1.3-.9-2.1-1.3-2.3-1.3-4.3-1.8-7.4-2h-2.5c-4.3,0-7.7-.2-11.7-.5h-1.7c-7.7-.6-9.7,0-15.8,5.1-2.4,1.9-4,1.7-6,1-.5-.2-1.1-.4-1.9-.6-1.6-.4-2.9-.6-3.8-.6s-1,.2-1,.2c-.5.8,2,5.1,2.8,6.6.7,1.3,2.1,1.5,3.6,1.6.8,0,1.6.1,2,.9.4.8,0,1.8-.4,3.2-.2.5-.4,1-.5,1.4-.3,2.3.2,4.1.4,4.8,1.5,4.1,3.7,5.5,8.6,5.8h.2c3.4,0,6.8,0,10.2,0,3.4,0,6.9,0,10.3,0Z"/>
          </g>
          <path d="M214,78.7c-.2,0-.5,0-.7-.2-.7-.4-1.2-.8-1.6-1.2-1-.7-1.2-1-2.3-.9-.7,0-1.3-.5-1.3-1.1,0-.7.4-1.3,1.1-1.3,1.9-.2,2.8.5,4,1.4.4.3.9.7,1.5,1.1.6.4.7,1.1.4,1.7-.2.4-.6.6-1,.6Z"/>
          <path d="M259.1,80.3c-.2,0-.4,0-.6-.2-.6-.4-.7-1.1-.4-1.7,1.3-2.1,2.7-3.4,3.8-4.4.5-.5,1-.9,1.3-1.3.4-.5,1.2-.7,1.7-.2.5.4.6,1.2.2,1.7-.4.5-.9,1-1.6,1.6-1,.9-2.2,2.1-3.4,3.9-.2.4-.6.6-1,.6Z"/>
        </g>
        <g>
          <g>
            <path class="cls-1" d="M107,91.1c10.2,0,20.5-.3,30.7,0,7.9.5,13.2-1.9,14.5-8.4.6-2.9,1.3-5.5.3-7.3-1.6-2.9,1.9-2.9,3.1-5,.5-.8,4.2-6.3,4.2-6.3.2-1.8-9,.6-10,1-2.7.5-4.7-1.8-7.1-3.1-2.6-1.5-4.8-1.9-7.9-2.1h-2.6c-4.8,0-8.7-.3-13.4-.6-8.2-.5-10.3.3-16.8,5.5-2.7,2.3-3.4,1-6.6.2-8.6-2.1-7.4,1-3.4,7.9,1.5,2.7,5.3,1.9,5.5,2.4.3.5-.6,2.4-1,3.7-.3,2.3-.2,4.2.5,5.5,1.8,4.7,4.4,6.3,9.7,6.6h.3Z"/>
            <path d="M139.5,92.3c-.6,0-1.3,0-2,0-6.7-.2-13.6-.1-20.4,0-3.4,0-6.8,0-10.2,0h-.3c-6-.4-8.9-2.4-10.8-7.4-.7-1.4-.9-3.5-.6-6.1.2-.6.4-1.2.6-1.7,0-.2.2-.6.3-.8-1.4-.1-4-.5-5.2-2.8-2.8-4.8-3.9-7.2-2.9-8.9.9-1.6,3.1-1.8,7.6-.7.8.2,1.5.5,2.1.7.7.2,1.1.4,1.5.4s.8-.1,1.9-1c6.7-5.4,8.9-6.3,17.6-5.8h1.8c4,.4,7.4.6,11.6.6h2.6c3,.2,5.6.6,8.5,2.3.7.4,1.4.8,2,1.3,1.5,1,2.8,1.9,4.2,1.6.6-.2,5.9-1.6,8.7-1.6s1.8.2,2.3.7c.3.3.5.8.4,1.3v.3s-.2.3-.2.3c-1,1.5-3.8,5.6-4.2,6.2-.5,1-1.5,1.6-2.2,2.1-1.2.8-1.3.9-.8,1.7,1.1,2.1.5,4.8-.1,7.7v.4c-1,4.3-4,9.4-13.9,9.4ZM127.4,89.7c3.4,0,6.8,0,10.3.1.7,0,1.3,0,1.9,0,6.7,0,10.4-2.4,11.5-7.5v-.4c.6-2.4,1.1-4.7.4-6-1.6-2.8.5-4.2,1.6-4.9.6-.4,1.2-.8,1.5-1.3.4-.6,2.3-3.5,3.4-5.2-2.5.1-7.2,1.3-7.8,1.5-.5.1-.8.1-1.1.1-2,0-3.6-1.1-5.1-2.1-.6-.4-1.2-.8-1.8-1.2-2.2-1.3-4.2-1.8-7.4-2h-2.5c-4.3,0-7.7-.2-11.7-.5h-1.8c-7.7-.6-9.6,0-16,5.1-2.3,1.9-3.9,1.7-5.8,1-.5-.2-1.1-.4-1.9-.6-1.7-.4-3-.6-3.9-.6s-1.1.2-1.1.2c-.4.5.6,2.7,2.9,6.6.7,1.3,2.1,1.5,3.6,1.6.8,0,1.6.1,2,.9.4.8,0,1.8-.4,3.2-.2.5-.4,1-.5,1.4-.3,1.9-.1,3.6.4,4.7,1.6,4.2,3.7,5.7,8.7,6h.3c3.4,0,6.8,0,10.2,0,3.4,0,6.9,0,10.3,0Z"/>
          </g>
          <path d="M102.1,78.7c-.2,0-.5,0-.7-.2-.7-.4-1.2-.8-1.6-1.2-1-.7-1.2-1-2.3-.9-.8,0-1.2-.5-1.3-1.1,0-.7.4-1.3,1.1-1.3,2-.2,2.8.5,4,1.4.4.3.9.7,1.5,1.1.6.4.7,1.1.4,1.7-.2.4-.6.6-1,.6Z"/>
          <path d="M147.2,80.3c-.2,0-.4,0-.6-.2-.6-.3-.8-1.1-.4-1.7,1.3-2.2,2.7-3.5,3.8-4.5.5-.5,1-.9,1.3-1.3.4-.5,1.2-.7,1.7-.2.5.4.6,1.2.2,1.7-.4.5-.9,1-1.6,1.6-1,.9-2.3,2.1-3.4,3.9-.2.4-.6.6-1,.6Z"/>
        </g>
        <g>
          <path class="cls-1" d="M285.1,62.7c6.1-5,6.9-10.5,7.1-18.1.2,7.6,1.1,13.1,7.1,18.1,2.4,1.6,5,2.9,7.7,4.2h-1.6c-4.8,0-13.2,4.5-13.2,10,0-5.5-8.4-10-13.2-10h-1.6c2.7-1.3,5.3-2.6,7.7-4.2h0Z"/>
          <path d="M292.2,78.5c-.9,0-1.6-.7-1.6-1.6,0-4.2-7.4-8.4-11.6-8.4h-1.6c-.8,0-1.4-.5-1.6-1.3-.2-.7.2-1.5.9-1.8,2.9-1.4,5.3-2.6,7.5-4.1,5.2-4.2,6.2-8.8,6.4-16.8,0-.9.7-1.6,1.6-1.6s1.6.7,1.6,1.6c.2,7.7,1.2,12.4,6.5,16.9,2.1,1.4,4.5,2.6,7.4,4,.7.3,1.1,1.1.9,1.8-.2.7-.8,1.3-1.6,1.3h-1.6c-4.3,0-11.6,4.1-11.6,8.4s-.7,1.6-1.6,1.6ZM282.8,65.9c3.4,1,7.2,3.3,9.3,6.2,2.1-3,5.9-5.2,9.3-6.2-1.1-.6-2.1-1.2-3.1-1.9-3.2-2.7-5.1-5.5-6.2-8.4-1.1,3-2.9,5.7-6.1,8.3-1.1.7-2.2,1.4-3.3,2Z"/>
        </g>
        <g>
          <path class="cls-1" d="M187.4,62.7c2.4,1.6,5,2.9,7.7,4.2h-1.6c-4.8,0-13.2,4.5-13.2,10,0-5.5-8.4-10-13.2-10h-1.6c2.7-1.3,5.3-2.6,7.7-4.2,6.1-5,6.9-10.5,7.1-18.1.2,7.6,1,13.1,7.1,18.1h0Z"/>
          <path d="M180.3,78.5c-.9,0-1.6-.7-1.6-1.6,0-4.2-7.4-8.4-11.6-8.4h-1.6c-.8,0-1.4-.5-1.6-1.3-.2-.7.2-1.5.9-1.8,2.9-1.4,5.3-2.6,7.5-4.1,5.2-4.2,6.2-8.8,6.4-16.8,0-.9.7-1.6,1.6-1.6s1.6.7,1.6,1.6c.2,8,1.2,12.5,6.5,16.9,2.1,1.4,4.5,2.6,7.4,4,.7.3,1.1,1.1.9,1.8-.2.7-.8,1.3-1.6,1.3h-1.6c-4.3,0-11.6,4.1-11.6,8.4s-.7,1.6-1.6,1.6ZM170.9,65.9c3.4,1,7.2,3.3,9.3,6.2,2.1-3,5.9-5.2,9.3-6.2-1.1-.6-2.1-1.2-3.1-1.9-3.2-2.6-5.1-5.4-6.2-8.3-1.1,2.9-2.9,5.7-6.1,8.2-1.1.7-2.1,1.4-3.3,2Z"/>
        </g>
        <g>
          <path class="cls-1" d="M30.6,80.6c-.3-5.3.5-5.7,2.4-6.3,1.9-.5,6.8,0,8.4.2,1.6.3,4.2-.5,6.9-.8.8-.2,3.9.8,4.4.6,1.1-.2,1.8-1.6,2.7-1.6s3.1.2,4.2.8c2.3,1.3,2.4-.3,3.6-.2,2.1,0,4.2.3,5.7.2,1.3,0,2.9.6,2.9,2.3.2,1.5,1.9,7.9,2.1,11,.2,3.1.6,8.9,1.3,12.8.8,3.9,4.8,12.1,5,16,.2,3.7-1.5,6.5-2.3,11.5-1,4.8,0,8.2.2,11.9,0,3.6-4.5,2.6-7.1,3.1-2.4.3-1.8-.5-1.9-1.8-.2-.8-1.1,1.8-1.9,2.1-1.6.6-5,.5-6.8,0-1.3-.5-1.1-2.3-1.5-1.6-.2,1.1-1.5,2.6-3.6,2.6-4.7,0-7.3.2-11,0-1.8,0-4,.2-4.8-.5-1-1-1.8.5-4.2.2-2.3-.5-2.7-.5-4-1.8-1.3-1.3-1-3.4-1-7.6-.2-4.4.6-8.9.3-14.7-.3-6,.6-9.2,0-12.3-.6-2.9-.3-8.2-.2-11,0-4.7.5-9.5.2-15h0Z"/>
          <path d="M47.8,144.5c-1.1,0-2.3,0-3.5,0h-1.8c-1.7,0-2.9-.1-3.7-.8,0,0-.3,0-.5,0-.7.2-1.6.5-3.1.4h-.7c-1.9-.5-2.6-.7-4.1-2.1-1.4-1.4-1.4-3.3-1.3-6.4,0-.6,0-1.3,0-2.1,0-1.9,0-3.9.2-6.1.2-2.7.3-5.4.2-8.6-.2-2.9,0-5.2.1-7.1.1-2,.2-3.5,0-5-.7-3-.4-8.4-.2-11.2,0-1.7,0-3.5.1-5.3.1-3.1.2-6.3,0-9.7-.3-5.4.5-6.6,3.2-7.5.8-.2,1.7-.3,2.9-.3,2.2,0,4.9.3,6,.4.3,0,.5,0,.7,0,.8,0,1.9-.2,3.1-.4.9-.2,1.9-.3,2.9-.5h.4c.6,0,1.5.2,2.5.4.5.1,1.3.3,1.5.3.2,0,.5-.3.8-.6.5-.5,1.2-1.1,2.1-1.1s3.1,0,4.8,1c1.2.7.9.4,1.3.2.3-.2.8-.5,1.5-.5h.3c.7,0,1.6,0,2.5.1,1.1,0,2.1.2,2.8,0h0c2.2,0,4.2,1.2,4.2,3.5,0,.4.3,1.5.6,2.9.6,2.7,1.4,6,1.5,8.1.2,2.8.6,8.7,1.3,12.6.3,1.5,1.2,3.8,2.1,6.2,1.4,3.7,2.8,7.4,2.9,9.9.1,2.4-.4,4.3-1.1,6.6-.4,1.5-.9,3.1-1.2,5.1-.7,3.3-.4,5.9-.1,8.5.1,1.1.2,2.1.3,3.2,0,3.9-3.8,4.1-6.1,4.1-.7,0-1.4,0-2,.2-.5,0-.8,0-1.1,0-.5,0-1.1,0-1.6-.5-.3.3-.6.5-.9.7-1.1.4-2.5.5-3.5.5-1.5,0-3-.2-4-.5-.4-.1-.7-.3-1-.6-.8.9-2.1,1.6-3.7,1.6s-3.1,0-4.4,0c-1.1,0-2.1,0-3.1,0ZM44.3,142c2.4.1,4.3,0,6.5,0,1.3,0,2.7,0,4.4,0s2.3-1,2.4-1.5v-.4c.1,0,.5-.7.5-.7h.9c.9-.1,1.2.7,1.3,1,.1.3.2.6.4.7,1.5.4,4.8.5,5.9,0,0,0,.4-.7.6-1,.5-.7.9-1.4,1.7-1.4h1l.3,1.1c0,.4,0,.6,0,.9.2,0,.4,0,.5,0,.6-.1,1.4-.2,2.3-.2,3.1-.1,3.8-.4,3.8-1.7,0-1-.2-2-.3-3-.3-2.7-.6-5.5.1-9.2.3-2.1.8-3.8,1.3-5.4.6-2.1,1.1-3.8,1-5.8,0-2.1-1.5-5.8-2.8-9.1-1-2.5-1.9-4.9-2.2-6.6-.7-4.1-1.2-10-1.3-12.9-.1-1.9-.9-5.2-1.4-7.6-.3-1.5-.6-2.7-.7-3.3,0-1.2-1.7-1.2-1.7-1.2-.6,0-1.9,0-3.1,0-.8,0-1.7-.1-2.5-.1h-.4c-.6.5-2,1-3.8,0-.7-.4-2.6-.6-3.6-.6,0,0-.3.3-.5.4-.5.4-1.1,1-2.1,1.2h-.3c-.4,0-1.1-.1-2-.3-.7-.1-1.6-.4-2-.4-1,.1-1.9.3-2.8.5-1.8.3-3.4.6-4.6.4-1,0-3.5-.3-5.6-.3s-1.9,0-2.2.2c-1.4.5-1.8.6-1.5,5.1.2,3.5,0,6.8,0,9.9,0,1.8-.1,3.5-.1,5.2-.2,2.7-.5,8,.1,10.7.4,1.8.3,3.6.1,5.7-.1,1.9-.3,4-.1,6.8.2,3.3,0,6.3-.2,8.9-.1,2.1-.2,4-.2,5.9,0,.8,0,1.5,0,2.1,0,2.7,0,4,.6,4.6.9.9,1.1,1,2.9,1.3h.6c.1.1.3.1.4.1.6,0,1.1-.2,1.5-.3.9-.3,2-.4,2.9.4,0,0,.4.2,2.1.2h1.9Z"/>
        </g>
        <path d="M56.4,103.3c-.6,0-1.1-.5-1.2-1.1-.2-1.7-.6-3.2-1-4.8-.7-2.7-1.4-5.4-1-9.2.2-2.5.5-4.1.7-5.4.2-1.6.4-2.5.3-3.7,0-1.6-1.7-3.3-2.3-3.8-.5-.4-.6-1.2-.2-1.7.4-.5,1.2-.6,1.7-.2.3.3,3.2,2.7,3.2,5.6,0,1.4,0,2.5-.3,4.1-.2,1.3-.4,2.9-.7,5.3-.4,3.3.2,5.8.9,8.3.4,1.6.8,3.3,1,5.2,0,.7-.4,1.3-1.1,1.3,0,0,0,0-.1,0Z"/>
        <path d="M69,142c-.6,0-1.1-.4-1.2-1-.4-1.9-.2-4.3.4-5.8,3.4-10.1,2.3-15.6.9-22.5l-.4-2.2c-.8-4.1-.3-6.3,0-8.7.2-1.2.5-2.5.5-4.2,0-3.6-.3-8.8-2.5-12-.4-.6-.3-1.3.3-1.7.6-.4,1.3-.2,1.7.3,2.7,3.8,3,9.5,3,13.4,0,1.9-.3,3.3-.6,4.6-.4,2.2-.8,4.1,0,7.8l.4,2.2c1.5,7.3,2.7,13.1-1,23.8-.4,1.2-.5,3.1-.3,4.6.1.7-.3,1.3-1,1.4,0,0-.1,0-.2,0Z"/>
        <path d="M58.4,142.8c-.2,0-.4,0-.6-.1-.6-.3-.8-1-.5-1.6,1.6-3.1,1.8-5.1,1.5-7.5-.6-5.5-.8-7.9-.8-8,0-.7.5-1.2,1.1-1.3.7-.1,1.2.5,1.3,1.1,0,0,.2,2.4.8,7.9.4,2.8.2,5.3-1.7,8.9-.2.4-.6.7-1.1.7Z"/>
        <g>
          <path class="cls-1" d="M30.6,118.8c-.3-6,.6-9.2,0-12.3-.6-2.9-.3-8.2-.2-11v-2.3c-1,3.1-2.6,6-3.2,7.7-.8,2.4-.6,5.8-1.6,8.2-.8,2.6-3.2,3.9-4.8,6.6-3.7,6.1.6,9.5,3.1,17.3,2.1,6.9,4,8.9,7.7,8.2,0,0-.2-.2-.3-.3-1.3-1.3-1-3.4-1-7.6-.2-4.4.6-8.9.3-14.7h0Z"/>
          <path d="M30.3,142.8h0c-4.1,0-5.9-3.5-7.7-9.2-.7-2.2-1.6-4.1-2.4-5.8-1.9-4.1-3.5-7.6-.6-12.5.8-1.3,1.7-2.3,2.5-3.2,1-1.1,1.8-2,2.2-3.2.5-1.2.7-2.7.9-4.2.2-1.4.3-2.8.8-4,.3-.7.7-1.6,1.1-2.6.7-1.5,1.5-3.3,2.1-5.1l2.4-7.5v10.1c-.2,2.7-.5,8,.1,10.7.4,1.8.3,3.6.1,5.7-.1,1.9-.3,4-.1,6.8.2,3.3,0,6.3-.2,8.9-.1,2.1-.2,4-.2,5.9,0,.8,0,1.5,0,2.1,0,2.7,0,4,.6,4.6l2,2-2.3.4c-.5,0-1,.1-1.5.1ZM29,99.9c-.3.6-.5,1.1-.7,1.6-.3,1-.5,2.2-.6,3.6-.2,1.6-.4,3.3-1,4.7-.5,1.6-1.6,2.8-2.7,4-.8.8-1.6,1.7-2.2,2.8-2.3,3.8-1.2,6.2.7,10.2.8,1.7,1.7,3.7,2.5,6.1,1.6,5.2,2.9,6.9,4.4,7.4-.4-1.2-.3-2.7-.3-4.6,0-.6,0-1.3,0-2.1,0-1.9,0-3.9.2-6.1.2-2.7.3-5.4.2-8.6-.2-2.9,0-5.2.1-7.1.1-2,.2-3.5,0-5-.4-1.8-.5-4.5-.4-6.9Z"/>
        </g>
      </g>
    </g>
  </g>
</svg>