<?xml version="1.0" encoding="UTF-8"?>
<svg xmlns="http://www.w3.org/2000/svg" version="1.1" viewBox="0 0 110.4 60.2">
  <defs>
    <style>
      .cls-1 {
        fill: #fff;
        stroke: #000;
        stroke-linecap: square;
        stroke-miterlimit: 10;
        stroke-width: 1.1px;
      }
    </style>
  </defs>
  <!-- Generator: Adobe Illustrator 28.6.0, SVG Export Plug-In . SVG Version: 1.2.0 Build 709)  -->
  <g>
    <g id="Layer_1">
      <g>
        <path class="cls-1" d="M105.8.5h-3.8s-96.6,0-96.6,0h0s-.7,0-.7,0C2.4.6.5,3.2.5,6.5v47.1c0,3.3,1.9,6,4.2,6h6.4c2.3,0,4.2-2.7,4.2-6V18.4h79.9v35.2c0,3.3,1.9,6,4.2,6h6.4c2.3,0,4.2-2.7,4.2-6V6.5c0-3.3-1.8-6-4.1-6Z"/>
        <path class="cls-1" d="M15.3,18.4h39.9v36.4c0,2.7-2.2,4.9-4.9,4.9h-30.1c-2.7,0-4.9-2.2-4.9-4.9V18.4h0Z"/>
        <path class="cls-1" d="M55.2,18.4h39.9v36.4c0,2.7-2.2,4.9-4.9,4.9h-30.1c-2.7,0-4.9-2.2-4.9-4.9V18.4h0Z"/>
      </g>
    </g>
  </g>
</svg>