<?xml version="1.0" encoding="UTF-8"?>
<svg xmlns="http://www.w3.org/2000/svg" version="1.1" viewBox="0 0 133.7 87.6">
  <defs>
    <style>
      .cls-1 {
        fill: #fff;
        stroke: #000;
        stroke-miterlimit: 10;
        stroke-width: 1.1px;
      }
    </style>
  </defs>
  <!-- Generator: Adobe Illustrator 28.6.0, SVG Export Plug-In . SVG Version: 1.2.0 Build 709)  -->
  <g>
    <g id="Layer_1">
      <g>
        <path class="cls-1" d="M82.1,14.4h-34c-1.3,0-2.3-1-2.3-2.3v31.1c0,3.2,2.6,5.7,5.7,5.7h30.8c3.2,0,5.7-2.6,5.7-5.7v-21.3h-9c0-.1,3.1-7.6,3.1-7.6Z"/>
        <path class="cls-1" d="M45.8,12v.2c0-1.3,1-2.3,2.3-2.3h-2.3v2.1Z"/>
        <path class="cls-1" d="M43.7,14.4h-.2v8.7s-4.8-3.3-8.2-4.1-8.6-.4-8.6-.4l2.1-4.2h-4.1l-2.7,3-3.7,10.4-4.2-5.7-4.2-2v11.5c0,2.6-2.1,4.6-4.6,4.6h0c-2.6,0-4.6-2.1-4.6-4.6v49.4c0,3.3,2.6,5.9,5.9,5.9h33.4c3.3,0,5.9-2.6,5.9-5.9V12.3c0,1.2-1,2.1-2.1,2.1Z"/>
        <path class="cls-1" d="M45,9.8l-.2.4c.6.4.9,1,.9,1.8v-2.1h-.8Z"/>
        <path class="cls-1" d="M.6,6.8v.2c0,0,0-.1,0-.2h0Z"/>
        <path class="cls-1" d="M133.2,6.8c0,0,0,.1,0,.2v-.2h0Z"/>
        <path class="cls-1" d="M128.5,36.4h0c-2.6,0-4.7-2.1-4.7-4.7v-7.2l-1.7,4.8s-4.1-5.6-7.5-7.9c-3.5-2.3-9.4-3.9-9.4-3.9l3.2-3h-8l-.9,3.2,1.1,8.8-11.2-4.4h-1.4s0,21,0,21c0,3.3,2.6,5.9,5.9,5.9h33.3c3.3,0,5.9-2.6,5.9-5.9v-11.4c0,2.6-2.1,4.7-4.7,4.7Z"/>
        <path class="cls-1" d="M11.6,2.2l5.6,4.6h13.5l.2-2.1s3.4,1.1,5.7,1.8l8.2.3c1-.1,1.7-.2,1.7-.2v.2c-.1,0,36.3,0,36.3,0l-.5-4.3,10.4,4.1,10.5-1.4-.5,1.6h11.4l1.5-3.2s1.8,1.7,3.6,3.2h14c0-3.4-2.9-6.2-6.4-6.2H6.9C3.5.5.6,3.3.6,6.8h9.2l1.9-4.6Z"/>
        <polygon class="cls-1" points="24.1 9.8 30.4 9.8 30.7 6.8 17.2 6.8 20.2 9.2 24.1 9.8"/>
        <path class="cls-1" d="M5.2,36.4h0c2.6,0,4.6-2.1,4.6-4.6v-11.5L1.2,16l7.2-6,1.3-3.3H.6c0,0,0,.1,0,.2v24.8c0,2.6,2.1,4.6,4.6,4.6Z"/>
        <polygon class="cls-1" points="82.8 6.8 46.4 6.8 45.8 8.1 45 9.8 45.8 9.8 48.1 9.8 83.1 9.8 82.8 6.8"/>
        <polygon class="cls-1" points="112.6 9.8 114 6.8 102.7 6.8 101.8 9.8 112.6 9.8"/>
        <path class="cls-1" d="M119.2,6.8c1.1,1,2.3,1.9,3.1,2.3,2.6,1.5,9.9,2.9,9.9,2.9l-6.2,6.5-2.1,6v7.2c0,2.6,2.1,4.7,4.7,4.7h0c2.6,0,4.7-2.1,4.7-4.7V6.9c0,0,0-.1,0-.2h-14Z"/>
        <path class="cls-1" d="M83.1,9.8h-35c-1.3,0-2.3,1-2.3,2.3h0c0,1.3,1,2.3,2.3,2.3h34l1.3-3-.2-1.6Z"/>
        <polygon class="cls-1" points="112.6 9.8 101.8 9.8 100.4 14.4 108.4 14.4 112 11 112.6 9.8"/>
        <path class="cls-1" d="M122.3,9.1c-.8-.4-1.9-1.3-3.1-2.3-1.8-1.5-3.6-3.2-3.6-3.2l-1.5,3.2-1.5,3.1-.6,1.2-3.6,3.4-3.2,3s5.9,1.6,9.4,3.9c3.5,2.3,7.5,7.9,7.5,7.9l1.7-4.8,2.1-6,6.2-6.5s-7.2-1.4-9.9-2.9Z"/>
        <polygon class="cls-1" points="92.6 6.6 82.2 2.5 82.8 6.8 83.1 9.8 83.3 11.4 82.1 14.4 79 21.9 88 22 88 22 89.4 22 100.6 26.4 99.5 17.6 100.4 14.4 101.8 9.8 102.7 6.8 103.1 5.2 92.6 6.6"/>
        <polygon class="cls-1" points="30.4 9.8 24.1 9.8 28.2 10.5 24.6 14.4 28.7 14.4 30.2 11.6 30.4 9.8"/>
        <path class="cls-1" d="M45.8,12c0-.7-.4-1.4-.9-1.8l-1.4,3.3v1h.2c1.2,0,2.1-1,2.1-2.1v-.2h0v-.2Z"/>
        <path class="cls-1" d="M44.7,6.8l-8.2-.3c-2.3-.7-5.7-1.8-5.7-1.8l-.2,2.1-.3,3.1-.2,1.7-1.5,2.9-2.1,4.2s5.2-.4,8.6.4,8.2,4.1,8.2,4.1v-8.7s0-1,0-1l1.4-3.3.2-.4.8-1.8.6-1.3v-.2c.1,0-.6.1-1.6.2Z"/>
        <polygon class="cls-1" points="24.1 9.8 20.2 9.2 17.2 6.8 11.6 2.2 9.7 6.8 8.4 10 1.2 16 9.8 20.2 14 22.2 18.2 27.9 21.9 17.5 24.6 14.4 28.2 10.5 24.1 9.8"/>
      </g>
    </g>
  </g>
</svg>