<?xml version="1.0" encoding="UTF-8"?>
<svg xmlns="http://www.w3.org/2000/svg" version="1.1" viewBox="0 0 94.3 108">
  <defs>
    <style>
      .cls-1 {
        fill: #fff;
        stroke: #000;
        stroke-linecap: square;
        stroke-miterlimit: 10;
        stroke-width: 1.1px;
      }
    </style>
  </defs>
  <!-- Generator: Adobe Illustrator 28.6.0, SVG Export Plug-In . SVG Version: 1.2.0 Build 709)  -->
  <g>
    <g id="Layer_1">
      <g>
        <path class="cls-1" d="M75.7,60.1l5.6-2.5c2.5-1.1,3.5-4,2.3-6.5-6.7-13.1-16.4-24.4-28.2-32.9-2.2-1.6-5.3-1-6.7,1.2l-3.3,5.1c13.2,8.6,23.9,21,30.4,35.5Z"/>
        <path class="cls-1" d="M47,12.8C34.7,5.7,20.6,1.3,5.5.5,2.8.4.5,2.6.5,5.3v6.1c16.5,0,31.9,4.9,44.8,13.3l3.3-5.1c1.5-2.3.7-5.3-1.6-6.7Z"/>
        <path class="cls-1" d="M45.3,24.6l-18.8,29c-1.3,2-.9,4.7,1,6.2,4.3,3.4,7.9,7.6,10.6,12.4,1.2,2.1,3.8,2.9,6,2l31.6-14.1c-6.5-14.6-17.1-26.9-30.4-35.5Z"/>
        <path class="cls-1" d="M45.3,24.6C32.4,16.2,17.1,11.4.5,11.4v34.6c0,2.4,1.9,4.5,4.3,4.7,5.6.5,10.8,2.2,15.5,4.6,2.2,1.1,4.8.4,6.1-1.6l18.8-29Z"/>
        <path class="cls-1" d="M87.6,60.3c5.1,13.3,7.2,27.9,5.7,42.9-.3,2.7-2.8,4.6-5.4,4.2l-6-.9c2.6-16.3.1-32.3-6.1-46.3l5.6-2.5c2.5-1.1,5.4.1,6.3,2.6Z"/>
        <path class="cls-1" d="M75.7,60.1c6.3,14,8.7,30,6.1,46.3l-34.2-5.4c-2.4-.4-4.1-2.5-4-5,.3-5.6-.5-11-2.2-16.1-.8-2.3.3-4.8,2.6-5.8l31.6-14.1Z"/>
      </g>
    </g>
  </g>
</svg>