<?xml version="1.0" encoding="UTF-8"?>
<svg xmlns="http://www.w3.org/2000/svg" version="1.1" viewBox="0 0 107.8 48.2">
  <defs>
    <style>
      .cls-1 {
        fill: #fff;
        stroke: #000;
        stroke-linecap: square;
        stroke-miterlimit: 10;
        stroke-width: 1.1px;
      }
    </style>
  </defs>
  <!-- Generator: Adobe Illustrator 28.6.0, SVG Export Plug-In . SVG Version: 1.2.0 Build 709)  -->
  <g>
    <g id="Layer_1">
      <g>
        <path class="cls-1" d="M102.4.5H5.3C2.7.5.5,2.7.5,5.3v37.5c0,2.7,2.1,4.8,4.8,4.8h97.1c2.7,0,4.8-2.1,4.8-4.8V5.3c0-2.7-2.1-4.8-4.8-4.8Z"/>
        <path class="cls-1" d="M5.3.5v6.7c0,6.3,5.1,11.4,11.4,11.4h74.4c6.3,0,11.4-5.1,11.4-11.4V.5H5.3Z"/>
        <path class="cls-1" d="M91.2,18.6c6.2,0,11.3-5.1,11.3-11.3V.5c2.6,0,4.7,2.2,4.7,4.8v37.5c0,2.7-2.1,4.8-4.8,4.8h-12.1s0-29.1,0-29.1h.9Z"/>
        <rect x="53.3" y="0" width="1.1" height="19.1"/>
        <path class="cls-1" d="M16.5,18.6c-6.2,0-11.3-5.1-11.3-11.3V.5C2.7.6.5,2.7.5,5.3v37.5c0,2.7,2.1,4.8,4.8,4.8h12.1s0-29.1,0-29.1h-.9Z"/>
      </g>
    </g>
  </g>
</svg>