<?xml version="1.0" encoding="UTF-8"?>
<svg xmlns="http://www.w3.org/2000/svg" version="1.1" viewBox="0 0 275 201">
  <defs>
    <style>
      .cls-1 {
        fill: #fff;
        fill-rule: evenodd;
      }
    </style>
  </defs>
  <!-- Generator: Adobe Illustrator 28.6.0, SVG Export Plug-In . SVG Version: 1.2.0 Build 709)  -->
  <g>
    <g id="Layer_1">
      <g>
        <g>
          <path class="cls-1" d="M87.2,162v-78.1c0-5.5,8.2-10,12.9-10h82c4.7,0,12.8,4.5,12.8,10v78.1c0,5.7-10.2,12.6-14.9,12.6h-77.8c-4.7,0-15-6.9-15-12.6h0Z"/>
          <path d="M180.1,176.2h-77.8c-5.1,0-16.6-7.3-16.6-14.2v-78.1c0-6.8,9.4-11.6,14.5-11.6h82c5.7,0,14.4,5.2,14.4,11.6v78.1c0,6.5-10.9,14.2-16.5,14.2ZM100.2,75.5c-4.1,0-11.3,4.1-11.3,8.4v78.1c0,4.5,9.4,11,13.4,11h77.8c4,0,13.2-6.4,13.2-11v-78.1c0-4.2-7-8.4-11.1-8.4h-82Z"/>
        </g>
        <g>
          <path class="cls-1" d="M141.2,25.4c-11,0-21,.6-35,2.3-14.2,1.6-28.6,5-30.7,12.3-2.1,7.4,2.9,19.5,18.7,29.7,15.8,10.3,35.5,12.6,47,12.6s31.2-2.3,47-12.6c15.8-10.2,20.8-22.3,18.7-29.7-2.1-7.3-16.5-10.7-30.7-12.3-14-1.6-24.2-2.3-35-2.3h0Z"/>
          <path d="M141.2,83.9c-8.5,0-30.1-1.3-47.9-12.9-16.5-10.6-21.7-23.5-19.4-31.5,2-6.8,12.4-11.2,32-13.4,14-1.6,24.2-2.3,35.2-2.3s21.2.7,35.2,2.3c19.6,2.2,30.1,6.6,32,13.4,2.3,8-2.9,20.9-19.4,31.5-17.8,11.6-39.4,12.9-47.9,12.9ZM141.2,27c-10.9,0-21,.7-34.9,2.3-17.4,2-27.8,5.9-29.3,11.1-1.9,6.6,3,18.2,18,27.9,17.1,11.1,37.9,12.3,46.1,12.3s29-1.2,46.1-12.3c15.1-9.7,19.9-21.3,18.1-27.9-1.5-5.2-11.9-9.1-29.3-11.1-13.9-1.6-24-2.3-34.9-2.3Z"/>
        </g>
        <g>
          <path class="cls-1" d="M54.9,93.1c0,15-.8,58.3,4.4,65.4s7.3,6.8,15.7,6.8,9.8.2,12.3-3.2v-78.1c0-5.5,8.2-10,12.9-10h1.5c-2.6-1.3-5-2.6-7.4-4.2-13.9-8.9-19.4-19.2-19.2-26.6,0,0-2.1-7.7-10-4.4-8.1,3.4-10,39.2-10,54.4h0Z"/>
          <path d="M73,166.8c-7.1,0-9.8-.4-15-7.4-4.5-6.3-4.8-34.7-4.7-60.8v-5.5c0-2.1.1-51.3,11-55.9,1.5-.7,3-1,4.3-1,4.8,0,7.2,4.2,7.8,6.4,0,.2,0,.3,0,.5-.1,6.4,4.6,16.4,18.5,25.2,2.5,1.7,5,3,7.3,4.1.7.3,1,1.1.8,1.8-.2.7-.8,1.2-1.6,1.2h-1.5c-4.1,0-11.3,4.1-11.3,8.4v78.1c0,.3-.1.7-.3.9-2.7,3.7-4.6,3.9-11.5,3.9h-4ZM68.7,39.4c-.9,0-2,.2-3.1.7-5.6,2.3-9,29.3-9,52.9v5.5c0,15.8-.3,53,4,58.9,4.4,6.1,6.1,6.1,12.4,6.1h4c6.3,0,7.1-.1,8.6-2.1v-77.6c0-5.3,5.8-9.4,10.7-11-1-.6-2-1.2-3.1-1.9-12.6-8-20-18.4-19.9-27.7-.3-.8-1.5-3.8-4.7-3.8Z"/>
        </g>
        <g>
          <path class="cls-1" d="M227.2,93.1c0,15,1,58.3-4.2,65.4-5.3,7.1-7.3,6.8-15.7,6.8s-9.8.2-12.4-3.2v-78.1c0-5.5-8.1-10-12.8-10h-1.5c2.6-1.3,5-2.6,7.4-4.2,13.7-8.9,19.4-19.2,19.2-26.6,0,0,2.1-7.7,10-4.4,7.9,3.4,9.8,39.2,9.8,54.4h0Z"/>
          <path d="M209.3,166.8h-4c-6.9,0-8.8-.2-11.6-3.9-.2-.3-.3-.6-.3-1v-78.1c0-4.2-7-8.4-11.1-8.4h-1.5c-.8,0-1.4-.5-1.6-1.2-.2-.7.2-1.5.8-1.8,2.3-1.1,4.8-2.4,7.3-4.1,13.8-9,18.6-18.9,18.5-25.3,0-.2,0-.3,0-.5.6-2.2,3-6.4,7.8-6.4s2.8.3,4.4,1c10.7,4.6,10.8,53.8,10.8,55.9v6.4c.2,25.8,0,53.8-4.5,59.9-5.3,7.1-8,7.4-15,7.4ZM207.4,163.6h2c6.4,0,8-.2,12.4-6.1,4.2-5.8,4-41.1,3.9-58v-6.4c0-23.6-3.4-50.6-8.9-52.9-1.1-.5-2.2-.7-3.1-.7-3.1,0-4.4,3-4.7,3.8,0,9.3-7.4,19.6-20,27.8-1,.7-2,1.3-3,1.9,5.1,1.6,10.5,5.9,10.5,11v77.6c1.6,2,2.5,2.2,8.7,2.2h2.1Z"/>
        </g>
        <g>
          <g>
            <path class="cls-1" d="M77.1,99c-3.4-4.5-7.7,6.8-11.5-5.3-1.1-3.9,1.9-3.9,5.2-5.3,4-1.8,3.4-2.6,6-5.8,6.6-8.4,11.6-10.3,21-14.4,7.7-3.4,4.7-8.2,7.4-10.3,1.6-1.3,8.1,0,8.7,2.3.6,2.3-1,3.9,1.3,8.2,3.6,6.6,12.9,15.3,20.3,17.1,3.6.8,5.2.8,5.5,5,.8,8.6-6.9,3.7-10.3,8.2-1.5,1.9-2.4,4.4-4,6.6-5.2,7.3-10.2,9.7-17.6,13.9-6.3,3.6.2,6.8-9.2,7.3-4.2.2-2.1-3.1-5.5-6.9-4.2-5.2-8.9-8.6-12.8-14.2-1.5-2.3-2.9-4.2-4.5-6.3h0Z"/>
            <path d="M99.5,127.7c-3.1,0-3.6-1.8-4.1-3.5-.3-1.2-.7-2.5-2-3.9-1.8-2.2-3.6-4.1-5.5-5.9-2.5-2.5-5.1-5.1-7.4-8.4-1.5-2.4-3-4.4-4.5-6.2-.5-.7-.9-.7-1-.7-.5,0-1.2.3-1.9.7-.9.4-2,.9-3.1.9-3.1,0-4.6-3.6-5.6-6.7-1.2-4.2,1.7-5.2,4-6.1.6-.2,1.2-.4,1.9-.7,2.5-1.1,2.9-1.7,3.8-3.1.4-.6.9-1.4,1.7-2.4,6.6-8.3,11.8-10.6,20.4-14.3l1-.5c4.3-1.9,4.8-4.1,5.2-6.3.3-1.4.6-2.9,1.9-3.9.6-.5,1.6-.8,2.9-.8,2.7,0,7,1.2,7.7,3.6.3,1,.2,1.9.2,2.8-.1,1.4-.2,2.7,1.1,5.2,3.4,6.4,12.5,14.8,19.6,16.5l.8.2c3.1.7,5.3,1.2,5.6,5.9.6,6.2-3.2,6.7-6,7.1-1.8.3-3.5.5-4.6,1.9-.7.9-1.3,2-1.9,3.1-.6,1.2-1.3,2.3-2.1,3.5-4.9,6.9-9.6,9.6-16.2,13.2l-1.8,1c-2.3,1.3-2.5,2.3-2.7,3.5-.5,2.5-1.7,3.7-7,4h-.4ZM75.1,96.7c1.2,0,2.1.5,2.9,1.6,1.5,1.9,3,4,4.6,6.4,2.1,3.1,4.5,5.5,7.1,8.1,1.9,1.9,3.8,3.8,5.6,6,1.6,1.8,2.1,3.5,2.5,4.7.5,1.6.5,1.7,1.8,1.7v1.2l.2-1.2c4.3-.2,4.5-.9,4.7-2,.3-1.3.7-3.2,3.9-5.1l1.8-1c6.5-3.7,10.8-6.1,15.4-12.5.8-1.1,1.4-2.2,2-3.3.7-1.2,1.3-2.3,2.1-3.4,1.7-2.2,4.2-2.6,6.2-2.9,2.8-.4,4.2-.6,3.9-4.5-.2-3-.8-3.1-3.7-3.8l-.8-.2c-7.9-1.9-17.5-10.8-21.1-17.7-1.6-3.1-1.5-5-1.3-6.6,0-.7.1-1.3,0-1.9-.2-.7-2.8-1.9-5.4-1.9s-1.3.2-1.4.3c-.6.5-.8,1.2-1.1,2.5-.5,2.4-1.1,5.6-6.6,8l-1,.5c-8.6,3.7-13.3,5.7-19.5,13.6-.7.9-1.2,1.6-1.6,2.2-1.1,1.7-1.8,2.6-4.9,4-.7.3-1.4.6-2,.8-2.5.9-3,1.2-2.5,3.1,1,3.3,2.1,4.9,3.3,4.9s1.3-.3,2.1-.7c.9-.4,1.9-.9,3-.9Z"/>
          </g>
          <path d="M91.8,101.6c-.2,0-.4,0-.5-.2-.8-.8-1.5-.9-2.4-1.2-.8-.2-1.8-.5-3.1-1.2-.4-.2-.5-.7-.3-1.1.2-.4.7-.6,1.1-.3,1.1.6,2,.8,2.7,1,1,.3,2,.5,3.1,1.5.3.3.4.8,0,1.1-.2.2-.4.3-.6.3Z"/>
          <path d="M101.9,95.3c-.1,0-.2,0-.4,0-.4-.2-.6-.7-.4-1.1l.3-.5c.4-.8.8-1.4.8-2.9s.4-.8.8-.8.8.4.8.8c0,1.8-.5,2.8-1,3.6l-.2.4c-.1.3-.4.4-.7.4Z"/>
          <path d="M111.5,94.4c-.3,0-.7-.2-.8-.6-.4-1.2-.5-4.3.4-6,.2-.4.7-.5,1.1-.3.4.2.5.7.3,1.1-.6,1.2-.6,3.8-.3,4.7.1.4,0,.9-.5,1,0,0-.2,0-.3,0Z"/>
          <path d="M126.5,98.1c-1.4,0-4,0-5.3-.6-.4-.2-.6-.6-.4-1.1.2-.4.7-.6,1.1-.4,1,.4,3.6.4,4.7.4s.8.4.8.8-.4.8-.8.8Z"/>
          <path d="M124.9,104h0s-2.1-.2-3.8-.2-.8-.4-.8-.8.4-.8.8-.8c1.8,0,3.8.2,3.9.2.4,0,.8.4.7.9,0,.4-.4.7-.8.7Z"/>
          <path d="M91.3,107.4c-1.5,0-3.6-.6-4.8-2.1-.3-.3-.3-.8,0-1.1.3-.3.9-.3,1.1,0,.7.9,2.2,1.5,3.6,1.5s.8.4.8.8-.4.8-.8.8Z"/>
          <path d="M118.4,93.2c-.1,0-.2,0-.3,0-.4-.2-.6-.7-.4-1.1,0,0,.6-1.3.6-2.6s.4-.8.8-.8.8.4.8.8c0,1.6-.7,3.2-.7,3.2-.1.3-.4.5-.7.5Z"/>
          <path d="M99.5,127.3c-2.8,0-3.2-1.5-3.7-3.2-.3-1.1-.8-2.5-2.1-4-.7-1-1.5-1.8-2.2-2.5l-.2-.2v-.3c-.6-3.6-.9-7-.9-10.5s.2-4.3.5-6c.5-2.3,1.1-4.2,2-6,.6-1.3,1.5-2.6,3-2.6s1.4.3,2.3.6c1,.4,2.2.9,3.7,1h2.7c1.2-.2,2.2-.3,3.1-.4,1.5-.2,2.5-.3,3.5-.5,1.4-.1,2.8-.4,5.2-.8l1.9-.3c.4,0,.8-.1,1.2-.1,1.1,0,2,.3,2.5,1,1,1.1.7,3,.5,4.6-.6,2.1-.9,3.7-1,4.9.2.4.2.8.2,1.1.2,2.4.6,3.9,1.6,6.7l.2.5-.4.4c-3.8,3.8-7.8,6-13,8.9l-.8.4c-2.4,1.4-2.7,2.6-2.9,3.7-.5,2.1-1.1,3.4-6.6,3.6h-.3ZM92.8,116.6c.7.7,1.5,1.6,2.2,2.5,1.5,1.7,2,3.3,2.3,4.6.5,1.6.6,2,2.2,2h.3c4.7-.2,4.8-1,5.1-2.4.3-1.3.7-3.1,3.7-4.8l.8-.4c4.9-2.7,8.7-4.9,12.3-8.3-.9-2.6-1.3-4.1-1.5-6.7,0-.3,0-.5,0-.7v-.4c0-1.4.2-3.2.9-5.4.2-1.2.4-2.6-.1-3.2,0,0-.3-.4-1.3-.4s-.7,0-1.1.1l-1.7.3c-2.5.5-3.9.7-5.3.8-.9.2-2,.3-3.5.5-.9.1-1.9.3-3.2.4h-2.9c-1.9-.2-3.2-.7-4.3-1.1-.7-.3-1.3-.5-1.7-.5s-.7,0-1.6,1.7c-.9,1.7-1.4,3.4-1.9,5.6-.3,1.6-.5,3.5-.5,5.7,0,3.3.3,6.6.8,9.9Z"/>
        </g>
      </g>
    </g>
  </g>
</svg>