<?xml version="1.0" encoding="UTF-8"?>
<svg xmlns="http://www.w3.org/2000/svg" version="1.1" viewBox="0 0 275 201">
  <defs>
    <style>
      .cls-1 {
        fill-rule: evenodd;
      }

      .cls-1, .cls-2 {
        fill: #fff;
      }
    </style>
  </defs>
  <!-- Generator: Adobe Illustrator 28.6.0, SVG Export Plug-In . SVG Version: 1.2.0 Build 709)  -->
  <g>
    <g id="Layer_1">
      <g>
        <g>
          <rect class="cls-2" x="24.5" y="64.1" width="9.7" height="81.4"/>
          <path d="M35.8,147.1h-12.9V62.5h12.9v84.6ZM26.1,143.9h6.5v-78.1h-6.5v78.1Z"/>
        </g>
        <g>
          <rect class="cls-2" x="240.8" y="64.1" width="9.7" height="81.4"/>
          <path d="M252.1,147.1h-12.9V62.5h12.9v84.6ZM242.4,143.9h6.5v-78.1h-6.5v78.1Z"/>
        </g>
        <g>
          <polygon class="cls-1" points="240.8 83 245.7 58.3 245.7 47.3 29.3 47.3 29.3 58.3 34.2 83 240.8 83"/>
          <path d="M242.2,84.6H32.8l-5.1-26v-12.9s219.5,0,219.5,0v12.6l-5.1,26.3ZM35.5,81.4h204l4.6-23.4v-9.1H30.9v9.4l4.6,23.1Z"/>
        </g>
        <g>
          <path class="cls-1" d="M240.8,83H34.2v55.7c68.8,11.8,137.5,11.6,206.6,0v-55.7Z"/>
          <path d="M137,149.1h0c-34.3,0-69-3-103.1-8.8l-1.3-.2v-58.7h209.9v58.7l-1.3.2c-34.7,5.8-69.7,8.8-104.1,8.8ZM35.8,137.4c33.5,5.7,67.5,8.5,101.2,8.5h0c33.7,0,68.1-2.9,102.2-8.5v-52.7H35.8v52.7Z"/>
        </g>
        <g>
          <g>
            <path class="cls-1" d="M53.4,107.4c-.2,4.5-.2,9-.3,13.6-.3,4.5-1.8,9.2-2.7,13.7-1,3.4-4,6.5-8.4,6.5h.2c.3,1.8,1.9,8.1,3.7,11.1,1.9,3.2-.3,2.6-2.4,0-2.3-2.4-5.5-2.1-8.9-1.6-3.4.6-3.1-1.3-1.6-1.9,1.5-.8,1.9-2.3,4-3.4,2.1-1,4.4-1.8,4.5-4.4-9.5-2.6-10.5-8.7-10.2-12.3.5-7.4,1.8-9.8.3-18.4-1-5.8-1.3-8.1-1.3-13.7.2-4.4-.2-15.7,2.7-18.1,1.5-1.3,6.9-.5,9.7,0-.3-.6-1.3-2.7-3.6-4.5-2.6-2.4-6.5-4.7-5.8-5.2,1-.8,7.4-.2,10,.3s3.4.2,4.4.6c1,.5,3.4,2.4,2.3,2.7-1,.3-2.7,1.9-4.2,3.6-.8,1-1.5,1.8-1.8,2.6,3.4,1.5,6.5,4,7.7,7.6,1.1,3.2.8,11,1.1,14.5.2,2.4.5,4.4.5,6.6h0Z"/>
            <path d="M46.2,155.3c-1.1,0-2.5-1.3-3.4-2.5-1.1-1.1-2.5-1.7-4.5-1.7s-2.4.2-3.6.3c-2.8.5-3.4-.7-3.5-1.2-.2-.9.4-1.8,1.5-2.3.5-.3.9-.7,1.3-1.2.6-.7,1.4-1.5,2.6-2.2l.6-.3c1.9-.8,3.1-1.5,3.4-2.8-9.5-2.9-10.4-9.3-10.1-12.9.1-2.1.4-3.9.5-5.5.5-3.9.8-6.8-.2-12.7-1-5.8-1.3-8.1-1.3-13.9,0-.7,0-1.5,0-2.4.1-7.1.4-14.2,3-16.3,1.1-1,4-1.2,8.7-.4-.5-.9-1.4-1.9-2.5-2.8-1.1-1-2.3-1.9-3.4-2.8-2.1-1.6-2.8-2.1-2.8-2.9v-.4l.4-.4c.3-.3.9-.5,3-.5s5.8.4,7.6.7c1.2.2,1.9.3,2.5.3.8,0,1.4,0,2,.4,0,0,3.1,1.8,3,3.3,0,.5-.4.8-.9,1-.7.2-2.3,1.6-3.8,3.3-.5.6-1,1.2-1.3,1.7,3.6,1.7,6.2,4.5,7.4,7.7.8,2.3.9,6.6,1,10.3,0,1.7,0,3.3.2,4.4,0,.9.1,1.7.2,2.5.1,1.4.3,2.7.3,4.2,0,2.3-.1,4.5-.2,6.8,0,2.3,0,4.5-.2,6.8-.2,3.3-1.1,6.7-1.8,9.9-.3,1.3-.6,2.6-.9,4-.9,3.3-3.7,6.5-8,7,.6,2.5,2,7.5,3.4,10,.8,1.4,1,2.2.7,2.8-.2.4-.6.6-1,.6ZM38.2,149.5c2.5,0,4.4.7,5.8,2.2.5.7,1,1.1,1.4,1.4,0-.1-.2-.3-.3-.5-1.5-2.6-2.8-7.1-3.4-9.7-.8,1.4-2.4,2.2-3.9,2.8l-.5.2c-1,.5-1.6,1.2-2.2,1.8-.5.6-1,1.1-1.8,1.6-.4.2-.6.4-.6.5h0c.1,0,.8.1,1.7,0,1.3-.2,2.6-.4,3.8-.4ZM36.3,78.6c-1.9,0-2.5.3-2.7.5-2.2,1.8-2.3,10.5-2.4,15.1,0,.9,0,1.7,0,2.4,0,5.6.3,7.9,1.3,13.6,1.1,6.2.7,9.3.2,13.2-.2,1.5-.4,3.3-.5,5.4-.4,3.9,1,9.1,9.6,11.4h.5c4,0,6.6-2.9,7.4-5.7.3-1.3.6-2.6.9-3.9.8-3.2,1.6-6.5,1.8-9.6,0-2.2.1-4.5.2-6.7,0-2.3,0-4.5.2-6.8,0-1.4-.1-2.6-.3-4,0-.8-.2-1.7-.2-2.6-.1-1.2-.1-2.8-.2-4.5,0-3.5-.2-7.8-.9-9.8-1.1-3-3.7-5.6-7.2-7.1h-1.2c-2.6-.6-4.7-.8-6.3-.8ZM34.6,69.3c.4.4,1.1.8,1.6,1.3,1.1.9,2.4,1.8,3.5,2.8,2.2,1.8,3.3,3.9,3.7,4.6h0c.4-.8,1-1.6,1.8-2.5.6-.7,2.6-2.8,4.1-3.6-.4-.5-1.3-1.2-1.9-1.5-.4-.2-.7-.2-1.4-.3-.6,0-1.5,0-2.8-.3-1.8-.3-5.1-.7-7.3-.7s-1,0-1.3,0Z"/>
          </g>
          <path d="M42.1,141.9c-.3,0-.5-.1-.7-.4-.5-.8-1-1.6-1.5-2.3-2.4-3.6-4.5-6.7-5.2-13.7,0-.4.3-.8.7-.9.5,0,.8.3.9.7.7,6.6,2.5,9.4,4.9,12.9.5.7,1,1.5,1.6,2.4.2.4.1.9-.3,1.1-.1,0-.3.1-.4.1Z"/>
          <path d="M41.1,140c-.4,0-.7-.2-.8-.6-2.3-8.5-2.9-13.5-1.8-26.1,0-.4.4-.7.8-.7s0,0,0,0c.4,0,.8.4.7.9-1.1,12.4-.5,17.3,1.8,25.5.1.4-.1.9-.6,1,0,0-.1,0-.2,0Z"/>
          <path d="M41.9,141.9s0,0,0,0c-.4,0-.8-.4-.7-.9.2-1.8.6-3,.9-4.1.6-2,1-3.4,0-7.4-.1-.4.1-.9.6-1,.4-.1.9.1,1,.6,1.2,4.4.7,6.2,0,8.3-.3,1.1-.7,2.2-.8,3.8,0,.4-.4.7-.8.7Z"/>
          <path d="M35.6,90.4s0,0-.1,0c-.4,0-.7-.5-.7-.9,1.4-9.3,6.5-10.9,9-11.6.4-.1.9.1,1,.5.1.4-.1.9-.5,1-2.3.7-6.6,2.1-7.8,10.3,0,.4-.4.7-.8.7Z"/>
          <path d="M41.1,87.9c-.4,0-.8-.3-.8-.8-.1-1.8.5-3,1.2-4.4.6-1.1,1.2-2.3,1.7-4.2.1-.4.6-.7,1-.6.4.1.7.6.6,1-.6,2.1-1.3,3.4-1.8,4.5-.7,1.3-1.1,2.2-1,3.6,0,.4-.3.8-.8.9h0Z"/>
          <path d="M48.4,112.2c-.4,0-.8-.3-.8-.8-.1-3.1-.2-5.9-.2-8.5-.3-12.5-.5-18.7-4-23.9-.3-.4-.2-.9.2-1.1.4-.2.9-.2,1.1.2,3.8,5.6,3.9,12,4.3,24.8,0,2.5.1,5.3.2,8.4,0,.4-.3.8-.8.8h0Z"/>
        </g>
        <g>
          <g>
            <path class="cls-1" d="M245,115.1v-13.7c-.3-4.8-1.5-10-2.4-14.7-.8-3.9-6.3-8.7-10.5-10,.6-2.1,0-3.6,2.6-7.1,1.9-2.4,2.7-2.6.2-3.7-2.4-1.1-4.7-.5-5.2.2-1.8,2.7-1.8,3.6-1.8,4.4.2,1.9,2.6,3.6,2.7,6.3-3.7,1.3-7.6,6.1-7.4,9.7.5,7.7,1.8,10.7.2,18.9-1,5.7-1.5,7.6-1.5,13.4s-.5,15.7,2.3,19.1c1.5,1.8,6.1,2.7,8.7,3.2-.6,1.3-2.4,4.5-3.2,5.5-.8,1-1.8,2.3-.8,3.4,1,1.1,3.1.5,5.7.8,2.6.2,3.4.8,4.4.6,1-.2,3.4-1.3,2.3-1.9-1-.6-3.1-3.4-4.2-5-1.1-1.6-3.2-2.7-3.4-3.6,3.2-.5,8.2-1.6,9.5-4.7,1.3-3.1,1.1-10.8,1.5-14.5.3-2.3.5-4,.5-6.5h0Z"/>
            <path d="M238.6,152.1c-.5,0-.9-.1-1.4-.2-.6-.2-1.5-.4-2.7-.4-.7,0-1.3-.1-1.9-.1h-1.1c-1.2,0-2.4,0-3.2-1-1.5-1.7.1-3.6.8-4.4.6-.7,1.8-2.9,2.6-4.4-3.2-.7-6.8-1.6-8.1-3.3-2.6-3.2-2.5-12.3-2.5-17.7v-1.8c0-5.2.4-7.3,1.1-11.6l.3-2c1.1-5.8.8-8.9.3-13.1-.2-1.6-.4-3.4-.5-5.6-.2-3.7,3.4-8.5,7.4-10.3-.2-1-.8-1.9-1.4-2.8-.6-1-1.2-1.9-1.3-2.9,0-1.2.1-2.1,1.9-4.9.9-1.2,3.9-1.5,6.2-.5,1.1.5,1.9.9,2.1,1.7.2.8-.3,1.4-1.1,2.3-.2.3-.5.6-.8,1-1.7,2.3-1.9,3.6-2.1,5,0,.4-.1.7-.2,1.1,4.2,1.6,9.5,6.3,10.3,10.4l.2,1.1c.9,4.3,1.9,9.2,2.2,13.7v13.8c0,2.6-.2,4.4-.5,6.6,0,1-.1,2.3-.2,3.8-.2,4-.3,8.6-1.3,10.9-1,2.4-3.9,4-8.8,4.9.1.1.2.2.4.3.7.6,1.6,1.3,2.2,2.2,1.4,2,3.2,4.3,4,4.8.5.3.7.8.6,1.3-.2,1.3-2.6,2-3.2,2.1-.2,0-.3,0-.4,0ZM232.6,149.8c.6,0,1.3,0,2.1.1,1.4,0,2.3.3,3,.5.5.1.8.2,1.2.2.5,0,1.3-.4,1.7-.7-1.5-1.3-4-4.8-4.1-5-.5-.7-1.2-1.4-1.9-1.9-.4-.4-.8-.7-1.1-1-.8,1.5-2.2,4.1-3,5-1,1.2-1.2,1.8-.8,2.3.3.4,1,.4,2,.4h1.1ZM231.3,77.3l-.4.2c-3.5,1.2-7,5.8-6.9,8.9.1,2.1.3,3.9.5,5.5.5,4.2.8,7.5-.4,13.6l-.3,1.9c-.7,4.2-1.1,6.3-1.1,11.3v1.8c0,4.9-.2,13.9,2.1,16.7,1.3,1.6,6,2.5,7.9,2.9h.7c6.3-1,8.3-2.9,8.9-4.3.9-2.1,1-6.7,1.2-10.3,0-1.5.1-2.9.2-3.9.3-2.1.5-3.9.5-6.4v-13.7c-.3-4.4-1.3-9-2.2-13.4l-.2-1.1c-.8-3.7-6.1-8.2-9.9-9.4l-.5-.2ZM232.1,66.1c-1.1,0-1.7.3-1.8.5-1.6,2.5-1.6,3.2-1.6,3.9,0,.6.5,1.3,1.1,2.1.7,1,1.4,2.2,1.6,3.7.1-.4.2-.9.2-1.3.2-1.4.4-3.1,2.4-5.7.3-.4.6-.8.9-1,.3-.3.6-.7.7-.9-.1-.1-.4-.3-1.1-.6-.8-.4-1.6-.6-2.4-.6Z"/>
          </g>
          <path d="M227.3,91.1c-.4,0-.7-.3-.8-.7-1.1-6.9.5-9.4,2.4-12.3.4-.6.7-1.1,1.1-1.8.2-.4.7-.5,1.1-.3.4.2.5.7.3,1.1-.4.7-.8,1.2-1.1,1.8-1.8,2.7-3.2,4.9-2.2,11.2,0,.4-.2.9-.7.9,0,0,0,0-.1,0Z"/>
          <path d="M238.6,134.7h0c-.5,0-.8-.4-.8-.8.3-13.8,1.5-18.9,4.7-27.1.2-.4.6-.6,1.1-.5.4.2.6.6.5,1.1-3.2,8-4.3,12.9-4.6,26.5,0,.4-.4.8-.8.8Z"/>
          <path d="M232.6,104.8s0,0-.1,0c-.4,0-.8-.5-.7-.9,1.1-8.4.7-12.4.2-17.1-.3-2.7-.6-5.8-.7-10.1,0-.4.4-.8.8-.8.4,0,.8.3.8.8,0,4.2.4,7.3.7,10,.5,4.8.9,8.9-.2,17.4,0,.4-.4.7-.8.7Z"/>
          <path d="M233.6,141.6c-.2,0-.3,0-.4-.1-2.8-1.8-7.4-4.8-8.6-14.5,0-.4.3-.8.7-.9.4,0,.8.3.9.7,1.1,8.9,5.3,11.7,7.9,13.3.4.2.5.7.2,1.1-.2.2-.4.4-.7.4Z"/>
          <path d="M233.6,141.6c-.4,0-.7-.2-.8-.6-.6-2.1-1.2-3.6-1.7-5-.7-1.7-1.3-3.1-1.2-4.8,0-.4.5-.8.9-.8.4,0,.8.4.8.9,0,1.4.4,2.4,1.1,4.1.6,1.3,1.2,2.9,1.8,5.2.1.4-.2.9-.6,1,0,0-.1,0-.2,0Z"/>
          <path d="M225.3,114.7c-.4,0-.8-.3-.8-.8,0-1.6.9-3.7,2-6.3,1.1-2.5,2.4-5.4,2.4-7.5s.4-.8.8-.8.8.4.8.8c0,2.4-1.3,5.3-2.5,8.1-.9,2.1-1.9,4.4-1.8,5.5,0,.4-.3.8-.8.9h0Z"/>
        </g>
      </g>
    </g>
  </g>
</svg>