<?xml version="1.0" encoding="UTF-8"?>
<svg xmlns="http://www.w3.org/2000/svg" version="1.1" viewBox="0 0 197 185">
  <defs>
    <style>
      .cls-1 {
        stroke: #000;
        stroke-linecap: square;
        stroke-miterlimit: 10;
        stroke-width: 1.1px;
      }

      .cls-1, .cls-2 {
        fill: #fff;
      }
    </style>
  </defs>
  <!-- Generator: Adobe Illustrator 28.6.0, SVG Export Plug-In . SVG Version: 1.2.0 Build 709)  -->
  <g>
    <g id="Layer_1">
      <g>
        <path class="cls-1" d="M12.5,4.3h45.3v36.5c0,4.2-3.4,7.7-7.7,7.7h-30c-4.2,0-7.7-3.4-7.7-7.7V4.3h0Z"/>
        <path class="cls-1" d="M57.9,4.3h45.3v36.5c0,4.2-3.4,7.7-7.7,7.7h-30c-4.2,0-7.7-3.4-7.7-7.7V4.3h0Z"/>
        <path class="cls-1" d="M103.3,4.3h45.3v36.5c0,4.2-3.4,7.7-7.7,7.7h-30c-4.2,0-7.7-3.4-7.7-7.7V4.3h0Z"/>
        <path class="cls-1" d="M12.5,4.3h45.3v4.7c0,4.2-3.4,7.7-7.7,7.7h-30c-4.2,0-7.7-3.4-7.7-7.7v-4.7h0Z"/>
        <path class="cls-1" d="M57.9,4.3h45.3v4.7c0,4.2-3.4,7.7-7.7,7.7h-30c-4.2,0-7.7-3.4-7.7-7.7v-4.7h0Z"/>
        <path class="cls-1" d="M103.3,4.3h45.3v4.7c0,4.2-3.4,7.7-7.7,7.7h-30c-4.2,0-7.7-3.4-7.7-7.7v-4.7h0Z"/>
        <polygon class="cls-1" points="192.7 .5 12.5 .5 12.5 4.3 192.7 4.3 192.7 184.4 196.4 184.4 196.4 .5 192.7 .5"/>
        <path class="cls-1" d="M148.6,4.2h44.1v36.6c0,4.2-3.4,7.6-7.6,7.6h-36.6V4.2h0Z" transform="translate(196.9 -144.4) rotate(90)"/>
        <path class="cls-1" d="M148,94.3h45.3v36.5c0,4.2-3.4,7.7-7.7,7.7h-30c-4.2,0-7.7-3.4-7.7-7.7v-36.5h0Z" transform="translate(287.1 -54.2) rotate(90)"/>
        <path class="cls-1" d="M148,49h45.3v36.5c0,4.2-3.4,7.7-7.7,7.7h-30c-4.2,0-7.7-3.4-7.7-7.7v-36.5h0Z" transform="translate(241.7 -99.6) rotate(90)"/>
        <path class="cls-1" d="M148,139.7h45.3v36.5c0,4.2-3.4,7.7-7.7,7.7h-30c-4.2,0-7.7-3.4-7.7-7.7v-36.5h0Z" transform="translate(332.4 -8.9) rotate(90)"/>
        <path class="cls-1" d="M163.9,64.9h45.3v4.7c0,4.2-3.4,7.7-7.7,7.7h-30c-4.2,0-7.7-3.4-7.7-7.7v-4.7h0Z" transform="translate(257.6 -115.5) rotate(90)"/>
        <path class="cls-1" d="M148.6,4.3v4.7c0,4.2,3.4,7.7,7.7,7.7h24.1v24.1c0,4.2,3.4,7.7,7.7,7.7h4.7V4.3h-44.1Z"/>
        <path class="cls-1" d="M163.9,110.2h45.3v4.7c0,4.2-3.4,7.7-7.7,7.7h-30c-4.2,0-7.7-3.4-7.7-7.7v-4.7h0Z" transform="translate(303 -70.1) rotate(90)"/>
        <path class="cls-1" d="M163.9,155.6h45.3v4.7c0,4.2-3.4,7.7-7.7,7.7h-30c-4.2,0-7.7-3.4-7.7-7.7v-4.7h0Z" transform="translate(348.3 -24.8) rotate(90)"/>
      </g>
      <g>
        <path class="cls-1" d="M94.1,137.1h45.3v36.5c0,4.2-3.4,7.7-7.7,7.7h-30c-4.2,0-7.7-3.4-7.7-7.7v-36.5h0Z" transform="translate(233.5 318.3) rotate(180)"/>
        <path class="cls-1" d="M48.7,137.1h45.3v36.5c0,4.2-3.4,7.7-7.7,7.7h-30c-4.2,0-7.7-3.4-7.7-7.7v-36.5h0Z" transform="translate(142.8 318.3) rotate(180)"/>
        <path class="cls-1" d="M94.1,168.9h45.3v4.7c0,4.2-3.4,7.7-7.7,7.7h-30c-4.2,0-7.7-3.4-7.7-7.7v-4.7h0Z" transform="translate(233.5 350.1) rotate(180)"/>
        <path class="cls-1" d="M48.7,168.9h45.3v4.7c0,4.2-3.4,7.7-7.7,7.7h-30c-4.2,0-7.7-3.4-7.7-7.7v-4.7h0Z" transform="translate(142.8 350.1) rotate(180)"/>
        <polygon class="cls-1" points="4.6 184.9 139.4 184.9 139.4 181.2 4.6 181.2 4.6 91.8 .9 91.8 .9 184.9 4.6 184.9"/>
        <path class="cls-1" d="M4.6,137.1h44.1v36.6c0,4.2-3.4,7.6-7.6,7.6H4.6v-44.1h0Z" transform="translate(-132.5 185.9) rotate(-90)"/>
        <path class="cls-1" d="M4,92.4h45.3v36.5c0,4.2-3.4,7.7-7.7,7.7H11.7c-4.2,0-7.7-3.4-7.7-7.7v-36.5h0Z" transform="translate(-87.8 141.1) rotate(-90)"/>
        <path class="cls-1" d="M-11.9,108.2h45.3v4.7c0,4.2-3.4,7.7-7.7,7.7H-4.2c-4.2,0-7.7-3.4-7.7-7.7v-4.7h0Z" transform="translate(-103.7 125.2) rotate(-90)"/>
        <path class="cls-1" d="M48.7,181.2v-4.7c0-4.2-3.4-7.7-7.7-7.7h-24.1v-24.1c0-4.2-3.4-7.7-7.7-7.7h-4.7v44.1h44.1Z"/>
      </g>
      <g>
        <g>
          <polyline class="cls-2" points="130.1 106.6 130.1 123.1 70.5 123.1 70.5 63.5 130.1 63.5 130.1 106.6"/>
          <path d="M130.6,123.7h-60.7v-60.7h60.7v60.7ZM71,122.6h58.5v-58.5h-58.5v58.5Z"/>
        </g>
        <path d="M94.7,94.8c-.2,0-.4,0-.6,0,0,0-.1-.1-.1-.2.4-3,2.5-5.5,4.5-7.6,2.5-2.5,5.2-4.8,8-6.9.4-.3.7-.5,1.1-.8,1-.7,2-1.4,3-2.2,2.8-2.3,5-5.3,7.2-8.4,1-1.5,2.2-3.2,2.4-4.9v-.2s.4,0,.4,0v.2c-.3,1.9-1.4,3.6-2.5,5.1-2.2,3.1-4.5,6.1-7.3,8.5-1,.8-2,1.5-3,2.2-.4.3-.7.5-1.1.8-2.8,2-5.5,4.4-8,6.9-1.9,2-3.9,4.3-4.3,7.2,1,.2,2-.6,2.5-1.4.2-.4.4-.8.6-1.2.3-.6.6-1.3,1.1-1.8.6-.7,1.4-1.1,2.1-1.5l12.9-7.1c1.1-.6,2.2-1.2,3.5-1.7,2.5-.9,5.2-.8,7.7-.8,1.6,0,3.4,0,5-.2h.2s0,.3,0,.3h-.2c-1.7.2-3.4.2-5,.2-2.6,0-5.2,0-7.6.8-1.2.4-2.3,1-3.4,1.6l-12.9,7.1c-.7.4-1.5.8-2,1.5-.5.5-.7,1.1-1.1,1.8-.2.4-.4.8-.6,1.2-.6.9-1.5,1.6-2.5,1.6Z"/>
        <path d="M84.6,106.8c-1.1,0-2.4-.4-2.9-1.4-.4-.7-.3-1.5-.2-2.3.9-6.9,3.8-13.7,8.3-19,.3-.4.6-.7,1.1-.7.3,0,.5.1.7.2.2.1.4.2.6.2.2,0,.3-.2.5-.3l15.1-13.5c1.8-1.6,3.7-3.3,5.1-5.4.2-.3.4-.6.6-.9v-.2c0,0,.4.2.4.2v.2c-.3.3-.5.6-.7.9-1.4,2.1-3.3,3.8-5.2,5.5l-15.1,13.5c-.2.2-.4.4-.7.4-.3,0-.6,0-.8-.2-.2,0-.4-.2-.6-.2-.3,0-.6.3-.8.6-4.4,5.3-7.3,12-8.2,18.8,0,.7-.2,1.4.2,2.1.5,1,1.9,1.3,2.9,1.2,2.4-.2,4.5-1.6,6.5-2.9,4.4-2.8,8.7-5.5,13.6-6.3,2.1-.4,4.2-.4,6.2-.4h.2c5.9,0,12.2-.3,18.2-1.4h.2s0,.3,0,.3h-.2c-6.1,1.1-12.4,1.3-18.3,1.4h-.2c-2,0-4.2,0-6.2.4-4.8.8-9.1,3.4-13.4,6.3-2.1,1.3-4.2,2.7-6.7,2.9-.1,0-.3,0-.4,0Z"/>
        <path d="M70.7,105.9l-.3-.2v-.2c.3-.4.5-.9.8-1.3,1.2-2.6,1.9-5.4,2.6-8.1.2-.7.4-1.5.5-2.2.8-3.3,2-7,4.6-9.8,1.2-1.3,2.6-2.4,4.1-3.5.5-.4,1-.8,1.5-1.2,2.2-1.8,4.3-3.8,6.3-5.8l4.8-4.7c1.6-1.6,3.3-3.3,3.9-5.4v-.2c0,0,.4.1.4.1v.2c-.8,2.1-2.4,3.9-4.1,5.5l-4.8,4.7c-2,2-4,4-6.3,5.8-.5.4-1,.8-1.5,1.2-1.4,1-2.8,2.1-4,3.4-2.5,2.8-3.7,6.4-4.5,9.7-.2.7-.4,1.5-.5,2.2-.7,2.8-1.3,5.6-2.6,8.2-.2.5-.5.9-.7,1.3v.2Z"/>
        <path d="M80,120.1c-.3,0-.6,0-.9,0-1.7-.1-3.3-.6-4.8-1.1-1.3-.4-2.6-.8-4-1h-.2s0-.4,0-.4h.2c1.4.2,2.7.6,4,1,1.5.5,3.1,1,4.7,1.1,1.9.1,3.8-.2,5.6-.6,4.5-.9,9.5-1.8,13.7-4.4.9-.6,3.4-2.4,5.7-4,1.7-1.2,3.4-2.4,4-2.8,7.5-5,14.7-3.6,19.1-2.8,1.3.2,2.3.4,2.9.4h.2s0,.3,0,.3h-.2c-.6.1-1.6,0-3-.3-4.3-.8-11.4-2.2-18.8,2.7-.7.4-2.3,1.6-4,2.8-2.3,1.6-4.8,3.4-5.7,4-4.2,2.6-9.3,3.6-13.8,4.5-1.6.3-3.2.6-4.8.6Z"/>
        <path d="M91.3,123.3v-.3c0,0,0,0,0,0,.3,0,.6-.2.9-.3,3-.9,6-2.3,8.9-3.6,3.6-1.7,7.3-3.4,11.2-4.3,3.1-.7,6.4-.8,9.5-1,2.6-.1,5.3-.2,7.9-.7h.2s0,.3,0,.3h-.2c-2.6.5-5.4.6-8,.7-3.1.1-6.4.3-9.5.9-3.9.9-7.6,2.6-11.2,4.2-2.9,1.3-5.8,2.7-8.9,3.6-.3,0-.6.2-.9.3h-.2Z"/>
        <path d="M70.7,85.8l-.3-.2v-.2c.4-.7.7-1.2,1-1.6,1-1.3,2.5-2.1,3.9-2.9l.5-.3c5.4-3,10.1-7.2,13.7-12.2.9-1.2,2-3,2.2-4.9v-.2s.4,0,.4,0v.2c-.2,2-1.4,3.8-2.3,5.1-3.6,5-8.4,9.3-13.9,12.3l-.5.3c-1.4.8-2.8,1.5-3.8,2.8-.3.4-.6.9-.9,1.6v.2Z"/>
        <path d="M70.5,70.3v-.3c-.1,0,0,0,0,0,4-1.7,7.2-3.9,9.7-6.6h.1c0-.1.3.1.3.1h-.1c-2.5,2.8-5.8,5.1-9.8,6.8h-.2Z"/>
      </g>
    </g>
  </g>
</svg>