<?xml version="1.0" encoding="UTF-8"?>
<svg xmlns="http://www.w3.org/2000/svg" version="1.1" viewBox="0 0 605.5 341">
  <defs>
    <style>
      .cls-1 {
        fill-rule: evenodd;
      }

      .cls-1, .cls-2 {
        fill: #fff;
      }

      .cls-3 {
        fill: #141515;
      }
    </style>
  </defs>
  <!-- Generator: Adobe Illustrator 28.6.0, SVG Export Plug-In . SVG Version: 1.2.0 Build 709)  -->
  <g>
    <g id="Layer_1">
      <g>
        <g>
          <g>
            <path class="cls-1" d="M374.9,299.8h-126.6c0-6.6-5.3-11.9-11.9-11.9s-1.6,0-2.3.2c-4.2-24.7-4.4-52,0-77.2.6.2,1.5.2,2.3.2,6.6,0,11.9-5.3,11.9-11.9h126.6c0,6.6,5.3,11.9,11.9,11.9s1.6,0,2.4-.2c4.2,25.2,4,52.5,0,77.2-.8-.2-1.6-.2-2.4-.2-6.6,0-11.9,5.3-11.9,11.9h0Z"/>
            <path d="M376.5,301.4h-129.8v-1.6c0-5.7-4.6-10.3-10.3-10.3s-1.4,0-1.9.1l-1.7.4-.3-1.7c-4.3-25.3-4.3-52.9,0-77.7l.3-1.7,1.7.4c.5.1,1.2.1,1.9.1,5.7,0,10.3-4.6,10.3-10.3v-1.6h129.8v1.6c0,5.7,4.6,10.3,10.3,10.3.7,0,1.4,0,2.1-.1l1.6-.3.3,1.6c4.1,24.8,4.1,52.4,0,77.7l-.3,1.7-1.6-.3c-.7-.1-1.4-.1-2.1-.1-5.7,0-10.3,4.6-10.3,10.3v1.6ZM249.8,298.1h123.5c.8-6.7,6.5-11.9,13.5-11.9s.7,0,1.1,0c3.8-24,3.8-50.1,0-73.6-.4,0-.7,0-1.1,0-6.9,0-12.7-5.2-13.5-11.9h-123.5c-.8,6.7-6.5,11.9-13.5,11.9s-.6,0-.9,0c-3.9,23.6-3.9,49.6,0,73.6.3,0,.6,0,.9,0,6.9,0,12.7,5.2,13.5,11.9Z"/>
          </g>
          <g>
            <g>
              <path class="cls-1" d="M318.5,248.7c3.1-.3,8.2-1.1,10-5.2,3.9-8.7,6.3-10.8-.3-10-6.6.6-10,.3-12.4,3.9-2.3,3.4-3.4,8.6-3.9,11-.5,2.3,4.2,1,6.6.3h0Z"/>
              <path d="M313.5,250.5h0c-1,0-1.7-.2-2.1-.7-.2-.3-.5-.8-.3-1.5.4-1.9,1.5-7.6,4-11.3,2.3-3.3,5.3-3.6,10.2-4,.9,0,1.8-.1,2.8-.2.9-.1,1.6-.2,2.2-.2.9,0,2,.1,2.5,1,.7,1.2,0,2.9-1.7,6.2-.6,1.2-1.2,2.5-1.9,4.1-2.1,4.7-8.3,5.4-10.7,5.6-1.4.4-3.6,1-5.1,1ZM330.3,234.2c-.5,0-1.2,0-2,.2-1,.1-2,.2-2.8.2-4.8.4-7.2.6-9,3.3-2.3,3.4-3.4,8.9-3.8,10.7,0,.2.1.3.8.3,1.3,0,3.3-.5,4.7-.9h.3c3.3-.4,7.8-1.3,9.3-4.7.7-1.6,1.4-3,2-4.2.9-2,2-4.2,1.8-4.6,0,0-.2-.2-1.2-.2Z"/>
            </g>
            <g>
              <path class="cls-1" d="M307.7,255.7c-1.9,3.2-5,8.7-3.4,13.4,3.7,10.3,3.4,14.4,7.7,7.3,4.4-6.9,7.1-9.8,6.1-14.9-.8-4.8-3.9-9.7-5.3-11.9-1.3-2.1-3.7,3.4-5.2,6.1h0Z"/>
              <path d="M308.9,280.7h0c-1.6,0-2.2-2-3.5-6.1-.5-1.5-1.1-3.3-1.8-5.3-1.8-5.3,1.9-11.5,3.5-14.1.2-.3.4-.7.6-1.2,1.8-3.5,3.1-5.8,4.6-5.8s.9.1,1.4.9c1.4,2.1,4.6,7.1,5.4,12.2.9,4.5-1,7.4-4.2,12.3-.6,1-1.3,2-2,3.2-1.8,3-2.8,3.9-3.9,3.9ZM312.2,250c-.7,0-2.4,3.4-3.1,4.8-.2.5-.4.9-.6,1.3-1.5,2.5-4.9,8.2-3.3,12.8.7,2,1.3,3.8,1.8,5.3.7,2.3,1.5,4.7,2,5,.2,0,.8-.5,2.5-3.2.7-1.2,1.4-2.2,2.1-3.2,3-4.7,4.7-7.2,4-11.1-.8-4.8-3.9-9.6-5.2-11.7Z"/>
            </g>
            <g>
              <path class="cls-1" d="M315.6,256.2c1.9,2.3,5.5,6.3,9.8,5.7,9.7-1.5,12.8-.5,8.6-5.8-4.4-5.3-5.8-8.2-10.2-8.4-4.2-.2-9.2,1.8-11.5,2.6-2.3.8,1.5,4,3.2,6h0Z"/>
              <path d="M324.5,262.7h0c-4.4,0-7.9-4.1-9.5-6-.3-.3-.6-.6-.9-1-2-2.1-3.5-3.7-3.2-5.1,0-.4.4-.9,1.2-1.2l.5-.2c2.5-.9,7.1-2.6,11.3-2.4,4,.2,5.8,2.5,8.8,6.3.6.7,1.2,1.5,1.9,2.4,1.6,2,2.4,3.3,1.9,4.5-.6,1.4-2.5,1.6-6.3,2-1.3.2-2.9.3-4.7.6-.4,0-.7,0-1.1,0ZM323.3,248.4c-3.6,0-7.9,1.5-10.2,2.4l-.5.2c-.1,0-.2,0-.2,0-.1.6,1.9,2.7,2.8,3.5.4.4.7.7,1,1,1.5,1.8,4.7,5.5,8.3,5.5s.5,0,.8,0c1.8-.3,3.4-.5,4.7-.6,2.3-.3,4.8-.6,5-1,0-.1,0-.7-1.7-2.8-.7-.9-1.4-1.7-1.9-2.4-2.9-3.7-4.4-5.5-7.6-5.7h-.5Z"/>
            </g>
            <g>
              <path class="cls-1" d="M308.3,244.9c-1.6-2.6-4.5-7.1-9.5-7.4-11.1-.6-14.4-2.3-11,3.7,3.6,6,4.5,9,9.2,10.2,4.8,1,10.8.2,13.6-.2,2.7-.3-.6-4.2-2.3-6.3h0Z"/>
              <path d="M302.4,252.6h0c-2.1,0-3.9-.2-5.5-.5-4.3-1-5.8-3.6-8.2-7.9-.5-.8-1-1.7-1.5-2.7-1.2-2-1.8-3.5-1.2-4.6.6-.9,1.8-1.1,3-1.1s2.5.1,4.4.3c1.6.1,3.4.3,5.5.4,5.5.4,8.7,5.4,10.2,7.8l.5.6c1.9,2.5,3.4,4.5,2.8,5.9-.2.4-.6.9-1.6,1.1h-.5c-1.9.3-4.8.6-7.8.6ZM289,237.6c-1.5,0-1.6.3-1.6.3,0,.1-.2.6,1.2,2.9.6,1,1.1,1.9,1.5,2.7,2.4,4.2,3.6,6.2,7.1,7.1,1.4.3,3.2.4,5.1.4h0c3,0,5.8-.3,7.6-.6h.5c.3,0,.3-.2.3-.2.2-.6-1.8-3.2-2.6-4.2l-.5-.7c-1.5-2.4-4.3-6.8-8.9-7.1-2.1-.1-4-.3-5.5-.4-1.8-.2-3.2-.3-4.2-.3Z"/>
            </g>
            <g>
              <path class="cls-1" d="M304.6,249.9c-3.2,0-8.9.3-11.3,4.4-5.2,9-8.2,11-1,11s11,.8,13.9-2.7c2.9-3.6,4.8-8.9,5.5-11.3.8-2.6-4.4-1.6-7.1-1.3h0Z"/>
              <path d="M298.3,266.1h0c-.8,0-1.6,0-2.5,0-1,0-2.2,0-3.4,0-2.6,0-4.3-.2-4.9-1.3-.7-1.3.3-2.9,2.3-6.2.8-1.3,1.8-2.8,2.8-4.7,2.9-4.8,9.7-4.8,12-4.8h.8c1.2-.3,2.6-.4,3.8-.4s2.6.3,3.1,1c.2.3.5.9.2,1.8-.7,2.6-2.6,7.9-5.6,11.6-2.1,2.6-4.7,3.1-8.6,3.1ZM309.2,250.2c-1.1,0-2.4.2-3.6.3h-1c-2.1.1-8.3.1-10.7,4.1-1,1.8-2,3.4-2.8,4.7-1.3,2-2.6,4.1-2.3,4.6,0,.2.6.5,3.5.5s2.4,0,3.5,0c5.1,0,7.7.1,9.8-2.5,2.8-3.4,4.7-8.7,5.3-11,0-.2,0-.3,0-.4,0,0-.3-.3-1.8-.3Z"/>
            </g>
            <g>
              <path class="cls-1" d="M314.2,244.5c1.1-2.3,2.7-6.5.6-9.5-4.8-6.9-5.2-9.7-7.6-4.4-2.4,5.3-4.2,7.6-2.7,10.8,1.6,3.4,5,6.5,6.5,7.9,1.5,1.3,2.6-2.7,3.2-4.8h0Z"/>
              <path d="M311.5,250.4h0c-.4,0-.8-.2-1.1-.5l-.6-.6c-1.7-1.7-4.5-4.4-6-7.5-1.3-3-.3-5.2,1.5-8.9.4-.8.8-1.7,1.3-2.6,1-2.1,1.7-3.3,2.8-3.3s2.1,1.3,3.7,3.9c.7,1,1.4,2.2,2.4,3.6,2.2,3.2.9,7.4-.6,10.3v.2c-1,3-1.8,5.3-3.4,5.3ZM309.3,228.7c0,0-.5.4-1.4,2.3-.5,1-.9,1.9-1.3,2.7-1.7,3.5-2.5,5.2-1.5,7.5,1.4,2.8,4.1,5.5,5.7,7.1l.6.6c.6-.4,1.5-3.2,1.8-4.2v-.3c1.4-2.7,2.6-6.3.9-8.8-1-1.4-1.8-2.6-2.4-3.6-1-1.5-2-3.1-2.4-3.2Z"/>
            </g>
            <g>
              <path class="cls-1" d="M330.5,270.2c.3,1.3.8,3.1,2.3,3.7,1.3.8,3.1,1.9,3.1,1.9-.3-1.6,0-2.4.3-3.2.5-1,.8-1.6,2.1-2.3-2.3-.8-3.6-1.1-4.7-1.1s-2.1.3-3.1,1h0Z"/>
              <path d="M335.8,276.7c-.2,0-.3,0-.4-.1,0,0-1.8-1.1-3.1-1.9-1.8-.8-2.3-2.9-2.6-4.2,0-.3,0-.7.3-.9,1.1-.7,2.3-1.1,3.5-1.1s2.5.3,5,1.2c.3.1.5.4.5.7,0,.3-.2.6-.4.8-1,.5-1.3,1-1.7,1.9-.3.7-.5,1.3-.3,2.7,0,.3,0,.6-.3.8-.1,0-.3.1-.5.1ZM331.4,270.6c.3,1.1.8,2.2,1.7,2.6.6.4,1.2.8,1.8,1.1,0-.8.3-1.4.5-2,.3-.6.6-1.2,1.1-1.7-1.3-.4-2.2-.6-2.9-.6s-1.5.2-2.1.5Z"/>
            </g>
            <g>
              <path class="cls-1" d="M283,245c-.2-1.3-.6-3.1-2.1-3.9-1.3-.8-3.1-1.9-3.1-1.9.3,1.6,0,2.4-.3,3.2-.5,1-1,1.6-2.3,2.1,2.3,1,3.6,1.3,4.7,1.3s2.1-.2,3.1-.8h0Z"/>
              <path d="M279.9,246.6c-1.3,0-2.7-.4-5-1.4-.3-.1-.5-.4-.5-.8,0-.3.2-.6.5-.7,1-.4,1.4-.8,1.8-1.7.3-.7.5-1.3.3-2.7,0-.3,0-.6.3-.8.3-.2.6-.2.9,0,0,0,1.8,1.1,3.1,1.9,1.3.7,2.2,2.3,2.5,4.5,0,.3-.1.6-.4.8-.9.6-2.1.9-3.5.9ZM277.1,244.4c2.5.9,3.9.7,5,.2-.2-1-.6-2.2-1.6-2.7-.6-.3-1.2-.7-1.7-1.1,0,.8-.3,1.4-.5,2-.3.7-.7,1.2-1.2,1.7Z"/>
            </g>
            <g>
              <path class="cls-1" d="M319.2,243.9c1.3.5,3.1.8,4.4,0,1.3-1,3.1-1.9,3.1-1.9-1.6-.5-2.1-1.1-2.6-1.8-.6-.8-1.1-1.6-1-2.9-1.9,1.5-2.7,2.6-3.2,3.6-.5.8-.8,1.9-.6,3.1h0Z"/>
              <path d="M321.6,245.2c-1.1,0-2.1-.3-2.7-.5-.3-.1-.5-.4-.5-.6-.2-1.2.1-2.5.8-3.6.4-.9,1.2-2.1,3.4-3.8.3-.2.6-.2.9,0,.3.2.4.5.4.8-.1,1,.2,1.5.8,2.3.5.6.8,1.1,2.2,1.5.3,0,.5.4.6.7,0,.3-.1.6-.4.8,0,0-1.7,1-3,1.9-.7.4-1.5.7-2.4.7ZM319.9,243.3c1,.3,2.4.4,3.2,0,.5-.4,1.2-.8,1.7-1.1-.7-.4-1.1-.9-1.4-1.4-.4-.5-.8-1.1-1-1.8-1.1,1-1.5,1.7-1.8,2.3-.4.7-.6,1.4-.6,2.1Z"/>
            </g>
            <g>
              <path class="cls-1" d="M300.9,260c-1.6-.3-3.7-.5-5,.8s-3.2,2.7-3.2,2.7c1.9.2,2.6,1,3.4,1.5.8,1,1.5,1.6,1.6,3.2,1.8-2.1,2.6-3.4,2.9-4.5.5-1.1.6-2.4.3-3.7h0Z"/>
              <path d="M297.7,269.1c0,0-.2,0-.2,0-.3-.1-.5-.4-.6-.7-.1-1.2-.5-1.7-1.2-2.6h-.1c-.2-.2-.3-.3-.5-.4-.6-.4-1.2-.8-2.5-1-.3,0-.6-.3-.7-.6,0-.3,0-.7.3-.9,0,0,1.9-1.4,3.1-2.7,1.2-1.2,3-1.6,5.7-1,.3,0,.6.3.6.6.3,1.4.2,2.9-.4,4.2-.3,1.2-1.2,2.6-3,4.7-.2.2-.4.3-.6.3ZM294.5,263.2c.7.3,1.1.6,1.5.9.2.1.3.2.5.3,0,0,.1.1.2.2l.2.2c.5.5.9,1.1,1.2,1.8,1-1.3,1.5-2.2,1.7-3,.4-1,.5-1.9.4-2.8-1.8-.3-3,0-3.7.7-.6.6-1.3,1.2-2,1.8Z"/>
            </g>
            <g>
              <path class="cls-1" d="M312.2,260c-1.1.6-2.6,1.8-2.7,3.4-.2,1.6-.6,3.6-.6,3.6,1.5-.8,2.3-.8,3.1-.8s1.9.2,2.9,1.1c0-2.4-.3-3.7-.6-4.7-.3-1-1-1.9-1.9-2.6h0Z"/>
              <path d="M314.8,268.1c-.2,0-.4,0-.6-.2-.8-.8-1.3-.9-2.3-.9s-1.4,0-2.7.7c-.3.2-.6.1-.9,0-.3-.2-.4-.5-.3-.8,0,0,.5-1.9.6-3.4.2-1.5,1.2-2.9,3.1-4,.3-.2.6-.1.8,0,1,.7,1.8,1.8,2.3,3,.3,1,.7,2.4.7,4.9s-.2.6-.5.7c-.1,0-.2,0-.3,0ZM311.9,265.4c.7,0,1.4,0,2,.4-.1-1.3-.3-2.1-.6-2.8-.2-.7-.7-1.4-1.2-1.9-.9.6-1.8,1.4-1.9,2.5,0,.7-.2,1.5-.3,2.1.8-.2,1.4-.2,1.9-.2Z"/>
            </g>
            <g>
              <path class="cls-1" d="M314,230.5c1.3.3,3.1.5,4.4-.6,1.1-1,2.7-2.3,2.7-2.3-1.6-.2-2.3-.8-2.7-1.5-.8-.6-1.3-1.3-1.5-2.7-1.6,1.8-2.3,2.9-2.7,3.9-.3,1-.5,2.1-.2,3.2h0Z"/>
              <path d="M315.8,231.5h0c-.6,0-1.3,0-2-.3-.3,0-.5-.3-.6-.6-.3-1.1-.3-2.4.2-3.7.5-1.1,1.2-2.3,2.9-4.2.2-.2.5-.3.8-.2.3.1.5.4.6.7.1,1.2.5,1.7,1.2,2.2,0,0,.1,0,.1.1.4.5.9,1,2.2,1.1.3,0,.6.3.7.6,0,.3,0,.7-.3.9,0,0-1.6,1.3-2.7,2.2-.8.7-1.9,1.1-3.1,1.1ZM314.7,229.8c1.3.3,2.4,0,3.1-.6.5-.4,1-.9,1.5-1.3-.7-.3-1.2-.8-1.6-1.3-.5-.4-1-.9-1.3-1.6-.9,1.1-1.3,1.9-1.6,2.5-.2.7-.3,1.5-.2,2.2Z"/>
            </g>
            <path d="M303.7,240c-.3,0-.5-.1-.7-.4-1.9-2.8-3.7-6.1-5.1-9.5-.2-.4,0-.9.4-1.1.4-.2.9,0,1.1.4,1.3,3.3,3,6.5,4.9,9.2.3.4.2.9-.2,1.1-.1,0-.3.1-.5.1Z"/>
            <g>
              <path class="cls-1" d="M298.7,229.9c.8-1.1,1.6-2.7,1.1-4.2-.5-1.6-1-3.6-1-3.6-.8,1.3-1.6,1.8-2.4,1.9-1,.5-1.8.6-3.1.2,1,2.3,1.8,3.4,2.6,4,.6.8,1.6,1.3,2.7,1.6h0Z"/>
              <path d="M298.7,230.7c0,0-.2,0-.2,0-1.4-.4-2.5-1-3.1-1.9-.9-.7-1.7-2-2.7-4.2-.1-.3,0-.6.2-.9.2-.2.5-.3.9-.2,1,.4,1.5.4,2.4-.1,0,0,.1,0,.2,0,.5-.1,1.1-.4,1.9-1.6.2-.3.5-.5.8-.4.3,0,.6.3.7.6,0,0,.5,1.9,1,3.5.5,1.4,0,3.1-1.2,4.9-.2.2-.4.3-.7.3ZM294.7,225.3c.6,1.1,1.1,1.9,1.7,2.3.5.6,1.1,1,1.9,1.3.6-.9,1-2,.7-3-.2-.7-.4-1.4-.6-2.1-.5.5-1.1.8-1.8,1-.7.3-1.3.5-1.9.5h0Z"/>
            </g>
            <path d="M330.5,271c-.1,0-.3,0-.4,0-8.4-4.4-13.8-7.9-19.3-21.6-.2-.4,0-.9.5-1.1.4-.2.9,0,1.1.5,5.3,13.2,10.5,16.5,18.5,20.7.4.2.5.7.3,1.1-.1.3-.4.4-.7.4Z"/>
            <path d="M301.6,260.5l-1.3-.9c1.2-1.8,2.8-2.7,4.3-3.7,2.2-1.4,4.5-2.8,6.3-7.1l1.5.6c-2,4.8-4.6,6.5-6.9,7.9-1.5.9-2.8,1.7-3.8,3.2Z"/>
            <path d="M305.6,250.3c-8.8,0-18-2.5-22.9-4.5l.6-1.5c5.9,2.5,18.2,5.6,28.1,4l.3,1.6c-2,.3-4,.5-6.1.5Z"/>
            <path d="M313,260.2l-1.6-.3c0,0,1.1-6.1-.9-9.8l1.4-.7c2.2,4.2,1.1,10.6,1,10.9Z"/>
            <path d="M310.6,249.6c-2.7-8.2-4.4-13.1,2.8-19.7l1.1,1.2c-6.4,5.9-5.1,9.7-2.4,18l-1.5.5Z"/>
            <path d="M312.6,250.6l-1.2-1.1c.2-.2,4.1-4.3,7.3-6.3l.9,1.4c-3,1.9-6.9,6-7,6Z"/>
          </g>
        </g>
        <g>
          <g>
            <path class="cls-1" d="M530.5,196.8c11.5-6.5,17.8-11.8,22.3-16.3,6.1-6,7.9-5.8,9.8-5.8s4.8,1.8,4.8,6.5c.2,11-.3,14.4.5,20.7.8,6.1,3.9,12.1,5.7,15.7s3.6,11.3,3.6,18.7-1.8,15.3-3.6,18.9c-1.8,3.6-4.8,9.4-5.7,15.7-.8,6.1-.3,9.7-.5,20.7,0,4.7-2.3,6.3-4.8,6.5-1.9,0-3.7,0-9.8-5.8-4.5-4.5-10.8-9.8-22.3-16.5v-78.8Z"/>
            <path d="M562.7,299.4h0c-2.6,0-4.8-.4-11-6.3-3.9-3.9-9.9-9.3-22-16.2l-.8-.5v-80.7l.8-.5c12-6.8,18-12.1,21.9-16,6-5.8,8.3-6.3,10.7-6.3,3.4,0,6.8,2.1,6.8,8.1,0,3.8,0,6.7,0,9.2,0,4.5,0,7.3.5,11.3.7,5.6,3.6,11.4,5.3,14.8l.2.4c1.8,3.7,3.7,11.6,3.7,19.4s-1.9,15.9-3.7,19.6l-.3.7c-1.8,3.5-4.4,8.8-5.2,14.5-.5,3.9-.5,6.7-.5,11.2,0,2.5,0,5.4,0,9.2,0,6.9-4.4,7.9-6.4,8h0ZM532.1,274.6c11.8,6.9,17.9,12.3,21.8,16.3,5.6,5.3,7.1,5.3,8.7,5.3,1.4-.1,3.3-.7,3.3-4.8,0-3.8,0-6.8,0-9.2,0-4.6,0-7.6.5-11.7.8-6.2,3.6-11.8,5.5-15.5l.3-.7c1.6-3.3,3.4-10.8,3.4-18.2s-1.7-14.7-3.4-18l-.2-.4c-1.8-3.6-4.8-9.6-5.6-15.8-.5-4.2-.5-7.2-.5-11.7,0-2.4,0-5.3,0-9.1,0-2.2-.6-4.9-3.2-4.9-1.5,0-3.2,0-8.7,5.4-4,4-10,9.4-21.8,16.1v76.9Z"/>
          </g>
          <g>
            <path class="cls-1" d="M461.5,275.5c-10.7,0-10.8,6.5-8.4,9.7,2.4,3.2,6.3,3.2,7.4,7.7,1.3,4.7-.2,17.4,10,17.4h74.4c8.4,0,14.9-2.4,14.9-7.7s-1.3-4.8-2.9-6.9c-1.1-1-2.4-2.1-4.2-3.7-4.5-4.5-10.8-9.8-22.3-16.5h-68.9Z"/>
            <path d="M545,312h-74.4c-9.4,0-10.4-9.3-11-14.9-.2-1.5-.3-2.8-.6-3.7-.5-2.1-1.7-2.9-3.4-4-1.2-.8-2.6-1.7-3.7-3.2-1.7-2.3-2.1-5.3-.9-7.6,1.1-2.1,3.7-4.6,10.6-4.6h69.4l.4.2c12.4,7.1,18.6,12.7,22.6,16.7,1.7,1.6,3,2.7,4.1,3.6,1.9,2.4,3.5,4.9,3.5,8.2,0,5.9-6.2,9.4-16.5,9.4ZM461.5,277.2c-4.1,0-6.8,1-7.7,2.8-.7,1.4-.2,3.2.6,4.3.8,1.1,1.8,1.7,2.9,2.4,1.9,1.2,4,2.6,4.8,5.9.3,1.1.5,2.5.6,4.2.7,6.8,1.8,12,7.8,12h74.4c6.4,0,13.2-1.6,13.2-6.1s-1-3.9-2.6-6c-.9-.7-2.2-1.9-4-3.5-3.9-3.9-9.8-9.2-21.6-16h-68.5Z"/>
          </g>
          <g>
            <path class="cls-1" d="M461.5,196.8c-10.7,0-10.8-6.5-8.4-9.7,2.4-3.1,6.3-3.1,7.4-7.7,1.3-4.5-.2-17.3,10-17.3h74.4c8.4,0,14.9,2.3,14.9,7.7s-1.3,4.7-2.9,6.9c-1.1.8-2.4,2.1-4.2,3.7-4.5,4.5-10.8,9.8-22.3,16.3h-68.9Z"/>
            <path d="M530.9,198.4h-69.4c-6.8,0-9.5-2.5-10.6-4.6-1.2-2.3-.8-5.3.9-7.6,1.1-1.4,2.4-2.3,3.6-3,1.7-1.1,3-1.9,3.5-4.1.3-.9.4-2.3.6-3.7.6-5.5,1.6-14.8,11-14.8h74.4c10.5,0,16.5,3.4,16.5,9.4s-1.6,5.6-3.2,7.9l-.4.4c-.8.5-1.6,1.3-2.6,2.3l-1.4,1.3c-4,4-10.3,9.6-22.6,16.5l-.4.2ZM470.6,163.7c-6,0-7.1,5.2-7.8,11.9-.2,1.6-.3,3.1-.7,4.2-.8,3.5-3,4.8-4.9,6.1-1,.7-2,1.3-2.8,2.3-.8,1.1-1.3,2.8-.6,4.2.9,1.8,3.7,2.8,7.7,2.8h68.5c11.7-6.7,17.7-12,21.6-15.8l1.5-1.4c1-1,1.9-1.8,2.7-2.4,1.6-2.3,2.5-3.9,2.5-5.8,0-5.5-9.3-6.1-13.2-6.1h-74.4Z"/>
          </g>
          <g>
            <path class="cls-1" d="M530.5,275.5h-68.9c-4.8,0-7.4,1.5-8.7,3.1-2.4-.6-4.5-1.9-5.3-4-1.5-4.4-4-21.5-4-38.4s2.6-34.1,4-38.4c.8-2.1,2.7-3.2,5.2-4,1.3,1.8,4,3.1,8.9,3.1h68.9v78.8Z"/>
            <path d="M453.4,280.4l-1-.3c-3.2-.9-5.5-2.6-6.4-5-1.5-4.4-4.1-21.6-4.1-39s2.7-34.6,4.1-38.9c1.2-3.1,4.1-4.4,6.2-5.1l1.1-.4.7,1c1.1,1.6,3.8,2.4,7.6,2.4h70.6v82h-70.6c-4.5,0-6.6,1.3-7.5,2.5l-.7.8ZM452.2,195.6c-1.8.7-2.7,1.6-3.2,2.7-1.3,4-3.9,21-3.9,37.8s2.6,33.9,4,37.9c.6,1.4,2.1,2.3,3.3,2.7,1.6-1.4,4.3-2.8,9.2-2.8h67.3v-75.6h-67.3c-5.1,0-7.8-1.4-9.3-2.8Z"/>
          </g>
          <g>
            <path class="cls-1" d="M441,296c-2.3.2-2.4,1.9-3.9,1.9s-2.6-.8-2.1-2.3c.5-1.6.3-3.7,4.8-3.7,4.4-.2,9.2-2.6,12.1-11.6-.3,1.8.2,3.6,1.1,4.8,2.4,3.2,6.3,3.2,7.4,7.7,1.1,4.4,0,15.7,7.9,17.3-6.6-.6-8.7-2.1-11.8-8.4-1.6-3.7-1.9-9.5-4.5-7.7-3.4,2.4-8.7,1.8-11.1,1.9h0Z"/>
            <path d="M468.5,311.9c0,0-.1,0-.2,0-7.2-.7-9.8-2.5-13.1-9.3-.6-1.3-.9-2.6-1.3-3.9-.3-1-.7-2.4-1-3.1-3.1,2.1-7.3,2.1-9.6,2.1h-.9c-.5,0-1,0-1.3,0-.7,0-.9.3-1.4.7-.5.5-1.3,1.2-2.6,1.2s-2.6-.5-3.3-1.5c-.6-.8-.7-1.9-.4-2.9v-.5c.6-2.1,1.6-4.3,6.4-4.3,4.9-.2,8.4-3.6,10.6-10.5.3-.8,1.1-1.2,1.9-1.1.8.2,1.4,1,1.2,1.9-.2,1.2,0,2.6.8,3.6.8,1.1,1.8,1.7,2.9,2.4,1.9,1.2,4,2.6,4.8,5.9.3,1.1.4,2.5.6,4.1.6,6,1.5,11,6.1,12,.8.2,1.4,1,1.3,1.8-.1.8-.8,1.4-1.6,1.4ZM453.1,292.2c2.4,0,3.2,2.7,4,5.6.3,1.2.7,2.4,1.1,3.4,1.2,2.4,2.2,4,3.4,5.1-1.4-3-1.7-6.5-2-9.3-.1-1.4-.3-2.8-.5-3.6-.5-2.1-1.7-2.9-3.4-4-1.2-.8-2.6-1.7-3.7-3.2-.1-.2-.2-.3-.3-.5-2.7,5.1-6.6,7.7-11.6,7.9-2.7,0-2.9.6-3.2,1.8,0,.2-.1.5-.2.7,0,0,.1.2.6.2,0,0,.3-.2.4-.4.6-.6,1.6-1.5,3.4-1.6.4,0,1,0,1.5,0h.9c2.7,0,5.8-.1,7.9-1.6.6-.4,1.2-.6,1.8-.6Z"/>
          </g>
          <g>
            <path class="cls-1" d="M441,176.4c-2.3-.2-2.4-2.1-3.9-2.1s-2.6.8-2.1,2.4c.5,1.6.3,3.6,4.8,3.7,4.4.2,9.2,2.4,12.1,11.6-.3-1.8.2-3.6,1.1-5,2.4-3.1,6.3-3.1,7.4-7.7,1.1-4.2,0-15.5,7.9-17.1-6.6.6-8.7,1.9-11.8,8.4-1.6,3.7-1.9,9.4-4.5,7.7-3.4-2.4-8.7-1.8-11.1-1.9h0Z"/>
            <path d="M452,193.7c-.7,0-1.3-.4-1.5-1.1-2.2-6.9-5.7-10.3-10.6-10.5-4.8-.2-5.7-2.2-6.2-4.3v-.5c-.5-1.1-.3-2.2.3-3.1.7-.9,1.8-1.4,3.2-1.4s2.1.8,2.6,1.3c.5.5.7.7,1.3.8.4,0,.8,0,1.3,0h.9c2.3,0,6.5,0,9.6,2,.4-.6.8-2.1,1.1-3.1.4-1.3.8-2.6,1.3-3.8,3.3-6.9,5.7-8.6,13.1-9.4.9,0,1.6.5,1.8,1.4.1.9-.4,1.7-1.3,1.8-4.6.9-5.4,5.9-6.1,11.9-.2,1.6-.3,3-.6,4.1-.8,3.5-3,4.9-4.9,6.1-1,.7-2,1.3-2.8,2.3-.7,1.1-1,2.5-.8,3.7.2.8-.4,1.7-1.2,1.9-.1,0-.3,0-.4,0ZM437.1,175.9c-.3,0-.5.1-.6.2l.3.9c.3,1.2.4,1.8,3.2,1.9,5,.2,8.8,2.8,11.5,7.8,0-.2.2-.3.3-.5,1.2-1.5,2.5-2.3,3.7-3.1,1.7-1.1,3-1.9,3.5-4.1.2-.9.4-2.2.5-3.6.3-2.8.7-6.4,2-9.3-1.2,1.1-2.2,2.7-3.4,5.3-.4,1-.8,2.2-1.1,3.3-.8,2.9-1.6,5.6-4,5.6s-1.1-.2-1.7-.5c-2.2-1.5-5.3-1.7-8-1.7h-.9c-.6,0-1.1,0-1.5,0-1.9-.1-2.8-1.1-3.4-1.7-.1-.1-.3-.3-.4-.4Z"/>
          </g>
          <g>
            <path class="cls-1" d="M533.7,241.5c4.5-.2,9.5,0,9,2.7-.3,2.6.2,5,.2,7.3s1.1,8.7-.3,14.9c-1.6,6.1-2.3,11.9-1.3,14.4,1.5,3.6-.2,3.2-6,1.8-1.9-.6-5.7-2.4-9.7-2.3-4.5.3-7.3,1-8.1-.8-1-2.1.5-5.5.3-8.4-.2-2.6-1.1-7.1-1.1-10,0-6.9,1.3-10.5,2.7-14.5,1.3-3.9,1.9-5,3.4-4.8,3.4.5,6.1.2,10.8-.2h0Z"/>
            <path d="M540.5,284.3c-1.1,0-2.8-.4-5.4-1.1-.4-.1-.9-.3-1.3-.5-2-.8-4.7-1.8-7.6-1.8h-.5c-.8,0-1.5.1-2.2.2-1.2.1-2.2.2-3.1.2-1.3,0-2.9-.2-3.5-1.7-.7-1.5-.4-3.3,0-5.2.2-1.2.4-2.4.3-3.5,0-1-.3-2.4-.5-3.9-.3-2.2-.6-4.4-.6-6.1,0-7,1.3-10.8,2.8-14.7,1.2-3.6,2-5.8,4.3-5.5,1.2.2,2.3.2,3.5.2h0c1.6,0,3.2-.1,5.3-.3h1.9c.8-.2,1.5-.2,2.2-.2,3.9,0,6.2.5,7.1,1.7.5.6.6,1.3.5,2-.2,1.5,0,3,0,4.5,0,.9.1,1.8.1,2.6s0,1.3.1,2.2c.2,3,.7,8.1-.5,12.9-1.6,6.2-2.2,11.8-1.3,13.9.5,1.2.8,2.3.3,3.2-.5.8-1.5.8-1.8.8ZM526.2,279.4c3.2,0,6.2,1.1,8.2,1.9.5.2.9.3,1.2.4,2.4.6,4,1,5,1s.5,0,.5,0h0s0-.3-.5-1.6c-1.2-3-.1-9.6,1.3-14.9,1.1-4.5.7-9.4.4-12.3,0-1-.1-1.8-.1-2.3,0-.8,0-1.6-.1-2.5-.1-1.6-.2-3.2,0-4.9,0-.4,0-.6-.2-.8-.4-.5-1.8-1.1-5.9-1.1s-1.4,0-2.2,0h-1.9c-3.8.4-6.4.5-9.1.2h0c-.9,0-1.4,1-2.5,4.3-1.5,4.1-2.7,7.5-2.7,14.3s.3,3.8.6,5.9c.2,1.5.4,2.9.5,4.1,0,1.3-.1,2.6-.3,3.9-.3,1.7-.5,3.2,0,4.2.2.4.5.7,2.1.7s1.8,0,3-.2c.7,0,1.5-.1,2.3-.2.2,0,.4,0,.6,0Z"/>
          </g>
        </g>
        <g>
          <g>
            <path class="cls-1" d="M93,196.8c-11.5-6.5-17.8-11.8-22.3-16.3-6-6-7.9-5.8-9.8-5.8s-4.8,1.8-4.8,6.5c-.2,11,.3,14.4-.5,20.7-.8,6.1-3.9,12.1-5.7,15.7s-3.6,11.3-3.6,18.7,1.8,15.3,3.6,18.9c1.8,3.6,4.8,9.4,5.7,15.7.8,6.1.3,9.7.5,20.7,0,4.7,2.3,6.3,4.8,6.5,1.9,0,3.9,0,9.8-5.8,4.5-4.5,10.8-9.8,22.3-16.5v-78.8Z"/>
            <path d="M60.8,299.4h-.1c-1.9-.1-6.4-1.1-6.4-8.1,0-3.8,0-6.8,0-9.2,0-4.6,0-7.4-.5-11.2-.7-5.6-3.4-11-5.2-14.5l-.3-.7c-1.8-3.7-3.7-11.6-3.7-19.6s1.9-15.7,3.7-19.4l.2-.4c1.7-3.4,4.6-9.1,5.3-14.8.5-4,.5-6.7.5-11.3,0-2.4,0-5.4,0-9.2,0-5.9,3.3-8,6.5-8h0c2.8,0,5.2.5,11,6.3,3.9,3.9,10,9.3,21.9,16l.8.5v80.7l-.8.5c-12,6.9-18,12.3-21.9,16.2-6,5.8-8.3,6.3-11,6.3ZM61.1,176.3c-3,0-3.5,2.6-3.5,4.8,0,3.8,0,6.7,0,9.2,0,4.5,0,7.5-.5,11.7-.8,6.2-3.8,12.2-5.6,15.8l-.2.4c-1.6,3.3-3.4,10.7-3.4,18s1.7,14.9,3.4,18.2l.3.7c1.9,3.7,4.7,9.3,5.5,15.5.5,4.1.5,7.1.5,11.7,0,2.4,0,5.4,0,9.2,0,4.1,1.9,4.8,3.3,4.9,1.6,0,3.2,0,8.7-5.4,3.9-3.9,10-9.3,21.8-16.2v-76.9c-11.8-6.7-17.8-12.1-21.8-16.1-5.3-5.3-7-5.3-8.4-5.3Z"/>
          </g>
          <g>
            <path class="cls-1" d="M161.9,275.5c10.8,0,10.8,6.5,8.4,9.7-2.4,3.2-6.1,3.2-7.4,7.7-1.3,4.7.2,17.4-10,17.4h-74.4c-8.4,0-14.7-2.4-14.7-7.7s1.1-4.8,2.7-6.9c1.1-1,2.4-2.1,4.2-3.7,4.5-4.5,10.8-9.8,22.3-16.5h68.9Z"/>
            <path d="M152.9,312h-74.4c-10.2,0-16.3-3.5-16.3-9.4s1.6-6,3.1-7.9c1.3-1.2,2.6-2.3,4.4-3.9,4-4,10.2-9.5,22.6-16.7l.4-.2h69.4c6.9,0,9.6,2.5,10.6,4.6,1.2,2.3.8,5.4-1,7.7-1.1,1.5-2.5,2.4-3.7,3.2-1.6,1.1-2.9,1.9-3.5,4-.2.9-.4,2.3-.5,3.7-.6,5.6-1.6,14.9-11,14.9ZM93.4,277.2c-11.8,6.8-17.7,12.1-21.6,16-1.8,1.7-3.1,2.8-4.3,3.8-1.5,2-2.2,3.7-2.2,5.7,0,5.7,10,6.1,13.1,6.1h74.4c6,0,7.1-5.2,7.8-12,.2-1.7.3-3.1.7-4.2.9-3.3,3-4.7,4.8-5.8,1.1-.7,2.1-1.4,2.9-2.4.8-1.1,1.4-2.9.6-4.3-.9-1.8-3.7-2.8-7.7-2.8h-68.5Z"/>
          </g>
          <g>
            <path class="cls-1" d="M161.9,196.8c10.8,0,10.8-6.5,8.4-9.7-2.4-3.1-6.1-3.1-7.4-7.7-1.3-4.5.2-17.3-10-17.3h-74.4c-8.4,0-14.7,2.3-14.7,7.7s1.1,4.7,2.7,6.9c1.1.8,2.4,2.1,4.2,3.7,4.5,4.5,10.8,9.8,22.3,16.3h68.9Z"/>
            <path d="M161.9,198.4h-69.4l-.4-.2c-12.3-6.9-18.6-12.5-22.6-16.6l-1.4-1.2c-1-1-1.9-1.8-2.6-2.3l-.4-.4c-1.6-2.2-3-4.7-3-7.9,0-6,5.9-9.4,16.3-9.4h74.4c9.4,0,10.4,9.3,11,14.8.2,1.4.3,2.8.6,3.7.6,2.3,1.9,3.1,3.6,4.2,1.2.7,2.5,1.6,3.5,3,1.8,2.4,2.1,5.4,1,7.7-1,2.1-3.7,4.6-10.6,4.6ZM93.4,195.1h68.5c4.1,0,6.8-1,7.7-2.8.7-1.4.2-3.2-.6-4.3-.7-.9-1.7-1.6-2.7-2.2-1.9-1.2-4-2.6-5-6.1-.3-1.1-.5-2.5-.7-4.2-.7-6.8-1.8-11.9-7.8-11.9h-74.4c-3.9,0-13.1.6-13.1,6.1s.9,3.8,2.3,5.8c.8.6,1.7,1.4,2.7,2.4l1.4,1.3c3.9,3.9,9.9,9.2,21.6,15.9Z"/>
          </g>
          <g>
            <path class="cls-1" d="M93,275.5h68.9c4.8,0,7.4,1.5,8.7,3.1,2.4-.6,4.5-1.9,5.3-4,1.5-4.4,4-21.5,4-38.4s-2.6-34.1-4-38.4c-.8-2.1-2.7-3.2-5.2-4-1.3,1.8-4,3.1-8.9,3.1h-68.9v78.8Z"/>
            <path d="M170,280.4l-.7-.8c-.9-1.1-2.9-2.5-7.5-2.5h-70.6v-82h70.6c3.8,0,6.4-.9,7.6-2.4l.7-1,1.1.4c2.1.7,5,2,6.2,5,1.5,4.4,4.1,21.6,4.1,39s-2.7,34.6-4.1,38.9c-.9,2.4-3.2,4.2-6.4,5.1l-1,.3ZM94.6,273.9h67.3c4.9,0,7.6,1.4,9.2,2.8,1.2-.5,2.8-1.3,3.3-2.8,1.3-4,3.9-21,3.9-37.8s-2.6-33.9-4-37.9c-.4-1.1-1.4-1.9-3.2-2.7-1.5,1.4-4.3,2.8-9.3,2.8h-67.3v75.6Z"/>
          </g>
          <g>
            <path class="cls-1" d="M182.4,296c2.3.2,2.4,1.9,3.9,1.9s2.6-.8,2.1-2.3c-.5-1.6-.2-3.7-4.7-3.7-4.5-.2-9.4-2.6-12.3-11.6.5,1.8-.2,3.6-1.1,4.8-2.4,3.2-6.1,3.2-7.4,7.7-1.1,4.4,0,15.7-7.9,17.3,6.6-.6,8.7-2.1,11.8-8.4,1.6-3.7,1.9-9.5,4.5-7.7,3.4,2.4,8.9,1.8,11.1,1.9h0Z"/>
            <path d="M155,311.9c-.8,0-1.5-.6-1.6-1.4-.1-.9.4-1.7,1.3-1.8,4.6-.9,5.5-6,6.1-12,.2-1.6.3-3,.6-4.1,1-3.3,3-4.7,4.8-5.9,1.1-.7,2.1-1.4,2.9-2.4.4-.5,1.3-1.9.9-3.5-.2-.8.3-1.7,1.1-2,.9-.3,1.7.2,2,1.1,2.2,6.9,5.7,10.3,10.8,10.5h0c4.7,0,5.6,2.2,6,4.2,0,.2,0,.4.1.6.3,1,.2,2.1-.4,2.9-.7.9-1.9,1.5-3.3,1.5s-2.1-.7-2.6-1.2c-.5-.4-.7-.7-1.4-.7-.3,0-.8,0-1.3,0h-.8c-2.3,0-6.6,0-9.7-2.1-.4.7-.8,2.1-1,3.1-.4,1.3-.8,2.6-1.3,3.9-3.3,6.8-5.9,8.6-13.1,9.4,0,0-.1,0-.2,0ZM171.9,285.7c-.1.2-.2.3-.3.5-1.1,1.5-2.5,2.4-3.7,3.2-1.6,1.1-2.9,1.9-3.5,4-.2.8-.4,2.2-.5,3.6-.3,2.8-.7,6.4-2,9.3,1.2-1.1,2.2-2.7,3.4-5.2.4-1,.8-2.2,1.1-3.4.8-2.9,1.6-5.6,4-5.6s1.2.2,1.8.6c2.3,1.6,6,1.6,8,1.6h.4c1,0,1.5,0,1.9,0,1.8.1,2.7,1,3.4,1.6.2.1.4.3.4.4.4,0,.6-.1.6-.2-.2-.3-.3-.6-.3-.9-.3-1.2-.4-1.7-2.9-1.7-5.1-.2-9-2.8-11.8-7.9Z"/>
          </g>
          <g>
            <path class="cls-1" d="M182.4,176.4c2.3-.2,2.4-2.1,3.9-2.1s2.6.8,2.1,2.4c-.5,1.6-.2,3.6-4.7,3.7-4.5.2-9.4,2.4-12.3,11.6.5-1.8-.2-3.6-1.1-5-2.4-3.1-6.1-3.1-7.4-7.7-1.1-4.2,0-15.5-7.9-17.1,6.6.6,8.7,1.9,11.8,8.4,1.6,3.7,1.9,9.4,4.5,7.7,3.4-2.4,8.9-1.8,11.1-1.9h0Z"/>
            <path d="M171.4,193.7c-.2,0-.3,0-.5,0-.8-.2-1.3-1.1-1.1-2,.4-1.4-.3-2.8-.9-3.7-.7-.9-1.7-1.5-2.7-2.2-1.9-1.2-4-2.6-5-6.1-.3-1.1-.4-2.5-.6-4.1-.6-6-1.5-11-6.1-11.9-.8-.2-1.4-1-1.3-1.8.1-.8,1-1.4,1.8-1.4,7.4.7,9.8,2.5,13.1,9.3.5,1.2.9,2.6,1.3,3.8.3,1,.7,2.5,1.1,3.1,3.1-2,7.3-2,9.6-2h.4c.9,0,1.3,0,1.7,0,.6,0,.8-.3,1.3-.8.5-.5,1.3-1.3,2.7-1.3s2.5.5,3.2,1.4c.6.8.8,1.9.4,3.1,0,.2-.1.4-.1.6-.4,2-1.3,4.1-6,4.3-3.2.1-7.9,1.3-10.8,10.5-.2.7-.9,1.1-1.5,1.1ZM161.9,166c1.4,3,1.8,6.5,2.1,9.3.2,1.4.3,2.7.5,3.6.6,2.3,1.9,3.1,3.6,4.2,1.2.7,2.5,1.6,3.5,3,.1.2.2.4.4.6,2.7-5.1,6.6-7.6,11.7-7.8,2.6,0,2.7-.6,3-1.7,0-.3.1-.6.2-.8,0-.2-.2-.3-.6-.3,0,0-.2.2-.4.4-.6.6-1.6,1.6-3.4,1.7-.4,0-.9,0-1.5,0h-.8c-2,0-5.7,0-8,1.6-.6.4-1.2.6-1.8.6h0c-2.4,0-3.2-2.7-4-5.6-.3-1.1-.7-2.4-1.1-3.4-1.2-2.5-2.2-4.2-3.4-5.2Z"/>
          </g>
          <g>
            <path class="cls-1" d="M95.7,212.1c4.7-.8,7.7-1.3,7.3,1.5-.5,2.7,0,4.4,0,6.6s3.1,9.2,1.6,15.5c-1.6,6.5-3.4,13.6-3.7,16.1-.3,2.4.3,7.4-1.8,8.6-2.1,1.1-1.6,0-5.5-1.1-1-.3-3.9-1-4.7-1.1-2.7-.3-6.5.5-6.6-1.3-.2-4,.2-4.2-.6-10.7-.8-6.5-2.7-5.7-2.7-12.6-.2-6.8,1.3-10.7,2.6-14.7,1.5-4.2,1.8-7.9,3.1-7.4,1.9.8,6.5,1.5,11.1.6h0Z"/>
            <path d="M97.8,261.6c-.6,0-1-.2-1.6-.5-.6-.3-1.4-.7-2.8-1.1-1-.3-3.8-1-4.6-1.1-.5,0-1.2,0-1.8,0h-1.3c-1.5,0-3.9,0-4.1-1.9,0-1.3,0-2.1,0-2.9,0-1.8,0-3.2-.6-7.7-.3-2.8-.9-4.1-1.4-5.4-.7-1.7-1.3-3.3-1.3-7.3-.2-6.4,1.1-10.3,2.3-14l.3-.9c.5-1.3.8-2.6,1.1-3.7.7-2.7,1.2-4.3,2.5-4.3s.3,0,.5,0c1.1.5,3.4,1,6.4,1,1.5,0,2.9-.1,4.3-.4,2.2-.4,3.8-.6,5.1-.6s2,0,2.7.9c.4.5.6,1.2.4,2.1-.3,1.7-.2,3-.1,4.3,0,.7.1,1.4.1,2.2s.3,1.6.6,2.8c.8,3.3,2.1,8.2,1,12.9v.3c-1.6,6.2-3.4,13.2-3.7,15.7,0,.6-.1,1.4-.1,2.3,0,2.7-.1,5.8-2.1,6.9-.7.4-1.2.6-1.7.6ZM86.9,257.2c.7,0,1.4,0,2.1,0,.8.2,3.8.8,4.8,1.2,1.5.5,2.4.9,3,1.2.9.5.9.5,1.8,0,1.1-.6,1.2-3.4,1.2-5.5,0-.9,0-1.8.1-2.4.3-2.6,2-9.4,3.6-15.9v-.3c1.1-4.2-.1-9-.9-12.1-.4-1.4-.6-2.5-.6-3.2s0-1.4-.1-2.1c-.1-1.4-.2-2.8.1-4.7,0-.3,0-.6,0-.8-.1-.1-.4-.3-1.4-.3s-3.1.3-4.8.6c-1.5.3-3,.4-4.6.4h0c-2.6,0-5.3-.4-6.9-1-.3.4-.7,1.9-1,3.1-.3,1.2-.7,2.5-1.1,3.8l-.3.9c-1.2,3.6-2.4,7.4-2.2,13.5,0,3.7.6,5.1,1.2,6.7.5,1.3,1.2,2.9,1.5,5.8.6,4.6.6,6.1.6,7.9,0,.8,0,1.6,0,2.8,0,.4,1.9.4,2.5.4h1.3Z"/>
          </g>
        </g>
        <g>
          <g>
            <path class="cls-1" d="M226.3,57.1c-6.6-11.5-11.8-17.8-16.3-22.3-6-6.1-5.8-7.9-5.8-9.8s1.9-6,6.3-4.8c11.9,3.1,20.2,2.9,29.5,2.1,9.4-.8,22.6-3.4,33.4-5.2,14.2-2.3,26.2-4.2,38.1-4.2s20.5,2.7,29.9,4.2c10.8,1.8,24.1,4.4,33.4,5.2,9.4.8,17.6,1,29.5-2.1,4.4-1.1,6.3,2.3,6.3,4.8.2,1.9.2,3.7-5.8,9.8-4.4,4.5-9.7,10.8-16.3,22.3h-162.3Z"/>
            <path d="M389.5,58.7h-164.1l-.5-.8c-7.1-12.4-12.3-18.2-16-21.9-5.8-6-6.3-8.3-6.3-10.8,0-3.9,3.2-7.9,8.3-6.6,6.9,1.8,12.8,2.6,19.2,2.6s5.8-.2,9.8-.5c6.9-.6,15.8-2.1,24.4-3.6,3-.5,6-1,8.9-1.5h.7c13.8-2.3,25.8-4.2,37.7-4.2s15.3,1.4,21.9,2.7c2.7.6,5.4,1.1,8.2,1.5,2.8.5,5.8,1,8.9,1.5,8.6,1.5,17.6,3,24.4,3.6,2.7.2,6.2.5,9.8.5,6.4,0,12.3-.8,19.2-2.6.7-.2,1.4-.3,2-.3,4.1,0,6.3,3.4,6.3,6.7.2,2.5-.1,4.6-6.3,11-3.9,4.1-9.3,10.2-16.1,22l-.5.8ZM227.3,55.5h160.4c6.7-11.5,12.1-17.7,16.1-21.8,5.6-5.8,5.5-7.2,5.4-8.6,0-1.3-.9-4.3-4.3-3.4-7.1,1.8-13.3,2.7-20,2.7s-7.4-.3-10.1-.5c-7-.6-16-2.2-24.7-3.7-3-.5-6-1-8.8-1.5-2.8-.4-5.5-1-8.3-1.5-6.4-1.3-13.1-2.6-21.3-2.6s-23.5,1.9-37.2,4.1h-.7c-2.8.6-5.8,1.1-8.8,1.6-8.7,1.5-17.7,3.1-24.7,3.7-2.7.2-6.4.5-10.1.5-6.7,0-12.8-.8-20-2.7-3.4-.9-4.3,2.2-4.3,3.3,0,1.7,0,3.2,5.4,8.7,5.6,5.6,10.5,12.3,16.1,21.8Z"/>
          </g>
          <g>
            <path class="cls-1" d="M388.6,126c0,10.7,6.5,10.8,9.7,8.4,3.2-2.4,3.1-6.3,7.7-7.4,4.7-1.3,17.4.2,17.4-10V42.6c0-8.4-2.4-14.9-7.9-14.9s-4.7,1.3-6.9,2.9c-.8,1.1-1.9,2.4-3.7,4.2-4.4,4.5-9.7,10.8-16.3,22.3v68.9Z"/>
            <path d="M394.5,137.3h0c-1.8,0-7.6-.8-7.6-11.3V56.7l.2-.4c6.9-12,12.5-18.4,16.5-22.6,1.7-1.7,2.8-2.9,3.6-4l.4-.4c2.3-1.6,4.8-3.2,7.9-3.2,6,0,9.5,6.2,9.5,16.5v74.4c0,9.4-9.3,10.4-14.9,11-1.5.2-2.8.3-3.7.6-2.2.5-3,1.8-4.1,3.4-.8,1.2-1.6,2.6-3.1,3.7-1.4,1-3.1,1.6-4.7,1.6ZM390.2,57.5v68.5c0,5.1,1.6,8.1,4.3,8.1h0c.9,0,2-.3,2.8-1,1-.8,1.7-1.8,2.3-2.9,1.2-1.9,2.5-4,6-4.8,1.1-.3,2.5-.5,4.2-.6,6.8-.7,12-1.8,12-7.8V42.6c0-3.1-.5-13.2-6.3-13.2s-3.5.9-5.8,2.5c-.9,1.2-2,2.5-3.7,4.2-3.9,4-9.2,10.1-15.8,21.6Z"/>
          </g>
          <g>
            <path class="cls-1" d="M226.3,126c0,10.7-6.5,10.8-9.7,8.4-3.2-2.4-3.1-6.3-7.7-7.4-4.7-1.3-17.4.2-17.4-10V42.6c0-8.4,2.4-14.9,7.9-14.9s4.7,1.3,6.9,2.9c.8,1.1,1.9,2.4,3.7,4.2,4.5,4.5,9.7,10.8,16.3,22.3v68.9Z"/>
            <path d="M220.4,137.3c-1.6,0-3.3-.6-4.7-1.6-1.5-1.1-2.4-2.5-3.2-3.7-1.1-1.7-1.8-2.9-4-3.4-.9-.3-2.3-.4-3.8-.6-5.6-.6-14.9-1.6-14.9-11V42.6c0-10.3,3.6-16.5,9.5-16.5s5.6,1.6,7.9,3.2l.4.4c.8,1.1,1.9,2.3,3.5,4,5.7,5.7,10.8,12.7,16.6,22.6l.2.4v69.4c0,10.5-5.8,11.3-7.6,11.3ZM199.4,29.3c-5.8,0-6.3,10.1-6.3,13.2v74.4c0,6,5.2,7.1,12,7.8,1.7.2,3.1.3,4.2.7,3.4.8,4.8,2.9,5.9,4.8.7,1.1,1.3,2.1,2.4,2.9.8.6,1.8,1,2.8,1,2.8,0,4.3-2.9,4.3-8.1V57.5c-7-12.1-12.1-17.9-15.8-21.6s-2.9-3-3.7-4.2c-2.2-1.6-3.9-2.5-5.8-2.5Z"/>
          </g>
          <g>
            <path class="cls-1" d="M388.6,57.1v68.9c0,4.8,1.5,7.6,3.2,8.9-.8,2.4-2.1,4.4-4,5.2-7.9,2.6-59.6,4-76.2,4s-73.1-.3-84.4-4c-1.9-.8-3.2-2.7-3.9-5.2,1.8-1.3,3.1-4,3.1-8.9V57.1h162.3Z"/>
            <path d="M311.6,145.7c-17,0-73.3-.3-84.9-4.1-2.4-1-4.1-3.2-4.9-6.3l-.3-1.1.9-.7c1.6-1.1,2.4-3.8,2.4-7.6V55.5h165.5v70.6c0,5,1.6,6.9,2.6,7.6l1,.7-.4,1.1c-1,3.1-2.7,5.2-4.9,6.1-8.4,2.7-60.4,4.2-76.8,4.2ZM225.1,135.4c.6,1.6,1.5,2.7,2.6,3.2,11.3,3.7,71.8,3.9,83.8,3.9,18.3,0,68.4-1.6,75.7-4,1.2-.5,2.1-1.9,2.6-3.2-1.5-1.6-2.9-4.3-2.9-9.4V58.7h-159v67.3c0,5.1-1.4,7.9-2.8,9.4Z"/>
          </g>
          <g>
            <path class="cls-1" d="M409.1,146.5c.2,2.3,1.9,2.4,1.9,3.9s-.8,2.6-2.4,2.1c-1.5-.5-3.6-.3-3.7-4.8,0-4.4-2.4-9.2-11.5-12.1,1.6.3,3.6-.2,4.8-1.1,3.2-2.4,3.1-6.3,7.7-7.4,4.4-1.3,15.5,0,17.3-7.9-.8,6.6-2.1,8.7-8.6,11.8-3.7,1.6-9.4,1.9-7.6,4.5,2.3,3.4,1.8,8.7,1.9,11.1h0Z"/>
            <path d="M409.3,154.3c-.4,0-.8,0-1.2-.2l-.6-.2c-2-.5-4.1-1.5-4.3-6.2,0-4.9-3.5-8.4-10.3-10.6-.8-.3-1.3-1.1-1.1-1.9.2-.8,1.1-1.3,1.9-1.2,1.2.3,2.6-.1,3.6-.8,1-.8,1.7-1.8,2.3-2.9,1.2-1.9,2.5-4,6-4.8,1.1-.3,2.6-.5,4.4-.7,6-.7,10.7-1.5,11.7-6,.2-.8,1-1.4,1.8-1.2.9.1,1.4.9,1.3,1.8-.9,7.4-2.7,9.8-9.5,13-1.2.5-2.6.9-3.8,1.3-1,.3-2.4.7-3,1,2,3.2,2,7.4,2.1,10.1,0,.6,0,1.2,0,1.6,0,.7.3.9.7,1.4.5.5,1.2,1.3,1.2,2.6,0,2.3-1.4,3.8-3.3,3.8ZM398.8,136.1c6.3,3.4,7.7,8,7.7,11.6,0,2.6.8,2.8,1.9,3.1.3,0,.5.1.7.2h.2v1.6-1.6h0s0-.2,0-.6c0,0-.2-.3-.4-.4-.6-.6-1.5-1.6-1.6-3.4,0-.5,0-1.1,0-1.8,0-2.5,0-6.2-1.6-8.5-.8-1.1-.7-2.1-.5-2.7.6-1.7,2.8-2.4,5.4-3.1,1.1-.3,2.3-.7,3.4-1.1,2.6-1.2,4.2-2.2,5.3-3.4-2.9,1.3-6.3,1.7-9,2-1.5.2-3,.3-3.9.6-2.3.6-3,1.8-4.1,3.4-.8,1.2-1.6,2.6-3.1,3.7-.2.1-.3.2-.5.3Z"/>
          </g>
          <g>
            <path class="cls-1" d="M205.8,146.5c-.2,2.3-1.9,2.4-1.9,3.9s.8,2.6,2.4,2.1c1.5-.5,3.6-.3,3.7-4.8.2-4.4,2.4-9.2,11.6-12.1-1.8.3-3.7-.2-5-1.1-3.2-2.4-3.1-6.3-7.7-7.4-4.2-1.3-15.5,0-17.1-7.9.6,6.6,1.9,8.7,8.4,11.8,3.7,1.6,9.4,1.9,7.6,4.5-2.3,3.4-1.8,8.7-1.9,11.1h0Z"/>
            <path d="M205.6,154.3c-2,0-3.3-1.6-3.3-3.8s.7-2.1,1.2-2.6c.4-.5.7-.7.7-1.4,0-.4,0-1,0-1.6,0-2.8,0-7,2.1-10.1-.6-.3-2-.8-3-1-1.3-.4-2.6-.8-3.8-1.3-6.9-3.3-8.6-5.7-9.4-13.1,0-.9.5-1.6,1.4-1.8.8-.1,1.7.4,1.8,1.3.9,4.4,5.8,5.3,11.6,6,1.8.2,3.3.4,4.4.7,3.4.8,4.7,2.9,5.9,4.8.7,1.1,1.3,2.1,2.4,2.9,1,.7,2.4,1.1,3.7.8.9-.1,1.7.4,1.9,1.2.2.8-.3,1.7-1.1,1.9-6.9,2.2-10.3,5.7-10.5,10.6-.2,4.7-2.3,5.7-4.3,6.2h-.5c-.5.3-.8.3-1.2.3ZM195.5,125.9c1.1,1.3,2.7,2.3,5.4,3.5,1,.4,2.2.8,3.3,1.1,2.5.7,4.7,1.4,5.4,3.1.2.6.3,1.6-.5,2.7-1.5,2.3-1.6,6-1.6,8.5,0,.7,0,1.3,0,1.8-.1,1.8-1,2.8-1.6,3.4-.1.1-.3.3-.4.4,0,.3,0,.5.1.6,0,0,.1,0,.2,0,.2,0,.4-.1.7-.2,1.1-.3,1.8-.5,1.9-3.2.2-5,2.8-8.8,7.8-11.5-.2-.1-.4-.2-.5-.4-1.5-1.1-2.4-2.5-3.2-3.7-1.1-1.7-1.8-2.9-4-3.4-1-.3-2.4-.5-3.9-.6-2.7-.3-6.2-.7-9-2Z"/>
          </g>
          <g>
            <path class="cls-1" d="M217.8,58.2c-.3-3.9-2.1-7.7,2.3-7.4,4.4.3,11.5-1,17.4-1.6s10.7-.3,20.5.6c10,1.1,13.1.6,17.1,0,6.5-1,10.2-2.9,9,.8-1.3,4.4-1.8,9.5-1.5,12.9.3,3.7,2.9,4.2,0,5-3.2,1-9.7-1.5-15.3,1.1-3.9,1.9-11,3.6-19.1,3.6s-12.9-1.8-19.4-2.7c-6.5-1.1-10.5-.6-10.8-3.2-.3-2.9.2-5.2-.3-9h0Z"/>
            <path d="M248.3,74.1c-7.6,0-11-.8-14.3-1.7-1.5-.4-3.2-.8-5.2-1.1-1.8-.3-3.4-.5-4.7-.7-3.9-.5-6.5-.8-6.8-3.3-.2-1.4-.1-2.6-.1-3.9,0-1.5,0-3.1-.2-5.2,0-.8-.2-1.6-.3-2.4-.3-2.1-.6-3.9.4-5,.6-.7,1.6-1,3.1-.9,3,.2,7.6-.4,12-1,1.8-.2,3.6-.5,5.3-.7,2.2-.2,4.1-.3,6.2-.3,3.7,0,7.8.3,14.4,1,4.1.5,7.2.7,9.7.7s5-.3,7.2-.7c1.6-.2,3-.5,4.3-.8,1.6-.3,2.8-.6,3.7-.6s1.3,0,1.8.7c.5.7.3,1.8.1,2.5-1.2,4-1.8,9.1-1.4,12.6.1,1.4.6,2.3.9,2.9.3.6.6,1.2.4,1.8-.3.6-.9.9-1.9,1.2-1.2.4-3.1.3-5.3.1-1.2,0-2.5-.2-3.8-.2-2.5,0-4.5.4-6.2,1.2-3.5,1.7-10.4,3.6-19.4,3.6ZM219.5,51.6c-.7,0-1.1.1-1.3.4-.5.6-.2,2.2,0,3.7.1.8.3,1.6.3,2.5.3,2.1.2,3.9.2,5.4,0,1.2,0,2.4.1,3.6.2,1.2,1.8,1.4,5.4,1.9,1.4.2,3,.4,4.8.7,2.1.3,3.8.7,5.3,1.1,3.3.8,6.5,1.6,13.9,1.6s14.5-1.4,18.7-3.5c2-.9,4.2-1.3,6.9-1.3s2.7.1,3.9.2c2,.1,3.7.2,4.7,0,.4-.1.6-.2.7-.3,0-.1-.1-.3-.2-.4-.4-.7-.9-1.8-1.1-3.5-.4-3.7.2-9,1.5-13.2.3-.8.1-1.1.1-1.1h0s-.1,0-.5,0c-.8,0-1.9.2-3.4.6-1.3.3-2.7.6-4.3.8-2.3.4-4.3.7-7.5.7s-5.7-.2-9.9-.7c-10.3-1-14.5-1.3-20.3-.6-1.7.2-3.5.4-5.3.7-4.5.6-9.1,1.2-12.3,1-.2,0-.3,0-.4,0Z"/>
          </g>
        </g>
        <g>
          <g>
            <path class="cls-1" d="M503.5,113.5c18.7,0,33.9-15.3,33.9-33.9s-15.2-33.9-33.9-33.9-33.9,15.2-33.9,33.9,15.2,33.9,33.9,33.9h0Z"/>
            <path d="M503.5,114.3c-19.1,0-34.7-15.6-34.7-34.7s15.6-34.7,34.7-34.7,34.7,15.6,34.7,34.7-15.6,34.7-34.7,34.7ZM503.5,46.5c-18.2,0-33.1,14.9-33.1,33.1s14.8,33.1,33.1,33.1,33.1-14.9,33.1-33.1-14.9-33.1-33.1-33.1Z"/>
          </g>
          <path d="M503.5,86.3c-3.7,0-6.8-3.1-6.8-6.8s3-6.8,6.8-6.8,6.8,3,6.8,6.8-3.1,6.8-6.8,6.8ZM503.5,74.4c-2.8,0-5.2,2.3-5.2,5.2s2.4,5.2,5.2,5.2,5.2-2.4,5.2-5.2-2.3-5.2-5.2-5.2Z"/>
          <path d="M503.5,92.8c-7.3,0-13.2-5.9-13.2-13.2s5.9-13.4,13.2-13.4,13.4,6,13.4,13.4-6,13.2-13.4,13.2ZM503.5,67.8c-6.4,0-11.6,5.3-11.6,11.8s5.2,11.6,11.6,11.6,11.8-5.2,11.8-11.6-5.3-11.8-11.8-11.8Z"/>
          <path d="M503.5,99.9c-11.2,0-20.3-9.1-20.3-20.3s9.1-20.5,20.3-20.5,20.3,9.2,20.3,20.5-9.1,20.3-20.3,20.3ZM503.5,60.7c-10.3,0-18.7,8.5-18.7,18.9s8.4,18.7,18.7,18.7,18.7-8.4,18.7-18.7-8.4-18.9-18.7-18.9Z"/>
          <rect x="502.7" y="60" width="1.6" height="6.9"/>
          <rect x="502.7" y="92" width="1.6" height="7.1"/>
          <rect x="516.4" y="78.6" width="7.1" height="1.6"/>
          <rect x="484.3" y="78.6" width="7.1" height="1.6"/>
        </g>
        <g>
          <g>
            <path class="cls-2" d="M121.9,49.8c0,1.6-1.3,2.9-2.7,2.9s-2.7-1.3-2.7-2.9v-6.1c0-1.5,1.1-2.7,2.7-2.7s2.7,1.3,2.7,2.7v6.1Z"/>
            <path d="M119.1,53.6c-2,0-3.5-1.6-3.5-3.7v-6.1c0-2,1.6-3.5,3.5-3.5s3.6,1.7,3.6,3.5v6.1c0,2-1.6,3.7-3.6,3.7ZM119.1,41.8c-1.2,0-1.9,1-1.9,1.9v6.1c0,1.2.8,2.1,1.9,2.1s1.9-1,1.9-2.1v-6.1c0-1-.9-1.9-1.9-1.9Z"/>
          </g>
          <g>
            <path class="cls-2" d="M150.3,100.1c1.3.8,1.5,2.6.6,3.9-1,1.1-2.7,1.5-3.9.5l-5-3.7c-1.3-.8-1.5-2.6-.6-3.9,1-1.1,2.7-1.5,3.9-.5l5,3.7Z"/>
            <path d="M148.7,105.8c-.8,0-1.5-.3-2.1-.8l-5-3.7c-1.5-1-1.9-3.2-.9-5,1.4-1.6,3.7-1.9,5.1-.7l5,3.7c1.5,1,1.9,3.2.8,5-.8.9-1.9,1.4-3,1.4ZM143.7,96.6c-.6,0-1.3.3-1.7.8-.5.8-.5,2.1.5,2.7l5.1,3.7c.4.4.8.4,1.1.4.6,0,1.3-.3,1.7-.8.5-.8.5-2.1-.5-2.7l-5.1-3.7c-.4-.4-.8-.4-1.1-.4Z"/>
          </g>
          <g>
            <path class="cls-2" d="M91.2,104.4c-1.1,1-2.9.6-3.9-.5-.8-1.3-.6-3.1.6-3.9l4.8-3.7c1.3-1,3.1-.6,3.9.5,1,1.3.8,3.1-.5,3.9l-5,3.7Z"/>
            <path d="M89.6,105.8c-1.1,0-2.2-.5-2.9-1.3-.6-.9-.8-1.9-.7-2.8.1-1,.7-1.8,1.5-2.3l4.8-3.7c1.6-1.2,4-.8,5,.7.6.8.9,1.9.7,2.9-.2.9-.7,1.6-1.4,2.1l-5,3.7c-.5.5-1.3.7-2.1.7ZM94.5,96.6c-.4,0-.9.1-1.2.4l-4.8,3.7c-.6.4-.7.9-.8,1.2,0,.5,0,1.1.4,1.6.3.4,1,.7,1.6.7s.7,0,1.1-.4l5.1-3.7c.5-.3.7-.8.7-1.1.1-.6,0-1.2-.4-1.7-.3-.5-.9-.7-1.5-.7Z"/>
          </g>
          <g>
            <path class="cls-1" d="M119.1,110.5c16.6,0,30.4-13.6,30.4-30.4s-13.7-30.4-30.4-30.4-30.4,13.7-30.4,30.4,13.6,30.4,30.4,30.4h0Z"/>
            <path d="M119.1,112.2c-17.6,0-32-14.3-32-32s14.3-32,32-32,32,14.3,32,32-14.3,32-32,32ZM119.1,51.5c-15.8,0-28.7,12.9-28.7,28.7s12.9,28.7,28.7,28.7,28.7-12.9,28.7-28.7-12.9-28.7-28.7-28.7Z"/>
          </g>
          <g>
            <path class="cls-1" d="M111.5,87.8c-2.4,1.3-5.2-1.5-5.8-2.6-1.5-3.6,1.5-9.7,5-13.2s9.8-6.6,13.2-5c1.1.5,4,3.4,2.7,5.7,1.5.2,2.7.8,3.7,1.8,3.6,3.6,3.7,6-3.7,13.4-7.4,7.6-9.8,7.4-13.6,3.7-1-1-1.5-2.3-1.6-3.7h0Z"/>
            <path class="cls-3" d="M117.6,94.8c-2,0-3.6-1.3-5-2.7-.8-.8-1.4-1.9-1.7-3.2-2.6.5-5.2-2.1-5.9-3.3-1.6-4,1.4-10.5,5.1-14.2,3.4-3.4,8.1-5.7,11.6-5.7s1.8.2,2.6.5c.9.4,2.7,2,3.3,3.8.2.7.3,1.3.2,1.9,1.2.3,2.3.9,3.2,1.8,4.2,4.3,3.5,7.4-3.7,14.5-4.5,4.6-7.3,6.4-9.7,6.4ZM112.2,86.5v1.2c.3,1.4.7,2.5,1.5,3.2,1.6,1.6,2.7,2.3,3.9,2.3,1.9,0,4.4-1.8,8.5-6,7.7-7.6,6.6-9.4,3.7-12.3-.9-.9-2-1.4-3.2-1.5h-1.2c0-.1.6-1.2.6-1.2.3-.5.3-1,0-1.6-.5-1.4-1.9-2.7-2.4-2.9-2.9-1.3-8.6,1.1-12.3,4.8-3.3,3.3-6.1,9.2-4.8,12.4.4.8,2.9,3.1,4.7,2.2l1.1-.6Z"/>
          </g>
          <path d="M117.6,94.8c-2,0-3.6-1.3-5-2.7-1.4-1.4-2.1-3.6-2.1-6.5,0-3.9,1.7-8.4,3.7-10.4,2.1-2.1,6.5-3.6,10.4-3.6s4.9.8,6.4,2.2c1.9,1.9,3,3.6,2.5,6-.5,2.1-2.3,4.7-6.2,8.5-4.5,4.6-7.3,6.4-9.7,6.4ZM124.6,73.3c-3.9,0-7.8,1.6-9.3,3.2-1.8,1.7-3.2,5.7-3.2,9.2,0,2.3.5,4.2,1.6,5.3,1.6,1.6,2.7,2.3,3.9,2.3,1.9,0,4.4-1.8,8.5-6,3.6-3.6,5.4-6,5.8-7.8.3-1.5-.2-2.7-2-4.5-1.4-1.4-3.6-1.7-5.2-1.7Z"/>
          <g>
            <path class="cls-1" d="M114.8,75.8c1.9-2.1,5.3-2.1,7.3-.2,1.9,2.1,1.9,5.3-.2,7.4-1.9,1.9-5.3,2.1-7.3,0-1.9-1.9-1.9-5.2.2-7.3h0Z"/>
            <path d="M118.2,85.4c-1.6,0-3.1-.6-4.1-1.8-2.3-2.2-2.2-6,.2-8.4,1.1-1.2,2.6-1.8,4.3-1.8s3.1.6,4.1,1.7c2.3,2.5,2.2,6.2-.2,8.6-1.1,1.1-2.7,1.8-4.3,1.8ZM118.5,75c-1.2,0-2.3.5-3.1,1.3-1.8,1.8-1.9,4.5-.2,6.2,1.6,1.7,4.5,1.6,6.1,0,1.8-1.8,1.8-4.5.1-6.3-.7-.7-1.8-1.2-3-1.2Z"/>
          </g>
          <path d="M110.3,89c-.3,0-.6,0-1-.1-2-.5-3.8-2.4-4.3-3.3-1.6-4,1.4-10.5,5.1-14.2,3.9-3.9,10.4-7,14.2-5.2.9.4,2.8,2.1,3.4,4.1.3,1.1.2,2.1-.5,3l-1.3-.9c.3-.5.4-1,.2-1.6-.4-1.4-1.9-2.8-2.5-3-3.1-1.4-8.8,1.3-12.3,4.8-3.3,3.3-6.1,9.2-4.8,12.4.3.6,1.8,2.1,3.3,2.4.6.1,1.1,0,1.5-.2l.9,1.4c-.5.4-1.2.5-1.8.5Z"/>
          <path d="M110.3,72.5c-.5-.6-1.4-1-2.3-1.3-1.9-.8-4.4-1.7-4.5-5.8,0-2.6,1.8-4.5,3.6-6.4,2.7-2.7,4.2-4.5,2-7.6l1.3-.9c3.1,4.3.2,7.3-2.2,9.6-1.7,1.7-3.2,3.2-3.2,5.2,0,3.1,1.6,3.6,3.4,4.3,1.1.4,2.2.8,3,1.8l-1.2,1Z"/>
          <path d="M88.8,79.4c-7.2,0-20.5-9.9-20.7-26-.2-11.3,9-27.3,29.9-27.6h7.4c1.3,0,3.1.7,4.6,1.9,1.5-1.2,3.2-1.8,4.6-1.7,1.7-.2,5.3-.2,8.8-.2,8.2,0,14.9-3.9,17.6-7.4,2.6-3.2,2.6-8.2,2.6-10.3h1.6c0,3.6-.3,8.1-2.9,11.3-3.1,4-10.1,8-18.9,8s-7.1,0-8.8.2c-.8,0-2.2.4-3.5,1.2,1.1,1.3,1.9,2.9,1.9,4.7,0,1.6-.5,3-1.6,3.6-.9.5-2,.6-2.9,0-1.1-.6-1.8-1.9-1.8-3.5,0-1.7.6-3.5,1.9-4.9-1.2-.9-2.6-1.4-3.4-1.4h-7.4c-19.7.3-28.4,15.4-28.3,26,.2,16.1,13.4,24.4,19,24.4v1.6ZM110,29.9c-.8.9-1.6,2.2-1.5,3.8,0,1,.4,1.8,1,2.1.4.2.9.2,1.3,0,.6-.4.9-1.2.8-2.2,0-1.5-.6-2.7-1.5-3.7Z"/>
        </g>
      </g>
    </g>
  </g>
</svg>