<?xml version="1.0" encoding="UTF-8"?>
<svg xmlns="http://www.w3.org/2000/svg" version="1.1" viewBox="0 0 175.6 188.7">
  <defs>
    <style>
      .cls-1 {
        stroke-linecap: square;
        stroke-miterlimit: 10;
        stroke-width: 1.1px;
      }

      .cls-1, .cls-2, .cls-3 {
        fill: #fff;
      }

      .cls-1, .cls-3 {
        stroke: #000;
      }

      .cls-3 {
        stroke-linecap: round;
        stroke-linejoin: round;
        stroke-width: .7px;
      }
    </style>
  </defs>
  <!-- Generator: Adobe Illustrator 28.6.0, SVG Export Plug-In . SVG Version: 1.2.0 Build 709)  -->
  <g>
    <g id="Layer_1">
      <g>
        <path class="cls-1" d="M157,59.7l5.6-2.5c2.5-1.1,3.5-4,2.3-6.5-6.7-13.1-16.4-24.4-28.2-32.9-2.2-1.6-5.3-1-6.7,1.2l-3.3,5.1c13.2,8.6,23.9,21,30.4,35.5Z"/>
        <path class="cls-1" d="M128.4,12.4C116,5.2,101.9.9,86.8,0c-2.7-.1-5,2-5,4.7v6.1c16.5,0,31.9,4.9,44.8,13.3l3.3-5.1c1.5-2.3.7-5.3-1.6-6.7Z"/>
        <path class="cls-1" d="M126.7,24.1l-18.8,29c-1.3,2-.9,4.7,1,6.2,4.3,3.4,7.9,7.6,10.6,12.4,1.2,2.1,3.8,2.9,6,2l31.6-14.1c-6.5-14.6-17.1-26.9-30.4-35.5Z"/>
        <path class="cls-1" d="M126.7,24.1c-12.9-8.4-28.3-13.3-44.8-13.3v34.6c0,2.4,1.9,4.5,4.3,4.7,5.6.5,10.8,2.2,15.5,4.6,2.2,1.1,4.8.4,6.1-1.6l18.8-29Z"/>
        <path class="cls-1" d="M41.2,10.9h40.7v33.5c0,2.6-2.1,4.7-4.7,4.7h-31.2c-2.6,0-4.7-2.1-4.7-4.7V10.9h0Z"/>
        <path class="cls-1" d="M45.9-.5h31.2c2.6,0,4.7,2.1,4.7,4.7v6.6h-40.7v-6.6c0-2.6,2.1-4.7,4.7-4.7Z"/>
        <path class="cls-1" d="M.5,10.9h40.7v33.5c0,2.6-2.1,4.7-4.7,4.7H5.3c-2.6,0-4.7-2.1-4.7-4.7V10.9h0Z"/>
        <path class="cls-1" d="M5.3-.5h31.2c2.6,0,4.7,2.1,4.7,4.7v6.6H.5v-6.6C.5,1.7,2.7-.5,5.3-.5Z"/>
        <path class="cls-1" d="M157,127l5.6,2.5c2.5,1.1,3.5,4,2.3,6.5-6.7,13.1-16.4,24.4-28.2,32.9-2.2,1.6-5.3,1-6.7-1.2l-3.3-5.1c13.2-8.6,23.9-21,30.4-35.5Z"/>
        <path class="cls-1" d="M128.4,174.3c-12.3,7.1-26.5,11.5-41.5,12.3-2.7.1-5-2-5-4.7v-6.1c16.5,0,31.9-4.9,44.8-13.3l3.3,5.1c1.5,2.3.7,5.3-1.6,6.7Z"/>
        <path class="cls-1" d="M126.7,162.5l-18.8-29c-1.3-2-.9-4.7,1-6.2,4.3-3.4,7.9-7.6,10.6-12.4,1.2-2.1,3.8-2.9,6-2l31.6,14.1c-6.5,14.6-17.1,26.9-30.4,35.5Z"/>
        <path class="cls-1" d="M126.7,162.5c-12.9,8.4-28.3,13.3-44.8,13.3v-34.6c0-2.4,1.9-4.5,4.3-4.7,5.6-.5,10.8-2.2,15.5-4.6,2.2-1.1,4.8-.4,6.1,1.6l18.8,29Z"/>
        <path class="cls-1" d="M168.9,59.8c-1-2.5-3.9-3.7-6.3-2.6l-5.6,2.5c3,6.6,5.1,13.7,6.2,21h0c.7,4.3,1,8.5,1,12.6,0,4.2-.3,8.4-1,12.6h0c-1.1,7.3-3.2,14.4-6.2,21.1l5.6,2.5c2.5,1.1,5.4-.1,6.3-2.6,4-10.5,6.2-21.8,6.2-33.5,0-11.7-2.1-23-6.2-33.5Z"/>
        <path class="cls-1" d="M157,59.7l-31.6,14.1c-2.2,1-3.3,3.5-2.6,5.8,1.2,3.6,1.9,7.3,2.2,11.1,0,.1,0,.2,0,.4,0,.8,0,1.5,0,2.3,0,.8,0,1.5,0,2.3,0,.1,0,.2,0,.4-.2,3.8-1,7.6-2.2,11.1-.8,2.3.3,4.8,2.6,5.8l31.6,14.1c4.6-10.4,7.2-21.8,7.2-33.7,0-11.9-2.5-23.3-7.2-33.7Z"/>
        <path class="cls-1" d="M45.9,137.5h31.2c2.6,0,4.7,2.1,4.7,4.7v33.5h-40.7v-33.5c0-2.6,2.1-4.7,4.7-4.7Z"/>
        <path class="cls-1" d="M41.2,175.8h40.7v6.6c0,2.6-2.1,4.7-4.7,4.7h-31.2c-2.6,0-4.7-2.1-4.7-4.7v-6.6h0Z"/>
        <path class="cls-1" d="M5.3,137.5h31.2c2.6,0,4.7,2.1,4.7,4.7v33.5H.5v-33.5c0-2.6,2.1-4.7,4.7-4.7Z"/>
        <path class="cls-1" d="M.5,175.8h40.7v6.6c0,2.6-2.1,4.7-4.7,4.7H5.3c-2.6,0-4.7-2.1-4.7-4.7v-6.6h0Z"/>
      </g>
      <g>
        <circle class="cls-3" cx="65" cy="92.3" r="22.8" transform="translate(-46.2 73) rotate(-45)"/>
        <g>
          <path class="cls-2" d="M65,69.5c12.6,0,22.8,10.2,22.8,22.8s-10.2,22.8-22.8,22.8-22.8-10.2-22.8-22.8,10.2-22.8,22.8-22.8M65,65.7c-14.6,0-26.6,11.9-26.6,26.6s11.9,26.6,26.6,26.6,26.6-11.9,26.6-26.6-11.9-26.6-26.6-26.6h0Z"/>
          <path d="M65,119.2c-14.8,0-26.9-12.1-26.9-26.9s12.1-26.9,26.9-26.9,26.9,12.1,26.9,26.9-12.1,26.9-26.9,26.9ZM65,66.1c-14.4,0-26.2,11.7-26.2,26.2s11.7,26.2,26.2,26.2,26.2-11.7,26.2-26.2-11.7-26.2-26.2-26.2ZM65,115.5c-12.8,0-23.2-10.4-23.2-23.2s10.4-23.2,23.2-23.2,23.2,10.4,23.2,23.2-10.4,23.2-23.2,23.2ZM65,69.9c-12.4,0-22.4,10.1-22.4,22.4s10.1,22.4,22.4,22.4,22.4-10.1,22.4-22.4-10.1-22.4-22.4-22.4Z"/>
        </g>
        <path class="cls-3" d="M47.3,89s0,0,0,0c0-.1,0-.2-.2-.2-.1.5,0,1-.1,1.5,0,.3-.2.6-.3,1,0,.3-.1.7-.1,1,0,0,.1-.2.1-.3,0,0,0-.2.2-.2,0,0,0,0,.1,0,.4.2.4.8.5,1.2,0,.1,0,.3,0,.4,0,0,0,.1,0,.2s0,.2,0,.2c0,0,0,0,.1,0,0,0,.2,0,.3,0,0,.4.2.7.5,1-.1,0-.2,0-.3,0,0,0-.1.1-.2.2,0,.1-.1.3,0,.4-.1-.2-.2-.4-.4-.5-.3.9-.4,1.9-.3,2.9,0,.9.3,1.8.6,2.7.2.7.6,1.3.9,1.9.5.8,1,1.5,1.8,2,0-.2,0-.5.3-.6.3,0,.6.2.9.5.7.8,1.5,1.6,2.2,2.4-.2-.1-.6.1-.5.4.6.4,1.2.7,1.8,1-.4.2-.8.5-1.2.7,2.4.8,4.8,1.6,7.2,2.5.3,0,.7,0,.6-.2.5.7,1.7.7,2.1,0-.5-.2-1-.4-1.4-.6,1.7-.6,3.7-1.1,5,0,0,.2-.2.5-.3.7.7-.1,1.4-.2,2-.4,1.2-.2,2.4-.5,3.6-.9.3,0,.5-.2.8-.2.2,0,.3,0,.4-.2.1,0,1.1-1.3,1-1.4-.2-.1-.4-.3-.6-.4.7-.6,1.3-1.3,2-1.9,0,.2.1.4.3.6.1-.3.5-.4.8-.3-.2.2,0,.5.4.6.3,0,.5-.2.7-.4.9-.9,1.3-2.2,1.1-3.4,0,.3.5.2.6,0,0-.3,0-.5-.1-.8-.1-.6.2-1.2.7-1.4-.3.3.2.9.7.8.4,0,.7-.5.9-.9,1-2.2,1.1-4.9,0-7,.2.2.6.4.9.4-.1.2,0,.5.2.7.4-2.2.4-4.5,0-6.7,0-.6-.4-1.4-1-1.3-.3.2-.4.7-.7,1-.3.3-.8.4-1,0,0-.2,0-.5,0-.7.4-.9.2-2-.3-2.8.3,0,.5.2.8.3.5-.4.4-1.2,0-1.8-.3-.6-.8-1.2-.6-1.8-.5-.6-1.6-.5-1.9.3-.6-.4-1.4-.6-2.2-.6.1-.4.2-.8.3-1.2,0-.2,0-.3,0-.5,0-.1-.2-.2-.3-.3-.3-.2-.6-.3-1-.5,0,0,0,0,0-.1,0,0,0,0-.1,0-.6-.3-1.2-.4-1.7-.8.1,0,.2,0,.3,0,0,0,0-.1,0-.2-.7-.3-1.4-.5-2.2-.8,0,0,0,0,0,.1.1,0,.2,0,.2.2-.3,0-.5-.2-.8-.4-.3-.2-.7-.3-1.1-.4-.3,0-.5-.1-.8-.1-.2,0-.4,0-.6.1-.5-.1-1.1-.2-1.7-.1-.7,0-1.4.5-1.8,1.1l-.2.3c0,0,.2,0,.2,0-.2.2-1.3.8-1.6,1,.4-.7,0-1.7-.7-2.1.4,0,.9,0,1.3-.1-.9-.9-2.4-1-3.6-.6s-2.4.9-3.6,1.2c-.4,0-.8.1-1.1.4s-.5.8-.2,1c-.8.5-1.4,1.3-1.6,2.2-.3.1-.4-.4-.2-.7.2-.3.5-.5.4-.9-.4-.3-.9,0-1.3.3-1.7,1.2-3.1,3-3.8,5,.5-.1,1.1.3,1,.8-.4-.4-1.2-.1-1.2.4-.3,0-.6-.2-.9-.3-.7,1.4-1,3.1-.9,4.6Z"/>
        <g>
          <path class="cls-3" d="M84.1,112.7c-.5-.2-1.9-4.2-6.9-3.5,3.5,5,6.9,3.5,6.9,3.5Z"/>
          <path class="cls-3" d="M77.8,75.2c.8.2,2.8-1.1,3.9-2.9-2.9-.2-3.9,2.9-3.9,2.9Z"/>
          <path class="cls-3" d="M73.5,115.6s1.4-3.2-.5-4.5c-2,1.1.5,4.5.5,4.5Z"/>
          <path class="cls-3" d="M81.6,78s-2.9-2-4.6-.4c.8,2.2,4.6.4,4.6.4Z"/>
          <path class="cls-3" d="M43.9,87.1c.2,0,2-.8,2.7,0-.5,1.4-2.7,0-2.7,0Z"/>
          <path class="cls-3" d="M42.5,79.6s1.8,4.9,5.4,3.9c-.2-3.3-5.4-3.9-5.4-3.9Z"/>
          <path class="cls-3" d="M50,75.7s-1.4,3.3-.2,5.2c2.3-1.8.2-5.2.2-5.2Z"/>
          <path class="cls-3" d="M77.8,66.6s-4.5,2.4-3.1,5.8c3.2-.7,3.1-5.8,3.1-5.8Z"/>
        </g>
      </g>
    </g>
  </g>
</svg>