<?xml version="1.0" encoding="UTF-8"?>
<svg xmlns="http://www.w3.org/2000/svg" version="1.1" viewBox="0 0 48.1 85">
  <defs>
    <style>
      .cls-1 {
        fill: #fff;
        stroke: #000;
        stroke-miterlimit: 10;
        stroke-width: 1.1px;
      }
    </style>
  </defs>
  <!-- Generator: Adobe Illustrator 28.6.0, SVG Export Plug-In . SVG Version: 1.2.0 Build 709)  -->
  <g>
    <g id="Layer_1">
      <g>
        <g>
          <path class="cls-1" d="M8.5,10.3v2.2l1.3-1.5c-.5,0-1-.4-1.3-.8Z"/>
          <path class="cls-1" d="M44.4,40.1h0c-1.7,0-3.2-1.4-3.2-3.2v-18.4c-.3.4-.7.7-1,1-4.6,2.5-11.4.3-13.6-3.3-1.1-1.7-1.3-3.5-1-5.2h-5.9l.3.8,6.3,5-8.7,6-3.3,6.9-4.6-7.6-1.1-.8v15.5c0,1.7-1.4,3.2-3.2,3.2h0c-1.7,0-3.2-1.4-3.2-3.2v4.8c0,4.5,3.7,8.2,8.2,8.2h29c4.5,0,8.2-3.7,8.2-8.2v-4.8c0,1.7-1.4,3.2-3.2,3.2Z"/>
          <path class="cls-1" d="M8,.5c-.1,0-.3,0-.4,0,.1,0,.3,0,.4,0h0Z"/>
          <polygon class="cls-1" points="2.2 36.9 2.2 36.9 2.2 23.2 2.2 36.9"/>
          <path class="cls-1" d="M7.6.6c-3,.2-5.4,2.7-5.4,5.8v3-3C2.2,3.3,4.6.8,7.6.6Z"/>
          <path class="cls-1" d="M5.3,40.1h0c1.7,0,3.2-1.4,3.2-3.2v-15.5l-6.3-4.6v20.1c0,1.7,1.4,3.2,3.2,3.2Z"/>
          <path class="cls-1" d="M24.9,7.4h-6.8l1.6,3.7h5.9c.2-1.4.9-2.6,1.7-3.7h-2.4Z"/>
          <path class="cls-1" d="M9.8,11.1l3.3-3.7h-4.7v2.9c.3.4.8.7,1.3.8Z"/>
          <path class="cls-1" d="M41.7.5H8c-.1,0-.3,0-.4,0-3,.2-5.4,2.7-5.4,5.8v9.3l5.2-1.9,1.1-1.2v-5.2h4.7l.8-.9,2.5-2.8,1.2,2.8.4.9h9.2c.3-.3.5-.6.8-.9.1-.1.2-.2.3-.3,1.4-.8,3.2-1.3,5-1.3,1.4,0,3.5.5,5.5,1.6.4.3.9.6,1.3.9.4.3.7.6,1,.9.2.2.3.4.4.5,1.3,1.8,1.9,4.3.9,7.5-.3.8-.8,1.5-1.3,2.1v18.4c0,1.7,1.4,3.2,3.2,3.2s3.2-1.4,3.2-3.2V6.4h0c0-3.2-2.6-5.8-5.8-5.8Z"/>
          <polygon class="cls-1" points="20 11.9 19.7 11.1 18.1 7.4 17.7 6.5 16.5 3.8 14 6.5 13.2 7.4 9.8 11.1 8.5 12.6 7.4 13.8 2.2 15.7 1.1 16.1 2.2 16.8 8.5 21.4 9.6 22.2 14.3 29.8 17.6 22.9 26.3 17 20 11.9"/>
          <path class="cls-1" d="M41.7,8.9c-.1-.2-.3-.4-.4-.5-.3-.3-.6-.7-1-.9-.4-.3-.8-.6-1.3-.9-1.9-1.1-4.1-1.6-5.5-1.6-1.9,0-3.6.5-5,1.3-.1.1-.2.2-.3.3-.3.3-.6.6-.8.9-.9,1.1-1.5,2.3-1.7,3.7-.3,1.7,0,3.4,1,5.2,2.2,3.6,9.1,5.8,13.6,3.3.3-.3.7-.6,1-1,.5-.6,1.1-1.3,1.3-2.1,1.1-3.3.5-5.7-.9-7.5Z"/>
        </g>
        <rect class="cls-1" x="2.2" y="56.2" width="45.4" height="28.3" rx="8.1" ry="8.1"/>
      </g>
    </g>
  </g>
</svg>