<?xml version="1.0" encoding="UTF-8"?>
<svg xmlns="http://www.w3.org/2000/svg" version="1.1" viewBox="0 0 46.5 50.5">
  <defs>
    <style>
      .cls-1 {
        fill: #fff;
        stroke: #000;
        stroke-miterlimit: 10;
        stroke-width: 1.1px;
      }
    </style>
  </defs>
  <!-- Generator: Adobe Illustrator 28.6.0, SVG Export Plug-In . SVG Version: 1.2.0 Build 709)  -->
  <g>
    <g id="Layer_1">
      <g>
        <path class="cls-1" d="M31,1.9c.3.1.7.3,1,.4-.3-.1-.7-.3-1-.4Z"/>
        <path class="cls-1" d="M37.7,5.7c-.6-.5-1.1-.9-1.8-1.3.6.4,1.2.8,1.8,1.3h0Z"/>
        <g>
          <path class="cls-1" d="M22.7,7.4l1.7.6,1.8-.3c-1-.2-1.9-.3-2.9-.3h0c-.2,0-.4,0-.5,0Z"/>
          <path class="cls-1" d="M42.8,40.1h0c-1.7,0-3.2-1.4-3.2-3.2v-13.1c0-3.7-1.3-7.2-3.4-10l-.2.8,1.9,8.3-11.1-.7-7.2,3.6,1.1-9.3-2.3-8.3c-6.7,2.1-11.5,8.3-11.5,15.6v13.1c0,1.7-1.4,3.2-3.2,3.2h0c-1.7,0-3.2-1.4-3.2-3.2v4.8c0,4.5,3.7,8.2,8.2,8.2h29c4.5,0,8.2-3.7,8.2-8.2v-4.8c0,1.7-1.4,3.2-3.2,3.2Z"/>
          <path class="cls-1" d="M23.2.5c-5.9,0-11.4,2.3-15.4,6C11.9,2.8,17.3.5,23.2.5h0Z"/>
          <path class="cls-1" d="M7.4,7c-.1.1-.3.3-.4.4.1-.1.3-.3.4-.4Z"/>
        </g>
        <path class="cls-1" d="M34.1,3.3c.3.2.6.4,1,.5-.3-.2-.6-.4-1-.5Z"/>
        <path class="cls-1" d="M35,3.8c.3.2.6.4.9.6-.3-.2-.6-.4-.9-.6Z"/>
        <g>
          <path class="cls-1" d="M39.5,7.4c-.4-.4-.8-.8-1.3-1.2l-2,7.6c2.1,2.8,3.4,6.2,3.4,10v13.1c0,1.7,1.4,3.2,3.2,3.2h0c1.7,0,3.2-1.4,3.2-3.2h0v-13.7c0-6.2-2.4-11.7-6.4-15.8Z"/>
          <path class="cls-1" d="M35.9,4.4c-.3-.2-.6-.4-.9-.6s-.6-.4-1-.5c-.6-.3-1.3-.7-2-1-.3-.1-.7-.3-1-.4-.2,0-.3-.1-.5-.2-.4-.1-.9-.3-1.3-.4-1.9-.5-3.9-.8-6-.8h0c-7,0-13.3,3.2-17.5,8.3-.1.1-.2.3-.3.4-.2.3-.4.6-.7.9-.4.6-.8,1.2-1.2,1.8-.3.5-.5,1-.8,1.5-.1.2-.2.5-.3.7-.2.5-.5,1.1-.7,1.7-.1.3-.2.6-.3.9-.3.8-.5,1.7-.6,2.6-.2,1.3-.4,2.6-.4,4v13.7c0,1.7,1.4,3.2,3.2,3.2h0c1.7,0,3.2-1.4,3.2-3.2v-13.1c0-7.4,4.8-13.6,11.5-15.6l-.7-2.4,5,1.6c.2,0,.4,0,.5,0h0c1,0,2,0,2.9.3l11.5-2c-.6-.5-1.1-.9-1.8-1.3Z"/>
        </g>
        <polygon class="cls-1" points="38.4 5.6 26.2 7.7 24.4 8 22.7 7.4 17.7 5.8 18.4 8.2 20.7 16.4 19.6 25.7 26.8 22.2 37.9 22.9 36 14.7 36.2 13.8 38.4 5.6"/>
      </g>
    </g>
  </g>
</svg>