<?xml version="1.0" encoding="UTF-8"?>
<svg xmlns="http://www.w3.org/2000/svg" version="1.1" viewBox="0 0 383 676">
  <defs>
    <style>
      .cls-1 {
        fill-rule: evenodd;
      }

      .cls-1, .cls-2 {
        fill: #fff;
      }

      .cls-3 {
        fill: #b3b3b3;
      }
    </style>
  </defs>
  <!-- Generator: Adobe Illustrator 28.6.0, SVG Export Plug-In . SVG Version: 1.2.0 Build 709)  -->
  <g>
    <g id="Layer_1">
      <g>
        <g>
          <g>
            <g>
              <polygon class="cls-1" points="120 367.4 120 227.8 246.6 267.8 246.6 367.4 120 367.4"/>
              <path d="M246.5,369h-126.6c-.9,0-1.6-.7-1.6-1.6v-139.6c0-.5.2-1,.7-1.3.4-.3,1-.4,1.4-.2l126.6,40c.7.2,1.1.8,1.1,1.5v99.6c0,.9-.7,1.6-1.6,1.6ZM121.6,365.8h123.3v-96.8l-123.3-39v135.8Z"/>
            </g>
            <g>
              <polygon class="cls-1" points="120 367.4 120 506.9 246.6 466.9 246.6 367.4 120 367.4"/>
              <path d="M120,508.5c-.3,0-.7-.1-1-.3-.4-.3-.7-.8-.7-1.3v-139.5c0-.9.7-1.6,1.6-1.6h126.6c.9,0,1.6.7,1.6,1.6v99.5c0,.7-.5,1.3-1.1,1.5l-126.6,40c-.2,0-.3,0-.5,0ZM121.6,369v135.7l123.3-39v-96.7h-123.3Z"/>
            </g>
            <g>
              <polygon class="cls-1" points="120 506.9 245.6 632.5 302.6 522.9 246.6 466.9 120 506.9"/>
              <path d="M245.6,634.1c-.4,0-.8-.2-1.1-.5l-125.6-125.6c-.4-.4-.6-1-.4-1.5.1-.5.5-1,1.1-1.2l126.6-40c.6-.2,1.2,0,1.6.4l56,56c.5.5.6,1.3.3,1.9l-57,109.6c-.2.5-.7.8-1.2.9,0,0-.2,0-.2,0ZM123,507.6l122.2,122.2,55.4-106.6-54.5-54.5-123.1,38.9Z"/>
            </g>
            <g>
              <polygon class="cls-1" points="120 506.9 231.9 618.8 245.6 592.1 150.7 497.2 120 506.9"/>
              <path d="M231.9,620.4c-.4,0-.8-.2-1.1-.5l-111.9-111.9c-.4-.4-.6-1-.4-1.5.1-.5.5-1,1.1-1.2l30.7-9.7c.6-.2,1.2,0,1.6.4l94.9,94.9c.5.5.6,1.3.3,1.9l-13.7,26.6c-.2.5-.7.8-1.2.9,0,0-.2,0-.3,0ZM123,507.6l108.4,108.4,12.2-23.6-93.4-93.4-27.2,8.6Z"/>
            </g>
            <g>
              <polygon class="cls-1" points="150.7 367.4 120 367.4 120 506.9 150.7 497.2 150.7 367.4"/>
              <path d="M120,508.5c-.3,0-.7-.1-1-.3-.4-.3-.7-.8-.7-1.3v-139.5c0-.9.7-1.6,1.6-1.6h30.7c.9,0,1.6.7,1.6,1.6v129.8c0,.7-.5,1.3-1.1,1.5l-30.7,9.7c-.2,0-.3,0-.5,0ZM121.6,369v135.7l27.4-8.7v-127h-27.4Z"/>
            </g>
            <g>
              <polygon class="cls-1" points="120 367.4 150.7 367.4 150.7 237.4 120 227.8 120 367.4"/>
              <path d="M150.7,369h-30.7c-.9,0-1.6-.7-1.6-1.6v-139.6c0-.5.2-1,.7-1.3.4-.3,1-.4,1.4-.2l30.7,9.7c.7.2,1.1.8,1.1,1.5v130c0,.9-.7,1.6-1.6,1.6ZM121.6,365.8h27.4v-127.2l-27.4-8.7v135.8Z"/>
            </g>
            <g>
              <polygon class="cls-1" points="120 227.8 245.6 102.1 302.6 211.8 246.6 267.8 120 227.8"/>
              <path d="M246.5,269.4c-.2,0-.3,0-.5,0l-126.6-40c-.5-.2-.9-.6-1.1-1.2-.1-.6,0-1.1.4-1.5l125.6-125.6c.4-.4.9-.5,1.4-.5.5,0,1,.4,1.2.9l57,109.6c.3.6.2,1.4-.3,1.9l-56,56c-.3.3-.7.5-1.1.5ZM123,227l123.1,38.9,54.5-54.5-55.4-106.6-122.2,122.2Z"/>
            </g>
            <g>
              <polygon class="cls-1" points="120 227.8 231.9 115.9 245.6 142.5 150.7 237.4 120 227.8"/>
              <path d="M150.7,239.1c-.2,0-.3,0-.5,0l-30.7-9.7c-.5-.2-1-.6-1.1-1.2-.1-.6,0-1.1.4-1.5l111.9-111.9c.4-.4.9-.5,1.4-.5.5,0,1,.4,1.2.9l13.7,26.6c.3.6.2,1.4-.3,1.9l-94.9,94.9c-.3.3-.7.5-1.1.5ZM123,227l27.2,8.6,93.4-93.4-12.2-23.6-108.4,108.4Z"/>
            </g>
            <g>
              <path class="cls-1" d="M302.6,522.9l-57,109.6c18.7,7.1,49.2,5.8,65.4-26.3,16-32,1-70.6-8.4-83.3h0Z"/>
              <path d="M265,637.6h0c-6.8,0-13.8-1.3-20-3.6-.4-.2-.8-.5-.9-.9-.2-.4-.1-.9,0-1.3l57-109.6c.3-.5.8-.8,1.3-.9.6,0,1.1.2,1.4.7,9.5,13,24.9,52.3,8.5,85-13.4,26.7-35.5,30.7-47.4,30.7ZM247.9,631.6c5.4,1.8,11.3,2.8,17.2,2.8h0c11.2,0,31.8-3.8,44.5-28.9,14.8-29.7,2.4-65.2-6.8-79.4l-54.9,105.6Z"/>
            </g>
            <path d="M247,592.9l-2.9-1.5,5.6-10.6-86.8-86.7c-.3-.3-.5-.7-.5-1.1v-251.4c0-.4.2-.8.5-1.1l86.8-86.8-5.6-10.4,2.8-1.5,6.1,11.5c.3.6.2,1.4-.3,1.9l-87.2,87.2v250l87.2,87c.5.5.6,1.3.3,1.9l-6.1,11.6Z"/>
            <g>
              <path class="cls-1" d="M274.5,73.7c-14.9,13.7-14.9,14.4-28.9,28.4l57,109.6c26-25.5,44.6-78.9,44.6-118.5-.2-22-2.6-48.8-18.2-52.3-16.1-3.7-39.4,19.1-54.4,32.8h0Z"/>
              <path d="M302.6,213.4c0,0-.2,0-.3,0-.5,0-.9-.4-1.2-.9l-57-109.6c-.3-.6-.2-1.4.3-1.9,4.3-4.3,7.3-7.4,9.9-10,5.7-5.8,8.8-9,19.1-18.5l3.2-2.9c14.1-13,33.3-30.7,48.6-30.7s2.8.2,4,.4c17.1,3.9,19.3,32.6,19.5,53.9,0,42.3-19.8,94.9-45,119.7-.3.3-.7.5-1.1.5ZM247.6,102.5l55.4,106.6c23.6-24.5,42.5-75.8,42.5-115.8-.2-31.6-5.8-48.2-17-50.7-1.1-.2-2.2-.4-3.3-.4-14.1,0-32.8,17.2-46.5,29.8l-3.2,2.9c-10.2,9.4-13.3,12.6-19,18.4-2.4,2.4-5.1,5.2-9,9.2Z"/>
            </g>
            <path d="M253.2,154.6l-3-1.3,3.9-9.1-17.9-33.5,2.8-1.5,18.2,34.2c.2.4.3.9,0,1.4l-4.2,9.9Z"/>
            <rect x="249.1" y="138.1" width="3.2" height="10.5" transform="translate(70.5 369) rotate(-81.1)"/>
            <path d="M238.6,625l-2.8-1.5,17.9-33.4-3.4-9,3-1.2,3.7,9.7c.2.4.1.9,0,1.3l-18.2,34.1Z"/>
            <rect x="245.5" y="589.5" width="10" height="3.2" transform="translate(-109.3 59.4) rotate(-11.1)"/>
          </g>
          <g>
            <polygon class="cls-1" points="120 227.8 120 102.1 245.6 102.1 120 227.8"/>
            <path class="cls-3" d="M119.4,229.1v-127.5h105.7v.5c.4,4,0,5.5-1,8.4-.4,1.4-1,3.1-1.6,5.6-.8,3.2-.9,6.3-.3,9.6v.3s-.2.2-.2.2l-102.7,102.8ZM120.5,102.7v123.7l100.5-100.7c-.6-3.4-.4-6.5.4-9.8.6-2.5,1.2-4.3,1.6-5.7.9-2.8,1.3-4.1,1-7.5h-103.5Z"/>
            <path class="cls-3" d="M119.4,206.6v-105h64.6v.6c-.4,4.4-.7,8.7-1,13.2-.2,3.7.1,6.2.3,8.1.4,4.1.7,6.4-3.4,14.7-1.7,3.6-2.9,7.1-4.1,10.4-1.7,4.8-3.5,9.8-6.4,14.9-3.2,5.4-3.8,7.3-5.3,11.8-.3.9-.7,1.9-1.1,3.1-2.2,6.8-6.5,9.8-11.5,13.3-1.3.9-2.6,1.9-4,2.9-6.3,5-9.7,6.4-17.5,8.2-1.7.4-3.8,1.2-5.9,2-1.3.5-2.7,1-3.9,1.4l-.7.2ZM120.5,102.7v102.3c1-.3,2-.7,3.2-1.2,2.1-.8,4.2-1.6,6-2,7.6-1.8,10.9-3.1,17-8,1.4-1.1,2.7-2,4-2.9,4.8-3.4,9-6.3,11.1-12.8.4-1.2.8-2.2,1.1-3.1,1.5-4.4,2.2-6.5,5.4-12,2.9-5.1,4.6-9.8,6.3-14.7,1.2-3.4,2.5-6.9,4.1-10.6,4-8,3.7-10.1,3.3-14.1-.2-2-.5-4.5-.3-8.3.3-4.3.6-8.5.9-12.6h-62.3Z"/>
            <path class="cls-3" d="M119.4,229.1v-127.5h84.9v.5c.3,3.3.8,11,1.6,13.2.9,2.2,2.1,4.2,3.3,6.1,2.6,4.1,5,8.1,4.1,13.6v.2s-94,93.9-94,93.9ZM120.5,102.7v123.7l91.7-91.7c.8-5-1.6-8.7-4-12.6-1.2-2-2.5-4-3.4-6.3-.8-2-1.2-7.4-1.6-13h-82.7Z"/>
            <path class="cls-3" d="M119.4,229.1v-127.5h71.7v.6c0,5.3.2,11.3.6,12.8.9,3.1,3.4,5.7,5.9,8.2,2.9,2.9,5.5,5.7,5.4,9.1,0,2.3-1.4,4.5-4,7-1.2,1.1-2.4,2-3.6,2.9-3.6,2.8-7,5.4-8,10.2-1.5,6.9-2.5,8.3-5.4,12-.7.9-1.5,1.9-2.4,3.2-1.1,1.4-1.9,2.6-2.5,4v.2c-.1,0-57.6,57.5-57.6,57.5ZM120.5,102.7v123.7l55.5-55.5c.7-1.4,1.5-2.7,2.6-4,.9-1.3,1.7-2.3,2.4-3.2,2.9-3.7,3.8-4.9,5.2-11.6,1.1-5.2,4.7-7.9,8.4-10.8,1.2-.9,2.4-1.8,3.5-2.9,2.4-2.2,3.6-4.2,3.7-6.1,0-2.9-2.4-5.6-5.1-8.3-2.5-2.6-5.1-5.3-6.1-8.7-.6-2-.7-9.9-.7-12.5h-69.4Z"/>
            <path class="cls-3" d="M119.4,229.1v-127.5h124.2v.6c0,.4,0,.8,0,1.2,0,.4,0,.7,0,1.1v.2l-.2.2-124.2,124.3ZM120.5,102.7v123.7l122-122.2c0-.2,0-.5,0-.7,0-.2,0-.5,0-.7h-121.9Z"/>
            <path class="cls-3" d="M119.4,178.8v-77.3h39.1v1.3c-.6,4.3-1.2,9.7-.9,11.6.5,2.4,1,3.8,1.5,5.1.8,2.3,1.4,4,1.1,9.6,0,1.4,0,2.7,0,3.9,0,7.6,0,10.7-10.2,13.7-5.3,1.4-6,4.2-7.1,8.4-.3,1.2-.7,2.6-1.2,4.1v.4c-1.5,4.6-3.3,10.3-8.5,11.8l-1.9.6q-3.8,1.2-7,3.3c-.6.4-1.3.8-2.1,1.4l-2.8,2.1ZM120.5,102.7v73.9l1-.8c.9-.6,1.5-1,2.1-1.4,3.3-2.2,3.3-2.2,7.3-3.4l1.9-.6c4.6-1.3,6.2-6.5,7.6-11v-.4c.6-1.5,1-2.8,1.3-4.1,1.1-4.3,2-7.7,7.9-9.2,9.3-2.8,9.3-5.3,9.4-12.7,0-1.2,0-2.5,0-3.9.3-5.3-.2-6.9-1.1-9.1-.4-1.2-1-2.8-1.5-5.3-.3-2.1.2-7.3.7-12h0s-36.7,0-36.7,0Z"/>
            <path class="cls-3" d="M119.4,122.5v-20.9h12.6l-.3.8c-3.2,7.5-6.6,13.2-11.2,18.9l-1,1.2ZM120.5,102.7v16.5c3.9-5,6.9-10.1,9.7-16.5h-9.7Z"/>
            <path class="cls-3" d="M119.4,156.4v-54.8h25.8v.6c-1.1,6.8-1.3,9.9,2.1,17.9,2.2,5,2.5,9.2.8,13.7-1.2,2.8-4.3,3.4-7.3,4-1.5.3-3.1.6-4.5,1.2-4,1.8-5.9,4.4-8.2,7.6-.8,1.1-1.5,2.1-2.4,3.2-1.5,1.8-3.2,3.8-5.4,5.7l-1,.9ZM120.5,102.7v51.1c1.7-1.6,3.1-3.2,4.3-4.7.9-1.1,1.6-2.1,2.4-3.2,2.2-3.1,4.4-6.1,8.6-8,1.5-.6,3.2-.9,4.7-1.2,2.9-.6,5.5-1,6.4-3.3,1.6-4.1,1.3-8-.8-12.8-3.5-8-3.3-11.4-2.4-17.9h-23.3Z"/>
            <path class="cls-3" d="M119.4,192.6v-91h50.4v.6c-.2,4.5-.6,9.3-1.3,15.2-.2,1.8-.3,3.4-.3,5.1,0,1.6,0,3.3-.3,5.3-.3,2.1-.4,3.9-.6,5.3-.8,7.9-.9,8.5-7.7,18-3.4,5.2-3.9,11.6-4.5,17.7-.6,7.5-1.2,14.6-6.6,19.5-1.9,1.7-3.8,2.6-6,2.6s-4.1-.8-6.1-1.6c-1.9-.8-3.8-1.5-5.7-1.5s-1.8.2-2.7.6c-.9.5-1.9,1-2.9,1.5-1.4.7-2.8,1.5-4.2,2.2l-1.6.6ZM120.5,102.7v88.2h0c1.4-.6,2.8-1.4,4.1-2.1,1-.5,2-1.1,3-1.6,1-.5,2.1-.7,3.1-.7,2.1,0,4.1.8,6.1,1.6,1.9.8,3.7,1.5,5.6,1.5s3.5-.7,5.2-2.3c5-4.6,5.6-11.5,6.2-18.7.5-6.3,1.1-12.9,4.7-18.3,6.7-9.3,6.8-9.7,7.6-17.5.2-1.5.3-3.2.6-5.4.2-1.9.3-3.6.3-5.2,0-1.6,0-3.3.3-5.2.7-5.6,1.1-10.3,1.3-14.5h-48.1Z"/>
            <path class="cls-3" d="M119.4,229.1v-127.5h127.5l-1,1-126.6,126.6ZM120.5,102.7v123.7l123.7-123.7h-123.7Z"/>
            <path class="cls-3" d="M119.4,229.1v-127.5h127.5l-1,1-126.6,126.6ZM120.5,102.7v123.7l123.7-123.7h-123.7Z"/>
            <path class="cls-3" d="M119.4,229.1v-127.5h127.5l-1,1-126.6,126.6ZM120.5,102.7v123.7l123.7-123.7h-123.7Z"/>
            <path class="cls-3" d="M119.4,229.1v-127.5h127.5l-1,1-126.6,126.6ZM120.5,102.7v123.7l123.7-123.7h-123.7Z"/>
            <path d="M120,229.4c-.2,0-.4,0-.6-.1-.6-.3-1-.8-1-1.5v-125.6c0-.9.7-1.6,1.6-1.6h125.6c.7,0,1.2.4,1.5,1,.3.6.1,1.3-.4,1.8l-125.6,125.6c-.3.3-.7.5-1.1.5ZM121.6,103.8v120.1l120.1-120.1h-120.1Z"/>
          </g>
        </g>
        <g>
          <g>
            <path class="cls-1" d="M18.4,405.8c15.5-15.7,41-15.7,56.7,0,15.5,15.7,15.5,41,0,56.7-15.7,15.7-41.2,15.7-56.7,0-15.7-15.7-15.7-41,0-56.7h0Z"/>
            <path d="M46.7,475.9c-11.2,0-21.6-4.3-29.4-12.2-16.2-16.2-16.2-42.7,0-58.9,7.8-7.9,18.2-12.2,29.4-12.2s21.7,4.3,29.5,12.2c16.1,16.3,16.1,42.7,0,58.9-7.9,7.9-18.4,12.2-29.5,12.2ZM46.7,395.7c-10.3,0-19.9,4-27.1,11.3-15,15-15,39.4,0,54.4,7.2,7.3,16.8,11.3,27.1,11.3s20-4,27.3-11.3c14.8-15,14.8-39.4,0-54.4-7.3-7.3-16.9-11.3-27.2-11.3Z"/>
          </g>
          <g>
            <path class="cls-1" d="M99.6,433.8c0-16.8,21.8-30.4,48.8-30.4s48.9,13.6,48.9,30.4-22,30.4-48.9,30.4-48.8-13.6-48.8-30.4h0Z"/>
            <path d="M148.4,465.7c-27.8,0-50.4-14.3-50.4-32s22.6-32,50.4-32,50.5,14.3,50.5,32-22.7,32-50.5,32ZM148.4,405c-26,0-47.1,12.9-47.1,28.7s21.1,28.7,47.1,28.7,47.3-12.9,47.3-28.7-21.2-28.7-47.3-28.7Z"/>
          </g>
          <g>
            <path class="cls-1" d="M111.3,433.8c0-12.6,16.6-22.9,37.1-22.9s37.3,10.3,37.3,22.9-16.6,23.1-37.3,23.1-37.1-10.3-37.1-23.1h0Z"/>
            <path d="M148.4,458.5c-21.4,0-38.7-11.1-38.7-24.7s17.4-24.5,38.7-24.5,38.9,11,38.9,24.5-17.5,24.7-38.9,24.7ZM148.4,412.4c-19.6,0-35.5,9.6-35.5,21.3s15.9,21.5,35.5,21.5,35.7-9.6,35.7-21.5-16-21.3-35.7-21.3Z"/>
          </g>
          <g>
            <path class="cls-2" d="M46.5,437.3c-1.8,0-3.2-1.5-3.2-3.2s1.5-3.2,3.2-3.2l61.3-.3c1.9,0,3.4,1.5,3.4,3.2s-1.5,3.2-3.2,3.2l-61.5.3Z"/>
            <path d="M46.5,438.9h0c-2.7,0-4.8-2.2-4.8-4.8s2.2-4.8,4.8-4.8l61.3-.3c2.8,0,5,2.1,5,4.8s-2.2,4.8-4.8,4.8l-61.5.3ZM107.9,432.1l-61.3.3c-.9,0-1.6.7-1.6,1.6s.7,1.6,1.6,1.6l61.5-.3c.9,0,1.6-.7,1.6-1.6s-.8-1.6-1.8-1.6Z"/>
          </g>
        </g>
        <g>
          <g>
            <path class="cls-1" d="M275.9,130.2c1.3,2.6,4.7,3.7,7.3,7.3,3.6,4.8,8.1,6.3,13.6,7.3,4.2.6,2.6-2.3,5.7-.3,4.4,1.9,13.9-.6,17.1-4.2,4.5-5,1.6-1.3,6.1-4.8,3.2-2.4,5.8-8.2,5.7-12.3-.3-6.5,2.3-12.6-2.6-19.1-3.2-4.4-1.1-1.8-2.9-5-3.9-7.3-7.1-4.2-10.3-6.1-5-3.1-6.5-4-12.8-3.6-4.4.5-4.4,2.4-7.3,2.6-5.8.5-7.9,2.7-11.8,6.6-3.1,2.9-2.4-.5-6,6.6-1.6,3.4-3.2,7.3-2.7,11.3.6,6-1.8,7.9,1,13.7h0Z"/>
            <path d="M306.2,146.3c-1.7,0-3.1-.3-4.3-.8-.9-.5-1.1-.6-1.1-.6-.5.5-1.3,1.1-2.9,1.1h0c-.4,0-.8,0-1.3-.1-6.2-1.1-10.7-2.8-14.4-7.7-1.2-1.6-2.5-2.7-3.9-3.7-1.4-1.1-2.7-2.2-3.5-3.7-1.8-3.9-1.5-6.3-1.2-8.8.2-1.5.4-3.1.2-5.3-.5-4.4,1.2-8.5,2.8-11.9,2.3-4.6,3-5.2,4.4-5.8.4-.2.9-.3,1.8-1.2l.3-.3c3.7-3.7,6.1-6.1,12.2-6.6,1.1,0,1.6-.4,2.3-.9,1-.6,2.3-1.4,4.9-1.7,1.1,0,2-.1,2.8-.1,4.4,0,6.3,1.2,10.4,3.7,1.1.6,1.9.7,2.9.8,2.3.2,5.2.5,8.1,5.9.7,1.3.9,1.8,1,2.2.1.3,1.3,1.9,1.8,2.7,3.7,5,3.4,9.8,3,14.5-.1,1.7-.3,3.5-.2,5.3.2,4.5-2.7,10.7-6.1,13.3-2,1.6-2.7,1.8-3.3,2-.2,0-.4.1-2.7,2.7-2.6,2.9-9,5.3-14.2,5.3ZM300.8,142.6c.6,0,1.3.3,2.3.9.7.3,1.8.5,3.2.5,4.5,0,10.3-2.1,12.4-4.5,2.5-2.8,2.9-3.1,3.8-3.4.3,0,.7-.2,2.5-1.6,2.9-2.2,5.3-7.5,5.2-11.3,0-1.9,0-3.8.2-5.6.3-4.4.7-8.6-2.5-12.8-1.9-2.6-2.1-2.9-2.3-3.5,0-.2-.1-.4-.8-1.6-2.3-4.3-4.1-4.5-6.2-4.7-1.1-.1-2.4-.2-3.7-1l-.3-.2c-4.8-2.9-6-3.6-11.8-3.2-2,.2-2.9.8-3.8,1.4-.9.6-1.8,1.1-3.5,1.2-5.2.4-7,2.3-10.6,5.9l-.4.4c-1.3,1.2-2.1,1.5-2.6,1.7-.6.2-1,.4-3.1,4.6-1.5,3.2-3.1,6.9-2.6,10.6.3,2.5,0,4.3-.2,5.9-.3,2.4-.5,4.2,1,7.5.5,1,1.6,1.9,2.8,2.9,1.4,1.1,2.9,2.3,4.3,4.2,3.2,4.3,7.1,5.8,12.8,6.8.3,0,.6,0,.9,0h0c.8,0,1-.2,1.3-.4.3-.3.8-.6,1.6-.6Z"/>
          </g>
          <path d="M303.9,114.7c0,0-.1,0-.2,0-.4,0-.7-.5-.6-.9,1-5.1,5.8-12.8,8.3-16.9.7-1.1,1.3-2.1,1.4-2.3.2-.4.7-.6,1.1-.4.4.2.6.7.4,1.1-.2.4-.6,1.1-1.5,2.5-2.3,3.7-7.2,11.5-8.1,16.3,0,.4-.4.7-.8.7Z"/>
          <path d="M301.6,114.9c-.2,0-.5-.1-.6-.3-3-4-4.6-19.6-4.7-20.3,0-.4.3-.8.7-.9.4-.1.8.3.9.7.4,4.4,2.1,16.4,4.4,19.5.3.4.2.9-.2,1.1-.1.1-.3.2-.5.2Z"/>
          <path d="M299.8,117c0,0-.2,0-.2,0-4.4-1.4-14.8-12.4-15.6-13.9-.2-.4,0-.9.3-1.1.4-.2.9,0,1.1.3.7,1.2,10.9,12,14.7,13.2.4.1.7.6.5,1-.1.3-.4.6-.8.6Z"/>
          <path d="M299.8,118.9c0,0-.2,0-.3,0-4.8-1.6-15.2-.8-20.2-.4-2,.1-2.8.2-3.1.2-.4,0-.7-.5-.7-.9,0-.4.5-.8.9-.7.3,0,1.5,0,2.8-.2,5.1-.4,15.7-1.1,20.8.5.4.1.7.6.5,1-.1.3-.4.6-.8.6Z"/>
          <path d="M283,132.7c-.1,0-.3,0-.4-.1-.4-.2-.5-.7-.3-1.1,3.8-6.8,13.1-11.6,18.1-12.7.4,0,.9.2,1,.6,0,.4-.2.9-.6,1-5,1.1-13.6,5.8-17.1,11.9-.1.3-.4.4-.7.4Z"/>
          <path d="M301.1,140.4c0,0-.1,0-.2,0-.4-.1-.7-.6-.6-1,.6-2.3,1.6-15.6,1.3-18.8,0-.4.3-.8.7-.9.4-.1.8.3.9.7.3,3.4-.7,16.9-1.3,19.3,0,.4-.4.6-.8.6Z"/>
          <path d="M320.2,136.4c-.3,0-.6-.2-.7-.4-1-1.8-4.7-5.4-7.9-8.5-4.2-4.1-6.6-6.4-6.9-7.7,0-.4.2-.9.6-1,.4,0,.9.2,1,.6.2.9,3.8,4.4,6.4,6.9,3.5,3.3,7.1,6.8,8.2,8.9.2.4,0,.9-.3,1.1-.1,0-.3,0-.4,0Z"/>
          <path d="M323.9,119.4c-2,0-4.2-.1-6.5-.3-3.4-.2-7-.4-10.3-.2h0c-.4,0-.8-.3-.8-.8,0-.4.3-.8.8-.9,3.4-.2,7,0,10.5.2,4,.2,7.8.5,10.6,0,.5,0,.9.2.9.7,0,.4-.2.9-.7.9-1.3.2-2.8.3-4.5.3Z"/>
          <path d="M306,116.2c-.3,0-.7-.2-.8-.5-.1-.4,0-.9.5-1,5.5-1.9,9.1-5.3,12.3-8.3,2-1.9,3.7-3.5,5.5-4.4.4-.2.9,0,1.1.4.2.4,0,.9-.4,1.1-1.6.8-3.2,2.3-5.1,4.1-3.2,3-7.1,6.7-12.9,8.7,0,0-.2,0-.3,0Z"/>
          <path d="M303.1,121.4c-2.3,0-4.2-1.9-4.2-4.2s1.9-4.2,4.2-4.2,4.2,1.8,4.2,4.2-1.8,4.2-4.2,4.2ZM303.1,114.6c-1.4,0-2.6,1.2-2.6,2.6s1.2,2.6,2.6,2.6,2.6-1.1,2.6-2.6-1.1-2.6-2.6-2.6Z"/>
        </g>
      </g>
    </g>
  </g>
</svg>