<?xml version="1.0" encoding="UTF-8"?>
<svg xmlns="http://www.w3.org/2000/svg" version="1.1" viewBox="0 0 392 278">
  <defs>
    <style>
      .cls-1 {
        fill: #fff;
        fill-rule: evenodd;
      }

      .cls-2 {
        fill: gray;
      }
    </style>
  </defs>
  <!-- Generator: Adobe Illustrator 28.6.0, SVG Export Plug-In . SVG Version: 1.2.0 Build 709)  -->
  <g>
    <g id="Layer_1">
      <g>
        <path class="cls-2" d="M170.4,132.9h0c-.4,0-.8-.4-.7-.9.3-3.5,1.1-6.2,1.7-8.7.7-2.5,1.2-4.4,1-6.2,0-.4.3-.8.7-.9.5,0,.8.3.9.7.2,2-.4,4.2-1.1,6.7-.6,2.4-1.4,5.1-1.7,8.4,0,.4-.4.7-.8.7Z"/>
        <g>
          <path class="cls-1" d="M138.6,140.8h98.6c3.9,0,7.1-3.2,7.1-7.1V60.7c0-3.9-3.2-7.1-7.1-7.1h-98.6v87.2Z"/>
          <path d="M237.2,142.4h-100.3V52h100.3c4.7,0,8.7,4,8.7,8.7v73c0,4.7-4,8.7-8.7,8.7ZM140.2,139.2h97c3,0,5.5-2.5,5.5-5.5V60.7c0-3-2.5-5.5-5.5-5.5h-97v84Z"/>
        </g>
        <g>
          <path class="cls-1" d="M138.6,53.6h98.6c3.9,0,7.1-3.2,7.1-7.3v-5.7c0-3.9-3.2-7.3-7.1-7.3h-91.4c-4,0-7.3,3.4-7.3,7.3v12.9Z"/>
          <path d="M237.2,55.2h-100.3v-14.5c0-4.8,4.1-8.9,8.9-8.9h91.4c4.7,0,8.7,4.1,8.7,8.9v5.7c0,4.9-3.9,8.9-8.7,8.9ZM140.2,52h97c3,0,5.5-2.5,5.5-5.7v-5.7c0-3-2.6-5.7-5.5-5.7h-91.4c-3.1,0-5.7,2.6-5.7,5.7v11.3Z"/>
        </g>
        <g>
          <path class="cls-1" d="M138.6,228.1h98.6c3.9,0,7.1,3.2,7.1,7.3v5.7c0,3.9-3.2,7.1-7.1,7.1h-91.4c-4,0-7.3-3.2-7.3-7.1v-12.9Z"/>
          <path d="M237.2,249.7h-91.4c-4.9,0-8.9-3.9-8.9-8.7v-14.5h100.3c4.8,0,8.7,4,8.7,8.9v5.7c0,4.7-4,8.7-8.7,8.7ZM140.2,229.7v11.3c0,3,2.5,5.5,5.7,5.5h91.4c3,0,5.5-2.5,5.5-5.5v-5.7c0-3.1-2.5-5.7-5.5-5.7h-97Z"/>
        </g>
        <g>
          <path class="cls-1" d="M138.6,228.1h98.6c3.9,0,7.1-3.2,7.1-7.3v-72.8c0-3.9-3.2-7.3-7.1-7.3h-98.6v87.3Z"/>
          <path d="M237.2,229.7h-100.3v-90.6h100.3c4.7,0,8.7,4.1,8.7,8.9v72.8c0,4.9-3.9,8.9-8.7,8.9ZM140.2,226.5h97c3,0,5.5-2.5,5.5-5.7v-72.8c0-3-2.6-5.7-5.5-5.7h-97v84.1Z"/>
        </g>
        <rect x="170.6" y="53.6" width="3.2" height="174.5"/>
        <path d="M142.7,244.2c-.5,0-1-.1-1.4-.2-4.5-1.4-4.4-5.9-4.3-9.2v-1s0-186.9,0-186.9c0-3.3-.1-7.9,4.4-9.2,1-.3,2.6-.5,4.5.9,3.3,2.4,5.7,8.4,5.7,14.4h-3.2c0-5.4-2.2-10.2-4.3-11.8-.9-.7-1.4-.5-1.6-.4-2.1.6-2.2,2.7-2.1,6.1v1.1s0,186.9,0,186.9c0,3.4,0,5.5,2.1,6.1.2,0,.7.3,1.6-.4,2.1-1.6,4.4-6.4,4.4-11.8h3.2c0,6-2.4,12-5.7,14.4-1.1.8-2.2,1.1-3.1,1.1Z"/>
        <g>
          <path class="cls-1" d="M138.6,140.8h13.9c4,0,7.3-3.2,7.3-7.1V60.7c0-3.9-3.2-7.1-7.3-7.1h-13.9v87.2Z"/>
          <path d="M152.5,142.4h-15.5V52h15.5c4.9,0,8.9,3.9,8.9,8.7v73c0,4.8-4,8.7-8.9,8.7ZM140.2,139.2h12.3c3.1,0,5.7-2.5,5.7-5.5V60.7c0-3-2.5-5.5-5.7-5.5h-12.3v84Z"/>
        </g>
        <g>
          <path class="cls-1" d="M138.6,228.1h13.9c4,0,7.3-3.2,7.3-7.3v-72.8c0-3.9-3.2-7.3-7.3-7.3h-13.9v87.3Z"/>
          <path d="M152.5,229.7h-15.5v-90.6h15.5c4.8,0,8.9,4.1,8.9,8.9v72.8c0,4.9-4,8.9-8.9,8.9ZM140.2,226.5h12.3c3.2,0,5.7-2.5,5.7-5.7v-72.8c0-3.1-2.6-5.7-5.7-5.7h-12.3v84.1Z"/>
        </g>
        <g>
          <g>
            <path class="cls-1" d="M154.3,119.6c.5-12.4,1-17.4-.3-30.4-.8-7.7.3-10.5.3-15.5-.2-5,3.7-7.4,8.2-8.6,4.5-1.1,8.1-1.6,18.6,1.8,10.3,3.2,12.6,2.9,12.9,6.3.2,3.4-.6,6-.8,13.6,0,7.6.2,20.2.5,22.8.3,2.7,2.7,9-1.8,12.6-4.5,3.6-9,7.1-22.1,6.8-4.2-.2-7.6-.6-10-1.6-4.8-2.1-5.7-3.4-5.5-7.7h0Z"/>
            <path d="M171.4,130.2c-.5,0-1.1,0-1.7,0-4.6-.2-8-.7-10.4-1.7-5.3-2.3-6.4-3.9-6.3-8.9l.2-4.5c.4-9.4.6-14.5-.5-25.7-.5-5.1-.2-8,0-10.9.1-1.5.3-3,.3-4.7-.1-3.3,1.4-7.8,9.1-9.7,1.8-.4,3.7-.9,6.1-.9s7.4.8,13.1,2.7c2.3.7,4.2,1.3,5.8,1.7,5.5,1.6,7.6,2.2,7.9,5.6,0,1.8,0,3.3-.3,5.2-.2,2.1-.5,4.6-.5,8.5,0,7.7.2,20.1.5,22.6,0,.5.2,1,.3,1.7.7,3.2,1.8,8.6-2.5,12-4.4,3.5-9,7.1-21.2,7.1ZM168.3,65.6c-1.9,0-3.5.3-5.5.8-5,1.3-7.4,3.7-7.3,7.3,0,1.9-.2,3.5-.3,5-.3,2.7-.5,5.6,0,10.4,1.1,11.3.9,16.6.5,26l-.2,4.5c-.1,3.7.2,4.6,4.8,6.6,2.1.9,5.3,1.4,9.6,1.5.5,0,1.1,0,1.6,0,11.4,0,15.5-3.2,19.7-6.5,3.1-2.5,2.3-6.6,1.7-9.6-.1-.7-.3-1.3-.3-1.9-.3-2.7-.5-15.3-.5-22.9,0-4,.4-6.7.6-8.7.2-1.9.3-3.2.3-4.8-.2-1.6-.6-1.9-6.2-3.5-1.6-.5-3.5-1-5.9-1.7-5.5-1.8-9.3-2.6-12.4-2.6Z"/>
          </g>
          <path d="M168.8,122.7s0,0-.1,0c-.4,0-.8-.5-.7-.9.4-3.1,1.1-4,2-5.1.2-.2.4-.5.6-.8,1-1.5,2.6-6,2.6-9.4s0-2.7.1-4.4c.2-3.5.4-7.9,0-11-.2-1.1-.3-2.2-.4-3.3-.4-3.3-.7-6.4-1.7-8.1-1.1-1.8-1.8-3.5-2.5-5.3-.2-.6-.4-1.1-.7-1.7-.2-.4,0-.9.5-1.1.4-.2.9,0,1.1.5.2.6.5,1.2.7,1.8.7,1.8,1.3,3.4,2.3,5,1.2,2,1.6,5.2,2,8.8.1,1.1.2,2.2.4,3.3.3,3.3.1,7.7,0,11.3,0,1.7-.1,3.2-.1,4.3,0,3.8-1.7,8.6-2.9,10.3-.2.3-.4.6-.7.9-.8,1-1.3,1.6-1.6,4.3,0,.4-.4.7-.8.7Z"/>
          <path d="M180.9,118c-.2,0-.4,0-.6-.3-3.4-3.7-6.5-12.6-6.7-17.1-.2-4.8,1.5-12.7,2.1-15.1.4-1.3,1.5-3.5,2.5-5.7.8-1.7,1.6-3.2,1.9-4.2.2-.4.6-.6,1-.5.4.2.6.6.5,1-.4,1-1.1,2.7-2,4.4-1,2-2,4.2-2.4,5.4-.6,2.2-2.2,10-2.1,14.6.2,4.2,3.1,12.7,6.2,16.1.3.3.3.8,0,1.1-.2.1-.4.2-.5.2Z"/>
        </g>
      </g>
    </g>
  </g>
</svg>