<?xml version="1.0" encoding="UTF-8"?>
<svg xmlns="http://www.w3.org/2000/svg" version="1.1" viewBox="0 0 472 240">
  <defs>
    <style>
      .cls-1 {
        fill-rule: evenodd;
      }

      .cls-1, .cls-2 {
        fill: #fff;
      }
    </style>
  </defs>
  <!-- Generator: Adobe Illustrator 28.6.0, SVG Export Plug-In . SVG Version: 1.2.0 Build 709)  -->
  <g>
    <g id="Layer_1">
      <g>
        <g>
          <g>
            <path class="cls-1" d="M304.8,124.4c0-9.5.6-22.4,1.3-27.6.6-5,1.3-8.4,4.8-9.2,2.7-.5,19.7-1.8,35.7,2.9,3.7,1.6,7.3,4,11.1,7.1,8.6,6.9,13.1,15.8,13.4,26.8-.3,11-4.8,20-13.4,27-3.7,3.1-7.3,5.3-11,6.9-17.3,5.7-33.1,3.6-35.8,2.9-3.6-.6-4.2-4-4.8-9.2-.6-5-1.3-17.9-1.3-27.6h0Z"/>
            <path d="M322.1,163.8c-5.9,0-10.1-.6-11.6-1-4.9-.9-5.5-5.8-6.1-10.6-.7-5.3-1.3-18.5-1.3-27.8s.6-22.4,1.3-27.8c.6-4.7,1.2-9.5,6.1-10.6,1.4-.2,5-.6,9.9-.6s16.7.6,26.6,3.5c3.6,1.6,7.2,3.8,11.7,7.4,9,7.3,13.7,16.7,14,28-.3,11.5-5,21-14,28.3-3.8,3.2-7.6,5.5-11.4,7.2-10,3.3-19.3,4-25.3,4ZM320.5,88.7c-4.6,0-8.2.3-9.3.5-2.2.5-2.8,2.5-3.5,7.8-.6,4.8-1.3,17.5-1.3,27.4s.7,22.7,1.3,27.4c.7,5.4,1.3,7.4,3.5,7.8,1.1.3,5.1.9,10.9.9s14.7-.7,24.1-3.7c3.4-1.5,6.8-3.7,10.5-6.6,8.2-6.7,12.5-15.3,12.8-25.8-.3-10.4-4.5-18.8-12.8-25.5-4.2-3.4-7.6-5.5-10.8-6.9-9.3-2.7-19-3.3-25.5-3.3Z"/>
          </g>
          <g>
            <path class="cls-2" d="M315.3,69.5c-2.6,0-4.7,2.9-5,7.1-.5,4,.5,7.4,3.7,7.9,17.8,1.6,29.5,1.3,43.8,13.1,8.6,6.9,13.1,15.8,13.4,26.8-.3,11-4.8,20-13.4,27-14.2,11.6-26,11.5-43.8,13.1-2.3.3-4.4,3.9-4,7.9.3,4.2,2.7,7.1,5.3,7.1,21.3-1.9,40.2-2.3,57.6-16.5,11.8-9.7,18.4-23.1,18.7-38.4v-.3c-.3-15.3-6.9-28.6-18.7-38.3-17.4-14.2-36.3-14.5-57.6-16.5h0Z"/>
            <path d="M315.4,181.1h0c-3.6,0-6.6-3.7-6.9-8.6-.4-4.7,2.1-9.2,5.4-9.6l5.2-.5c14.7-1.2,25.3-2.1,37.7-12.3,8.2-6.6,12.5-15.3,12.8-25.8-.3-10.4-4.5-18.8-12.8-25.5-12.3-10.2-22.8-11.1-37.3-12.2-1.8-.1-3.7-.3-5.6-.5-3.9-.6-5.8-4.2-5.2-9.7.4-5,3.1-8.5,6.6-8.5l5.9.5c18.8,1.6,36.5,3.1,52.7,16.3,12.3,10.1,19,23.8,19.3,39.5-.3,16.2-7,29.9-19.3,40-16.2,13.2-34,14.7-52.7,16.3l-5.9.5ZM315.2,71.1c-1.5,0-3,2.4-3.3,5.6-.2,1.8-.4,5.8,2.3,6.2,1.8.2,3.7.3,5.5.5,15.1,1.2,26,2.1,39.1,13,8.9,7.2,13.6,16.7,14,28-.3,11.5-5,21-14,28.3-13.2,10.8-24.2,11.7-39.5,13l-5.1.4c-1,.1-2.9,2.6-2.6,6.2.3,3.4,2.1,5.6,3.7,5.6l5.7-.5c19.1-1.6,35.5-3,51-15.6,11.5-9.5,17.8-22.4,18.1-37.2-.3-15-6.6-27.8-18.1-37.3-15.5-12.6-31.9-14-51-15.6l-5.8-.5Z"/>
          </g>
        </g>
        <g>
          <g>
            <path class="cls-1" d="M177.9,123.8c0,30.7,24.9,55.7,55.7,55.7s55.7-25,55.7-55.7-25-55.7-55.7-55.7-55.7,24.9-55.7,55.7h0Z"/>
            <path d="M233.6,181.1c-31.6,0-57.3-25.7-57.3-57.3s25.7-57.3,57.3-57.3,57.3,25.7,57.3,57.3-25.7,57.3-57.3,57.3ZM233.6,69.7c-29.8,0-54.1,24.3-54.1,54.1s24.3,54.1,54.1,54.1,54.1-24.3,54.1-54.1-24.3-54.1-54.1-54.1Z"/>
          </g>
          <g>
            <rect class="cls-2" x="229.3" y="99.7" width="36.5" height="25.3"/>
            <path d="M266.5,125.9h-38.1v-27h38.1v27ZM230.1,124.3h34.9v-23.7h-34.9v23.7Z"/>
          </g>
          <g>
            <polygon class="cls-1" points="229.1 82 222.6 106.3 257.8 115.9 264.3 91.3 229.1 82"/>
            <path d="M258.4,116.9l-36.8-9.9,6.9-25.9,36.8,9.8-6.9,26.1ZM223.6,105.8l33.6,9.1,6-23-33.6-8.9-6,22.8Z"/>
          </g>
          <path d="M247.5,154.6c-3.1,0-5.7-2.5-5.7-5.7s2.6-5.7,5.7-5.7,5.7,2.5,5.7,5.7-2.5,5.7-5.7,5.7ZM247.5,144.9c-2.2,0-4,1.9-4,4s1.8,4,4,4,4-1.7,4-4-1.8-4-4-4Z"/>
          <path d="M247.5,159.3c-5.7,0-10.3-4.6-10.3-10.3s4.6-10.3,10.3-10.3,10.3,4.5,10.3,10.3-4.5,10.3-10.3,10.3ZM247.5,140.2c-4.8,0-8.7,3.9-8.7,8.7s3.9,8.7,8.7,8.7,8.7-3.8,8.7-8.7-3.8-8.7-8.7-8.7Z"/>
        </g>
        <g>
          <g>
            <path class="cls-1" d="M160,123.8c0-9.7-.5-22.4-1.1-27.6-.6-5.2-1.5-8.6-5-9.2-2.7-.5-19.7-1.8-35.7,2.7-3.6,1.8-7.3,4-11.1,7.3-8.6,6.9-13.1,15.8-13.4,26.8.3,11,4.8,19.9,13.4,26.8,3.7,3.1,7.4,5.3,11,7.1,17.3,5.7,33.1,3.4,35.8,2.9,3.6-.6,4.4-4,5-9.2.6-5.2,1.1-17.9,1.1-27.6h0Z"/>
            <path d="M142.4,163.1h0c-8.7,0-17.1-1.3-24.9-3.8-4.4-2.2-8.1-4.6-11.5-7.4-8.9-7.3-13.7-16.7-14-28,.3-11.4,5-20.8,14-28.1,3.5-2.9,7.2-5.4,11.4-7.5,10.1-2.9,20-3.5,26.6-3.5s8.8.3,10.1.6c5.1.9,5.8,6.3,6.3,10.6.6,5,1.1,17.5,1.1,27.8s-.5,22.8-1.1,27.8c-.5,4.3-1.2,9.7-6.3,10.6-1.2.2-5.5.9-11.7.9ZM144.1,88c-6.4,0-16,.6-25.4,3.2-3.7,1.9-7.2,4.2-10.5,7-8.3,6.8-12.5,15.1-12.8,25.6.3,10.4,4.5,18.8,12.8,25.5,3.2,2.7,6.7,4.9,10.7,6.9,7.2,2.3,15.3,3.6,23.7,3.6s10.4-.7,11.1-.8c2.1-.4,3-2.1,3.7-7.8.6-4.8,1.1-17.4,1.1-27.4s-.5-22.6-1.1-27.4c-.7-5.7-1.5-7.4-3.7-7.8-1.1-.2-4.7-.5-9.5-.5Z"/>
          </g>
          <g>
            <path class="cls-2" d="M149.5,68.7c2.6,0,4.7,3.1,5.2,7.1.3,4.2-.6,7.6-3.9,7.9-17.8,1.6-29.4,1.5-43.8,13.2-8.6,6.9-13.1,15.8-13.4,26.8.3,11,4.8,19.9,13.4,26.8,14.4,11.8,26,11.6,43.8,13.2,2.3.2,4.4,3.7,4,7.9-.3,4-2.7,7.1-5.3,6.9-21.3-1.9-40.2-2.3-57.6-16.5-11.8-9.7-18.4-22.9-18.7-38.3v-.3c.3-15.3,6.9-28.6,18.7-38.4,17.4-14,36.3-14.5,57.6-16.5h0Z"/>
            <path d="M149.7,180.3h-.3s-5.8-.5-5.8-.5c-18.8-1.6-36.5-3.1-52.7-16.3-12.3-10.1-19-23.8-19.3-39.5.3-16,7-29.7,19.3-40,16.4-13.2,34.3-14.7,53.2-16.4l5.3-.5h0c3.5,0,6.3,3.5,6.9,8.5.6,8.2-3.5,9.5-5.3,9.7l-5,.4c-14.7,1.2-25.3,2.1-37.8,12.4-8.3,6.7-12.5,15.1-12.8,25.6.3,10.4,4.5,18.8,12.8,25.5,12.6,10.3,23.2,11.2,37.9,12.5l5,.4c1.2,0,2.3.7,3.3,1.8,1.6,1.9,2.5,4.8,2.2,7.8-.4,4.7-3.3,8.4-6.7,8.4ZM149.5,70.3l-5.1.5c-19.3,1.7-35.9,3.1-51.5,15.7-11.5,9.6-17.8,22.5-18.1,37.2.3,15,6.6,27.8,18.1,37.3,15.5,12.6,31.9,14,51,15.6l5.8.5v1.6c0,0,0-1.6,0-1.6,1.5,0,3.3-2.2,3.5-5.5.2-2.6-.7-4.5-1.5-5.5-.4-.4-.8-.7-1.1-.7l-5-.4c-15.2-1.3-26.3-2.2-39.6-13.2-8.9-7.3-13.7-16.7-14-28,.3-11.4,5-20.8,14-28.1,13.4-11,24.4-11.9,39.6-13.2l5-.4c2.5-.3,2.6-4,2.4-6.2-.4-3.1-1.9-5.6-3.6-5.6Z"/>
          </g>
        </g>
      </g>
    </g>
  </g>
</svg>