<?xml version="1.0" encoding="UTF-8"?>
<svg xmlns="http://www.w3.org/2000/svg" version="1.1" viewBox="0 0 477.5 391">
  <defs>
    <style>
      .cls-1 {
        fill: #fff;
        fill-rule: evenodd;
      }
    </style>
  </defs>
  <!-- Generator: Adobe Illustrator 28.6.0, SVG Export Plug-In . SVG Version: 1.2.0 Build 709)  -->
  <g>
    <g id="Layer_1">
      <g>
        <g>
          <path class="cls-1" d="M411.6,294.9v-97.7c0-1.8-1.5-3.2-3.2-3.2H120c-1.8,0-3.2,1.5-3.2,3.2v97.7c0,1.8,1.5,3.2,3.2,3.2h288.3c1.8,0,3.2-1.5,3.2-3.2h0Z"/>
          <path d="M408.4,299.7H120c-2.7,0-4.8-2.2-4.8-4.8v-97.7c0-2.7,2.2-4.8,4.8-4.8h288.3c2.7,0,4.8,2.2,4.8,4.8v97.7c0,2.7-2.2,4.8-4.8,4.8ZM120,195.6c-.9,0-1.6.7-1.6,1.6v97.7c0,.9.7,1.6,1.6,1.6h288.3c.9,0,1.6-.7,1.6-1.6v-97.7c0-.9-.7-1.6-1.6-1.6H120Z"/>
        </g>
        <g>
          <path class="cls-1" d="M133,48.2h72.2c1.8,0,3.2,1.5,3.2,3.2v18.9c0,1.8-1.5,3.2-3.2,3.2h-72.2c-1.8,0-3.2-1.5-3.2-3.2v-18.9c0-1.8,1.5-3.2,3.2-3.2h0Z"/>
          <path d="M205.1,75.2h-72.2c-2.7,0-4.8-2.2-4.8-4.8v-18.9c0-2.7,2.2-4.8,4.8-4.8h72.2c2.7,0,4.8,2.2,4.8,4.8v18.9c0,2.7-2.2,4.8-4.8,4.8ZM133,49.8c-.9,0-1.6.7-1.6,1.6v18.9c0,.9.7,1.6,1.6,1.6h72.2c.9,0,1.6-.7,1.6-1.6v-18.9c0-.9-.7-1.6-1.6-1.6h-72.2Z"/>
        </g>
        <g>
          <path class="cls-1" d="M217.6,36.3h-97.7c-1.8,0-3.2,1.5-3.2,3.2v151.3c0,1.8,1.5,3.2,3.2,3.2h97.7c1.8,0,3.2-1.5,3.2-3.2V39.5c0-1.8-1.5-3.2-3.2-3.2h0Z"/>
          <path d="M217.6,195.6h-97.7c-2.7,0-4.8-2.2-4.8-4.8V39.5c0-2.7,2.2-4.8,4.8-4.8h97.7c2.7,0,4.8,2.2,4.8,4.8v151.3c0,2.7-2.2,4.8-4.8,4.8ZM119.9,37.9c-.9,0-1.6.7-1.6,1.6v151.3c0,.9.7,1.6,1.6,1.6h97.7c.9,0,1.6-.7,1.6-1.6V39.5c0-.9-.7-1.6-1.6-1.6h-97.7Z"/>
        </g>
        <g>
          <path class="cls-1" d="M113.6,36.3h-27.8c-1.8,0-3.2,1.5-3.2,3.2v289.6c0,1.8,1.5,3.2,3.2,3.2h322.6c1.8,0,3.2-1.5,3.2-3.2v-27.8c0-1.8-1.5-3.2-3.2-3.2H116.8V39.5c0-1.8-1.5-3.2-3.2-3.2h0Z"/>
          <path d="M408.4,334H85.8c-2.7,0-4.8-2.2-4.8-4.8V39.5c0-2.7,2.2-4.8,4.8-4.8h27.8c2.7,0,4.8,2.2,4.8,4.8v257h290c2.7,0,4.8,2.2,4.8,4.8v27.8c0,2.7-2.2,4.8-4.8,4.8ZM85.8,37.9c-.9,0-1.6.7-1.6,1.6v289.6c0,.9.7,1.6,1.6,1.6h322.6c.9,0,1.6-.7,1.6-1.6v-27.8c0-.9-.7-1.6-1.6-1.6H115.2V39.5c0-.9-.7-1.6-1.6-1.6h-27.8Z"/>
        </g>
        <rect x="76.6" y="313.1" width="47" height="3.2" transform="translate(-192.4 161.5) rotate(-44.7)"/>
        <g>
          <path class="cls-1" d="M134.6,277.8c-2.1,10-3.1,17.6-.6,23.2,1,2.3,4.4,4.7,7.9,5.2,30.4,3.9,54.7,4.4,85.6.2,3.6-.5,6.6-3.4,7.6-5.8,2.3-5.8,2.3-12.6,0-22.8-.5-2.6-3.1-4.2-6.6-4.5-30.7-3.4-57-3.1-87.3,0-3.6.3-6,1.9-6.5,4.5h0Z"/>
          <path d="M186.1,310.9h0c-13.6,0-27.7-1-44.5-3.1-3.9-.5-7.9-3.2-9.2-6.1-2.5-5.9-1.7-13.4.6-24.2.6-3.2,3.6-5.4,7.9-5.8,32.5-3.3,58.2-3.3,87.7,0,4.4.4,7.4,2.6,8,5.8,2.3,10.4,2.3,17.5,0,23.6-1.2,2.9-4.6,6.3-8.9,6.8-14.6,2-28.2,3-41.5,3ZM185.6,272.5c-14,0-28.1.8-44.5,2.4-1.4.1-4.6.7-5,3.2-2.1,10-2.9,17.2-.7,22.3.7,1.7,3.6,3.8,6.6,4.2,16.6,2.1,30.6,3.1,44,3.1s26.6-1,41.1-2.9c2.9-.4,5.5-2.8,6.3-4.8,2.1-5.5,2.1-12,0-21.8-.3-1.8-2.3-3-5.2-3.3-14.7-1.6-28.6-2.4-42.6-2.4Z"/>
        </g>
        <path d="M144.3,287.5c-.4,0-.7-.3-.8-.7,0-.4.3-.9.7-.9,23.5-3.3,54.7-3.3,81.3,0,.4,0,.8.5.7.9,0,.4-.5.8-.9.7-26.1-3.2-57.8-3.2-80.8,0,0,0,0,0-.1,0Z"/>
        <g>
          <path class="cls-1" d="M399.7,210.3v72c0,1.8-1.5,3.2-3.2,3.2h-18.9c-1.8,0-3.2-1.5-3.2-3.2v-72c0-1.8,1.5-3.2,3.2-3.2h18.9c1.8,0,3.2,1.5,3.2,3.2h0Z"/>
          <path d="M396.4,287.1h-18.9c-2.7,0-4.8-2.2-4.8-4.8v-72c0-2.7,2.2-4.8,4.8-4.8h18.9c2.7,0,4.8,2.2,4.8,4.8v72c0,2.7-2.2,4.8-4.8,4.8ZM377.5,208.7c-.9,0-1.6.7-1.6,1.6v72c0,.9.7,1.6,1.6,1.6h18.9c.9,0,1.6-.7,1.6-1.6v-72c0-.9-.7-1.6-1.6-1.6h-18.9Z"/>
        </g>
        <g>
          <path class="cls-1" d="M256.8,277.8c-1.9,10-3.1,17.6-.6,23.2,1.1,2.3,4.4,4.7,7.9,5.2,30.4,3.9,54.7,4.4,85.6.2,3.6-.5,6.6-3.4,7.6-5.8,2.3-5.8,2.3-12.6,0-22.8-.5-2.6-2.9-4.2-6.5-4.5-30.8-3.4-57-3.1-87.3,0-3.6.3-6.1,1.9-6.6,4.5h0Z"/>
          <path d="M308.3,310.9h0c-13.6,0-27.7-1-44.5-3.1-4.3-.6-7.9-3.5-9.1-6-2.7-6.2-1.4-14.3.5-24.3.6-3.2,3.6-5.4,8.1-5.8,16.4-1.7,30.6-2.4,44.7-2.4s28.1.8,43,2.4c4.3.4,7.3,2.6,7.9,5.8,2.3,10.4,2.3,17.5,0,23.6-1.2,2.9-4.7,6.3-8.9,6.8-14.7,2-28.2,3-41.5,3ZM308,272.5c-14,0-28.1.8-44.4,2.4-2.9.3-4.9,1.5-5.2,3.2-1.8,9.4-3,17-.7,22.3.9,1.7,3.6,3.8,6.6,4.2,16.6,2.1,30.6,3.1,44,3.1s26.6-1,41.1-2.9c2.9-.4,5.5-2.8,6.3-4.8,2.1-5.5,2.1-12,0-21.8-.5-2.6-3.7-3.1-5-3.3-14.8-1.6-28.7-2.4-42.6-2.4Z"/>
        </g>
        <path d="M266.5,287.5c-.4,0-.7-.3-.8-.7,0-.4.3-.9.7-.9,23.3-3.2,55.1-3.2,81.3,0,.4,0,.8.5.7.9,0,.4-.4.8-.9.7-26-3.2-57.7-3.2-80.8,0,0,0,0,0-.1,0Z"/>
        <g>
          <path class="cls-1" d="M137,111.2c-10-1.9-17.6-3.1-23.2-.6-2.3,1.1-4.7,4.4-5.2,7.9-3.9,30.4-4.4,54.7-.2,85.6.5,3.6,3.4,6.6,5.8,7.6,5.8,2.3,12.6,2.3,22.8,0,2.6-.5,4.2-2.9,4.5-6.5,3.4-30.8,3.1-57,0-87.3-.3-3.6-1.9-6.1-4.5-6.6h0Z"/>
          <path d="M124,214.9c-3.8,0-7.2-.6-10.3-1.8-2.9-1.2-6.3-4.6-6.8-8.9-4-29.5-4-53.6.2-86,.6-4.3,3.5-7.9,6-9.1,5.6-2.4,12.6-1.8,24.3.5,3.2.6,5.4,3.6,5.8,8.1,3.2,32,3.2,58.2,0,87.7-.4,4.3-2.6,7.3-5.8,7.9-5.2,1.2-9.6,1.7-13.3,1.7ZM121.6,110.8c-2.9,0-5.2.4-7.2,1.2-1.7.9-3.8,3.6-4.2,6.6-4.1,32.1-4.1,55.9-.2,85.1.4,2.9,2.8,5.5,4.8,6.3,5.5,2.2,11.9,2.1,21.8,0,2.6-.5,3.1-3.7,3.3-5,3.2-29.2,3.2-55.3,0-87-.3-2.9-1.5-4.9-3.2-5.2-6.4-1.2-11.1-2-15.1-2Z"/>
        </g>
        <path d="M128.1,202.7s0,0-.1,0c-.4,0-.8-.5-.7-.9,3.2-26,3.2-57.7,0-80.8,0-.4.3-.9.7-.9.5,0,.9.3.9.7,3.2,23.3,3.2,55.2,0,81.3,0,.4-.4.7-.8.7Z"/>
        <g>
          <path class="cls-1" d="M204.5,48.2h-72c-1.8,0-3.2,1.5-3.2,3.2v18.9c0,1.8,1.5,3.2,3.2,3.2h72c1.8,0,3.2-1.5,3.2-3.2v-18.9c0-1.8-1.5-3.2-3.2-3.2h0Z"/>
          <path d="M204.5,75.2h-72c-2.7,0-4.8-2.2-4.8-4.8v-18.9c0-2.7,2.2-4.8,4.8-4.8h72c2.7,0,4.8,2.2,4.8,4.8v18.9c0,2.7-2.2,4.8-4.8,4.8ZM132.5,49.8c-.9,0-1.6.7-1.6,1.6v18.9c0,.9.7,1.6,1.6,1.6h72c.9,0,1.6-.7,1.6-1.6v-18.9c0-.9-.7-1.6-1.6-1.6h-72Z"/>
        </g>
      </g>
    </g>
  </g>
</svg>