<?xml version="1.0" encoding="UTF-8"?>
<svg xmlns="http://www.w3.org/2000/svg" version="1.1" viewBox="0 0 477.5 253">
  <defs>
    <style>
      .cls-1 {
        fill-rule: evenodd;
      }

      .cls-1, .cls-2 {
        fill: #fff;
      }
    </style>
  </defs>
  <!-- Generator: Adobe Illustrator 28.6.0, SVG Export Plug-In . SVG Version: 1.2.0 Build 709)  -->
  <g>
    <g id="Layer_1">
      <g>
        <g>
          <path class="cls-1" d="M344,59.3v-27.8c0-1.8-1.5-3.2-3.2-3.2h-84.3c-1.8,0-3.2,1.5-3.2,3.2v27.8c0,1.8,1.5,3.2,3.2,3.2h84.3c1.8,0,3.2-1.5,3.2-3.2h0Z"/>
          <path d="M345.6,31.6v27.8c0,2.7-2.2,4.8-4.8,4.8h-84.3c-2.7,0-4.8-2.2-4.8-4.8v-27.8c0-2.7,2.2-4.8,4.8-4.8h84.3c2.7,0,4.8,2.2,4.8,4.8ZM254.9,59.3c0,.9.7,1.6,1.6,1.6h84.3c.9,0,1.6-.7,1.6-1.6v-27.8c0-.9-.7-1.6-1.6-1.6h-84.3c-.9,0-1.6.7-1.6,1.6v27.8Z"/>
        </g>
        <g>
          <path class="cls-1" d="M253.3,59.3v-27.8c0-1.8-1.5-3.2-3.2-3.2h-84.3c-1.8,0-3.2,1.5-3.2,3.2v27.8c0,1.8,1.5,3.2,3.2,3.2h84.3c1.8,0,3.2-1.5,3.2-3.2h0Z"/>
          <path d="M254.9,31.6v27.8c0,2.7-2.2,4.8-4.8,4.8h-84.3c-2.7,0-4.8-2.2-4.8-4.8v-27.8c0-2.7,2.2-4.8,4.8-4.8h84.3c2.7,0,4.8,2.2,4.8,4.8ZM164.1,59.3c0,.9.7,1.6,1.6,1.6h84.3c.9,0,1.6-.7,1.6-1.6v-27.8c0-.9-.7-1.6-1.6-1.6h-84.3c-.9,0-1.6.7-1.6,1.6v27.8Z"/>
        </g>
        <g>
          <path class="cls-1" d="M162.5,59.3v-27.8c0-1.8-1.5-3.2-3.2-3.2h-84.3c-1.8,0-3.2,1.5-3.2,3.2v27.8c0,1.8,1.5,3.2,3.2,3.2h84.3c1.8,0,3.2-1.5,3.2-3.2h0Z"/>
          <path d="M164.1,31.6v27.8c0,2.7-2.2,4.8-4.8,4.8h-84.3c-2.7,0-4.8-2.2-4.8-4.8v-27.8c0-2.7,2.2-4.8,4.8-4.8h84.3c2.7,0,4.8,2.2,4.8,4.8ZM73.4,59.3c0,.9.7,1.6,1.6,1.6h84.3c.9,0,1.6-.7,1.6-1.6v-27.8c0-.9-.7-1.6-1.6-1.6h-84.3c-.9,0-1.6.7-1.6,1.6v27.8Z"/>
        </g>
        <g>
          <path class="cls-1" d="M344,65.8v97.7c0,1.8-1.5,3.2-3.2,3.2H75c-1.8,0-3.2-1.5-3.2-3.2v-97.7c0-1.8,1.5-3.2,3.2-3.2h265.7c1.8,0,3.2,1.5,3.2,3.2h0Z"/>
          <path d="M345.6,65.8v97.7c0,2.7-2.2,4.8-4.8,4.8H75c-2.7,0-4.8-2.2-4.8-4.8v-97.7c0-2.7,2.2-4.8,4.8-4.8h265.7c2.7,0,4.8,2.2,4.8,4.8ZM73.4,163.5c0,.9.7,1.6,1.6,1.6h265.7c.9,0,1.6-.7,1.6-1.6v-97.7c0-.9-.7-1.6-1.6-1.6H75c-.9,0-1.6.7-1.6,1.6v97.7Z"/>
        </g>
        <g>
          <path class="cls-1" d="M83.7,150.2v-72c0-1.8,1.5-3.2,3.2-3.2h18.9c1.8,0,3.2,1.5,3.2,3.2v72c0,1.8-1.5,3.2-3.2,3.2h-18.9c-1.8,0-3.2-1.5-3.2-3.2h0Z"/>
          <path d="M110.7,78.2v72c0,2.7-2.2,4.8-4.8,4.8h-18.9c-2.7,0-4.8-2.2-4.8-4.8v-72c0-2.7,2.2-4.8,4.8-4.8h18.9c2.7,0,4.8,2.2,4.8,4.8ZM85.4,150.2c0,.9.7,1.6,1.6,1.6h18.9c.9,0,1.6-.7,1.6-1.6v-72c0-.9-.7-1.6-1.6-1.6h-18.9c-.9,0-1.6.7-1.6,1.6v72Z"/>
        </g>
        <g>
          <path class="cls-1" d="M298.5,82.9c1.5-10,2.3-17.6.5-23.2-.8-2.4-3.2-4.8-6-5.3-22.4-3.7-40.5-4.2-63.3,0-2.6.5-4.8,3.4-5.7,5.7-1.6,5.8-1.6,12.8,0,22.9.5,2.4,2.3,4.2,4.8,4.5,22.8,3.4,42.1,2.9,64.7,0,2.6-.3,4.4-2.1,4.8-4.5h0Z"/>
          <path d="M301.6,67.5c0,4.3-.6,9.2-1.5,15.6-.7,3.3-3,5.5-6.2,5.9-24.5,3.1-44,3.1-65.2,0-3.2-.4-5.5-2.6-6.2-5.8-1.7-10.6-1.7-17.6,0-23.7,1.1-3,3.8-6.2,6.9-6.8,21.7-4,39.6-4,63.8,0,3.2.6,6.2,3.2,7.2,6.4.7,2.4,1.1,5.1,1.1,8.4ZM224.4,69.8c0,3.6.4,7.8,1.2,12.8.3,1.7,1.6,2.9,3.4,3.2,21.2,3.2,39.8,3.1,64.3,0,1.8-.2,3.1-1.4,3.5-3.2,1.5-10.4,2-17.6.5-22.4-.6-1.8-2.5-3.8-4.7-4.2-23.8-3.9-41.4-3.9-62.7,0-1.8.3-3.7,2.7-4.4,4.6-.7,2.7-1.1,5.8-1.1,9.3Z"/>
        </g>
        <path d="M292,74c0,.4-.3.7-.7.8-17.2,3.2-40.8,3.2-60.2,0-.4,0-.8-.5-.7-.9,0-.4.5-.7.9-.7,19.2,3.2,42.6,3.2,59.6,0,.4,0,.9.2.9.6,0,0,0,.1,0,.2Z"/>
        <g>
          <path class="cls-1" d="M191.4,82.9c1.6-10,2.4-17.6.5-23.2-.6-2.4-3.2-4.8-5.8-5.3-22.4-3.7-40.5-4.2-63.3,0-2.6.5-4.8,3.4-5.7,5.7-1.6,5.8-1.8,12.8,0,22.9.3,2.4,2.3,4.2,4.8,4.5,22.8,3.4,42.1,2.9,64.6,0,2.7-.3,4.5-2.1,4.8-4.5h0Z"/>
          <path d="M194.7,67.7h0c0,4.7-.8,10.2-1.6,15.5-.4,3.2-2.8,5.5-6.3,5.9-24.4,3.2-43.8,3.2-65,0-3.3-.4-5.8-2.8-6.2-5.9-1.7-9.9-1.7-17.1,0-23.6,1.1-3,3.8-6.2,6.9-6.8,21.7-4,39.6-4,63.8,0,3.2.6,6.3,3.4,7.1,6.5.8,2.3,1.2,5.1,1.2,8.4ZM117.5,70.1c0,3.6.4,7.7,1.3,12.5.2,1.7,1.6,3,3.5,3.2,20.9,3.1,40.1,3.1,64.2,0,2-.2,3.2-1.4,3.4-3.1.8-5.2,1.6-10.6,1.6-15h0c0-3-.3-5.5-1.1-7.5-.5-2-2.7-3.9-4.6-4.3-23.8-3.9-41.4-3.9-62.7,0-1.8.3-3.7,2.7-4.4,4.6-.8,2.8-1.2,6-1.2,9.6Z"/>
        </g>
        <path d="M185.1,74c0,.4-.3.7-.7.8-17.2,3.2-40.8,3.2-60.2,0-.4,0-.8-.5-.7-.9,0-.4.5-.7.9-.7,19.2,3.2,42.6,3.2,59.6,0,.4,0,.9.2.9.6,0,0,0,.1,0,.2Z"/>
        <g>
          <path class="cls-1" d="M332,150.2v-72c0-1.8-1.5-3.2-3.2-3.2h-18.9c-1.8,0-3.2,1.5-3.2,3.2v72c0,1.8,1.5,3.2,3.2,3.2h18.9c1.8,0,3.2-1.5,3.2-3.2h0Z"/>
          <path d="M333.7,78.2v72c0,2.7-2.2,4.8-4.8,4.8h-18.9c-2.7,0-4.8-2.2-4.8-4.8v-72c0-2.7,2.2-4.8,4.8-4.8h18.9c2.7,0,4.8,2.2,4.8,4.8ZM308.3,150.2c0,.9.7,1.6,1.6,1.6h18.9c.9,0,1.6-.7,1.6-1.6v-72c0-.9-.7-1.6-1.6-1.6h-18.9c-.9,0-1.6.7-1.6,1.6v72Z"/>
        </g>
        <g>
          <rect class="cls-2" x="344.2" y="28.3" width="40.4" height="138.4"/>
          <path d="M386.1,26.7v141.6h-43.6V26.7h43.6ZM382.9,165.1V30h-37.1v135.1h37.1Z"/>
        </g>
        <path d="M374.8,86.6c0,4-3.2,7.1-7.3,7.1s-7.1-3.1-7.1-7.1,3.1-7.1,7.1-7.1,7.3,3.1,7.3,7.1ZM362.1,86.6c0,3.1,2.4,5.5,5.5,5.5s5.7-2.4,5.7-5.5-2.5-5.5-5.7-5.5-5.5,2.4-5.5,5.5Z"/>
        <path d="M379.8,87.9c0,7.6-6.1,13.7-13.6,13.7s-13.7-6.2-13.7-13.7,6.2-13.6,13.7-13.6,13.6,6,13.6,13.6ZM354.2,87.9c0,6.7,5.4,12.1,12.1,12.1s11.9-5.4,11.9-12.1-5.3-11.9-11.9-11.9-12.1,5.4-12.1,11.9Z"/>
      </g>
      <g>
        <path class="cls-1" d="M196.3,121.7c-2.3-8.1-6.8-12.9-3.1-18.7,1.8-2.7,3.9-5,6-7.1-.2-.6-.3-1.5-.2-2.1l.2-1.1c.8-3.7,3.7-4.5,6.9-6.8,9-6,16.1-9.8,21.1-12.6,2.9-1.5,6.3-2.6,9.7-3.1.6-1.6,1.6-3.1,2.7-4.2,5.3-4.7,8.2-3.9,12.1-2.7,3.9,1.3,6.1,4.7,6.8,9.2,3.9,1.5,7.6,3.6,11.1,6.1,9,6.6,14.5,10,17.1,20.5.3,1.5.5,4.5.2,6.8-.3,1.8-1.3,2.7-1,4.4,1.5,6.1-1.8,34.9-1.6,37.3,1,10.5-3.7,19.4-9.4,15.5-2.9-1.9.2-7.4,0-10-.2-.6-1.3-.6-2.1.2-1.3,1.5-2.6-.3-2.1-1.1.8-1,3.4-4.8,3.9-5.3,2.4-1.9,1.9-5.7,1.9-6.6.3-3.2.2-5.8,0-8.9-3.2,9.2-11.1,14.2-13.2,19.9-.6,2.1-3.1,3.2-4.7,4.8-2.1,1.9-5.3,5-8.9,8.2.5,2.1,1.1,4.7,1.3,5.7.5,3.7,0,7.4.3,11.3.3,4.7-.3,9.2,0,14,.5,5.7,2.1,13.7-1.5,18.6l-.8.8c.5,2.4,0,4.2-.3,9.4-.5,5.2-2.4,14-4.2,14.2-1.9.2-9-.6-9.2-5.8-.2-5.3-3.4-12.6-.2-19.4-1.8-2.4-3.6-12.9-4-16.3-.8-5-1.1-11-1.3-16.3-3.1,1.8-3.9,1.8-7.1,2.9-3.6,1.3-8.6,3.7-11.5,5.8-1.8,1.1-3.7,1.5-5.7,1.1-4,3.1-5.7,5.3-10.7,8.1-5.2,2.9-9.2,6.5-12.8,3.9-3.4-2.4-3.1-6.9-1-12.1,1.8-4.8,11.9-10.8,15.7-13.1.6-3.1,2.9-4.8,5.2-7.4,5.2-5.8,7.1-5.7,15-9.8,3.4-1.8,5.3-3.1,7.1-4.7.3-3.1,0-6-.3-9-.2-1.1-.3-2.3-.6-3.6-.6-3.2-1-5.5-1.1-7.9-.3-2.7-.3-5.7-.3-10.8.2-5,.6-9.5.5-13.2,0-1.6-3.6-7.9-4.7-10.2-2.4,1.6-6,3.2-8.7,5.3-2.4,1.8-3.4,2.3-4.2,1.6l-.6.8c-1.6,3.1-.8,5.7.5,8.7,1,2.6,1.5,5.7,3.1,10.2,1,2.7,3.2,5.2,4.4,6.9,2.9,4.4,2.1,4.7,1.6,5.7-.5,1-1.6-.2-2.7-.3-.6,0-.5-.6-1.6,2.1-1,2.4-1,6.1-1.8,7.6-1.1,2.1-1.6,3.7-3.1,3.6-2.4-.2-2.1-2.9-1.9-5.7.2-2.6.5-4,.8-6,1.3-7.7-4.8-11-7.1-19.1h0Z"/>
        <g>
          <path class="cls-1" d="M198.5,185.1c-1.5-3.7-1.8-6.3-1.5-8.2-3.7,2.3-13.9,8.2-15.7,13.1-2.1,5.2-2.4,9.7,1,12.1,3.6,2.6,7.6-1,12.8-3.9,5-2.7,6.6-5,10.7-8.1-3.2-.5-6.1-2.4-7.3-5h0Z"/>
          <path d="M207,190.1c0,.4-.2.7-.5,1-1.4,1-2.5,2-3.5,2.9-2,1.8-3.9,3.4-7.3,5.3-.9.5-1.8,1.1-2.7,1.6-4,2.4-7.8,4.8-11.3,2.2-3.5-2.5-4-7.1-1.4-13.5,1.8-5,11.1-10.6,15.6-13.3l.6-.4c.4-.2.9-.2,1.3,0,.4.3.6.7.5,1.2-.3,1.9.1,4.4,1.4,7.6.9,2.1,3.5,3.8,6.3,4.2.5,0,.9.4,1,.9,0,.1,0,.2,0,.3ZM181.1,196.7c0,2,.7,3.4,2,4.4,2.1,1.6,4.6.2,8.6-2.3.9-.6,1.8-1.1,2.8-1.7,3.2-1.7,4.9-3.2,6.9-5,.5-.5,1.1-1,1.7-1.5-2.6-1-4.8-2.8-5.7-5.1-1-2.5-1.5-4.7-1.6-6.5-4.2,2.6-11.8,7.5-13.2,11.3-1,2.5-1.5,4.6-1.5,6.3Z"/>
        </g>
        <g>
          <path class="cls-1" d="M235.3,212.9c-3.2,6.8,0,14,.2,19.4.2,5.2,7.3,6,9.2,5.8,1.8-.2,3.7-9,4.2-14.2.3-5.2.8-6.9.3-9.4-.8.8-1.6,1.1-2.9,1.3-2.9,0-9-.3-11-2.9h0Z"/>
          <path d="M250.6,216.6c0,.9,0,2-.2,3.3-.1,1.1-.2,2.3-.3,4,0,.2-1.5,15-5.3,15.3-1.7.1-5.9-.3-8.5-2.6-1.3-1.2-2-2.7-2.1-4.4,0-1.5-.4-3.2-.7-5.1-.4-2.3-.9-4.9-.9-7.6s.5-5.1,1.5-7.3c.2-.4.6-.6,1-.7.4,0,.8.1,1.1.5,1.1,1.5,5,2.4,10,2.4.9-.1,1.5-.4,2.1-.9.3-.3.8-.4,1.2-.3.4.1.8.5.8.9.2.8.2,1.5.2,2.4ZM235.1,219.7c0,2.4.4,4.8.9,7.1.4,1.9.7,3.7.7,5.4,0,1.1.4,1.9,1.3,2.7,2,1.8,5.6,2.1,6.6,2,.7-.7,2.5-7.3,3.1-13.1.1-1.6.2-2.9.3-4,.1-1.3.2-2.2.2-3.1h0c-.5.1-1.1.3-1.8.4-3.6,0-8-.4-10.6-2.1-.5,1.4-.7,3-.7,4.8Z"/>
        </g>
        <g>
          <path class="cls-1" d="M235.3,212.9c1.9,2.6,8.1,2.9,11,2.9,1.3-.2,2.1-.5,2.9-1.3.3-.2.5-.5.8-.8,3.6-4.8,1.9-12.9,1.5-18.6-.3-4.8.3-9.4,0-14-.3-3.9.2-7.6-.3-11.3-.2-1-.8-3.6-1.3-5.7-6.5,6-13.9,12.8-17.4,14.7-.8.6-1.6,1.1-2.4,1.5.2,5.3.5,11.3,1.3,16.3.5,3.4,2.3,13.9,4,16.3h0Z"/>
          <path d="M253.5,204.9h0c0,4.1-.8,7.2-2.5,9.5-.2.2-.3.3-.3.4-.2.2-.4.5-.7.7-.9.9-2,1.3-3.5,1.5-4.4,0-10-.6-12.1-3.4-2.3-3.1-4.2-16.3-4.3-16.9-.7-4.2-1.1-9.4-1.3-16.4h0c0-.5.3-1,.8-1.2.7-.3,1.4-.7,2.1-1.3,3.6-2,10.8-8.6,17.4-14.6.3-.3.8-.4,1.2-.3.4.1.7.5.8.9l.5,2.1c.4,1.5.7,3,.8,3.6.2,1.7.2,3.3.2,4.5v3.6c0,1.1,0,2.2,0,3.3.2,2.4,0,4.7,0,7.1,0,2.3-.2,4.6,0,7,0,.8.2,1.7.3,2.7.2,2.2.5,4.7.5,7.2ZM231.3,181c.2,6.5.6,11.4,1.3,15.3.8,5.5,2.5,14,3.8,15.8,1.1,1.5,5,2.4,10,2.4.9-.1,1.5-.4,2.1-.9,0,0,.2-.2.3-.2.2-.3.3-.4.5-.6,1.2-1.7,1.9-4.3,1.9-7.9h0c0-2.3-.3-4.7-.5-6.9-.1-1-.2-1.9-.3-2.8-.2-2.5,0-4.9,0-7.3,0-2.3.2-4.5,0-6.8-.1-1.2-.1-2.3-.1-3.5v-3.6c0-1.2,0-2.7-.2-4.2-.1-.6-.4-2-.8-3.4h0c-6.5,5.9-12.8,11.5-16.2,13.4-.5.4-1.1.8-1.8,1.2Z"/>
        </g>
        <path d="M277.5,132.6c-1.9,5.3-5.2,9-8.1,12.2-2.2,2.4-4,4.5-4.9,6.7-.5,1.7-2,2.9-3.4,3.9-.6.4-1.1.9-1.6,1.3-9.5,9-21.8,20.2-26.5,23.1-4.8,2.9-5.6,3.2-8.5,4.1l-1.3.4c-3.2,1.2-8.2,3.6-11.1,5.6-2,1.3-4.2,1.7-6.6,1.3-3.7-.6-6.9-2.8-8.2-5.7-1.4-3.7-1.9-6.6-1.5-8.9.6-2.8,2.3-4.6,4-6.5.5-.5.9-1,1.4-1.5,4-4.6,6.3-5.7,10.5-7.7,1.4-.7,2.9-1.4,4.9-2.5,3-1.6,4.9-2.8,6.5-4.2.3-3.9-.2-7.5-1-11.8-.7-3.2-1-5.6-1.1-8-.3-2.7-.3-5.6-.3-10.9,0-1.9.2-3.7.3-5.4.2-2.8.3-5.5.2-7.8,0-1.1-2.5-5.8-3.6-7.8-.4-.7-.7-1.4-1-1.9l2.2-1.1c.2.5.6,1.1,1,1.8,2.6,4.8,3.9,7.6,3.9,8.9.1,2.4,0,5.1-.2,8,0,1.7-.2,3.5-.3,5.3,0,5.1,0,8,.3,10.6.2,2.4.5,4.6,1.1,7.8.8,4.7,1.3,8.6,1,12.9,0,.3-.2.6-.4.8-1.9,1.7-3.9,3.1-7.4,4.9-2,1.1-3.6,1.8-5,2.5-4.1,2-6,2.9-9.7,7.1-.5.6-1,1.1-1.5,1.6-1.7,1.8-3,3.2-3.4,5.3-.3,1.8.1,4.3,1.4,7.5.9,2.1,3.5,3.8,6.3,4.2,1.8.3,3.4,0,4.8-1,3-2.2,8.2-4.7,11.7-5.9l1.4-.4c2.8-.9,3.4-1.1,8-3.8,2.5-1.5,9.1-6.7,26.1-22.8.5-.5,1.2-1,1.8-1.5,1.1-.9,2.2-1.7,2.6-2.8,1-2.8,3.1-5.1,5.4-7.6,2.7-3,5.9-6.5,7.6-11.4l2.3.8Z"/>
        <path d="M287.9,117.8c0,7.6-1,17.1-1.7,23.7-.3,2.8-.6,5.5-.5,6,.7,7.6-1.5,14.8-5.3,17-1.9,1.1-4,1-6-.4-2.6-1.8-1.8-5.2-1.1-8,.2-.7.3-1.3.4-1.9-1,1.1-2.3,1-3.2.4-1-.7-1.4-2.1-.8-3.1.5-.6,1.3-1.7,2-2.8,1.2-1.7,1.7-2.4,2-2.7,1.8-1.4,1.7-4,1.6-5.3v-.5c.2-2.4-.1-6.3-.4-9.5-.1-1.5-.2-2.8-.3-3.9v-1c-.4-2.9-.6-5.5-2.8-10.4l2.2-1c2.4,5.3,2.7,8.1,2.9,11.2v1c.1,1.1.3,2.4.4,3.9.3,3.4.6,7.3.4,9.8v.3c0,1.5.2,5.1-2.4,7.2-.1.1-1,1.4-1.6,2.3-.5.8-1.1,1.5-1.5,2.1.8-.7,1.8-.9,2.6-.7.7.2,1.2.7,1.3,1.3.1,1.3-.2,2.5-.6,3.9-.7,2.6-1.1,4.7,0,5.4,1.2.8,2.3.9,3.4.3,2.5-1.5,4.8-7.2,4.1-14.7,0-.8.1-2.6.5-6.4.9-8.9,2.7-25.4.9-31.6l2.3-.6c.6,2.1.8,5.3.8,8.9Z"/>
        <path d="M288.4,101.9c0,.2,0,.4,0,.6v1.3c-.3,5.1-.5,5.7-4.4,8.2l-.7.5c-2.1,1.4-3.5,2.4-6.4,3-6.9,1.4-7.9-.7-9.6-5.1-.4-1-.8-2.3-1.5-3.6-1.2-2.7-2.5-5.7-8.3-10l1.4-1.9c6.4,4.7,7.8,8.1,9,10.8.7,1.6,1.2,2.9,1.6,4,1.4,3.9,1.7,4.6,6.8,3.6,2.5-.5,3.5-1.2,5.5-2.6l.8-.6q3.1-1.9,3.3-6.3v-1.3c.2-3.2-1.2-6.1-2.5-8.7-2.6-4.5-7.5-9.3-14.3-14.1-12.4-9.3-29.4-11.4-41.2-5.2l-.4.2c-5,2.8-11.9,6.5-20.7,12.3-.7.5-1.5,1-2.2,1.4-2.2,1.4-3.7,2.3-4.2,4.6-.1.4-.1.6-.1.9-.2,2.7,1.8,6.4,3.1,8.8l.3.5c.2.4.5.8.7,1.2s.3.6.4.8c.6,1,.8,1.1.8,1.1.3,0,1.2-.5,2.8-1.6,1.7-1.3,3.6-2.4,5.5-3.4,1.2-.7,2.3-1.3,3.3-1.9l1.3,2c-1,.7-2.2,1.3-3.4,2-1.8,1-3.7,2-5.2,3.3-2.3,1.6-3.5,2.3-4.8,2-1.1-.3-1.8-1.2-2.4-2.2-.1-.2-.3-.6-.5-1-.2-.3-.4-.7-.6-1.1l-.3-.5c-1.6-2.8-3.7-6.6-3.4-10.1,0-.5,0-1,.3-1.5.6-3.1,2.9-4.4,5.2-5.9.7-.4,1.4-.8,2.1-1.3,8.9-5.9,15.8-9.7,20.9-12.5l.4-.2c12.6-6.6,30.6-4.3,43.8,5.4,7.2,5.1,12.1,10,15,14.9,1.5,2.8,2.9,6,2.9,9.5Z"/>
        <path d="M244.1,133.9c0,.2,0,.4-.2.6-2.6,4.5-6.3,8.4-10,12.2-1,1-2,2.1-3,3.1-1.5,1.5-2.5,2.7-3.5,3.7-.8.8-1.5,1.6-2.2,2.3-.5.5-1.2.5-1.7,0-.5-.5-.5-1.2,0-1.7.7-.7,1.4-1.4,2.1-2.2,1-1.1,2.1-2.3,3.5-3.7.9-1,1.9-2,3-3.1,3.5-3.6,7.2-7.4,9.6-11.7.3-.6,1.1-.8,1.7-.5.4.2.6.6.6,1.1Z"/>
        <path d="M230.7,113.9c0,.1,0,.2-.1.3-2,2.7-3.5,6.4-4.4,11.1,0,.3-.4.5-.7.5-.3,0-.5-.4-.5-.7.9-4.8,2.5-8.7,4.6-11.5.2-.3.5-.3.8-.1.2.1.2.3.2.5Z"/>
        <path d="M271.8,126.5c0,.3-.2.7-.6.8-2.6.9-5.9-.3-9.9-1.7-3.9-1.4-8.8-3.1-14.4-3.3-4.9-.2-10.8,1.8-15.3,5-4.5,3-6.3,4.7-8.7,7.6-.3.3-.8.4-1.1.1-.3-.3-.4-.8-.1-1.1,2.6-3.1,4.4-4.8,9.1-7.9,4.9-3.5,11-5.5,16.3-5.3,5.8.2,10.8,1.9,14.9,3.4,3.8,1.3,6.8,2.4,8.9,1.7.4-.1.9,0,1,.5,0,0,0,.2,0,.3Z"/>
        <path d="M193.8,194.1l-.3.5-.4.4c-1.5-1.1-4.2-3.2-4.3-7.1,0,0,0,0,0,0,0-.3.2-.6.5-.6.3,0,.6.2.6.5.1,3.4,2.5,5.2,3.9,6.3Z"/>
        <path d="M245.8,224.2c0,.2,0,.4-.3.5-2.4,1.6-6.6,1.3-8.8,0-.3-.2-.4-.5-.2-.8.2-.3.5-.4.8-.2,1.8,1.1,5.6,1.3,7.6,0,.3-.2.6,0,.8.2,0,0,0,.2,0,.3Z"/>
        <path d="M231.2,174.4c0,0,0,.1,0,.2,0,.3-.4.5-.7.4-4.7-1.4-9.9-5.6-9.3-12.7,0-.3.3-.5.6-.5.3,0,.5.3.5.6-.8,8.5,7.5,11.2,8.5,11.5.2,0,.4.3.4.5Z"/>
        <path d="M247.2,176.5c0,.2,0,.4-.3.5-3.4,2.2-5.6,3-8.7,3.2-.3,0-.6-.2-.6-.5,0,0,0,0,0,0,0-.3.2-.6.5-.6,2.9-.2,4.9-.9,8.1-3,.3-.2.6,0,.8.2,0,0,0,.2,0,.3Z"/>
        <path d="M223.5,98.6c0,.6-.5,1.1-1.1,1.2-.8.1-3,1-4.2,1.5-.6.3-1.3,0-1.6-.6-.3-.6,0-1.3.6-1.6.6-.3,3.5-1.5,4.9-1.7.7,0,1.3.4,1.4,1.1,0,0,0,.1,0,.2Z"/>
        <path d="M253.3,116s0,0,0,0c0,.3-.3.6-.6.5-10-.6-21.1,5.4-21.2,5.4-.3.2-.6,0-.8-.2-.2-.3,0-.6.2-.8.5-.3,11.4-6.2,21.8-5.6.3,0,.5.3.5.6Z"/>
        <path d="M228.7,130.8c0,1.9,0,4.8-.4,7.4-.5,4.3-3.7,7.9-3.9,8.1l-.8-.8s3.1-3.5,3.6-7.4c.5-4.3.3-9.2.3-9.3h1.1s0,.8,0,2Z"/>
        <path d="M270.9,132.1s0,0,0,0c0,1.4-1,2.3-2.1,3.3-1.3,1.2-2.9,2.7-3.9,5.8-1.1,3.5-1.1,3.8-1,5.1,0,.8.2,2,0,4.6,0,.3-.3.6-.6.5-.3,0-.5-.3-.5-.6s0,0,0,0c.1-2.5,0-3.6,0-4.4,0-1.5,0-2,1-5.6,1-3.4,2.9-5.1,4.2-6.3,1-.9,1.7-1.6,1.8-2.6,0-.3.3-.6.6-.5.3,0,.5.3.5.6Z"/>
        <path d="M270.9,132.1s0,0,0,0c0,.3-.3.5-.6.5-1.7-.2-3.5-1-5.6-2-3.3-1.5-6.9-3.2-11.8-3.3-.3,0-.6-.3-.6-.6h0c0-.3.3-.6.6-.6,5.1.1,9,1.9,12.2,3.4,2,.9,3.7,1.7,5.3,1.9.3,0,.5.3.5.6Z"/>
        <path d="M267.8,83.1c0,.7-.3,1.1-.6,1.4-2.8,2.8-10.7,9.4-22.2,9.4s-15.6-3.6-20.1-10.7c-.7-1.1-1-2.1-.7-3.1.7-2.4,4.4-4,10.4-6.6l2.9-1.3.7,1.5-2.9,1.3c-5.3,2.3-9.1,3.9-9.5,5.6-.1.3-.2.9.5,1.8,4.1,6.6,10.4,10,18.7,10s18.4-6.3,21.1-9c.1,0,0-.4,0-.7-1.1-2.8-8-8.2-13.6-8.1v-1.6c6.1-.1,13.6,5.5,15.1,9.1.2.5.3.8.3,1.2Z"/>
        <g>
          <path class="cls-1" d="M259.4,83.4c-.2.3-.2.6-.3,1-3.4,11.1-12.8,15-20.3,12.6-7.7-2.3-9-9.5-5.7-20.5,1.5-4.7,2.7-9.7,5.7-12.4,6.1-5.3,9.5-4.4,14-3.1,7.4,2.3,9.5,11.8,6.6,22.4h0Z"/>
          <path d="M261.9,74.6c0,2.9-.4,5.9-1.3,9.1l-1.3.2,1.2.3c0,.2-.1.5-.3.7-2.1,7-6.3,10.4-9.4,12.1-3.9,2-8.3,2.4-12.4,1.1-8-2.3-10.3-9.6-6.4-22l.4-1.4c1.3-4.3,2.7-8.8,5.5-11.5,6.7-5.8,10.6-4.7,15.2-3.4,5.6,1.7,8.8,7.1,8.8,14.8ZM232.5,86.3c0,5.1,2.1,8.2,6.5,9.5,3.5,1.1,7.2.8,10.5-1,2.7-1.4,6.4-4.5,8.3-10.8v-.4c.2-.2.3-.5.4-.7.7-2.7,1.1-5.6,1.1-8.2,0-6.6-2.6-11.1-7-12.5-4.4-1.2-7.3-2.1-12.9,2.8-2.3,2.2-3.6,6.4-4.8,10.4l-.4,1.4c-1.1,3.7-1.7,6.9-1.7,9.5Z"/>
        </g>
        <g>
          <path class="cls-1" d="M193.2,102.9c-3.7,5.8.8,10.7,3.1,18.7s8.4,11.3,7.1,19.1c-.3,1.9-.6,3.4-.8,6-.2,2.7-.5,5.5,1.9,5.7,1.5.2,1.9-1.5,3.1-3.6.8-1.5.8-5.2,1.8-7.6,1.1-2.7,1-2.1,1.6-2.1,1.1.2,2.3,1.3,2.7.3.5-1,1.3-1.3-1.6-5.7-1.1-1.8-3.4-4.2-4.4-6.9-1.6-4.5-2.1-7.6-3.1-10.2-1.3-3.1-2.1-5.7-.5-8.7.2-.2.3-.5.6-.8-.5-.3-.8-.8-1.1-1.5l-1.1-2.1c-1.1-1.9-2.9-5-3.4-7.7-2.1,2.1-4.2,4.4-6,7.1h0Z"/>
          <path d="M215.4,138.1c0,.8-.3,1.2-.5,1.6-1,1.9-2.6,1.1-3.3.9-.2,0-.4-.2-.6-.2-.2.4-.4,1-.6,1.3-.4,1.1-.7,2.5-.9,3.9-.2,1.6-.5,2.9-1,3.8-.2.3-.4.7-.5,1-.8,1.7-1.7,3.4-3.7,3.1-2.1-.1-3.1-1.6-3.1-4.5s0-1.3,0-2v-.5c.2-2.2.4-3.6.7-5l.2-1.1c.7-4.2-1-6.9-3.1-10.2-1.4-2.3-3.1-4.9-4-8.3-.6-2.3-1.5-4.3-2.3-6.3-1.2-3-2.3-5.5-2.3-8.2s.5-3.6,1.6-5.3c1.9-2.9,4.2-5.3,6.1-7.3l1.6-1.6.4,2.3c.5,2.6,2.2,5.6,3.2,7.3l1.2,2.1c.3.6.5.9.7,1l1.2.8-1,1c-.1.1-.2.3-.3.4,0,0-.1.2-.2.3-1.2,2.3-.7,4.4.6,7.6.5,1.3.8,2.6,1.2,4.1.5,1.8,1,3.7,1.9,6.2.6,1.8,1.9,3.4,3,4.9.5.7.9,1.3,1.3,1.8,1.6,2.4,2.3,3.9,2.3,5ZM212.8,138.5c.1-.2.1-.3.1-.4,0-.4-.3-1.3-1.9-3.7-.3-.5-.8-1.1-1.2-1.7-1.1-1.5-2.6-3.4-3.3-5.5-.9-2.5-1.4-4.5-1.9-6.4-.4-1.4-.7-2.7-1.1-3.8-1.2-2.9-2.1-6.4-.4-9.7v-.2c-.1-.3-.3-.7-.5-1l-1.1-2.1c-.8-1.4-2.1-3.7-2.9-6-1.5,1.6-3,3.4-4.3,5.4-2.1,3.3-1,6.8.9,11.2.8,1.9,1.7,4.1,2.4,6.5.9,3.1,2.3,5.4,3.7,7.7,2.2,3.5,4.3,6.8,3.4,11.9l-.2,1.1c-.3,1.5-.5,2.7-.6,4.8v.5c0,.6-.1,1.2-.1,1.8,0,2,.5,2,.9,2.1.4,0,.7-.6,1.4-1.8.2-.3.4-.7.6-1.1.3-.6.5-1.8.7-3,.2-1.5.5-3.1,1-4.4.9-2.2,1.3-3.2,2.7-2.9.7.1,1.2.3,1.7.5,0,0,.2,0,.2.1Z"/>
        </g>
      </g>
    </g>
  </g>
</svg>