<?xml version="1.0" encoding="UTF-8"?>
<svg xmlns="http://www.w3.org/2000/svg" version="1.1" viewBox="0 0 383 321">
  <defs>
    <style>
      .cls-1 {
        fill: #fff;
        fill-rule: evenodd;
      }
    </style>
  </defs>
  <!-- Generator: Adobe Illustrator 28.6.0, SVG Export Plug-In . SVG Version: 1.2.0 Build 709)  -->
  <g>
    <g id="Layer_1">
      <g>
        <g>
          <path class="cls-1" d="M39.1,35.3v98.5c0,4-3.2,7.3-7.3,7.3h-5.7c-3.9,0-7.1-3.2-7.1-7.3V42.5c0-4,3.2-7.3,7.1-7.3h12.9Z"/>
          <path d="M31.9,142.6h-5.7c-4.8,0-8.7-4-8.7-8.9V42.5c0-4.9,3.9-8.9,8.7-8.9h14.5v100.1c0,4.9-4,8.9-8.9,8.9ZM26.2,36.9c-3,0-5.5,2.5-5.5,5.7v91.2c0,3.1,2.5,5.7,5.5,5.7h5.7c3.2,0,5.7-2.5,5.7-5.7V36.9h-11.3Z"/>
        </g>
        <g>
          <path class="cls-1" d="M365.7,274.5h-98.6c-3.9,0-7.1,3.2-7.1,7.3v5.7c0,3.9,3.2,7.1,7.1,7.1h91.4c4,0,7.3-3.2,7.3-7.1v-12.9Z"/>
          <path d="M358.5,296.2h-91.4c-4.7,0-8.7-4-8.7-8.7v-5.7c0-4.9,3.9-8.9,8.7-8.9h100.3v14.5c0,4.8-4,8.7-8.9,8.7ZM267.1,276.1c-3,0-5.5,2.5-5.5,5.7v5.7c0,3,2.5,5.5,5.5,5.5h91.4c3.1,0,5.7-2.5,5.7-5.5v-11.3h-97Z"/>
        </g>
        <g>
          <path class="cls-1" d="M267.1,187.2h98.6v-12.8c0-76.8-62.3-139.2-139.3-139.2h-12.8v98.5c0,4,3.4,7.3,7.3,7.3h5.5c18.6,0,33.6,15,33.6,33.4v5.7c0,3.9,3.2,7.1,7.1,7.1h0Z"/>
          <path d="M367.3,188.8h-100.3c-4.7,0-8.7-4-8.7-8.7v-5.7c0-17.5-14.3-31.8-32-31.8h-5.5c-4.8,0-8.9-4.1-8.9-8.9V33.7h14.4c77.7,0,140.9,63.1,140.9,140.8v14.4ZM215.3,36.9v96.9c0,3.1,2.6,5.7,5.7,5.7h5.5c19.4,0,35.2,15.7,35.2,35v5.7c0,3,2.5,5.5,5.5,5.5h97v-11.1c0-75.8-61.8-137.6-137.7-137.6h-11.1Z"/>
        </g>
        <path d="M38.5,48.2c-6,0-12-2.4-14.4-5.7-1.3-1.8-1.2-3.5-.8-4.5,1.4-4.5,5.9-4.4,9.2-4.3h6.7v3.2h-6.7c-3.4,0-5.5,0-6.1,2.1,0,.2-.2.7.4,1.6,1.5,2.1,6.4,4.4,11.8,4.4v3.2Z"/>
        <g>
          <path class="cls-1" d="M126.5,35.3v98.5c0,4,3.2,7.3,7.1,7.3h73c3.9,0,7.1-3.2,7.1-7.3V35.3h-87.2Z"/>
          <path d="M206.5,142.6h-73c-4.8,0-8.7-4-8.7-8.9V33.7h90.4v100.1c0,4.9-3.9,8.9-8.7,8.9ZM128.1,36.9v96.9c0,3.1,2.5,5.7,5.5,5.7h73c3,0,5.5-2.5,5.5-5.7V36.9h-84Z"/>
        </g>
        <g>
          <path class="cls-1" d="M126.5,35.3v13.9c0,4,3.2,7.3,7.1,7.3h73c3.9,0,7.1-3.2,7.1-7.3v-13.9h-87.2Z"/>
          <path d="M206.5,58h-73c-4.8,0-8.7-4-8.7-8.9v-15.5h90.4v15.5c0,4.9-3.9,8.9-8.7,8.9ZM128.1,36.9v12.3c0,3.1,2.5,5.7,5.5,5.7h73c3,0,5.5-2.5,5.5-5.7v-12.3h-84Z"/>
        </g>
        <g>
          <path class="cls-1" d="M39.1,35.3v98.5c0,4,3.2,7.3,7.3,7.3h72.8c3.9,0,7.3-3.2,7.3-7.3V35.3H39.1Z"/>
          <path d="M119.2,142.6H46.4c-4.9,0-8.9-4-8.9-8.9V33.7h90.6v100.1c0,4.8-4.1,8.9-8.9,8.9ZM40.7,36.9v96.9c0,3.2,2.5,5.7,5.7,5.7h72.8c3.1,0,5.7-2.6,5.7-5.7V36.9H40.7Z"/>
        </g>
        <rect x="39.1" y="67.2" width="174.5" height="3.2"/>
        <path d="M361.5,290.7c-.8,0-1.8-.2-2.9-1-3.3-2.3-5.7-8.5-5.7-14.5h3.2c0,5.4,2.3,10.3,4.4,11.8.8.6,1.2.4,1.4.4,2.2-.7,2.4-2.8,2.3-6.3v-1s0-92.8,0-92.8h3.2v93.8c0,3.2.1,8.1-4.5,9.4-.4.1-.8.2-1.3.2Z"/>
        <g>
          <path class="cls-1" d="M365.7,187.2h-98.6c-3.9,0-7.1,3.4-7.1,7.3v72.8c0,4,3.2,7.3,7.1,7.3h98.6v-87.3Z"/>
          <path d="M367.3,276.1h-100.3c-4.8,0-8.7-4-8.7-8.9v-72.8c0-4.8,4-8.9,8.7-8.9h100.3v90.6ZM267.1,188.8c-2.9,0-5.5,2.6-5.5,5.7v72.8c0,3.1,2.5,5.7,5.5,5.7h97v-84.1h-97Z"/>
        </g>
        <g>
          <path class="cls-1" d="M365.7,187.2h-13.9c-4,0-7.3,3.4-7.3,7.3v72.8c0,4,3.2,7.3,7.3,7.3h13.9v-87.3Z"/>
          <path d="M367.3,276.1h-15.5c-4.9,0-8.9-4-8.9-8.9v-72.8c0-4.8,4.1-8.9,8.9-8.9h15.5v90.6ZM351.8,188.8c-3.1,0-5.7,2.6-5.7,5.7v72.8c0,3.2,2.5,5.7,5.7,5.7h12.3v-84.1h-12.3Z"/>
        </g>
        <rect x="330.5" y="187.2" width="3.2" height="87.3"/>
        <path d="M333.8,187.2h-3.2v-12.8c0-28.1-11.5-55.4-31.6-75.1-19.7-19.2-45.6-29.5-72.5-28.9h-12.8v-3.2h12.8c27.9-.6,54.5,10,74.8,29.8,20.7,20.2,32.5,48.4,32.5,77.4v12.8Z"/>
        <g>
          <g>
            <path class="cls-1" d="M147.1,46.6c12.4.5,17.4,1,30.4-.3,7.7-.8,10.5.3,15.5.3,5-.2,7.4,3.7,8.6,8.2,1.1,4.5,1.6,8.1-1.6,18.4-3.4,10.5-2.9,12.8-6.5,13.1-3.4.2-6-.6-13.6-.8-7.6,0-20.2.2-22.8.5-2.7.3-9,2.7-12.6-1.8-3.6-4.5-6.9-9-6.8-22.1.2-4.2.8-7.6,1.8-10,1.9-4.8,3.2-5.7,7.6-5.5h0Z"/>
            <path d="M150.7,88.1c-3.1,0-5.5-1.1-7.1-3.2-3.5-4.5-7.2-9.2-7-22.9.2-4.2.8-7.8,1.9-10.4,2.1-5.3,3.8-6.4,8.8-6.2l4.5.2c9.8.4,15.5.5,25.7-.5,4.4-.5,8-.2,10.9,0,1.5.2,3,.3,4.7.3h0c3.6,0,7.8,1.6,9.7,9.1,1.2,4.6,1.7,8.5-1.6,19.1-.8,2.6-1.4,4.7-1.9,6.3-1.5,5.3-2.1,7.3-5.6,7.6-2,0-3.2,0-5.2-.3-2.1-.2-4.6-.5-8.5-.5-7.7,0-20.1.2-22.6.5-.5,0-1,.2-1.7.3-1.4.3-3.1.6-4.9.6ZM146.2,47.8c-2.9,0-3.8.5-5.5,4.7-1,2.4-1.5,5.7-1.7,9.6-.2,12.8,3.2,17.1,6.5,21.3,1.2,1.5,2.9,2.2,5.2,2.2s3.2-.3,4.4-.6c.7-.1,1.3-.3,1.9-.3,2.7-.3,15.3-.5,22.9-.5,4,0,6.6.4,8.7.6,1.8.2,3.2.3,4.8.3,1.7-.2,1.9-.5,3.4-5.8.5-1.7,1.1-3.8,1.9-6.4,3.1-10,2.7-13.4,1.6-17.7-1.2-5-3.5-7.3-7.2-7.3-2.1,0-3.6-.2-5.2-.3-2.8-.3-6.2-.5-10.4,0-10.3,1-16.2.9-26,.5l-4.5-.2c-.3,0-.6,0-.9,0Z"/>
          </g>
          <path d="M170.4,67.3c-2.1,0-4.3,0-6.3-.1-1.5,0-2.9,0-3.9,0-3.7,0-8.4-1.7-10.2-2.9-.3-.2-.5-.4-.8-.6-1.1-.8-1.8-1.4-4.5-1.7-.4,0-.8-.5-.7-.9,0-.4.4-.8.9-.7,3.2.4,4.1,1.1,5.3,2,.2.2.4.3.7.5,1.5,1.1,5.9,2.6,9.2,2.6s2.4,0,4,0c3.7.1,8.2.3,11.5,0,.8,0,1.7-.2,2.5-.2,3.7-.3,7.1-.7,9-1.8,1.9-1.2,3.7-1.8,5.5-2.5.5-.2,1-.4,1.6-.6.4-.2.9,0,1.1.5.2.4,0,.9-.5,1.1-.6.2-1.1.4-1.6.6-1.8.7-3.4,1.3-5.2,2.4-2.2,1.3-5.8,1.6-9.7,2-.8,0-1.6.2-2.5.2-1.6.2-3.5.2-5.4.2Z"/>
          <path d="M190.9,74c0,0-.2,0-.3,0-1-.4-2.6-1.1-4.3-2-2-1-4.3-2-5.5-2.4-2.2-.6-10.1-2.2-14.6-2.1-4.2.2-12.7,3.1-16.1,6.2-.3.3-.8.3-1.1,0-.3-.3-.3-.8,0-1.1,3.7-3.4,12.5-6.5,17.1-6.7,4.7-.1,12.7,1.5,15.1,2.1,1.3.4,3.6,1.5,5.7,2.5,1.7.8,3.2,1.6,4.2,1.9.4.2.6.6.5,1-.1.3-.4.5-.8.5Z"/>
        </g>
        <g>
          <path class="cls-1" d="M365.7,174.4c0-76.8-62.3-139.2-139.3-139.2h-12.8v13.9c0,4,3.4,7.3,7.3,7.3h5.5c65.2,0,118.2,52.8,118.2,118v5.7c0,3.9,3.2,7.1,7.3,7.1h13.9v-12.8Z"/>
          <path d="M367.3,188.8h-15.5c-4.9,0-8.9-3.9-8.9-8.7v-5.7c0-64.2-52.3-116.4-116.6-116.4h-5.5c-4.8,0-8.9-4.1-8.9-8.9v-15.5h14.4c77.7,0,140.9,63.1,140.9,140.8v14.4ZM215.3,36.9v12.3c0,3.1,2.6,5.7,5.7,5.7h5.5c66.1,0,119.8,53.7,119.8,119.6v5.7c0,3,2.5,5.5,5.7,5.5h12.3v-11.1c0-75.8-61.8-137.6-137.7-137.6h-11.1Z"/>
        </g>
        <g>
          <path class="cls-1" d="M39.1,35.3v13.9c0,4,3.2,7.3,7.3,7.3h72.8c3.9,0,7.3-3.2,7.3-7.3v-13.9H39.1Z"/>
          <path d="M119.2,58H46.4c-4.9,0-8.9-4-8.9-8.9v-15.5h90.6v15.5c0,4.8-4.1,8.9-8.9,8.9ZM40.7,36.9v12.3c0,3.2,2.5,5.7,5.7,5.7h72.8c3.1,0,5.7-2.6,5.7-5.7v-12.3H40.7Z"/>
        </g>
        <g>
          <g>
            <path class="cls-1" d="M60.1,46.6c12.4.5,17.6,1,30.4-.3,7.9-.8,10.7.3,15.7.3,5-.2,7.4,3.7,8.6,8.2,1,4.5,1.5,8.1-1.8,18.4-3.2,10.5-2.9,12.8-6.3,13.1-3.4.2-6.1-.6-13.6-.8-7.6,0-20.2.2-22.9.5-2.6.3-9,2.7-12.6-1.8-3.4-4.5-6.9-9-6.6-22.1,0-4.2.6-7.6,1.6-10,1.9-4.8,3.2-5.7,7.6-5.5h0Z"/>
            <path d="M63.7,88.1c-3.1,0-5.5-1.1-7.2-3.2-3.6-4.8-7.2-9.6-6.9-22.9,0-4,.6-7.6,1.7-10.4,2.1-5.3,3.9-6.4,8.8-6.2l4.4.2c9.9.4,15.7.5,25.8-.5,4.5-.5,8.1-.3,11.1,0,1.5.1,3,.3,4.7.3h0c3.6,0,7.8,1.6,9.7,9.1,1.1,4.9,1.5,8.6-1.8,19.1-.7,2.3-1.3,4.3-1.7,5.9-1.6,5.6-2.2,7.7-5.6,8.1-2,0-3.3,0-5.3-.3-2.1-.2-4.6-.5-8.4-.5-7.8,0-20.1.2-22.8.5-.4,0-.9.2-1.5.3-1.4.3-3.2.7-5,.7ZM59.2,47.8c-2.9,0-3.8.5-5.5,4.7-.7,1.7-1.5,4.8-1.5,9.6-.3,12.5,2.9,16.7,6.2,21.2,1.3,1.7,3,2.4,5.4,2.4s3.2-.3,4.5-.6c.7-.1,1.2-.3,1.7-.3,2.9-.3,15.5-.5,23.1-.5,3.9,0,6.5.3,8.6.6,1.9.2,3.3.3,4.9.3,1.6-.2,1.9-.6,3.5-6.3.5-1.6,1-3.6,1.7-5.9,3.1-9.9,2.7-13.3,1.7-17.8-1.2-4.9-3.5-7.3-7.1-7.3-2.1,0-3.6-.1-5.2-.3-2.9-.3-6.3-.5-10.6,0-5.8.6-10.2.8-14.8.8s-6.9-.1-11.3-.3l-4.4-.2c-.3,0-.6,0-.9,0Z"/>
          </g>
          <path d="M103.9,74c0,0-.2,0-.3,0-1.1-.4-2.7-1.2-4.3-2-2-1-4.1-2-5.3-2.4-2.4-.7-10.3-2.2-14.6-2.1-4.3.1-12.6,3.1-16.3,6.3-.3.3-.8.3-1.1,0-.3-.3-.3-.8,0-1.1,3.7-3.2,12.2-6.5,17.3-6.7.2,0,.4,0,.7,0,4.6,0,12.1,1.5,14.4,2.1,1.3.4,3.5,1.4,5.6,2.5,1.7.8,3.2,1.6,4.2,1.9.4.2.6.6.5,1-.1.3-.4.5-.8.5Z"/>
          <path d="M83.5,67.3c-2.1,0-4.3,0-6.3-.1-1.5,0-2.9,0-3.9,0-3.8,0-8.6-1.7-10.3-2.9-.3-.2-.6-.4-.9-.6-1-.8-1.6-1.3-4.3-1.6-.4,0-.8-.5-.7-.9,0-.4.4-.8.9-.7,3.1.4,3.9,1.1,5.1,2,.2.2.5.4.8.6,1.5,1,6,2.6,9.4,2.6s2.4,0,4,0c3.6.1,8.2.3,11.5,0,.8,0,1.6-.2,2.4-.2,3.6-.3,7.1-.6,8.9-1.8,1.9-1.1,3.6-1.8,5.4-2.4.6-.2,1.2-.5,1.9-.7.4-.2.9,0,1.1.5.2.4,0,.9-.5,1.1-.6.3-1.3.5-1.9.7-1.7.6-3.4,1.3-5.1,2.3-2.2,1.3-5.6,1.6-9.6,2-.8,0-1.6.2-2.4.2-1.6.2-3.5.2-5.4.2Z"/>
        </g>
      </g>
    </g>
  </g>
</svg>