<?xml version="1.0" encoding="UTF-8"?>
<svg xmlns="http://www.w3.org/2000/svg" version="1.1" viewBox="0 0 479 201">
  <defs>
    <style>
      .cls-1 {
        fill-rule: evenodd;
      }

      .cls-1, .cls-2 {
        fill: #fff;
      }
    </style>
  </defs>
  <!-- Generator: Adobe Illustrator 28.6.0, SVG Export Plug-In . SVG Version: 1.2.0 Build 709)  -->
  <g>
    <g id="Layer_1">
      <g>
        <g>
          <rect class="cls-2" x="391.2" y="35.4" width="32.9" height="129.2"/>
          <path d="M425.8,166.2h-36.2V33.8h36.2v132.4ZM392.9,163h29.7V37h-29.7v125.9Z"/>
        </g>
        <g>
          <rect class="cls-2" x="287.8" y="35.4" width="103.5" height="26.5"/>
          <path d="M392.9,63.5h-106.7v-29.7h106.7v29.7ZM289.4,60.3h100.3v-23.2h-100.3v23.2Z"/>
        </g>
        <g>
          <rect class="cls-2" x="184.4" y="35.4" width="103.3" height="26.5"/>
          <path d="M289.4,63.5h-106.5v-29.7h106.5v29.7ZM186.1,60.3h100.1v-23.2h-100.1v23.2Z"/>
        </g>
        <g>
          <rect class="cls-2" x="81.1" y="35.4" width="103.3" height="26.5"/>
          <path d="M186.1,63.5h-106.5v-29.7h106.5v29.7ZM82.7,60.3h100.1v-23.2h-100.1v23.2Z"/>
        </g>
        <g>
          <rect class="cls-2" x="48" y="35.4" width="33.1" height="129.2"/>
          <path d="M82.7,166.2h-36.3V33.8h36.3v132.4ZM49.6,163h29.9V37h-29.9v125.9Z"/>
        </g>
        <g>
          <path class="cls-1" d="M184.4,61.9h-103.3v96.2c0,3.6,2.9,6.5,6.5,6.5h90.4c3.6,0,6.5-2.9,6.5-6.5V61.9Z"/>
          <path d="M178,166.2h-90.4c-4.4,0-8.1-3.6-8.1-8.1V60.3h106.5v97.8c0,4.4-3.6,8.1-8.1,8.1ZM82.7,63.5v94.6c0,2.7,2.2,4.8,4.8,4.8h90.4c2.7,0,4.8-2.2,4.8-4.8V63.5h-100.1Z"/>
        </g>
        <g>
          <path class="cls-1" d="M287.8,61.9h-103.3v96.2c0,3.6,2.9,6.5,6.5,6.5h90.4c3.6,0,6.5-2.9,6.5-6.5V61.9Z"/>
          <path d="M281.3,166.2h-90.4c-4.4,0-8.1-3.6-8.1-8.1V60.3h106.5v97.8c0,4.4-3.6,8.1-8.1,8.1ZM186.1,63.5v94.6c0,2.7,2.2,4.8,4.8,4.8h90.4c2.7,0,4.8-2.2,4.8-4.8V63.5h-100.1Z"/>
        </g>
        <g>
          <path class="cls-1" d="M391.2,61.9h-103.5v96.2c0,3.6,3.1,6.5,6.6,6.5h90.4c3.6,0,6.5-2.9,6.5-6.5V61.9Z"/>
          <path d="M384.8,166.2h-90.4c-4.5,0-8.2-3.7-8.2-8.1V60.3h106.7v97.8c0,4.4-3.6,8.1-8.1,8.1ZM289.4,63.5v94.6c0,2.6,2.3,4.8,5,4.8h90.4c2.7,0,4.8-2.2,4.8-4.8V63.5h-100.3Z"/>
        </g>
        <path d="M369.5,97.3c-.2,0-.4,0-.5-.2-.8-.7-1.8-1.6-2.7-2.5-3.4-3.2-7.4-6.8-10.7-8-.4-.1-.6-.6-.5-1,.1-.4.6-.7,1-.5,3.7,1.3,7.7,5.1,11.3,8.4,1,.9,1.9,1.7,2.7,2.4.3.3.4.8,0,1.1-.2.2-.4.3-.6.3Z"/>
        <path d="M358,98.9s0,0-.1,0c-.4,0-.7-.5-.7-.9.7-4.9,5.5-10.3,9.6-12.4.4-.2.9,0,1.1.4.2.4,0,.9-.4,1.1-3.6,1.8-8.2,7-8.8,11.2,0,.4-.4.7-.8.7Z"/>
        <path d="M355.7,141.5c-.3,0-.5-.1-.7-.3-.3-.4-.2-.9.2-1.1,1-.7,2.1-1.4,3.3-2.2,3.4-2.2,7.3-4.7,9-7.4.2-.4.7-.5,1.1-.3.4.2.5.7.3,1.1-1.9,3-6,5.6-9.5,7.9-1.2.8-2.3,1.5-3.3,2.2-.1.1-.3.1-.5.1Z"/>
        <path d="M367.8,142.6c-.3,0-.6-.2-.7-.5-1.8-3.8-7.2-8.5-11.7-9.1-.4,0-.8-.5-.7-.9,0-.4.4-.7.9-.7,5.1.7,10.9,5.8,12.9,10,.2.4,0,.9-.4,1.1-.1,0-.2,0-.4,0Z"/>
        <path d="M309.7,98.7c-.2,0-.4,0-.6-.3-.3-.3-.3-.8,0-1.1,2.6-2.3,5.3-4.2,7.9-6.1,2.2-1.6,4.2-3,6-4.6.3-.3.9-.3,1.1,0,.3.3.3.8,0,1.1-1.8,1.6-3.9,3.1-6.1,4.7-2.6,1.8-5.3,3.7-7.7,6-.2.1-.3.2-.5.2Z"/>
        <path d="M321.3,96.8c-.3,0-.6-.1-.7-.4-1.6-2.8-4.1-5.7-6.2-8-1.3-1.5-2.4-2.7-3-3.7-.2-.4-.1-.9.2-1.1.4-.3.9-.1,1.1.2.6.9,1.6,2.1,2.9,3.5,2.1,2.4,4.7,5.4,6.3,8.3.2.4,0,.9-.3,1.1-.1,0-.3.1-.4.1Z"/>
        <path d="M310.7,142.5c-.2,0-.4,0-.5-.2-.3-.3-.4-.8-.1-1.1.6-.8,1.3-1.6,1.9-2.5,2.6-3.4,5.5-7.2,9.8-10.6.4-.3.9-.2,1.1.1.3.4.2.9-.1,1.1-4.2,3.3-6.9,6.9-9.6,10.3-.7.8-1.3,1.7-1.9,2.5-.2.2-.4.3-.6.3Z"/>
        <path d="M322.3,141.5c-.3,0-.6-.2-.7-.4-1.3-2.5-6.4-6.2-10.2-8.9l-.9-.6c-.4-.3-.4-.8-.2-1.1.3-.4.8-.4,1.1-.2l.9.6c4.1,3,9.2,6.6,10.7,9.5.2.4,0,.9-.4,1.1-.1,0-.2,0-.4,0Z"/>
        <path d="M332.8,118.1c-.3,0-.5-.1-.7-.4-.2-.4-.1-.9.2-1.1.8-.5,1.7-1.1,2.7-1.7,3.5-2.2,7.9-5,9.7-7.8.3-.4.8-.5,1.1-.2.4.2.5.7.2,1.1-2,3.1-6.4,5.8-10.2,8.2-.9.6-1.8,1.2-2.6,1.7-.1,0-.3.1-.4.1Z"/>
        <path d="M344.9,119.2c-.3,0-.6-.2-.7-.4-2.1-3.8-7.4-8.5-11.7-9.1-.4,0-.8-.5-.7-.9,0-.4.4-.7.9-.7,4.8.7,10.6,5.7,12.9,9.9.2.4,0,.9-.3,1.1-.1,0-.3,0-.4,0Z"/>
        <path d="M378.8,159.6s0,0,0,0c-25.4-2.4-50.5-2.3-76.9,0-.5,0-.8-.3-.9-.7,0-.4.3-.8.7-.9,26.5-2.4,51.7-2.4,77.2,0,.4,0,.8.4.7.9,0,.4-.4.7-.8.7ZM385.9,150.2c-.4,0-.8-.3-.8-.7-2.7-26.7-2.7-51,0-74.4,0-.4.5-.8.9-.7.4,0,.8.5.7.9-2.7,23.3-2.7,47.5,0,74.1,0,.4-.3.8-.7.9,0,0,0,0,0,0ZM293.6,145.5s0,0,0,0c-.4,0-.8-.4-.7-.9,2-24.2,2-44.9,0-65.2,0-.4.3-.8.7-.9,0,0,0,0,0,0,.4,0,.8.3.8.7,2,20.4,2,41.2,0,65.5,0,.4-.4.7-.8.7ZM338.5,69.6c-11.9,0-24-.5-36.1-1.6-.4,0-.8-.4-.7-.9,0-.4.4-.7.8-.7s0,0,0,0c24.1,2.1,48.1,2.1,71.2,0,.4,0,.8.3.9.7,0,.4-.3.8-.7.9-11.6,1-23.4,1.6-35.4,1.6Z"/>
        <path d="M266,97.6c-.2,0-.4,0-.5-.2-1-.9-2.1-1.9-3.3-2.9-3.3-3-7-6.4-10.3-7.6-.4-.1-.6-.6-.5-1,.1-.4.6-.7,1-.5,3.7,1.3,7.5,4.8,10.9,7.9,1.1,1,2.2,2,3.2,2.9.3.3.4.8.1,1.1-.2.2-.4.3-.6.3Z"/>
        <path d="M254.3,99.2s0,0-.1,0c-.4,0-.8-.5-.7-.9.7-4.9,5.6-10.3,9.6-12.4.4-.2.9,0,1.1.4.2.4,0,.9-.4,1.1-3.6,1.8-8.2,7-8.8,11.2,0,.4-.4.7-.8.7Z"/>
        <path d="M252.1,141.8c-.3,0-.5-.1-.7-.4-.3-.4-.2-.9.2-1.1.9-.6,1.9-1.3,3-1.9,3.6-2.3,7.6-4.8,9.5-7.7.3-.4.8-.5,1.1-.2.4.2.5.8.2,1.1-2.1,3.1-6.3,5.8-10,8.1-1.1.7-2.1,1.3-3,1.9-.1,0-.3.1-.5.1Z"/>
        <path d="M264.2,142.9c-.3,0-.6-.2-.7-.5-1.8-3.8-7.2-8.5-11.7-9.1-.4,0-.8-.5-.7-.9,0-.4.4-.7.9-.7,5.1.7,10.9,5.8,12.9,10,.2.4,0,.9-.4,1.1-.1,0-.2,0-.4,0Z"/>
        <path d="M206.2,99c-.2,0-.4,0-.6-.3-.3-.3-.3-.8,0-1.1,2.5-2.4,5.3-4.3,8-6.3,2.1-1.5,4.1-2.9,5.8-4.4.3-.3.9-.3,1.1,0,.3.3.3.8,0,1.1-1.8,1.5-3.8,3-5.9,4.5-2.6,1.9-5.3,3.8-7.8,6.1-.2.1-.4.2-.6.2Z"/>
        <path d="M217.7,97.1c-.3,0-.6-.1-.7-.4-1.5-2.6-3.8-5.3-5.9-7.7-1.4-1.7-2.6-3.1-3.3-4.2-.2-.4-.1-.9.3-1.1.4-.2.9-.1,1.1.3.6,1,1.8,2.4,3.2,4,2.1,2.5,4.5,5.2,6,8,.2.4,0,.9-.3,1.1-.1,0-.3.1-.4.1Z"/>
        <path d="M207.2,142.8c-.2,0-.3,0-.5-.2-.4-.3-.4-.8-.2-1.1.5-.6.9-1.2,1.3-1.8,2.6-3.6,5.7-7.6,10.4-11.3.4-.3.9-.2,1.1.2.3.4.2.9-.2,1.1-4.6,3.5-7.5,7.5-10.1,11-.5.6-.9,1.2-1.4,1.8-.2.2-.4.3-.6.3Z"/>
        <path d="M218.7,141.8c-.3,0-.6-.2-.7-.4-1.2-2.4-5.7-5.7-9.3-8.4l-1.6-1.2c-.4-.3-.4-.8-.2-1.1.3-.4.8-.4,1.1-.2l1.6,1.2c4,2.9,8.5,6.3,9.8,9,.2.4,0,.9-.4,1.1-.1,0-.2,0-.4,0Z"/>
        <path d="M229.2,118.4c-.3,0-.5-.1-.7-.4-.2-.4-.1-.9.2-1.1.8-.5,1.7-1.1,2.6-1.7,3.5-2.2,7.9-5,9.7-7.8.2-.4.8-.5,1.1-.2.4.2.5.7.2,1.1-2,3.1-6.4,5.8-10.2,8.2-.9.6-1.8,1.1-2.6,1.7-.1,0-.3.1-.4.1Z"/>
        <path d="M241.3,119.5c-.3,0-.6-.2-.7-.4-1.9-3.7-7.3-8.5-11.7-9.1-.4,0-.8-.5-.7-.9,0-.4.4-.7.9-.7,4.9.7,10.8,5.8,12.9,10,.2.4,0,.9-.4,1.1-.1,0-.2,0-.4,0Z"/>
        <path d="M275.2,159.9s0,0,0,0c-25.4-2.4-50.5-2.3-76.9,0-.4,0-.8-.3-.9-.7,0-.4.3-.8.7-.9,26.5-2.4,51.7-2.4,77.2,0,.4,0,.8.4.7.9,0,.4-.4.7-.8.7ZM282.3,150.5c-.4,0-.8-.3-.8-.7-2.7-26.7-2.7-51,0-74.4,0-.4.4-.8.9-.7.4,0,.8.5.7.9-2.7,23.3-2.7,47.5,0,74.1,0,.4-.3.8-.7.9,0,0,0,0,0,0ZM189.9,145.9s0,0,0,0c-.4,0-.8-.4-.7-.9,2-24.2,2-44.9,0-65.2,0-.4.3-.8.7-.9.4,0,.8.3.9.7,2,20.4,2,41.2,0,65.5,0,.4-.4.7-.8.7ZM234.9,69.9c-12,0-24.1-.6-36.2-1.7-.4,0-.8-.4-.7-.9,0-.4.5-.8.9-.7,24.2,2.2,48.2,2.2,71.4,0,0,0,0,0,0,0,.4,0,.8.3.8.7,0,.4-.3.8-.7.9-11.7,1.1-23.5,1.7-35.5,1.7Z"/>
        <path d="M116.6,140.8c0,0-.2,0-.2,0-3.9-1.2-8-5-11.7-8.4-.9-.8-1.7-1.6-2.5-2.3-.3-.3-.4-.8,0-1.1.3-.3.8-.4,1.1,0,.8.7,1.6,1.5,2.5,2.3,3.3,3.1,7.5,6.9,11,8,.4.1.7.6.5,1-.1.3-.4.6-.8.6Z"/>
        <path d="M105.2,140.4c-.3,0-.6-.2-.7-.4-.2-.4,0-.9.3-1.1,3.7-1.9,8.2-7.1,8.8-11.2,0-.4.5-.7.9-.7.4,0,.7.5.7.9-.7,4.7-5.6,10.3-9.6,12.4-.1,0-.2,0-.4,0Z"/>
        <path d="M103.9,95.8c-.2,0-.3,0-.4-.1-.4-.2-.5-.7-.2-1.1,2-3.1,6.4-5.8,10.2-8.2.9-.6,1.8-1.2,2.6-1.7.4-.2.9-.2,1.1.2.2.4.1.9-.2,1.1-.8.5-1.7,1.1-2.7,1.7-3.5,2.2-7.9,4.9-9.7,7.7-.2.2-.4.4-.7.4Z"/>
        <path d="M116.6,94.5s0,0-.1,0c-4.8-.7-10.6-5.7-12.9-9.9-.2-.4,0-.9.3-1.1.4-.2.9,0,1.1.3,2.1,3.8,7.4,8.5,11.7,9.1.4,0,.8.5.7.9,0,.4-.4.7-.8.7Z"/>
        <path d="M148.6,139.4c-.2,0-.4,0-.6-.3-.3-.3-.3-.8,0-1.1,1.8-1.6,3.9-3.1,6.2-4.6,2.6-1.8,5.2-3.6,7.7-5.9.3-.3.8-.3,1.1,0,.3.3.3.8,0,1.1-2.6,2.3-5.3,4.2-7.9,6-2.2,1.5-4.3,3-6,4.5-.2.1-.3.2-.5.2Z"/>
        <path d="M160.2,142.6c-.2,0-.5-.1-.7-.3-.6-.8-1.5-1.9-2.6-3.1-2.2-2.6-4.9-5.8-6.7-8.7-.2-.4-.1-.9.3-1.1.4-.2.9-.1,1.1.3,1.7,2.8,4.4,6,6.5,8.5,1.1,1.3,2,2.4,2.6,3.2.3.4.2.9-.2,1.1-.1.1-.3.2-.5.2Z"/>
        <path d="M149.9,98.1c-.2,0-.5-.1-.6-.3-.3-.4-.2-.9.1-1.1,4.2-3.3,6.9-6.8,9.5-10.3.7-.9,1.3-1.7,2-2.5.3-.4.8-.4,1.1-.1.3.3.4.8.1,1.1-.6.8-1.3,1.6-1.9,2.5-2.6,3.3-5.5,7.1-9.8,10.6-.2.1-.3.2-.5.2Z"/>
        <path d="M161.2,96c-.2,0-.4,0-.5-.2-.9-.7-2-1.5-3-2.3-3.6-2.7-7.3-5.4-8.5-7.8-.2-.4,0-.9.4-1.1.4-.2.9,0,1.1.4,1,2,4.7,4.8,8,7.2,1.1.8,2.1,1.6,3.1,2.3.4.3.4.8.1,1.1-.2.2-.4.3-.6.3Z"/>
        <path d="M126.8,119.2c-.2,0-.3,0-.4-.1-.4-.2-.5-.7-.2-1.1,2-3.1,6.4-5.8,10.2-8.2.9-.6,1.8-1.2,2.6-1.7.4-.2.9-.2,1.1.2.2.4.1.9-.2,1.1-.8.5-1.7,1.1-2.7,1.7-3.5,2.2-7.9,4.9-9.7,7.7-.2.2-.4.4-.7.4Z"/>
        <path d="M139.6,117.9s0,0-.1,0c-4.9-.8-10.6-5.8-12.8-9.9-.2-.4,0-.9.3-1.1.4-.2.9,0,1.1.3,2,3.7,7.3,8.4,11.7,9.1.4,0,.7.5.7.9,0,.4-.4.7-.8.7Z"/>
        <path d="M169.7,159.6s0,0,0,0c-25-2.2-48.9-2.2-71.2,0-.5,0-.8-.3-.9-.7,0-.4.3-.8.7-.9,22.4-2.2,46.4-2.2,71.5,0,.4,0,.8.4.7.9,0,.4-.4.7-.8.7ZM86.3,151.7s0,0,0,0c-.4,0-.8-.5-.7-.9,2.7-23.3,2.7-47.5,0-74.1,0-.4.3-.8.7-.9,0,0,0,0,0,0,.4,0,.8.3.8.7,2.7,26.7,2.7,51,0,74.4,0,.4-.4.7-.8.7ZM178.6,147.5c-.4,0-.8-.3-.8-.7-2-20.4-2-41.3,0-65.7,0-.4.4-.8.9-.7.4,0,.8.4.7.9-2,24.3-2,45.1,0,65.4,0,.4-.3.8-.7.9,0,0,0,0,0,0ZM131.5,69.8c-12.8,0-25.5-.6-38.2-1.8-.4,0-.8-.4-.7-.9,0-.4.5-.8.9-.7,25.4,2.3,50.5,2.4,76.9,0,.5,0,.8.3.9.7,0,.4-.3.8-.7.9-13.2,1.2-26.1,1.8-38.9,1.8Z"/>
      </g>
    </g>
  </g>
</svg>