<?xml version="1.0" encoding="UTF-8"?>
<svg xmlns="http://www.w3.org/2000/svg" version="1.1" viewBox="0 0 185.3 136.1">
  <defs>
    <style>
      .cls-1, .cls-2 {
        fill: #fff;
      }

      .cls-2 {
        stroke: #000;
        stroke-miterlimit: 10;
        stroke-width: 1.1px;
      }
    </style>
  </defs>
  <!-- Generator: Adobe Illustrator 28.6.0, SVG Export Plug-In . SVG Version: 1.2.0 Build 709)  -->
  <g>
    <g id="Layer_1">
      <g>
        <g>
          <rect class="cls-2" x="142.1" y=".6" width="42.6" height="29" transform="translate(326.8 30.1) rotate(180)"/>
          <rect class="cls-2" x="144.5" y="2.2" width="37.9" height="25.8" transform="translate(326.8 30.1) rotate(180)"/>
          <path class="cls-2" d="M169.8,15.1c0,3.6-2.9,6.5-6.5,6.5s-6.5-2.9-6.5-6.5,2.9-6.5,6.5-6.5,6.5,2.9,6.5,6.5Z"/>
          <path class="cls-2" d="M152.2,15.1c0,6.1,5,11.1,11.1,11.1s11.1-5,11.1-11.1-5-11.1-11.1-11.1-11.1,5-11.1,11.1ZM156.8,15.1c0-3.6,2.9-6.5,6.5-6.5s6.5,2.9,6.5,6.5-2.9,6.5-6.5,6.5-6.5-2.9-6.5-6.5Z"/>
          <g>
            <path class="cls-1" d="M156.8,15.1c0-3.6,2.9-6.5,6.5-6.5"/>
            <path d="M157.4,15.1h-1.1c0-3.9,3.2-7,7-7v1.1c-3.3,0-5.9,2.7-5.9,5.9Z"/>
          </g>
          <rect x="162.8" y="8.6" width="1.1" height="13"/>
          <rect x="156.8" y="14.5" width="13" height="1.1"/>
        </g>
        <g>
          <rect class="cls-2" x=".6" y=".6" width="42.6" height="29" transform="translate(43.7 30.1) rotate(180)"/>
          <rect class="cls-2" x="2.9" y="2.2" width="37.9" height="25.8" transform="translate(43.7 30.1) rotate(180)"/>
          <path class="cls-2" d="M28.2,15.1c0,3.6-2.9,6.5-6.5,6.5s-6.5-2.9-6.5-6.5,2.9-6.5,6.5-6.5,6.5,2.9,6.5,6.5Z"/>
          <path class="cls-2" d="M10.6,15.1c0,6.1,5,11.1,11.1,11.1s11.1-5,11.1-11.1S27.9,4,21.7,4s-11.1,5-11.1,11.1ZM15.3,15.1c0-3.6,2.9-6.5,6.5-6.5s6.5,2.9,6.5,6.5-2.9,6.5-6.5,6.5-6.5-2.9-6.5-6.5Z"/>
          <g>
            <path class="cls-1" d="M15.3,15.1c0-3.6,2.9-6.5,6.5-6.5"/>
            <path d="M15.8,15.1h-1.1c0-3.9,3.2-7,7-7v1.1c-3.3,0-5.9,2.7-5.9,5.9Z"/>
          </g>
          <rect x="21.2" y="8.6" width="1.1" height="13"/>
          <rect x="15.3" y="14.5" width="13" height="1.1"/>
        </g>
        <g>
          <path class="cls-2" d="M136.4,5.5H49c-1.8,0-3.2-1.4-3.2-3.2V.6h93.9v1.8c0,1.8-1.4,3.2-3.2,3.2Z"/>
          <path class="cls-2" d="M139.4,55.8c0,.1.2.2.3.3V2.3c0,1.8-1.4,3.2-3.2,3.2H49c-1.8,0-3.2-1.4-3.2-3.2v39.4c.9-2.6,67.7-2.4,73-2.4h0c.6,0,1.5.3,2.4.7,1.5.7,3.4,2,5.4,3.5.1.1.3.2.4.3.7.6,1.5,1.2,2.2,1.8.7.6,1.3,1.1,2,1.7.2.1.3.3.5.4,1,.9,1.9,1.8,2.9,2.7.2.2.3.3.5.5.4.4.8.8,1.1,1.2.2.2.4.5.6.7.2.2.4.4.6.7.3.4.7.8,1,1.1.3.4.6.7.9,1.1Z"/>
          <path class="cls-2" d="M43.2,127.3c1.3-4.3,1.9-5.1,2.4-9.3,0-.6.1-2.9.2-6.2V45.8c0,.2.1.3.1.3,0,0,0,0,0,0,.4,0,61-5.2,72-.5.1,0,.3.2.4.3,0,0,0,0,0,0,0,0,.1.1.2.2,0,.1.2.2.2.4,0,0,0,0,0,.1,0,0,0,0,0,.1,0,0,0,.2.1.3,0,.1.1.3.2.4,0,.1,0,.2.1.3,0,.1,0,.2.1.3,0,0,0,.2,0,.2,0,.1,0,.3.1.4,0,.1,0,.3.1.4.1.4.2.9.3,1.3,0,.2,0,.3.1.5,0,.2,0,.3.1.5.1.5.2,1,.3,1.6,0,.2,0,.4.1.5,0,.3.1.6.2.8s0,.6.1.8c0,.3,0,.6.1.9,0,.6.2,1.2.3,1.8,0,0,0,.2,0,.3.2,1.1.3,2.2.5,3.2.1.8.2,1.5.4,2.2.2,1.1.4,2.1.6,3.1.1.7.3,1.4.4,1.9.2.7.4,1.3.6,1.8.3.7.6,1.1.9,1.1.3,0,.8,0,1.4-.1.1,0,.2,0,.3,0,.2,0,.5-.1.8-.2.5-.2,1-.3,1.6-.6.2,0,.5-.2.7-.3.2,0,.5-.2.7-.3s.5-.2.7-.3c.4-.2.8-.3,1.1-.5.4-.2.8-.4,1.2-.6.3-.1.5-.3.8-.4.1,0,.3-.1.4-.2.3-.1.5-.3.8-.4.1,0,.3-.1.4-.2.4-.2.8-.4,1.1-.7.2-.1.3-.2.5-.3.2-.1.4-.2.6-.4.2-.1.4-.3.6-.4.1-.1.3-.2.4-.3.1,0,.2-.2.3-.2,0,0,0,0,.1,0,0,0,.1,0,.2-.1v53.5c1.4,3.3,5.2,4.9,3.8,9.6-.9,3-4,5.5-6,4-2-1.5-38.9-1.4-43.2-1.5h-10.9c-24.6.3-28.2,2.7-33.3,4.8-2.3.9-8-3.8-6.8-8.1Z"/>
          <path class="cls-2" d="M45.7,41.7c.9-2.6,67.7-2.4,73-2.4h0c.6,0,1.5.3,2.4.7,1.5.7,3.4,2,5.4,3.5.1.1.3.2.4.3.7.6,1.5,1.2,2.2,1.8.7.6,1.3,1.1,2,1.7.2.1.3.3.5.4,1,.9,1.9,1.8,2.9,2.7.2.2.3.3.5.5.4.4.8.8,1.1,1.2.2.2.4.5.6.7.2.2.4.4.6.7.3.4.7.8,1,1.1.3.4.6.7.9,1.1,0,.1.2.2.3.3.3.4.6.8.9,1.1.1.1.2.3.3.4.1.2.2.3.4.5.1.2.2.3.4.5,0,0,.1.1.2.2.1.1.2.3.3.4.1.2.2.4.3.6,0,.2.2.3.2.5.1.3.2.5.3.8,0,0,0,.1,0,.2,0,.1,0,.2,0,.4,0,.1,0,.2-.2.4,0,0,0,.2-.2.3,0,.1-.2.3-.3.4-.1.1-.2.3-.4.4,0,0-.1.1-.2.2,0,0-.1.1-.2.2-.1.1-.2.2-.4.3-.2.1-.3.3-.5.4-.2.1-.4.3-.6.4,0,0-.2.1-.3.2,0,0-.1,0-.2.1,0,0,0,0-.1,0-.1,0-.2.2-.3.2-.1.1-.3.2-.4.3-.2.1-.4.3-.6.4-.2.1-.4.2-.6.4-.2.1-.3.2-.5.3-.4.2-.7.4-1.1.7-.1,0-.3.1-.4.2-.3.1-.5.3-.8.4-.1,0-.3.1-.4.2-.3.1-.5.3-.8.4-.4.2-.8.4-1.2.6-.4.2-.8.4-1.1.5-.3.1-.5.2-.7.3s-.5.2-.7.3c-.2,0-.5.2-.7.3-.6.2-1.1.4-1.6.6-.3,0-.5.2-.8.2-.1,0-.2,0-.3,0-.6.1-1.1.2-1.4.1-.3,0-.6-.5-.9-1.1-.2-.5-.4-1.1-.6-1.8-.1-.6-.3-1.2-.4-1.9-.2-.9-.4-2-.6-3.1-.1-.7-.2-1.5-.4-2.2-.2-1.1-.3-2.1-.5-3.2,0,0,0-.2,0-.3,0-.6-.2-1.2-.3-1.8,0-.3,0-.6-.1-.9,0-.3,0-.6-.1-.8s-.1-.6-.2-.8c0-.2,0-.4-.1-.5-.1-.5-.2-1.1-.3-1.6,0-.2,0-.3-.1-.5,0-.2,0-.3-.1-.5-.1-.5-.2-.9-.3-1.3,0-.1,0-.3-.1-.4,0-.1,0-.3-.1-.4,0,0,0-.2,0-.2,0-.1,0-.2-.1-.3,0-.1,0-.2-.1-.3,0-.1-.1-.3-.2-.4,0,0,0-.2-.1-.3,0,0,0,0,0-.1,0,0,0,0,0-.1,0-.1-.2-.3-.2-.4,0,0-.1-.1-.2-.2,0,0,0,0,0,0,0,0-.1-.1-.2-.2,0,0-.1,0-.2-.1h0c-10.9-4.7-71.6.4-72,.5,0,0,0,0,0,0,0,0,0-.1-.1-.3-.3-.6-.7-2.2,0-4.1Z"/>
          <path class="cls-2" d="M88.8,19.7s2.6,12.3,2.6,15.3-16.7,0-19.1,0c-2.5,0-22.2,2.2-23.2.5-1.3-2,3.1-10.1,1.6-14.3-1.5-4.2-2-11-.9-12.3,1.2-1.3,15.3,1.6,18,1.1,2.7-.6,21.2-2.1,22.4-1,1.2,1.1-1.4,10.7-1.4,10.7Z"/>
          <path class="cls-2" d="M133.9,19.7s2.6,12.3,2.6,15.3-16.7,0-19.1,0-22.2,2.2-23.2.5c-1.3-2,3.1-10.1,1.6-14.3-1.5-4.2-2-11-.9-12.3,1.2-1.3,15.3,1.6,18,1.1,2.7-.6,21.2-2.1,22.4-1,1.2,1.1-1.4,10.7-1.4,10.7Z"/>
        </g>
      </g>
    </g>
  </g>
</svg>