<?xml version="1.0" encoding="UTF-8"?>
<svg xmlns="http://www.w3.org/2000/svg" version="1.1" viewBox="0 0 68.4 134.4">
  <defs>
    <style>
      .cls-1 {
        fill: #fff;
        stroke: #000;
        stroke-miterlimit: 10;
        stroke-width: 1.1px;
      }
    </style>
  </defs>
  <!-- Generator: Adobe Illustrator 28.6.0, SVG Export Plug-In . SVG Version: 1.2.0 Build 709)  -->
  <g>
    <g id="Layer_1">
      <g>
        <path class="cls-1" d="M41.9,39.3c3.8,0,14.1,7.9,20.6,13.6V2.3c0,1.8-1.4,3.2-3.2,3.2H7.5c-1.8,0-3.2-1.4-3.2-3.2v38.8c5.4-2,32.8-1.8,37.6-1.8Z"/>
        <path class="cls-1" d="M59.2,5.5H7.5c-1.8,0-3.2-1.4-3.2-3.2V.6h58.2v1.8c0,1.8-1.4,3.2-3.2,3.2Z"/>
        <path class="cls-1" d="M12.9,35.6c-1.9-2.5,2.1-13,.6-17.2s-.9-8.5.1-9.4c2.1-1.8,15.3,1.6,18,1.1,2.7-.6,21.2-2.1,22.4-1s-1.4,10.7-1.4,10.7c0,0,2.6,12.3,2.6,15.3s-16.7,0-19.1,0-21.6,2.7-23.2.5Z"/>
        <path class="cls-1" d="M.7,127.3c1.3-4.3,2.5-4.8,3.1-8.9.5-3.7,0-61.2-.2-72.2,0,0,.3,0,.7-.1,4.3-.8,26.5-4.6,36.6-.3,3.5,1.5,2.6,19.9,7.2,26,2.2.3,9.2-3.7,14.4-8.1.2-.2.4-.4.7-.6h0s-.8,51-.3,53.9c.8,4.3,3.2,4.9,4.8,10.4.9,3-6.4,6.4-8.7,4.8-2.1-1.4-7.1-2.6-24.1-2.6s-21.3.2-26.5,4c-2,1.5-9-1.9-7.6-6.2Z"/>
        <path class="cls-1" d="M3.4,41.7c0-.2.4-.4.9-.6,5.4-2,32.8-1.8,37.6-1.8s14.1,7.9,20.6,13.6c2.5,2.2,4.5,4,5.3,4.9-.9,1.6-2.6,3.4-4.6,5.2-.2.2-.4.4-.7.6-5.2,4.4-12.2,8.3-14.4,8.1-4.6-6.1-3.7-24.5-7.2-26-10.1-4.3-32.3-.5-36.6.3-.4,0-.6.1-.7.1,0,0,0,0,0,0,0,0-1.1-1.9-.2-4.5Z"/>
      </g>
    </g>
  </g>
</svg>