<?xml version="1.0" encoding="UTF-8"?>
<svg xmlns="http://www.w3.org/2000/svg" version="1.1" viewBox="0 0 450 397">
  <defs>
    <style>
      .cls-1 {
        fill: #fff;
        fill-rule: evenodd;
      }
    </style>
  </defs>
  <!-- Generator: Adobe Illustrator 28.6.0, SVG Export Plug-In . SVG Version: 1.2.0 Build 709)  -->
  <g>
    <g id="Layer_1">
      <g>
        <g>
          <g>
            <path class="cls-1" d="M66.5,128.2c22.4,0,40.7-18.2,40.7-40.7s-18.2-40.7-40.7-40.7-40.7,18.4-40.7,40.7,18.2,40.7,40.7,40.7h0Z"/>
            <path d="M66.5,129.8c-23.3,0-42.3-19-42.3-42.3s19-42.3,42.3-42.3,42.3,19,42.3,42.3-19,42.3-42.3,42.3ZM66.5,48.5c-21.5,0-39.1,17.5-39.1,39.1s17.5,39.1,39.1,39.1,39.1-17.5,39.1-39.1-17.5-39.1-39.1-39.1Z"/>
          </g>
          <g>
            <path class="cls-1" d="M66.5,124.2c20.2,0,36.6-16.5,36.6-36.6s-16.5-36.5-36.6-36.5-36.6,16.5-36.6,36.5,16.5,36.6,36.6,36.6h0Z"/>
            <path d="M66.5,125c-20.7,0-37.5-16.8-37.5-37.5s16.8-37.3,37.5-37.3,37.5,16.7,37.5,37.3-16.8,37.5-37.5,37.5ZM66.5,51.9c-19.8,0-35.8,16-35.8,35.7s16.1,35.8,35.8,35.8,35.8-16.1,35.8-35.8-16.1-35.7-35.8-35.7Z"/>
          </g>
          <g>
            <path d="M68.6,88.8s0,0-.1,0c-.7,0-1.2-.7-1.1-1.3v-.4c.7-7.8,2.4-26.1-20.2-34.3-.6-.2-1-.9-.7-1.6.2-.6.9-1,1.6-.7,24.3,8.9,22.5,29.2,21.8,36.8v.4c0,.6-.6,1.1-1.2,1.1Z"/>
            <g>
              <path class="cls-1" d="M44.4,103.5c15.2-1,31.5-1,48.6,0-.6-10.3-2.3-20,0-31.8-15.3,2.3-31.8,1.8-48.6,0,.8,9.8,1,20.2,0,31.8h0ZM51.6,77.2c10.7.6,22,.6,34.1,0-.5,7.1-1.6,12.6,0,20.8-10.8-1.6-22.3-1.3-34.1,0,.5-6.9.6-12.8,0-20.8h0Z"/>
              <path d="M43,104.8v-1.4c1-10.5,1-20.9.1-31.6v-1.5c-.1,0,1.3.2,1.3.2,9.6,1,18.2,1.5,26.2,1.5s15.3-.5,22.1-1.5l1.7-.3-.3,1.7c-1.8,9.2-1.1,17-.5,25.3.2,2.1.3,4.1.5,6.2v1.4c0,0-1.3,0-1.3,0-17-1-33.4-1-48.4,0h-1.4ZM67.9,101.6c7.7,0,15.7.2,23.7.7-.1-1.6-.2-3.2-.4-4.8-.6-7.6-1.3-15.4.2-24.3-6.4.9-13.4,1.3-20.8,1.3s-15.8-.5-25-1.4c.7,9.9.7,19.4,0,29.2,7.2-.4,14.6-.6,22.3-.6ZM87.2,99.5l-1.7-.3c-9.7-1.5-20.4-1.5-33.8,0l-1.4.2v-1.4c.6-6.8.7-12.6.1-20.6v-1.4c-.1,0,1.3,0,1.3,0,10.6.6,21.9.6,33.9,0h1.4c0,0,0,1.3,0,1.3-.1,1.5-.2,2.9-.4,4.3-.5,5.3-.9,9.9.3,16.2l.3,1.7ZM52.9,78.5c.5,6.9.4,12.3,0,18.2,12.1-1.3,22.1-1.3,31.3,0-.9-5.9-.5-10.4,0-15.2,0-.9.2-1.9.3-2.9-11.1.6-21.6.6-31.4,0Z"/>
            </g>
            <rect x="42.4" y="96.3" width="23.4" height="1.6" transform="translate(-44.6 46) rotate(-33.5)"/>
            <rect x="82.4" y="85.4" width="1.6" height="23.4" transform="translate(-43.7 112.9) rotate(-56.5)"/>
            <rect x="53.3" y="66.5" width="1.6" height="23.4" transform="translate(-40.9 80.2) rotate(-56.5)"/>
            <rect x="71.5" y="77.4" width="23.4" height="1.6" transform="translate(-29.3 58.8) rotate(-33.5)"/>
            <g>
              <path class="cls-1" d="M63.9,84.6c2.9.2,6.1.2,9.5,0,0,2.1-.3,3.6,0,6-3.1-.5-6.3-.5-9.5,0,.2-1.9.2-3.7,0-6h0Z"/>
              <path d="M74.4,91.6l-1.1-.2c-3-.5-6.2-.5-9.3,0l-1,.2v-1c.2-1.9.2-3.6,0-5.9v-.9c0,0,.9,0,.9,0,2.9.2,6.1.2,9.4,0h.8s0,.8,0,.8c0,.7,0,1.4,0,2,0,1.2-.1,2.3,0,3.8v1.1ZM64.8,85.5c0,1.5,0,2.8,0,4.2,2.6-.3,5.2-.3,7.7,0,0-1.2,0-2.2,0-3.1,0-.4,0-.7,0-1.1-2.8.1-5.4.1-7.8,0Z"/>
            </g>
          </g>
        </g>
        <g>
          <g>
            <path class="cls-1" d="M365.8,234.6c0,14.7,0,29.4.2,44.1.2,7.3-.3,13.7.3,21,1,12.9-.6,26-.5,38.9,0,3.7.6,14.7-.5,17.4-1.3,3.4-6.8,2.7-10,2.9-17.6.3-35.5.6-53.1-1.3-12.1-1.3-23.7-1.1-35.8-2.6-7.6-.6-14.9,2.4-22.6,3.1-15.3,1.1-32.1.8-47.6.8-6.5-.2-11.1-.6-17.4-1.5-4.7-.5-7.7,1.1-12.6,1-5.8,0-10.8-.8-17.1-.6-5.5.3-11,.8-16.5,1.1-3.1.2-5.3-.3-8.1-2.1-1-.6-1-1.3-1.5-2.6-2.3-6.9-2.4-7.9-.2-15,2.4-7.7-.8-10-1.8-17.8-.6-6.8-.2-16.1-.2-23.2,0-14.9-.3-30-.2-44.9.2-7.6,2.1-23.2.8-29.7-.8-4-.8-6-.8-10.2,0-12.8,0-25.7.2-38.4,0-5.7.5-10.8.3-16.6-.2-7.1,2.6-6,2.9-12.4.2-7.1-1.9-17.8-2.9-25.2-.6-4.8-.5-7.6,0-12.4.2-2.1-.3-3.6-.2-5.8.3-5.7,0-12.1-.2-17.8,0-2.9-.8-13.4.5-15.5,2.1-3.2,11.1-1.5,14.9-1.3,4.5.2,9.5-.2,14.4-.2,7.6.2,14.5,0,22.1-.2,6.6-.2,12.4-.2,19.1,1,8.1,1.3,16.5-1,24.9-1,13.6-.2,27.3-.3,40.7-.2,3.7.2,4.5.5,7.9,1.3,5.5,1.1,13.7.6,19.4-.3,14.7-2.3,31.2.2,46.2-.2,9.2-.3,15.7-.8,24.9.8,10.8,1.9,14.9,1.8,12.1,14.9-1,5-1.3,7.4-1.5,12.6-.8,12.4-.8,24.7-.5,37.1.2,6.3,1.8,11.9,2.3,18.2.5,10.5.2,16.6-1.3,27.1-1.3,8.2-.6,12.3-.5,20.5.2,6.5-.6,12.9-.6,19.5s.2,10.3.2,15.5h0Z"/>
            <path d="M335.3,360.8c-13.1,0-23.7-.5-33.2-1.5-5.7-.6-11.4-.9-16.9-1.2-6.2-.3-12.5-.6-18.9-1.4-.6,0-1.3,0-1.9,0-3.6,0-7.2.8-11,1.6-3,.6-6.1,1.3-9.3,1.6-10.2.8-21.1.9-30.5.9h-17.3c-6.5-.2-11.2-.7-17.6-1.5-2.1-.2-4.1,0-6.2.4-1.7.3-3.4.6-5.5.6h-.7s0,0,0,0c-2.6,0-5.1-.2-7.6-.3-3-.2-6-.4-9.4-.3-2.7.2-5.4.4-8.2.6-2.8.2-5.5.4-8.3.6-3.6.2-6.1-.5-9-2.4-1.2-.8-1.6-1.8-1.8-2.7l-.2-.7c-2.4-7.3-2.5-8.7-.2-16.1,1.4-4.6.7-6.9-.3-10.2-.6-1.9-1.2-4-1.6-6.8-.5-5-.4-11-.3-16.8,0-2.3,0-4.6,0-6.6,0-5.9,0-11.9-.1-17.9,0-9-.2-18.1,0-27,0-2.5.3-5.7.5-9.2.5-7.1,1.1-16,.3-20.1-.8-4.2-.8-6.3-.8-10.5,0-12.8,0-25.7.2-38.4,0-2.4,0-4.8.2-7.1.1-3,.2-6.2.1-9.4,0-4.2.8-5.9,1.6-7.5.6-1.3,1.2-2.4,1.3-5.1.1-5-1-12-1.9-18.2-.4-2.4-.7-4.6-1-6.7-.7-5-.5-7.8,0-12.8,0-.9,0-1.7,0-2.5,0-1-.2-2,0-3.3.3-4.5,0-9.6,0-14.5v-3.1c0-.7-.1-1.7-.2-2.9-.3-7.6-.3-11.8.8-13.5,1.6-2.4,5.1-2.7,7.6-2.7s4.3.2,6,.4c1,.1,2,.2,2.7.2,2.6.1,5.5,0,8.4,0,2,0,4-.1,5.9-.1,7.4.1,14,0,21.2-.1h.9c1.8,0,3.6-.1,5.4-.1,5.3,0,9.6.3,14,1.1,4.2.7,9.3.3,14.6-.3,3.3-.3,6.6-.7,10-.7,13.6-.2,27.3-.3,40.7-.2,3.4.2,4.6.4,6.9,1l1.3.3c4.4.9,12.4.7,18.7-.3,4.4-.7,9.2-1,15.1-1s9.7.2,14.4.4c5.6.3,11.4.5,16.9.4h2.9c8.5-.4,15.2-.4,22.3.8l1.9.3c5.5,1,9.1,1.6,11.1,4.5,1.6,2.4,1.7,5.8.5,12-.9,4.9-1.3,7.2-1.4,12.3-.7,10.9-.9,22.6-.5,37,0,3.4.6,6.6,1.2,9.9.4,2.6.9,5.4,1.1,8.2.5,10.5.2,16.7-1.3,27.5-1,6.2-.8,9.9-.6,15,0,1.6.1,3.3.2,5.2,0,3.6-.1,7.2-.3,10.7-.2,2.9-.3,5.9-.3,8.9s0,5.1,0,7.7c0,2.6,0,5.2,0,7.8,0,14.7,0,29.4.2,44.1,0,2.6,0,5.2,0,7.7,0,4.4,0,8.6.3,13.1.6,7.8.2,15.7,0,23.3-.2,5.2-.5,10.5-.4,15.7,0,.8,0,2,0,3.4.2,6.7.3,12.4-.7,14.7-1.5,3.8-6.2,3.8-9.7,3.9-.6,0-1.2,0-1.7,0-6.7.1-13.4.2-20.1.2ZM264.2,353.4c.8,0,1.5,0,2.3,0,6.4.8,12.7,1.1,18.8,1.4,5.6.3,11.3.6,17.1,1.2,9.5,1,19.9,1.5,32.9,1.5s13.4-.1,20-.2c.5,0,1.1,0,1.8,0,2.7,0,6,0,6.7-1.8.8-1.8.6-9.4.4-13.4,0-1.4,0-2.6,0-3.5,0-5.3.2-10.7.4-15.9.3-7.5.7-15.3.1-22.9-.4-4.7-.4-8.9-.3-13.4,0-2.5,0-5,0-7.7-.2-14.7-.2-29.4-.2-44.1s0-5.2,0-7.7c0-2.6,0-5.2,0-7.8s.2-6.1.3-9.1c.2-3.6.4-7,.3-10.4,0-1.9-.1-3.6-.2-5.2-.2-5.1-.4-9.1.7-15.6,1.5-10.5,1.7-16.6,1.3-26.8-.2-2.7-.6-5.3-1.1-7.9-.5-3.3-1.1-6.8-1.2-10.4-.4-14.5-.2-26.4.5-37.3.2-5.2.5-7.8,1.5-12.8,1.1-5.1,1.1-8,0-9.5-1.2-1.8-4.3-2.3-9-3.1l-1.9-.3c-6.9-1.2-13.4-1.2-21.6-.9h-2.9c-5.7.2-11.5,0-17.1-.3-4.7-.2-9.6-.4-14.3-.4s-10.3.3-14.5,1c-6.7,1.1-15,1.3-19.9.3l-1.4-.3c-2.3-.6-3.2-.8-6.3-.9-13.2-.1-27,0-40.6.2-3.2,0-6.5.3-9.7.7-5.2.5-10.9,1-15.5.3-4.1-.7-8.3-1-13.4-1s-3.5,0-5.3,0h-.9c-7.3.2-14,.3-21.3.2-1.9,0-3.9,0-5.8.1-2.9,0-5.8.2-8.6,0-.8,0-1.8-.1-2.9-.2-1.8-.2-3.8-.4-5.7-.4-3.7,0-4.6.8-4.9,1.2-.7,1.3-.4,8.8-.3,11.6,0,1.3,0,2.3,0,3v3c.3,5,.4,10.1.2,14.8,0,1.1,0,1.9,0,2.8,0,1,.2,1.9,0,3.1-.5,4.8-.6,7.4,0,12.1.3,2,.6,4.2,1,6.6,1,6.3,2.1,13.5,2,18.8-.2,3.4-1,5-1.7,6.4-.7,1.4-1.3,2.6-1.2,6,0,3.4,0,6.6-.1,9.6,0,2.3-.2,4.6-.2,7-.2,12.8-.2,25.7-.2,38.4s0,6,.8,9.9c.9,4.6.3,13.3-.3,21-.2,3.5-.5,6.7-.5,9,0,8.9,0,17.9,0,26.9,0,6,.1,12,.1,17.9s0,4.3,0,6.7c-.1,5.8-.2,11.7.2,16.4.3,2.5.9,4.4,1.4,6.3,1.1,3.5,2,6.6.3,12.1-2.1,6.7-2,7.4.2,14l.3.8c.3.8.3.8.6,1,2.3,1.5,4.3,2,7.1,1.8,2.7-.2,5.5-.4,8.2-.6,2.8-.2,5.5-.4,8.3-.6,3.8-.1,6.7.1,9.8.3,2.4.2,4.9.3,7.4.3h.7c1.8,0,3.4-.3,5-.5,2.1-.3,4.3-.7,7.1-.4,6.4.8,11,1.3,17.3,1.4h17.3c9.3,0,20.1,0,30.2-.8,3-.3,6-.9,8.9-1.5,3.8-.8,7.7-1.6,11.7-1.6Z"/>
          </g>
          <path d="M247.5,328.4c-.3,0-.6-.2-.7-.4-.2-.4,0-.9.3-1.1,5.3-2.9,7.7-5.2,11.2-8.8,2.9-2.9,6.5-6.5,13.1-11.8,4.8-3.9,8.4-6.4,11.7-8.5,6.8-4.6,12.2-8.3,24.1-22.2,10.2-12.1,13.2-14.6,17.6-18.2,3.1-2.6,6.9-5.8,14.6-13.4,18.4-18.4,25.5-23.5,25.8-23.7.4-.3.9-.2,1.1.2.3.4.2.9-.2,1.1,0,0-7.3,5.2-25.6,23.5-7.7,7.7-11.6,11-14.7,13.5-4.3,3.6-7.2,6-17.4,18-12,14.1-17.5,17.8-24.4,22.5-3.2,2.2-6.8,4.6-11.6,8.5-6.5,5.2-10.1,8.8-13,11.7-3.5,3.5-6,6-11.5,9-.1,0-.3,0-.4,0Z"/>
          <path d="M268,323.7c-.2,0-.4,0-.5-.2-.3-.3-.4-.8,0-1.1l3.7-4.3c9.4-11.1,10.4-12.3,23-22.7,5.5-4.5,8.5-6.5,11.2-8.4,4.2-2.8,7.2-4.9,16.8-14.3,7.1-7,11-12.3,14-16.6,3.6-5.1,6.1-8.5,11.4-10.8,9.3-4.1,17.5-9.7,17.6-9.8.4-.3.9-.2,1.1.2.3.4.2.9-.2,1.1,0,0-8.4,5.7-17.9,9.9-5,2.2-7.3,5.4-10.8,10.3-3.1,4.3-7,9.7-14.2,16.8-9.7,9.5-12.8,11.6-17,14.5-2.7,1.8-5.7,3.9-11.1,8.3-12.5,10.4-13.5,11.5-22.8,22.5l-3.7,4.3c-.2.2-.4.3-.6.3Z"/>
          <path d="M268.6,340.5c-.2,0-.3,0-.4-.1-.4-.2-.5-.7-.2-1.1,2.7-4.1,6.4-6.1,11-8.6,5.5-3,12.3-6.7,21.4-15.6,10.3-10.1,13.9-11.4,17.8-12.8,2.5-.9,5-1.8,9.6-5.2.4-.3.9-.2,1.1.2.3.4.2.9-.2,1.1-4.8,3.5-7.4,4.5-10,5.4-3.8,1.4-7.1,2.6-17.2,12.5-9.2,9-16.1,12.8-21.7,15.8-4.6,2.5-8,4.3-10.5,8.1-.2.2-.4.4-.7.4Z"/>
          <path d="M266.7,354.9c-.2,0-.4,0-.6-.2-.3-.3-.3-.8,0-1.1,4.7-4.9,12.6-13,22.3-19,3.4-2,13.5-9.3,28.5-20.5l1-.7c4.9-3.6,14-10.5,25.4-14.5.4-.1.9,0,1,.5.2.4,0,.9-.5,1-11.2,4-20.1,10.7-25,14.3l-1,.7c-10.7,7.9-24.3,17.9-28.6,20.5-9.5,5.9-17.3,13.9-22,18.8-.2.2-.4.2-.6.2Z"/>
          <path d="M153.5,304.4c-.2,0-.3,0-.5-.2-.4-.3-.4-.8-.2-1.1,3.1-4.1,15.1-18.7,40.8-33.6,9.4-5.4,16.2-8.4,23.4-11.5,9.1-3.9,18.6-8,34.4-17.6,17.8-10.8,24.5-12.8,32.9-15.4,5.1-1.6,11-3.3,20.4-7.4.4-.2.9,0,1.1.4.2.4,0,.9-.4,1.1-9.5,4.1-15.4,5.9-20.6,7.5-8.4,2.5-15,4.5-32.6,15.3-15.9,9.7-25.4,13.7-34.6,17.7-7.2,3.1-13.9,6-23.3,11.4-25.4,14.7-37.3,29.1-40.3,33.2-.2.2-.4.3-.6.3Z"/>
          <path d="M141.2,328.4c-.3,0-.5-.1-.7-.4-.2-.4-.1-.9.2-1.1,3.3-2.2,5.3-3.3,6.8-4.2,3.3-1.9,4.3-2.5,12.2-10.1,4.3-4.2,8-8.8,11.7-13.3,6.2-7.7,12.1-15,20.1-19.6,3.9-2.2,7-4.2,9.8-6,6.3-4,11.2-7.2,21.3-10.3.4-.1.9.1,1,.5.1.4-.1.9-.5,1-9.8,3-14.7,6.1-20.8,10.1-2.8,1.8-5.9,3.8-9.8,6-7.7,4.5-13.5,11.6-19.7,19.2-3.7,4.5-7.5,9.2-11.8,13.5-8,7.8-9.1,8.4-12.5,10.3-1.5.9-3.4,2-6.7,4.1-.1,0-.3.1-.4.1Z"/>
          <path d="M124.8,229c-.2,0-.3,0-.5-.1-.4-.3-.5-.8-.2-1.1,0-.1,7.3-10.6,12.6-18.4,2-3,3.3-5.7,4.7-8.7,2.3-5,4.9-10.6,11.8-19.9.3-.4.8-.4,1.1-.2.4.3.4.8.2,1.1-6.8,9.1-9.4,14.7-11.6,19.6-1.5,3.1-2.7,5.8-4.8,8.9-5.3,7.8-12.5,18.3-12.6,18.4-.2.2-.4.3-.7.3Z"/>
          <path d="M238.6,197.6c-.2,0-.4,0-.5-.2-.3-.3-.4-.8-.1-1.1,1.5-1.9,2.7-3.6,3.9-5.4,4.2-6.2,8.6-12.5,25.7-25.4.4-.3.9-.2,1.1.2.3.4.2.9-.2,1.1-16.9,12.7-21.2,19-25.4,25-1.3,1.9-2.5,3.6-4,5.5-.2.2-.4.3-.6.3Z"/>
          <path d="M123.1,154.6l-2.7-1.8c3.2-4.8,8.4-8.1,13.9-8.6,6.2-.8,18-2.3,27.6-2.1,1.9,0,4.2,0,6.9.1,11.9.3,29.9.7,40.9-.1,5.5-.3,10.6,0,16,.5,8.1.7,16.5,1.3,27.3-.5,12.9-2.1,26.6-1.4,36.6-.9,4.5.2,8.5.5,11.3.4,3.7-.2,9.4.4,16.1.9,10.2.9,21.8,1.9,28.3.7,8-1.5,9.5-1.4,12.4-1.3,1,0,2.2.1,3.9.1,2.8,0,5,.7,6.4,2.2,1.6,1.6,1.5,3.5,1.5,3.7h-3.2c0-.4-.2-2.6-4.7-2.6s-3,0-4-.1c-2.7-.1-4-.2-11.7,1.2-6.9,1.2-18.7.2-29.1-.7-6.3-.5-12.1-1-15.7-.9-3,0-7-.1-11.6-.4-9.9-.5-23.3-1.3-35.8.8-11.3,1.9-19.8,1.2-28.1.5-5.2-.4-10.2-.8-15.5-.5-11.1.8-29.2.4-41.2.1-2.7,0-5-.1-6.9-.1-9.4-.1-21.1,1.2-27.2,2.1-4.6.5-9,3.2-11.6,7.2Z"/>
          <g>
            <g>
              <path class="cls-1" d="M235.7,131.1c.2-4.4-1.5-17.9-.3-25.8,1.1-7.9.2-16,.3-21,.2-5-4.8-.3-11.6-.3s-12.6.8-22,.2c-9.2-.5-31-3.2-40-2.1-9,1.1-13.1,2.1-13.1,2.1,0,0-10-3.6-9-.2.8,3.4,1.9,1,2.1,11.8.2,11,1.8,10,.6,17.9-1,7.9-.2,13.1-.6,24.1-.5,10.8,0,18.4-1.1,20.8-1,2.6-1.3,5.8,4.5,5.8s10.5-.3,19.7,0c9.4.3,27,2.7,31.5,1,4.5-1.8,8.1-1.9,17.4-1.8,9.4.2,12.8-1.1,16.1,0,3.6,1.1,6.3.5,5-5.3-1.3-5.7.2-22.6.5-27.1h0Z"/>
              <path d="M190.7,166.8c-4.2,0-9.8-.5-15.1-.9-3.9-.3-7.6-.6-10.5-.7-5.3-.2-10.2-.2-14.2,0-1.8,0-3.6,0-5.4,0-2.6,0-4.4-.6-5.3-1.9-.8-1.2-.8-2.8,0-5,.7-1.5.7-5.4.8-10.4,0-3,0-6.4.3-10.2.2-4.7.2-8.3.2-11.5,0-4.3,0-8,.5-12.6.6-4.3.4-5.9,0-8.4-.3-2-.6-4.5-.7-9.4-.1-7.4-.7-8.4-1.2-9.4-.3-.5-.6-1.1-.9-2.2-.2-.8,0-1.3.2-1.6.4-.6,1.2-.8,2.3-.8,2.5,0,6.3,1.3,7.3,1.6,1-.2,5-1.1,12.9-2.1,5.9-.7,19.4.3,29.5,1.2,4.3.4,8,.7,10.7.9,2.4.2,4.8.3,7.2.3s5.3-.1,7.8-.2c2.3-.1,4.5-.2,6.9-.2s4.8-.7,6.7-1.3c2.4-.7,4.1-1.1,5-.1.5.5.7,1.3.7,2.5,0,1.6,0,3.5,0,5.8.2,4.4.3,9.9-.4,15.3-.7,5.2-.3,13,0,18.7.2,3,.3,5.6.3,7.1v1.6c-.5,5.6-1.6,20.3-.5,25.3.6,2.6.4,4.5-.5,5.6-.6.8-1.6,1.2-2.8,1.2h0c-.8,0-1.7-.2-2.8-.5-1.6-.5-3.5-.5-6.5-.3-2.3.2-5.3.4-9.4.3-9.5-.2-12.9,0-17.1,1.7-1.2.5-3.2.7-6.2.7ZM157.2,163.4c2.6,0,5.2,0,7.9.1,2.9.1,6.7.4,10.6.7,5.3.4,10.8.9,15,.9s4.6-.2,5.6-.6c4.4-1.8,8-2,17.7-1.8,4,0,7-.1,9.3-.3,3.3-.2,5.3-.3,7.1.3.9.3,1.6.4,2.3.4h0c.7,0,1.2-.2,1.5-.6.4-.5.7-1.6.2-4.2-1.2-5.2-.1-19.7.4-25.8v-1.6c.2-1.4,0-4-.2-6.9-.3-5.8-.8-13.7,0-19,.8-5.2.6-10.7.4-15,0-2.2-.2-4.2,0-5.9,0-1-.2-1.3-.2-1.3,0,0-.1-.1-.5-.1-.7,0-1.7.3-2.9.7-2,.6-4.4,1.3-7.2,1.3s-4.5,0-6.8.2c-2.5.1-5,.2-7.9.2s-4.9,0-7.3-.3c-2.7-.1-6.4-.5-10.7-.9-7.6-.7-17-1.5-23.7-1.5s-4,0-5.4.3c-8.9,1.1-12.9,2.1-13,2.1h-.2c0,0-.2,0-.2,0,0,0-4.5-1.6-7-1.6s-1,.1-1.1.2h0s0,0,0,.2c.2.9.5,1.4.7,1.8.7,1.2,1.3,2.4,1.4,10.2,0,4.8.4,7.2.7,9.2.4,2.6.6,4.3,0,8.8-.6,4.5-.5,8.1-.5,12.4,0,3.2,0,6.9-.2,11.6-.2,3.8-.2,7.2-.3,10.1,0,5.6-.1,9.3-.9,11-.6,1.6-.6,2.7-.1,3.4.6.8,1.9,1.2,3.9,1.2s3.6,0,5.4,0c2,0,4,0,6.4,0Z"/>
            </g>
            <path d="M158.4,118.9c-.1,0-.3,0-.4-.1-10.6-5.9-16.3-18.4-16.5-18.9-.2-.4,0-.9.4-1.1.4-.2.9,0,1.1.4,0,.1,5.7,12.6,15.8,18.2.4.2.5.7.3,1.1-.2.3-.4.4-.7.4Z"/>
            <path d="M171.1,124.7c-.3,0-.6-.1-.7-.4-.2-.4,0-.9.3-1.1,2.3-1.4,3.8-2.2,4.9-2.8,2.2-1.2,3-1.6,6.6-4.3,4.8-3.3,11.3-6.8,23.5-8.1.4,0,.8.3.9.7,0,.4-.3.8-.7.9-11.8,1.2-17.9,4.5-22.7,7.8-3.7,2.7-4.6,3.2-6.8,4.4-1.1.6-2.6,1.4-4.9,2.7-.1,0-.3.1-.4.1Z"/>
            <path d="M224.7,117.1c-.2,0-.4,0-.6-.3-.3-.3-.3-.8,0-1.1,1.5-1.3,2.5-2.6,3.7-3.9,1.7-1.9,3.5-4.1,7-7.1.3-.3.8-.3,1.1,0,.3.3.3.9,0,1.1-3.3,2.9-5.2,5-6.8,6.9-1.2,1.4-2.3,2.7-3.8,4.1-.2.1-.4.2-.5.2Z"/>
          </g>
          <g>
            <g>
              <path class="cls-1" d="M271.8,164.6c-8.4,0-13.6,4.4-15.2-1-1.6-5.3-1.3-15-2.6-30.2-1.5-15.2-1.3-15.5.6-26.3,1.9-10.8-1.5-22.9,1.3-25.5,2.7-2.7,7.7-1.1,11.5-1.1s9.7,3.1,14,2.7c4.2-.5,7.3-.6,11.5.2,4,.6,16.1.5,27.4,0,11.3-.6,7.9-2.9,15-2.3,7.3.6,11.3-6.3,11.5-.2.3,6.3,1.1,5.8,0,19.1-1,13.2,1.5,7.9.6,28.9-1,21-.8,31.2-.8,34.4s3.4,8.7-4.2,5.7c-7.7-3.1-9.2-6.3-19.9-4.8-10.5,1.5-15,2.9-21.6,2.9-14,0-20.7-2.4-29.2-2.4h0Z"/>
              <path d="M346,170.6c-.9,0-2.1-.3-3.8-1-2.1-.8-3.7-1.7-5.2-2.4-3.1-1.6-5.3-2.7-9.6-2.7s-2.9.1-4.6.4c-3.8.5-6.8,1.1-9.4,1.5-4.7.8-8,1.4-12.3,1.4-7.9,0-13.5-.8-18.4-1.4-3.8-.5-7.1-1-10.8-1s-5.5.5-7.7,1c-1.6.4-3,.7-4.2.7-2.2,0-3.5-1-4.1-3.2-1-3.4-1.3-8.4-1.6-15.4-.2-4.3-.5-9.2-1-15-1.4-14.9-1.3-15.7.5-25.8v-.8c1.1-5.1.7-10.7.5-15.2-.3-5.3-.5-9.2,1.2-10.8,1.6-1.6,3.9-1.8,5.4-1.8s2.4.1,3.5.3c1.1.1,2.1.2,3.1.2,1.8,0,4,.6,6.3,1.3,2.7.8,5.5,1.6,7.7,1.4,1.8-.2,3.8-.4,5.8-.4s3.8.2,5.9.6c1.7.3,5.1.4,9.8.4s11-.2,17.4-.4c5.6-.3,7.5-1.1,8.9-1.6,1.4-.6,2.5-1,6.2-.7,3,.3,5.4-.9,7.3-1.8,1.1-.5,2-1,2.8-1,2,0,2,2.4,2.1,3.3,0,1.6.2,2.8.3,3.8.3,3.2.5,5.4-.3,15.3-.4,6.1-.2,8.1.2,10.8.4,3,.9,6.8.5,18.1-.9,18.8-.8,28.9-.8,33.2v1.2c0,.7.2,1.6.4,2.5.3,1.6.7,3.1-.1,4.1-.4.5-1,.7-1.8.7ZM327.4,162.9c4.7,0,7.2,1.3,10.4,2.9,1.4.7,3,1.6,5.1,2.3,1.4.6,2.5.9,3.2.9s.5,0,.6-.1c.3-.4,0-1.8-.2-2.8-.2-1-.4-1.9-.4-2.9v-1.2c0-4.3,0-14.3.8-33.2.4-11.1,0-14.8-.5-17.8-.4-2.7-.7-4.9-.2-11.1.8-9.8.6-12,.3-15-.1-1.1-.2-2.3-.3-3.9,0-.4,0-1.8-.5-1.8s-1.2.4-2.1.8c-1.9.9-4.7,2.2-8.2,1.9-3.2-.3-4.1,0-5.5.6-1.5.6-3.5,1.4-9.4,1.7-6.4.3-12.6.4-17.5.4s-8.3-.2-10.1-.4c-2-.4-3.8-.6-5.6-.6s-3.8.2-5.6.4c-.3,0-.5,0-.8,0-2.4,0-5-.8-7.5-1.5-2.2-.6-4.3-1.3-5.8-1.3s-2.1-.1-3.2-.2c-1.1-.1-2.3-.2-3.4-.2-2,0-3.4.4-4.3,1.4-1.2,1.1-.9,5.2-.7,9.5.3,4.6.6,10.2-.4,15.6v.8c-1.9,10-2,10.6-.6,25.3.5,5.8.8,10.7,1,15.1.4,6.8.6,11.8,1.6,15,.5,1.7,1.4,2.1,2.6,2.1s2.3-.3,3.8-.6c2.2-.5,4.9-1.1,8-1.1s7.2.5,11,1c4.9.7,10.4,1.4,18.2,1.4s7.4-.6,12-1.4c2.7-.5,5.7-1,9.5-1.5,1.8-.2,3.4-.4,4.8-.4Z"/>
            </g>
            <path d="M271.8,130c-.4,0-.8-.4-.8-.8s.4-.8.8-.8c1,0,1.8-.6,3.4-2.1,2.3-2,5.8-5,13.3-8.4,9.6-4.4,11-5.1,14-6.8,1-.5,2.1-1.2,3.7-2,6.4-3.3,11.6-4.5,23.2-7.2l2.9-.7c.4-.1.9.2,1,.6.1.4-.2.9-.6,1l-2.8.7c-11.4,2.6-16.6,3.8-22.8,7-1.6.9-2.7,1.5-3.7,2-3,1.6-4.4,2.5-14.1,6.9-7.3,3.2-10.7,6.2-13,8.1-1.7,1.5-2.8,2.5-4.5,2.5Z"/>
            <path d="M265.1,109.8c-.2,0-.4,0-.6-.2-.3-.3-.3-.8,0-1.1,4.9-4.8,7.4-5.8,12.9-8l2.5-1c4.9-2.1,9.9-2.8,16.2-3.8,3.1-.5,6.5-1,10.4-1.7.5,0,.9.2.9.6,0,.4-.2.9-.6.9-3.9.8-7.4,1.3-10.5,1.8-6.2.9-11.1,1.7-15.8,3.7l-2.5,1c-5.5,2.2-7.7,3.1-12.4,7.7-.2.2-.4.2-.6.2Z"/>
          </g>
          <g>
            <g>
              <path class="cls-1" d="M295.6,138.1c-8.1,1.1-18.2.5-24.4-.3-6.1-.6-8.6-1.3-8.6,2.3s.5,5,1.1,14.4c.5,9.5,3.1,9.4,1.1,20.2-1.9,10.8-2.3,10.3-2.7,16.6-.3,6.3,0,10.5,0,10.5,0,0,8.4-2.1,12.6-1.1,4.2,1.1,19.9-.5,27,.2,6.9.5,10.3-1.3,16.8-1.1,6.3.2,8.7-.5,12.8.8,3.9,1.3,3.2-1.8,2.9-8.9-.5-6.9,0-11.9,0-18.2s-.6-15.8.3-25.8c1.1-10,6-11,1.9-10.8-4,.3-10,.8-13.1.6-7.7-.5-19.9-.2-27.8.8h0Z"/>
              <path d="M260.7,203.7v-1.9c-.2-.2-.5-4.4-.2-10.7.3-4.2.6-5.6,1.3-8.8.4-1.8.8-4.2,1.5-8,1.1-6.4.7-8.7,0-11.8-.4-2-.9-4.3-1.1-8-.3-4.5-.6-7.1-.8-9.1-.2-2.2-.4-3.5-.4-5.4,0-4.4,3.5-4.4,4.6-4.4s2.4.1,4.1.3l1.6.2c2.1.3,7.7.9,14.3.9s6.9-.2,9.7-.6c5.4-.7,12.7-1,19.8-1s5.9,0,8.3.2c2.9.2,8.7-.3,12.7-.6h.9c.6,0,1.7,0,2.3,1,.6,1,0,1.9-.5,2.8-.8,1.4-2.2,3.9-2.8,8.8-.7,7.3-.5,14.3-.4,20,0,2.1,0,4,0,5.7s0,4.1-.1,6.1c-.1,3.9-.2,7.5.1,12v2.3c.3,4.1.5,6.4-.8,7.7-.6.6-1.9,1.3-4.2.5-2-.6-3.5-.8-5.5-.8h-1.9c-1.4,0-3,0-4.9,0h-.8c-2.5,0-4.5.3-6.6.6-2.7.4-5.6.8-9.5.5-3.3-.3-8.2-.1-13,0-2.9.1-5.8.2-8.2.2s-4.8-.1-6-.5c-.6-.1-1.4-.2-2.3-.2-4.1,0-9.4,1.3-9.5,1.3l-1.9.5ZM265.6,138.9c-1.4,0-1.4,0-1.4,1.2,0,1.8.1,3,.3,5,.2,2,.5,4.7.8,9.2.2,3.5.6,5.6,1.1,7.5.7,3.4,1.3,6,0,13-.7,3.8-1.2,6.3-1.5,8.1-.6,3.2-.9,4.4-1.2,8.4-.2,3.6-.2,6.6,0,8.4,2.9-.6,8.5-1.4,11.4-.7.9.3,2.7.4,5.3.4s5.2-.1,8.1-.2c5-.2,10.1-.4,13.4,0,3.4.2,6.1-.1,8.8-.5,2.1-.3,4.3-.6,7-.6h.9c1.9,0,3.5,0,4.8,0h1.9c2.3,0,4.1.1,6.5.9.6.2.8.2,1,.2.2-.4,0-3,0-5.2v-2.3c-.4-4.6-.3-8.4-.2-12.3,0-1.9.1-3.9.1-6s0-3.6,0-5.6c-.1-5.8-.3-12.9.4-20.4.5-4.4,1.7-7.3,2.6-9-4.1.3-9.4.7-12.2.6-2.4-.2-5.2-.2-8.1-.2-6.9,0-14.2.4-19.4,1-2.9.4-6.3.6-10.1.6s-10.1-.3-14.7-.9l-1.6-.2c-1.5-.2-2.8-.3-3.7-.3Z"/>
            </g>
            <path d="M297,169.9c-.2,0-.3,0-.5-.1-.4-.3-.5-.8-.2-1.1,3.2-4.6,5.7-6.2,8.3-7.7.4-.2.8-.5,1.2-.7.9-.6,2.2-1.9,3.8-3.5,3.6-3.7,9.1-9.3,16.3-12.7.4-.2.9,0,1.1.4.2.4,0,.9-.4,1.1-7,3.3-12.3,8.7-15.8,12.3-1.7,1.7-3,3.1-4.1,3.8-.4.3-.8.5-1.2.7-2.6,1.6-4.8,2.9-7.8,7.3-.2.2-.4.4-.7.4Z"/>
            <path d="M270.2,191.2c-.2,0-.4,0-.6-.3-.3-.3-.3-.8,0-1.1,1.4-1.3,2.4-3.2,3.7-5.5,1.5-2.8,3.5-6.4,6.9-10.6,3.3-4,4.3-5.3,5-6.3.6-.9,1.1-1.5,2.6-3.2.8-.9,1.6-1.9,2.5-2.9,2.6-3.1,6.2-7.4,13.7-14.4.3-.3.8-.3,1.1,0,.3.3.3.8,0,1.1-7.4,6.9-11,11.2-13.6,14.3-.9,1.1-1.7,2-2.5,3-1.5,1.7-1.9,2.2-2.5,3.1-.7,1-1.8,2.4-5.1,6.4-3.4,4.1-5.3,7.5-6.8,10.3-1.3,2.5-2.4,4.4-4,5.9-.2.2-.4.2-.6.2Z"/>
          </g>
          <g>
            <g>
              <path class="cls-1" d="M178.5,202.8c10-.3,21.6-.8,31.6-.2,2.7.2,10.2-.8,15.5,0,1.5.3.8-3.9.6-5.3-.2-5,1.1-20.8,1.3-25.5.2-4.5.2-13.7,0-22.9-.2-4.7.2-10,.2-11.1-.2-1.1-5.2-.5-6.1-.3-6.5,1.6-8.7-1.3-15.5-.8-7.3.3-14.2.8-21.5,1-6.1.2-10.7,0-16.3-.2-3.2,0-9,.2-12.6-.5-.8-.2-6.5-.8-6.3.6v3.2c0,4.7.3,10.2.5,15,.2,5.8-1.3,8.7-.8,14.5.8,9,.3,18.2-.2,27.8-.5,9.7.3,6.8,9.2,6,5.5-.5,14-1.1,19.7-1.3h.6Z"/>
              <path d="M150.8,206.8c-1.1,0-1.9-.3-2.4-.9-1.2-1.2-1.2-3.2-1-7.8.5-9.8,1-18.7.2-27.5-.3-3.3,0-5.8.4-8.1.3-1.9.5-4,.5-6.5,0-1.5-.1-3.1-.2-4.7-.1-3.5-.3-7.1-.3-10.3v-3.2c0-.4.1-1,.5-1.5.7-.8,1.8-1.1,3.9-1.1s3.3.2,3.8.3c2.3.4,5.9.5,8.4.5h3.9s1.4,0,1.4,0c5,.2,9.3.3,14.9.1,4.8-.1,9.4-.4,14-.6,2.5-.1,4.9-.3,7.4-.4,3-.2,5.5.3,7.6.7,2.5.5,4.8.9,7.6.1.7-.1,2.6-.4,4.2-.4s3.6,0,3.9,2c0,.5,0,1.1,0,2,0,2.2-.2,6-.1,9.4.2,9.2.2,18.5,0,23,0,1.7-.3,4.7-.5,8.2-.4,6.3-.9,14.1-.8,17.2v.3c.4,3.1.4,4.9-.5,6-.4.5-1,.7-1.6.7h-.5c-2.6-.4-7.3-.3-10.8-.1-1.9,0-3.4.2-4.4.1-7.9-.5-18.9-.3-28.7,0h-3.5c-5.4.2-13.9.9-19.6,1.4-1.9.2-3.5.5-4.7.7-1.2.2-2.1.4-2.9.4ZM151.1,138.3v2.5c0,3.2.2,6.7.3,10.2,0,1.6.1,3.2.2,4.8,0,2.8-.2,5-.5,7-.3,2.3-.6,4.5-.3,7.4.8,9,.4,18.1-.1,27.6,0,1.9-.3,5.2.1,5.8h0c.6-.1,1.3-.3,2.3-.4,1.3-.2,2.9-.5,5-.7,5.9-.5,14.2-1.1,19.8-1.3h3.4c5.8-.3,11.7-.5,17.7-.5s8,.1,11.4.3h.6c.9,0,2.1,0,3.4-.1,3.3-.2,7.7-.3,10.6,0,0-.6,0-1.6-.2-3v-.5c-.2-3.4.3-11.3.8-17.7.2-3.4.4-6.4.5-8.1.2-4.5.2-13.7,0-22.8-.1-3.5,0-7.3.1-9.6,0-.2,0-.4,0-.6-1,0-3.5.2-4.2.3-3.2.8-6.3.4-9-.1-1.9-.4-3.9-.9-6.7-.6-2.5.1-5,.2-7.4.4-4.7.2-9.3.5-14.1.6-5.6.2-10,0-15-.1h-1.4s-3.9,0-3.9,0c-2.8,0-6.4,0-9-.5-.4,0-3.5-.3-4.4-.2Z"/>
            </g>
            <path d="M211.8,176.5c-.3,0-.5-.1-.7-.4-.2-.4-.1-.9.3-1.1,3.2-1.9,12.4-14.6,15.7-19.3.3-.4.8-.5,1.1-.2.4.3.5.8.2,1.1-.5.7-12.1,17.3-16.2,19.8-.1,0-.3.1-.4.1Z"/>
            <path d="M165.1,191.7c-.2,0-.4,0-.6-.2-.3-.3-.3-.8,0-1.1,3.7-3.7,6.9-7,15.3-17.1,6.7-7.9,9.7-10.4,12.6-12.8.7-.6,1.5-1.3,2.3-2,2.9-2.6,8.9-7.7,16.6-11.7.4-.2.9,0,1.1.3.2.4,0,.9-.3,1.1-7.6,4-13.5,8.9-16.3,11.5-.8.7-1.6,1.4-2.4,2-3,2.5-5.8,4.8-12.4,12.6-8.4,10.1-11.7,13.5-15.4,17.2-.2.2-.4.2-.6.2Z"/>
            <path d="M168.8,196.2c-.2,0-.4,0-.5-.2-.4-.3-.4-.8-.1-1.1,2-2.6,6.7-6.5,9.8-9l1.1-.9c3.3-2.6,6.6-6.4,9.9-11.3.3-.4.7-.5,1.1-.2.4.2.5.7.2,1.1-3.3,5.1-6.8,9-10.2,11.7l-1.1.9c-3,2.5-7.6,6.3-9.5,8.8-.2.2-.4.3-.6.3Z"/>
            <path d="M171.1,203.9c-.3,0-.6-.2-.7-.4-.2-.4,0-.9.3-1.1,1.9-1,3.5-2.7,5.2-4.5,1.5-1.6,3.3-3.5,5.5-5.1.4-.3.9-.2,1.1.2.3.4.2.9-.2,1.1-2.1,1.5-3.7,3.3-5.3,4.9-1.8,1.9-3.4,3.7-5.6,4.8-.1,0-.3,0-.4,0Z"/>
            <path d="M160.3,151c-.2,0-.4,0-.5-.2-.3-.3-.4-.8-.1-1.1,2.1-2.6,5.2-4.3,7.9-5.9,1.1-.6,2.2-1.3,3.1-1.9.8-.5,1.3-1.1,1.9-1.7,1.2-1.2,2.5-2.5,5.4-3.3.5-.1.9.1,1,.6.1.4-.1.9-.6,1-2.6.7-3.6,1.7-4.7,2.9-.6.6-1.3,1.3-2.2,1.9-.9.6-2,1.3-3.2,1.9-2.6,1.5-5.5,3.1-7.4,5.5-.2.2-.4.3-.6.3Z"/>
          </g>
          <path d="M206.4,85.1c-.3,0-.5,0-.8,0-.4,0-.8-.4-.8-.9,0-.4.4-.8.9-.8,4.2.3,8-2.4,8-2.4.1,0,6.2-3.7,14.7-6.7.4-.1.9,0,1,.5.2.4,0,.9-.5,1-8.4,3-14.3,6.5-14.4,6.6-.1,0-3.8,2.7-8.3,2.7Z"/>
          <path d="M294.3,84.3c-.4,0-.8-.3-.8-.8,0-.4.3-.8.8-.9,8-.5,11.8-2,15.9-3.6,2.1-.8,4.3-1.7,7.2-2.5,8.6-2.5,11.9-3.3,24.9-3.3s.8.4.8.8-.4.8-.8.8c-12.8,0-16.1.8-24.5,3.2-2.8.8-5,1.6-7,2.4-4.2,1.6-8.1,3.2-16.4,3.7h0Z"/>
          <g>
            <path class="cls-1" d="M124.6,36.4h237.6c1.3,0,2.3,1,2.3,2.3v3.2c0,1.1-1,2.3-2.3,2.3H124.6c-1.3,0-2.4-1.1-2.4-2.3v-3.2c0-1.3,1.1-2.3,2.4-2.3h0Z"/>
            <path d="M362.3,45.7H124.6c-2.2,0-4-1.8-4-3.9v-3.2c0-2.1,1.8-3.9,4-3.9h237.6c2.2,0,3.9,1.7,3.9,3.9v3.2c0,2.1-1.8,3.9-3.9,3.9ZM124.6,38c-.4,0-.8.3-.8.7v3.2c0,.2.4.7.8.7h237.6c.4,0,.6-.4.6-.7v-3.2c0-.4-.3-.7-.6-.7H124.6Z"/>
          </g>
          <g>
            <path class="cls-1" d="M335.5,67.5c-7.4.2-14.7-.6-22.1-.6h-3.1c-5.5,0-10-1.1-15.8-1-5.7.3-10.7,2.3-10.7-4.8s.2-12.4,1.3-15.2c1.8-3.4,9.2-2.6,12.8-2.4,8.4.2,15.7.3,24.1-.3,12.8-.8,25.2.6,37.9.3,6.5-.2,4.4,5.2,5,9.8.3,3.1,1.3,7.4.5,10.3-1.6,3.9-6.8,3.1-10.3,3.1-6.5.3-12.9.5-19.5.8h0Z"/>
            <path d="M333.4,69.2c-3.4,0-6.7-.2-10.1-.3-3.3-.2-6.6-.3-10-.3h-3.1c-2.6,0-5.1-.3-7.4-.5-2.3-.2-4.7-.5-7.3-.5h-1.1c-.9,0-1.8.2-2.6.3-1.2.1-2.4.2-3.4.2s-3.1-.2-4.5-1.5c-1.2-1.2-1.8-2.9-1.8-5.5s.1-12.6,1.4-15.8c1.7-3.3,6.1-3.6,9.3-3.6s2.7,0,3.9.1h1.7c3.5.1,6.8.2,10.1.2,4.9,0,9.1-.2,13.2-.5,6.4-.4,14-.2,21.4,0,5.5.2,11,.4,16.6.3h0c2.4,0,3.8.5,4.9,1.5,1.6,1.6,1.6,4.1,1.6,6.5,0,1.1,0,2.2.1,3.2,0,.7.2,1.5.3,2.3.4,2.9.9,6.1.2,8.7-1.8,4.3-6.5,4.3-8.5,4.3s-1.3,0-1.9,0c-.5,0-1.1,0-1.5,0-3.2.2-6.5.3-9.8.4-3.2.1-6.4.2-9.6.4-.7,0-1.4,0-2.2,0ZM295.6,64.3c2.7,0,5.2.3,7.6.5,2.4.2,4.6.5,7.1.5h3.1c3.4,0,6.8.2,10.1.3,4,.2,7.9.4,12,.3,3.2-.2,6.4-.3,9.6-.4,3.3-.1,6.6-.2,9.9-.4.6,0,1.2,0,1.7,0,.6,0,1.2,0,1.8,0,3.3,0,4.8-.6,5.4-2.1.5-1.7,0-4.6-.3-7.2-.1-.8-.2-1.6-.3-2.3-.2-1.2-.2-2.4-.2-3.6,0-1.8,0-3.5-.7-4.2-.4-.4-1.2-.6-2.3-.6-1.6,0-2.9,0-4.2,0-4.3,0-8.6-.2-12.9-.3-7-.3-14-.5-21.1,0-4.2.3-8.4.5-13.4.5s-6.6,0-10.1-.1h-1.8c-1.1-.1-2.4-.2-3.7-.2-4.5,0-6,1-6.4,1.8-.7,1.8-1.1,8.6-1.1,14.4s.3,2.6.8,3.1c.7.7,2.9.6,5.3.3.9,0,1.9-.2,2.8-.3h1.2Z"/>
          </g>
          <g>
            <path class="cls-1" d="M261.7,67c-3.1-.2-6.5-.2-9.7-.2s-6,.2-8.9.3c-5.3.2-10.7-.3-16-.5-5.3-.2-10.3-.3-15.5-.2-6.9.2-7.6,0-6.9-7.1l.2-1.5c.2-3.9-.3-5.8-.6-9.5-.5-4.7,2.7-4.8,6.8-4.5,5.7.3,9.4.2,15-.2,9.8-.5,19.2,0,29.2.3,6.8.2,13.7-.5,20.7-.5h4.5c5.7.5,4,5.2,3.7,9-.5,3.9-.6,6.3-.6,10.3s-1.5,4.5-4.8,5c-5.3,1-11-.6-16.5-1h-.5Z"/>
            <path d="M275,69.9c-2.5,0-5.1-.3-7.5-.7-1.8-.3-3.6-.5-5.4-.6h-.4c-5.9-.3-12.4-.2-18.5.2-3.8,0-7.2,0-10.8-.3-1.8,0-3.5-.2-5.3-.2h-.5c-5.1-.2-10-.3-14.9-.2-.8,0-1.6,0-2.2,0-2.2,0-4.2-.1-5.5-1.5-1.4-1.5-1.3-3.9-1-7.4l.2-1.5c0-2.5,0-4.1-.3-6.2-.1-.9-.2-1.9-.3-3-.2-2,.2-3.6,1.2-4.7,1.4-1.5,3.5-1.7,5.1-1.7s1.5,0,2.3.1c5.5.3,9.2.2,14.8-.2,8.4-.4,16.2-.1,24.6.2l4.7.2c3.7,0,7.5,0,11.3-.2,3.1-.1,6.2-.3,9.4-.3h4.5c2.2.2,3.7.9,4.6,2,1.6,1.9,1.2,4.6.9,7,0,.6-.1,1.2-.2,1.7-.5,3.9-.6,6.3-.6,10.2s-3.3,6.2-6.2,6.6c-1.2.2-2.5.3-3.9.3ZM262.2,65.4c2,.1,3.9.4,5.8.6,3.8.5,7.5.9,10.4.4,3-.4,3.5-1.4,3.5-3.4,0-4,.2-6.5.7-10.5,0-.5.1-1.2.2-1.8.2-1.8.5-3.7-.2-4.6-.4-.5-1.1-.7-2.2-.8h-4.4c-3.1,0-6.2.1-9.2.3-3.9.2-7.7.3-11.5.2l-4.8-.2c-8.3-.3-16.1-.6-24.3-.2-5.7.3-9.4.5-15.2.2-2.4-.2-4.2,0-4.7.5-.4.5-.4,1.5-.4,2.2,0,1.1.2,2,.3,2.9.3,2.1.5,4,.3,6.8l-.2,1.6c-.1,1.4-.4,4.3.1,4.9.4.4,2.4.4,3.1.4s1.3,0,2.1,0c5-.2,9.9,0,15.1.1h.5c1.8,0,3.6.2,5.4.3,3.5.2,7,.4,10.5.3,6.1-.3,12.8-.5,18.7-.2h.4Z"/>
          </g>
          <g>
            <path class="cls-1" d="M142.2,66.6c-2.1,0-15.7.2-16.6-.3-3.7-1.3-3.1-4.8-3.1-7.9s0-9.2.6-11.5c1.3-3.2,5.5-2.6,8.6-2.7,9.5-.5,20-.6,29.5-.5,6.9.2,11.9,1,19.4.5,3.7-.2,20.2-1.5,22.8.6,2.7,2.1.8,7.9.5,11.3-.2,2.4,0,4,.2,6.6.3,5.2-5.2,4.2-8.9,4.2-17.8,0-35.4.2-53-.3h0Z"/>
            <path d="M198.5,68.6c-.6,0-1.2,0-1.8,0-.5,0-1,0-1.5,0h-21.2c-9.4,0-20.6,0-31.8-.3h-6.4c-9.8,0-10.4-.3-10.9-.5-4.2-1.4-4.1-5.3-4-8.2v-1.2c0-4.7.1-9.7.7-11.9,1.5-3.8,5.5-3.9,8.4-3.9.6,0,1.1,0,1.6,0,9.3-.5,20-.7,29.7-.5,2.4,0,4.6.2,6.8.3,3.9.2,7.7.5,12.5.2h2.1c2.8-.3,7.5-.5,11.7-.5,7.2,0,9.2.8,10.1,1.6,2.9,2.2,2.1,6.6,1.5,10.2-.2.9-.3,1.8-.4,2.5-.1,1.9,0,3.3,0,5.3v1.1c.2,1.7-.3,3.2-1.2,4.2-1.5,1.6-3.8,1.8-5.9,1.8ZM195.2,65.3c.5,0,1.1,0,1.6,0s1.1,0,1.7,0c1.2,0,2.9,0,3.6-.8.3-.3.5-.9.4-1.8v-1.1c-.2-2-.3-3.6-.2-5.8,0-.9.2-1.8.4-2.8.4-2.6,1.1-6.1-.3-7.1-.2-.1-1.3-.9-8.1-.9s-8.7.3-11.5.4h-2.1c-4.8.4-8.8.2-12.8,0-2.1-.1-4.3-.3-6.6-.3-9.6-.2-20.2,0-29.4.5-.6,0-1.1,0-1.7,0-2.9,0-4.8.1-5.4,1.7-.5,1.9-.5,8.4-.5,10.9v1.2c-.1,3.1,0,4.5,2,5.1.3,0,1.7.3,9.6.3h6.5c11.2.3,22.3.3,31.7.3h21.2Z"/>
          </g>
          <path d="M358.2,61.1c0,0-.1,0-.2,0-11.2-2.2-49.8-3.6-61.7-1.1-.4,0-.9-.2-1-.6,0-.4.2-.9.6-1,12.8-2.7,52.2-.9,62.3,1.1.4,0,.7.5.6.9,0,.4-.4.7-.8.7Z"/>
          <path d="M211.5,60.6c-.4,0-.7-.3-.8-.7,0-.4.2-.9.7-.9,4.1-.8,14.9-2.8,26.3-2.4,5.6.2,11.2.2,16.5.2,10.1,0,18.8,0,24.3,1.1.4,0,.7.5.6.9,0,.4-.5.7-.9.6-5.3-1-14-1.1-24-1.1-5.4,0-10.9,0-16.6-.2-11.3-.3-21.9,1.7-26,2.4,0,0,0,0-.1,0Z"/>
          <path d="M161.4,60c-1.6,0-3.3,0-5,0h-3.1c-9.2-.4-18.8-.7-22.3,0-.4,0-.9-.2-.9-.6,0-.4.2-.9.6-.9,3.7-.8,13.4-.4,22.7-.1h3.1c8,.4,15.4,0,22-.5,5.3-.3,9.9-.6,13.3-.4.4,0,.8.4.8.9,0,.4-.5.7-.9.8-3.3-.2-7.8,0-13.1.4-5.2.3-11,.7-17.1.7Z"/>
        </g>
      </g>
    </g>
  </g>
</svg>