<?xml version="1.0" encoding="UTF-8"?>
<svg xmlns="http://www.w3.org/2000/svg" version="1.1" viewBox="0 0 605.5 401">
  <defs>
    <style>
      .cls-1 {
        fill-rule: evenodd;
      }

      .cls-1, .cls-2 {
        fill: #fff;
      }
    </style>
  </defs>
  <!-- Generator: Adobe Illustrator 28.6.0, SVG Export Plug-In . SVG Version: 1.2.0 Build 709)  -->
  <g>
    <g id="Layer_1">
      <g>
        <g>
          <g>
            <rect class="cls-2" x="73.3" y="45" width="86.5" height="59.1"/>
            <path d="M161.5,105.7h-89.8v-62.3h89.8v62.3ZM74.9,102.5h83.3v-55.9h-83.3v55.9Z"/>
          </g>
          <g>
            <path class="cls-1" d="M119.8,62.1c0-5.8,4.7-10.5,10.5-10.5s10.5,4.7,10.5,10.5-4.7,10.5-10.5,10.5-10.5-4.7-10.5-10.5h0Z"/>
            <path d="M130.3,74.2c-6.7,0-12.1-5.4-12.1-12.1s5.4-12.1,12.1-12.1,12.1,5.4,12.1,12.1-5.4,12.1-12.1,12.1ZM130.3,53.2c-4.9,0-8.9,4-8.9,8.9s4,8.9,8.9,8.9,8.9-4,8.9-8.9-4-8.9-8.9-8.9Z"/>
          </g>
          <path d="M95.3,75.4c-.2,0-.4,0-.6-.3-.3-.3-.3-.8,0-1.1,5.2-4.7,9.1-8.8,12.1-12,1.6-1.7,3-3.1,4.2-4.3.3-.3.8-.3,1.1,0s.3.8,0,1.1c-1.2,1.1-2.5,2.5-4.1,4.2-3.1,3.3-6.9,7.3-12.2,12.1-.2.1-.3.2-.5.2Z"/>
          <path d="M95.3,92.8c-.2,0-.4,0-.6-.3-.3-.3-.3-.8,0-1.1l1.9-1.7c6.1-5.6,14.5-13.3,16.2-16.3.2-.4.7-.5,1.1-.3.4.2.5.7.3,1.1-1.8,3.2-10,10.7-16.5,16.7l-1.9,1.8c-.2.1-.4.2-.5.2Z"/>
        </g>
        <g>
          <g>
            <rect class="cls-2" x="440.9" y="45" width="86.5" height="59.1"/>
            <path d="M529.1,105.7h-89.8v-62.3h89.8v62.3ZM442.6,102.5h83.3v-55.9h-83.3v55.9Z"/>
          </g>
          <g>
            <path class="cls-1" d="M487.4,62.1c0-5.8,4.7-10.5,10.5-10.5s10.5,4.7,10.5,10.5-4.7,10.5-10.5,10.5-10.5-4.7-10.5-10.5h0Z"/>
            <path d="M497.9,74.2c-6.7,0-12.1-5.4-12.1-12.1s5.4-12.1,12.1-12.1,12.1,5.4,12.1,12.1-5.4,12.1-12.1,12.1ZM497.9,53.2c-4.9,0-8.9,4-8.9,8.9s4,8.9,8.9,8.9,8.9-4,8.9-8.9-4-8.9-8.9-8.9Z"/>
          </g>
          <path d="M462.9,75.4c-.2,0-.4,0-.6-.3-.3-.3-.3-.8,0-1.1,5.3-4.7,9.1-8.8,12.2-12,1.6-1.7,2.9-3.1,4.1-4.2.3-.3.8-.3,1.1,0,.3.3.3.8,0,1.1-1.2,1.1-2.5,2.5-4.1,4.2-3.1,3.3-6.9,7.4-12.2,12.1-.2.1-.3.2-.5.2Z"/>
          <path d="M462.9,92.8c-.2,0-.4,0-.6-.3-.3-.3-.3-.8,0-1.1l2-1.9c6.1-5.6,14.4-13.3,16.3-16.2.2-.4.7-.5,1.1-.3s.5.7.3,1.1c-1.9,3.1-10,10.6-16.5,16.6l-2,1.9c-.2.1-.4.2-.5.2Z"/>
        </g>
        <g>
          <g>
            <path class="cls-1" d="M172.5,35.3v302.7c0,11.1,9,20.2,20.2,20.2h215.8c11,0,20-9,20-20.2V35.3H172.5Z"/>
            <path d="M408.5,359.8h-215.9c-12,0-21.8-9.8-21.8-21.8V33.7h259.3v304.3c0,12-9.7,21.8-21.6,21.8ZM174.1,36.9v301.1c0,10.2,8.3,18.6,18.6,18.6h215.9c10.1,0,18.4-8.3,18.4-18.6V36.9h-252.8Z"/>
          </g>
          <path d="M418.2,49.4h-235.2c-4.2,0-12.1-3.1-12.1-7.9v-7.7h259.3v7.7c0,4.8-7.8,7.9-11.9,7.9ZM174.1,36.9v4.5c0,2.1,5.5,4.7,8.9,4.7h235.2c3.2,0,8.7-2.7,8.7-4.7v-4.5h-252.8Z"/>
          <path d="M180,48.4c-.3,0-.5-.1-.7-.4-.2-.4-.1-.9.2-1.1,0,0,3.6-2.4,6.1-5.9.3-.4.8-.5,1.1-.2.4.3.5.8.2,1.1-2.6,3.8-6.4,6.2-6.5,6.4-.1,0-.3.1-.4.1Z"/>
          <path d="M178.1,47.9c-.2,0-.4,0-.6-.2-.3-.3-.3-.8,0-1.1,0,0,1.8-1.9,1.7-5,0-.4.3-.8.8-.8h0c.4,0,.8.3.8.8.2,3.9-2.1,6.2-2.2,6.3-.2.2-.4.2-.6.2Z"/>
          <path d="M427.2,43.6c-.2,0-.4,0-.5-.2,0,0-2.2-2-7.1-3.4-.4-.1-.7-.6-.6-1s.6-.7,1-.6c5.3,1.5,7.7,3.6,7.8,3.7.3.3.3.8,0,1.1-.2.2-.4.3-.6.3Z"/>
          <path d="M422.4,43.6s0,0-.1,0c-1.3-.2-2.1-.4-2.8-.6-1.2-.3-2.2-.6-5.4-.6s-.8-.4-.8-.8.4-.8.8-.8c3.4,0,4.5.3,5.8.6.7.2,1.4.4,2.7.5.4,0,.8.5.7.9,0,.4-.4.7-.8.7Z"/>
          <g>
            <path class="cls-1" d="M243.5,278c-3.1-4.2-4.7-6.5-9.4-8.6-6.8-3.2-5-1-13.4-6.8-8.6-5.8-11.3-9-19.9-19.2-8.6-10.3-3.9-3.7-14.5-14.4-10.7-10.8-23.1-32.5-25.8-40-2.7-7.6,3.4-5.8,5.7-5.8s8.6-.6,17-1.8c8.6-1.1,20,1.1,25.2,0s10.2-3.4,15-6.3c5-2.9,11-4.7,20.2-7.7,9.2-2.9,56.7-14,83.8-20.3s48.8-8.1,63.3-10.2c14.7-1.9,13.6.8,19.5-3.2,6.1-4.2,17.4,0,17.4,0,0,0,3.2.6,3.6,1.9.5,1.3,1.1,3.6,1.1,5.7s-.5,3.9.2,8.9c.6,5,1.3,7.1,1.9,9,.8,1.9,1,3.4-1.6,3.7s-3.1.6-8.7.2c-5.8-.6-8.2,0-13.6,1.8-5.5,1.6-13.4,3.1-19.7,10.5-6.3,7.6-18.6,15.5-27.3,17.6-8.7,1.9-10.3-2.7-21.5,4.4-11.3,7.3-6.3,7.1-15.8,9.7-9.4,2.7-16.1,3.4-25.3,13.1s1.6-1.6-14.2,20c-15.7,21.5-14,20.8-20.7,25.8-3.6,2.6-8.4,8.4-11.9,13.1-6,7.4-5.5,6.1-10.5-1h0Z"/>
            <path d="M248.7,285.6c-2,0-3.1-1.7-5-4.5-.4-.6-.9-1.3-1.5-2.1-3-4.1-4.5-6.1-8.7-8-2.4-1.1-3.6-1.6-4.7-1.9-2-.7-3.4-1.1-8.9-5-8.8-6-11.7-9.4-20.2-19.5-4.6-5.6-5.3-6.1-6.6-7.1-1.3-1-3-2.3-7.8-7.1-10.7-10.9-23.4-32.8-26.2-40.6-1-2.9-1.1-5,0-6.4,1.2-1.8,3.5-1.8,4.3-1.8s1.3,0,1.9.1c.4,0,.7,0,1,0,2.3,0,8.7-.7,16.7-1.8,4-.5,9.6-.3,14.7,0,4.4.3,8.4.5,10.4,0,4.6-1,9.4-3,14.5-6.1,4.5-2.6,9.7-4.3,16.9-6.7l3.6-1.2c9.3-3,56.6-14,83.9-20.4,20.7-4.8,37.9-7,51.8-8.7,4.3-.5,8.2-1,11.6-1.5,6.1-.8,9.5-.8,11.8-.8,3.2,0,3.9,0,7-2.1,2.1-1.4,4.8-2.1,8.1-2.1,5.4,0,10.5,1.9,10.8,2,1,.2,4,1,4.6,3.1.2.6,1.2,3.3,1.2,6s0,1.2,0,1.8c-.1,1.6-.2,3.4.2,6.8.6,4.7,1.2,6.8,1.9,8.7.5,1.2,1,2.8.2,4.1-.6,1-1.6,1.5-3.1,1.7l-1.1.2c-1.9.3-3,.5-8,0-5.5-.6-7.4-.1-12.9,1.7l-2.1.6c-5.2,1.4-11.7,3.2-16.9,9.4-6.5,7.8-19.1,15.9-28.1,18.1-2.8.6-5.6.6-8,.4-3.1-.2-5.7-.9-13,3.7-4.6,3-6.4,4.7-7.6,5.8-2,1.9-3,2.6-8.6,4.1-1.3.4-2.6.7-3.9,1.1-7.4,2-13.2,3.6-20.7,11.6-4,4.2-4,4.2-4.2,4.7-.4,1.1-1.2,3.2-9.9,15.1-4.3,5.9-7.3,10.1-9.5,13.2-5.9,8.3-6.5,9.2-11.5,13-2.8,2-7,6.7-11.6,12.8-3.1,3.8-4.6,5.6-6.6,5.6ZM163.2,184.6c-1.2,0-1.5.3-1.6.4,0,.1-.5.9.4,3.4,2.7,7.6,15.1,28.9,25.5,39.5,4.7,4.7,6.3,5.9,7.5,6.8,1.6,1.2,2.3,1.8,7.1,7.6,8.5,10.1,11.1,13.2,19.5,18.9,5.2,3.6,6.3,4,8.2,4.6,1.1.4,2.5.9,5,2.1,5,2.2,6.8,4.7,9.9,8.9.7,1,1.2,1.7,1.6,2.3.9,1.3,1.9,2.8,2.4,3.1.8-.3,2.8-2.8,4-4.4,2.8-3.7,8.2-10.4,12.3-13.4,4.6-3.5,4.9-4,10.8-12.2,2.2-3.1,5.2-7.4,9.5-13.2,8.4-11.5,9.2-13.6,9.5-14.3.4-1.2.6-1.3,4.9-5.8,8.2-8.6,14.7-10.4,22.2-12.4,1.2-.3,2.5-.7,3.8-1.1,5.2-1.4,5.7-1.9,7.3-3.4,1.3-1.2,3.3-3,8.1-6.1,8-5.1,11.3-4.5,15-4.2,2.2.2,4.5.2,7-.3,8.4-2,20.3-9.7,26.4-17,5.9-7,13.2-9,18.5-10.5l1.9-.5c5.1-1.7,7.9-2.5,14.2-1.8,4.4.4,5.5.2,7.2,0l1.1-.2c.5,0,.7-.2.8-.2,0,0,0-.4-.5-1.3-.8-2.3-1.4-4.4-2-9.5-.5-3.8-.4-5.8-.2-7.5,0-.6,0-1.1,0-1.6,0-1.7-.5-3.8-1-5.1-.2-.3-1.4-.7-2.4-.9-.3,0-5.1-1.8-9.9-1.8s-4.8.5-6.3,1.6c-3.8,2.6-5.1,2.7-8.8,2.7-2.2,0-5.5,0-11.4.8-3.5.5-7.4,1-11.7,1.5-13.8,1.7-30.9,3.9-51.4,8.6-22,5.1-74.1,17.3-83.7,20.3l-3.6,1.2c-7,2.3-12.1,4-16.3,6.4-5.4,3.3-10.5,5.4-15.5,6.5-2.4.5-6.5.4-11.3,0-4.8-.3-10.3-.5-14,0-8.3,1.1-14.7,1.8-17.2,1.8s-.8,0-1.3,0c-.5,0-1.1,0-1.6,0Z"/>
          </g>
          <g>
            <path d="M387.2,134.1c-.8,0-1.7,0-2.7,0-1,0-2,0-3,0h-1.1c-5.8.3-9.7-.5-14-1.4l-2.7-.6c-4.8-.9-8.5-1.3-10.7-1.1,0,0-.3,0-.5,0-1.5,0-4.9-.4-9.3-.9-6.4-.8-14.7-1.8-17.7-1.5-2.3.3-3.4.8-4.6,1.3-1.4.7-3,1.4-6.6,1.9-2.2.4-4.9.5-7.2.5-.9,0-1.7,0-2.5.1h0c-2.5,0-4.8-.2-5.5-2-.6-1.7.8-3.4,3.3-5.5,3.4-2.8,3.6-3,3.5-13.3-.1-6.1.1-9.9.3-12.7.2-3.6.4-5.2-.5-7.9-.6-1.8-1.5-3.3-2.4-4.7-1.6-2.7-3.3-5.5-3.1-10.3.2-4.8,1-7.8,1.6-10,.2-.9.4-1.7.5-2.4.2-1.5,1.2-2.1,2.1-2.1s1.7.6,2.8,1.4c1.2.9,2.9,2.1,4.9,2.7,4.7,1.2,8.3,2,12.9,2.4,1.1,0,5.2.3,10.7.3s17.1-.4,25.1-2.4c7.3-1.7,12.1-2.5,15.3-3,2.6-.4,4.3-.7,5.5-1.2.7-.3,1.5-.8,2.3-1.4,1.1-.8,2.2-1.6,3.4-1.6,1.7,0,2.7,1.4,3,4.1.6,4.6-.3,9.5-2.4,14.5-1.5,3.3-3.1,12.2-3.1,20.2s-.2,4.5-.4,6c-.3,2.8-.5,3.9,1.5,8.4,1.1,2.3,1.9,4.1,2.6,5.7,1.4,3.2,2.4,5.3,4.7,9.4.4.8,1.7,3,.6,4.9-1.1,2-4,2.1-6.6,2.1ZM381.5,130.7c1.1,0,2.1,0,3.1,0,.9,0,1.8,0,2.6,0,3.1,0,3.7-.4,3.9-.5h0s0-.5-.6-1.7c-2.4-4.2-3.5-6.5-4.9-9.6-.7-1.5-1.5-3.3-2.6-5.6-2.3-5.1-2.2-6.9-1.8-10.1.2-1.4.4-3,.4-5.6,0-7.8,1.5-17.4,3.4-21.5,1.9-4.4,2.6-8.8,2.1-12.9,0-.5-.1-.8-.2-1-.3.2-.8.5-1.1.8-.9.6-1.9,1.3-3,1.8-1.5.6-3.3.9-6.1,1.3-3.3.5-7.9,1.3-15.1,2.9-8.4,2-18.7,2.5-25.9,2.5s-9.8-.3-10.9-.3c-4.8-.3-8.6-1.2-13.5-2.5-2.6-.8-4.6-2.3-5.9-3.2,0,0,0,0,0,0,0,.4-.2.8-.3,1.3-.5,2.1-1.3,4.9-1.5,9.4-.2,3.8,1,5.8,2.6,8.5.9,1.5,1.9,3.2,2.6,5.3,1.1,3.3,1,5.6.7,9.2-.2,2.7-.4,6.5-.3,12.4.2,11.4-.4,12.3-4.5,15.8-1,.8-1.6,1.4-1.9,1.8.4,0,1,0,1.9,0,.7,0,1.5,0,2.4-.1,2.2,0,4.7-.2,6.8-.5,3.1-.4,4.4-1,5.7-1.6,1.3-.6,2.7-1.3,5.6-1.6.5,0,1,0,1.6,0,3.9,0,10.8.8,16.9,1.6,3.9.5,7.6.9,8.9.9.8,0,1.3,0,1.9,0,2.5,0,5.8.4,10,1.2l2.7.6c4.3.9,7.5,1.6,13.2,1.3h1.2Z"/>
            <path d="M307.4,117.5c-.2,0-.4,0-.6-.3-.3-.3-.3-.8,0-1.1,2-1.8,2.8-3.4,3.6-5,2-3.8,3.5-6.8,17.8-8.6.5,0,.8.3.9.7,0,.4-.3.9-.7.9-13.4,1.7-14.8,4.3-16.6,7.8-.8,1.6-1.8,3.4-4,5.4-.2.1-.4.2-.6.2Z"/>
            <path d="M354.9,130.1c-.1,0-.2,0-.3,0-1.4-.6-4.3-1.3-8-2.3-8.4-2.2-21.1-5.5-30.3-10.3-.4-.2-.6-.7-.3-1.1.2-.4.7-.5,1.1-.3,9.1,4.8,21.7,8.1,30,10.2,3.7,1,6.7,1.7,8.2,2.3.4.2.6.6.5,1.1-.1.3-.4.5-.8.5Z"/>
            <path d="M364.1,92.2c-.2,0-.5-.1-.6-.3-3.1-3.7-3.5-3.8-4.9-4-1.1-.2-2.6-.4-5.8-1.9-4-2-7.1-2.1-11.4-2.1-3.3,0-7.4,0-13-1.1-.4,0-.7-.5-.7-.9,0-.4.5-.7.9-.7,5.5,1,9.6,1,12.8,1,4.3,0,7.8,0,12.1,2.3,2.9,1.4,4.3,1.6,5.3,1.8,1.8.3,2.6.6,5.9,4.6.3.3.2.9-.1,1.1-.2.1-.3.2-.5.2Z"/>
          </g>
          <path d="M220.9,204.7c-3.6,0-5-1.6-6.9-3.9-1.5-1.9-3.3-4.3-7.7-6.3-6.4-3-10.3-3-15.6-2.9-4.4,0-9.9.2-18.4-1.4-.4,0-.7-.5-.6-.9,0-.4.5-.7.9-.6,8.4,1.6,13.8,1.5,18.1,1.4,5.3,0,9.6-.2,16.3,3,4.8,2.2,6.7,4.7,8.3,6.8,2.3,3,3.6,4.6,13.1,1.9,8.2-2.3,11.1-4.6,15.2-7.8,4.2-3.2,9.3-7.2,21.8-13,.4-.2.9,0,1.1.4.2.4,0,.9-.4,1.1-12.3,5.7-17.4,9.7-21.5,12.8-4.2,3.3-7.3,5.6-15.8,8-3.5,1-6.1,1.5-8,1.5Z"/>
          <path d="M223.9,185.3c-3.7,0-5.9-.7-8.1-1.4-2.9-.9-5.9-1.8-13-1.3-.5,0-.8-.3-.9-.8,0-.4.3-.8.8-.9,7.4-.5,10.6.5,13.6,1.4,4.3,1.3,8.4,2.6,25.8-1.5,8-1.9,13.2-3.4,17-4.5,10.2-2.9,11.5-3.3,31.8-3.3s.8.4.8.8-.4.8-.8.8c-20,0-21.1.3-31.4,3.2-3.8,1.1-9.1,2.6-17.1,4.5-9.1,2.2-14.6,2.9-18.5,2.9Z"/>
          <path d="M299.2,222.4s0,0,0,0c-.4,0-.8-.4-.7-.9,0-.5,1.3-12.6,16.6-24.5,7.4-5.8,11.7-8.4,15.9-10.9,4.4-2.7,9-5.4,17.3-12,.4-.3.9-.2,1.1.1.3.4.2.9-.1,1.1-8.5,6.7-13.1,9.5-17.5,12.1-4.1,2.5-8.4,5-15.8,10.8-14.7,11.4-16,23.2-16,23.3,0,.4-.4.7-.8.7Z"/>
          <path d="M398,159.5c-2.5,0-5.2,0-8.1-.1-4.6-.1-9.9-.2-16.5-.2h0c-.4,0-.8-.4-.8-.8,0-.4.4-.8.8-.8,6.6,0,11.9,0,16.5.2,8.2.2,14.2.3,20.8-.8.5,0,.9.2.9.7,0,.4-.2.9-.7.9-4.4.8-8.4,1-13,1Z"/>
          <path d="M424.6,153.7c-.2,0-.3,0-.5-.1-2.6-1.8-6-1.9-11.1-2.2-3.7-.2-8.4-.4-14.4-1.4-.4,0-.7-.5-.7-.9,0-.4.4-.8.9-.7,5.9.9,10.5,1.2,14.2,1.4,5.4.3,8.9.5,11.9,2.5.4.3.5.8.2,1.1-.2.2-.4.4-.7.4Z"/>
          <path d="M199.9,350.1h0c-14.4-.2-16-6.4-17.3-10.9-.1-.6-.3-1.1-.4-1.6-1.4-4.3-1.5-5-2-9.6v-.9c-.5-3.2-.4-4.4-.2-6,.1-1.2.3-2.6.3-5.4s.4-.8.8-.8.8.4.8.8c0,2.9-.2,4.4-.3,5.6-.2,1.6-.3,2.6.1,5.6v.9c.7,4.5.7,5.1,2.1,9.3.2.5.3,1.1.5,1.6,1.1,4.3,2.6,9.6,15.7,9.7.4,0,.8.4.8.8,0,.4-.4.8-.8.8Z"/>
          <path d="M363.2,351.6c-3.4,0-5.7-.3-9.4-.7-1.4-.2-2.9-.3-4.8-.5-.4,0-.8-.4-.7-.9,0-.4.4-.8.9-.7,1.9.2,3.4.4,4.8.5,7.4.9,9.4,1.1,25.9-.4,19.5-1.8,24.6-.2,24.9-.1.4.1.7.6.5,1-.1.4-.6.7-1,.5,0,0-5.3-1.5-24.2.2-8.6.8-13.2,1.1-16.8,1.1Z"/>
          <path d="M418.8,341.1c-.2,0-.5-.1-.6-.3-.3-.3-.2-.9.1-1.1,3.6-3,3.2-11.5,2.8-20.6,0-1.8-.2-3.7-.2-5.6,0-.4.3-.8.8-.8.4,0,.8.3.8.8,0,1.9.1,3.7.2,5.6.4,9.9.8,18.4-3.4,21.9-.2.1-.3.2-.5.2Z"/>
          <path d="M366.4,279.8c0,0-.1,0-.2,0-32-8.4-35.9-11.8-39.4-14.8-1.8-1.5-3.3-2.9-8.8-4.8-.4-.1-.6-.6-.5-1s.6-.7,1-.5c5.7,2,7.5,3.5,9.3,5.1,3.3,2.9,7.1,6.2,38.8,14.4.4.1.7.6.6,1,0,.4-.4.6-.8.6Z"/>
          <path d="M406.6,287.7c-.2,0-.4,0-.6-.2-15.5-14.8-23.1-16.2-32.6-17.9-5-.9-10.7-2-18.3-5.2-.4-.2-.6-.7-.4-1.1.2-.4.6-.6,1.1-.4,7.4,3.2,13,4.2,18,5.1,9.4,1.7,17.6,3.2,33.4,18.3.3.3.3.8,0,1.1-.2.2-.4.3-.6.3Z"/>
          <g>
            <path d="M203,136.8c-.6,0-2.1,0-2.7-1.2l-.4-.9.7-1.1c.4-.4.8-.7,1.2-1,1.3-1.1,3.1-2.5,4.2-5.8.8-2.3.5-3.4-.4-6-.6-1.8-1.3-4.2-1.9-7.9-1-6.1-.5-12.2,0-18.1.2-2.9.5-6,.5-8.9,0-4.1.5-6.8.8-8.7.4-2.3.6-3.3,0-5.1-1.4-3.8-2.6-7.8-2.2-11.7.4-2.6.7-5.1,3-5.1s1.5.4,2,.7c1.3.9,1.5,1,7.1,2.2,1.7.3,4.1.7,6.8,1.1,6.4,1,14.3,2.2,18.5,3.8.8.3,1.6.6,2.4.9,4.6,1.8,8.1,2.7,13.7.7,2.5-.9,5.4-1.4,8.9-1.4s6.3.4,9.1.7c2.3.3,4.1.5,5.4.4.9-.1,2-.4,3.1-.7,1.6-.4,3.2-.9,4.7-.9,2.8,0,4.4,1.6,4.7,4.5.2,3.4-.9,5.4-1.8,7.1-.9,1.6-1.6,3.1-1.6,5.6s.1,5.7.3,9c.2,4.1.4,8.8.4,14.1s-1.1,8.3-2,10.2c-.6,1.2-.9,1.9-.9,3.6s-.4,2.7-.7,3.6c-.4,1.2-.6,1.7,0,2.9,2.2,4.6,2.6,6.6,1.7,8-.6.9-1.5,1.3-2.9,1.3h0c-1.1,0-2.3-.2-4-.5-1.1-.2-2.4-.4-3.7-.6-1.2-.2-3.8,0-6.8.1-3.1.1-6.7.3-9.5.2-2.7,0-4.8-.5-6.8-1-2.5-.5-5-1.1-8.9-1.1-7.3,0-21.6,2.1-23,2.6l-2.1.7c-2.3.7-5.6,1.7-8.2,2.4-2.2.5-6.2,1.3-8.5,1.3ZM206.2,58.9c-.1.7-.3,1.5-.3,1.9-.3,3.2.8,6.8,2,10.2,1,2.5.7,4.3.2,6.7-.3,1.9-.7,4.3-.8,8.2,0,3.1-.3,6.2-.5,9.1-.5,6-.9,11.7,0,17.4.6,3.4,1.3,5.6,1.8,7.4.9,2.8,1.5,4.7.4,8.1-.9,2.5-2.1,4.2-3.3,5.5,1.6-.2,3.5-.6,4.9-.9,2.5-.7,5.8-1.7,8-2.4l2.1-.6c2.1-.8,16.8-2.8,24-2.8s7.1.6,9.6,1.2c2,.4,3.9.9,6.2.9,2.8,0,6.2,0,9.2-.2,3.3-.1,6.1-.3,7.4,0,1.5.2,2.8.4,3.9.6,1.4.3,2.6.5,3.4.5h0c0-.5-.4-1.8-1.8-4.6-1.3-2.4-.7-4.1-.2-5.5.3-.8.5-1.5.5-2.5,0-2.4.6-3.7,1.2-5,.8-1.6,1.7-3.5,1.7-8.8s-.2-9.9-.4-14c-.1-3.3-.3-6.3-.3-9.1s1-5.3,2-7.1c.9-1.7,1.6-3,1.4-5.4-.1-1.4-.6-1.5-1.5-1.5s-2.5.4-3.9.8c-1.2.3-2.5.7-3.7.8-1.8.2-3.6-.1-6-.4-2.7-.3-5.7-.7-8.7-.7s-5.7.4-7.8,1.2c-2.6,1-5,1.4-7.2,1.4-3.3,0-6-1-8.8-2.1-.8-.3-1.6-.6-2.4-.9-3.9-1.5-11.7-2.7-17.9-3.6-2.7-.4-5.2-.8-6.9-1.1-5.2-1-6.3-1.3-8-2.4Z"/>
            <path d="M215.4,101.2c-.4,0-.8-.3-.8-.7-.4-4.3-1-5.3-2.5-8.1-.6-1.2-1.4-2.6-2.4-4.7-2.2-4.6-2.5-7.1-2.8-9.5-.2-1.4-.3-2.7-.8-4.5-.1-.4.1-.9.5-1,.4-.1.9.1,1,.5.6,1.9.7,3.3.9,4.7.3,2.4.5,4.7,2.6,9,1,2.1,1.8,3.5,2.4,4.6,1.5,2.8,2.2,4.1,2.7,8.7,0,.4-.3.8-.7.9,0,0,0,0,0,0Z"/>
            <path d="M253.9,82.2c-1.5,0-3.2-.2-5.5-.6-7.4-1.4-8.9-2.2-10.9-3.4-1.1-.6-2.3-1.3-4.8-2.3-.4-.2-.6-.6-.5-1,.2-.4.6-.6,1-.5,2.6,1,3.9,1.7,5,2.4,1.9,1.1,3.2,1.9,10.3,3.2,6.4,1.1,8.4.3,11.3-.7,2.1-.8,4.6-1.7,9.3-2.2.5,0,.8.3.9.7,0,.4-.3.8-.7.9-4.5.5-6.9,1.3-8.9,2.1-2,.7-3.7,1.4-6.6,1.4Z"/>
            <path d="M283.9,122.2c-.4,0-.7-.2-.8-.6-.3-.9-.5-1.8-.7-2.8-.8-3.7-1.8-8.3-7.4-15.5-.3-.4-.2-.9.1-1.1.4-.3.9-.2,1.1.1,5.8,7.5,6.8,12.3,7.7,16.1.2.9.4,1.8.7,2.7.1.4-.1.9-.5,1,0,0-.2,0-.2,0Z"/>
          </g>
        </g>
      </g>
    </g>
  </g>
</svg>