<?xml version="1.0" encoding="UTF-8"?>
<svg xmlns="http://www.w3.org/2000/svg" version="1.1" viewBox="0 0 554 482">
  <defs>
    <style>
      .cls-1 {
        fill: #fff;
        fill-rule: evenodd;
      }

      .cls-2 {
        fill: #141515;
      }
    </style>
  </defs>
  <!-- Generator: Adobe Illustrator 28.6.0, SVG Export Plug-In . SVG Version: 1.2.0 Build 709)  -->
  <g>
    <g id="Layer_1">
      <g>
        <g>
          <g>
            <path class="cls-1" d="M50.9,289.2c.5,1.3.6,1.5,1.1,2.4.6,1.1,1.6,3.4,2.1,4.5,1.8,4.4,1.5,4.2,5,7.4,3.6,3.2.8,5.3,6,9.4,1.6,1.3,3.1,2.3,4.7,3.7.2.3.5.5.8.8,2.7,2.1,4,.8,7.3,3.9,3.6,3.6,2.4,2.6,6.8,4.5,2.9,1.3,4,1.3,7.3,1.5,3.6,0,4.4,2.7,7.4,3.4.5.2,1.1.2,1.6.3.6,0,1.3.2,1.9.2,1.6.2,3.1-.3,4.7-.5,3.1-.3,4.5,1,7.4,1s3.4.3,5.2.5c4.7.6,4.4-1.8,8.4-2.4.3,0,.8-.2,1.1-.2,3.2-.5,4.5-1.9,7.1-3.4,1.1-.6,2.3-1.1,3.4-1.6,1.8-.8,2.7-1.1,4.5-2.3h.2l.3-.2c3.2-2.1,4.5-1.8,7.1-5,1.5-1.5,3.6-3.7,5.3-4.7,3.7-2.3,3.9-3.9,6.1-7.3.5-.5.8-1.1,1.1-1.8,1-1.8,1.9-3.4,2.6-5.5,1-3.2,1-3.4,2.9-6.3,1.9-2.9,2.3-6,3.6-9.2,1.1-2.6,2.3-4.4,1.6-7.3-.6-2.1-.5-2.6-.5-4.7-.2-2.7-.3-5.5-.3-8.2s0-1.1.3-2.3c.2-.5-.6-4.2-.8-4.8-.5-3.7-.8-4.8-2.1-8.4-1-2.4-.3-3.1-1.9-5.5-1-1.6-1.6-2.4-2.4-4.2-.5-1.1-1.1-2.1-1.8-3.2-.2-.3-.3-.5-.5-.8-1.5-2.1-2.9-2.6-4.4-4.7-1.9-3.1-1.6-3.2-4.5-5.7-1.3-1-1.8-1.6-2.7-2.7-.5-.6-1.8-1.8-2.6-2.4-.5-.6-1-1.1-1.3-1.6-1.9-2.3-3.9-3.2-6.6-4.2-.8-.5-1.5-.6-2.3-1-2.7-.5-4.7-.3-6.8-2.4-4.4-4.5-4.8,0-9.2-2.1-3.4-1.8-3.9-3.2-8.1-2.9-.8.2-1.5.2-2.4.2-2.1,0-3.9-.5-6.1-.3h-.8c-1.1.2-2.3.3-3.6.5-2.6.5-2.3.2-4.4,1.8-1.6,1.5-3.6,1.1-5.7,1-3.2-.2-5.2-.2-7.4,2.6-2.1,2.7-3.1,1.6-6,2.1-1.3.2-2.1,1-3.7,1.1-2.6.5-3.4.2-5.7,2.1l-.2.2c-2.6,2.1-3.1,3.9-4.7,6.3-.3.6-.6,1-1.1,1.6-2.3,2.3-5.5,5.8-6.9,8.6-1.3,3.2-1,3.6-3.6,6.1-1.5,1.3-1.8,1.9-2.4,3.9-1,3.1-1.5,6-2.4,9-1,3.4-2.1,5.3-2.6,9-.2,1-.2,1.9-.3,2.9v.3c-.5,4.8-.8,4.2.6,9,.6,2.4.8,2.6.3,5.2-.5,1.9.5,5.3,1,7.4.5,1.8,1.1,3.6,1.8,5.3h0Z"/>
            <path d="M121.6,332.8c-.5,0-1,0-1.5-.1-.6,0-1.2-.1-1.7-.2-1.1-.1-2.1-.3-3.3-.3s-2.4-.3-3.5-.5c-1.2-.3-2.3-.6-3.9-.4-.5,0-1.1.1-1.6.2-.8.1-1.6.3-2.5.3h0c-.2,0-.5,0-.7,0h0c-.3,0-.6,0-1,0-.3,0-.6,0-.9,0h-.2c-.2-.1-.5-.1-.7-.2-.3,0-.6,0-.9-.2-1.4-.3-2.4-1-3.3-1.7-1.1-.9-2.1-1.6-3.9-1.6h-.5c-2.9-.2-4.2-.2-7-1.5-.8-.4-1.5-.6-2-.8-2-.9-2.1-.9-4.4-3.2l-.6-.6c-1.7-1.6-2.8-1.9-4-2.3-1-.3-2-.6-3.2-1.6-.2-.2-.3-.2-.4-.3-.2-.2-.4-.3-.6-.6-1-.9-1.9-1.6-2.9-2.3-.6-.4-1.1-.8-1.7-1.3-3-2.3-3.5-4.1-3.9-5.7-.3-1.2-.6-2.3-2.1-3.7-3.3-3-3.4-3.2-4.7-6.4l-.5-1.2c-.5-1.1-1.4-3.3-2.1-4.4-.1-.3-.3-.5-.3-.7-.3-.5-.5-.9-.8-1.8-.6-1.8-1.3-3.6-1.8-5.4l-.2-.9c-.5-2.2-1.2-5-.8-6.8.4-2.2.3-2.5-.2-4.3l-.2-.6c-1.2-4-1.2-4.4-.9-7.3,0-.5.1-1.2.2-2v-.3c0-.6.1-1,.2-1.5,0-.5,0-1,.2-1.5.3-2.5.9-4.2,1.6-6,.3-1,.7-1.9,1-3.1.5-1.5.9-3,1.2-4.5.4-1.5.7-3,1.2-4.6.7-2.1,1.1-2.8,2.6-4.1,1.9-1.9,2.1-2.5,2.8-4.2.2-.5.4-1,.7-1.7,1.7-3.2,5.5-7.2,7.1-8.7,0-.1.2-.3.3-.4.3-.4.5-.6.7-1.1.5-.7.9-1.4,1.2-2,.9-1.5,1.7-3,3.6-4.5h.1c1.9-1.8,3-1.9,4.5-2.1.4,0,.9-.1,1.4-.2.8,0,1.4-.3,2-.6.5-.2,1.1-.5,1.8-.6.9-.1,1.6-.2,2.2-.2,1.4,0,2.1,0,3.4-1.7,2.4-2.9,4.5-3,7.9-2.8h.6c.6,0,1.2.1,1.7.1,1.3,0,2.2-.3,2.9-1,1.8-1.4,2-1.5,3.5-1.7.3,0,.7-.1,1.1-.2,1.3-.2,2.4-.3,3.6-.5h.9c.3,0,.6,0,.9,0,1,0,1.8,0,2.7.2.8,0,1.6.2,2.5.2s1.6,0,2.3-.2c.5,0,.9,0,1.2,0,2.4,0,3.6.8,5,1.7.6.4,1.3.9,2.2,1.3,1.4.7,2.6.6,3.7.2.5-.2,1-.3,1.6-.3,1.3,0,2.5.7,4,2.3,1.6,1.6,3,1.8,5,2,.5,0,1,.1,1.5.2.3.1.5.2.7.3.6.2,1.1.4,1.7.8,2.7,1,4.8,2,6.8,4.3.2.3.4.5.6.8.2.2.4.5.6.8.8.6,2.1,1.8,2.6,2.5l.3.4c.7.9,1.2,1.5,2.3,2.3,2.4,2,2.7,2.5,3.7,4.1.3.4.6,1,1,1.7.7,1,1.4,1.6,2.1,2.2.7.7,1.5,1.3,2.3,2.4.1.2.2.3.2.4,0,.1.2.3.3.5.2.3.3.6.5.8.5.8.9,1.6,1.3,2.4.6,1.2,1,1.9,1.6,2.9.2.4.5.8.8,1.3,1,1.5,1.2,2.4,1.4,3.4.1.6.2,1.3.6,2.2,1.3,3.6,1.6,4.8,2.1,8.5h0s1,4.3.8,5.1v.3q-.3.7-.3,1.8c0,2.7.2,5.5.3,8.2,0,.4,0,.8,0,1.1,0,1.3,0,1.9.5,3.5.6,2.7-.2,4.5-1.2,6.6-.2.3-.3.7-.5,1-.4,1.1-.8,2.2-1.1,3.3-.6,2.1-1.2,4-2.5,6-1.8,2.7-1.9,2.9-2.7,5.7v.4c-.7,1.9-1.5,3.3-2.4,4.9l-.4.7c-.3.7-.7,1.4-1.2,1.9-.5.7-.9,1.5-1.3,2.1-1.2,2-2,3.4-4.9,5.2-1.5.8-3.2,2.5-4.6,3.9l-.6.7c-1.8,2.2-3,2.8-4.5,3.6-.8.4-1.6.8-2.7,1.5l-.6.3c-1.3.8-2.2,1.2-3.4,1.7-.3.1-.7.3-1.1.5-1.1.5-2.2,1-3.3,1.6-.7.4-1.3.8-1.9,1.2-1.6,1-3,1.9-5.4,2.3-.2,0-.4,0-.5,0-.2,0-.5,0-.7,0-1.5.2-2.4.8-3.2,1.3-.9.6-1.9,1.2-3.8,1.2ZM108.5,330.1c1.3,0,2.3.3,3.3.5,1,.3,1.9.5,3.2.5s2.4.1,3.5.3c.6,0,1.1.2,1.7.2,2.5.3,3.4-.2,4.6-.9.9-.6,1.9-1.2,3.7-1.5.2,0,.4,0,.5,0,.2,0,.5,0,.7,0,2.1-.3,3.4-1.1,4.9-2.1.6-.4,1.2-.8,1.9-1.2,1.2-.7,2.3-1.2,3.4-1.6.4-.2.7-.3,1.1-.5,1.2-.5,2-.9,3.3-1.7h.1c0,0,.2,0,.2,0h.2c1.1-.8,1.9-1.2,2.7-1.6,1.5-.7,2.6-1.3,4.2-3.3l.7-.7c1.4-1.5,3.2-3.3,4.8-4.1,2.6-1.6,3.4-2.8,4.5-4.8.4-.7.8-1.4,1.4-2.3.5-.5.8-1.1,1.1-1.7l.4-.7c.8-1.5,1.6-2.9,2.1-4.7v-.4c1-2.9,1.1-3.2,3-6,1.2-1.8,1.8-3.7,2.3-5.7.3-1.1.7-2.3,1.1-3.4.2-.4.3-.7.5-1.1.9-2.1,1.6-3.6,1.1-5.9-.5-1.8-.5-2.4-.5-3.8,0-.3,0-.6,0-1-.2-2.7-.3-5.5-.3-8.2s0-1.3.3-2.1v-.3c.2-.5-.5-3.5-.7-4.5-.5-3.7-.8-4.8-2.1-8.3-.4-1-.5-1.7-.7-2.4-.2-.9-.3-1.6-1.2-3-.3-.5-.5-.9-.8-1.3-.6-.9-1.1-1.7-1.7-3-.4-.8-.8-1.5-1.2-2.3-.2-.3-.3-.6-.5-.9,0-.2-.2-.3-.2-.4,0-.1-.2-.3-.3-.5-.6-.9-1.3-1.5-2-2.2-.7-.7-1.5-1.3-2.3-2.4-.4-.7-.8-1.2-1-1.7-.9-1.6-1.2-2-3.4-3.8-1.2-.9-1.7-1.5-2.5-2.4l-.3-.4c-.4-.6-1.6-1.6-2.5-2.4h0c-.2-.4-.4-.6-.6-.9-.3-.3-.5-.6-.7-.9-1.8-2.1-3.6-3-6.3-4-.6-.4-1.1-.5-1.6-.7-.2,0-.4-.2-.7-.3-.4,0-.9-.1-1.4-.2-2-.3-3.8-.5-5.6-2.4-1.7-1.7-2.6-1.9-3.2-1.9s-.9.1-1.3.3c-1.2.3-2.8.5-4.5-.3-1-.5-1.7-1-2.3-1.4-1.7-1.1-2.6-1.7-5.5-1.5-.8.2-1.5.2-2.5.2s-1.8,0-2.6-.2c-1.1-.1-2.2-.2-3.5-.1h-.8c-1.1.2-2.2.3-3.5.5-.4,0-.8.1-1.1.2q-1.4.2-3,1.5c-1.2,1.1-2.6,1.2-3.7,1.2s-1.2,0-1.8-.1h-.6c-3-.2-4.8-.2-6.9,2.3-1.6,2.1-2.8,2.1-4.3,2.2-.6,0-1.2,0-2,.1-.5,0-1,.3-1.5.5-.6.3-1.3.6-2.3.7-.5.1-1,.2-1.4.2-1.5.2-2.3.3-3.9,1.7h-.1c-1.8,1.6-2.6,2.9-3.4,4.4-.4.6-.7,1.3-1.2,2-.2.5-.5.8-.8,1.2l-.4.5c-1.6,1.6-5.3,5.5-6.9,8.5-.2.6-.4,1.2-.6,1.6-.6,1.8-.9,2.5-3,4.6-1.4,1.2-1.7,1.8-2.3,3.6-.5,1.5-.8,3-1.2,4.5-.4,1.5-.7,3-1.2,4.6-.3,1.2-.7,2.2-1,3.1-.7,1.8-1.2,3.4-1.5,5.8,0,.5-.1,1-.2,1.4,0,.5,0,1-.2,1.5v.2c0,.9-.2,1.5-.2,2.1-.3,2.7-.3,2.9.8,6.8l.2.6c.5,2,.6,2.4.2,4.8-.4,1.6.3,4.3.7,6.3l.2.9c.5,1.7,1.1,3.5,1.8,5.3.3.9.5,1.2.8,1.7.1.2.2.4.3.7.6,1.1,1.6,3.3,2.1,4.5l.5,1.2c1.2,3.1,1.3,3.2,4.4,6,1.7,1.6,2.1,2.9,2.4,4.2.4,1.6.8,3,3.5,5.1.6.5,1.1.9,1.7,1.3,1,.7,2,1.5,3,2.4v.2c.2.1.3.2.5.3.1.1.3.2.4.3,1.1.8,1.9,1.1,2.8,1.3,1.2.4,2.5.7,4.4,2.5l.6.6q2.2,2.2,4,2.9c.5.2,1.2.5,2,.9,2.7,1.2,3.8,1.2,6.6,1.4h.4c2.1,0,3.4,1,4.6,1.9.9.7,1.7,1.3,2.9,1.6.3,0,.5.1.8.2.3,0,.6,0,.8.2.3,0,.6,0,1,0,.3,0,.6,0,.9,0,.3,0,.5,0,.7,0,.8,0,1.5-.1,2.3-.3.5,0,1.1-.2,1.7-.2.4,0,.7,0,1,0Z"/>
          </g>
          <g>
            <path class="cls-1" d="M58.2,267.4c0,1.8-.2,4.5.6,6.1,1.3,2.9,2.9,4,2.1,7.6-.6,2.1-.2,3.1.6,5.2,0,.3.2.5.3.8,1.1,3.2-2.7,3.1,2.4,7.6,1.6,1.5,2.6,2.1,3.7,3.9.8,1.3,1.5,2.3,2.4,3.4,1,1.3,1.5,2.3,2.1,3.6,1.3,2.1,3.4,1.9,5.3,3.2,2.6,1.6,2.3,1.6,5.3,2.4,2.4.6,2.6.6,4.4,2.6,1.9,1.6,4.7,1.9,6.9,2.9,1.6.5,3.7,1,5.5,1.5,1.3.3,1.5.3,2.7.5,1,.2,2.3,1,3.6,1.3,1.3.2,2.7.5,4,.6,2.6.2,3.1-.2,5.3-.8,3.6-1.1,5.5,1.3,9.5-.5,1.6-.6,3.2-1.3,5-1.9l.3-.2c1-.3,1.9-.3,2.9-.3,4.2,0,4-1.9,6.5-4.4,1.3-1.3,2.6-1.8,4-3.4,1.3-1.5,1.8-2.1,3.4-3.4,1.9-1.3,2.4-2.1,3.9-3.9.3-.3.5-.6,1-1,1.8-1.6,2.4-2.4,3.7-4.5,1.3-1.9,2.4-4.4,3.4-6.3,1.5-2.7,1.9-6.8,3.9-9.4,2.3-2.7,1.5-4,1.1-7.3-.2-3.1.5-5.3,0-8.4-.2-1.6-.2-2.6-.3-4.2-.2-1.1-.3-2.1-.8-3.1-1-2.1-4-5.7-3.6-8.1.5-1.8,1.1-1.5.3-3.7-.8-1.8-1.9-4.7-3.6-5.8-1.6-1.1-1.3-.8-2.6-2.4-1.5-2.1-1.9-3.7-3.9-5.7-1.1-1-1.6-1.8-2.4-2.9-1.1-1.8-2.1-2.6-3.7-3.7-1.3-1.1-4.5-3.6-6.1-4-1.9-.5-2.1-.5-3.9-1.6-1.9-1.3-3.1-2.6-5.5-2.7-1.9,0-2.7-.8-4.5-1.5-2.4-1.3-3.9-.5-6.5-1-2.1-.5-4-.6-6.3,0h-.3c-.8.3-1.9,0-3.2.3-2.1.5-2.3.8-4.5.5-1.5-.3-2.7,0-4.2.3h-.2c-1,.2-1.9.5-2.9,1-.2,0-.3.2-.6.3q-2.3,1.1-4.7,1.8c-3.7,1-7.7,3.4-10.2,6.3q-1.8,2.1-4.2,3.1c-1,.5-1.6,1-2.3,1.6-3.4,3.6-3.9,5.3-6.3,9.4-1,1.5-1.3,1.3-2.3,2.3-1,1.3-1.5,4-2.3,5.7-1.6,3.4-2.9,4.2-2.9,8.2s0,3.2-.8,5.3c-1,2.6-1,2.9-1,5.8v1h0Z"/>
            <path d="M111.5,321.1h0c-.4,0-.7,0-1.2,0-.7,0-1.4-.2-2.1-.3-.7-.1-1.3-.2-2-.3-.7-.2-1.4-.5-2-.7-.6-.3-1.1-.5-1.6-.6h-.4c-1-.2-1.2-.2-2.4-.5-.7-.2-1.5-.4-2.2-.6-1.2-.3-2.3-.6-3.3-.9-.8-.3-1.6-.6-2.4-.8-1.6-.5-3.4-1-4.7-2.2-1.7-1.8-1.8-1.8-3.9-2.4h-.2c-2.6-.7-2.8-.9-4.5-1.9l-1-.6c-.7-.5-1.4-.7-2.1-1-1.2-.5-2.5-.9-3.4-2.4-.7-1.3-1.1-2.3-2.1-3.5-.9-1.1-1.6-2.1-2.4-3.4-.9-1.4-1.6-2-2.7-3-.3-.2-.6-.5-.9-.8-3.3-2.9-3.2-4.1-2.7-5.6.2-.7.4-1.2,0-2.2h0c-.1-.3-.2-.6-.3-.9v-.3c-.9-1.9-1.3-3-.6-5.1.5-2.4-.1-3.5-1-5.2-.3-.6-.7-1.2-1-2-.7-1.5-.7-3.8-.7-5.6v-1.7c0-3,0-3.3,1-6,.8-2,.8-2.9.8-5.1s.7-4.4,1.8-6.2c.4-.6.8-1.3,1.2-2.2.3-.6.6-1.5.9-2.4.4-1.3.8-2.6,1.4-3.4.4-.4.7-.7,1-.9.4-.3.7-.5,1.3-1.4.6-1,1.1-1.9,1.6-2.7,1.3-2.3,2.2-4,4.8-6.7.7-.7,1.4-1.2,2.4-1.7q2.3-.9,4-2.9c2.4-2.9,6.5-5.5,10.5-6.5q2.4-.6,4.6-1.7c.1,0,.2-.1.3-.2.1,0,.3-.2.5-.2,1-.5,2-.8,3-1h.4c1.4-.4,2.9-.6,4.2-.3,1.5.2,2,.1,3.1-.2.3,0,.7-.2,1.2-.3,1.3-.3,2.5,0,3.1-.3h.2s.2,0,.2,0c2.1-.6,3.9-.6,6.5,0,.8.2,1.5.2,2.2.2h.6c1.2,0,2.4,0,3.9.9.5.2,1,.4,1.4.6.9.4,1.6.8,2.8.8,2.1.1,3.3,1,4.6,2,.4.3.8.6,1.2.8,1.6,1,1.8,1.1,3.4,1.5h.3c1.9.6,5.3,3.3,6.4,4.2,1.7,1.2,2.7,2,3.8,3.8l.3.5c.6.9,1.1,1.5,2,2.3,1.3,1.3,2,2.5,2.7,3.7.4.6.8,1.3,1.3,2l.3.3q.8,1,1.7,1.6l.5.4c1.6,1.1,2.6,3.5,3.4,5.3l.3.7c.6,1.7.5,2.2.1,3-.1.3-.3.6-.4,1.1-.3,1.4,1.1,3.7,2.2,5.5.5.8,1,1.6,1.3,2.2.5,1,.7,2,.9,3.2,0,.8.1,1.5.2,2.1,0,.6,0,1.3.2,2.1.3,1.8.2,3.4,0,4.9,0,1.1-.1,2.2,0,3.5,0,.6.1,1.1.2,1.6.3,2.2.5,3.6-1.5,6.1-1.1,1.4-1.7,3.4-2.3,5.2-.4,1.4-.9,2.8-1.5,4l-.4.9c-.9,1.8-1.9,3.8-3,5.5-1.3,2.2-2,3-3.8,4.6-.3.2-.5.4-.6.6-.1.1-.2.2-.3.4l-.6.7c-1,1.3-1.7,2.1-3.4,3.3-1.3,1-1.8,1.6-2.8,2.7l-.5.6c-.9.9-1.6,1.5-2.4,2.1-.6.4-1.1.8-1.7,1.4-.6.6-1.1,1.3-1.5,1.8-1.1,1.5-2,2.7-5.4,2.7s-1.8,0-2.7.3h-.3c-1.8.8-3.4,1.4-5,2.1-1.1.5-2.2.7-3.3.7s-1.6-.1-2.4-.3c-1.3-.2-2.6-.4-3.9,0l-1,.3c-1.2.4-2,.6-3.4.6ZM95.6,217.3c0,0,0,0,0,0-.1,0-.2.1-.4.2-2.3,1.2-2.3,1.2-4.8,1.8-3.7,1-7.6,3.4-9.9,6.1-1.8,2.2-1.9,2.2-4.4,3.2-.8.4-1.4.9-2.1,1.5-2.4,2.6-3.4,4.2-4.6,6.5-.5.8-1,1.7-1.6,2.8-.7,1-1.1,1.3-1.5,1.7-.2.2-.5.4-.8.7-.5.6-.8,1.8-1.2,3-.3.9-.6,1.8-.9,2.5-.4.9-.9,1.6-1.2,2.3-1,1.7-1.6,2.9-1.6,5.7s0,3.3-.8,5.5c-.9,2.5-.9,2.7-.9,5.6v1.7c0,1.6,0,3.8.6,5.1.3.8.7,1.4,1,1.9,1,1.7,1.8,3.2,1.1,6-.6,1.8-.2,2.6.5,4.4l.2.6c0,0,0,.1.1.3,0,0,0,.2.1.3.5,1.4.2,2.3,0,3-.4,1-.6,1.8,2.3,4.4.3.3.6.5.9.8,1.2,1,2,1.7,2.9,3.2.8,1.3,1.5,2.3,2.4,3.3,1,1.4,1.5,2.4,2.2,3.7.7,1.1,1.7,1.5,2.8,1.9.7.3,1.5.6,2.3,1.1l1,.6c1.5,1,1.7,1.1,4.2,1.7h.2c2.4.7,2.6.8,4.4,2.7,1.1.9,2.7,1.4,4.3,1.9.8.3,1.7.5,2.5.9.9.3,2,.6,3.2.8.8.2,1.5.4,2.3.6,1.1.3,1.3.3,2.3.4h.4c.6.1,1.2.4,1.9.7.6.3,1.2.5,1.8.7.6,0,1.3.2,2,.3.7.1,1.4.2,2,.3.4,0,.8,0,1.1,0,1.2,0,1.8-.2,3-.5l1-.3c1.5-.5,3.1-.3,4.5,0,1.7.3,3.3.4,5-.4,1.6-.7,3.3-1.3,5-1.9h.3c1.1-.5,2.2-.5,3.2-.5,2.8,0,3.4-.8,4.4-2.3.4-.6.9-1.2,1.6-1.9.6-.6,1.2-1,1.8-1.5.7-.5,1.4-1,2.2-1.9l.5-.6c1-1.1,1.5-1.7,3-2.9,1.6-1.1,2.2-1.8,3.2-3l.6-.8c.1-.1.2-.2.3-.3.2-.2.4-.5.8-.8,1.6-1.5,2.2-2.2,3.5-4.3,1.1-1.6,2.1-3.6,2.9-5.4l.4-.9c.6-1.1,1-2.4,1.5-3.8.6-2,1.3-4,2.5-5.6,1.7-2.1,1.5-3.1,1.2-5.2,0-.5-.2-1.1-.2-1.7,0-1.4,0-2.5,0-3.7.1-1.5.2-3,0-4.7,0-.8-.1-1.5-.2-2.2,0-.6,0-1.3-.2-2.1-.2-1.1-.3-2-.8-2.9-.3-.6-.7-1.3-1.2-2.1-1.3-2.1-2.8-4.4-2.4-6.3.2-.6.3-1,.5-1.3.3-.6.4-.8-.1-2.1l-.3-.7c-.7-1.7-1.8-4-3-4.9l-.5-.4c-1-.7-1-.7-1.9-1.8l-.3-.4c-.5-.8-.9-1.5-1.3-2.1-.7-1.2-1.3-2.3-2.5-3.5-1-.8-1.5-1.6-2.1-2.5l-.3-.5c-1.1-1.7-1.9-2.4-3.6-3.6-1.4-1.2-4.5-3.5-6-4h-.3c-1.7-.5-2-.6-3.7-1.7-.5-.3-.9-.6-1.2-.9-1.3-.9-2.3-1.7-4-1.8h0c-1.4,0-2.3-.4-3.3-.9-.4-.2-.9-.4-1.4-.6-1.3-.7-2.3-.8-3.4-.8h-.6c-.7,0-1.5,0-2.4-.2-2.5-.6-4.1-.6-6,0h-.4c-.9.3-2,0-3.2.3-.5.1-.9.2-1.2.3-1.1.3-1.7.5-3.6.2-1.3-.3-2.4,0-3.8.3h-.5c-.8.2-1.7.5-2.7,1h-.3Z"/>
          </g>
          <g>
            <path class="cls-1" d="M72.9,291.5c1.1,1.8,1.1,3.6,1.9,5.3.6,1.5,1.6,1.5,2.9,2.3,1.6.8,2.7,1,4.4,1.6,1.3.6,1.8,1.5,2.9,2.6.6.5,1.1.8,1.6,1.5,1.6,2.1.8,1.1,2.9,2.6,2.9,1.9,2.3,3.1,6.3,4.5,2.3.8,3.4,1.3,5.7.8,1.5-.5,3.1-.3,4.5-.2,1.9,0,3.4-.6,5.3-.6,1.8.2,2.3.2,3.7,1.3,1.5.8,3.6-.3,5-.8,2.6-1,4-1.5,6.6-1.6,7.1-.6,4.5-4.7,8.7-6.1,1.8-.6,2.4-.5,4-1.8,1.8-1.1,2.9-.6,3.9-2.9.6-1.9,3.2-4,4.8-5.2,1.1-.8,1.5-1.9,1.9-3.2.8-2.6,1.1-2.7,3.2-4.5,1.9-1.6,1.9-4.4,2.1-6.6.3-3.1.6-6.1,1-9v-1.3c.2-1.8.3-1.6,0-3.4-.2-1.5.2-2.1,0-3.6-.2-1.5-.2-1.6,0-3.2.2-2.3-1.3-3.6-1.8-5.8-.2-.6-.3-1.3-.5-1.9-.6-4.2-2.9-5.3-4.4-8.9-.8-2.1-1.1-2.7-2.9-4.5-1-.8-2.6-2.1-3.1-3.2-.2-.2-.2-.5-.3-.6-.6-1.5-4-3.2-5.3-4.7-1.1-1.3-2.1-1.8-3.7-2.4-2.6-1.1-8.2-2.7-10-4.5-1.3-1.3-1.5-1.5-3.4-1.1-2.4.5-3.6.5-6,.3-.8-.2-1.5-.2-2.3-.2h-1.5c-2.3,0-4.4-.3-6.5.3-1.5.3-2.6.8-3.9,1.3-2.3.6-2.7,0-4,.3-1,.2-1.9,1.5-3.2,1.9-2.1,1.1-2.9,1.5-5.3,1.9-1,.3-3.4.8-4,1.3-1,.5-1.6,2.3-2.6,3.2-.6.8-1.5,1.6-2.1,2.4l-.2.2c-3.4,3.9-4.2,4-6.3,9-.8,1.8-1.1,2.6-2.3,4-1.6,2.1-1.8,2.6-2.6,5.2-.2.3-.3.8-.5,1.1-1.1,3.7-2.3,4.7-1,8.7,1.3,4.4-1.5,6.1-1,8.9.3,1.1.6,1.9.8,3.1.3,2.4.8,4.8,1.9,6.9,1.8,3.1,2.1,2.9,3.1,6.5.3,1.1.5,1.8,1.1,2.9h0Z"/>
            <path d="M116.2,313.9c-.5,0-1-.1-1.5-.4-1.3-1-1.7-1.1-3.3-1.2h-.2c-.9,0-1.7.1-2.5.3-.9.2-1.7.3-2.8.3-1.7-.2-3.2-.2-4.3.1-2.4.5-3.6,0-5.6-.7h-.4c-2.6-1.1-3.4-1.9-4.2-2.8-.5-.6-1.1-1.2-2.2-1.9-.6-.4-1-.6-1.2-.8-.6-.4-.7-.4-1.5-1.6l-.3-.4c-.4-.5-.8-.8-1.3-1.2l-.2-.2c-.4-.4-.6-.7-.9-.9-.6-.7-1.1-1.2-1.9-1.6-.6-.2-1.2-.4-1.7-.6-.9-.3-1.7-.5-2.7-1-.4-.2-.7-.4-1-.5-.8-.4-1.6-.8-2.1-2-.4-.8-.6-1.6-.8-2.3-.3-1-.5-2-1.1-3-.6-1.1-.8-1.8-1.1-2.8v-.2c-.8-2.6-1.1-3.1-2-4.5-.3-.5-.7-1.1-1.1-1.8-1.2-2.3-1.7-4.9-2-7.2-.1-.8-.3-1.4-.5-2.1,0-.3-.2-.6-.3-.9-.2-1.4.2-2.4.6-3.5.5-1.5,1.1-3,.4-5.3-1.1-3.3-.5-4.8.3-7,.2-.6.5-1.3.7-2.1.1-.2.2-.4.3-.6,0-.2.2-.4.3-.6.8-2.5.9-3.1,2.6-5.3,1-1.3,1.3-2,2-3.5l.2-.4c1.7-4,2.6-5,4.6-7.2.5-.6,1.1-1.2,1.8-2l.2-.2c.3-.4.7-.8,1-1.2.4-.4.7-.8,1-1.2.4-.4.7-.9,1.1-1.5.5-.8,1-1.6,1.7-1.9.4-.3,1.4-.6,2.9-1,.5-.1.9-.2,1.2-.3,2.5-.5,3.2-.8,5.2-1.9.6-.2,1.1-.6,1.6-1,.6-.5,1.2-.9,1.8-1,.4-.1,1-.1,1.5,0,.7,0,1.5,0,2.4-.2l.6-.2c1.1-.4,2-.8,3.3-1.1,1.2-.4,2.4-.4,3.3-.4s1.1,0,1.6,0c.6,0,1.1,0,1.7,0h1.5c.8,0,1.5,0,2.4.2,2.2.1,3.4.2,5.8-.3.7-.1,1.1-.2,1.4-.2,1.1,0,1.6.5,2.5,1.4,1.2,1.2,4.4,2.4,7,3.3,1.1.4,2.1.8,2.9,1.1,1.5.6,2.7,1.1,3.9,2.6.5.6,1.4,1.2,2.3,1.9,1.4,1,2.6,1.9,3.1,2.9.1.2.2.3.2.5h0c0,0,0,.3,0,.3.4.9,1.8,2.1,2.7,2.9l.2.2c1.8,1.8,2.2,2.5,3.1,4.8.6,1.3,1.2,2.3,1.9,3.3,1.1,1.6,2.1,3,2.5,5.7l.5,1.9c.2.9.5,1.6.9,2.3.5,1.1,1,2.2.9,3.7-.2,1.6-.2,1.7,0,3.1,0,.8,0,1.3,0,1.9,0,.5,0,1,0,1.7.2,1.3.2,1.6.1,2.5,0,.3,0,.6-.1,1v1.2c-.3,3-.6,6-1,9.1v.6c-.2,2.1-.3,4.8-2.3,6.4l-.3.3c-1.8,1.5-2,1.7-2.7,4l-.2.4c-.4,1.2-.8,2.3-2,3.1-.9.6-4,2.9-4.6,4.9-.8,1.8-1.7,2.1-2.6,2.5-.5.2-.9.4-1.5.7-1.2.9-1.9,1.2-2.9,1.4-.4.1-.8.2-1.3.4-1.5.5-2,1.4-2.6,2.5-.8,1.5-1.8,3.3-6.3,3.7-2.5.2-3.8.6-6.5,1.6-.3,0-.6.2-.9.3-1,.4-2.1.8-3.1.8ZM111.3,311.2h.3c1.7.2,2.3.2,3.8,1.4.2,0,.5.2.8.2.8,0,1.8-.4,2.7-.7.3-.1.6-.2.9-.3,2.5-.9,4-1.5,6.8-1.6,3.8-.4,4.6-1.7,5.4-3.1.6-1.1,1.3-2.3,3.2-3,.5-.2,1-.3,1.3-.4.9-.3,1.5-.4,2.5-1.3.7-.4,1.2-.7,1.7-.8.9-.4,1.4-.6,2-1.9.7-2.2,3.8-4.5,5-5.4.9-.6,1.2-1.5,1.6-2.6v-.4c.9-2.5,1.3-2.9,3.2-4.5l.3-.3c1.6-1.3,1.7-3.6,1.9-5.6v-.6c.4-3.1.7-6.2,1-9.1v-1.2c0-.5,0-.8.1-1.1,0-.8.1-.9-.1-2.2,0-.8,0-1.4,0-1.9,0-.5,0-1,0-1.7-.2-1.5-.2-1.7,0-3.3,0-1.2-.3-2.1-.8-3.1-.4-.8-.7-1.6-.9-2.5l-.5-1.9c-.4-2.4-1.3-3.7-2.3-5.3-.7-1-1.4-2.1-2-3.5-.8-2-1-2.6-2.8-4.3h-.2c-1-1-2.5-2.2-3-3.3-.1-.2-.2-.3-.2-.4h0c0,0,0-.3,0-.3-.3-.7-1.6-1.7-2.8-2.5-1-.7-1.9-1.4-2.5-2-1-1.2-1.9-1.6-3.5-2.3-.7-.3-1.7-.7-2.8-1.1-2.8-1-6.1-2.2-7.4-3.6-.9-.9-1.1-1.1-1.7-1.1s-.6,0-1.2.1c-2.4.5-3.6.5-6.1.3-.8-.2-1.4-.2-2.2-.2h-1.5c-.6,0-1.2,0-1.7,0-.5,0-1.1,0-1.6,0-1.2,0-2.1.1-3,.4-1.2.3-2.2.6-3.2,1l-.7.3c-1.2.4-2.1.4-2.9.3-.4,0-.8,0-1.2,0-.4,0-.9.4-1.3.8-.5.4-1.1.9-1.8,1.1-2,1.1-2.9,1.5-5.4,2-.3,0-.7.2-1.2.3-.9.2-2.2.6-2.6.8-.5.3-.9.9-1.3,1.6-.4.6-.7,1.1-1.2,1.6-.3.4-.7.8-1,1.2-.4.4-.7.8-1,1.2l-.2.2c-.7.8-1.3,1.4-1.8,2-1.9,2.1-2.7,3-4.4,6.9l-.2.4c-.7,1.5-1.1,2.3-2.1,3.7-1.6,2-1.7,2.5-2.5,5-.1.2-.2.4-.3.6,0,.2-.2.4-.3.6-.2.7-.5,1.4-.7,2.1-.8,2.1-1.2,3.3-.2,6.2.8,2.7.1,4.6-.4,6.1-.4,1-.7,1.9-.5,2.9,0,.3.2.5.3.8.2.7.4,1.4.6,2.3.3,2.1.7,4.6,1.9,6.8.4.8.8,1.3,1.1,1.8.9,1.4,1.3,2.1,2,4.8v.2c.3,1,.5,1.6,1.1,2.6.7,1.1,1,2.2,1.3,3.2.2.7.4,1.4.7,2.1.4.8.8,1.1,1.6,1.4.3.2.7.3,1.1.6.9.4,1.6.7,2.5.9.6.2,1.2.4,1.8.6,1.1.5,1.7,1.2,2.3,1.9.2.3.5.5.8.8h.1c.6.5,1.1.9,1.5,1.5l.3.3q.8,1,1.2,1.3c.3.2.6.4,1.3.8,1.2.8,1.8,1.5,2.4,2,.8.9,1.5,1.6,3.8,2.4h.4c1.4.6,2.3,1,3.4,1h0c.5,0,1,0,1.5-.2,1.2-.4,3-.4,4.7-.2.9,0,1.7-.2,2.5-.3.9-.2,1.8-.3,2.8-.3Z"/>
          </g>
        </g>
        <path class="cls-1" d="M314.1,31.9c-61.7,0-116.9,26-156,67.6l10.5,3.2c37-37.6,88.5-61,145.5-61s105.4,22.1,142.1,57.8l10.7-3.2c-38.7-39.6-93-64.4-152.7-64.4h0Z"/>
        <g>
          <path class="cls-1" d="M314.1,449.7c112.4,0,203.9-91.5,203.9-203.9S426.4,41.7,314.1,41.7,110,133.4,110,245.8s91.7,203.9,204.1,203.9h0Z"/>
          <path d="M314.1,451.3c-113.4,0-205.7-92.2-205.7-205.5S200.7,40.1,314.1,40.1s205.5,92.3,205.5,205.7-92.2,205.5-205.5,205.5ZM314.1,43.3c-111.6,0-202.4,90.8-202.4,202.5s90.8,202.3,202.4,202.3,202.3-90.7,202.3-202.3S425.6,43.3,314.1,43.3Z"/>
        </g>
        <path d="M314.1,419.5c-95.9,0-173.9-77.9-173.9-173.7s78-173.9,173.9-173.9,173.7,78,173.7,173.9-77.9,173.7-173.7,173.7ZM314.1,75.1c-94.1,0-170.6,76.6-170.6,170.6s76.6,170.5,170.6,170.5,170.5-76.5,170.5-170.5-76.5-170.6-170.5-170.6Z"/>
        <path d="M159.1,100.6l-2.4-2.2c40.9-44,96.8-68.2,157.3-68.2s112.9,23,153.9,64.9l-2.3,2.3c-40.4-41.2-94.2-63.9-151.6-63.9s-114.6,23.8-154.9,67.1Z"/>
        <g>
          <polygon class="cls-1" points="157.9 99.5 168.6 102.7 177 141.3 146.8 128.9 157.9 99.5"/>
          <path d="M177,142.9c-.2,0-.4,0-.6-.1l-30.2-12.4c-.8-.3-1.2-1.2-.9-2.1l11.1-29.4c.3-.8,1.2-1.2,2-1l10.7,3.2c.6.2,1,.6,1.1,1.2l8.4,38.6c.1.6,0,1.2-.5,1.6-.3.2-.7.4-1,.4ZM148.9,128l25.9,10.7-7.5-34.7-8.3-2.5-10.1,26.5Z"/>
        </g>
        <g>
          <polygon class="cls-1" points="466.8 96.3 456.1 99.5 448.2 137.9 478.6 125.3 466.8 96.3"/>
          <path d="M448.2,139.5c-.4,0-.7-.1-1-.4-.5-.4-.7-1-.6-1.6l7.9-38.4c.1-.6.5-1,1.1-1.2l10.7-3.2c.8-.2,1.7.2,2,.9l11.8,29.1c.3.8,0,1.8-.9,2.1l-30.4,12.6c-.2,0-.4.1-.6.1ZM457.5,100.8l-7.1,34.5,26.1-10.8-10.6-26.2-8.3,2.5Z"/>
        </g>
        <g>
          <g>
            <path class="cls-1" d="M182,127c3.9,8.6,7.1,11,14.7,14.9,4,1.9,6.3.6,8.1,1.6,2.3,1,1.5,3.1,7.4,4,3.7.6,6.3.3,10-.3,1.3-.3,2.6-.6,3.9-1,4.8-1.6,7.1-5,11.3-7.1,2.3-1.3,4-3.7,6-5.5,6.3-5.7,9.7-7.6,11.3-17.4.2-1.3.3-2.6.3-4,0-5.2-2.4-17.1-8.6-17.6-3.7-.3-3.9.3-4.2-4-.5-5.2-2.9-5.5-6.9-7.7-6.3-3.6-9.7-4.4-16.6-4-6.8.3-15,2.3-20.2,6.8-3.1,2.7-3.4,7.1-4.7,7.9-1.9,1.5-4.8-2.6-8.4,4-5,9.5-7.7,17.6-3.4,29.5h0Z"/>
            <path d="M216.1,149.4c-1.3,0-2.7-.1-4.2-.4-4.1-.7-5.5-1.9-6.7-3.2-.4-.5-.6-.7-1.1-.9-.5-.3-1-.3-1.9-.3-1.5,0-3.5,0-6.2-1.3-7.6-3.9-11.3-6.5-15.5-15.6-4.4-12.1-2.1-20.5,3.4-31,1.8-3.3,3.7-4.8,6.2-4.8s1.1,0,1.6.2c.3,0,.6.1.8.1.4-.3.7-1.1,1-1.8.7-1.8,1.7-4.2,3.7-6.1,6.8-5.9,17.1-7,21.2-7.2,7.3-.3,10.8.5,17.5,4.2.6.3,1.2.6,1.7.9,3.1,1.6,5.5,2.9,6,8.1,0,.7.2,2.2.3,2.5,0-.1.6,0,1.1,0h1.3c7.7.7,10,14.4,10,19.3s-.2,2.9-.3,4.2c-1.5,9.4-4.7,12.2-9.9,16.7l-1.9,1.7c-.6.6-1.2,1.2-1.8,1.8-1.3,1.4-2.7,2.9-4.4,3.8-1.7.9-3,1.9-4.5,3-2,1.6-4.1,3.2-7.1,4.2l-4,1c-2.7.5-4.5.7-6.5.7ZM190.2,95.1c-.5,0-1.7,0-3.4,3.1-5.2,9.9-7.3,17.3-3.3,28.2,3.7,8.1,6.8,10.3,13.9,14,2,1,3.5,1,4.8,1,1.1,0,2.2,0,3.3.6,1,.4,1.6,1.1,2.1,1.7.7.8,1.5,1.7,4.8,2.2,3.3.6,5.5.4,9.5-.3l3.8-.9c2.4-.8,4.2-2.2,6-3.7,1.5-1.2,3-2.4,4.9-3.3,1.2-.7,2.4-2,3.6-3.2.7-.7,1.3-1.4,2-2l2-1.8c5-4.4,7.5-6.6,8.8-14.8.1-1.2.3-2.4.3-3.8,0-5.2-2.5-15.6-7.1-16h-1.3c-3.6-.3-4.1-1.4-4.4-5.5-.3-3.4-1.4-4-4.3-5.5-.6-.3-1.2-.6-1.8-1-6.2-3.5-9.2-4.1-15.8-3.8-7.9.4-15.1,2.8-19.2,6.4-1.5,1.3-2.3,3.3-2.9,4.8-.6,1.5-1,2.6-2,3.2-.7.6-2,.7-3.3.5-.3,0-.7-.1-1.1-.1Z"/>
          </g>
          <path d="M229,97.4c-.3,0-.7-.2-.8-.6-.1-.4,0-.9.5-1,8.9-2.9,11.8-2.7,14.2-2.5h.6c.4,0,.8.5.8.9,0,.4-.5.7-.9.8h-.6c-2.4-.2-5-.4-13.6,2.4,0,0-.2,0-.2,0Z"/>
          <path d="M211.7,98.9c-.3,0-.6-.2-.8-.5-.2-.4,0-.9.5-1,9.1-3.4,9.9-4.1,10.7-4.9.7-.7,1.5-1.4,5.9-3.3.4-.2.9,0,1.1.4.2.4,0,.9-.4,1.1-4.1,1.8-4.8,2.5-5.4,3-1,.9-1.8,1.7-11.3,5.2,0,0-.2,0-.3,0Z"/>
          <path d="M198,95.1c-3.1,0-4.6-1-4.7-1.1-.4-.3-.5-.8-.2-1.1.3-.4.8-.5,1.1-.2,0,0,2.2,1.4,6.7.5.5-.1.9.2.9.6,0,.4-.2.9-.6,1-1.2.2-2.3.3-3.2.3Z"/>
          <path d="M205.6,144.7c-.3,0-.6-.2-.7-.5,0,0-4.2-8.6-6.4-12-2.1-3.7-2.7-4.7-5.6-6.9-.4-.3-.4-.8-.2-1.1.3-.4.8-.4,1.1-.2,3.2,2.4,3.9,3.6,6,7.4,2.2,3.5,6.3,11.8,6.5,12.1.2.4,0,.9-.4,1.1-.1,0-.2,0-.4,0Z"/>
          <path d="M208.6,131.5c-.3,0-.5-.1-.7-.3-.9-1.2-1.6-2.4-2.3-3.4-2.7-4.2-4.7-7.2-11.1-12.1-6.7-5-7.2-6.3-8-8.5-.2-.5-.4-1.1-.8-1.8-.2-.4,0-.9.4-1.1.4-.2.9,0,1.1.4.4.8.6,1.4.8,2,.7,1.9,1.2,3,7.5,7.7,6.6,5,8.7,8.1,11.5,12.5.7,1,1.4,2.1,2.3,3.4.3.4.2.9-.2,1.1-.1.1-.3.1-.5.1Z"/>
          <path d="M221.9,119.6h0c-1.3,0-2.7-.5-3.9-1.5-2-1.6-3.8-3.5-3-6.8.4-1.2.8-1.8,1.7-2.5.8-.8,1.9-1.3,2.9-1.3s7.5.7,7.9,3.8c.2,1.4-.7,4.3-1.2,5.3-.8,1.9-2.4,3.1-4.4,3.1ZM219.6,109c-.6,0-1.3.3-1.9.9-.7.6-1,1-1.3,1.8-.5,2.2.5,3.6,2.5,5.1.9.8,2,1.2,2.9,1.2h0c1.3,0,2.4-.8,2.9-2.1.5-1,1.2-3.5,1.1-4.4-.2-1.5-4.5-2.4-6.3-2.4Z"/>
          <path d="M226.7,112.1c-.3,0-.6-.2-.7-.5-.2-.4,0-.9.4-1.1,2.7-1.3,3.4-3.1,4.3-5.6.5-1.4,1.1-3,2.2-4.8.2-.4.7-.5,1.1-.3.4.2.5.7.3,1.1-1,1.6-1.5,3.1-2,4.5-1,2.6-1.8,4.9-5.1,6.5-.1,0-.2,0-.4,0Z"/>
          <path d="M209.4,126.6c-.2,0-.4,0-.6-.3-.3-.3-.3-.8,0-1.1,1.5-1.5,3-2.3,4.2-3,2.1-1.2,3.6-2,4.6-5.1.1-.4.6-.7,1-.5s.7.6.5,1c-1.2,3.6-3.2,4.8-5.3,6-1.3.7-2.5,1.4-3.9,2.7-.2.2-.4.2-.6.2Z"/>
          <path d="M217.2,110.2c-.3,0-.6-.2-.7-.5,0-.2-1.9-4.2-7.9-6-.4-.1-.7-.6-.5-1,.1-.4.6-.7,1-.5,6.7,2,8.8,6.7,8.9,6.9.2.4,0,.9-.4,1.1-.1,0-.2,0-.3,0Z"/>
          <path d="M226.2,128.9c-.2,0-.4,0-.6-.2-.3-.3-.3-.8,0-1.1,1.6-1.6,1.1-6.5-1.6-9.4-.3-.3-.3-.8,0-1.1.3-.3.8-.3,1.1,0,3.2,3.4,4,9.2,1.6,11.6-.2.2-.4.2-.6.2Z"/>
        </g>
        <g>
          <g>
            <path class="cls-1" d="M337.3,76.1c.6,2.7-1.5,3.4.5,8.4,2.1,5.7,2.7,8.6,1.1,14.9l-.3.8c-3.6,12.4-15,12.6-23.6,15.2-4.5,1.3-2.1-3.6-6.8.3-3.4,2.9-7.3,2.3-11.1,2.3-5.7.2-8.1,0-13.4-2.3-4.2-1.8-7.9-1.1-11-5.7-2.6-3.6-5-3.6-6.8-6.3-2.7-5.2-3.1-14.4-.5-19.7,2.6-5.5,6.1-4,6.9-6.1,1.1-2.7.6-2.7,2.6-5.3,1.8-2.6,5.3-7.1,8.1-7.1s2.3.2,3.4-2.4c1.8-3.9,12.9-5,16-4.7,3.9.3,4.7,0,8.4-.5,5.7-.5,4.8,3.2,9.8,4.8,4.5,1.5,6.3,1.9,10.2,5.3,2.6,2.4,5.2,4.2,6.5,8.1h0Z"/>
            <path d="M300.7,119.6c-.6,0-1.2,0-1.8,0-.6,0-1.2,0-1.7,0-5.9.2-8.8-.2-14-2.4-1.2-.5-2.3-.8-3.4-1.1-2.8-.7-5.8-1.5-8.2-5.2-1.2-1.6-2.2-2.3-3.4-3.1-1.2-.8-2.4-1.6-3.4-3.2-3.1-5.9-3.4-15.6-.6-21.3,1.9-3.9,4.3-4.9,5.9-5.5.5-.2,1-.4,1-.5.4-.8.5-1.4.7-1.9.4-1.3.7-2,2.1-3.9,2.4-3.5,6-7.7,9.4-7.7h.5c.3,0,.6,0,.8,0,0-.1.1-.3.2-.5l.4-.9c2.1-4.7,12.7-5.7,16.2-5.7s1,0,1.4,0c2.8.2,3.9.1,6.2-.2l1.9-.3c.5,0,.8,0,1.2,0,3.2,0,4.6,1.4,5.9,2.6.9.9,1.8,1.8,3.5,2.3l.5.2c4.2,1.3,6.3,2,10.2,5.5l1.3,1.2c2.2,1.9,4.4,4,5.6,7.6.4,1.6.2,2.6,0,3.5-.3,1.1-.5,2.2.5,4.8,2.2,5.8,2.9,9.1,1.2,15.8l-.4,1c-3.1,10.9-12,13-19.8,14.9-1.6.4-3.2.8-4.8,1.2-2.8.8-4.2-.4-4.8-1-.2.1-.7.4-1.4,1.1-2.8,2.4-5.8,2.7-8.6,2.7ZM297.1,116.3c.6,0,1.2,0,1.8,0,3.2,0,6,0,8.3-1.9,1.7-1.4,2.7-1.9,3.7-1.9s1.8.7,2.1,1.1c.5.5.3.5,1.5.2,1.6-.5,3.2-.9,4.9-1.3,7.3-1.7,14.9-3.5,17.5-12.8l.4-1c1.5-5.7.8-8.3-1.2-13.7-1.3-3.5-1-5.2-.6-6.7.2-.7.3-1.2.1-1.9-.9-2.7-2.7-4.3-4.7-6.1l-1.3-1.2c-3.4-3-5-3.5-9.1-4.8l-.5-.2c-2.5-.8-3.8-2.1-4.8-3.1-1.3-1.3-2-1.9-4.4-1.7l-1.8.2c-2.3.3-3.5.5-6.9.2-.3,0-.7,0-1.1,0-5.2,0-12.3,1.7-13.3,3.8l-.4.8c-.8,2-1.4,2.5-3.7,2.5h-.8c-1.2,0-3.7,2-6.7,6.4-1.2,1.6-1.3,2-1.7,3-.2.5-.4,1.1-.8,2-.6,1.4-1.8,1.9-2.9,2.3-1.3.5-2.8,1.1-4.1,3.9-2.3,4.8-2.1,13.5.4,18.3.6.9,1.4,1.5,2.4,2.2,1.2.8,2.7,1.9,4.2,3.9,1.8,2.7,3.7,3.2,6.4,3.9,1.2.3,2.5.7,3.9,1.2,5.4,2.3,7.6,2.3,12.7,2.1h0Z"/>
          </g>
          <path d="M272.4,86.3c-.4,0-.7-.2-.8-.6-.5-1.9-.5-6.8-.5-7,0-.4.4-.8.8-.8s.8.4.8.8c0,1.4,0,5.2.5,6.6.1.4-.1.9-.6,1,0,0-.1,0-.2,0Z"/>
          <path d="M290.7,67.9c-.2,0-.3,0-.5-.1-1.2-.8-4.8-1.3-6.1-1.5-.4,0-.8-.4-.7-.9,0-.4.5-.8.9-.7.5,0,5.1.5,6.8,1.8.4.3.5.8.2,1.1-.2.2-.4.3-.7.3Z"/>
          <path d="M309.5,115.5c-.3,0-.5-.1-.7-.4-.2-.4-.1-.9.2-1.1.9-.6,1.5-1.5,2.1-2.5,1.5-2.4,3.3-5.3,10-6.6.4,0,.9.2.9.6,0,.4-.2.9-.6.9-6,1.1-7.5,3.6-8.9,5.9-.7,1.2-1.4,2.3-2.6,3.1-.1,0-.3.1-.4.1Z"/>
          <path d="M283.2,108.2c-.1,0-.2,0-.3,0-8.4-3.3-9-5.2-9.5-9-.2-1.6-.5-3.5-1.8-6.1-.2-.4,0-.9.4-1.1.4-.2.9,0,1.1.4,1.4,2.9,1.7,4.9,1.9,6.6.4,3.1.6,4.6,8.5,7.7.4.2.6.6.5,1-.1.3-.4.5-.8.5Z"/>
          <path d="M302.3,92.7c-.8,0-1.5-.3-2.7-.9l-.3-.2c-2.2-1.1-2.5-2-3.1-3.8v-.3c-.4-1.5-.3-2.8.4-3.6,1.1-1.4,3.2-1.6,4.9-1.6,2.5,0,3.9,1.4,5.2,3.1,1.2,1.5,1.6,2.7,1.3,3.8-.3,1.2-1.4,2.1-3.3,2.7h-.3c-.9.5-1.5.7-2.2.7ZM301.6,84c-2,0-3.2.3-3.7.9-.4.5-.4,1.2-.2,2.3.6,1.9.7,2.2,2.3,3l.3.2c2.2,1.1,2,.9,3.6.2h.3c1.3-.6,2.1-1.2,2.3-1.8.2-.6-.2-1.4-1-2.4-1.3-1.7-2.2-2.5-3.9-2.5Z"/>
          <path d="M297.9,84.7s0,0-.1,0c-.2,0-4.3-.6-7.5-5.5-.2-.4-.1-.9.2-1.1.4-.2.9-.1,1.1.2,2.8,4.3,6.2,4.8,6.4,4.8.4,0,.8.5.7.9,0,.4-.4.7-.8.7Z"/>
          <path d="M307.3,90c-.4,0-.7-.3-.8-.7,0-.4.2-.9.6-.9.3,0,7.3-1.5,11-1.3.4,0,.8.4.8.8,0,.4-.4.8-.8.8-.1,0-.4,0-.6,0-3.6,0-10,1.3-10.1,1.3,0,0-.1,0-.2,0Z"/>
          <path d="M304.2,84.8c-.1,0-.2,0-.3,0-.4-.2-.6-.6-.4-1.1.1-.3,3-6.8,12.7-10.4.4-.2.9,0,1,.5.2.4,0,.9-.5,1-9.1,3.4-11.8,9.5-11.8,9.6-.1.3-.4.5-.7.5Z"/>
          <path d="M291.3,97.6h0c-.4,0-.8-.4-.8-.8.2-5.6,6.5-8.2,6.8-8.3.4-.2.9,0,1,.5.2.4,0,.9-.5,1,0,0-5.6,2.3-5.8,6.9,0,.4-.4.8-.8.8Z"/>
        </g>
        <g>
          <path d="M332,88.7c-.2,0-.4,0-.5-.2-.4-.3-.4-.8-.1-1.1,1.1-1.4,4.9-6.9,5-6.9.3-.4.8-.5,1.1-.2.4.3.5.8.2,1.1-.2.2-3.9,5.5-5,7-.2.2-.4.3-.6.3Z"/>
          <g>
            <path class="cls-1" d="M380.1,121.1c-6.3,3.4-11.9,1.3-18.9,2.1-3.7.3-3.4-1-4.8-1.1-1.1,0-2.1,2.3-6.6,1.9-4.8-.5-19.7-1.6-20.2-7.9-.2-3.1,1.1-1.8-1.5-3.9-.8-.6-4.2-4.7-4.7-5.3-2.4-3.6-3.2-7.9-2.7-12.1v-.5c.5-3.4,1.6-6.1,4-8.6,3.2-3.2-3.4-3.4,2.3-11.1,2.3-3.2,4.8-6.8,8.4-8.4.6-.3,1.3-.5,1.9-.8,3.6-1.3,8.9-1.6,11.8-3.9l.5-.3c1.8-1.3,5.5-1,7.9-1,8.9-.2,12.6-.6,21,3.7,7.3,3.7,13.7,9.2,16.5,17.1.8,2.6,2.9,9,1.9,11.3-1.1,2.4-3.9,1.8-3.1,5.3,1.9,7.3-1.5,12.9-6.5,18.1-2.1,2.1-4.7,3.9-7.3,5.3h0Z"/>
            <path d="M350.6,125.7c-.3,0-.6,0-1,0h-.8c-6.6-.7-20.3-2-20.9-9.4,0-.9,0-1.6,0-2-.1,0-.2-.2-.4-.3l-.6-.4c-1-.8-4.5-5-5-5.6-2.5-3.7-3.6-8.4-3.1-13.3v-.3c.6-4.2,2-7.2,4.5-9.7q.6-.6.2-1.4c-1-2.2-1.6-4.7,1.9-9.5,2.6-3.7,5.2-7.2,9-8.9.3-.2.7-.3,1.1-.4.3-.1.5-.2.8-.3,1.5-.6,3.1-.9,4.6-1.3,2.6-.6,5.3-1.2,6.9-2.4l.6-.4c1.5-1.1,3.9-1.3,6.1-1.3h2.7s2,0,2,0c7.7-.2,11.8-.2,19.7,3.9,8.9,4.5,14.7,10.6,17.2,18,1.9,6,2.9,10.2,1.9,12.5-.6,1.4-1.6,2-2.3,2.5-.9.6-1,.7-.7,1.8,2.3,8.7-2.5,15-6.9,19.6-2,2-4.6,3.9-7.6,5.6-3.6,2-7.1,2.2-10,2.2s-1.9,0-2.9,0c-2.1,0-4.3-.1-6.6.1-.5,0-.9,0-1.3,0-1.9,0-2.8-.5-3.5-1-.3-.2-.3-.2-.4-.2.2,0,0,.2,0,.3-.9.6-2.5,1.7-5.5,1.7ZM354.8,61.9c-.8,0-3.3,0-4.2.7l-.5.4c-2.1,1.6-5.1,2.3-8.1,3-1.5.3-2.9.7-4.1,1.1-.2.1-.6.3-1,.4-.3.1-.5.2-.8.3-3.1,1.4-5.5,4.5-7.8,7.9-2.8,3.8-2.1,5.1-1.6,6.3.5,1.1,1.3,2.9-.8,5-2,2-3.1,4.4-3.6,7.6v.3c-.5,4.3.4,8.2,2.5,11.2.6.7,3.8,4.5,4.4,5l.5.4c1.3,1,1.9,1.6,1.6,3.1,0,.3-.1.7,0,1.5.2,3,6.3,5.2,18,6.3h.8c.2,0,.5,0,.7,0,2,0,2.9-.6,3.7-1.1.6-.4,1.2-.8,2.1-.8,1.1.1,1.6.5,2,.7.5.3,1,.5,2.7.4,2.4-.3,4.8-.2,7.1-.1,3.6.1,7.2.4,11.2-1.8,2.8-1.6,5.1-3.3,6.9-5,5.7-5.9,7.5-10.9,6-16.5-.8-3.3.9-4.4,2-5.2.6-.4,1-.7,1.2-1.2.3-.7.2-3-1.9-9.8-2.4-6.9-7.7-12.3-15.8-16.5-7.3-3.8-10.9-3.7-18.1-3.6h-2.1s-2.8,0-2.8,0Z"/>
          </g>
          <path d="M325.7,84.8c-.3,0-.6-.2-.8-.5-.2-.4,0-.9.5-1,1.2-.4,2.3-1.2,3.7-2.2,1.5-1.1,3.3-2.4,5.7-3.5.4-.2.9,0,1.1.4.2.4,0,.9-.4,1.1-2.3,1.1-4,2.3-5.5,3.4-1.4,1-2.7,1.9-4.1,2.5,0,0-.2,0-.3,0Z"/>
          <path d="M356.4,122.9c-.3,0-.5-.1-.7-.4-.5-.8-1-1.5-1.6-2.1-1-1.2-2.1-2.4-2.5-4.6,0-.4.2-.9.6-1,.4-.1.9.2,1,.6.4,1.8,1.2,2.7,2.2,3.9.6.7,1.2,1.4,1.8,2.3.2.4.1.9-.3,1.1-.1,0-.3.1-.4.1Z"/>
          <path d="M329.7,113.7c0,0-.1,0-.2,0-.4-.1-.7-.6-.6-1,.2-.9.4-1.2.6-1.5.2-.5.5-1,1.5-5.5.1-.4.5-.7,1-.6.4.1.7.5.6,1-1.1,4.7-1.4,5.3-1.7,5.9-.1.2-.2.5-.4,1.2,0,.4-.4.6-.8.6Z"/>
          <path d="M379,75.6c-.1,0-.3,0-.4-.1-15.7-9.4-17.5-8.7-21.9-6.8-2.9,1.3-6.8,3-15.7,3h-.5c-.4,0-.8-.4-.8-.8,0-.4.4-.8.8-.8h.5c8.5,0,12.3-1.6,15-2.9,4.9-2.1,6.9-3,23.3,6.8.4.2.5.7.3,1.1-.2.3-.4.4-.7.4Z"/>
          <path d="M356,97.7c-1.5,0-2.9-.5-4.3-1.4-1-.9-1.3-1.2-1.8-1.9l-.5-.7c-.6-1.3-.7-2.1-.5-3.3v-.7s0-.2,0-.2c.7-1.6,2.6-2.1,3.6-2.4,2.5-.9,4-.6,5.5.9.8.6,1.3,1.6,1.6,2.4l1,2.4c.6,1.4.6,2.4.2,3.2-.6,1.1-2,1.4-3.4,1.6-.5,0-1,.1-1.5.1ZM350.5,90v.5c-.2,1.2-.1,1.6.2,2.4l.4.6c.5.7.6.9,1.5,1.6,1.3.9,2.8,1.3,4.5.9.8-.1,1.9-.3,2.2-.8.2-.3.1-1-.3-1.8l-1-2.4c-.3-.8-.7-1.4-1.2-1.8-1.2-1.2-2-1.2-3.9-.5-.7.2-2.1.6-2.5,1.4Z"/>
          <path d="M367.1,96.8c-3.8,0-6.8-.7-7.1-.7-.4-.1-.7-.5-.6-1,0-.4.5-.7,1-.6.1,0,9.9,2.2,16.1-1.4.4-.2.9,0,1.1.3.2.4,0,.9-.3,1.1-3.1,1.8-6.9,2.2-10.1,2.2Z"/>
          <path d="M342.7,93.1c-2.5,0-5.4-.7-8.1-3-.3-.3-.4-.8-.1-1.1.3-.3.8-.4,1.1-.1,6.2,5.2,13.5,1.1,13.8.9.4-.2.9-.1,1.1.3.2.4.1.9-.3,1.1,0,0-3.3,1.9-7.5,1.9Z"/>
          <path d="M355.9,88.4c-.3,0-.5-.1-.7-.3-.1-.2-2.8-4.1-.7-9.5.2-.4.6-.6,1-.5.4.2.6.6.5,1-1.8,4.6.5,7.9.6,8,.3.4.2.9-.2,1.1-.1.1-.3.1-.5.1Z"/>
          <path d="M351.4,111.6c-.3,0-.6-.2-.7-.5-3.4-7.3,1.6-15,1.8-15.3.3-.4.7-.5,1.1-.2.4.2.5.7.2,1.1,0,0-4.7,7.3-1.7,13.7.2.4,0,.9-.4,1.1-.1,0-.2,0-.3,0Z"/>
        </g>
        <g>
          <path d="M393.7,96.9c-.3,0-.6-.2-.7-.5-.4-.8-.9-1.4-1.5-2.1-.9-1-2-2.2-3-4.7-.2-.4,0-.9.5-1.1.4-.2.9,0,1.1.5.9,2.2,1.9,3.3,2.7,4.2.7.7,1.3,1.5,1.8,2.5.2.4,0,.9-.4,1.1-.1,0-.2,0-.3,0Z"/>
          <g>
            <path class="cls-1" d="M371.5,124.2c-2.1-6.9-1.9-17.3,4.4-22,4.2-3.2,2.1-1.6,4.5-5.8,4.2-6.5,15.2-9.5,22.4-9.8,5.3-.2,13.1,2.3,18.1,3.7,4.4,1.3,1.6,2.7,2.3,4.5.3,1.6,5.8,1.6,7.3,1.9,3.6,1,4.8,3.1,6.6,6.1,2.4,4.8.5,9.4,1.5,14.7,1.3,6.5,1.6,5.3-1.8,11.6-3.6,6.6-7.1,10-14,13.2-7.1,3.1-14.7,4.2-22.4,4.2s-5-4.8-10.2-5.3c-4.2-.5-5.5-1.5-8.7-3.9-3.2-2.6-6.3-5.7-8.2-9.2-.5-1.5-1.1-2.7-1.6-4h0Z"/>
            <path d="M400.3,148.3c-4.3,0-5.9-1.9-7.1-3.4-.9-1.1-1.5-1.8-3.2-2-4.7-.5-6.2-1.7-9.5-4.2-4-3.2-6.9-6.4-8.7-9.7-.4-1.1-.7-1.8-1-2.6-.2-.6-.5-1.1-.7-1.7-2.4-8-1.9-18.8,4.9-23.8q2.4-1.9,2.7-2.5c.2-.5.5-1.4,1.4-2.9,4.4-6.8,15.4-10.3,23.8-10.7h.6c5.1,0,11.8,2,16.7,3.4l1.3.4c3.1.9,4.2,2.4,3.5,4.9,0,.2-.1.5-.1.6.8.4,3.1.6,4.2.7.8,0,1.5.2,1.9.2,4.4,1.2,6,4,7.7,6.9,1.7,3.4,1.6,6.5,1.4,9.5,0,1.9-.2,3.8.2,5.8l.4,1.8c1,4.6.9,5-1.8,9.9l-.5,1c-3.7,6.9-7.6,10.6-14.8,13.9-6.8,2.9-14.3,4.3-23.1,4.3ZM403.4,88.2h-.5c-6.3.3-17.1,2.9-21.1,9.1-.7,1.2-1,1.9-1.2,2.4-.6,1.4-.8,1.6-3.7,3.8-5.3,4-5.9,13.2-3.8,20.2.2.4.4.9.6,1.4.3.8.7,1.7,1,2.6,1.5,2.6,4.1,5.6,7.7,8.4,3.1,2.3,4.1,3.1,7.9,3.5,3,.3,4.3,1.8,5.3,3.1,1.1,1.3,1.8,2.2,4.6,2.2,8.3,0,15.5-1.3,21.8-4.1,6.5-3,9.9-6.2,13.3-12.5l.5-1q2.2-4.1,1.4-7.7l-.4-1.8c-.4-2.3-.3-4.4-.3-6.5.1-2.8.2-5.3-1.1-7.8-1.7-2.9-2.7-4.5-5.6-5.3-.3,0-.8-.1-1.5-.2-3-.3-6.5-.6-7-3-.3-.9,0-1.8.1-2.4,0-.1,0-.3.1-.4h0c-.1,0-.5-.2-1.4-.5l-1.3-.4c-4.7-1.4-11.2-3.3-15.8-3.3Z"/>
          </g>
          <path d="M377.5,112.1c-.3,0-.6-.2-.8-.5-.2-.4,0-.9.5-1,1.9-.7,1.9-2.1,1.6-5.1-.3-2.5-.6-5.7.8-9.3.2-.4.6-.6,1-.5.4.2.6.6.5,1-1.3,3.2-1,6.2-.7,8.5.3,2.9.6,5.6-2.6,6.8,0,0-.2,0-.3,0Z"/>
          <path d="M410.8,97.1c-.4,0-.7-.3-.8-.7,0-.4.2-.8.7-.9,3.1-.4,12-1,14.4-.3.4.1.7.6.5,1-.1.4-.6.7-1,.5-1.8-.6-10-.2-13.7.4,0,0,0,0-.1,0Z"/>
          <path d="M392.7,142.9c-.2,0-.4,0-.5-.2-.2-.2-5.2-4.4-6.9-9.2-.1-.4,0-.9.5-1,.4-.2.9,0,1,.5,1.5,4.4,6.3,8.5,6.4,8.5.3.3.4.8.1,1.1-.2.2-.4.3-.6.3Z"/>
          <path d="M410.1,134.7c-.3,0-.5-.1-.7-.4-.2-.4-.1-.9.3-1.1,9.2-5.8,16.2-13,20.7-21.3.2-.4.7-.5,1.1-.3.4.2.5.7.3,1.1-4.7,8.6-11.8,16-21.3,21.9-.1,0-.3.1-.4.1Z"/>
          <path d="M410.1,129.5c-.2,0-.3,0-.5-.2-.4-.3-.4-.8-.1-1.1.6-.7,1.3-1.5,2-2.2,2.9-3,6.8-7,8.5-17.9,0-.4.4-.7.9-.7.4,0,.7.5.7.9-1.7,11.4-5.9,15.7-8.9,18.8-.7.8-1.4,1.4-1.9,2.1-.2.2-.4.3-.6.3Z"/>
          <path d="M398.5,120.1c-.3,0-.6,0-.8,0-1.1-.3-1.8-1-2.3-1.9-.8-1.6-.6-3.7,0-5.2.7-1.5,1.6-1.8,2.7-2,1.9-.3,4.7.6,6.3,2,.3.3.6.6,1,.9l.4.2v.3c.4.7.2,1.4,0,2l-.2.5c-.8,1.2-1.9,2.6-3.3,2.8-.7.1-2.6.4-3.8.4ZM398.9,112.5c-.2,0-.4,0-.6,0-.9.1-1.2.2-1.5,1-.3,1-.6,2.7,0,3.8.3.5.7.9,1.3,1,0,0,.2,0,.4,0,1,0,2.7-.2,3.6-.4.9-.1,1.8-1.4,2.1-2v-.2c.1-.2.2-.5.2-.6l-.2-.3c-.4-.3-.7-.6-.9-.8-.9-.8-2.8-1.6-4.3-1.6Z"/>
          <path d="M406.4,116.2c-.7,0-1.2,0-1.3,0-.4,0-.7-.5-.7-.9,0-.4.5-.7.9-.7.2,0,4.4.7,6.6-2.6.3-.4.8-.5,1.1-.2.4.3.5.8.2,1.1-2,2.9-5.2,3.3-6.9,3.3Z"/>
          <path d="M394.2,116.5c-1.4,0-3.7-.5-6.3-2.7-.3-.3-.4-.8-.1-1.1.3-.3.8-.4,1.1-.1,3.9,3.1,6.3,2.2,6.4,2.1.4-.2.9,0,1.1.4.2.4,0,.9-.4,1.1,0,0-.7.3-1.8.3Z"/>
          <path d="M399.6,112.6c-.4,0-.8-.3-.8-.8,0-.4-.5-9.6,4.3-12.1.4-.2.9,0,1.1.3.2.4,0,.9-.3,1.1-3.8,2-3.4,10.5-3.4,10.5,0,.4-.3.8-.8.9h0Z"/>
          <path d="M392.7,127h0c-.4,0-.8-.4-.8-.8.2-4.5,6.3-7.5,6.6-7.6.4-.2.9,0,1.1.4.2.4,0,.9-.4,1.1,0,0-5.5,2.8-5.7,6.3,0,.4-.4.8-.8.8Z"/>
        </g>
        <g>
          <path class="cls-1" d="M190.7,161c12.1-3.6,14.4-3.4,28.3,3.1,23.2,10.7,42,5.5,69.7,5.2,27.8-.3,53.3-8.1,83.3-3.7,29.9,4.4,90.4-9.8,90.4-9.8,0,0,9.2,1,12.1,7.6,2.9,6.6,4,11.8,7.3,20.3,3.2,8.6,11.9,23.4,15.2,34.7,3.2,11.1,1.1,59.7-5.8,74.9-6.9,15.3-17.4,41.7-20.7,47.8-3.1,6.1-16.8,23.2-17.3,35.5-.5,12.3-16.3,17.9-36.8,27.8-20.7,9.8-34.2,11.3-53.1,19.2-19.1,8.1-12.3,6.5-32.9,9.2-20.5,2.6-27.1,3.1-41.8-.3-14.7-3.6-18.2-6-40.7-12.1-10.3-2.7-19.2-11.1-37.6-23.1-6.1-4-7.4-11.6-14.7-15.8-7.3-4.2-1.9-7.7-16.3-12.6-14.4-4.7-24.9-8.7-27.4-24.5-2.7-15.7.3-12.8-7.7-27.9-8.1-15.3-15.5-4-14.7-21,.8-17,2.4-16.8,1.1-25-1.5-8.2-3.9-4.2-7.7-6.6-4-2.4-6-6.9-.6-9.4,5.3-2.4,17.1-13.6,16.3-28.6-.8-15-7.7-18.7-7.1-35.2.5-16.6,10.8-31,16.1-35.8,2.6-2.3,8.9-4.5,10.7,1,5.7,18.1,13.6,10.8,32.6,5.3h0Z"/>
          <path d="M307,436.4c-5.9,0-11.2-.7-18.8-2.4-7.5-1.8-12-3.3-17.7-5.2-5.6-1.8-11.9-3.9-23-7-7.3-1.9-13.9-6.6-23-13-4.3-3-9.2-6.5-15.1-10.3-3.1-2.1-5.1-4.9-7-7.7-2.1-3.1-4.1-6-7.6-8.1-3.2-1.9-4.3-3.7-5.3-5.3-1.3-2.2-2.6-4.4-10.8-7.1-13.2-4.3-25.7-8.4-28.5-25.8-.8-4.7-1.1-7.7-1.4-10.1-.5-5.3-.7-6.9-6.2-17.3-3.4-6.5-6.6-7.8-9.1-8.8-3.9-1.6-6.3-3.1-5.8-13,.3-7.2.8-11.3,1.2-14.3.5-4,.7-5.8,0-10.4-.7-4.2-1.3-4.2-2.8-4.3-1.1,0-2.6-.2-4.2-1.2-3-1.8-4.8-4.5-4.6-7,0-1.5.9-3.7,4.2-5.2,4.2-1.9,16.1-12.3,15.4-27-.4-6.6-1.9-10.8-3.5-15.3-1.9-5.3-3.9-10.8-3.6-20,.5-18.4,12.2-32.9,16.7-37,1.6-1.4,4.5-2.9,7.2-2.9s5.1,1.6,6.1,4.5c2.7,8.6,5.6,10.4,9.1,10.4s6.9-1.3,11.9-3c2.8-1,6-2.1,9.6-3.1,13-3.8,15.1-3.5,29.4,3.2,10,4.6,19.7,6.5,32.5,6.5s11.1-.3,17.1-.7c6.1-.4,12.5-.8,19.5-.8,10.4-.1,20.8-1.3,30.7-2.5,10.8-1.3,21.9-2.6,33.5-2.6s13.1.4,19.3,1.3c3.7.5,8.1.8,13.1.8,31,0,76.3-10.5,76.7-10.6h.3c0,0,.3,0,.3,0,.4,0,10.2,1.2,13.4,8.5,1.7,3.8,2.8,7.1,4,10.9.9,2.8,1.9,5.8,3.3,9.5,1.2,3.3,3.3,7.6,5.6,12.2,3.6,7.3,7.6,15.6,9.6,22.6,3.3,11.5,1.1,60.8-5.9,76-3.2,7.1-7.3,16.8-10.9,25.3-4.3,10.3-8.1,19.2-9.8,22.5-.8,1.6-2.3,3.9-4.2,6.8-5,7.7-12.6,19.3-12.9,28-.5,11.7-12.9,17.5-30.2,25.6-2.4,1.1-4.9,2.3-7.5,3.6-11.7,5.6-21.3,8.5-30.6,11.4-7.1,2.2-14.4,4.4-22.6,7.9-3.4,1.4-5.9,2.5-8,3.4-8.3,3.6-8.5,3.7-19.2,5.1l-6.2.8c-9.7,1.2-17.1,2.1-23.5,2.1ZM153.6,153.9c-1.8,0-3.9,1-5.1,2-5.8,5.3-15.2,19.3-15.6,34.7-.3,8.7,1.5,13.6,3.4,18.8,1.6,4.5,3.3,9.1,3.7,16.2.8,15.4-10.8,27.2-17.2,30.1-1,.5-2.2,1.3-2.3,2.4,0,1.3,1.2,2.9,3.1,4.1,1,.6,1.8.7,2.7.7,3.1.2,4.8,1.3,5.8,7,.8,5,.5,7.1,0,11.3-.3,3-.8,7-1.2,14.1-.4,8.1.9,8.7,3.8,9.9,2.9,1.2,6.8,2.8,10.7,10.3,5.8,10.9,6,12.8,6.6,18.5.2,2.4.5,5.3,1.3,9.9,2.4,14.5,11.5,18.5,26.4,23.3,9.3,3.1,10.9,5.9,12.5,8.5.9,1.5,1.6,2.7,4.1,4.2,4.2,2.4,6.5,5.8,8.7,9,1.8,2.6,3.5,5.1,6.1,6.8,5.9,3.8,10.9,7.3,15.2,10.4,9.2,6.5,15.2,10.7,22,12.5,11.2,3.1,17.6,5.2,23.2,7,5.6,1.9,10.1,3.3,17.4,5.1,7.3,1.7,12.4,2.4,18.1,2.4s13.5-.9,23.1-2.1l6.2-.8q10.3-1.3,18.3-4.8c2.1-.9,4.6-2,8-3.5,8.3-3.5,15.7-5.8,22.9-8,9.1-2.8,18.6-5.7,30.1-11.2,2.6-1.2,5.1-2.4,7.6-3.6,16.2-7.6,27.9-13.1,28.3-22.8.4-9.5,8.2-21.6,13.4-29.6,1.8-2.7,3.3-5,4-6.6,1.7-3.2,5.6-12.5,9.7-22.3,3.6-8.6,7.7-18.3,10.9-25.4,6.6-14.4,8.9-62.9,5.7-73.8-1.9-6.8-5.9-14.9-9.4-22.1-2.3-4.7-4.4-9.1-5.7-12.5-1.4-3.7-2.4-6.8-3.3-9.6-1.2-3.7-2.3-6.9-3.9-10.6-2.3-5.1-9.1-6.4-10.6-6.6-3.9.9-47.1,10.7-77.2,10.7s-9.7-.3-13.6-.9c-6.1-.9-12.3-1.3-18.9-1.3-11.3,0-22.4,1.3-33.1,2.5-10.1,1.2-20.5,2.4-31.1,2.5-6.9,0-13.2.5-19.3.8-6,.4-11.7.7-17.3.7-13.3,0-23.4-2.1-33.8-6.8-8-3.7-11.9-5.2-16-5.2s-6,.8-11.1,2.3c-3.5,1-6.6,2.1-9.4,3-5.2,1.8-9.4,3.2-13,3.2h0c-5.8,0-9.4-3.8-12.2-12.6-.5-1.6-1.5-2.3-3-2.3Z"/>
        </g>
        <path d="M220,209.8c-32.9,0-36.6-3.7-41.5-8.9-3.2-3.3-6.9-7.1-19.9-11-.4-.1-.7-.6-.5-1,.1-.4.6-.7,1-.5,13.5,4,17.4,8.1,20.6,11.5,4.8,5,8.4,8.7,44.2,8.4,35.1-.4,59.5-4.8,79.1-8.4,13.2-2.4,24.6-4.5,35.3-4.5s12.9-.2,18.7-.4c15.9-.6,28.5-1,48.3,3.5.4,0,.7.5.6,1,0,.4-.6.7-1,.6-19.6-4.5-32.1-4-47.9-3.5-5.8.2-11.8.4-18.8.4-10.6,0-21.9,2.1-35,4.5-19.6,3.6-44.1,8.1-79.3,8.4-1.3,0-2.6,0-3.9,0Z"/>
        <path d="M372.3,236.3c-25.7,0-30.4-4.2-35.9-8.9-3.5-3.1-7.2-6.3-17.7-8.6-20-4.5-24.1-4.3-34.8-3.7-4.8.2-10.9.5-20.2.5s-.8-.4-.8-.8.4-.8.8-.8c9.3,0,15.3-.3,20.2-.5,10.9-.5,15-.7,35.2,3.8,10.9,2.4,14.9,5.9,18.4,9,6,5.2,11.2,9.7,48.7,8.1.5,0,.8.3.8.8,0,.4-.3.8-.8.8-5.3.2-9.9.3-14,.3Z"/>
        <path d="M404.3,218.3c-22.1,0-28.1-1.4-53.3-7.4l-5-1.2c-.4-.1-.7-.5-.6-1,.1-.4.5-.7,1-.6l5,1.2c25.1,5.9,31,7.3,52.9,7.3s12.8-1.6,17.2-3.4c7.5-3,15.2-6,45.4-2,.4,0,.8.5.7.9s-.5.8-.9.7c-29.8-4-37.3-1-44.6,1.9-4.5,1.8-8.8,3.5-17.8,3.5Z"/>
        <path d="M172,305.3c-.3,0-.5-.1-.7-.4-.2-.4,0-.9.3-1.1,6.6-3.9,9.2-6.6,11.9-9.5,3.5-3.8,7.2-7.8,20.3-14.5.4-.2.9,0,1.1.4.2.4,0,.9-.4,1.1-12.8,6.6-16.4,10.5-19.9,14.2-2.8,3-5.4,5.8-12.2,9.8-.1,0-.3.1-.4.1Z"/>
        <path d="M172,327.8c-.4,0-.7-.3-.8-.6-.1-.4.2-.9.6-1,17.7-4.1,19.2-8.7,20.5-12.4,2-6,3.1-9.4,53.1-4.2,36.4,3.7,48,6.8,55.6,8.9,10.1,2.7,14.3,3.8,59.1,2.9h0c.4,0,.8.4.8.8,0,.4-.3.8-.8.8-45,.9-49.2-.2-59.5-3-7.6-2-19.1-5.1-55.4-8.8-48.7-5-49.7-1.9-51.4,3.1-1.3,3.9-3.1,9.2-21.7,13.5,0,0-.1,0-.2,0Z"/>
        <path d="M346.2,405.8c-.3,0-.7-.2-.8-.6-.1-.4,0-.9.5-1l3-1c49.3-16.5,64.2-21.4,78.3-50.4,5.8-12,6.6-16.5,7.4-20.8,1.2-6.3,2.2-12.3,18.8-40.7.2-.4.7-.5,1.1-.3.4.2.5.7.3,1.1-16.4,28.2-17.5,34-18.6,40.2-.8,4.4-1.6,9-7.5,21.2-14.4,29.6-30.7,35.1-79.2,51.3l-3,1c0,0-.2,0-.3,0Z"/>
        <path d="M447.1,327.8c-.1,0-.3,0-.4-.1-.4-.2-.5-.7-.3-1.1,3.8-6.8,7.6-11.4,11-15.4,5.6-6.7,10-11.9,11.4-24.4,1-10.1.8-17.6.5-24.8-.3-7.3-.6-14.7.5-25,0-.4.4-.8.9-.7.4,0,.8.4.7.9-1,10.1-.8,17.5-.5,24.7.3,7.3.6,14.8-.5,25-1.4,12.9-6,18.4-11.7,25.2-3.3,3.9-7.1,8.4-10.8,15.1-.2.3-.4.4-.7.4Z"/>
        <g>
          <g>
            <path class="cls-1" d="M61.6,263.4l.5-7.4c.2,0,8.2-.8,8.6-.8,2.3-.2,3.4,0,5.2-.2,4.4-.2,1.9-2.7,2.9-2.6,2.1.3,3.9,1,6,1,3.2,0,5,3.7,5.8,5,.8,1.3,1,4.4-1.5,6.3-2.6,1.9-6.9,4.7-9.8,4.4,0,0,1.1-1.1.5-2.7-.8-1.5-2.9-1.3-6.1-1.6-3.4-.3-11-1.1-11.9-1.3h0Z"/>
            <path d="M79.7,269.9c-.2,0-.4,0-.6,0l-1.7-.2,1.2-1.2c0,0,.7-.8.3-1.9-.4-.7-1.6-.8-3.7-1-.5,0-1.1,0-1.7-.2-3.3-.3-11-1.1-12-1.3h-.7c0-.1.6-9,.6-9h.8c.1,0,1.5-.1,3.1-.3,3.9-.4,5.3-.5,5.5-.5,1.1,0,2,0,2.8,0,.8,0,1.5,0,2.3,0,1.5,0,1.8-.4,1.9-.5.1-.1,0-.4,0-.7,0-.3-.1-.8.2-1.1l.2-.3h.5c0,0,.1,0,.2,0,.8.1,1.5.3,2.2.4,1.2.3,2.4.5,3.7.5,3.3,0,5.3,3.3,6.2,4.9l.3.5c1.1,1.7,1.1,5.2-1.6,7.4-1.8,1.4-6.4,4.6-9.9,4.6ZM62.4,262.7c2.2.3,8.1.9,11.2,1.2.6,0,1.2.1,1.7.1,2.4.2,4.2.3,5.1,1.9.4.9.3,1.7.2,2.3,2.1-.4,5-1.8,8-4.1,2.1-1.7,1.8-4.3,1.3-5.2l-.3-.5c-.8-1.4-2.4-4.1-4.8-4.1s-2.7-.3-4-.6c-.4-.1-.9-.2-1.3-.3,0,.5,0,1-.4,1.4-.5.7-1.5,1-3.1,1.1-.9,0-1.6,0-2.4,0h0c-.8,0-1.6,0-2.7,0-.3,0-3.4.3-5.4.5-1.3.1-2,.2-2.5.2l-.4,6Z"/>
          </g>
          <g>
            <path class="cls-1" d="M79.2,269c-4.5-.3-6.6-1.3-11.6,0-5.2,1.1-14-2.1-15.2-3.7-1.1-1.6-2.6-4-1.1-6.8,1.3-2.7,6.8-5.7,11.1-6.9,4.2-1.3,11.3.6,14.7.6s1.3,2.6-1.3,2.7c-1.8.2-2.9,0-5.2.2-5.8.3-7.4.2-7.6,2.9-.2,2.9-.3,5.2,2.3,5.7,2.6.6,3.4.5,8.2,1,4.8.5,5.3.2,6.1,1.6.6,1.6-.5,2.7-.5,2.7h0Z"/>
            <path d="M65.1,270.1c-5,0-12.2-2.5-13.4-4.3-.9-1.3-3-4.2-1.2-7.6,1.4-2.9,7-6,11.6-7.3,1-.3,2.3-.5,3.8-.5,2.2,0,4.7.3,6.8.6,1.6.2,3.2.5,4.3.5s2,.8,2,1.6c0,1.2-1.2,2.6-3.2,2.7-.9,0-1.6,0-2.5,0h0c-.8,0-1.6,0-2.7,0h-1.4c-5,.3-5.4.5-5.5,2.1-.2,3.3-.1,4.5,1.6,4.8,1.7.4,2.6.5,4.4.6.9,0,2.1.2,3.7.3,1,0,1.8.2,2.5.2,2.6.2,3.4.3,4.3,1.8.9,2.2-.6,3.6-.6,3.7l-.3.3h-.4c-1.2-.1-2.3-.2-3.2-.4-2.8-.4-5-.5-8.1.3-.8.2-1.7.3-2.6.3ZM66,251.9c-1.4,0-2.5.1-3.3.4-4.2,1.3-9.5,4.1-10.7,6.5-1.2,2.2-.2,4.2,1.1,6,.7,1,6.9,3.6,12.1,3.6s1.6,0,2.3-.2c3.3-.8,5.9-.7,8.7-.4.8.1,1.7.2,2.7.3.2-.3.4-.9.1-1.6-.4-.7-.4-.7-3-.9-.7,0-1.5-.1-2.5-.2-1.6-.2-2.8-.2-3.7-.3-1.9-.2-2.9-.2-4.7-.7-3.2-.6-3-3.5-2.9-6.4.2-3.4,2.2-3.5,7-3.7h1.3c1.1-.2,2-.2,2.8-.2.8,0,1.5,0,2.3,0,1.1,0,1.5-.6,1.6-.7.1-.2.1-.3.1-.3,0,0-.1,0-.4,0-1.2,0-2.7-.2-4.5-.5-2.1-.3-4.5-.6-6.6-.6Z"/>
          </g>
          <g>
            <path class="cls-1" d="M77.1,280.5c-.5.8-1.8,1.1-3.1,1.6l-6.8,3.1,2.6,7.4,7.1-2.3c2.3-.6,4.7-1.5,5.8-1.3,2.3.2,3.4,1.8,1,2.6,5.3-1.8,6-3.4,8.7-5.5,2.9-2.3,4.2-3.9,3.1-6.9-1.3-2.9-2.6-6-5.2-6.3-2.4-.2-5.8,1-9.4,2.3-.8.2-1.6,2.6-3.9,5.3h0Z"/>
            <path d="M69.3,293.6l-3.1-8.9,8.2-3.6c.8-.3,1.7-.6,2-1,1.1-1.4,1.8-2.6,2.4-3.5.8-1.3,1.2-2,2-2.2,3.3-1.2,7-2.4,9.6-2.3,3,.4,4.4,3.5,5.7,6.5v.2c1.5,3.8-.6,5.8-3.2,7.9-.7.5-1.2,1-1.8,1.5-1.6,1.4-3.1,2.7-7.2,4.1h0l-.5-1.5c.7-.2.8-.5.8-.5,0,0-.6-.5-1.6-.6-.1,0-.2,0-.3,0-.9,0-2.6.5-4.2,1l-1.1.3-7.8,2.5ZM68.2,285.6l2.1,6,7.4-2.3c2.1-.6,4-1.2,5.1-1,1.5.1,2.6.8,2.9,1.7,2.1-.9,3.1-1.9,4.3-2.9.6-.5,1.1-1,1.9-1.6,2.9-2.2,3.7-3.5,2.8-6v-.2c-1.2-2.6-2.4-5.3-4.5-5.6,0,0-.2,0-.4,0-2.3,0-5.5,1.1-8.6,2.2-.2.1-.7.9-1.1,1.5-.6,1-1.4,2.2-2.5,3.6-.5.8-1.6,1.2-2.8,1.6l-.7.2-6.1,2.7Z"/>
          </g>
          <g>
            <path class="cls-1" d="M71.9,278.5s-5.3,1.6-8.2,3.1c-2.9,1.6-5.3,4.7-6,5.8-.8,1.3,1.9,7.9,5.3,8.4,3.4.5,4.2,1.5,10-.3,5.8-1.8,8.1-2.9,10.7-3.9,2.4-.8,1.3-2.4-1-2.6-2.1-.2-8.9,2.6-10.8,2.1-2.1-.3-3.1-2.1-3.2-4.8-.2-2.7,6-4,8.4-5.8.8-.5,5.2-5.8.3-4l-5.5,2.1Z"/>
            <path d="M67.7,297.3c-1.1,0-2-.2-2.9-.4-.5-.1-1.1-.2-1.8-.3-2.8-.4-4.7-4-5.2-5.1-.4-.8-1.5-3.4-.7-4.6.7-1.2,3.2-4.4,6.3-6.1,3-1.5,8.2-3.1,8.4-3.1l5.4-2.1c.8-.3,1.4-.4,1.8-.4,1.1,0,1.4.8,1.5,1,.4,1.6-2.3,4.6-2.9,4.9-.8.6-2.1,1.2-3.4,1.7-2.1.9-4.7,2.1-4.6,3.3.2,3.7,2,4,2.5,4.1.9.2,3.3-.5,5.5-1.1,2-.6,3.8-1.1,5-1.1h.3c1.7.1,2.9.9,3.1,2,0,.4,0,1.5-1.9,2.1-.7.2-1.3.5-2,.8-1.9.8-4.4,1.8-8.6,3.1-2.4.7-4.1,1.1-5.6,1.1ZM78.8,276.9c-.2,0-.6.1-1.1.3l-5.5,2.1c-.1,0-5.4,1.6-8.2,3-2.8,1.5-5.1,4.6-5.6,5.5-.2.4.1,2,1.2,4,1.1,1.8,2.4,3,3.5,3.2.7.1,1.4.2,1.9.4,2.2.5,3.9.5,7.7-.7,4.2-1.3,6.6-2.3,8.5-3,.7-.3,1.4-.6,2.1-.8.6-.2.8-.4.8-.5,0,0-.6-.5-1.6-.6h0c-1,0-2.9.5-4.7,1-2.5.7-5.1,1.4-6.3,1.1-1.6-.2-3.6-1.4-3.8-5.6-.1-2.4,2.8-3.7,5.6-4.9,1.2-.5,2.4-1.1,3.1-1.6.5-.3,1.9-2.1,2.2-2.9Z"/>
          </g>
        </g>
        <g>
          <g>
            <path class="cls-1" d="M56.4,109c-4,.3-9.4-4.8-13.6-.5-4.4,4.4.8,9.5.5,13.7-3.6,5.8-5.5,12.6-5.5,19.9s1.6,12.9,4.5,18.4c.2.2.3.3.3.5,1.9,4.4-5,10.3-.2,15,4.7,4.7,10.5-1.8,14.9-.2.3,0,.6.3,1,.5,5.5,2.9,11.6,4.5,18.2,4.5s12.3-1.5,17.6-4.2c.6-.5,1.1-.8,1.8-1,4.2-1.1,9.8,5,14.4.3,4.5-4.4-1.3-10-.5-14.2.2-.6.5-1.3,1.1-1.9,0,0,0-.2.2-.2,2.6-5.2,4.2-11.3,4.2-17.6s-2.1-14-5.5-19.9c-.6-4.2,4.8-9.5.5-13.9-4.5-4.5-9.8,1.1-14,.3-5.8-3.4-12.6-5.3-19.7-5.3s-14.2,2.1-20.2,5.7h0Z"/>
            <path class="cls-2" d="M76.6,181.7c-6.6,0-12.8-1.6-18.6-4.6-.1,0-.3-.1-.4-.2,0,0-.2-.1-.3-.2h-.2c-1.4-.6-3.4,0-5.4.7-1.6.6-3.3,1.2-5.1,1.2s-3.3-.6-4.6-2c-3.2-3.1-1.9-6.6-.8-9.7.7-2.1,1.5-4,.8-5.6v-.2c0,0-.1,0-.2,0v-.2c-3.2-5.7-4.7-12.2-4.7-18.8s1.9-14.1,5.5-20.1c0-1.3-.5-2.7-1-4.3-1.1-3.1-2.4-6.6.8-9.8,1.3-1.3,2.8-2,4.6-2s3.5.6,5.1,1.2c1.5.6,3,1,4.2,1,6.4-3.8,13.3-5.7,20.4-5.7s13.9,1.9,20,5.4c1.4.2,2.9-.4,4.6-1,1.6-.6,3.3-1.2,5-1.2s3.3.7,4.7,2c3.1,3.1,1.8,6.6.7,9.6-.6,1.7-1.2,3.2-1,4.6,3.6,6.2,5.5,13.2,5.5,20.1s-1.5,12.4-4.3,18l-.2.4h-.2c-.4.5-.7.9-.8,1.5-.3,1.3.4,3,1,4.8,1.1,3.1,2.4,6.7-.7,9.8-1.3,1.3-2.8,2-4.6,2s-3.5-.6-5.1-1.2c-1.9-.7-3.7-1.3-5-.9-.5.1-.9.4-1.5.8-5.6,2.9-11.7,4.4-18.1,4.4ZM57.5,175.1c.4,0,.7.3.9.4,0,0,.2.1.2.1,5.6,2.9,11.6,4.4,17.9,4.4s11.9-1.4,17.2-4.1c.5-.4,1.1-.8,1.9-1,1.7-.5,3.9.2,5.9,1,1.5.6,3.1,1.1,4.6,1.1s2.5-.5,3.5-1.5c2.4-2.3,1.4-5.1.4-8.1-.7-1.9-1.4-3.9-1.1-5.7.2-.8.6-1.6,1.2-2.2,0-.1.2-.2.3-.3,2.6-5.3,4-11.2,4-17s-1.9-13.4-5.4-19.4v-.3c-.4-1.8.3-3.7,1-5.5,1-2.9,2-5.6-.4-7.9-1-1-2.2-1.5-3.5-1.5s-3,.6-4.5,1.1c-1.9.7-3.8,1.3-5.6,1h-.3c-5.9-3.5-12.5-5.3-19.3-5.3s-13.6,1.9-19.8,5.5h-.3c-1.6.3-3.3-.4-5-1-1.5-.6-3.1-1.1-4.6-1.1s-2.4.5-3.4,1.5c-2.4,2.4-1.5,5.2-.4,8.1.6,1.7,1.3,3.5,1.1,5.1v.4c-3.6,5.7-5.5,12.5-5.5,19.4s1.5,12.5,4.4,17.9c.2.2.4.4.5.8.9,2.1,0,4.4-.8,6.7-1,2.9-2,5.6.4,8,1,1,2.1,1.5,3.5,1.5s3-.5,4.5-1.1c2.2-.8,4.5-1.5,6.4-.8Z"/>
          </g>
          <g>
            <path class="cls-1" d="M76.6,103.4c21.3,0,38.7,17.4,38.7,38.7s-17.4,38.7-38.7,38.7-38.7-17.3-38.7-38.7,17.3-38.7,38.7-38.7h0Z"/>
            <path d="M76.6,182.5c-22.3,0-40.4-18.1-40.4-40.4s18.1-40.4,40.4-40.4,40.4,18.1,40.4,40.4-18.1,40.4-40.4,40.4ZM76.6,105c-20.5,0-37.1,16.7-37.1,37.1s16.7,37.1,37.1,37.1,37.1-16.7,37.1-37.1-16.7-37.1-37.1-37.1Z"/>
          </g>
          <g>
            <path class="cls-1" d="M43.3,142.1c0-18.2,14.9-33.1,33.3-33.1s33.1,14.9,33.1,33.1-14.9,33.3-33.1,33.3-33.3-14.9-33.3-33.3h0Z"/>
            <path class="cls-2" d="M76.6,176.2c-18.8,0-34.1-15.3-34.1-34.1s15.3-33.9,34.1-33.9,33.9,15.2,33.9,33.9-15.2,34.1-33.9,34.1ZM76.6,109.8c-17.9,0-32.4,14.5-32.4,32.3s14.6,32.4,32.4,32.4,32.3-14.6,32.3-32.4-14.5-32.3-32.3-32.3Z"/>
          </g>
        </g>
      </g>
    </g>
  </g>
</svg>