<?xml version="1.0" encoding="UTF-8"?>
<svg xmlns="http://www.w3.org/2000/svg" version="1.1" viewBox="0 0 527.5 357">
  <defs>
    <style>
      .cls-1 {
        fill-rule: evenodd;
      }

      .cls-1, .cls-2 {
        fill: #fff;
      }
    </style>
  </defs>
  <!-- Generator: Adobe Illustrator 28.6.0, SVG Export Plug-In . SVG Version: 1.2.0 Build 709)  -->
  <g>
    <g id="Layer_1">
      <g>
        <g>
          <g>
            <rect class="cls-2" x="143.4" y="38.5" width="243.8" height="275.7"/>
            <path d="M388.8,315.9h-247V36.9h247v279ZM145,312.7h240.6V40.1h-240.6v272.5Z"/>
          </g>
          <g>
            <path class="cls-1" d="M170.5,117c7.4.5,16.1.3,40.2.3s27-3.4,56-2.9c29.1.3,77.5,1.1,92.5,1.8,15,.8,23.6,1.1,27.6,5.5,4,4.4,10,20,8.2,32.5-1.9,12.4-2.3,26.6-2.3,36.8s3.1,44.6,3.4,57c.3,12.4.6,17.4,0,31.6-.8,14.4-4.2,24.9-1.6,32.1,2.6,7.3,8.4,22,12.4,26.6,4,4.8-24.4-6.1-43.4-9.5-18.9-3.2-20-5.3-50.7-4.4-30.7,1.1-73.3,1.1-88.3.5-14.9-.8-42.3-.8-48.8,1-6.6,1.9-32.1,15.8-41.7,22-9.5,6.1-5.2-7.3,0-23.4,5.2-16,5.2-22.9,4.7-40-.3-17.1,6.3-37.1.8-53.4-5.5-16.3-4.8-28.4-1.5-42.9,2.4-11,2.7-20.8.8-32.1-5-27.3-.8-41.5,31.5-38.9h0Z"/>
            <path d="M130.5,351c-1.1,0-2-.5-2.7-1.3-2.3-3.1.2-11.2,4.7-25.3l.2-.5c5-15.5,5.1-22.2,4.6-39.5-.1-6.3.7-13.1,1.5-19.6,1.4-11.4,2.8-23.3-.6-33.4-5.8-17.1-4.9-29.5-1.5-43.8,2.4-10.9,2.7-20.6.8-31.5-3.1-17-2.2-26.9,3.1-33.3,5.3-6.3,14.9-8.7,30.1-7.5,4.4.3,9.4.3,17.7.3h22.4c11,0,17.5-.7,24.2-1.5,7.9-.9,16-1.7,31.8-1.5,28.2.3,77.4,1.1,92.5,1.8h1.4c14.8.9,23,1.3,27.3,6,4.1,4.4,10.5,20.6,8.6,33.8-1.5,9.7-2.2,21.7-2.2,36.6s.9,17.9,1.7,29.9c.8,10.9,1.5,21.2,1.7,27v5c.4,9.1.6,14.5,0,26.7-.3,5.2-.9,10-1.5,14.1-1,7.3-1.7,13.1-.2,17.4,2.5,7.1,8.3,21.7,12.1,26.1,1,1.2.9,2.1.6,2.6-.4.8-1.2,1.2-2.5,1.2-2.6,0-8.9-1.8-16.7-4.1-8.1-2.3-18.2-5.2-26.3-6.7-4-.7-7.2-1.3-10.1-1.9-10.8-2.1-16.3-3.2-40.3-2.5-15.9.6-36.6.9-56.8.9s-25.1-.2-31.6-.4c-6.1-.3-14-.5-21.8-.5-13.3,0-23.2.5-26.4,1.4-6.4,1.9-31.6,15.6-41.2,21.8-1.9,1.2-3.3,1.8-4.6,1.8ZM163.5,118.3c-10.1,0-16.8,2.2-20.5,6.7-4.6,5.5-5.3,14.7-2.4,30.6,1.9,11.3,1.7,21.4-.8,32.8-3.2,13.8-4.1,25.7,1.4,42.1,3.6,10.8,2.2,23,.7,34.8-.8,6.7-1.6,13.1-1.5,19.1.5,17.6.4,24.6-4.8,40.6v.5c-2.8,8.3-6.8,20.8-5.3,22.4h0c.3,0,1.1-.1,2.8-1.3,9.8-6.3,35.2-20.1,42.1-22.1,5.1-1.4,20.8-1.6,27.3-1.6s15.9.2,22,.5c6.4.3,17.9.4,31.4.4,20.2,0,40.9-.3,56.7-.9,24.5-.8,30.4.4,41,2.5,2.8.6,6,1.2,10,1.9,8.3,1.5,18.5,4.4,26.6,6.8,5.6,1.6,11,3.2,14,3.7-4-6-9-18.5-11.5-25.5-1.8-5-1-11.1,0-18.9.6-4.1,1.2-8.8,1.5-13.9.6-12,.4-17.5.1-26.5v-5c-.3-5.8-1.1-16.5-1.8-26.9-.9-12.1-1.7-24.6-1.7-30.1,0-15.1.7-27.2,2.3-37.1,1.7-12-4.2-27.2-7.8-31.1-3.5-3.7-11.6-4.2-25.1-4.9h-1.4c-15.1-.7-64.3-1.5-92.4-1.8-15.7-.3-23.7.6-31.4,1.5-6.6.7-13.4,1.5-24.6,1.5h-22.4c-8.3,0-13.3,0-17.9-.3-2.5-.2-4.8-.3-6.9-.3Z"/>
          </g>
          <path d="M356.5,328.7c-.3,0-.7-.1-.9-.4-.4-.5-.4-1.3.1-1.7,12.3-10.6,27.5-22.9,37.8-30.7.5-.4,1.3-.3,1.7.2.4.5.3,1.3-.2,1.7-10.3,7.8-25.4,20.1-37.7,30.6-.2.2-.5.3-.8.3Z"/>
          <path d="M306.9,326c-.3,0-.7-.2-.9-.4-.4-.5-.4-1.3.2-1.7,14.3-12,31.4-24.3,48-36.2,16.5-11.9,32.1-23.1,41.4-31.7.5-.5,1.3-.4,1.7,0,.5.5.4,1.3,0,1.7-9.4,8.7-25.1,20-41.7,31.9-16.5,11.9-33.6,24.2-47.8,36.1-.2.2-.5.3-.8.3Z"/>
          <path d="M266.4,326.6c-.3,0-.6-.1-.8-.3-.5-.5-.5-1.2,0-1.7,12.8-13.1,26.9-24.9,42-37.5,13.2-11,26.8-22.4,40.6-35.5,6.4-6.1,13.3-15,20-23.7,9.1-11.8,17.8-22.9,24.7-26.6.6-.3,1.3,0,1.6.5.3.6,0,1.3-.5,1.6-6.4,3.4-14.9,14.3-23.9,25.9-6.8,8.7-13.7,17.7-20.3,23.9-13.8,13.2-27.5,24.6-40.7,35.6-15,12.5-29.1,24.3-41.8,37.3-.2.2-.6.4-.9.4Z"/>
          <path d="M220.9,326c-.3,0-.6-.1-.9-.4-.5-.5-.5-1.2,0-1.7,5.1-5.1,9.7-9.3,14.5-13.2,7.4-5.9,21.2-19.8,35.8-34.4,15.5-15.6,33-33.2,46.2-44.7,8.6-7.5,16.6-16.7,24.3-25.6,15.2-17.5,30.9-35.6,52.7-42.6.6-.2,1.3.1,1.5.8.2.6-.1,1.3-.8,1.5-21.1,6.8-36.6,24.7-51.6,41.9-7.8,8.9-15.8,18.2-24.5,25.8-13.2,11.4-30.7,29-46.1,44.5-14.6,14.7-28.4,28.6-36,34.6-4.7,3.8-9.2,7.9-14.3,13-.2.2-.5.4-.9.4Z"/>
          <path d="M179.4,326.5c-.3,0-.6-.1-.9-.4-.5-.5-.5-1.2,0-1.7,17-16.7,38.4-38.1,57.2-57,17.8-17.9,33.2-33.3,38.5-38.3,13.8-13,28.4-27.9,46-46.9,2-2.1,4-4.3,6-6.6,16.8-18.4,37.6-41.4,68-38,.7,0,1.1.7,1.1,1.3,0,.7-.7,1.2-1.3,1.1-29.2-3.2-49.5,19.2-65.9,37.3-2.1,2.3-4.1,4.5-6.1,6.6-17.6,19-32.2,34-46.1,47-5.3,5-20.7,20.4-38.5,38.2-18.9,18.9-40.3,40.3-57.2,57-.2.2-.5.4-.8.4Z"/>
          <path d="M137.3,314.8c-.3,0-.6-.1-.9-.4-.5-.5-.4-1.3,0-1.7,8-7.6,18.3-18.9,31.3-33.1l4-4.4c11.5-12.6,29-26.2,44.4-38.1,13.8-10.7,26.7-20.7,33.2-28.3,10.7-12.6,34.4-34,50.1-48.1,4.8-4.3,8.9-8,11.6-10.6,1-1,2.1-2,3.2-3.1,11.7-11.4,27.8-26.9,59.1-31,.7,0,1.3.4,1.4,1,0,.7-.4,1.3-1,1.4-30.5,3.9-46.2,19.2-57.7,30.3-1.1,1.1-2.2,2.1-3.3,3.1-2.8,2.6-6.9,6.3-11.7,10.6-15.7,14.1-39.3,35.5-49.9,47.9-6.6,7.8-19.7,17.9-33.6,28.7-15.4,11.9-32.7,25.4-44.1,37.9l-4,4.4c-13,14.3-23.3,25.6-31.4,33.3-.2.2-.5.3-.8.3Z"/>
          <path d="M141.3,257.7c-.3,0-.7-.1-.9-.4-.4-.5-.4-1.3.1-1.7,3.2-2.9,7-5.9,10.9-9,9.7-7.8,21.9-17.6,35.3-32.2,13.7-14.8,30.8-28,45.9-39.7,10.3-8,19.2-14.9,25.5-21.1,7.5-7.4,11.7-13.7,15.8-19.7,4.4-6.6,8.6-12.9,16.7-20,.5-.4,1.3-.4,1.7.1.4.5.4,1.3-.1,1.7-7.8,6.9-11.9,13.1-16.3,19.6-4.1,6.2-8.4,12.6-16.1,20.1-6.4,6.3-15.4,13.2-25.7,21.2-15,11.6-32,24.8-45.6,39.4-13.6,14.8-25.8,24.6-35.6,32.5-3.9,3.1-7.6,6.1-10.8,8.9-.2.2-.5.3-.8.3Z"/>
          <path d="M135.7,210.9c-.4,0-.9-.3-1.1-.7-.3-.6,0-1.3.5-1.6,36.9-18.4,88.8-67.8,112.8-94.6.5-.5,1.2-.5,1.7,0,.5.4.5,1.2,0,1.7-24.1,27-76.3,76.7-113.5,95.2-.2,0-.4.1-.5.1Z"/>
          <path d="M139.9,164.2c-.4,0-.8-.2-1-.6-.4-.6-.2-1.3.4-1.7,14-8.8,35.3-27.4,55.9-45.6.5-.4,1.3-.4,1.7.1.4.5.4,1.3-.1,1.7-20.7,18.3-42,36.9-56.2,45.8-.2.1-.4.2-.6.2Z"/>
          <path d="M196.2,325.7c-.3,0-.7-.1-.9-.4-1-1.2-1.5-1.6-2.1-2.2-.9-1-2.1-2.2-6.3-7-2.2-2.4-7-6.9-12.6-12-12.2-11.1-28.9-26.4-35.1-36.4-.4-.6-.2-1.3.4-1.7.6-.4,1.3-.2,1.7.4,6.1,9.7,22.6,24.9,34.7,35.9,5.9,5.4,10.6,9.6,12.8,12.2,4.3,4.7,5.4,6,6.3,6.9.6.6,1,1.1,2.1,2.3.4.5.4,1.3,0,1.7-.2.2-.5.3-.8.3Z"/>
          <path d="M238.2,326.5c-.4,0-.8-.2-1-.6l-.5-.8c-16.1-20-33-37.1-45.3-49.5-3.2-3.3-6.2-6.2-8.7-8.8-1.4-1.5-3-3.1-4.7-4.9-12-12.3-30.1-30.9-43.4-52-.4-.6-.2-1.3.4-1.7.6-.4,1.3-.2,1.7.4,13.2,20.9,31.2,39.4,43.1,51.6,1.7,1.8,3.3,3.4,4.7,4.9,2.5,2.6,5.4,5.5,8.6,8.8,12.3,12.5,29.3,29.6,45.5,49.9l.6,1c.3.6.2,1.3-.4,1.7-.2.1-.4.2-.6.2Z"/>
          <path d="M281.8,326.5c-.3,0-.7-.1-.9-.4-11.9-13.9-20.3-23.5-28-31.1-12.9-12.9-25.5-26.6-44.7-51.3-6.6-8.4-15.9-18.7-25.9-29.7-14-15.5-29.9-33.1-43.4-51-.4-.5-.3-1.3.2-1.7.5-.4,1.3-.3,1.7.2,13.4,17.8,29.3,35.4,43.3,50.8,10,11,19.4,21.4,26,29.9,19.1,24.6,31.6,38.2,44.5,51.1,7.8,7.6,16.2,17.3,28.2,31.2.4.5.4,1.3-.1,1.7-.2.2-.5.3-.8.3Z"/>
          <path d="M327.3,325.5c-.3,0-.7-.1-.9-.4l-8.9-10.4c-15.9-18.5-32.3-37.7-46.8-53.3-30.5-32.6-46.6-50.2-62.5-70.5l-15.7-19.4c-13-15.9-27.7-33.9-34.6-54.3-.2-.6.1-1.3.8-1.5.6-.2,1.3.1,1.5.8,6.7,20,21.3,37.8,34.2,53.5l15.7,19.4c15.9,20.2,32,37.7,62.4,70.3,14.5,15.6,31,34.8,46.8,53.4l8.9,10.4c.4.5.4,1.3-.1,1.7-.2.2-.5.3-.8.3Z"/>
          <path d="M382.8,334.7c-.3,0-.6-.1-.9-.4-24.8-26.3-40.6-43.3-53.6-62-8.8-12.8-20.2-25.2-32.2-38.3-11.8-12.9-24.1-26.1-33.9-40.2-11.2-16-22.4-27.6-35.5-41.1-9.4-9.7-20-20.7-31.8-34.7-.4-.5-.4-1.3.1-1.7.5-.4,1.3-.4,1.7.1,11.8,14,22.4,24.9,31.7,34.6,13.1,13.6,24.4,25.3,35.7,41.4,9.8,13.9,22,27.1,33.7,39.9,12.1,13.2,23.6,25.6,32.5,38.6,12.8,18.5,28.6,35.5,53.3,61.7.5.5.4,1.3,0,1.7-.2.2-.5.3-.8.3Z"/>
          <path d="M394.8,295c-.3,0-.6-.1-.8-.3l-1.1-1c-14.5-13.9-32.5-31.1-49.4-53.9-10.4-14-23.5-30.1-37.3-47.2-22.5-27.8-45.8-56.6-58.3-77.2-.3-.6-.2-1.3.4-1.7.6-.3,1.3-.2,1.7.4,12.4,20.5,35.7,49.2,58.2,76.9,13.8,17.1,26.9,33.2,37.4,47.3,16.8,22.6,34.8,39.8,49.2,53.6l1.1,1c.5.5.5,1.2,0,1.7-.2.3-.6.4-.9.4Z"/>
          <path d="M396.4,258c-.4,0-.7-.2-.9-.4-10.3-12.4-17.2-22.4-24.5-33-4.1-5.9-8.3-12.1-13.3-18.9-3.7-5.1-8.8-12.7-14.6-21.5-15.7-23.6-37.2-55.8-52.3-68.6-.5-.4-.6-1.2-.2-1.7.4-.5,1.2-.6,1.7-.2,15.5,13,37,45.4,52.8,69.1,5.8,8.8,10.9,16.3,14.6,21.4,5,6.8,9.3,13,13.4,18.9,7.3,10.5,14.2,20.5,24.4,32.8.4.5.4,1.3-.2,1.7-.2.2-.5.3-.8.3Z"/>
          <path d="M392.8,191.8c-.4,0-.7-.2-1-.5-4.7-6.5-9-13.1-13.1-19.4-13.6-20.8-26.4-40.4-50.8-55.5-.6-.4-.7-1.1-.4-1.7.3-.6,1.1-.7,1.7-.4,24.8,15.3,37.8,35.2,51.5,56.2,4.1,6.3,8.4,12.9,13.1,19.4.4.5.3,1.3-.3,1.7-.2.2-.5.2-.7.2Z"/>
          <path d="M158,335.3c-13.1-2.9-19.2-15.8-21.5-20.6l-.3-.6,2.2-1,.3.6c2.2,4.5,7.9,16.6,19.9,19.3l-.5,2.4Z"/>
          <g>
            <path class="cls-1" d="M389.6,26.4c5.8,0,5,6.1-2.7,12.8-18.1,15.3-92.8,18.1-121.6,18.1s-103.3-2.7-121.4-18.1c-7.9-6.6-8.6-12.8-2.7-12.8h248.5Z"/>
            <path d="M265.3,58.9c-4.1,0-100.9-.2-122.5-18.5-5.5-4.6-8.1-9.3-6.9-12.6.7-1.9,2.6-3,5.2-3h248.5c3.5,0,4.7,1.8,5.1,2.9,1.2,3.2-1.4,8-6.8,12.6-21.5,18.3-118.5,18.5-122.6,18.5ZM141.1,28c-.8,0-1.9.2-2.2.9-.5,1.3.8,4.7,5.9,9,16.5,14,83.4,17.7,120.4,17.7s104.1-3.7,120.5-17.7c5.2-4.4,6.3-7.8,5.9-9.1-.3-.7-1.3-.8-2.1-.8h-248.5Z"/>
          </g>
          <g>
            <g>
              <path class="cls-1" d="M316.8,48.5c22.1,2.6,31.5-4,50.2-2.7,2.9.3,1.3.6-.3,2.9-7.1,10.3-1.5,9,.5,19.5,1.1,8.9-11.5,9.8-1.9,28.7.6,1.5,4.2,5.7,2.6,6.8-1.5,1.1-9.4,1.6-11.8,1.5-13.4-.2-25.5-5-39.9-5.3-14,0-19.5.3-32.9,3.2-9.8,2.1-14,1.3-11.8-6.5,2.7-8.9,3.2-6.1.3-15.8-.5-1.5-.5-2.3-.3-3.7,1.1-4.8,5-15.3,4-19.7-.3-1.3-4.4-10.5-2.7-10.8,13.6-1.8,30.7.3,44.1,1.9h0Z"/>
              <path d="M357.2,106.4c-.5,0-.9,0-1.2,0-6.7,0-13-1.3-19.7-2.6-6.4-1.3-13-2.6-20.1-2.7-14.3,0-19.6.4-32.7,3.2-3.3.7-5.7,1-7.5,1s-4.4-.7-5.4-2c-1.1-1.5-1.2-3.7-.3-7,.5-1.7,1-3,1.3-4q1.3-3.7-.5-9.6l-.5-1.6c-.5-1.6-.5-2.6-.4-4.2.3-1.4.8-3.1,1.4-5,1.4-4.8,3.3-11.4,2.7-14.3,0-.3-.3-1-.7-1.9-2.1-5.5-2.9-8.3-2.2-9.6.2-.4.6-.7,1.1-.8,3.6-.5,7.5-.7,11.9-.7,10.8,0,22.6,1.4,32.1,2.6h.5c3.4.5,6.7.7,9.9.7,6.9,0,12.6-.9,18.1-1.8,6.6-1.1,13.5-2.2,22.1-1.6,1.2.1,2.3.3,2.6,1.2.3.9-.3,1.6-.9,2.2-.3.3-.8.8-1.2,1.4-4.3,6.2-3.6,7.5-2,10.8.9,1.8,2,4.1,2.7,7.9.5,3.7-1.1,6.2-2.6,8.6-2.6,4.1-5.2,8.4.6,19.9.2.4.5.9.9,1.5,1.5,2.2,3.5,5.3,1.3,6.8-2.1,1.6-11.2,1.7-11.3,1.7ZM316.1,98.7c7.3.2,14.1,1.5,20.6,2.8,6.6,1.3,12.7,2.5,19.3,2.6.3,0,.7,0,1.1,0,3.9,0,9.1-.6,9.9-1.2,0-.5-1.3-2.7-1.9-3.6-.5-.7-.9-1.3-1.1-1.8-6.4-12.7-3.1-17.9-.4-22.2,1.4-2.2,2.6-4.1,2.3-6.9-.6-3.3-1.7-5.5-2.5-7.2-1.9-3.9-2.6-6.1,2.2-13.2.3-.4.6-.7.8-1-1.5,0-3-.1-4.4-.1-6.2,0-11.3.8-16.8,1.7-5.6.9-11.4,1.8-18.5,1.8s-6.7-.2-10.2-.6h-.5c-9.4-1.2-21.2-2.6-31.8-2.6s-7.6.2-10.8.6c.2,1.6,1.7,5.6,2.3,7.2.4,1,.7,1.8.8,2.2.8,3.6-1.2,10.2-2.7,15.6-.5,1.8-1,3.4-1.3,4.7-.1,1.2-.1,1.8.3,3.1l.5,1.6c1.9,6.4,2,6.6.5,11-.3,1-.8,2.2-1.3,3.9-.7,2.4-.7,4,0,4.9,1,1.4,4.1,1.4,10.5,0,13.3-2.9,18.7-3.3,33.2-3.3Z"/>
            </g>
            <path d="M363.4,94.1c-.3,0-.5-.1-.7-.4-1.1-1.8-1.8-3.3-2.6-4.8-1.3-2.7-2.5-5-5.1-8-1.5-1.6-3-2.7-4.7-3.8-3-2-6.3-4.3-10.1-10.3-.2-.4-.1-.9.3-1.1.4-.2.9-.1,1.1.3,3.6,5.8,6.6,7.8,9.6,9.8,1.7,1.2,3.4,2.3,5,4.1,2.7,3.1,3.9,5.5,5.3,8.3.7,1.5,1.5,3,2.5,4.7.2.4.1.9-.3,1.1-.1,0-.3.1-.4.1Z"/>
            <path d="M358.1,68.4s0,0-.1,0c-.4,0-.7-.5-.7-.9,1-5.6,2.9-8.8,4.8-12.2.3-.5.6-1.1.9-1.6.2-.4.7-.5,1.1-.3.4.2.5.7.3,1.1-.3.6-.6,1.1-.9,1.6-1.9,3.3-3.7,6.4-4.6,11.7,0,.4-.4.7-.8.7Z"/>
            <path d="M343.7,56.8c0,0-.2,0-.3,0-1.7-.6-3.1-1.2-4.5-1.8-6.8-2.7-10.9-4.3-22.2-5.6-.4,0-.8-.5-.7-.9,0-.4.4-.8.9-.7,11.5,1.4,15.9,3.1,22.6,5.7,1.4.5,2.8,1.1,4.5,1.7.4.2.6.6.5,1-.1.3-.4.5-.8.5Z"/>
            <path d="M288.1,71.9c0,0-.2,0-.3,0-9.6-3.4-10.6-6.6-12.6-12.8l-.5-1.4c-.1-.4,0-.9.5-1,.4-.2.9,0,1,.5l.5,1.4c2,6.1,2.8,8.6,11.6,11.8.4.2.6.6.5,1-.1.3-.4.5-.8.5Z"/>
            <path d="M333.6,102.8c-.1,0-.2,0-.3,0-.1,0-14.5-6.4-22.7-10.7-3.1-1.7-5.5-3.6-7.8-5.5-3.8-3-7.1-5.6-11.7-6-.4,0-.8-.4-.7-.9,0-.4.4-.8.9-.7,5.1.4,8.8,3.3,12.6,6.4,2.3,1.8,4.7,3.7,7.6,5.3,8.1,4.3,22.4,10.6,22.5,10.6.4.2.6.7.4,1.1-.1.3-.4.5-.7.5Z"/>
          </g>
          <g>
            <g>
              <path class="cls-1" d="M255.9,101.3c1.8,4.2-1.9,3.2-7.4,1.8-18.6-4.7-13.9-4.2-33.6-1.5-6.9,1-11.6.2-18.2-1-4.8-.8-7.4-1.3-12.6-1-4.7.6-18.7,3.4-22.6,2.6-1.6-.8,0-12.1,0-14.2v-3.9c-.2-5.3-1-7.3,2.9-12.1,2.6-3.9,1-7.1,0-11-1-3.1-5.7-10.8-5.2-12.9.5-1.5,2.4-1.6,5-1.8,9.5-.3,18.1.8,27.9.3,17.6-.8,13.7-1.1,29.2,2.1,6.9,1.5,11.3.5,18.7-.3,1.8-.2,20.3-2.3,20.8-1.8.6,1-10.8,9-9.4,14.7,1.6,5.8,4.7,5.8,2.7,12.9-1,3.1-1.6,4.4-1.8,7.7.2,6.9.6,12.4,3.4,19.2h0Z"/>
              <path d="M254.6,105.6c-1.6,0-3.8-.6-6.4-1.3l-4.2-1.1c-11.6-3-11.2-3-22.1-1.4-1.9.3-4.1.6-6.8,1-2.1.3-4.1.4-6.1.4-4.2,0-7.8-.6-12.4-1.4h-.7c-4.4-.9-6.9-1.3-11.7-1-1,.1-2.5.4-4.3.7-6.4,1.1-15.6,2.5-18.6,1.9h-.3c-1.7-.9-1.7-4.1-.9-12.5.1-1.3.2-2.4.2-2.9v-3.9c0-.7,0-1.4,0-2.1-.2-3.9-.3-6.3,3.3-10.8,1.8-2.7,1.1-5.1.3-8.1-.2-.6-.3-1.2-.5-1.8-.3-1-1.2-2.7-2.1-4.6-2.2-4.5-3.5-7.3-3.1-8.9.8-2.4,3.5-2.5,6.1-2.7,4.6-.2,8.9,0,13.2.2,4.8.2,9.6.4,14.7.1l5.3-.3q10.7-.5,20.2,1.5l4,.9c5.1,1.1,9.4.7,14.9,0,1.1-.1,2.2-.3,3.4-.4.4,0,1.2-.1,2.5-.3,4.9-.5,15-1.6,17.8-1.6s1.2,0,1.5.4c.9,1.3,0,2.3-2.3,4.5-2.6,2.6-7.5,7.5-6.7,10.7.5,1.8,1.2,3.1,1.8,4.2,1.3,2.3,2.3,4.2.9,9.4l-.5,1.6c-.7,2.1-1.1,3.3-1.2,5.9.2,7.2.8,12.4,3.3,18.7.4,1,.9,2.4.1,3.6-.5.7-1.4,1.1-2.6,1.1ZM231.4,98.4c3.4,0,6.3.7,13.2,2.5l4.2,1.1c2.3.6,4.5,1.2,5.8,1.2s.5,0,.6,0c0,0,0-.4-.4-1.3-2.7-6.7-3.3-12.1-3.5-19.7.1-3,.6-4.5,1.3-6.6l.5-1.5c1.1-4.1.4-5.4-.7-7.5-.6-1.2-1.4-2.6-2-4.7-1.2-4.5,4-9.6,7.4-13,.3-.2.5-.5.8-.8-3.9.2-11.7,1.1-15.8,1.5-1.3.1-2.2.2-2.5.3-1.2.1-2.3.3-3.4.4-5.8.7-10.3,1-15.7,0l-4.1-.9q-9.4-2-19.6-1.5l-5.3.3c-5.2.3-10.1,0-14.9-.1-4.3-.2-8.5-.3-13-.2-1.7.1-3.7.2-3.9.9-.2.8,1.9,5,2.9,7.2.9,1.9,1.8,3.8,2.2,5,.2.7.3,1.3.5,1.8.9,3.2,1.8,6.5-.7,10.2-3.1,3.9-3,5.6-2.8,9.2,0,.7,0,1.4.1,2.2v3.9c0,.6-.1,1.7-.2,3.1-.2,2.3-.8,8.4-.3,9.9.3,0,.8,0,1.2,0,3.9,0,10.9-1.2,16.1-2,1.8-.3,3.4-.6,4.4-.7,1.2,0,2.2-.1,3.2-.1,3.3,0,5.6.4,9.2,1h.6c4.6.9,8.1,1.5,12.1,1.5s3.8-.1,5.8-.4c2.7-.4,4.9-.7,6.8-1,4.6-.7,7.3-1.1,9.8-1.1Z"/>
            </g>
            <path d="M231.4,71.6c-.3,0-.5-.1-.7-.3-.3-.4-.2-.9.2-1.1,11.6-8.4,20.4-12.2,20.5-12.2.4-.2.9,0,1.1.4.2.4,0,.9-.4,1.1,0,0-8.8,3.8-20.2,12-.1.1-.3.2-.5.2Z"/>
            <path d="M192,76.8s0,0-.1,0c-7.6-1-12-2-18.1-4.1-6.4-2-9.9-10-10-10.3-.2-.4,0-.9.4-1.1.4-.2.9,0,1.1.4,0,0,3.3,7.6,9,9.4,6,2.1,10.3,3,17.8,4,.4,0,.8.5.7.9,0,.4-.4.7-.8.7Z"/>
            <path d="M165.4,89.5c-.3,0-.6-.2-.7-.4-4.7-8.8-3.7-12.4-3.6-12.7.2-.4.6-.7,1-.5.4.1.6.6.5,1,0,0-.9,3.4,3.5,11.5.2.4,0,.9-.3,1.1-.1,0-.3,0-.4,0Z"/>
            <path d="M190.1,89.5c0,0-.1,0-.2,0-11.3-3.1-12-3.5-14.3-5.3-.6-.5-1.4-1.1-2.7-1.9-3.6-2.3-5.5-5.9-5.9-7-.2-.4,0-.9.4-1.1.4-.2.9,0,1.1.4.4.9,2.1,4.2,5.4,6.3,1.3.9,2.1,1.5,2.8,2,2,1.6,2.5,1.9,13.8,5,.4.1.7.6.6,1-.1.4-.4.6-.8.6Z"/>
            <path d="M228,100.7c-.4,0-.8-.3-.8-.7,0-.4.3-.8.7-.9,0,0,8.5-.7,13.6-3,.4-.2.9,0,1.1.4.2.4,0,.9-.4,1.1-5.4,2.5-13.8,3.1-14.2,3.1,0,0,0,0,0,0Z"/>
            <path d="M188.9,100.5c0,0-.1,0-.2,0-.3,0-8.1-1.8-11.7-4.1-.4-.2-.5-.7-.2-1.1.2-.4.7-.5,1.1-.2,3.4,2.2,11.1,3.9,11.2,3.9.4,0,.7.5.6,1,0,.4-.4.6-.8.6Z"/>
            <path d="M211.7,54.7c-6.1,0-14-.5-22.9-2.1-.4,0-.7-.5-.6-.9,0-.4.5-.7.9-.6,19.3,3.6,34.1,1.5,34.3,1.4.5,0,.9.2.9.7,0,.4-.2.9-.7.9,0,0-4.6.7-11.9.7Z"/>
          </g>
          <g>
            <g>
              <path class="cls-1" d="M323.7,133.6c12.1-5.2,19.1-.6,29.5-4.4,1.8-.6.6-.8-.8-2.6-6.3-8.1-2.9-7.7-4-17.1-1.3-7.9-8.9-7.1-7.6-25,.2-1.5,1.3-5.5,0-6.3-1-.8-5.8,0-7.1.3-7.7,2.1-13.7,8.1-22,10.2-8.1,1.9-11.5,2.4-19.9,1.8-6.1-.5-8.4.8-5.3,7.1,3.6,7.6,3.2,5.2,3.7,13.9,0,1.3.3,2.1.6,3.4,1.8,4,6.3,12.8,6.8,16.6,0,1.3-.2,9.8.8,9.8,8.2-.2,17.6-4.5,25.2-7.7h0Z"/>
              <path d="M298.6,142.6h-.5l-.5-.4c-.6-.6-1.1-1.8-1-10.1v-.5c-.3-2.6-3.1-8.4-5-12.6-.6-1.4-1.2-2.6-1.6-3.5l-.3-1c-.2-.9-.5-1.7-.5-2.9v-1.3q-.4-5.4-2-8.7c-.4-.9-1-1.9-1.6-3.4-1.6-3.3-1.9-5.4-.9-7,1.1-1.8,3.5-2,5.3-2s1.4,0,2.2,0c2.4.2,4.2.3,5.9.3,4.4,0,7.8-.6,13.6-2,4-1,7.6-3.1,11.1-5.1,3.4-2,6.9-4,10.8-5,1-.3,3.7-.7,5.6-.7s2.1.2,2.6.6c1.6,1,1,3.9.6,6.2,0,.5-.2.9-.2,1.1-.8,11,1.9,14.6,4.2,17.7,1.4,1.9,2.8,3.8,3.3,6.9.4,3.3.3,5.4.2,7.1-.2,3.1-.3,4.5,3.6,9.5.4.4.7.8,1,1,.6.5,1.1,1.1,1,2-.2.9-1.1,1.2-1.7,1.4-4.5,1.6-8.4,1.7-11.8,1.7h-3.4c-4.1,0-8.6.2-14.3,2.6l-2.1.9c-7.4,3.2-15.8,6.8-23.6,7h0ZM289.8,91.6c-2.2,0-3,.4-3.2.8-.2.4-.4,1.5,1.1,4.6.7,1.4,1.2,2.5,1.6,3.3,1.8,3.6,1.8,3.8,2.2,9.6v1.4c0,.9.2,1.5.5,2.3l.2.8c.4.8.9,2,1.5,3.3,2.2,4.6,4.9,10.3,5.3,13.5v.7c0,5.2.2,7.3.3,8.1,7.1-.4,15-3.7,21.9-6.7l2.1-.9c6.1-2.6,10.9-2.8,15.3-2.8h3.4c3.1,0,6.5,0,10.4-1.4-.2-.2-.5-.5-.8-.9-4.3-5.5-4.4-7.4-4.2-11.1.1-1.6.2-3.6-.1-6.6-.4-2.5-1.6-4.1-2.9-5.8-2.6-3.5-5.6-7.5-4.7-19.4,0-.4.1-.8.2-1.4.2-.9.6-3.4.3-3.9,0,0-.2,0-1.1,0-1.6,0-4.1.4-5,.6-3.6,1-6.8,2.8-10.2,4.8-3.6,2.1-7.4,4.3-11.8,5.4-6,1.4-9.5,2.1-14.2,2.1s-3.7,0-6.1-.3c-.7,0-1.4,0-2,0Z"/>
            </g>
            <path d="M333.7,115.7s0,0-.1,0c-.4,0-.7-.5-.7-.9.8-5.9,2.3-8.4,3.6-10.6.7-1.2,1.3-2.3,1.8-3.9.8-2.9,1-5.1,1.1-7.6.1-1.4.2-2.9.4-4.7,0-.4.5-.7.9-.7.4,0,.8.5.7.9-.2,1.7-.3,3.2-.4,4.6-.2,2.5-.4,4.9-1.2,8-.5,1.8-1.2,3-1.9,4.2-1.2,2.1-2.6,4.4-3.4,10,0,.4-.4.7-.8.7Z"/>
            <path d="M349.6,123.3c-.3,0-.5-.1-.7-.4-.4-.6-.7-1.1-1.1-1.7-1.7-2.5-3.5-5.2-5.1-9.6-.2-.4,0-.9.5-1,.4-.2.9,0,1,.5,1.6,4.3,3.2,6.7,4.9,9.3.4.6.8,1.1,1.1,1.7.2.4.1.9-.2,1.1-.1,0-.3.1-.4.1Z"/>
            <path d="M323.7,134.4c-.3,0-.6-.2-.7-.5-.2-.4,0-.9.4-1.1,6-2.6,8.1-4.6,11.2-7.6.7-.7,1.5-1.5,2.5-2.4.3-.3.8-.3,1.1,0,.3.3.3.8,0,1.1-.9.9-1.7,1.6-2.4,2.4-3.1,3.1-5.4,5.3-11.7,8-.1,0-.2,0-.3,0Z"/>
            <path d="M297.7,132.3c-.4,0-.8-.3-.8-.8v-1.8c-.2-5.5-.3-8.2,4.5-12.5.3-.3.8-.3,1.1,0,.3.3.3.8,0,1.1-4.2,3.8-4.2,6-4,11.3v1.8c0,.4-.3.8-.7.8h0Z"/>
            <path d="M301.8,110.7c-.3,0-.6-.2-.8-.5-.2-.4,0-.9.5-1,2.4-.9,3.7-3.6,5.3-6.7,1-2,2-4,3.4-6,3.7-5,10.6-12.4,10.7-12.5.3-.3.8-.3,1.1,0,.3.3.3.8,0,1.1,0,0-7,7.5-10.6,12.4-1.3,1.8-2.3,3.8-3.3,5.7-1.6,3.3-3.1,6.4-6.2,7.5,0,0-.2,0-.3,0Z"/>
          </g>
        </g>
        <g>
          <g>
            <path class="cls-1" d="M37.8,105.7h6.1c1.6,0,2.4-1.3,2.7-2.7l.8-3.1h63.9l.8,3.1c.3,1.5,1.3,2.7,2.7,2.7h6.1c1.6,0,2.7-1.3,2.7-2.7V29.2c0-1.5-1.3-2.7-2.7-2.7H37.8c-1.5,0-2.7,1.3-2.7,2.7v73.8c0,1.5,1.3,2.7,2.7,2.7h0Z"/>
            <path d="M121.1,107.3h-6.1c-2.1,0-3.8-1.6-4.3-4l-.5-1.8h-61.4l-.5,1.9c-.5,2.4-2.2,3.9-4.3,3.9h-6.1c-2.4,0-4.4-2-4.4-4.4V29.2c0-2.4,2-4.4,4.4-4.4h83.3c2.4,0,4.4,2,4.4,4.4v73.8c0,2.4-1.9,4.4-4.4,4.4ZM46.3,98.3h66.4l1.1,4.3c.2.8.6,1.5,1.2,1.5h6.1c.7,0,1.1-.6,1.1-1.1V29.2c0-.6-.6-1.1-1.1-1.1H37.8c-.6,0-1.1.6-1.1,1.1v73.8c0,.6.6,1.1,1.1,1.1h6.1c.2,0,.8,0,1.2-1.5l1.1-4.3Z"/>
          </g>
          <g>
            <path class="cls-1" d="M79.5,107.1c2.4,0,4.5-1.9,4.5-4.4v-2.9h-8.9v2.9c0,2.4,1.9,4.4,4.4,4.4h0Z"/>
            <path d="M79.5,108.8c-3.3,0-6-2.7-6-6v-4.5h12.1v4.5c0,3.3-2.7,6-6.1,6ZM76.7,101.5v1.3c0,1.5,1.2,2.7,2.7,2.7s2.9-1.3,2.9-2.7v-1.3h-5.7Z"/>
          </g>
          <g>
            <path d="M108.4,67c-3.7,0-7.4-1.7-10.3-4.6-4-4.3-9.5-1.6-9.6-1.6l-1.4-2.9c2.7-1.3,8.9-2.5,13.3,2.3,2.4,2.5,5.8,3.8,8.9,3.5,2.7-.3,5-1.9,6.7-4.6,1.9-3.2,2.2-7.4.8-11-1.2-3-3.3-5.1-5.8-5.8-3.9-1.1-6.7-3-8.1-5.8-1.5-2.9-1.5-6.5,0-10.7l3,1.1c-1.2,3.3-1.3,6-.2,8.1,1,1.9,3.1,3.3,6.1,4.2,3.4.9,6.4,3.8,7.9,7.7,1.8,4.6,1.5,9.8-1,13.9-2.8,4.5-6.5,5.8-9.1,6.1-.4,0-.9,0-1.3,0Z"/>
            <g>
              <path class="cls-1" d="M49.9,78.9c-2.3-3.4,1.6-6.8-.8-10.2-2.6-3.4-6.8-1.9-7.9-6.1-1.1-4,6.8-8.6,4.4-12.4-2.4-3.7-3.2-6.6-.8-8.4,2.4-1.9,9.8,2.6,10.8-2.7,1.1-5.2,1.9-6.6,4.7-6.8,2.7-.2,5.2,8.4,10.3,4.5,5.2-3.9,9-4.2,10,1.8.8,6,3.2,6.6,7.9,7.3,4.7.6,5.8,7.3,3.2,9.2-2.7,1.8-5.3,3.7-2.6,7.9,2.7,4.2,1,8.7-4.4,8.9-5.5.2-8.7.2-8.2,5.7.5,5.5-5.3,7.4-8.7,3.9-2.7-3.2-5-5.2-9.2-2.6-3.4,2.1-7.6,2.1-8.7.2h0Z"/>
              <path d="M71.9,84.3c-1.8,0-3.5-.8-4.9-2.2-2.8-3.3-4.5-4.3-7.7-2.4-3.8,2.3-8.9,2.2-10.4-.3-1.4-2-.9-4.1-.5-5.9.4-1.8.6-3-.3-4.2-.9-1.2-2.1-1.7-3.4-2.1-1.8-.7-3.9-1.5-4.7-4.4-.7-2.4,1-4.7,2.6-6.9,1.7-2.4,2.7-3.9,1.9-5.2-1.2-1.9-4.6-7-.5-10,1-.8,3-.8,5.3-.5.9.1,1.7.2,2.5.2,1.8,0,2.3-.6,2.5-1.7,1.1-5.1,2.1-7.6,5.8-7.8h0c1.7,0,2.8,1.3,4,2.7,1.7,2,3.3,3.8,5.6,2,2.8-2.1,5-3.1,6.9-3.1s4.3,1,5,5.6c.7,5.2,2.3,5.6,6.9,6.3,2.6.4,4.6,2.3,5.4,5.1.7,2.5,0,5.1-1.6,6.3-1.6,1-3,2-3.2,3.2-.2.8.1,1.8.9,3,1.6,2.5,1.9,5.2.8,7.4-1.1,2.1-3.3,3.3-6.1,3.4-3.3,0-5.6.2-6.5,1.2-.5.6-.7,1.6-.6,3.2.2,2-.4,3.8-1.6,5.1-1.1,1.2-2.7,1.9-4.4,1.9ZM62.2,76.3c2.8,0,4.7,2,6.6,4.2,1.6,1.6,4.3,1.8,5.7.3.7-.8,1-1.9.9-3.3-.2-2.3.2-3.9,1.2-5,1.6-1.8,4.4-1.9,8-2,2.2,0,3.7-.8,4.3-2.1.7-1.4.5-3.2-.7-4.9-1.2-1.8-1.6-3.4-1.3-4.9.5-2.1,2.3-3.5,4.2-4.7.7-.6,1-2.1.6-3.7-.2-.7-1-3-3.4-3.3-5-.7-8-1.6-8.9-8.3-.6-3.6-2.1-3.6-2.6-3.6-.9,0-2.6.4-5.5,2.6-1.1.8-2.2,1.3-3.3,1.3-2.5,0-4.2-2-5.6-3.6-.7-.8-1.6-1.9-2.1-1.9-1.8.1-2.4.6-3.6,5.8-.4,2.4-2.1,3.7-4.8,3.7s-1.9-.1-2.9-.3c-.8-.1-1.6-.2-2.3-.2s-1.1.1-1.2.3c-1.1.8-1.9,2.3,1.1,6.8,1.7,2.8-.3,5.5-2,7.9-1.3,1.7-2.6,3.5-2.2,4.8.4,1.7,1.4,2.1,3.2,2.8,1.4.5,3.2,1.2,4.5,3,1.6,2.2,1.1,4.4.7,6.2-.4,1.8-.6,2.9.2,4.1.8,1.3,4.5,1.1,7.1-.5,1.5-.9,2.9-1.4,4.2-1.4Z"/>
            </g>
            <path d="M66.7,61.2c-2,0-3.6-1.8-3.6-4s1.7-4,3.6-4,3.5,1.8,3.5,4-1.6,4-3.5,4ZM66.7,55.7c-.5,0-1.2.7-1.2,1.5s.7,1.5,1.2,1.5,1.1-.7,1.1-1.5-.5-1.5-1.1-1.5Z"/>
            <path d="M66.2,74.3c-.7,0-1.2-.5-1.2-1.2s.5-1.2,1.2-1.2c3.1,0,6.1-.9,8.5-2.5.5-.4,1.3-.2,1.7.3.4.6.2,1.3-.3,1.7-2.8,1.9-6.3,3-9.9,3ZM78.8,68.5c-.3,0-.5,0-.8-.3-.5-.4-.6-1.2-.2-1.7,2.2-2.7,3.4-6,3.4-9.4,0-5.9-3.8-11.4-9.4-13.7-.6-.3-.9-1-.7-1.6.3-.6.9-.9,1.6-.7,6.5,2.7,10.9,9.1,10.9,16s-1.4,7.8-4,10.9c-.2.3-.6.4-.9.4ZM52.3,66.9c-.4,0-.8-.2-1-.5-1.7-2.6-2.6-5.7-2.6-9.2s.1-3.5.9-5.5c.2-.6.9-.9,1.6-.7.6.2.9,1,.7,1.6-.5,1.3-.7,2.6-.7,4.6,0,3,.7,5.7,2.2,7.9.4.6.2,1.3-.3,1.7-.2.1-.4.2-.7.2ZM52,50.2c-.2,0-.4,0-.6-.2-.6-.4-.7-1.1-.4-1.7,3.2-5.2,9.1-8.5,15.2-8.5s1.2.5,1.2,1.2-.5,1.2-1.2,1.2c-5.3,0-10.4,2.8-13.2,7.3-.2.4-.6.6-1,.6Z"/>
          </g>
        </g>
        <g>
          <g>
            <path class="cls-1" d="M493.7,105.7h-6.3c-1.5,0-2.4-1.3-2.7-2.7l-.6-3.1h-64.1l-.6,3.1c-.5,1.5-1.3,2.7-2.7,2.7h-6.3c-1.5,0-2.7-1.3-2.7-2.7V29.2c0-1.5,1.3-2.7,2.7-2.7h83.5c1.5,0,2.6,1.3,2.6,2.7v73.8c0,1.5-1.1,2.7-2.6,2.7h0Z"/>
            <path d="M493.7,107.3h-6.3c-2.1,0-3.8-1.6-4.3-4l-.4-1.8h-61.5l-.4,1.8c-1.1,3.4-3,4-4.3,4h-6.3c-2.4,0-4.4-2-4.4-4.4V29.2c0-2.4,2-4.4,4.4-4.4h83.5c2.3,0,4.2,2,4.2,4.4v73.8c0,2.4-1.9,4.4-4.2,4.4ZM418.6,98.3h66.7l.9,4.3c.2.7.6,1.5,1.2,1.5h6.3c.5,0,1-.5,1-1.1V29.2c0-.6-.5-1.1-1-1.1h-83.5c-.6,0-1.1.6-1.1,1.1v73.8c0,.6.6,1.1,1.1,1.1h6.3c.6,0,1-.9,1.2-1.6l.9-4.2Z"/>
          </g>
          <g>
            <path class="cls-1" d="M451.9,107.1c-2.4,0-4.4-1.9-4.4-4.4v-2.9h8.9v2.9c0,2.4-2.1,4.4-4.5,4.4h0Z"/>
            <path d="M451.9,108.8c-3.3,0-6-2.7-6-6v-4.5h12.1v4.5c0,3.3-2.8,6-6.1,6ZM449.2,101.5v1.3c0,1.5,1.2,2.7,2.7,2.7s2.9-1.3,2.9-2.7v-1.3h-5.7Z"/>
          </g>
          <g>
            <path d="M423,67c-.5,0-.9,0-1.4,0-2.6-.3-6.3-1.6-8.9-6.1-2.5-4.1-2.8-9.3-1-13.9,1.6-3.9,4.5-6.8,7.9-7.7,3-.8,5-2.2,6.1-4.2,1.1-2.1,1-4.8-.2-8l3-1.1c1.5,4.1,1.5,7.7,0,10.6-1.4,2.8-4.2,4.8-8.1,5.9-2.4.7-4.6,2.8-5.8,5.8-1.5,3.6-1.2,7.8.8,11,1.6,2.6,3.8,4.2,6.5,4.5,3.1.4,6.6-1,9-3.5,4.5-4.8,10.6-3.6,13.2-2.3l-1.4,2.9c-.2-.1-5.5-2.6-9.4,1.6-2.8,2.9-6.7,4.6-10.4,4.6Z"/>
            <g>
              <path class="cls-1" d="M481.5,78.9c2.3-3.4-1.6-6.8,1-10.2,2.6-3.4,6.8-1.9,7.9-6.1,1-4-6.9-8.6-4.4-12.4,2.4-3.7,3.2-6.6.8-8.4-2.4-1.9-9.8,2.6-11-2.7-1.1-5.2-1.8-6.6-4.5-6.8-2.9-.2-5.3,8.4-10.5,4.5-5.2-3.9-9-4.2-9.8,1.8-1,6-3.2,6.6-7.9,7.3-4.7.6-5.8,7.3-3.2,9.2,2.6,1.8,5.3,3.7,2.6,7.9-2.7,4.2-1.1,8.7,4.4,8.9,5.5.2,8.6.2,8.1,5.7-.5,5.5,5.3,7.4,8.7,3.9,2.9-3.2,5.2-5.2,9.4-2.6,3.2,2.1,7.4,2.1,8.6.2h0Z"/>
              <path d="M459.5,84.3c-1.7,0-3.3-.7-4.4-1.9-1.2-1.3-1.7-3.1-1.6-5.1.1-1.6,0-2.6-.5-3.2-.9-1-3.2-1-6.1-1.1-3.2,0-5.4-1.3-6.4-3.3-1.1-2.1-.8-4.9.9-7.4,2-3.1.5-4.3-2.3-6.2-1.6-1.2-2.3-3.7-1.6-6.3.7-2.8,2.8-4.8,5.4-5.1,4.5-.6,6-1.1,6.9-6.3.6-4.6,3-5.6,4.9-5.6s4.1,1,6.9,3.1c2.3,1.7,3.9,0,5.6-2,1.3-1.4,2.4-2.8,4-2.8,4,.2,4.7,2.8,5.8,7.7.2,1.1.7,1.8,2.6,1.8s1.7-.1,2.6-.2c2.3-.3,4.3-.3,5.4.5,4,3,.7,8.1-.6,10-.9,1.3.1,2.9,1.9,5.3,1.6,2.1,3.2,4.4,2.6,6.8-.8,3-2.9,3.7-4.7,4.4-1.3.5-2.5.9-3.5,2.2-.9,1.2-.7,2.4-.4,4.2.4,1.8.8,3.8-.6,5.9-.7,1.2-2.3,2-4.4,2h0c-2,0-4.1-.7-5.8-1.8-3.1-1.9-4.8-1-7.8,2.4-1.4,1.4-3.1,2.2-4.9,2.2ZM454.6,35.1c-.5,0-2,0-2.5,3.6-1.1,6.9-4.1,7.6-8.9,8.3-2.4.3-3.2,2.6-3.4,3.3-.4,1.5-.1,3.1.7,3.7,2.3,1.6,6.3,4.3,2.9,9.5-1.2,1.8-1.4,3.6-.7,5,.7,1.3,2.1,2,4.1,2,3.9.1,6.5.2,8.1,1.9,1,1.1,1.4,2.7,1.2,5-.1,1.3.2,2.5.9,3.3,1.4,1.5,4.1,1.4,5.7-.3,2-2.3,4-4.2,6.7-4.2s2.7.4,4.2,1.4c1.4.9,3,1.4,4.5,1.4h0c1.1,0,2-.3,2.3-.8.8-1.2.6-2.4.3-4.1-.4-1.8-.9-4,.8-6.2,1.4-1.8,3.1-2.4,4.5-3,1.8-.7,2.7-1.1,3.2-2.7.3-1.3-1-3-2.2-4.7-1.8-2.5-3.8-5.3-2-8.1,2.9-4.5,2.2-5.9,1.1-6.7-.2-.1-.5-.3-1.3-.3s-1.5.1-2.3.2c-1,.1-2,.3-2.9.3-2.8,0-4.4-1.2-5-3.7-1.2-5.5-1.7-5.7-3.4-5.8h0c-.5,0-1.5,1.1-2.2,2-1.4,1.6-3.1,3.6-5.6,3.6s-2.2-.4-3.3-1.3c-2.8-2.1-4.5-2.6-5.4-2.6Z"/>
            </g>
            <path d="M464.8,61.2c-2,0-3.6-1.8-3.6-4s1.7-4,3.6-4,3.5,1.8,3.5,4-1.6,4-3.5,4ZM464.8,55.7c-.5,0-1.2.7-1.2,1.5s.7,1.5,1.2,1.5,1.1-.7,1.1-1.5-.5-1.5-1.1-1.5Z"/>
            <path d="M465.3,74.3c-3.7,0-7-1-9.9-3-.6-.4-.7-1.1-.3-1.7.4-.6,1.2-.7,1.7-.3,2.4,1.7,5.3,2.5,8.5,2.5s1.2.5,1.2,1.2-.5,1.2-1.2,1.2ZM452.7,68.5c-.3,0-.7-.1-.9-.4-2.7-3.1-4.2-6.9-4.2-11,0-6.9,4.4-13.3,10.9-16,.6-.3,1.3,0,1.6.7.3.6,0,1.3-.7,1.6-5.6,2.3-9.4,7.8-9.4,13.7s1.3,6.8,3.6,9.4c.4.5.4,1.3-.1,1.7-.2.2-.5.3-.8.3ZM479,66.9c-.2,0-.5,0-.7-.2-.6-.4-.7-1.1-.3-1.7,1.6-2.3,2.4-5.1,2.4-7.9s-.2-2.9-.8-4.7c-.2-.6.2-1.3.8-1.5.7-.2,1.3.2,1.5.8.6,1.9.9,3.7.9,5.4,0,3.3-1,6.5-2.8,9.2-.2.4-.6.5-1,.5ZM479.4,50.2c-.4,0-.8-.2-1-.6-2.6-4.5-7.6-7.3-13-7.3s-1.2-.5-1.2-1.2.5-1.2,1.2-1.2c6.2,0,12,3.3,15.1,8.5.3.6.1,1.3-.4,1.7-.2.1-.4.2-.6.2Z"/>
          </g>
        </g>
      </g>
    </g>
  </g>
</svg>