<?xml version="1.0" encoding="UTF-8"?>
<svg xmlns="http://www.w3.org/2000/svg" version="1.1" viewBox="0 0 383 390.8">
  <defs>
    <style>
      .cls-1 {
        fill-rule: evenodd;
      }

      .cls-1, .cls-2 {
        fill: #fff;
      }
    </style>
  </defs>
  <!-- Generator: Adobe Illustrator 28.6.0, SVG Export Plug-In . SVG Version: 1.2.0 Build 709)  -->
  <g>
    <g id="Layer_1">
      <g>
        <g>
          <g>
            <path class="cls-1" d="M373.6,147.9c-.2,11.5,3.4,34.9,1.3,40-2.4,5.5-1.8,20.8-1.8,24.5s1.8,14.9-.2,22.8c-2.1,7.9-1.6,17.4-.8,23.9.8,6.5,1.6,14.9,0,20.2-1.5,5.5,1.6,17.8.6,27.3-.6,6.6-.3,12.8-.2,15.8.2,2.6-.5,1.9-3.9,2.1-5.8.3-18.7.8-27.1,1.3-10.5.8-19.2.8-25.2-.6s-9.8-1.6-19.5.3c-5.7,1.1-11.3,2.1-15,2.7-5.8,1-4.2,1.8-4.2-3.6.2-3.2.2-8.9-.2-18.2-.5-19.2.3-24.9,1-35,.8-10.2-1-23.2-.5-27.6.5-4.5-.6-8.1-1.6-13.6-1.1-5.3,1.5-10.2,1-14.7-.5-4.4-.8-7.1.2-24.5.6-11.9-.6-31.2-1-36-.3-3.9-.8-4.8,3.9-6.3,5.3-1.8,16.5-4.7,28.3-3.1,17,2.1,21.3-.2,27.8,1.5,6.5,1.6,12.8-1.5,18.6-1.6,5.3,0,6.5.2,13.7.2,3.6-.2,4.8-.6,4.8,2.3h0Z"/>
            <path d="M278,330.2c-.5,0-1-.2-1.3-.5-.5-.6-.5-1.3-.4-2.3,0-.6.1-1.5.1-2.6.2-3.7.1-9.8-.2-18.2-.4-15.9,0-22.5.6-30.1.1-1.6.2-3.3.4-5.1.5-5.8,0-12.7-.3-18.2-.2-4.2-.4-7.5-.2-9.5.4-3.3-.2-6.1-.9-9.6-.2-1.1-.5-2.3-.7-3.6-.7-3.2-.1-6.2.4-8.9.4-2.1.8-4,.6-5.8-.5-4.4-.8-7.3.2-24.7.4-7.8.1-19.8-1-35.7v-.9c-.4-3.8-.1-5.2,4.7-6.7,4-1.3,12.2-3.6,21.5-3.6s4.9.2,7.3.5c5.2.6,9.7.9,14.2.9s3.1,0,4.4,0c4-.1,6.6,0,9.2.6,3.4.8,7.5.2,11.3-.6,2.3-.5,4.6-1,6.9-1h0c2.5,0,4,0,5.7,0,2,0,4.1,0,8,0h1.1c.6-.1,1.1-.1,1.6-.1,2.4,0,3.4,1.1,3.4,3.6,0,4.5.5,11,1,17.3.8,10.2,1.6,19.8.2,23.2-2,4.5-1.8,16.8-1.7,22,0,.9,0,1.6,0,2.1,0,.9.1,2.2.2,3.9.4,5.2,1.1,13.1-.4,19.2-2.2,8.3-1.4,18.2-.8,23.5.9,7.2,1.6,15.3,0,20.7-.7,2.5-.2,7.1.2,11.9.5,4.9,1,10.4.5,15.2-.6,6.5-.3,12.7-.2,15.6,0,1,0,2-.6,2.6-.7.7-1.6.7-2.8.7-.4-.1-1,0-1.7,0-2.5.1-6.4.3-10.6.5-5.5.2-11.8.5-16.5.8-11.9.9-19.9.7-25.5-.7-5.3-1.3-9.1-1.7-19,.3-5.3,1.1-10.5,2-14.2,2.6h-.8c-1,.3-1.8.5-2.4.6-.8.2-1.3.3-1.7.3ZM301.5,146.4c-9,0-16.9,2.2-20.7,3.5-3.4,1.1-3.4,1.2-3.1,4.2v.8c1.1,16.1,1.5,28.2,1,36.2-1,17.2-.6,20-.2,24.3.2,2.3-.2,4.5-.6,6.6-.5,2.6-1,5.3-.4,8,.2,1.3.5,2.5.7,3.6.7,3.7,1.3,6.7.9,10.4-.2,1.7,0,5.1.2,9.1.3,5.6.7,12.5.3,18.5-.1,1.8-.2,3.4-.4,5.1-.5,7.6-1,14.1-.6,29.9.3,8.4.3,14.6.2,18.3,0,1.2,0,2.1-.1,2.8,0,0,0,0,0,0,.1,0,.3,0,.5,0,.6-.1,1.4-.3,2.5-.5h.8c3.7-.8,8.9-1.7,14.2-2.7,5.1-1,8.6-1.5,11.6-1.5s5.1.3,8.5,1.2c5.4,1.3,13.2,1.5,24.8.6,4.8-.3,11-.6,16.6-.8,4.2-.2,8.1-.4,10.6-.5,1.2,0,2.2,0,2.7,0,0-.1,0-.4,0-.8-.2-3-.5-9.3.2-16,.5-4.6,0-10-.5-14.7-.5-5.2-.9-9.8-.1-12.8,1.5-5,.8-13.2,0-19.7-.7-5.4-1.5-15.7.8-24.4,1.4-5.7.8-13.4.4-18.4-.1-1.7-.3-3.1-.3-4s0-1.2,0-2.1c-.1-5.8-.3-18,1.9-23,1.1-2.8.3-13-.4-22.1-.5-6.3-1-12.9-1-17.5,0-.9-.1-1.1-.2-1.1,0,0-.8-.1-2.2,0h-1.2c0,0-.1,0-.2,0-3.9,0-6,0-7.9,0-1.7,0-3.2,0-5.7,0-2,0-4.2.5-6.4,1-4,.8-8.6,1.6-12.4.6-2.4-.6-4.9-.6-8.6-.5-1.3,0-2.8,0-4.5,0-4.6,0-9.2-.3-14.5-1-2.2-.3-4.6-.5-7-.5Z"/>
          </g>
          <path d="M344.2,163.4c-.1,0-.3,0-.4-.1-3.3-2-6.7-4.6-9.7-6.8-1.8-1.4-3.5-2.7-5.1-3.7-.4-.3-.5-.8-.2-1.1.3-.4.8-.5,1.1-.2,1.6,1.1,3.3,2.4,5.1,3.8,2.9,2.2,6.3,4.7,9.5,6.7.4.2.5.7.3,1.1-.2.3-.4.4-.7.4Z"/>
          <path d="M351.1,164.1c-.1,0-.2,0-.3,0-4.9-2.1-5.6-3.6-6-5.5-.2-.8-.3-1.4-1.2-2.3-.3-.3-.3-.8,0-1.1.3-.3.8-.3,1.1,0,1.2,1.2,1.5,2.2,1.7,3.1.3,1.3.5,2.4,5,4.3.4.2.6.6.4,1.1-.1.3-.4.5-.7.5Z"/>
          <path d="M306.5,197.9c-1.8,0-2.8-.1-4.1-.3-1.1-.1-2.4-.3-4.7-.5-.4,0-.8-.4-.7-.9,0-.4.4-.7.8-.7h0c2.3.2,3.7.4,4.8.5,3.1.4,4.2.5,19.3-.7h0c.4,0,.8.3.8.7,0,.4-.3.8-.7.9-8.9.7-13,.9-15.5.9Z"/>
          <path d="M277.2,219.6c-.2,0-.4,0-.6-.2-.3-.3-.3-.8,0-1.1,6.9-7.2,7.4-7.5,10.9-9,1.4-.6,3.2-1.4,6.2-3.1,7.5-3.8,10.4-4.3,14.9-4.9,2-.3,4.3-.6,7.4-1.3.4,0,.9.2,1,.6,0,.4-.2.9-.6,1-3.2.7-5.5,1-7.5,1.3-4.3.6-7.2,1-14.4,4.7-3.1,1.6-5,2.5-6.3,3.1-3.3,1.5-3.5,1.6-10.4,8.7-.2.2-.4.2-.6.2Z"/>
          <path d="M339.3,220.7c-.2,0-.3,0-.5-.2-.4-.3-.4-.8-.2-1.1.2-.2,4.4-6,14.7-12.9,10.2-6.7,19.7-14.1,19.8-14.2.3-.3.9-.2,1.1.1.3.4.2.9-.1,1.1,0,0-9.7,7.5-19.9,14.2-10.1,6.8-14.3,12.5-14.3,12.6-.2.2-.4.3-.7.3Z"/>
          <path d="M351.1,220.1c-.2,0-.3,0-.4-.1-.4-.2-.5-.7-.3-1.1,2-3.1,4.2-5.6,6.9-8.5,1.2-1.3,2.4-2.6,3.8-4.2.3-.3.8-.4,1.1,0,.3.3.4.8,0,1.1-1.4,1.6-2.7,3-3.8,4.2-2.7,2.9-4.9,5.3-6.7,8.2-.2.2-.4.4-.7.4Z"/>
          <path d="M370.9,248.1c-1.8,0-6.3-.9-16.4-7.1-.4-.2-.5-.7-.3-1.1.2-.4.7-.5,1.1-.3,12.5,7.7,15.9,6.9,16,6.9.4-.2.9,0,1,.5.2.4,0,.9-.5,1.1,0,0-.4.1-.9.1Z"/>
          <path d="M372.6,264.1c-.4,0-.7-.2-.8-.6-2.1-8-10.2-10.4-10.3-10.4-.4-.1-.7-.6-.6-1,.1-.4.6-.7,1-.6.4.1,9,2.6,11.4,11.5.1.4-.1.9-.6,1,0,0-.1,0-.2,0Z"/>
          <path d="M306.7,324.9c-.4,0-.7-.3-.8-.6,0-.4.2-.9.6-1,3-.6,3.6-2.1,4.9-5.3,1.3-3.1,3.2-7.8,8.7-14,6.8-7.8,9.7-7.5,12.9-7.3,2,.2,3.8.3,7-1.6.4-.2.9-.1,1.1.3.2.4.1.9-.3,1.1-3.6,2.2-5.9,2-8,1.8-2.9-.2-5.3-.4-11.5,6.7-5.3,6-7.1,10.4-8.4,13.5-1.3,3.3-2.2,5.4-6.1,6.3,0,0-.1,0-.2,0Z"/>
          <path d="M327.1,327.1c-.4,0-.7-.2-.8-.6l-.4-1.7c-1.3-5.2-2.4-9.6.5-14.7.2-.4.7-.5,1.1-.3.4.2.5.7.3,1.1-2.6,4.5-1.6,8.5-.3,13.5l.4,1.7c.1.4-.2.9-.6,1,0,0-.1,0-.2,0Z"/>
          <path d="M286.6,288.7c-.3,0-.5-.1-.7-.4-.2-.4-.1-.9.3-1.1,4.6-2.9,6.5-2.3,8.4-1.7,1.7.6,3.5,1.2,8.1-.7.4-.2.9,0,1.1.5.2.4,0,.9-.5,1.1-5.2,2.1-7.4,1.3-9.3.7-1.7-.6-3.1-1-7.1,1.5-.1,0-.3.1-.4.1Z"/>
          <path d="M307.8,282.2c-5.8,0-9.6-2.1-12.8-3.9-2.8-1.6-5.2-2.9-8.4-2.9h0c-.4,0-.8-.4-.8-.8,0-.5.5-.8,1-.8,3.5,0,6.2,1.5,9,3.1,5.4,3,11.6,6.5,26.6.2.4-.2.9,0,1.1.4.2.4,0,.9-.4,1.1-6.4,2.7-11.3,3.6-15.2,3.6Z"/>
          <g>
            <g>
              <path class="cls-1" d="M334.7,235.6l7.1,2.4c0,.3-1.3,8.2-1.3,8.6-.5,2.3-1,3.2-1.3,5.2-1,4,2.1,2.4,1.8,3.4-1,1.8-1.9,3.4-2.6,5.5-.6,3.1-4.7,3.9-6.3,4.4-1.5.3-4.5-.2-5.7-3.1-1.3-3.1-2.7-7.9-1.8-10.7,0,0,1,1.5,2.6,1.1,1.6-.3,2.1-2.4,3.2-5.5,1.1-3.2,3.9-10.3,4.2-11.3h0Z"/>
              <path d="M331.2,265.8c-2,0-4.5-1-5.5-3.7-.7-1.7-3-7.7-1.8-11.2l.5-1.5.9,1.4s.7.9,1.8.8c.9-.2,1.4-1.4,2.2-3.7l.5-1.3c.7-1.9,1.9-5.2,2.9-7.8.7-1.7,1.2-3.1,1.3-3.5l.3-.8,8.4,2.9v.6c0,.2-.1.9-.7,4.4-.3,1.8-.6,3.9-.6,4.2-.2,1.2-.5,2-.7,2.7-.2.8-.5,1.6-.6,2.6-.3,1.3-.1,1.7,0,1.8,0,.1.3.2.6.2.3,0,.8.1,1.1.6.1.2.2.5,0,.9l-.5.8c-.8,1.5-1.6,2.9-2.1,4.6-.7,3.2-4.3,4.2-6.3,4.7l-.5.2c-.4,0-.7.1-1.1.1ZM325.2,252.8c-.2,2.5.9,6.1,2,8.8,1,2.5,3.5,2.7,4,2.7s.5,0,.7,0h.5c1.8-.6,4.7-1.5,5.2-3.7.6-2,1.4-3.4,2.3-5h0c-.4-.1-.9-.3-1.3-.8-.5-.7-.5-1.6-.2-3,.2-1,.4-1.8.7-2.7.2-.7.4-1.4.6-2.5,0,0,0-.7.6-4.2.2-1.3.4-2.8.6-3.6l-5.7-2c-.2.7-.6,1.7-1.1,2.8-1,2.5-2.2,5.8-2.9,7.7l-.5,1.3c-.9,2.5-1.5,4.4-3.4,4.7-.9.2-1.7,0-2.2-.4Z"/>
            </g>
            <g>
              <path class="cls-1" d="M324.7,251.2c1.5-4.2,3.1-6,3.1-11.3.2-5.2,5.7-12.9,7.6-13.6,1.8-.8,4.5-1.5,6.8.5,2.3,2.1,3.7,8.1,3.9,12.6,0,4.5-3.6,10.8-4.4,14-.6,2.1-3.1.6-2.4-1.9.3-1.8.8-2.7,1.3-5,1-5.7,1.8-7.3-1-8.1-2.9-1-5-1.6-6.1.6-1.1,2.4-1.3,3.2-2.9,7.7-1.8,4.5-1.6,5.2-3.2,5.5-1.6.3-2.6-1.1-2.6-1.1h0Z"/>
              <path d="M340.5,255.3c-.6,0-1.2-.3-1.6-.9-.6-.8-.8-1.9-.5-3.1.2-.9.4-1.6.6-2.4.2-.7.4-1.5.7-2.6.1-.8.3-1.6.4-2.2.8-4.1.7-4.4-.8-4.9-1.3-.4-2.6-.9-3.5-.9s-1.3.3-1.7,1.1c-.8,1.7-1.1,2.6-1.8,4.5-.3.8-.6,1.8-1.1,3.1-.4,1-.7,1.7-.9,2.4-.9,2.5-1.2,3.3-2.9,3.6-2.1.4-3.4-1.4-3.4-1.5l-.2-.3v-.4c.5-1.2,1-2.2,1.4-3.1,1-2.4,1.8-4.2,1.8-7.9.2-5.5,5.9-13.6,8.1-14.3.8-.4,2.1-.8,3.6-.8s2.9.5,4,1.5c2.5,2.3,4,8.5,4.2,13.2,0,3.1-1.5,6.9-2.9,10.1-.7,1.6-1.3,3.1-1.5,4.1-.3,1-1,1.6-1.8,1.6ZM335.8,236.8c1.1,0,2.4.4,4,.9,3,.9,2.6,2.8,1.9,6.7-.1.7-.3,1.4-.4,2.2-.3,1.2-.5,2-.7,2.7-.2.8-.4,1.4-.6,2.3-.2.7,0,1.4.2,1.7.3.3.5.4.6-.2.3-1.1.9-2.6,1.6-4.3,1.2-3,2.7-6.7,2.7-9.5-.2-4.3-1.6-10.1-3.6-12-.8-.7-1.8-1.1-2.9-1.1s-2.3.4-3,.7c-1.7.6-7,8-7.1,12.9,0,4-.9,6.1-1.9,8.5-.3.8-.7,1.6-1,2.6.3.3.8.6,1.5.5.8-.2.8-.2,1.7-2.6.2-.6.5-1.4.9-2.4.5-1.3.8-2.3,1.1-3.1.7-2,1-3,1.8-4.7.7-1.3,1.7-2,3.1-2Z"/>
            </g>
            <g>
              <path class="cls-1" d="M314.2,246.2c-.6-.6-.5-2.1-.8-3.2l-1.1-7.6-7.9.6.5,7.4c0,2.4,0,5-.3,6-.6,2.1-2.6,2.9-2.7.3.3,5.5,1.6,6.6,3.1,9.8,1.3,3.2,2.6,5.2,5.8,4.7,3.2-.5,6.5-.8,7.4-3.2,1-2.4.6-6,.3-9.7,0-.8-2.1-2.3-4.2-5.2h0Z"/>
              <path d="M309.7,265.2c-3.2,0-4.6-2.6-5.6-5.3-.3-.7-.6-1.3-.9-1.8-1.1-2-2-3.8-2.2-8.3h1.6c0,.5.2.7.2.8.1,0,.7-.4.9-1.4.3-.9.3-3.6.3-5.7l-.5-8.2,9.5-.8,1.2,8.3c.1.4.2.9.2,1.3,0,.6.1,1.2.4,1.4,1.1,1.4,2,2.5,2.8,3.3,1,1.1,1.6,1.7,1.6,2.4.3,3.8.7,7.4-.4,10-1.1,2.7-4.3,3.2-7.5,3.6h-.6c-.4.1-.7.2-1.1.2ZM302.8,252.2c.4,2.4,1,3.6,1.8,5.2.3.6.6,1.2,1,1.9,1.5,3.7,2.6,4.6,5,4.2h.6c2.8-.5,5.5-.9,6.2-2.7.9-2.2.6-5.6.3-9.2,0-.4-.7-1-1.2-1.5-.8-.8-1.8-1.9-2.9-3.4-.5-.5-.6-1.4-.7-2.3,0-.4,0-.8-.2-1.2l-1-6.9-6.4.5.4,6.6c0,3.2,0,5.3-.4,6.3-.4,1.4-1.4,2.4-2.5,2.5Z"/>
            </g>
            <g>
              <path class="cls-1" d="M317.4,241.7s-.2-5.5-1-8.7c-.6-3.2-2.9-6.3-4-7.4-1-1-7.9,0-9.4,3.1-1.5,3.1-2.6,3.7-2.4,9.8.3,6,.8,8.6,1.1,11.3.2,2.6,2.1,1.8,2.7-.3.6-1.9-.2-9.2.8-11,.8-1.9,2.9-2.4,5.5-1.9,2.7.6,2.3,6.9,3.4,9.7.3,1,4.4,6.5,3.7,1.5l-.5-6Z"/>
              <path d="M302.7,252.2c-.4,0-1.7-.2-1.8-2.4,0-.6-.2-1.2-.2-1.8-.3-2.3-.6-4.8-.9-9.5-.1-5.2.7-6.7,1.7-8.8.2-.4.5-.9.8-1.5,1.3-2.7,5.8-3.9,8.5-3.9s1.8.2,2.2.6c1.4,1.4,3.6,4.6,4.3,7.8.8,3.2,1,8.6,1,8.9l.5,5.9c.2,1.3,0,2.1-.4,2.5-.2.3-.6.4-.9.4h0c-1.6,0-3.8-3.5-4-4.1-.4-1-.6-2.4-.8-3.9-.3-2.2-.7-5-2-5.3-.5-.1-1.1-.2-1.6-.2-1.6,0-2.6.5-3,1.6-.5.9-.5,3.6-.5,5.8,0,2.2,0,4.1-.3,5.1-.5,1.5-1.5,2.5-2.5,2.5ZM310.7,226c-2.3,0-6.1,1.1-7,3-.3.6-.5,1.1-.8,1.5-1,1.9-1.7,3.2-1.6,7.9.2,4.5.6,7.1.9,9.3,0,.7.2,1.3.2,1.9,0,.6.2.8.2.9.2,0,.7-.5,1-1.4.3-.8.3-2.7.3-4.6,0-3.2,0-5.4.6-6.5.5-1.1,1.6-2.5,4.5-2.5s1.2,0,1.9.2c2.4.6,2.8,3.6,3.2,6.6.2,1.4.4,2.7.7,3.5.2.6,1.5,2.3,2.2,2.9,0-.2,0-.5,0-1l-.5-6c0,0-.2-5.5-.9-8.6-.6-2.9-2.7-5.9-3.8-7,0,0-.4-.1-1.1-.1Z"/>
            </g>
          </g>
        </g>
        <g>
          <g>
            <g>
              <rect class="cls-2" x="13.1" y="42.3" width="100.1" height="73.3"/>
              <path d="M114.8,117.2H11.4V40.7h103.3v76.5ZM14.7,114h96.9V43.9H14.7v70.1Z"/>
            </g>
            <g>
              <path class="cls-1" d="M50,109.2c16.3,0,29.7-12.1,29.7-27s-13.4-27.1-29.7-27.1-29.5,12.1-29.5,27.1,13.2,27,29.5,27h0Z"/>
              <path d="M50,110.8c-17.2,0-31.2-12.8-31.2-28.6s14-28.7,31.2-28.7,31.3,12.9,31.3,28.7-14,28.6-31.3,28.6ZM50,56.7c-15.4,0-27.9,11.4-27.9,25.5s12.5,25.3,27.9,25.3,28.1-11.4,28.1-25.3-12.6-25.5-28.1-25.5Z"/>
            </g>
            <g>
              <path class="cls-1" d="M44.1,94.6c6.9,0,12.6-6.1,12.6-13.7s-5.7-13.6-12.6-13.6-12.6,6.1-12.6,13.6,5.7,13.7,12.6,13.7h0Z"/>
              <path d="M44.1,96.2c-7.8,0-14.2-6.9-14.2-15.3s6.4-15.2,14.2-15.2,14.2,6.8,14.2,15.2-6.4,15.3-14.2,15.3ZM44.1,69c-6.1,0-11,5.4-11,11.9s4.9,12.1,11,12.1,11-5.4,11-12.1-4.9-11.9-11-11.9Z"/>
            </g>
          </g>
          <g>
            <path d="M286.6,180.7c-.2,0-.3,0-.5-.1-1.2-.8-1.9-1.8-2.7-2.9-1.4-1.8-2.8-3.7-6.4-5-.4-.1-.6-.6-.5-1,.1-.4.6-.7,1-.5,4.2,1.4,5.9,3.7,7.2,5.5.8,1,1.4,1.9,2.3,2.5.4.3.5.8.2,1.1-.2.2-.4.4-.7.4Z"/>
            <g>
              <rect class="cls-2" x="129.3" y="42.3" width="156.8" height="312.4"/>
              <path d="M287.7,356.3H127.7V40.7h160v315.6ZM130.9,353.1h153.5V43.9h-153.5v309.2Z"/>
            </g>
            <g>
              <path class="cls-1" d="M123.2,40.2v-6.3c0-1.1,1-2.1,1.9-2.1h165.2c1.1,0,1.9,1,1.9,2.1v6.3c0,1.1-.8,2.1-1.9,2.1H125.1c-1,0-1.9-1-1.9-2.1h0Z"/>
              <path d="M290.3,43.9H125.1c-1.9,0-3.5-1.7-3.5-3.7v-6.3c0-2,1.7-3.7,3.5-3.7h165.2c2,0,3.6,1.6,3.6,3.7v6.3c0,2.1-1.6,3.7-3.6,3.7ZM125.1,33.4c0,0-.3.2-.3.5v6.3c0,.3.2.5.3.5h165.1c.2,0,.3-.3.3-.5v-6.3c0-.2-.1-.5-.3-.5H125.1Z"/>
            </g>
            <g>
              <path class="cls-1" d="M241.3,165.5c-25.2-11.3-39.2-15.7-65.1-19.1-11-1.5-20.2-.3-26.8,1.1-6.6,1.5-11,3.1-14.9,6.3q-.2,0-.3.2v163.9c0,16.5,15.5,22.3,30.8,22.3h84.9c15.3,0,30.8-5.8,30.8-22.3v-130.9c-8.4-5-25-14.9-39.6-21.5h0Z"/>
              <path d="M250.1,341.8h-84.9c-15.7,0-32.5-6.3-32.5-23.9v-164.5l1.2-1c4.3-3.5,9-5,15.2-6.4,9-2,18.2-2.4,27.4-1.2,25.3,3.3,39.3,7.4,65.5,19.2,15,6.8,32.3,17.2,39.7,21.6l.8.5v131.8c0,17.6-16.8,23.9-32.4,23.9ZM135.9,154.9v163c0,19.2,22.4,20.7,29.2,20.7h84.9c6.9,0,29.2-1.5,29.2-20.7v-130c-7.7-4.6-24.3-14.4-38.6-20.9-25.8-11.6-39.7-15.7-64.6-18.9-8.7-1.2-17.6-.8-26.2,1.1-6.8,1.5-10.6,3.1-13.9,5.8Z"/>
            </g>
            <path d="M255.3,340.4l-1.2-1.1c3.1-3.5,6.7-7.4,10.5-11.6,5.5-5.9,11.1-12.1,15.6-17.3l1.2,1c-4.5,5.3-10.2,11.4-15.7,17.4-3.8,4.1-7.4,8-10.5,11.5Z"/>
            <path d="M219.7,340.7l-1.2-1.1c20-21.5,42.6-43.8,61.9-61.2l1.1,1.2c-19.3,17.4-41.8,39.7-61.8,61.1Z"/>
            <path d="M187.7,340.7l-1.2-1.1c2.9-3.2,5.9-6.7,9.1-10.3,11.7-13.2,24.9-28.2,35.3-38.3,15.8-15.2,28.6-27.3,49.4-45.9l1.1,1.2c-20.8,18.5-33.6,30.7-49.4,45.8-10.4,10.1-23.6,25.1-35.2,38.2-3.2,3.6-6.3,7.1-9.1,10.3Z"/>
            <path d="M156.9,339.9l-1.2-1.1c7.5-8.3,14.9-16.7,21.5-24.1,10.5-11.8,18.7-21,22-24.5,9.4-9.7,19-20.6,33.2-37.9,10.9-13,26.9-25.6,45.6-40.1l2.5-2,1,1.3-2.5,2c-18.5,14.5-34.6,27-45.3,39.9-14.3,17.3-23.9,28.3-33.3,38-3.2,3.4-11.5,12.7-21.9,24.5-6.6,7.4-14,15.8-21.5,24.1Z"/>
            <path d="M134.9,319.1l-1.1-1.2c6.7-6.6,14.2-13.1,21.5-19.4,10.2-8.9,19.8-17.2,24.4-23.4,7.7-10.1,23.8-26.2,35.5-37.9,3.6-3.6,6.9-6.9,9.5-9.6,9.2-9.9,31.5-29.7,49.5-44.9l1,1.2c-18,15.2-40.2,35-49.3,44.8-2.6,2.7-5.9,6-9.5,9.6-11.7,11.7-27.6,27.8-35.3,37.8-4.7,6.4-14.4,14.8-24.7,23.7-7.3,6.3-14.8,12.8-21.4,19.4Z"/>
            <path d="M134.9,281.5l-1.2-1c9.2-10.8,19.4-19.6,29.2-28.1,7.9-6.9,15.4-13.3,22-20.5,15.3-16.6,46.3-47.9,56.1-55.3,1.1-.8,2.3-1.7,3.4-2.5,1.9-1.5,3.9-3,6-4.4l.9,1.3c-2,1.4-4,2.9-5.9,4.4-1.1.9-2.3,1.7-3.4,2.6-9.7,7.4-40.6,38.5-55.9,55.1-6.6,7.2-14.2,13.7-22.1,20.6-9.8,8.5-19.9,17.2-29,28Z"/>
            <path d="M134.9,247.7l-1.2-1.1c1.6-1.7,3.2-3.5,4.7-5.2,8.5-9.3,16.5-18.2,25-25.7,9-8.1,17.9-18.6,28.2-30.8,7.6-8.9,16.1-19.1,25.8-29.5l1.2,1.1c-9.7,10.4-18.2,20.5-25.8,29.4-10.4,12.3-19.3,22.8-28.4,31-8.4,7.5-16.5,16.3-24.9,25.6-1.5,1.7-3.1,3.4-4.7,5.2Z"/>
            <path d="M134.9,207.7l-1.1-1.1.5-.5c20-19.6,35.7-35.1,52-58.4l1.3.9c-16.4,23.4-32.2,39-52.2,58.7l-.5.5Z"/>
            <path d="M134.9,170.9l-1.2-1.1c4.7-5.2,8-9,10.8-12.3,3.5-4.1,6.3-7.3,10.2-11.5l1.2,1.1c-3.8,4.2-6.6,7.4-10.2,11.4-2.8,3.2-6.1,7-10.8,12.3Z"/>
            <path d="M183.5,340.8c-11-10.7-20.5-21.2-33.6-37.4-4.6-5.5-10.2-11.7-16.1-17.9l1.2-1.1c5.9,6.2,11.5,12.5,16.2,18,13.1,16.2,22.5,26.6,33.5,37.2l-1.1,1.2Z"/>
            <path d="M220.7,340.7c-7.2-8-15.6-17.3-23.4-25.3-22.5-23.3-36-37.3-49.1-53.2-2.1-2.5-4.7-5.6-7.7-9.1-2.1-2.5-4.4-5.2-6.9-8.1l1.2-1c2.4,2.9,4.7,5.6,6.9,8.1,3,3.5,5.6,6.6,7.7,9.2,13,15.8,26.6,29.8,49,53.1,7.8,8,16.2,17.3,23.4,25.4l-1.2,1.1Z"/>
            <path d="M255.8,340.2c-5.3-5.9-10.1-11.8-14.6-18-7-9.7-15.8-18.9-25.3-28.7-9.3-9.7-19-19.8-26.9-30.5-14.9-20.3-35.5-38.4-55.3-55.2l1-1.2c19.9,16.9,40.5,35.1,55.5,55.5,7.8,10.7,17.5,20.7,26.7,30.4,9.5,9.8,18.4,19.1,25.4,28.9,4.5,6.1,9.2,11.9,14.5,17.9l-1.2,1.1Z"/>
            <path d="M278.5,326.4c-2.6-2.9-4.6-5.2-6.6-7.5-4.8-5.4-9.3-10.6-20.5-22.5-7.4-8-18-20.4-29.2-33.5-12.8-14.9-26-30.3-35.7-40.7-9-9.6-18.8-18.5-28.1-27.2-9.3-8.5-18.1-16.6-24.7-24l1.2-1.1c6.6,7.4,15.3,15.4,24.6,23.9,9.4,8.6,19.1,17.6,28.2,27.3,9.7,10.4,22.9,25.8,35.7,40.8,11.2,13.1,21.8,25.5,29.2,33.5,11.2,12,15.7,17.1,20.5,22.6,2,2.3,4,4.6,6.6,7.5l-1.2,1.1Z"/>
            <path d="M280.2,297.1c-2.8-3.9-4.8-7.1-6.9-10.2-3.3-5.1-6.4-9.9-12.2-17.3-6-7.8-16.8-20-29.4-34.1-7.7-8.6-15.6-17.5-23.7-26.8-5.6-6.4-10.9-12.4-15.9-18.1-14-15.9-26.2-29.7-37.5-43.5l1.2-1c11.4,13.7,23.5,27.5,37.5,43.4,5,5.7,10.3,11.6,15.9,18.1,8.1,9.3,16,18.1,23.6,26.7,12.6,14.1,23.5,26.3,29.5,34.2,5.9,7.5,9.1,12.6,12.3,17.5,2,3.1,4.1,6.3,6.8,10.2l-1.3.9Z"/>
            <path d="M280.3,249.1c-8.2-10.3-16.5-20-24.6-29.3-10.1-11.7-19.7-22.8-27.8-33.8l-5.1-6.8c-7.2-9.7-14.1-18.9-20.8-27.4l1.3-1c6.7,8.5,13.5,17.7,20.8,27.4l5.1,6.8c8.1,11,17.6,22.1,27.7,33.7,8.1,9.3,16.4,19,24.6,29.4l-1.3,1Z"/>
            <path d="M280.3,210.2c-5.5-5.4-7.5-8.1-12.8-15.3-2-2.7-4.5-6.2-7.9-10.6-3.6-4.6-6.5-8.5-9.3-12.3l-1.6-2.2,1.3-1,1.6,2.2c2.8,3.8,5.7,7.7,9.3,12.3,3.4,4.5,5.9,7.9,7.9,10.6,5.3,7.1,7.2,9.8,12.7,15.1l-1.1,1.2Z"/>
            <path d="M278.3,136.8c-.3,0-.6-.2-.7-.5-3.4-7.4-6-11.2-9.2-14.8-3.2-4-14.5-7.2-14.6-7.2-.4-.1-.7-.6-.6-1,.1-.4.6-.7,1-.6.5.1,11.9,3.3,15.4,7.7,3.3,3.7,6,7.6,9.5,15.2.2.4,0,.9-.4,1.1-.1,0-.2,0-.3,0Z"/>
            <path d="M266,113c0,0-.2,0-.2,0-3-.9-5.3-1.2-8-1.6-1.2-.2-2.5-.4-4-.6-.4,0-.7-.5-.7-.9,0-.4.5-.8.9-.7,1.4.3,2.7.4,4,.6,2.6.4,5.1.8,8.2,1.7.4.1.7.6.6,1-.1.4-.4.6-.8.6Z"/>
            <path d="M265.9,107.4c-1.4,0-2.7-.1-4-.2-1.2,0-2.3-.2-3.4-.2s-.8-.4-.8-.8.4-.8.8-.8c1.1,0,2.3,0,3.5.2,4,.3,8.1.6,12.3-2,.4-.2.9-.1,1.1.3.2.4.1.9-.3,1.1-3.2,2-6.4,2.4-9.3,2.4Z"/>
            <path d="M142.9,120.1c-.2,0-.4,0-.6-.3-.3-.3-.3-.8,0-1.1,1.5-1.4,2.6-2.5,3.6-3.4,4.1-3.9,4.8-4.6,10.8-8.2.4-.2.9-.1,1.1.3.2.4.1.9-.3,1.1-5.8,3.5-6.4,4.1-10.5,8-1,.9-2.1,2-3.6,3.4-.2.1-.4.2-.6.2Z"/>
            <path d="M163.5,106.4c0,0-.1,0-.2,0-1.1-.3-2.1-.7-3-1-3.3-1.1-5.5-1.9-9.7.1-.4.2-.9,0-1.1-.4-.2-.4,0-.9.4-1.1,4.7-2.3,7.5-1.4,10.9-.2.9.3,1.8.6,2.9.9.4.1.7.6.6,1-.1.4-.4.6-.8.6Z"/>
            <path d="M129.8,123.2l-.9-1.3c2.9-2.1,10.8-8.3,11.6-11.3.5-1.7.3-4.3,0-7.9-.3-4.1-.6-9.7-.1-16.8.4-5.8,0-11.4-.5-15.8-.5-6.1-.9-10.5,1-12.7.7-.8,1.6-1.5,2.4-2.3,1.7-1.5,4-3.7,3.7-4.7-.6-2.1-.2-4,1-5.5,2-2.5,6.3-3.7,11.4-3.3v1.6c-4.7-.4-8.5.6-10.2,2.7-.9,1.1-1.2,2.5-.7,4,.6,2-1.7,4.1-4.2,6.3-.8.7-1.6,1.5-2.3,2.2-1.5,1.7-1.1,6-.6,11.5.4,4.5.9,10.2.5,16.1-.5,7-.2,12.3.1,16.6.2,3.7.4,6.4-.1,8.4-1.2,4.2-11.1,11.4-12.3,12.2Z"/>
            <path d="M285.4,129.1c-.2-.3-3.9-6.3-6.1-12.3-.3-.9-.6-1.6-.8-2.3-1.5-4.3-2.1-5.9-.8-12.3,1.1-6.1-.2-8.6-1.4-11.1-.2-.4-.4-.8-.5-1.1-1-2.2-.7-3.1,0-5.5.4-1.3.9-3.1,1.4-5.8l.3-1.5c1.3-7,2.4-12.6-2.4-18.5-1.3-1.6-2.6-3-3.8-4.3-3.8-3.9-6.8-7-2.3-12.6l1.3,1c-3.6,4.4-1.5,6.6,2.2,10.4,1.2,1.3,2.6,2.7,3.9,4.4,5.2,6.5,4,12.6,2.7,19.8l-.3,1.5c-.6,2.8-1.1,4.6-1.4,5.9-.7,2.4-.8,2.8,0,4.4.2.4.3.7.5,1.1,1.2,2.6,2.7,5.5,1.5,12.1-1.2,6-.7,7.4.8,11.5.3.7.5,1.5.8,2.3,2,5.8,5.9,11.9,5.9,11.9l-1.4.9Z"/>
            <g>
              <path class="cls-1" d="M134.6,153.9c4-3.2,8.4-4.8,15-6.3,6.6-1.3,15.8-2.6,26.6-1.1,26,3.4,40,7.7,65.1,19.1,19.1,8.6,41.3,22.8,44.7,24.2,6.1,2.6,4.8-3.2,2.3-5.7-10-9.5-23.6-17.9-33.7-23.4-22.8-12.4-68.1-33.1-89.9-28.1-21.8,5-32.3,11.8-36.6,18.4-4.2,6.6-3.1,7.3-2.1,8.6,1.1,1.3,4.8-2.6,8.7-5.7h0Z"/>
              <path d="M288.6,192c-.9,0-2-.3-3.2-.8-1.2-.5-4-2.1-8.2-4.6-8.8-5.1-23.5-13.8-36.5-19.6-25.7-11.6-39.5-15.7-64.6-18.9-3.1-.4-6.3-.6-9.5-.6-6.9,0-12.8,1-16.6,1.7-6.9,1.5-10.8,3.1-14.3,6-.9.7-1.8,1.5-2.7,2.2-3,2.6-4.8,4-6.4,4h0c-.7,0-1.4-.3-1.8-.8-1.9-2.4-2-4.3,2-10.5,5.4-8.2,18.1-14.6,37.6-19.1,2.3-.5,5-.8,7.9-.8,22.1,0,58.6,15.7,83.1,29.1,7.9,4.3,22.9,13.1,34.1,23.7,1.8,1.7,3.3,4.9,2.4,7.1-.5,1.3-1.7,2-3.2,2ZM166.6,144.2c3.3,0,6.7.2,9.9.7,25.4,3.3,39.5,7.4,65.5,19.2,13.2,5.9,28,14.6,36.8,19.8,3.8,2.2,6.9,4,7.9,4.4,1.8.8,2.2.5,2.2.5.1-.3-.4-2.2-1.7-3.5-10.9-10.3-25.6-19-33.4-23.2-24.2-13.2-60.1-28.7-81.6-28.7s-5.1.2-7.2.7c-18.8,4.3-30.8,10.3-35.7,17.7-2.9,4.5-2.9,5.6-2.5,6.2.9-.4,2.7-2,4-3.1.9-.8,1.8-1.6,2.8-2.3,4.5-3.6,9.4-5.2,15.7-6.6,4-.8,10.1-1.8,17.3-1.8Z"/>
            </g>
            <g>
              <path class="cls-1" d="M272.2,156.1c-5.7-1.9-36-8.6-53-12.3,13.4,5.5,26.2,11.8,35.4,16.8,9.5,5.2,22.1,12.9,32,21.6,2.1-1,3.1-1.6,3.7-4.5.8-3.2,1-3.9-1.6-9.7-2.7-6-8.6-9.4-16.5-11.9h0Z"/>
              <path d="M286.3,184.2l-.8-.7c-10.8-9.6-24.5-17.5-31.7-21.4-10.9-5.9-23.7-12-35.2-16.7l1-3.1,1.9.4c17.1,3.7,45.7,10,51.3,11.9,9.4,3.1,14.8,7,17.4,12.8,2.7,6.1,2.6,7.1,1.7,10.7-.8,3.6-2.3,4.6-4.6,5.6l-1,.4ZM234.9,149c9,4.2,16.2,8,20.5,10.3,7.1,3.9,20.6,11.7,31.5,21.1,1-.5,1.5-1.1,1.9-3,.7-3,.8-3.4-1.5-8.7-2.3-5-6.9-8.3-15.5-11.1-4.1-1.4-21.3-5.3-36.8-8.7Z"/>
            </g>
            <g>
              <path d="M252,134.2c-1.6,0-4-.9-5.9-1.6-.6-.2-1.2-.4-1.5-.6-8.4-2.8-17.5-5-26.3-7.2l-1.4-.3c-3.6-1-8.5-1.4-12.7-1.8-1.2,0-2.3-.2-3.3-.3l-2.8-.3c-10.3-1.2-20.9-2.4-31.3-2.1h-.4c-.7,0-1.6.2-2.4.2-1.5,0-3.6-.2-4.8-1.6-.5-.6-1-1.5-.8-3,.3-1.5,1.8-5.3,3.3-9.2l.5-1.3c3.2-9.5,2.9-14.4,2.4-21.9-.2-2.4-.3-5-.4-8.1-.2-6-.6-11.6-1.4-18.4-.3-3.2,0-4.9.8-5.9,1.5-1.6,3.9-.6,6.9,1.3l2,1.3c10.5,6.1,18.4,10.2,31.9,10.7h.6c6.4,0,12.8.5,19,1,5.4.4,11,.8,16.4.9.6,0,1.1,0,1.7,0h0c2.7,0,5.4-.2,8.1-.4,2-.1,4-.3,6-.3h3.3c3.4-.2,6.6-.3,10.1-.6h.4c1.5,0,2.2.7,2.5,1.2.9,1.5-.1,3.2-.8,4.4-1.3,2.7-3.3,5.8-5.2,8.7-1.1,1.7-2.2,3.4-3.2,5-7.3,12.1-8.3,19-7.7,33.3v1.1c.1,11.6-.6,14.3-2,15.3-.5.3-1.1.5-1.7.5ZM169.9,116.7c9.5,0,19.1,1.1,28.5,2.2l2.8.3c1,0,2.1.2,3.3.3,4.4.4,9.4.8,13.3,1.9l1.3.3c8.9,2.2,18,4.5,26.5,7.3.4.1,1,.3,1.7.6,1.3.5,3.4,1.3,4.6,1.4.3-1,.8-3.9.7-12.5v-1.1c-.7-14.8.5-22.3,8.1-35.1,1-1.6,2.1-3.4,3.3-5.1,1.9-2.9,3.8-5.8,5.1-8.5.2-.3.3-.6.4-.8-3.5.3-6.6.4-9.9.5h-3.3c-2,.2-4,.3-5.9.4-2.8.2-5.6.4-8.3.4h0c-.6,0-1.2,0-1.8,0-5.5-.2-11.1-.6-16.6-.9-6.2-.4-12.5-.9-18.8-1h-.6c-14.3-.5-23-5-33.6-11.2l-2.1-1.3c-.9-.6-2.2-1.4-2.8-1.6,0,.4-.2,1.3,0,3.1.9,6.9,1.3,12.5,1.5,18.7,0,3.1.2,5.7.4,8,.5,7.6.8,13.1-2.6,23.2l-.6,1.4c-.9,2.4-2.9,7.3-3.1,8.6h0s0,.3,0,.4c0,0,.5.5,2.4.5s1.5,0,2.2-.1h.5c1.2,0,2.3,0,3.4,0Z"/>
              <path d="M229.7,82s0,0-.1,0c-9.6-2.4-13.7-1.9-18.4-1.3-2.3.3-4.6.6-7.8.6-10.3.3-18.1-2.6-29.7-11.1-.3-.2-.3-.5-.1-.8.2-.3.5-.3.8-.1,11.3,8.3,18.9,11.2,29,10.9,3.1,0,5.4-.4,7.7-.6,4.8-.6,9-1.2,18.8,1.3.3,0,.5.4.4.7,0,.3-.3.4-.6.4Z"/>
              <path d="M239.4,86c-.2,0-.5-.2-.5-.4,0-.3,0-.6.4-.7,18.5-5.5,19-7.1,19.5-8.7.4-1.2.8-2.5,5.1-4.8.3-.1.6,0,.8.2.1.3,0,.6-.2.8-3.9,2-4.2,3.1-4.5,4.1-.6,2.1-1.2,3.8-20.3,9.5,0,0-.1,0-.2,0Z"/>
              <path d="M229.1,118.3c-.2,0-.3,0-.4-.2-9.8-10.8-28.2-23.2-43-33.1-4.3-2.9-8.4-5.7-11.9-8.1-.3-.2-.3-.5-.1-.8.2-.3.5-.3.8-.1,3.5,2.5,7.6,5.2,11.9,8.1,14.8,10,33.3,22.4,43.2,33.3.2.2.2.6,0,.8-.1.1-.2.1-.4.1Z"/>
              <path d="M251,98.7c-.1,0-.2,0-.3,0-6.7-4.1-15.2-5.8-25.9-7.8-3.8-.7-7.8-1.5-12.2-2.5-.3,0-.5-.4-.4-.7,0-.3.3-.5.7-.4,4.4,1,8.3,1.7,12.2,2.4,10.8,2.1,19.4,3.7,26.3,8,.3.2.4.5.2.8-.1.2-.3.3-.5.3Z"/>
            </g>
            <path d="M274.4,313.7h0c-.4,0-.8-.4-.8-.9.2-2.9.4-5.4.5-7.6,1-13.9,1.1-15.4-.7-38.5-1.4-16.4-1.1-19.4-.6-24.8.3-3.5.8-7.8.9-17.4.2-16.4,0-20.2-.3-25.4-.2-2.7-.3-5.7-.5-10.9,0-.4.3-.8.8-.8h0c.4,0,.8.3.8.8.2,5.2.3,8.2.5,10.9.3,5.3.5,9.1.3,25.5-.1,9.7-.6,14.1-.9,17.6-.5,5.3-.8,8.2.6,24.5,1.8,23.2,1.7,25,.7,38.7-.2,2.2-.3,4.7-.5,7.6,0,.4-.4.8-.8.8Z"/>
            <path d="M144.6,307.6c-.4,0-.7-.3-.8-.6-3.7-15.7-4.1-74.3-3.6-95,.2-8.5,1-14.6,1.6-19.9,1-7.8,1.7-13.9.3-23.9,0-.4.2-.9.7-.9.4,0,.9.2.9.7,1.5,10.2.7,16.4-.3,24.3-.7,5.3-1.4,11.3-1.6,19.7-.5,20.6-.1,79.1,3.5,94.6.1.4-.2.9-.6,1,0,0-.1,0-.2,0Z"/>
          </g>
        </g>
      </g>
    </g>
  </g>
</svg>