<?xml version="1.0" encoding="UTF-8"?>
<svg xmlns="http://www.w3.org/2000/svg" version="1.1" viewBox="0 0 162.9 326.1">
  <defs>
    <style>
      .cls-1 {
        fill-rule: evenodd;
      }

      .cls-1, .cls-2 {
        fill: #fff;
      }
    </style>
  </defs>
  <!-- Generator: Adobe Illustrator 28.6.0, SVG Export Plug-In . SVG Version: 1.2.0 Build 709)  -->
  <g>
    <g id="Layer_1">
      <g>
        <g>
          <rect class="cls-2" x="1.6" y="45" width="21.6" height="73.6"/>
          <path d="M24.9,120.3H0V43.4h24.9v76.8ZM3.2,117h18.4V46.7H3.2v70.4Z"/>
        </g>
        <g>
          <path class="cls-1" d="M14.2,3.6v318.9c0,1.1.8,2.1,1.9,2.1h143.2c1.1,0,1.9-1,1.9-2.1V3.6c0-1.1-.8-1.9-1.9-1.9H16.1c-1.1,0-1.9.8-1.9,1.9h0Z"/>
          <path d="M159.3,326.1H16.1c-2,0-3.6-1.6-3.6-3.7V3.6c0-2,1.5-3.6,3.6-3.6h143.2c2,0,3.6,1.5,3.6,3.6v318.9c0,2.1-1.6,3.7-3.6,3.7ZM16.1,3.2c-.2,0-.3,0-.3.3v318.9c0,.2,0,.5.3.5h143.2c.2,0,.3-.3.3-.5V3.6c0-.2,0-.3-.3-.3H16.1Z"/>
        </g>
        <path d="M150.1,316.9H25.3c-2,0-3.7-1.7-3.7-3.7V12.8c0-2,1.7-3.7,3.7-3.7h124.8c2,0,3.7,1.7,3.7,3.7v300.4c0,2-1.7,3.7-3.7,3.7ZM25.3,12.3c-.2,0-.5.2-.5.5v300.4c0,.2.2.5.5.5h124.8c.2,0,.5-.2.5-.5V12.8c0-.2-.2-.5-.5-.5H25.3Z"/>
        <path d="M21.3,12.3h-5.2c-2,0-3.6-1.5-3.6-3.5V3.6c0-2,1.5-3.6,3.6-3.6h5.2c2,0,3.6,1.5,3.6,3.6v5.2c0,2-1.5,3.5-3.6,3.5ZM16.1,3.2c-.2,0-.3,0-.3.3v5.2c0,.2,0,.3.3.3h5.2c.2,0,.3,0,.3-.3V3.6c0-.2,0-.3-.3-.3h-5.2Z"/>
        <path d="M58.9,80.5c-9.4,0-16.5-.8-21.1-2.5l-.8-.3-.2-.9c-5-22.1-4.7-45.2.7-57.4l.3-.7.8-.2c6.6-1.7,16.5-2.7,26.5-2.7s22.3,1.4,29.4,3.9c6.9-1.8,14.1-2.7,21.6-2.7s15.1,1,21.6,2.9l.9.3.2.9c5.2,22.2,2.8,44.2-1.8,56.2l-.3.7-.7.2c-4,1.4-10.9,2.2-18.7,2.2h0c-8.8,0-17.5-1-23.9-2.8-11,1.9-23.8,3-34.4,3ZM39.6,75.3c4.3,1.3,10.9,2,19.2,2s23.3-1.1,34.2-3h.4c0,0,.4,0,.4,0,6.1,1.8,14.6,2.8,23.3,2.8s13.2-.7,17-1.8c4.2-11.5,6.3-31.9,1.7-52.6-6-1.6-12.8-2.5-19.8-2.5s-14.5.9-21.2,2.7h-.5c0,.1-.5,0-.5,0-6.6-2.5-17-3.9-28.7-3.9s-18.5.9-24.9,2.4c-4.8,11.6-5,32.9-.4,53.7Z"/>
        <path d="M150.9,128c-11-15.3-31.4-28.9-38.1-33.4l-1.1-.7c-25.8-5.7-64.1-5.2-87.7,6.7l-1.5-2.9c24.4-12.3,63.8-12.8,90.2-6.9l.6.2,1.3.9c7.6,5.1,27.6,18.5,38.9,34.2l-2.6,1.9Z"/>
        <path d="M108.4,134.2l-.2-2.3c-1.2-14.7.8-32.6,2.6-39.9l3.1.8c-1.7,6.7-3.5,22.7-2.7,36.6,18-7.4,40.3-4,41.3-3.9l-.5,3.2c-.2,0-24.1-3.7-41.5,4.5l-2.1,1Z"/>
        <path d="M123,242.6c-.3,0-.6-.2-.7-.5-26.8-57.8-44-84.7-65.5-102.7-.3-.3-.4-.8-.1-1.1.3-.3.8-.4,1.1-.1,21.7,18.2,39,45.2,65.9,103.3.2.4,0,.9-.4,1.1-.1,0-.2,0-.3,0Z"/>
        <path d="M115.6,245.9c-.3,0-.5-.1-.7-.4-2.5-3.8-5.4-9.1-8.8-15.4-7.1-12.9-15.9-28.9-25.2-39.3-.3-.3-.3-.8,0-1.1.3-.3.8-.3,1.1,0,9.4,10.5,18.2,26.6,25.4,39.6,3.4,6.2,6.3,11.5,8.8,15.3.2.4.1.9-.2,1.1-.1,0-.3.1-.4.1Z"/>
        <path d="M66.2,286.1c-.4,0-.7-.3-.8-.6-.1-.4.2-.9.6-1,18.2-4.2,26.7-3.4,34.2-2.7,2.2.2,4.3.4,6.6.5.4,0,.8.4.8.8,0,.4-.4.8-.8.8h0c-2.3,0-4.4-.3-6.7-.5-7.7-.7-15.7-1.4-33.7,2.7,0,0-.1,0-.2,0Z"/>
        <path d="M136.6,303.7c0,0-.2,0-.3,0-46.7-17.3-97.9-8.8-98.4-8.7-.5,0-.9-.2-.9-.7,0-.4.2-.9.7-.9.5,0,52.1-8.7,99.2,8.8.4.2.6.6.5,1-.1.3-.4.5-.8.5Z"/>
        <path d="M159.3,12.3h-5.2c-2,0-3.5-1.5-3.5-3.5V3.6c0-2,1.5-3.6,3.5-3.6h5.2c2,0,3.6,1.5,3.6,3.6v5.2c0,2-1.5,3.5-3.6,3.5ZM154.2,3.2c-.2,0-.3,0-.3.3v5.2c0,.2,0,.3.3.3h5.2c.2,0,.3,0,.3-.3V3.6c0-.2,0-.3-.3-.3h-5.2Z"/>
        <path d="M21.3,326h-5.2c-2,0-3.6-1.6-3.6-3.5v-5.2c0-2.1,1.6-3.7,3.6-3.7h5.2c2,0,3.6,1.6,3.6,3.7v5.2c0,2-1.6,3.5-3.6,3.5ZM16.1,316.7c-.2,0-.3.3-.3.5v5.2c0,0,.1.3.3.3h5.2c.2,0,.3-.2.3-.3v-5.2c0-.2,0-.5-.3-.5h-5.2Z"/>
        <path d="M159.3,326h-5.2c-2,0-3.5-1.5-3.5-3.5v-5.2c0-2,1.5-3.6,3.5-3.6h5.2c2,0,3.6,1.5,3.6,3.6v5.2c0,2-1.5,3.5-3.6,3.5ZM154.2,316.9c-.2,0-.3,0-.3.3v5.2c0,.2,0,.3.3.3h5.2c.2,0,.3,0,.3-.3v-5.2c0-.2,0-.3-.3-.3h-5.2Z"/>
      </g>
    </g>
  </g>
</svg>