<?xml version="1.0" encoding="UTF-8"?>
<svg xmlns="http://www.w3.org/2000/svg" version="1.1" viewBox="0 0 366.1 427.5">
  <defs>
    <style>
      .cls-1 {
        fill-rule: evenodd;
      }

      .cls-1, .cls-2 {
        fill: #fff;
      }
    </style>
  </defs>
  <!-- Generator: Adobe Illustrator 28.6.0, SVG Export Plug-In . SVG Version: 1.2.0 Build 709)  -->
  <g>
    <g id="Layer_1">
      <g>
        <g>
          <path class="cls-1" d="M183.6,325c44.6,0,80.7-50.7,80.7-113s-36.2-113-80.7-113-80.7,50.9-80.7,113,36.3,113,80.7,113h0Z"/>
          <path d="M183.6,326.7c-45.4,0-82.3-51.4-82.3-114.6s36.9-114.6,82.3-114.6,82.3,51.4,82.3,114.6-36.9,114.6-82.3,114.6ZM183.6,100.6c-43.6,0-79.1,50-79.1,111.4s35.5,111.4,79.1,111.4,79.1-50,79.1-111.4-35.5-111.4-79.1-111.4Z"/>
        </g>
        <g>
          <g>
            <path class="cls-1" d="M209.6,27.5c-17.1-1.6-34.4-1.8-51.8,0-3.4.3-5.7,2.4-6.1,5.3-2.7,16.6-3.4,33.1-2.7,49.4.2,3.1,2.9,4.8,6.1,5.5,18.9,3.2,37.9,3.2,57.2,0,3.4-.6,5.8-2.4,6.1-5.5,1.3-16,.5-32.5-2.7-49.4-.6-2.9-2.7-5-6-5.3h0Z"/>
            <path d="M183.5,90.9c-9.5,0-19.1-.8-28.6-2.4-4.1-.8-6.6-3.2-6.8-6.2-.7-17.9.2-34.1,2.8-49.6.6-3.4,3.2-5.7,6.9-6,16.6-1.7,34-1.7,52,0,3.4.3,5.9,2.6,6.7,6,3.2,16.6,4.1,33.3,2.8,49.6-.3,3.2-2.8,5.5-6.8,6.2-9.6,1.6-19.3,2.4-28.8,2.4ZM183.2,27c-8.5,0-17.1.4-25.3,1.3-3,.3-5,2-5.4,4.7-2.5,15.4-3.4,31.5-2.7,49.2.2,3.3,3.9,4.4,5.5,4.7,18.7,3.2,37.8,3.2,56.9,0,2.3-.4,5.1-1.6,5.5-4.8,1.3-16.2.4-32.8-2.7-49.2-.6-2.7-2.5-4.4-5.3-4.7-8.9-.8-17.8-1.3-26.3-1.3Z"/>
          </g>
          <path d="M183.5,85.1c-8.9,0-17.8-.7-26.5-2.2h-.7c-1.5-.3-1.8-.7-1.8-2.2v-.4c-.7-16.4.2-32,2.6-46.1.1-1,.2-1.8,1.7-1.8h.7c15.8-1.4,32.1-1.4,48,0,.3,0,.5,0,.7,0,1.5,0,1.6.6,1.8,2,2.9,15,3.9,30.2,2.8,45,0,.4,0,.7,0,1,0,2-.4,2.3-2.4,2.5h-1c-8.6,1.5-17.3,2.2-25.9,2.2ZM156.2,81.1c.1,0,.2,0,.4,0h.7c16.9,3,34.5,3,51.9.3h1c.5-.2.9-.3,1-.3,0,0,0-.4,0-.8,0-.3,0-.6,0-1,1.1-14.7.2-29.8-2.7-44.7,0-.2,0-.4,0-.6,0,0-.1,0-.2,0-.2,0-.5,0-.8,0-15.9-1.4-31.9-1.4-47.8,0h-.8s0,0,0,0c0,.1,0,.3,0,.4-2.4,14.1-3.3,29.5-2.6,45.9v.4c0,.1,0,.3,0,.4Z"/>
          <g>
            <path class="cls-2" d="M207,27.8c-.5,1.9,1,3.9,2.9,4.4,2.1.3,4-1.1,4.4-3.1l4.2-23.9c.3-2.1-1-4-2.9-4.4-2.1-.3-4,1-4.4,3.1l-4.2,23.9Z"/>
            <path d="M210.5,33h0c-.2,0-.5,0-.7,0-2.5-.6-4.1-3.1-3.6-5.4l4.2-23.8c.4-2.4,2.7-4.1,5.3-3.7,2.4.4,4,2.8,3.6,5.3l-4.2,23.9c-.4,2.2-2.3,3.8-4.6,3.8ZM214.9,1.6c-1.5,0-2.7,1-2.9,2.4l-4.2,23.9c-.4,1.5.7,3,2.3,3.4,0,0,.2,0,.4,0,1.5,0,2.7-1,3-2.4l4.2-23.9c.3-1.6-.8-3.2-2.2-3.4-.2,0-.3,0-.5,0Z"/>
          </g>
          <g>
            <path class="cls-2" d="M152.9,29.1c.3,1.9,2.3,3.4,4.4,3.1,1.9-.5,3.4-2.4,2.9-4.4l-4.2-23.9c-.3-2.1-2.3-3.4-4.2-3.1-2.1.3-3.4,2.3-3.1,4.4l4.2,23.9Z"/>
            <path d="M156.7,33c-2.2,0-4.2-1.6-4.6-3.8l-4.2-23.9c-.2-1.2,0-2.5.8-3.4.7-1,1.8-1.7,3-1.9.2,0,.5,0,.7,0,2.2,0,4.1,1.6,4.4,3.8l4.2,23.9c.3,1.1,0,2.3-.7,3.3-.7,1-1.7,1.7-2.8,2-.3,0-.5,0-.8,0ZM152.4,1.6c-.2,0-.3,0-.5,0-.8.1-1.5.5-1.9,1.2-.4.6-.6,1.4-.5,2.3l4.2,23.9c.3,1.5,1.8,2.7,3.4,2.4.7-.2,1.4-.7,1.8-1.3.4-.6.6-1.4.4-2.1l-4.2-23.9c-.2-1.4-1.4-2.4-2.8-2.4Z"/>
          </g>
          <g>
            <path class="cls-2" d="M210.4,7.8c1.1.2,2.3-.8,2.3-2.1.2-1.3-.6-2.6-1.9-2.6-8.9-1-17.9-1.5-27-1.5s-18.2.5-27.3,1.5c-1.3,0-2.1,1.3-1.9,2.6,0,1.3,1.1,2.3,2.3,2.1,9-1,18.1-1.5,27-1.5s17.8.5,26.6,1.5h0Z"/>
            <path d="M210.7,8.6h0c-.1,0-.2,0-.4,0-17.6-1.9-35.5-1.9-53.4,0,0,0-.2,0-.3,0-1.5,0-2.8-1.3-2.8-2.9-.1-.8.2-1.8.8-2.5.5-.6,1.2-.9,2-.9,17.8-1.9,36.6-1.9,54.3,0h0c.7,0,1.4.3,1.9.9.6.7.9,1.6.8,2.6,0,.7-.3,1.4-.8,2-.5.5-1.3.9-2,.9ZM183.8,5.5c8.9,0,17.9.5,26.7,1.5h.2c.3,0,.6-.1.8-.4.2-.3.4-.6.4-.9,0-.6,0-1.1-.4-1.4-.2-.2-.5-.4-.8-.4-17.8-1.9-36.3-1.9-54.2,0-.4,0-.6.1-.9.4-.3.3-.4.8-.4,1.3,0,.9.6,1.4,1.2,1.4,9.2-1,18.3-1.5,27.2-1.5Z"/>
          </g>
          <g>
            <path class="cls-2" d="M208.8,19.1c1.1,0,2.1-1,2.3-2.3.2-1.3-.6-2.4-1.8-2.6-8.6-1-17-1.5-25.5-1.5s-17.1.5-25.8,1.5c-1.1.2-1.9,1.3-1.8,2.6.2,1.3,1.1,2.3,2.3,2.3,8.4-1,17-1.5,25.3-1.5s16.8.5,25,1.5h0Z"/>
            <path d="M208.8,19.9h0c-16.4-1.9-33.6-1.9-50.2,0h0c-1.6,0-2.9-1.3-3.1-3-.2-1.7.9-3.3,2.5-3.5,17.6-2,34.2-2,51.5,0,1.6.2,2.7,1.8,2.5,3.5-.2,1.7-1.5,3-3.1,3ZM183.8,13.6c-8.6,0-17,.5-25.7,1.4-.7.1-1.2.8-1.1,1.7.1.9.7,1.6,1.5,1.6,16.5-1.9,33.9-1.9,50.4,0,.7,0,1.3-.7,1.4-1.5.1-.8-.4-1.6-1.1-1.7-8.6-1-16.9-1.4-25.4-1.4Z"/>
          </g>
        </g>
        <g>
          <g>
            <path class="cls-1" d="M209.6,400.1c-17.1,1.6-34.4,1.6-51.8,0-3.4-.3-5.7-2.6-6.1-5.5-2.7-16.6-3.4-32.9-2.7-49.4.2-2.9,2.9-4.8,6.1-5.3,18.9-3.4,37.9-3.4,57.2,0,3.4.5,5.8,2.4,6.1,5.3,1.3,16,.5,32.5-2.7,49.4-.6,2.9-2.7,5.2-6,5.5h0Z"/>
            <path d="M183.8,402.1c-8.6,0-17.4-.4-26.1-1.2-3.6-.3-6.3-2.8-6.9-6.2-2.6-15.5-3.5-31.7-2.8-49.6.2-3.1,2.9-5.5,6.8-6.1,18.9-3.4,38.2-3.4,57.4,0,3.8.5,6.4,2.9,6.8,6,1.3,16.4.4,33.1-2.8,49.6-.8,3.5-3.3,5.8-6.7,6.1-8.5.8-17.2,1.2-25.9,1.2ZM183.5,338.2c-9.4,0-19,.9-28.3,2.5-2.6.4-5.3,2-5.5,4.6-.7,17.8.2,33.9,2.7,49.2.5,2.7,2.5,4.5,5.4,4.8,17.3,1.6,34.7,1.6,51.7,0,2.7-.3,4.6-2.1,5.3-4.9,3.1-16.4,4-32.9,2.7-49.2-.3-2.4-2.3-4.1-5.4-4.6-9.5-1.7-19.1-2.5-28.6-2.5Z"/>
          </g>
          <path d="M183.5,396.4c-8,0-16.1-.4-24-1.1-.3,0-.5,0-.6,0-1.4,0-1.6-.6-1.7-2-2.4-14.3-3.3-29.4-2.6-46.1v-.3c0-1.5.3-1.9,1.8-2.1h.7c17.1-3,34.8-3,52.4-.3h.7c2.3.4,2.7.7,2.7,2.8,0,.3,0,.6,0,1,1.1,14.9.2,30-2.8,45.1-.1,1.3-.3,1.8-1.8,1.9-.2,0-.4,0-.7,0-8,.7-16.1,1.1-24,1.1ZM158.8,393.6s0,0,.1,0c.2,0,.4,0,.7,0,15.8,1.4,31.9,1.4,47.8,0,.3,0,.6,0,.8,0,0,0,.2,0,.2,0,0-.2,0-.4,0-.5,2.9-15,3.8-30,2.7-44.7,0-.4,0-.8,0-1,0-.4,0-.9,0-1,0,0-.7-.1-1.3-.2h-.7c-17.4-2.8-34.9-2.8-51.9,0h-.7c-.1.1-.3.1-.4.2,0,.1,0,.3,0,.4v.4c-.7,16.7.2,31.6,2.6,45.9,0,.2,0,.4,0,.6Z"/>
          <g>
            <path class="cls-2" d="M207,399.6c-.5-1.9,1-3.9,2.9-4.2,2.1-.3,4,1,4.4,2.9l4.2,24.1c.3,1.9-1,3.9-2.9,4.2-2.1.5-4-1-4.4-2.9l-4.2-24.1Z"/>
            <path d="M214.8,427.5c-2.1,0-4-1.6-4.3-3.7l-4.2-24c-.3-1,0-2.2.6-3.2.7-1,1.8-1.8,3-2,2.7-.4,4.9,1.2,5.3,3.6l4.2,24c.4,2.4-1.2,4.7-3.6,5.1-.3,0-.6.1-.9.1ZM210.6,396.2c-.2,0-.3,0-.5,0-.8.1-1.4.6-1.9,1.2-.4.6-.5,1.3-.4,2l4.2,24.1c.3,1.5,1.8,2.6,3.4,2.3,1.5-.3,2.5-1.8,2.3-3.3l-4.2-24c-.2-1.3-1.5-2.3-2.9-2.3Z"/>
          </g>
          <g>
            <path class="cls-2" d="M152.9,398.3c.3-1.9,2.3-3.2,4.4-2.9,1.9.3,3.4,2.3,2.9,4.2l-4.2,24.1c-.3,1.9-2.3,3.4-4.2,2.9-2.1-.3-3.4-2.3-3.1-4.2l4.2-24.1Z"/>
            <path d="M152.6,427.5c-.3,0-.6,0-1-.1-1.1-.2-2.2-.8-2.9-1.8-.7-1-1-2.2-.8-3.3l4.2-24.1c.4-2.3,2.7-3.9,5.3-3.6,1.2.2,2.3.9,3,2,.6,1,.9,2.1.6,3.2l-4.2,24c-.3,2.1-2.2,3.7-4.2,3.7ZM156.6,396.2c-1.5,0-2.7,1-2.9,2.3l-4.2,24.1c-.1.7,0,1.5.5,2.1.5.6,1.1,1,1.9,1.1.3,0,.4,0,.6,0,1.3,0,2.4-1,2.6-2.3l4.2-24.1c.2-.7,0-1.4-.4-2-.4-.7-1.1-1.1-1.9-1.3-.2,0-.3,0-.5,0Z"/>
          </g>
          <g>
            <path class="cls-2" d="M210.4,419.6c1.1,0,2.3,1,2.3,2.3.2,1.3-.6,2.4-1.9,2.6-8.9,1-17.9,1.3-27,1.5-9,0-18.2-.5-27.3-1.5-1.3-.2-2.1-1.3-1.9-2.6,0-1.3,1.1-2.3,2.3-2.3,9,1,18.1,1.5,27,1.5s17.8-.5,26.6-1.5h0Z"/>
            <path d="M183.8,426.7h0c-9.1,0-18.3-.5-27.4-1.5-.9-.1-1.6-.5-2.1-1.2-.5-.6-.7-1.5-.6-2.3,0-1.6,1.4-3,3.1-3,18,1.9,35.9,1.9,53.5,0h0c1.7,0,3.1,1.4,3.1,3.1.1.7-.1,1.6-.6,2.2-.5.7-1.2,1.1-2.1,1.2-9.4,1-19,1.3-27,1.5h0ZM156.7,420.4c-.6,0-1.4.6-1.4,1.5,0,.5,0,.9.3,1.2.2.3.6.5,1,.5,9,1,18.1,1.4,27.2,1.4,8-.1,17.5-.4,26.9-1.4.4,0,.7-.2,1-.5.2-.3.3-.7.3-1.1,0-.9-.8-1.6-1.5-1.6-17.6,1.9-35.7,1.9-53.7,0Z"/>
          </g>
          <g>
            <path class="cls-2" d="M208.8,408.5c1.1-.2,2.1.8,2.3,2.1.2,1.3-.6,2.4-1.8,2.6-8.6,1-17,1.5-25.5,1.5s-17.1-.5-25.8-1.5c-1.1-.2-1.9-1.3-1.8-2.6.2-1.3,1.1-2.3,2.3-2.1,8.4,1,17,1.5,25.3,1.5s16.8-.5,25-1.5h0Z"/>
            <path d="M183.8,415.4c-8.6,0-17.1-.5-25.9-1.5-1.6-.2-2.7-1.8-2.5-3.5.2-1.8,1.6-3.1,3.2-2.8,16.6,1.9,33.8,1.9,50.2,0,.1,0,.2,0,.3,0,1.4,0,2.6,1.2,2.8,2.8.2,1.7-.9,3.3-2.5,3.5-8.7,1-17.1,1.5-25.6,1.5ZM158.3,409.3c-.7,0-1.2.6-1.3,1.4-.1.8.4,1.6,1.1,1.7,17.5,1.9,33.8,1.9,51.1,0,.7,0,1.2-.9,1.1-1.7-.1-.8-.6-1.4-1.2-1.4-16.8,2-34,1.9-50.7,0h0Z"/>
          </g>
        </g>
        <g>
          <g>
            <path class="cls-1" d="M338.8,186.2c1.6,17.1,1.6,34.4,0,51.8-.3,3.2-2.6,5.5-5.5,6-16.6,2.9-32.9,3.6-49.4,2.7-2.9-.2-4.8-2.7-5.5-6-3.2-18.9-3.2-37.9,0-57.3.6-3.2,2.6-5.8,5.5-6.1,16-1.3,32.5-.5,49.4,2.7,2.9.6,5.2,2.7,5.5,6.1h0Z"/>
            <path d="M296.6,247.9c-4.1,0-8.5-.1-12.8-.3-3.1-.2-5.5-2.7-6.2-6.6-3.2-18.9-3.2-38.3,0-57.6.8-3.9,3.1-6.5,6.2-6.8,16.5-1.3,33.1-.4,49.6,2.8,3.5.8,5.8,3.3,6.1,6.8,1.6,17.1,1.6,34.6,0,52-.4,3.5-2.8,6.1-6.2,6.7-11.8,2.1-23.9,3.1-36.8,3.1ZM298.4,177.5c-4.8,0-9.7.2-14.5.6-2.8.3-4.3,3-4.8,5.5-3.2,19.1-3.2,38.3,0,57,.5,2.5,2,5.2,4.7,5.3,17.7.9,33.7,0,49.2-2.7,2.7-.4,4.5-2.5,4.8-5.3,1.6-17.3,1.6-34.7,0-51.7-.3-2.8-2-4.8-4.9-5.4-11.5-2.2-23.2-3.3-34.7-3.3Z"/>
          </g>
          <path d="M295.8,241.5h0c-3.3,0-6.7,0-10-.2h-.6c-1.4-.1-1.7-.5-1.8-1.9v-.7c-3-17.2-3-34.7-.3-52.2v-.7c.4-2.4.7-2.8,2.9-2.8.3,0,.6,0,1,0,14.2-1.1,29.4-.1,44.9,2.8h.3c1.3.3,1.7.5,1.8,1.9,0,.2,0,.4,0,.6,1.5,16,1.5,32.1,0,48.1v.4c-.2,1.5-.6,1.7-2,1.9-11.5,2-23.7,3-36.1,3ZM285,239.6c0,0,.2,0,.3,0h.6c3.3.2,6.6.3,9.9.3,12.3,0,24.4-1,35.9-2.9.2,0,.4,0,.5,0,0-.1,0-.3,0-.4v-.4c1.5-15.8,1.5-31.9,0-47.8,0-.3,0-.5,0-.7,0,0,0-.2,0-.2-.1,0-.3,0-.5,0h-.3c-15.4-2.9-30.4-3.9-44.5-2.8-.4,0-.7,0-1,0-.4,0-.9,0-1,0,0,.1-.1.7-.2,1.4v.7c-2.9,17.3-2.8,34.7,0,51.7v.8c.1.2.2.3.2.4Z"/>
          <g>
            <path class="cls-2" d="M338.3,188.8c-1.9.3-3.9-1.1-4.2-3.1-.3-2.1,1-3.9,2.9-4.4l24.1-4.2c1.9-.3,3.9,1,4.2,3.1.3,1.9-1,3.9-2.9,4.2l-24.1,4.4Z"/>
            <path d="M337.7,189.6c-2.1,0-4.1-1.7-4.4-3.8-.4-2.5,1.1-4.7,3.5-5.3l24.1-4.2c2.6-.4,4.8,1.3,5.1,3.7.2,1.1,0,2.3-.7,3.3-.7,1-1.7,1.6-2.8,1.8l-24,4.4c-.2,0-.5,0-.7,0ZM361.6,177.9c-.2,0-.3,0-.5,0l-24,4.2c-1.6.4-2.5,1.8-2.2,3.4.2,1.5,1.8,2.6,3.3,2.4l24-4.4c.7-.1,1.4-.5,1.8-1.2.4-.6.6-1.4.5-2.1-.2-1.4-1.4-2.4-2.8-2.4Z"/>
          </g>
          <g>
            <path class="cls-2" d="M337,242.7c-1.9-.3-3.2-2.3-2.9-4.4.3-1.9,2.3-3.2,4.2-2.9l24.1,4.2c1.9.3,3.2,2.3,2.9,4.4-.3,1.9-2.3,3.4-4.2,2.9l-24.1-4.2Z"/>
            <path d="M361.8,247.8c-.3,0-.6,0-1-.1l-24-4.2c-2.3-.4-3.9-2.8-3.6-5.3.4-2.3,2.6-4,5.1-3.6l24.1,4.2c2.4.4,4,2.8,3.6,5.3-.4,2.1-2.2,3.7-4.2,3.7ZM337.7,236.2c-1.4,0-2.6,1-2.8,2.3-.3,1.6.8,3.2,2.2,3.4l24.1,4.2c.2,0,.4,0,.6,0,1.3,0,2.4-1,2.6-2.3.3-1.6-.8-3.2-2.2-3.4l-24.1-4.2c-.2,0-.3,0-.5,0Z"/>
          </g>
          <g>
            <path class="cls-2" d="M358.3,185.2c0-1.1,1-2.1,2.3-2.3,1.3-.2,2.4.8,2.6,1.9.8,8.9,1.3,17.9,1.3,27s-.3,18.2-1.3,27.4c-.2,1.1-1.3,1.9-2.6,1.9-1.3-.2-2.3-1.3-2.3-2.4,1-9,1.5-17.9,1.5-27s-.5-17.8-1.5-26.6h0Z"/>
            <path d="M360.5,242.1h-.1c-1.6-.2-3-1.7-3-3.2,1-9.2,1.5-18,1.5-27s-.5-17.7-1.4-26.6c0-1.6,1.3-2.9,3-3.1,1.7-.2,3.3,1,3.5,2.6.9,9.5,1.3,18.6,1.3,27.1s-.4,19.1-1.3,27.5c-.2,1.5-1.7,2.7-3.4,2.7ZM360.8,183.8c-1.1.1-1.7.7-1.7,1.5,1,8.8,1.5,17.8,1.5,26.6s-.5,17.9-1.5,27c0,.6.6,1.4,1.5,1.5.9,0,1.6-.6,1.7-1.2.9-8.3,1.3-17,1.3-27.3s-.4-17.5-1.3-26.9c0-.7-.8-1.2-1.5-1.2Z"/>
          </g>
          <g>
            <path class="cls-2" d="M347.1,186.8c-.2-1.1.8-2.1,2.1-2.3,1.3,0,2.4.8,2.6,1.9,1,8.4,1.5,17,1.5,25.3s-.5,17.3-1.5,25.8c-.2,1.1-1.3,1.9-2.6,1.8-1.3,0-2.3-1.1-2.1-2.1,1-8.6,1.3-17,1.3-25.5s-.3-16.6-1.3-25h0Z"/>
            <path d="M349.6,240.3c-.1,0-.3,0-.4,0h0c-.8,0-1.6-.4-2.2-1.1-.5-.6-.7-1.3-.6-2,.9-7.7,1.3-15.8,1.3-25.4s-.4-17.3-1.3-24.9c0-.7,0-1.3.5-1.9.5-.7,1.4-1.1,2.3-1.2h0c1.8,0,3.3,1.1,3.5,2.6,1,8.4,1.5,17,1.5,25.5s-.5,17.4-1.5,25.9c-.2,1.5-1.5,2.5-3.1,2.5ZM349.2,185.4c-.4,0-.8.3-1.1.6-.2.2-.2.5-.2.7.9,7.7,1.3,15.7,1.3,25.1s-.4,17.8-1.3,25.6c0,.2,0,.5.2.7.3.3.7.5,1.1.5.2,0,.3,0,.3,0,.7,0,1.4-.5,1.5-1.1,1-8.5,1.4-17.1,1.4-25.7s-.5-16.9-1.4-25.3c-.1-.7-.9-1.2-1.8-1.2Z"/>
          </g>
        </g>
        <g>
          <g>
            <path class="cls-1" d="M27.5,186.2c-1.6,17.1-1.6,34.4,0,51.8.3,3.2,2.6,5.5,5.5,6,16.5,2.9,32.9,3.6,49.2,2.7,3.1-.2,5-2.7,5.5-6,3.2-18.9,3.4-37.9,0-57.3-.5-3.2-2.4-5.8-5.5-6.1-16-1.3-32.3-.5-49.2,2.7-2.9.6-5.2,2.7-5.5,6.1h0Z"/>
            <path d="M69.5,247.9h0c-12.9,0-24.9-1-36.7-3.1-3.4-.6-5.8-3.2-6.2-6.7-1.6-17.4-1.6-34.9,0-52,.3-3.5,2.6-6.1,6.1-6.8,16.6-3.2,33.1-4.1,49.5-2.8,3.3.3,5.6,3,6.2,6.8,3.3,18.8,3.3,38.2,0,57.6-.6,3.9-3,6.5-6.2,6.6-4.3.2-8.6.3-12.7.3ZM67.7,177.5c-11.4,0-23,1.1-34.6,3.3-2.8.6-4.6,2.6-4.8,5.4-1.6,17-1.6,34.4,0,51.7.3,2.7,2.2,4.8,4.8,5.3,11.6,2.1,23.6,3.1,36.4,3.1s8.4-.1,12.7-.3c2.9-.2,4.4-2.8,4.7-5.3,3.3-19.2,3.3-38.4,0-57.1-.4-2.5-1.8-5.2-4.8-5.5-4.8-.4-9.6-.6-14.4-.6Z"/>
          </g>
          <path d="M70.3,241.5c-12.3,0-24.4-1-36-3-1.3-.1-1.8-.3-1.9-1.7,0-.2,0-.4,0-.6-1.5-16-1.5-32.2,0-48.1,0-.3,0-.5,0-.7,0-1.2.4-1.5,1.6-1.8h.2c15.7-3,30.9-3.9,45.1-2.8.4,0,.7,0,.9,0,2.2,0,2.4.5,2.8,2.8v.7c2.9,17.5,2.8,35.1,0,52.2v.3c-.3,1.6-.4,2.1-2.1,2.2h-.6c-3.4.2-6.8.3-10.1.3ZM34,236.8c.2,0,.4,0,.5,0,14.6,2.5,30,3.4,45.7,2.7h.6c.1,0,.3,0,.4,0,0-.2,0-.5.1-.8v-.4c2.9-17,3-34.4.2-51.7v-.7c-.2-.7-.3-1.3-.4-1.4,0,0-.5,0-.9,0-.3,0-.6,0-1,0-14.2-1.1-29.1-.1-44.7,2.7h-.2c-.1,0-.3.1-.4.1,0,0,0,.1,0,.2,0,.2,0,.4,0,.7-1.4,15.9-1.4,31.9,0,47.8,0,.3,0,.5,0,.7,0,0,0,0,0,.1Z"/>
          <g>
            <path class="cls-2" d="M27.8,188.8c2.1.3,4-1.1,4.4-3.1.3-2.1-1-3.9-3.1-4.4l-23.9-4.2c-1.9-.3-3.9,1-4.4,3.1-.3,1.9,1.1,3.9,3.1,4.2l23.9,4.4Z"/>
            <path d="M28.4,189.6h0c-.2,0-.5,0-.7,0l-23.9-4.4c-1.2-.2-2.2-.9-2.9-1.9-.7-1-1-2.1-.8-3.3.6-2.5,2.8-4.1,5.3-3.7l23.9,4.2c2.6.6,4.1,2.8,3.7,5.3-.4,2.2-2.3,3.8-4.6,3.8ZM4.6,177.9c-1.4,0-2.6,1-3,2.5-.1.7,0,1.4.5,2,.5.7,1.2,1.1,1.9,1.2l23.9,4.4c.1,0,.3,0,.4,0,1.4,0,2.8-1.1,3-2.4.3-1.7-.7-3-2.5-3.4l-23.8-4.2c-.2,0-.3,0-.5,0Z"/>
          </g>
          <g>
            <path class="cls-2" d="M29.1,242.7c2.1-.3,3.4-2.3,3.1-4.4-.3-1.9-2.3-3.2-4.4-2.9l-23.9,4.2c-1.9.3-3.4,2.3-3.1,4.4.5,1.9,2.4,3.4,4.4,2.9l23.9-4.2Z"/>
            <path d="M4.4,247.8c-2,0-3.9-1.5-4.4-3.6-.4-2.6,1.3-4.9,3.7-5.3l23.9-4.2c2.7-.4,4.9,1.2,5.3,3.6.4,2.6-1.2,4.9-3.7,5.3l-23.9,4.2c-.3,0-.6.1-.9.1ZM28.5,236.2c-.2,0-.3,0-.5,0l-23.9,4.2c-1.6.3-2.7,1.8-2.4,3.4.4,1.5,1.9,2.6,3.4,2.2l23.9-4.2c1.6-.3,2.7-1.7,2.4-3.4-.2-1.3-1.5-2.3-2.9-2.3Z"/>
          </g>
          <g>
            <path class="cls-2" d="M7.8,185.2c.2-1.1-.8-2.1-2.1-2.3-1.3-.2-2.4.8-2.6,1.9-1,8.9-1.5,17.9-1.5,27s.5,18.2,1.5,27.4c.2,1.1,1.3,1.9,2.6,1.9,1.3-.2,2.3-1.3,2.1-2.4-.8-9-1.3-17.9-1.3-27s.5-17.8,1.3-26.6h0Z"/>
            <path d="M5.7,242.1h0c-1.7,0-3.2-1.1-3.4-2.6-1-9.3-1.5-18.4-1.5-27.6s.5-18.2,1.5-27c.2-1.6,1.8-2.9,3.5-2.7.9.1,1.8.6,2.3,1.2.4.6.6,1.2.5,1.9-.9,9.5-1.3,18.2-1.3,26.5s.4,17.1,1.3,26.9c0,.7-.1,1.4-.6,2-.5.7-1.3,1.2-2.2,1.3h0ZM5.6,183.8c-1,0-1.6.6-1.7,1.2-1,8.8-1.4,17.8-1.4,26.8s.5,18.1,1.4,27.4c.1.7.8,1.2,1.7,1.2.4,0,.8-.3,1.1-.6.2-.3.3-.6.3-.9-.9-9.8-1.3-18.7-1.3-27.1s.4-17.1,1.3-26.7c0-.3,0-.5-.2-.8-.3-.3-.7-.6-1.2-.6h0Z"/>
          </g>
          <g>
            <path class="cls-2" d="M19.1,186.8c.2-1.1-.8-2.1-2.1-2.3-1.3,0-2.4.8-2.6,1.9-1,8.4-1.5,17-1.5,25.3s.5,17.3,1.5,25.8c.2,1.1,1.3,1.9,2.6,1.8,1.3,0,2.3-1.1,2.1-2.1-1-8.6-1.5-17-1.5-25.5s.5-16.6,1.5-25h0Z"/>
            <path d="M16.7,240.3c-1.6,0-2.8-1-3-2.5-1-8.6-1.5-17.3-1.5-25.9s.5-17.1,1.5-25.4c.2-1.5,1.7-2.7,3.4-2.7,1,.1,1.9.6,2.4,1.3.4.6.6,1.2.5,1.9-1,8.4-1.5,16.6-1.5,24.9s.5,16.8,1.5,25.4c.1.6-.1,1.3-.6,1.9-.6.7-1.4,1.1-2.3,1.1,0,0-.2,0-.3,0ZM16.9,185.4c-.8,0-1.6.5-1.7,1.3-1,8.3-1.4,16.8-1.4,25.2s.5,17.3,1.4,25.7c.1.7.9,1.2,1.7,1.1.5,0,.9-.2,1.2-.5.2-.2.3-.5.2-.7-1-8.7-1.5-17.1-1.5-25.6s.5-16.6,1.5-25.1c0-.3,0-.5-.2-.7-.3-.3-.7-.6-1.2-.6Z"/>
          </g>
        </g>
        <g>
          <g>
            <path class="cls-1" d="M74.8,76.3c-10,14-18.6,28.9-25.8,44.9-1.5,2.9-.6,6,1.6,7.9,12.9,10.8,26.8,19.5,41.3,27,2.7,1.5,5.7.2,7.7-2.4,12.3-14.7,21.8-31.2,28.7-49.6,1.1-3.1.6-6.3-1.8-7.9-13.2-9.2-27.8-16.8-44.1-22.4-2.9-1-5.8-.2-7.7,2.6h0Z"/>
            <path d="M94.3,157.4h0c-1,0-1.9-.2-2.8-.7-15.8-8.1-29.4-16.9-41.5-27.1-2.7-2.3-3.4-5.8-1.8-8.9,7.3-16.1,15.8-30.8,25.9-45,2-2.9,5.4-4,8.7-2.9,15.9,5.5,30.4,12.9,44.3,22.5,2.6,1.7,3.4,5.2,2.1,8.9-6.9,18.4-16.7,35.2-28.9,49.8-1.7,2.1-3.9,3.3-6,3.3ZM80.2,74.1c-1.9,0-3.5.9-4.8,2.6-10.1,14.1-18.5,28.7-25.8,44.8-1.2,2.5-.7,5.2,1.4,7,12,10,25.5,18.8,41.2,26.9,2.2,1.2,4.7.3,6.8-2.2,12.1-14.5,21.7-31.1,28.6-49.3,1.1-2.9.5-5.6-1.5-7-13.8-9.6-28.1-16.9-43.9-22.4-.7-.2-1.4-.3-2.1-.3Z"/>
          </g>
          <path d="M94.7,151c-.4,0-.8-.2-1.4-.6l-.3-.2c-14.6-7.6-27.2-15.9-38.5-25.3l-.3-.2c-.8-.8-.9-1.2-.4-2.2,0-.2.2-.4.3-.6,6.5-14.2,14.6-28.2,24-41.6.2-.2.3-.4.4-.6.3-.5.6-.9,1.3-.9s.8.2,1.4.4c14.1,4.8,27.7,11.6,40.3,20.1.3.2.6.4.8.5,1.7,1.1,1.8,1.5,1,3.4l-.4.9c-6.3,16.5-15.1,31.7-26.3,45.3l-.4.5c-.5.6-.9,1.1-1.5,1.1ZM55.1,123.4c0,0,.1.1.2.2l.2.2c11.2,9.2,23.7,17.4,38.2,25l.4.2c.2,0,.3.2.5.3,0-.1.2-.3.3-.4l.4-.5c11-13.4,19.8-28.5,26-44.8l.4-.9c.2-.4.4-.9.4-1,0,0-.4-.2-.7-.4-.2-.2-.5-.3-.8-.5-12.5-8.4-25.9-15.1-40-19.9-.2-.1-.5-.2-.6-.3,0,0,0,.1-.1.2-.1.2-.3.4-.5.6-9.3,13.3-17.4,27.2-23.8,41.3-.1.3-.2.5-.3.7,0,0,0,.1,0,.2Z"/>
          <g>
            <path class="cls-2" d="M73.8,78.7c1.6,1.3,3.9,1.1,5.2-.5,1.3-1.6,1.1-3.9-.5-5.2l-18.6-15.7c-1.5-1.5-3.9-1.1-5.2.5-1.3,1.5-1.1,3.9.5,5.2l18.6,15.7Z"/>
            <path d="M76.2,80.3h0c-1,0-2.1-.4-2.9-1l-18.6-15.7c-.9-.7-1.5-1.9-1.6-3.1-.1-1.2.3-2.4,1-3.3,1.5-1.9,4.7-2.2,6.3-.5l18.5,15.6c.9.7,1.5,1.8,1.6,2.9.1,1.2-.2,2.4-1,3.4-.8,1-2.1,1.6-3.4,1.6ZM57.7,57.2c-.9,0-1.7.4-2.3,1.1-.5.6-.7,1.3-.7,2.1,0,.8.4,1.5,1,2l18.6,15.7c.5.4,1.2.7,1.9.7h0c.8,0,1.6-.4,2.1-1,.5-.6.8-1.4.7-2.2,0-.7-.4-1.4-1-1.8l-18.6-15.7c-.6-.6-1.3-.7-1.7-.7Z"/>
          </g>
          <g>
            <path class="cls-2" d="M48,126c1.9.8,4-.2,4.7-2.1.6-1.9-.3-4-2.3-4.8l-22.8-8.2c-1.9-.6-4,.3-4.8,2.3-.6,1.9.3,4,2.3,4.7l22.9,8.2Z"/>
            <path d="M49.4,127.1c-.6,0-1.2-.1-1.7-.3l-22.9-8.2c-1.1-.4-2-1.2-2.6-2.3-.5-1.1-.6-2.3-.2-3.4,1-2.3,3.6-3.6,5.9-2.8l22.8,8.2c2.4,1,3.5,3.5,2.8,5.9-.6,1.8-2.2,2.9-4,2.9ZM26.4,111.4c-1.3,0-2.4.8-2.9,2-.2.7-.2,1.5.1,2.2.3.7.9,1.2,1.6,1.4l22.9,8.2c1.6.7,3.2-.1,3.6-1.6.5-1.5-.3-3.2-1.8-3.8l-22.7-8.2c-.3,0-.6-.2-.9-.2Z"/>
          </g>
          <g>
            <path class="cls-2" d="M58.2,65.6c.8-1,.5-2.3-.6-3.1-1.1-.6-2.6-.5-3.2.5-5.3,7.3-10.2,14.9-14.7,22.6-4.5,7.9-8.7,16-12.4,24.4-.5,1.1,0,2.4,1.3,3.1,1.1.5,2.4,0,2.9-1,3.7-8.4,7.9-16.3,12.3-24.1,4.5-7.7,9.4-15.2,14.5-22.4h0Z"/>
            <path d="M29.4,114.1h0c-.4,0-.8,0-1.2-.3-1.7-.8-2.4-2.6-1.7-4.1,3.5-7.9,7.6-15.9,12.5-24.5,5-8.5,9.8-15.9,14.7-22.7.8-1.2,2.8-1.6,4.3-.7.9.6,1.4,1.4,1.5,2.2,0,.7-.1,1.5-.6,2-5.3,7.5-10.1,14.8-14.5,22.3-5.3,9.4-9,16.8-12.2,24-.5,1-1.6,1.6-2.7,1.6ZM56.1,63c-.5,0-.9.2-1.1.5-5,6.8-9.7,14.1-14.7,22.6-4.9,8.5-8.9,16.5-12.4,24.3-.3.8,0,1.6.9,2,.6.2,1.5,0,1.8-.6,3.2-7.2,7-14.7,12.3-24.1,4.4-7.5,9.2-14.9,14.6-22.5.2-.3.3-.6.3-.9,0-.4-.3-.8-.7-1.1-.3-.1-.6-.2-1-.2Z"/>
          </g>
          <g>
            <path class="cls-2" d="M67.2,72.5c.6-.8.3-2.1-.8-2.9s-2.4-.6-3.1.3c-5.2,6.8-9.8,13.9-14,21.3s-8.2,15-11.6,23.1c-.5,1,.2,2.3,1.3,2.7,1.1.6,2.6.3,2.9-.8,3.6-7.7,7.3-15.3,11.5-22.6,4.2-7.3,8.9-14.4,13.9-21.1h0Z"/>
            <path d="M40.2,118.2c-.6,0-1.1-.2-1.6-.4-.7-.3-1.4-1-1.7-1.8-.3-.7-.2-1.4,0-2,3.6-8.6,7.9-16.5,11.6-23.1,4.2-7.4,8.9-14.6,14.1-21.4.8-1.2,2.7-1.5,4.2-.5.8.6,1.3,1.4,1.5,2.2,0,.7,0,1.3-.5,1.8-5,6.8-9.7,13.9-13.8,21-3.6,6.3-7.3,13.5-11.4,22.5-.3.9-1.2,1.6-2.4,1.6ZM64.9,69.9c-.3,0-.6,0-.9.5-5.2,6.8-9.9,13.9-14,21.3-3.7,6.6-8,14.4-11.6,23-.2.3-.1.6,0,.8.1.4.5.7.9.9.3.2.6.3.9.3s.8,0,.9-.6c4.2-9.2,7.9-16.4,11.5-22.8,4.1-7.2,8.8-14.3,13.9-21.2.2-.2.2-.5.2-.6,0-.4-.4-.8-.8-1.1-.3-.2-.7-.4-1-.4Z"/>
          </g>
        </g>
        <g>
          <path d="M223.2,248.2l-36.2-36.2.6-.6,35.6-35.6,36.2,36.2-.6.6-35.6,35.6ZM189.3,212l33.9,33.9,33.9-33.9-33.9-33.9-33.9,33.9Z"/>
          <g>
            <path class="cls-1" d="M204.9,212c0-10,8.2-18.1,18.2-18.1s18.1,8.1,18.1,18.1-8.1,18.2-18.1,18.2-18.2-8.2-18.2-18.2h0Z"/>
            <path d="M223.2,231.1c-10.5,0-19-8.5-19-19s8.5-18.9,19-18.9,18.9,8.5,18.9,18.9-8.5,19-18.9,19ZM223.2,194.8c-9.6,0-17.4,7.8-17.4,17.3s7.8,17.4,17.4,17.4,17.3-7.8,17.3-17.4-7.7-17.3-17.3-17.3Z"/>
          </g>
          <g>
            <path class="cls-1" d="M207.8,212c0-8.4,6.8-15.3,15.3-15.3s15.3,6.9,15.3,15.3-6.9,15.3-15.3,15.3-15.3-6.8-15.3-15.3h0Z"/>
            <path d="M223.2,228.2c-9,0-16.1-7.1-16.1-16.1s7.2-16.1,16.1-16.1,16.1,7.2,16.1,16.1-7.2,16.1-16.1,16.1ZM223.2,197.5c-8,0-14.5,6.5-14.5,14.5s6.4,14.5,14.5,14.5,14.5-6.5,14.5-14.5-6.5-14.5-14.5-14.5Z"/>
          </g>
          <path d="M249.3,188.1h-21.8c-.4,0-.8-.4-.8-.8s.4-.8.8-.8h21.8c.4,0,.8.4.8.8s-.4.8-.8.8Z"/>
          <path d="M226.9,190h-9.9v-1.1h9.9v-3.3c0,0-9.9,0-9.9,0v-1.1h9.9c.6,0,1.2.6,1.2,1.2v3.2c0,.6-.6,1.2-1.2,1.2Z"/>
          <rect x="217" y="186.8" width="10.5" height="1.1"/>
          <g>
            <path class="cls-1" d="M223.3,216.1l12.1,21,3.9,6.6c.2.2.5.3.6.2l.5-.3c.2,0,.3-.3.2-.5l-3.9-6.8c-.6-1-.6-3.4-1-4.2-1.9-6.5-6.9-12.3-12.4-16h0Z"/>
            <path d="M239.8,244.5c-.4,0-.7-.2-.9-.4,0,0,0,0,0-.1l-3.9-6.6-12.1-21c-.1-.2,0-.5.1-.7.2-.2.5-.2.7,0,6.1,4.1,10.8,10.2,12.7,16.3.1.3.2.9.3,1.6.1.9.3,2,.6,2.4l3.9,6.8c.2.2.2.5.1.8-.1.2-.3.4-.5.5l-.4.3c0,0-.3.2-.5.2ZM225.2,218.1l14.6,25.2.3-.2-3.8-6.6c-.4-.7-.6-1.8-.8-2.9,0-.6-.2-1.1-.3-1.4-1.5-5.1-5.2-10.3-10.1-14.1Z"/>
          </g>
        </g>
        <g>
          <path d="M183.6,180.9l-36.2-36.2.6-.6,35.6-35.6,36.2,36.2-.6.6-35.6,35.6ZM149.7,144.7l33.9,33.9,33.9-33.9-33.9-33.9-33.9,33.9Z"/>
          <g>
            <path class="cls-1" d="M183.6,162.8c-10,0-18.1-8.1-18.1-18.1s8.1-18.2,18.1-18.2,18.2,8.2,18.2,18.2-8.2,18.1-18.2,18.1h0Z"/>
            <path d="M183.6,163.6c-10.4,0-18.9-8.5-18.9-18.9s8.5-19,18.9-19,19,8.5,19,19-8.5,18.9-19,18.9ZM183.6,127.3c-9.5,0-17.3,7.8-17.3,17.4s7.7,17.3,17.3,17.3,17.4-7.8,17.4-17.3-7.8-17.4-17.4-17.4Z"/>
          </g>
          <g>
            <path class="cls-1" d="M183.6,160c-8.4,0-15.3-6.9-15.3-15.3s6.9-15.3,15.3-15.3,15.3,6.8,15.3,15.3-6.8,15.3-15.3,15.3h0Z"/>
            <path d="M183.6,160.8c-8.9,0-16.1-7.2-16.1-16.1s7.2-16.1,16.1-16.1,16.1,7.1,16.1,16.1-7.2,16.1-16.1,16.1ZM183.6,130.2c-8,0-14.5,6.5-14.5,14.5s6.5,14.5,14.5,14.5,14.5-6.5,14.5-14.5-6.4-14.5-14.5-14.5Z"/>
          </g>
          <path d="M158.9,141.2c-.4,0-.8-.4-.8-.8v-21.8c0-.4.4-.8.8-.8s.8.4.8.8v21.8c0,.4-.4.8-.8.8Z"/>
          <path d="M161.6,150.8h-1.1v-10h-3.3c0,0,0,10,0,10h-1.1v-10c0-.6.5-1,1.2-1h3.2c.7,0,1.2.5,1.2,1v10Z"/>
          <rect x="158.3" y="140.3" width="1.1" height="10.5"/>
          <g>
            <path class="cls-1" d="M187.6,144.4l21-12.1,6.6-3.7c.2-.2.3-.5.2-.6l-.3-.5c0-.3-.3-.3-.6-.2l-6.6,3.9c-1,.5-3.4.6-4.2.8-6.5,2.1-12.3,6.9-16,12.4h0Z"/>
            <path d="M187.6,144.9c-.2,0-.3,0-.4-.2-.2-.2-.2-.5,0-.7,4-5.9,10.1-10.6,16.3-12.7.3,0,.7-.1,1.1-.2,1-.1,2.4-.3,3-.6l6.6-3.9c.2,0,.4-.2.7-.2.4,0,.7.3.8.6l.3.4c.3.3.2,1-.2,1.4,0,0,0,0-.1,0l-6.6,3.7-21,12.1c0,0-.2,0-.3,0ZM214.7,127.8l-6.6,3.8c-.8.4-2.2.6-3.4.7-.4,0-.8,0-1,.1-5.1,1.7-10.2,5.3-14,10l18.6-10.8,6.5-3.7-.2-.3Z"/>
          </g>
        </g>
        <g>
          <path d="M144.2,248.2l-36.2-36.2.6-.6,35.6-35.6,36.2,36.2-.6.6-35.6,35.6ZM110.3,212l33.9,33.9,33.9-33.9-33.9-33.9-33.9,33.9Z"/>
          <g>
            <path class="cls-1" d="M162.3,212c0,10-8.1,18.2-18.1,18.2s-18.2-8.2-18.2-18.2,8.2-18.1,18.2-18.1,18.1,8.1,18.1,18.1h0Z"/>
            <path d="M144.2,231.1c-10.5,0-19-8.5-19-19s8.5-18.9,19-18.9,18.9,8.5,18.9,18.9-8.5,19-18.9,19ZM144.2,194.8c-9.6,0-17.4,7.8-17.4,17.3s7.8,17.4,17.4,17.4,17.3-7.8,17.3-17.4-7.7-17.3-17.3-17.3Z"/>
          </g>
          <g>
            <path class="cls-1" d="M159.5,212c0,8.6-6.9,15.3-15.3,15.3s-15.3-6.8-15.3-15.3,6.8-15.3,15.3-15.3,15.3,6.9,15.3,15.3h0Z"/>
            <path d="M144.2,228.2c-9,0-16.1-7.1-16.1-16.1s7.2-16.1,16.1-16.1,16.1,7.2,16.1,16.1-7.2,16.1-16.1,16.1ZM144.2,197.5c-8,0-14.5,6.5-14.5,14.5s6.4,14.5,14.5,14.5,14.5-6.5,14.5-14.5-6.5-14.5-14.5-14.5Z"/>
          </g>
          <path d="M139.9,237.5h-21.8c-.4,0-.8-.4-.8-.8s.4-.8.8-.8h21.8c.4,0,.8.4.8.8s-.4.8-.8.8Z"/>
          <path d="M150.3,239.7h-10c-.6,0-1.1-.5-1.1-1.2v-3.2c0-.7.5-1.2,1.1-1.2h10v1.1h-10v3.3c0,0,10,0,10,0v1.1Z"/>
          <rect x="139.9" y="236.2" width="10.5" height="1.1"/>
          <g>
            <path class="cls-1" d="M143.9,208l-12.1-20.8-3.7-6.8c-.2-.2-.5-.2-.6-.2l-.5.3c-.2.2-.3.3-.2.6l3.9,6.6c.5,1,.6,3.4,1,4.2,1.9,6.5,6.9,12.4,12.3,16h0Z"/>
            <path d="M143.9,208.6c-.1,0-.2,0-.3,0-5.9-3.9-10.7-10.2-12.5-16.3-.1-.4-.3-1-.4-1.8-.2-.9-.3-1.9-.6-2.3l-3.9-6.6c-.4-.7,0-1.2.3-1.3l.6-.4c0,0,.2,0,.3,0,.2,0,.7,0,1,.3,0,0,0,0,0,.1l3.7,6.8,12.1,20.8c.1.2,0,.5-.1.7-.1.1-.3.2-.4.2ZM127.6,180.8l-.4.2,3.9,6.5c.3.7.5,1.7.7,2.7.1.6.2,1.3.3,1.6,1.6,5.2,5.2,10.4,9.9,14.1l-10.7-18.5-3.6-6.7s0,0,0,0Z"/>
          </g>
        </g>
        <g>
          <path d="M183.6,315.2l-.6-.6-35.6-35.6.6-.6,35.6-35.6,36.2,36.2-.6.6-35.6,35.6ZM149.7,279l33.9,33.9,33.9-33.9-33.9-33.9-33.9,33.9Z"/>
          <g>
            <path class="cls-1" d="M183.6,260.9c10,0,18.2,8.1,18.2,18.1s-8.2,18.2-18.2,18.2-18.1-8.2-18.1-18.2,8.1-18.1,18.1-18.1h0Z"/>
            <path d="M183.6,298.1c-10.4,0-18.9-8.5-18.9-19s8.5-18.9,18.9-18.9,19,8.5,19,18.9-8.5,19-19,19ZM183.6,261.8c-9.5,0-17.3,7.8-17.3,17.3s7.7,17.4,17.3,17.4,17.4-7.8,17.4-17.4-7.8-17.3-17.4-17.3Z"/>
          </g>
          <g>
            <path class="cls-1" d="M183.6,263.7c8.6,0,15.3,6.9,15.3,15.3s-6.8,15.3-15.3,15.3-15.3-6.8-15.3-15.3,6.9-15.3,15.3-15.3h0Z"/>
            <path d="M183.6,295.2c-8.9,0-16.1-7.2-16.1-16.1s7.2-16.1,16.1-16.1,16.1,7.2,16.1,16.1-7.1,16.1-16.1,16.1ZM183.6,264.5c-8,0-14.5,6.5-14.5,14.5s6.5,14.5,14.5,14.5,14.5-6.4,14.5-14.5-6.5-14.5-14.5-14.5Z"/>
          </g>
          <path d="M208.3,306c-.4,0-.8-.4-.8-.8v-21.6c0-.4.4-.8.8-.8s.8.4.8.8v21.6c0,.4-.4.8-.8.8Z"/>
          <path d="M210.1,284.1h-3.2c-.6,0-1.2-.6-1.2-1.2v-10h1.1v10h3.3c0,0,0-10,0-10h1.1v10c0,.6-.6,1.2-1.2,1.2Z"/>
          <rect x="207.7" y="272.9" width="1.1" height="10.5"/>
          <g>
            <path class="cls-1" d="M179.6,279.3l-21,12.1-6.6,3.9c-.2,0-.3.3-.2.5l.3.5c.2.3.3.3.6.2l6.6-3.7c1-.6,3.4-.8,4.2-1,6.5-2.1,12.4-6.9,16-12.4h0Z"/>
            <path d="M152.4,297.1h0c-.2,0-.6-.1-.8-.6l-.3-.4c-.2-.2-.2-.5,0-.8.1-.2.3-.4.5-.5l6.5-3.8,21-12.1c.2-.1.5,0,.7.1.2.2.2.5,0,.7-3.7,5.8-10,10.6-16.3,12.7-.3,0-.6.1-.9.1-.9.1-2.5.3-3.1.8l-6.7,3.7c-.2,0-.4.2-.6.2ZM152.4,295.7v.2c.1,0,6.7-3.7,6.7-3.7.8-.5,2.4-.8,3.6-.9.3,0,.6,0,.8-.1,5.2-1.7,10.5-5.5,14.1-10.1l-25.2,14.6Z"/>
          </g>
        </g>
      </g>
    </g>
  </g>
</svg>