<?xml version="1.0" encoding="UTF-8"?>
<svg xmlns="http://www.w3.org/2000/svg" version="1.1" viewBox="0 0 122.5 170.9">
  <defs>
    <style>
      .cls-1 {
        stroke: #000;
        stroke-linecap: square;
        stroke-miterlimit: 10;
        stroke-width: 1.1px;
      }

      .cls-1, .cls-2 {
        fill: #fff;
      }
    </style>
  </defs>
  <!-- Generator: Adobe Illustrator 28.6.0, SVG Export Plug-In . SVG Version: 1.2.0 Build 709)  -->
  <g>
    <g id="Layer_1">
      <g>
        <g>
          <path d="M118.4,92.6l-13.7,1.7h0c0,0,13.7-1.7,13.7-1.7ZM119.5,122.2v-.3c0,0,0-.1.1-.4.3-1.7,1.5-8.4,1.6-14.6v-.3c0-6.2-1.3-13.2-1.6-14.9,0-.3,0-.4,0-.4v-.3h-.7s-10.6,1.4-10.6,1.4h0s-2.5.3-2.5.3l-1.8.2h-.3s0,.3,0,.3c0,0,0,.1,0,.3,0,.2,0,.6,0,1,0,.3,0,.6,0,.9,0,.1,0,.3,0,.4,0,.2,0,.4,0,.6,0,.1,0,.3,0,.4,0,.3,0,.5,0,.8,0,1.1-.1,2.4-.2,3.7,0,.3,0,.7,0,1,0,.3,0,.7,0,1,0,.3,0,.7,0,1,0,.7,0,1.4,0,2.1s0,1.4,0,2.1c0,.3,0,.7,0,1,0,.3,0,.7,0,1,0,.3,0,.7,0,1,0,1.7.2,3.2.3,4.5,0,.2,0,.3,0,.5.1,1.3.2,2.3.2,2.8,0,.2,0,.3,0,.3v.3s.3,0,.3,0l1.8.2,2.5.3h0s10.8,1.3,10.8,1.3h.3s.3,0,.3,0ZM107.8,120.1l-3.8-.5s0,0,0-.1c0,0,0-.1,0-.2s0,0,0-.1c0,0,0-.2,0-.3h0l14.4,1.8v-.3c.5-2.3,1.5-8.3,1.5-13.8v-.5c0-5.3-1-11-1.4-13.2v-.3c0,0-13.8,1.7-13.8,1.7h0c0,0,0,.4,0,.4h0s0,.3,0,.3h.3s12.8-1.6,12.8-1.6c.4,2.4,1.3,7.8,1.3,12.8v.5c0,5.1-.9,10.8-1.3,13.3l-13.9-1.8c0-.4,0-.8-.1-1.4h0c0-.1,0-.2,0-.3,0,0,0-.2,0-.3,0,0,0-.2,0-.3,0,0,0-.2,0-.2v-.2c0-.6,0-1.3-.1-2,0-.7,0-1.5-.1-2.2,0-.7,0-1.4,0-2,0-.2,0-.5,0-.7,0-.6,0-1.3,0-1.9s0-.8,0-1.2c0-.2,0-.5,0-.7v-.2c0-.7,0-1.4,0-2.1,0-.2,0-.3,0-.5,0-.2,0-.3,0-.5,0-.3,0-.7,0-1,0-.1,0-.2,0-.3,0-.2,0-.4,0-.6h0c0-.4,0-.6,0-.9,0-.3,0-.6,0-.9,0,0,0-.1,0-.1,0,0,0,0,0-.1v-.2c0-.1,0-.2,0-.4,0,0,0,0,0,0h0c0-.2,0-.2,0-.3,0,0,0,0,0-.1,0-.2,0-.4,0-.5,0-.3,0-.6,0-.8,0-.1,0-.2,0-.3,0-.1,0-.2,0-.3,0,0,0-.2,0-.3h0c0,0,0-.1,0-.2,0-.1,0-.2,0-.3l3.9-.5h0l10.9-1.3c.3,1.5,1.5,8.3,1.6,14.6v.3c0,6.3-1.3,13.3-1.6,14.8l-11-1.4h0ZM118.4,92.6l-13.7,1.7h0c0,0,13.7-1.7,13.7-1.7ZM118.4,92.6l-13.7,1.7h0c0,0,13.7-1.7,13.7-1.7Z"/>
          <path class="cls-2" d="M120.8,106.7h0c0-7.2-1.7-15.2-1.7-15.2l-15.4,1.9s0,.5-.1,1.3c0,0,.1,0,.2,0l14.3-1.8c.4,2.4,1.3,8,1.4,13.2v.5c0,5.3-.9,11.2-1.4,13.7l-14.3-1.8c0,0-.1,0-.2,0,0,.8.1,1.3.1,1.3l15.4,1.9s1.7-8,1.7-15.2Z"/>
          <g>
            <path class="cls-2" d="M120.2,121.5h-.6c.3-1.7,1.5-8.4,1.6-14.6v-.3c0-6.2-1.3-13.2-1.6-14.9h.6c.3,1.6,1.6,8.5,1.6,14.9s-1.3,13.3-1.6,14.9Z"/>
            <path d="M120.8,122.2v-.3c0,0,1.7-9.3,1.7-15.3s-1.5-14.4-1.7-15.3v-.3c0,0-1.4,0-1.4,0h0s-.3,0-.3,0h-.3s-10.6,1.4-10.6,1.4h0s-2.5.3-2.5.3l-1.8.2h-.3s0,.3,0,.3c0,0,0,.1,0,.3,0,.2,0,.6,0,1,0,.3,0,.6,0,.9,0,.1,0,.3,0,.4,0,.2,0,.4,0,.6,0,.1,0,.3,0,.4,0,.3,0,.5,0,.8,0,1.1-.1,2.4-.2,3.7,0,.3,0,.7,0,1,0,.3,0,.7,0,1,0,.3,0,.7,0,1,0,.7,0,1.4,0,2.1s0,1.4,0,2.1c0,.3,0,.7,0,1,0,.3,0,.7,0,1,0,.3,0,.7,0,1,0,1.7.2,3.2.3,4.5,0,.2,0,.3,0,.5.1,1.3.2,2.3.2,2.8,0,.2,0,.3,0,.3v.3s.3,0,.3,0l1.8.2,2.5.3h0s10.8,1.3,10.8,1.3h.3s0,0,0,0h0s1.6,0,1.6,0ZM119.6,91.8h.6c.3,1.6,1.6,8.5,1.6,14.9s-1.3,13.3-1.6,14.9h-.6c.3-1.7,1.5-8.4,1.6-14.6v-.3c0-6.2-1.3-13.2-1.6-14.9,0,0,0,0,0,0ZM103.8,116.9h0c0-.1,0-.2,0-.3,0,0,0-.2,0-.3,0,0,0-.2,0-.3,0,0,0-.2,0-.2v-.2c0-.6,0-1.3-.1-2,0-.7,0-1.5-.1-2.2,0-.7,0-1.4,0-2,0-.2,0-.5,0-.7,0-.6,0-1.3,0-1.9s0-.8,0-1.2c0-.2,0-.5,0-.7v-.2c0-.7,0-1.4,0-2.1,0-.2,0-.3,0-.5,0-.2,0-.3,0-.5,0-.3,0-.7,0-1,0-.1,0-.2,0-.3,0-.2,0-.4,0-.6h0c0-.4,0-.6,0-.9,0-.3,0-.6,0-.9,0,0,0-.1,0-.1,0,0,0,0,0-.1v-.2c0-.1,0-.2,0-.4,0,0,0-.1,0-.2,0,0,0-.1,0-.2,0,0,0,0,0-.1,0-.2,0-.4,0-.5,0-.3,0-.6,0-.8h1c0-.1,12.8-1.8,12.8-1.8.4,2.4,1.3,7.8,1.3,12.8v.5c0,5.1-.9,10.8-1.3,13.3l-13.9-1.8c0-.4,0-.8-.1-1.4ZM107.9,120.1h0s-3.8-.5-3.8-.5c0,0,0,0,0-.1,0,0,0-.1,0-.2s0,0,0-.1c0,0,0-.2,0-.3h0l14.4,1.8v-.3c.5-2.3,1.5-8.3,1.5-13.8v-.5c0-5.3-1-11-1.4-13.2v-.3c0,0-13.8,1.8-13.8,1.8h-.6s0,0,0-.2h0c0,0,0-.1,0-.2,0-.1,0-.2,0-.3l3.9-.5h0l10.9-1.3c.3,1.5,1.5,8.3,1.6,14.6v.3c0,6.3-1.3,13.3-1.6,14.8l-11-1.4Z"/>
          </g>
          <g>
            <path class="cls-2" d="M99.1,120.6l4.3-.6h.3s-.3-2.8-.5-6.4c0-1.1-.1-2.2-.2-3.4,0-1.2,0-2.4,0-3.6,0-6.3.7-13.3.7-13.3h-.3s-4.3-.6-4.3-.6c-2.3-.3-4.6-.5-6.9-.5h-16.1c-.5,0-1,1.6-1.3,4.2-.3,2.6-.6,6.2-.6,10.2,0,7.9.8,14.4,1.9,14.4h16.1c2.3,0,4.6-.2,6.9-.5ZM76.1,120.7c-.6-.3-1.6-5.5-1.6-14s.9-13.8,1.5-14.1h16.1c2.3,0,4.6.2,6.9.5l4.3.6c0,.2,0,.6,0,1,0,.3,0,.6,0,.9,0,.1,0,.3,0,.4,0,.2,0,.4,0,.6,0,.1,0,.3,0,.4,0,.3,0,.5,0,.8,0,1.1-.1,2.4-.2,3.7,0,.3,0,.7,0,1,0,.3,0,.7,0,1,0,.3,0,.7,0,1,0,.7,0,1.4,0,2.1s0,1.4,0,2.1c0,.3,0,.7,0,1,0,.4,0,.7,0,1,0,.3,0,.7,0,1,0,1.7.2,3.2.3,4.5,0,.2,0,.3,0,.5.1,1.3.2,2.3.2,2.8l-4.3.6c-2.3.3-4.6.5-6.9.5h-16.1Z"/>
            <path d="M99.2,120.9l4.6-.6h0c.1,0,.3-.2.3-.3h0c0,0,0-.2,0-.3,0,0,0,0,0-.1,0,0,0-.1,0-.2s0,0,0-.1c0,0,0-.2,0-.3h0c0-.1,0-.2,0-.3h0c0-.1,0-.2,0-.4,0-.4,0-.8-.1-1.4h0c0-.1,0-.2,0-.3,0,0,0-.2,0-.3,0,0,0-.2,0-.3,0,0,0-.2,0-.3h0c0-.8,0-1.5-.1-2.2,0-.7,0-1.5-.1-2.2,0-.7,0-1.4,0-2,0-.2,0-.5,0-.7,0-.6,0-1.3,0-1.9s0-.8,0-1.2c0-.2,0-.5,0-.7v-.2c0-.7,0-1.4,0-2.1,0-.2,0-.3,0-.5,0-.2,0-.3,0-.5,0-.3,0-.7,0-1,0-.1,0-.2,0-.3,0-.2,0-.4,0-.6,0-.6,0-1.2.1-1.8,0,0,0-.1,0-.1,0,0,0-.1,0-.2h0c0-.3,0-.4,0-.5,0,0,0,0,0,0h0c0-.2,0-.2,0-.3,0,0,0,0,0-.1,0-.2,0-.4,0-.5,0-.3,0-.6,0-.8,0-.1,0-.2,0-.3,0-.1,0-.2,0-.3,0,0,0-.2,0-.3h0c0,0,0-.1,0-.2,0-.1,0-.2,0-.3,0-.2,0-.3,0-.3,0,0,0,0,0,0h0c0-.2-.1-.3-.3-.3h0l-4.6-.6c-2.3-.3-4.7-.5-7-.5h-16.1c-2.2,0-2.2,14.1-2.2,14.7s0,14.7,2.2,14.7h16.1c2.3,0,4.7-.2,7-.5ZM76.1,120.7c-.6-.3-1.6-5.5-1.6-14s.9-13.8,1.5-14.1h16.1c2.3,0,4.6.2,6.9.5l4.3.6c0,.2,0,.6,0,1,0,.3,0,.6,0,.9,0,.1,0,.3,0,.4,0,.2,0,.4,0,.6,0,.1,0,.3,0,.4,0,.3,0,.5,0,.8,0,1.1-.1,2.4-.2,3.7,0,.3,0,.7,0,1,0,.3,0,.7,0,1,0,.3,0,.7,0,1,0,.7,0,1.4,0,2.1s0,1.4,0,2.1c0,.3,0,.7,0,1,0,.3,0,.7,0,1,0,.3,0,.7,0,1,0,1.7.2,3.2.3,4.5,0,.2,0,.3,0,.5.1,1.3.2,2.3.2,2.8l-4.3.6c-2.3.3-4.6.5-6.9.5h-16.1Z"/>
            <path class="cls-2" d="M92.2,120.7h-16.1c-.6-.3-1.6-5.5-1.6-14s.9-13.8,1.5-14.1h16.1c2.3,0,4.6.2,6.9.5l4.3.6c0,.2,0,.6,0,1,0,.3,0,.6,0,.9,0,.1,0,.3,0,.4,0,.2,0,.4,0,.6,0,.1,0,.3,0,.4,0,.3,0,.5,0,.8,0,1.1-.1,2.4-.2,3.7,0,.3,0,.7,0,1,0,.3,0,.7,0,1,0,.3,0,.7,0,1,0,.7,0,1.4,0,2.1s0,1.4,0,2.1c0,.3,0,.7,0,1,0,.4,0,.7,0,1,0,.3,0,.7,0,1,0,1.7.2,3.2.3,4.5,0,.2,0,.3,0,.5.1,1.3.2,2.3.2,2.8l-4.3.6c-2.3.3-4.6.5-6.9.5Z"/>
          </g>
        </g>
        <g>
          <path d="M118.4,50.8l-13.7,1.7h0c0,0,13.7-1.7,13.7-1.7ZM119.5,80.4v-.3c0,0,0-.1.1-.4.3-1.7,1.5-8.4,1.6-14.6v-.3c0-6.2-1.3-13.2-1.6-14.9,0-.3,0-.4,0-.4v-.3h-.7s-10.6,1.4-10.6,1.4h0s-2.5.3-2.5.3l-1.8.2h-.3s0,.3,0,.3c0,0,0,.1,0,.3,0,.2,0,.6,0,1,0,.3,0,.6,0,.9,0,.1,0,.3,0,.4,0,.2,0,.4,0,.6,0,.1,0,.3,0,.4,0,.3,0,.5,0,.8,0,1.1-.1,2.4-.2,3.7,0,.3,0,.7,0,1,0,.3,0,.7,0,1,0,.3,0,.7,0,1,0,.7,0,1.4,0,2.1s0,1.4,0,2.1c0,.3,0,.7,0,1,0,.3,0,.7,0,1,0,.3,0,.7,0,1,0,1.7.2,3.2.3,4.5,0,.2,0,.3,0,.5.1,1.3.2,2.3.2,2.8,0,.2,0,.3,0,.3v.3s.3,0,.3,0l1.8.2,2.5.3h0s10.8,1.3,10.8,1.3h.3s.3,0,.3,0ZM107.8,78.4l-3.8-.5s0,0,0-.1c0,0,0-.1,0-.2s0,0,0-.1c0,0,0-.2,0-.3h0l14.4,1.8v-.3c.5-2.3,1.5-8.3,1.5-13.8v-.5c0-5.3-1-11-1.4-13.2v-.3c0,0-13.8,1.7-13.8,1.7h0c0,0,0,.4,0,.4h0s0,.3,0,.3h.3s12.8-1.6,12.8-1.6c.4,2.4,1.3,7.8,1.3,12.8v.5c0,5.1-.9,10.8-1.3,13.3l-13.9-1.8c0-.4,0-.8-.1-1.4h0c0-.1,0-.2,0-.3,0,0,0-.2,0-.3,0,0,0-.2,0-.3,0,0,0-.2,0-.2v-.2c0-.6,0-1.3-.1-2,0-.7,0-1.5-.1-2.2,0-.7,0-1.4,0-2,0-.2,0-.5,0-.7,0-.6,0-1.3,0-1.9s0-.8,0-1.2c0-.2,0-.5,0-.7v-.2c0-.7,0-1.4,0-2.1,0-.2,0-.3,0-.5,0-.2,0-.3,0-.5,0-.3,0-.7,0-1,0-.1,0-.2,0-.3,0-.2,0-.4,0-.6h0c0-.4,0-.6,0-.9,0-.3,0-.6,0-.9,0,0,0-.1,0-.1,0,0,0,0,0-.1v-.2c0-.1,0-.2,0-.4,0,0,0,0,0,0h0c0-.2,0-.2,0-.3,0,0,0,0,0-.1,0-.2,0-.4,0-.5,0-.3,0-.6,0-.8,0-.1,0-.2,0-.3,0-.1,0-.2,0-.3,0,0,0-.2,0-.3h0c0,0,0-.1,0-.2,0-.1,0-.2,0-.3l3.9-.5h0l10.9-1.3c.3,1.5,1.5,8.3,1.6,14.6v.3c0,6.3-1.3,13.3-1.6,14.8l-11-1.4h0ZM118.4,50.8l-13.7,1.7h0c0,0,13.7-1.7,13.7-1.7ZM118.4,50.8l-13.7,1.7h0c0,0,13.7-1.7,13.7-1.7Z"/>
          <path class="cls-2" d="M120.8,64.9h0c0-7.2-1.7-15.2-1.7-15.2l-15.4,1.9s0,.5-.1,1.3c0,0,.1,0,.2,0l14.3-1.8c.4,2.4,1.3,8,1.4,13.2v.5c0,5.3-.9,11.2-1.4,13.7l-14.3-1.8c0,0-.1,0-.2,0,0,.8.1,1.3.1,1.3l15.4,1.9s1.7-8,1.7-15.2Z"/>
          <g>
            <path class="cls-2" d="M120.2,79.8h-.6c.3-1.7,1.5-8.4,1.6-14.6v-.3c0-6.2-1.3-13.2-1.6-14.9h.6c.3,1.6,1.6,8.5,1.6,14.9s-1.3,13.3-1.6,14.9Z"/>
            <path d="M120.8,80.4v-.3c0,0,1.7-9.3,1.7-15.3s-1.5-14.4-1.7-15.3v-.3c0,0-1.4,0-1.4,0h0s-.3,0-.3,0h-.3s-10.6,1.4-10.6,1.4h0s-2.5.3-2.5.3l-1.8.2h-.3s0,.3,0,.3c0,0,0,.1,0,.3,0,.2,0,.6,0,1,0,.3,0,.6,0,.9,0,.1,0,.3,0,.4,0,.2,0,.4,0,.6,0,.1,0,.3,0,.4,0,.3,0,.5,0,.8,0,1.1-.1,2.4-.2,3.7,0,.3,0,.7,0,1,0,.3,0,.7,0,1,0,.3,0,.7,0,1,0,.7,0,1.4,0,2.1s0,1.4,0,2.1c0,.3,0,.7,0,1,0,.3,0,.7,0,1,0,.3,0,.7,0,1,0,1.7.2,3.2.3,4.5,0,.2,0,.3,0,.5.1,1.3.2,2.3.2,2.8,0,.2,0,.3,0,.3v.3s.3,0,.3,0l1.8.2,2.5.3h0s10.8,1.3,10.8,1.3h.3s0,0,0,0h0s1.6,0,1.6,0ZM119.6,50h.6c.3,1.6,1.6,8.5,1.6,14.9s-1.3,13.3-1.6,14.9h-.6c.3-1.7,1.5-8.4,1.6-14.6v-.3c0-6.2-1.3-13.2-1.6-14.9,0,0,0,0,0,0ZM103.8,75.1h0c0-.1,0-.2,0-.3,0,0,0-.2,0-.3,0,0,0-.2,0-.3,0,0,0-.2,0-.2v-.2c0-.6,0-1.3-.1-2,0-.7,0-1.5-.1-2.2,0-.7,0-1.4,0-2,0-.2,0-.5,0-.7,0-.6,0-1.3,0-1.9s0-.8,0-1.2c0-.2,0-.5,0-.7v-.2c0-.7,0-1.4,0-2.1,0-.2,0-.3,0-.5,0-.2,0-.3,0-.5,0-.3,0-.7,0-1,0-.1,0-.2,0-.3,0-.2,0-.4,0-.6h0c0-.4,0-.6,0-.9,0-.3,0-.6,0-.9,0,0,0-.1,0-.1,0,0,0,0,0-.1v-.2c0-.1,0-.2,0-.4,0,0,0-.1,0-.2,0,0,0-.1,0-.2,0,0,0,0,0-.1,0-.2,0-.4,0-.5,0-.3,0-.6,0-.8h1c0-.1,12.8-1.8,12.8-1.8.4,2.4,1.3,7.8,1.3,12.8v.5c0,5.1-.9,10.8-1.3,13.3l-13.9-1.8c0-.4,0-.8-.1-1.4ZM107.9,78.4h0s-3.8-.5-3.8-.5c0,0,0,0,0-.1,0,0,0-.1,0-.2s0,0,0-.1c0,0,0-.2,0-.3h0l14.4,1.8v-.3c.5-2.3,1.5-8.3,1.5-13.8v-.5c0-5.3-1-11-1.4-13.2v-.3c0,0-13.8,1.8-13.8,1.8h-.6s0,0,0-.2h0c0,0,0-.1,0-.2,0-.1,0-.2,0-.3l3.9-.5h0l10.9-1.3c.3,1.5,1.5,8.3,1.6,14.6v.3c0,6.3-1.3,13.3-1.6,14.8l-11-1.4Z"/>
          </g>
          <g>
            <path class="cls-2" d="M99.1,78.8l4.3-.6h.3s-.3-2.8-.5-6.4c0-1.1-.1-2.2-.2-3.4,0-1.2,0-2.4,0-3.6,0-6.3.7-13.3.7-13.3h-.3s-4.3-.6-4.3-.6c-2.3-.3-4.6-.5-6.9-.5h-16.1c-.5,0-1,1.6-1.3,4.2-.3,2.6-.6,6.2-.6,10.2,0,7.9.8,14.4,1.9,14.4h16.1c2.3,0,4.6-.2,6.9-.5ZM76.1,78.9c-.6-.3-1.6-5.5-1.6-14s.9-13.8,1.5-14.1h16.1c2.3,0,4.6.2,6.9.5l4.3.6c0,.2,0,.6,0,1,0,.3,0,.6,0,.9,0,.1,0,.3,0,.4,0,.2,0,.4,0,.6,0,.1,0,.3,0,.4,0,.3,0,.5,0,.8,0,1.1-.1,2.4-.2,3.7,0,.3,0,.7,0,1,0,.3,0,.7,0,1,0,.3,0,.7,0,1,0,.7,0,1.4,0,2.1s0,1.4,0,2.1c0,.3,0,.7,0,1,0,.4,0,.7,0,1,0,.3,0,.7,0,1,0,1.7.2,3.2.3,4.5,0,.2,0,.3,0,.5.1,1.3.2,2.3.2,2.8l-4.3.6c-2.3.3-4.6.5-6.9.5h-16.1Z"/>
            <path d="M99.2,79.1l4.6-.6h0c.1,0,.3-.2.3-.3h0c0,0,0-.2,0-.3,0,0,0,0,0-.1,0,0,0-.1,0-.2s0,0,0-.1c0,0,0-.2,0-.3h0c0-.1,0-.2,0-.3h0c0-.1,0-.2,0-.4,0-.4,0-.8-.1-1.4h0c0-.1,0-.2,0-.3,0,0,0-.2,0-.3,0,0,0-.2,0-.3,0,0,0-.2,0-.3h0c0-.8,0-1.5-.1-2.2,0-.7,0-1.5-.1-2.2,0-.7,0-1.4,0-2,0-.2,0-.5,0-.7,0-.6,0-1.3,0-1.9s0-.8,0-1.2c0-.2,0-.5,0-.7v-.2c0-.7,0-1.4,0-2.1,0-.2,0-.3,0-.5,0-.2,0-.3,0-.5,0-.3,0-.7,0-1,0-.1,0-.2,0-.3,0-.2,0-.4,0-.6,0-.6,0-1.2.1-1.8,0,0,0-.1,0-.1,0,0,0-.1,0-.2h0c0-.3,0-.4,0-.5,0,0,0,0,0,0h0c0-.2,0-.2,0-.3,0,0,0,0,0-.1,0-.2,0-.4,0-.5,0-.3,0-.6,0-.8,0-.1,0-.2,0-.3,0-.1,0-.2,0-.3,0,0,0-.2,0-.3h0c0,0,0-.1,0-.2,0-.1,0-.2,0-.3,0-.2,0-.3,0-.3,0,0,0,0,0,0h0c0-.2-.1-.3-.3-.3h0l-4.6-.6c-2.3-.3-4.7-.5-7-.5h-16.1c-2.2,0-2.2,14.1-2.2,14.7s0,14.7,2.2,14.7h16.1c2.3,0,4.7-.2,7-.5ZM76.1,78.9c-.6-.3-1.6-5.5-1.6-14s.9-13.8,1.5-14.1h16.1c2.3,0,4.6.2,6.9.5l4.3.6c0,.2,0,.6,0,1,0,.3,0,.6,0,.9,0,.1,0,.3,0,.4,0,.2,0,.4,0,.6,0,.1,0,.3,0,.4,0,.3,0,.5,0,.8,0,1.1-.1,2.4-.2,3.7,0,.3,0,.7,0,1,0,.3,0,.7,0,1,0,.3,0,.7,0,1,0,.7,0,1.4,0,2.1s0,1.4,0,2.1c0,.3,0,.7,0,1,0,.3,0,.7,0,1,0,.3,0,.7,0,1,0,1.7.2,3.2.3,4.5,0,.2,0,.3,0,.5.1,1.3.2,2.3.2,2.8l-4.3.6c-2.3.3-4.6.5-6.9.5h-16.1Z"/>
            <path class="cls-2" d="M92.2,78.9h-16.1c-.6-.3-1.6-5.5-1.6-14s.9-13.8,1.5-14.1h16.1c2.3,0,4.6.2,6.9.5l4.3.6c0,.2,0,.6,0,1,0,.3,0,.6,0,.9,0,.1,0,.3,0,.4,0,.2,0,.4,0,.6,0,.1,0,.3,0,.4,0,.3,0,.5,0,.8,0,1.1-.1,2.4-.2,3.7,0,.3,0,.7,0,1,0,.3,0,.7,0,1,0,.3,0,.7,0,1,0,.7,0,1.4,0,2.1s0,1.4,0,2.1c0,.3,0,.7,0,1,0,.4,0,.7,0,1,0,.3,0,.7,0,1,0,1.7.2,3.2.3,4.5,0,.2,0,.3,0,.5.1,1.3.2,2.3.2,2.8l-4.3.6c-2.3.3-4.6.5-6.9.5Z"/>
          </g>
        </g>
        <g>
          <path d="M4.1,79l13.7-1.7h0c0,0-13.7,1.7-13.7,1.7ZM3.1,49.4v.3c0,0,0,.1-.1.4-.3,1.7-1.5,8.4-1.6,14.6v.3c0,6.2,1.3,13.2,1.6,14.9,0,.3,0,.4,0,.4v.3h.7s10.6-1.4,10.6-1.4h0s2.5-.3,2.5-.3l1.8-.2h.3s0-.3,0-.3c0,0,0-.1,0-.3,0-.2,0-.6,0-1,0-.3,0-.6,0-.9,0-.1,0-.3,0-.4,0-.2,0-.4,0-.6,0-.1,0-.3,0-.4,0-.3,0-.5,0-.8,0-1.1.1-2.4.2-3.7,0-.3,0-.7,0-1,0-.3,0-.7,0-1,0-.3,0-.7,0-1,0-.7,0-1.4,0-2.1s0-1.4,0-2.1c0-.3,0-.7,0-1,0-.3,0-.7,0-1,0-.3,0-.7,0-1,0-1.7-.2-3.2-.3-4.5,0-.2,0-.3,0-.5-.1-1.3-.2-2.3-.2-2.8,0-.2,0-.3,0-.3v-.3s-.3,0-.3,0l-1.8-.2-2.5-.3h0s-10.8-1.3-10.8-1.3h-.3s-.3,0-.3,0ZM14.7,51.4l3.8.5s0,0,0,.1c0,0,0,.1,0,.2s0,0,0,.1c0,0,0,.2,0,.3h0l-14.4-1.8v.3c-.5,2.3-1.5,8.3-1.5,13.8v.5c0,5.3,1,11,1.4,13.2v.3c0,0,13.8-1.7,13.8-1.7h0c0,0,0-.4,0-.4h0s0-.3,0-.3h-.3s-12.8,1.6-12.8,1.6c-.4-2.4-1.3-7.8-1.3-12.8v-.5c0-5.1.9-10.8,1.3-13.3l13.9,1.8c0,.4,0,.8.1,1.4h0c0,.1,0,.2,0,.3,0,0,0,.2,0,.3,0,0,0,.2,0,.3,0,0,0,.2,0,.2v.2c0,.6,0,1.3.1,2,0,.7,0,1.5.1,2.2,0,.7,0,1.4,0,2,0,.2,0,.5,0,.7,0,.6,0,1.3,0,1.9s0,.8,0,1.2c0,.2,0,.5,0,.7v.2c0,.7,0,1.4,0,2.1,0,.2,0,.3,0,.5,0,.2,0,.3,0,.5,0,.3,0,.7,0,1,0,.1,0,.2,0,.3,0,.2,0,.4,0,.6h0c0,.4,0,.6,0,.9,0,.3,0,.6,0,.9,0,0,0,.1,0,.1,0,0,0,0,0,.1v.2c0,.1,0,.2,0,.4,0,0,0,0,0,0h0c0,.2,0,.2,0,.3,0,0,0,0,0,.1,0,.2,0,.4,0,.5,0,.3,0,.6,0,.8,0,.1,0,.2,0,.3,0,.1,0,.2,0,.3,0,0,0,.2,0,.3h0c0,0,0,.1,0,.2,0,.1,0,.2,0,.3l-3.9.5h0l-10.9,1.3c-.3-1.5-1.5-8.3-1.6-14.6v-.3c0-6.3,1.3-13.3,1.6-14.8l11,1.4h0ZM4.1,79l13.7-1.7h0c0,0-13.7,1.7-13.7,1.7ZM4.1,79l13.7-1.7h0c0,0-13.7,1.7-13.7,1.7Z"/>
          <path class="cls-2" d="M1.7,64.9h0c0,7.2,1.7,15.2,1.7,15.2l15.4-1.9s0-.5.1-1.3c0,0-.1,0-.2,0l-14.3,1.8c-.4-2.4-1.3-8-1.4-13.2v-.5c0-5.3.9-11.2,1.4-13.7l14.3,1.8c0,0,.1,0,.2,0,0-.8-.1-1.3-.1-1.3l-15.4-1.9s-1.7,8-1.7,15.2Z"/>
          <g>
            <path class="cls-2" d="M2.3,50h.6c-.3,1.7-1.5,8.4-1.6,14.6v.3c0,6.2,1.3,13.2,1.6,14.9h-.6c-.3-1.6-1.6-8.5-1.6-14.9s1.3-13.3,1.6-14.9Z"/>
            <path d="M1.7,49.4v.3c0,0-1.7,9.3-1.7,15.3s1.5,14.4,1.7,15.3v.3c0,0,1.4,0,1.4,0h0s.3,0,.3,0h.3s10.6-1.4,10.6-1.4h0s2.5-.3,2.5-.3l1.8-.2h.3s0-.3,0-.3c0,0,0-.1,0-.3,0-.2,0-.6,0-1,0-.3,0-.6,0-.9,0-.1,0-.3,0-.4,0-.2,0-.4,0-.6,0-.1,0-.3,0-.4,0-.3,0-.5,0-.8,0-1.1.1-2.4.2-3.7,0-.3,0-.7,0-1,0-.3,0-.7,0-1,0-.3,0-.7,0-1,0-.7,0-1.4,0-2.1s0-1.4,0-2.1c0-.3,0-.7,0-1,0-.3,0-.7,0-1,0-.3,0-.7,0-1,0-1.7-.2-3.2-.3-4.5,0-.2,0-.3,0-.5-.1-1.3-.2-2.3-.2-2.8,0-.2,0-.3,0-.3v-.3s-.3,0-.3,0l-1.8-.2-2.5-.3h0s-10.8-1.3-10.8-1.3h-.3s0,0,0,0h0s-1.6,0-1.6,0ZM2.9,79.8h-.6c-.3-1.6-1.6-8.5-1.6-14.9s1.3-13.3,1.6-14.9h.6c-.3,1.7-1.5,8.4-1.6,14.6v.3c0,6.2,1.3,13.2,1.6,14.9,0,0,0,0,0,0ZM18.7,54.7h0c0,.1,0,.2,0,.3,0,0,0,.2,0,.3,0,0,0,.2,0,.3,0,0,0,.2,0,.2v.2c0,.6,0,1.3.1,2,0,.7,0,1.5.1,2.2,0,.7,0,1.4,0,2,0,.2,0,.5,0,.7,0,.6,0,1.3,0,1.9s0,.8,0,1.2c0,.2,0,.5,0,.7v.2c0,.7,0,1.4,0,2.1,0,.2,0,.3,0,.5,0,.2,0,.3,0,.5,0,.3,0,.7,0,1,0,.1,0,.2,0,.3,0,.2,0,.4,0,.6h0c0,.4,0,.6,0,.9,0,.3,0,.6,0,.9,0,0,0,.1,0,.1,0,0,0,0,0,.1v.2c0,.1,0,.2,0,.4,0,0,0,.1,0,.2,0,0,0,.1,0,.2,0,0,0,0,0,.1,0,.2,0,.4,0,.5,0,.3,0,.6,0,.8h-1c0,.1-12.8,1.8-12.8,1.8-.4-2.4-1.3-7.8-1.3-12.8v-.5c0-5.1.9-10.8,1.3-13.3l13.9,1.8c0,.4,0,.8.1,1.4ZM14.6,51.4h0s3.8.5,3.8.5c0,0,0,0,0,.1,0,0,0,.1,0,.2s0,0,0,.1c0,0,0,.2,0,.3h0l-14.4-1.8v.3c-.5,2.3-1.5,8.3-1.5,13.8v.5c0,5.3,1,11,1.4,13.2v.3c0,0,13.8-1.8,13.8-1.8h.6s0,0,0,.2h0c0,0,0,.1,0,.2,0,.1,0,.2,0,.3l-3.9.5h0l-10.9,1.3c-.3-1.5-1.5-8.3-1.6-14.6v-.3c0-6.3,1.3-13.3,1.6-14.8l11,1.4Z"/>
          </g>
          <g>
            <path class="cls-2" d="M23.4,51l-4.3.6h-.3s.3,2.8.5,6.4c0,1.1.1,2.2.2,3.4,0,1.2,0,2.4,0,3.6,0,6.3-.7,13.3-.7,13.3h.3s4.3.6,4.3.6c2.3.3,4.6.5,6.9.5h16.1c.5,0,1-1.6,1.3-4.2.3-2.6.6-6.2.6-10.2,0-7.9-.8-14.4-1.9-14.4h-16.1c-2.3,0-4.6.2-6.9.5ZM46.4,50.9c.6.3,1.6,5.5,1.6,14s-.9,13.8-1.5,14.1h-16.1c-2.3,0-4.6-.2-6.9-.5l-4.3-.6c0-.2,0-.6,0-1,0-.3,0-.6,0-.9,0-.1,0-.3,0-.4,0-.2,0-.4,0-.6,0-.1,0-.3,0-.4,0-.3,0-.5,0-.8,0-1.1.1-2.4.2-3.7,0-.3,0-.7,0-1,0-.3,0-.7,0-1,0-.3,0-.7,0-1,0-.7,0-1.4,0-2.1s0-1.4,0-2.1c0-.3,0-.7,0-1,0-.4,0-.7,0-1,0-.3,0-.7,0-1,0-1.7-.2-3.2-.3-4.5,0-.2,0-.3,0-.5-.1-1.3-.2-2.3-.2-2.8l4.3-.6c2.3-.3,4.6-.5,6.9-.5h16.1Z"/>
            <path d="M23.3,50.6l-4.6.6h0c-.1,0-.3.2-.3.3h0c0,0,0,.2,0,.3,0,0,0,0,0,.1,0,0,0,.1,0,.2s0,0,0,.1c0,0,0,.2,0,.3h0c0,.1,0,.2,0,.3h0c0,.1,0,.2,0,.4,0,.4,0,.8.1,1.4h0c0,.1,0,.2,0,.3,0,0,0,.2,0,.3,0,0,0,.2,0,.3,0,0,0,.2,0,.3h0c0,.8,0,1.5.1,2.2,0,.7,0,1.5.1,2.2,0,.7,0,1.4,0,2,0,.2,0,.5,0,.7,0,.6,0,1.3,0,1.9s0,.8,0,1.2c0,.2,0,.5,0,.7v.2c0,.7,0,1.4,0,2.1,0,.2,0,.3,0,.5,0,.2,0,.3,0,.5,0,.3,0,.7,0,1,0,.1,0,.2,0,.3,0,.2,0,.4,0,.6,0,.6,0,1.2-.1,1.8,0,0,0,.1,0,.1,0,0,0,.1,0,.2h0c0,.3,0,.4,0,.5,0,0,0,0,0,0h0c0,.2,0,.2,0,.3,0,0,0,0,0,.1,0,.2,0,.4,0,.5,0,.3,0,.6,0,.8,0,.1,0,.2,0,.3,0,.1,0,.2,0,.3,0,0,0,.2,0,.3h0c0,0,0,.1,0,.2,0,.1,0,.2,0,.3,0,.2,0,.3,0,.3,0,0,0,0,0,0h0c0,.2.1.3.3.3h0l4.6.6c2.3.3,4.7.5,7,.5h16.1c2.2,0,2.2-14.1,2.2-14.7s0-14.7-2.2-14.7h-16.1c-2.3,0-4.7.2-7,.5ZM46.4,50.9c.6.3,1.6,5.5,1.6,14s-.9,13.8-1.5,14.1h-16.1c-2.3,0-4.6-.2-6.9-.5l-4.3-.6c0-.2,0-.6,0-1,0-.3,0-.6,0-.9,0-.1,0-.3,0-.4,0-.2,0-.4,0-.6,0-.1,0-.3,0-.4,0-.3,0-.5,0-.8,0-1.1.1-2.4.2-3.7,0-.3,0-.7,0-1,0-.3,0-.7,0-1,0-.3,0-.7,0-1,0-.7,0-1.4,0-2.1s0-1.4,0-2.1c0-.3,0-.7,0-1,0-.3,0-.7,0-1,0-.3,0-.7,0-1,0-1.7-.2-3.2-.3-4.5,0-.2,0-.3,0-.5-.1-1.3-.2-2.3-.2-2.8l4.3-.6c2.3-.3,4.6-.5,6.9-.5h16.1Z"/>
            <path class="cls-2" d="M30.3,50.9h16.1c.6.3,1.6,5.5,1.6,14s-.9,13.8-1.5,14.1h-16.1c-2.3,0-4.6-.2-6.9-.5l-4.3-.6c0-.2,0-.6,0-1,0-.3,0-.6,0-.9,0-.1,0-.3,0-.4,0-.2,0-.4,0-.6,0-.1,0-.3,0-.4,0-.3,0-.5,0-.8,0-1.1.1-2.4.2-3.7,0-.3,0-.7,0-1,0-.3,0-.7,0-1,0-.3,0-.7,0-1,0-.7,0-1.4,0-2.1s0-1.4,0-2.1c0-.3,0-.7,0-1,0-.4,0-.7,0-1,0-.3,0-.7,0-1,0-1.7-.2-3.2-.3-4.5,0-.2,0-.3,0-.5-.1-1.3-.2-2.3-.2-2.8l4.3-.6c2.3-.3,4.6-.5,6.9-.5Z"/>
          </g>
        </g>
        <g>
          <path d="M4.1,120.7l13.7-1.7h0c0,0-13.7,1.7-13.7,1.7ZM3.1,91.1v.3c0,0,0,.1-.1.4-.3,1.7-1.5,8.4-1.6,14.6v.3c0,6.2,1.3,13.2,1.6,14.9,0,.3,0,.4,0,.4v.3h.7s10.6-1.4,10.6-1.4h0s2.5-.3,2.5-.3l1.8-.2h.3s0-.3,0-.3c0,0,0-.1,0-.3,0-.2,0-.6,0-1,0-.3,0-.6,0-.9,0-.1,0-.3,0-.4,0-.2,0-.4,0-.6,0-.1,0-.3,0-.4,0-.3,0-.5,0-.8,0-1.1.1-2.4.2-3.7,0-.3,0-.7,0-1,0-.3,0-.7,0-1,0-.3,0-.7,0-1,0-.7,0-1.4,0-2.1s0-1.4,0-2.1c0-.3,0-.7,0-1,0-.3,0-.7,0-1,0-.3,0-.7,0-1,0-1.7-.2-3.2-.3-4.5,0-.2,0-.3,0-.5-.1-1.3-.2-2.3-.2-2.8,0-.2,0-.3,0-.3v-.3s-.3,0-.3,0l-1.8-.2-2.5-.3h0s-10.8-1.3-10.8-1.3h-.3s-.3,0-.3,0ZM14.7,93.2l3.8.5s0,0,0,.1c0,0,0,.1,0,.2s0,0,0,.1c0,0,0,.2,0,.3h0l-14.4-1.8v.3c-.5,2.3-1.5,8.3-1.5,13.8v.5c0,5.3,1,11,1.4,13.2v.3c0,0,13.8-1.7,13.8-1.7h0c0,0,0-.4,0-.4h0s0-.3,0-.3h-.3s-12.8,1.6-12.8,1.6c-.4-2.4-1.3-7.8-1.3-12.8v-.5c0-5.1.9-10.8,1.3-13.3l13.9,1.8c0,.4,0,.8.1,1.4h0c0,.1,0,.2,0,.3,0,0,0,.2,0,.3,0,0,0,.2,0,.3,0,0,0,.2,0,.2v.2c0,.6,0,1.3.1,2,0,.7,0,1.5.1,2.2,0,.7,0,1.4,0,2,0,.2,0,.5,0,.7,0,.6,0,1.3,0,1.9s0,.8,0,1.2c0,.2,0,.5,0,.7v.2c0,.7,0,1.4,0,2.1,0,.2,0,.3,0,.5,0,.2,0,.3,0,.5,0,.3,0,.7,0,1,0,.1,0,.2,0,.3,0,.2,0,.4,0,.6h0c0,.4,0,.6,0,.9,0,.3,0,.6,0,.9,0,0,0,.1,0,.1,0,0,0,0,0,.1v.2c0,.1,0,.2,0,.4,0,0,0,0,0,0h0c0,.2,0,.2,0,.3,0,0,0,0,0,.1,0,.2,0,.4,0,.5,0,.3,0,.6,0,.8,0,.1,0,.2,0,.3,0,.1,0,.2,0,.3,0,0,0,.2,0,.3h0c0,0,0,.1,0,.2,0,.1,0,.2,0,.3l-3.9.5h0l-10.9,1.3c-.3-1.5-1.5-8.3-1.6-14.6v-.3c0-6.3,1.3-13.3,1.6-14.8l11,1.4h0ZM4.1,120.7l13.7-1.7h0c0,0-13.7,1.7-13.7,1.7ZM4.1,120.7l13.7-1.7h0c0,0-13.7,1.7-13.7,1.7Z"/>
          <path class="cls-2" d="M1.7,106.7h0c0,7.2,1.7,15.2,1.7,15.2l15.4-1.9s0-.5.1-1.3c0,0-.1,0-.2,0l-14.3,1.8c-.4-2.4-1.3-8-1.4-13.2v-.5c0-5.3.9-11.2,1.4-13.7l14.3,1.8c0,0,.1,0,.2,0,0-.8-.1-1.3-.1-1.3l-15.4-1.9s-1.7,8-1.7,15.2Z"/>
          <g>
            <path class="cls-2" d="M2.3,91.8h.6c-.3,1.7-1.5,8.4-1.6,14.6v.3c0,6.2,1.3,13.2,1.6,14.9h-.6c-.3-1.6-1.6-8.5-1.6-14.9s1.3-13.3,1.6-14.9Z"/>
            <path d="M1.7,91.1v.3c0,0-1.7,9.3-1.7,15.3s1.5,14.4,1.7,15.3v.3c0,0,1.4,0,1.4,0h.6s10.6-1.4,10.6-1.4h0s2.5-.3,2.5-.3l1.8-.2h.3s0-.3,0-.3c0,0,0-.1,0-.3,0-.2,0-.6,0-1,0-.3,0-.6,0-.9,0-.1,0-.3,0-.4,0-.2,0-.4,0-.6,0-.1,0-.3,0-.4,0-.3,0-.5,0-.8,0-1.1.1-2.4.2-3.7,0-.3,0-.7,0-1,0-.3,0-.7,0-1,0-.3,0-.7,0-1,0-.7,0-1.4,0-2.1s0-1.4,0-2.1c0-.3,0-.7,0-1,0-.3,0-.7,0-1,0-.3,0-.7,0-1,0-1.7-.2-3.2-.3-4.5,0-.2,0-.3,0-.5-.1-1.3-.2-2.3-.2-2.8,0-.2,0-.3,0-.3v-.3s-.3,0-.3,0l-1.8-.2-2.5-.3h0s-10.8-1.3-10.8-1.3h-.3s0,0,0,0h0s-1.6,0-1.6,0ZM2.9,121.5h-.6c-.3-1.6-1.6-8.5-1.6-14.9s1.3-13.3,1.6-14.9h.6c-.3,1.7-1.5,8.4-1.6,14.6v.3c0,6.2,1.3,13.2,1.6,14.9,0,0,0,0,0,0ZM18.7,96.5h0c0,.1,0,.2,0,.3,0,0,0,.2,0,.3,0,0,0,.2,0,.3,0,0,0,.2,0,.2v.2c0,.6,0,1.3.1,2,0,.7,0,1.5.1,2.2,0,.7,0,1.4,0,2,0,.2,0,.5,0,.7,0,.6,0,1.3,0,1.9s0,.8,0,1.2c0,.2,0,.5,0,.7v.2c0,.7,0,1.4,0,2.1,0,.2,0,.3,0,.5,0,.2,0,.3,0,.5,0,.3,0,.7,0,1,0,.1,0,.2,0,.3,0,.2,0,.4,0,.6h0c0,.4,0,.6,0,.9,0,.3,0,.6,0,.9,0,0,0,.1,0,.1,0,0,0,0,0,.1v.2c0,.1,0,.2,0,.4,0,0,0,.1,0,.2,0,0,0,.1,0,.2,0,0,0,0,0,.1,0,.2,0,.4,0,.5,0,.3,0,.6,0,.8h-1c0,.1-12.8,1.8-12.8,1.8-.4-2.4-1.3-7.8-1.3-12.8v-.5c0-5.1.9-10.8,1.3-13.3l13.9,1.8c0,.4,0,.8.1,1.4ZM14.6,93.2h0s3.8.5,3.8.5c0,0,0,0,0,.1,0,0,0,.1,0,.2s0,0,0,.1c0,0,0,.2,0,.3h0l-14.4-1.8v.3c-.5,2.3-1.5,8.3-1.5,13.8v.5c0,5.3,1,11,1.4,13.2v.3c0,0,13.8-1.8,13.8-1.8h.6s0,0,0,.2h0c0,0,0,.1,0,.2,0,.1,0,.2,0,.3l-3.9.5h0l-10.9,1.3c-.3-1.5-1.5-8.3-1.6-14.6v-.3c0-6.3,1.3-13.3,1.6-14.8l11,1.4Z"/>
          </g>
          <g>
            <path class="cls-2" d="M23.4,92.7l-4.3.6h-.3s.3,2.8.5,6.4c0,1.1.1,2.2.2,3.4,0,1.2,0,2.4,0,3.6,0,6.3-.7,13.3-.7,13.3h.3s4.3.6,4.3.6c2.3.3,4.6.5,6.9.5h16.1c.5,0,1-1.6,1.3-4.2.3-2.6.6-6.2.6-10.2,0-7.9-.8-14.4-1.9-14.4h-16.1c-2.3,0-4.6.2-6.9.5ZM46.4,92.6c.6.3,1.6,5.5,1.6,14s-.9,13.8-1.5,14.1h-16.1c-2.3,0-4.6-.2-6.9-.5l-4.3-.6c0-.2,0-.6,0-1,0-.3,0-.6,0-.9,0-.1,0-.3,0-.4,0-.2,0-.4,0-.6,0-.1,0-.3,0-.4,0-.3,0-.5,0-.8,0-1.1.1-2.4.2-3.7,0-.3,0-.7,0-1,0-.3,0-.7,0-1,0-.3,0-.7,0-1,0-.7,0-1.4,0-2.1s0-1.4,0-2.1c0-.3,0-.7,0-1,0-.4,0-.7,0-1,0-.3,0-.7,0-1,0-1.7-.2-3.2-.3-4.5,0-.2,0-.3,0-.5-.1-1.3-.2-2.3-.2-2.8l4.3-.6c2.3-.3,4.6-.5,6.9-.5h16.1Z"/>
            <path d="M23.3,92.4l-4.6.6h0c-.1,0-.3.2-.3.3h0c0,0,0,.2,0,.3,0,0,0,0,0,.1,0,0,0,.1,0,.2s0,0,0,.1c0,0,0,.2,0,.3h0c0,.1,0,.2,0,.3h0c0,.1,0,.2,0,.4,0,.4,0,.8.1,1.4h0c0,.1,0,.2,0,.3,0,0,0,.2,0,.3,0,0,0,.2,0,.3,0,0,0,.2,0,.3h0c0,.8,0,1.5.1,2.2,0,.7,0,1.5.1,2.2,0,.7,0,1.4,0,2,0,.2,0,.5,0,.7,0,.6,0,1.3,0,1.9s0,.8,0,1.2c0,.2,0,.5,0,.7v.2c0,.7,0,1.4,0,2.1,0,.2,0,.3,0,.5,0,.2,0,.3,0,.5,0,.3,0,.7,0,1,0,.1,0,.2,0,.3,0,.2,0,.4,0,.6,0,.6,0,1.2-.1,1.8,0,0,0,.1,0,.1,0,0,0,.1,0,.2h0c0,.3,0,.4,0,.5,0,0,0,0,0,0h0c0,.2,0,.2,0,.3,0,0,0,0,0,.1,0,.2,0,.4,0,.5,0,.3,0,.6,0,.8,0,.1,0,.2,0,.3,0,.1,0,.2,0,.3,0,0,0,.2,0,.3h0c0,0,0,.1,0,.2,0,.1,0,.2,0,.3,0,.2,0,.3,0,.3,0,0,0,0,0,0h0c0,.2.1.3.3.3h0l4.6.6c2.3.3,4.7.5,7,.5h16.1c2.2,0,2.2-14.1,2.2-14.7s0-14.7-2.2-14.7h-16.1c-2.3,0-4.7.2-7,.5ZM46.4,92.6c.6.3,1.6,5.5,1.6,14s-.9,13.8-1.5,14.1h-16.1c-2.3,0-4.6-.2-6.9-.5l-4.3-.6c0-.2,0-.6,0-1,0-.3,0-.6,0-.9,0-.1,0-.3,0-.4,0-.2,0-.4,0-.6,0-.1,0-.3,0-.4,0-.3,0-.5,0-.8,0-1.1.1-2.4.2-3.7,0-.3,0-.7,0-1,0-.3,0-.7,0-1,0-.3,0-.7,0-1,0-.7,0-1.4,0-2.1s0-1.4,0-2.1c0-.3,0-.7,0-1,0-.3,0-.7,0-1,0-.3,0-.7,0-1,0-1.7-.2-3.2-.3-4.5,0-.2,0-.3,0-.5-.1-1.3-.2-2.3-.2-2.8l4.3-.6c2.3-.3,4.6-.5,6.9-.5h16.1Z"/>
            <path class="cls-2" d="M30.3,92.6h16.1c.6.3,1.6,5.5,1.6,14s-.9,13.8-1.5,14.1h-16.1c-2.3,0-4.6-.2-6.9-.5l-4.3-.6c0-.2,0-.6,0-1,0-.3,0-.6,0-.9,0-.1,0-.3,0-.4,0-.2,0-.4,0-.6,0-.1,0-.3,0-.4,0-.3,0-.5,0-.8,0-1.1.1-2.4.2-3.7,0-.3,0-.7,0-1,0-.3,0-.7,0-1,0-.3,0-.7,0-1,0-.7,0-1.4,0-2.1s0-1.4,0-2.1c0-.3,0-.7,0-1,0-.4,0-.7,0-1,0-.3,0-.7,0-1,0-1.7-.2-3.2-.3-4.5,0-.2,0-.3,0-.5-.1-1.3-.2-2.3-.2-2.8l4.3-.6c2.3-.3,4.6-.5,6.9-.5Z"/>
          </g>
        </g>
        <g>
          <path d="M74.5,166.7l-1.7-13.7h0l1.8,13.7ZM44.8,167.8h.3c0,0,.1,0,.4.1,1.7.3,8.4,1.5,14.6,1.6h.3c6.2,0,13.2-1.3,14.9-1.6.3,0,.4,0,.4,0h.3v-.7s-1.4-10.6-1.4-10.6h0s-.3-2.6-.3-2.6l-.2-1.8h0s0-.3,0-.3h-.3s-.1,0-.3,0c-.2,0-.6,0-1,0-.3,0-.6,0-.9,0-.1,0-.3,0-.4,0-.2,0-.4,0-.6,0-.1,0-.3,0-.4,0-.3,0-.5,0-.8,0-1.1,0-2.4-.1-3.7-.2-.3,0-.7,0-1,0-.3,0-.7,0-1,0-.3,0-.7,0-1,0-.7,0-1.4,0-2.1,0s-1.4,0-2.1,0c-.3,0-.7,0-1,0-.3,0-.7,0-1,0-.3,0-.7,0-1,0-1.7,0-3.2.2-4.5.3-.2,0-.3,0-.5,0-1.3.1-2.3.2-2.8.2-.2,0-.3,0-.3,0h-.3s0,.3,0,.3l-.2,1.8-.3,2.5h0s-1.3,10.8-1.3,10.8v.3s0,.3,0,.3ZM46.9,156.2l.5-3.8s0,0,.1,0c0,0,.1,0,.2,0s0,0,.1,0c0,0,.2,0,.3,0h0s-1.8,14.4-1.8,14.4h.3c2.3.5,8.3,1.5,13.8,1.5h.5c5.3,0,11-1,13.2-1.4h.3c0,0-1.7-13.8-1.7-13.8h-.4s0,0,0,0h-.3s0,.3,0,.3l1.6,12.8c-2.4.4-7.8,1.3-12.8,1.3h-.5c-5.1,0-10.8-.9-13.3-1.3l1.8-13.9c.4,0,.8,0,1.4-.1h0c0,0,.1,0,.2,0,0,0,.2,0,.3,0,0,0,.2,0,.3,0,0,0,.2,0,.2,0h.2c.6,0,1.3,0,2-.1.7,0,1.5,0,2.2-.1.7,0,1.4,0,2,0,.2,0,.5,0,.7,0,.6,0,1.3,0,1.9,0s.8,0,1.2,0c.2,0,.5,0,.7,0h.2c.7,0,1.4,0,2.1,0,.2,0,.3,0,.5,0,.2,0,.3,0,.5,0,.3,0,.7,0,1,0,.1,0,.2,0,.3,0,.2,0,.4,0,.6,0h.1c.3,0,.5,0,.8,0,.3,0,.6,0,.9,0,0,0,.1,0,.1,0,0,0,0,0,.1,0h.2c.1,0,.2,0,.4,0,0,0,0,0,0,0h.1c0,0,.1,0,.2,0,0,0,0,0,.1,0,.2,0,.4,0,.5,0,.3,0,.6,0,.8,0,.1,0,.2,0,.3,0,.1,0,.2,0,.3,0,0,0,.2,0,.3,0h0c0,0,.1,0,.1,0,.1,0,.2,0,.3,0l.5,3.9h0c0,0,1.3,10.9,1.3,10.9-1.5.3-8.3,1.5-14.6,1.6h-.3c-6.3,0-13.3-1.3-14.8-1.6l1.4-11h0ZM74.5,166.7l-1.7-13.7h0l1.8,13.7ZM74.5,166.7l-1.7-13.7h0l1.8,13.7Z"/>
          <path class="cls-2" d="M60.4,169.2h0c7.2,0,15.2-1.6,15.2-1.6l-1.9-15.4s-.5,0-1.3-.1c0,0,0,.1,0,.2l1.8,14.3c-2.4.4-8,1.3-13.2,1.4h-.5c-5.3,0-11.2-.9-13.7-1.4l1.8-14.3c0,0,0-.1,0-.2-.8,0-1.3.1-1.3.1l-1.9,15.4s8,1.7,15.2,1.7Z"/>
          <g>
            <path class="cls-2" d="M45.5,168.6v-.6c1.7.3,8.4,1.5,14.6,1.6h.3c6.2,0,13.2-1.3,14.9-1.6v.6c-1.6.3-8.5,1.6-14.9,1.6s-13.3-1.3-14.9-1.6Z"/>
            <path d="M44.8,169.2h.3c0,0,9.3,1.7,15.3,1.7s14.4-1.5,15.3-1.7h.3c0,0,0-1.4,0-1.4h0v-.6s-1.4-10.6-1.4-10.6h0s-.3-2.6-.3-2.6l-.2-1.8h0s0-.3,0-.3h-.3s-.1,0-.3,0c-.2,0-.6,0-1,0-.3,0-.6,0-.9,0-.1,0-.3,0-.4,0-.2,0-.4,0-.6,0-.1,0-.3,0-.4,0-.3,0-.5,0-.8,0-1.1,0-2.4-.1-3.7-.2-.3,0-.7,0-1,0-.3,0-.7,0-1,0-.3,0-.7,0-1,0-.7,0-1.4,0-2.1,0s-1.4,0-2.1,0c-.3,0-.7,0-1,0-.3,0-.7,0-1,0-.3,0-.7,0-1,0-1.7,0-3.2.2-4.5.3-.2,0-.3,0-.5,0-1.3.1-2.3.2-2.8.2-.2,0-.3,0-.3,0h-.3s0,.3,0,.3l-.2,1.8-.3,2.5h0s-1.3,10.8-1.3,10.8v.3s0,0,0,0h0v1.6ZM75.2,168v.6c-1.6.3-8.5,1.6-14.9,1.6s-13.3-1.3-14.9-1.6v-.6c1.7.3,8.4,1.5,14.6,1.6h.3c6.2,0,13.2-1.3,14.9-1.6,0,0,0,0,0,0ZM50.2,152.2h0c0,0,.1,0,.2,0,0,0,.2,0,.3,0,0,0,.2,0,.3,0,0,0,.2,0,.2,0h.2c.6,0,1.3,0,2-.1.7,0,1.5,0,2.2-.1.7,0,1.4,0,2,0,.2,0,.5,0,.7,0,.6,0,1.3,0,1.9,0s.8,0,1.2,0c.2,0,.5,0,.7,0h.2c.7,0,1.4,0,2.1,0,.2,0,.3,0,.5,0,.2,0,.3,0,.5,0,.3,0,.7,0,1,0,.1,0,.2,0,.3,0,.2,0,.4,0,.6,0h.1c.3,0,.5,0,.8,0,.3,0,.6,0,.9,0,0,0,.1,0,.1,0,0,0,0,0,.1,0h.2c.1,0,.2,0,.4,0,0,0,.1,0,.2,0,0,0,.1,0,.2,0,0,0,0,0,.1,0,.2,0,.4,0,.5,0,.3,0,.6,0,.8,0v1c.1,0,1.8,12.8,1.8,12.8-2.4.4-7.8,1.3-12.8,1.3h-.5c-5.1,0-10.8-.9-13.3-1.3l1.8-13.9c.4,0,.8,0,1.4-.1ZM46.9,156.3h0c0,0,.5-3.8.5-3.8,0,0,0,0,.1,0,0,0,.1,0,.2,0s0,0,.1,0c0,0,.2,0,.3,0h0s-1.8,14.4-1.8,14.4h.3c2.3.5,8.3,1.5,13.8,1.5h.5c5.3,0,11-1,13.2-1.4h.3c0,0-1.8-13.8-1.8-13.8v-.6s0,0,.2,0h0c0,0,.1,0,.1,0,.1,0,.2,0,.3,0l.5,3.9h0c0,0,1.3,10.9,1.3,10.9-1.5.3-8.3,1.5-14.6,1.6h-.3c-6.3,0-13.3-1.3-14.8-1.6l1.4-11Z"/>
          </g>
          <g>
            <path class="cls-2" d="M46.5,147.5l.6,4.3v.3s2.8-.3,6.4-.5c1.1,0,2.2-.1,3.4-.2,1.2,0,2.4,0,3.6,0,6.3,0,13.3.7,13.3.7v-.3s.6-4.3.6-4.3c.3-2.3.5-4.6.5-6.9v-16.1c0-.5-1.6-1-4.2-1.3-2.6-.3-6.2-.6-10.2-.6-7.9,0-14.4.8-14.4,1.9v16.1c0,2.3.2,4.6.5,6.9ZM46.3,124.4c.3-.6,5.5-1.6,14-1.6s13.8.9,14.1,1.5v16.1c0,2.3-.2,4.6-.5,6.9l-.6,4.3c-.2,0-.6,0-1,0-.3,0-.6,0-.9,0-.1,0-.3,0-.4,0-.2,0-.4,0-.6,0-.1,0-.3,0-.4,0-.3,0-.5,0-.8,0-1.1,0-2.4-.1-3.7-.2-.3,0-.7,0-1,0-.3,0-.7,0-1,0-.3,0-.7,0-1,0-.7,0-1.4,0-2.1,0s-1.4,0-2.1,0c-.3,0-.7,0-1,0-.4,0-.7,0-1,0-.3,0-.7,0-1,0-1.7,0-3.2.2-4.5.3-.2,0-.3,0-.5,0-1.3.1-2.3.2-2.8.2l-.6-4.3c-.3-2.3-.5-4.6-.5-6.9v-16.1Z"/>
            <path d="M46.1,147.5l.6,4.6h0c0,.2.1.3.3.3h0s0,0,.3,0c0,0,0,0,.1,0,0,0,.1,0,.2,0s0,0,.1,0c0,0,.2,0,.3,0h0c.1,0,.2,0,.3,0h0c.1,0,.2,0,.3,0,.4,0,.8,0,1.4-.1h0c0,0,.2,0,.2,0,0,0,.2,0,.3,0,0,0,.2,0,.3,0,0,0,.2,0,.3,0h.1c.6,0,1.3,0,2-.1.7,0,1.5,0,2.2-.1.7,0,1.4,0,2,0,.2,0,.5,0,.7,0,.6,0,1.3,0,1.9,0s.8,0,1.2,0c.2,0,.5,0,.7,0h.2c.7,0,1.4,0,2.1,0,.2,0,.3,0,.5,0,.2,0,.3,0,.5,0,.3,0,.7,0,1,0,.1,0,.2,0,.3,0,.2,0,.4,0,.6,0,.6,0,1.2,0,1.8.1,0,0,.1,0,.1,0,0,0,.1,0,.2,0h.1c.1,0,.2,0,.4,0,0,0,0,0,0,0h.1c0,0,.1,0,.2,0,0,0,0,0,.1,0,.2,0,.4,0,.5,0,.3,0,.6,0,.8,0,.1,0,.2,0,.3,0,.1,0,.2,0,.3,0,0,0,.2,0,.3,0h0c0,0,.1,0,.1,0,.1,0,.2,0,.3,0,.2,0,.3,0,.3,0,0,0,0,0,0,0h0c.1,0,.3-.1.3-.3h0s.6-4.6.6-4.6c.3-2.3.5-4.7.5-7v-16.1c0-2.2-14.1-2.2-14.7-2.2s-14.7,0-14.7,2.2v16.1c0,2.3.2,4.7.5,7ZM46.3,124.4c.3-.6,5.5-1.6,14-1.6s13.8.9,14.1,1.5v16.1c0,2.3-.2,4.6-.5,6.9l-.6,4.3c-.2,0-.6,0-1,0-.3,0-.6,0-.9,0-.1,0-.3,0-.4,0-.2,0-.4,0-.6,0-.1,0-.3,0-.4,0-.3,0-.5,0-.8,0-1.1,0-2.4-.1-3.7-.2-.3,0-.7,0-1,0-.3,0-.7,0-1,0-.3,0-.7,0-1,0-.7,0-1.4,0-2.1,0s-1.4,0-2.1,0c-.3,0-.7,0-1,0-.3,0-.7,0-1,0-.3,0-.7,0-1,0-1.7,0-3.2.2-4.5.3-.2,0-.3,0-.5,0-1.3.1-2.3.2-2.8.2l-.6-4.3c-.3-2.3-.5-4.6-.5-6.9v-16.1Z"/>
            <path class="cls-2" d="M46.3,140.6v-16.1c.3-.6,5.5-1.6,14-1.6s13.8.9,14.1,1.5v16.1c0,2.3-.2,4.6-.5,6.9l-.6,4.3c-.2,0-.6,0-1,0-.3,0-.6,0-.9,0-.1,0-.3,0-.4,0-.2,0-.4,0-.6,0-.1,0-.3,0-.4,0-.3,0-.5,0-.8,0-1.1,0-2.4-.1-3.7-.2-.3,0-.7,0-1,0-.3,0-.7,0-1,0-.3,0-.7,0-1,0-.7,0-1.4,0-2.1,0s-1.4,0-2.1,0c-.3,0-.7,0-1,0-.4,0-.7,0-1,0-.3,0-.7,0-1,0-1.7,0-3.2.2-4.5.3-.2,0-.3,0-.5,0-1.3.1-2.3.2-2.8.2l-.6-4.3c-.3-2.3-.5-4.6-.5-6.9Z"/>
          </g>
        </g>
        <g>
          <path d="M46.3,4.1l1.7,13.7h0l-1.8-13.7ZM75.9,3.1h-.3c0,0-.1,0-.4-.1-1.7-.3-8.4-1.5-14.6-1.6h-.3c-6.2,0-13.2,1.3-14.9,1.6-.3,0-.4,0-.4,0h-.3v.7s1.4,10.6,1.4,10.6h0s.3,2.6.3,2.6l.2,1.8h0s0,.3,0,.3h.3s.1,0,.3,0c.2,0,.6,0,1,0,.3,0,.6,0,.9,0,.1,0,.3,0,.4,0,.2,0,.4,0,.6,0,.1,0,.3,0,.4,0,.3,0,.5,0,.8,0,1.1,0,2.4.1,3.7.2.3,0,.7,0,1,0,.3,0,.7,0,1,0,.3,0,.7,0,1,0,.7,0,1.4,0,2.1,0s1.4,0,2.1,0c.3,0,.7,0,1,0,.3,0,.7,0,1,0,.3,0,.7,0,1,0,1.7,0,3.2-.2,4.5-.3.2,0,.3,0,.5,0,1.3-.1,2.3-.2,2.8-.2.2,0,.3,0,.3,0h.3s0-.3,0-.3l.2-1.8.3-2.5h0s1.3-10.8,1.3-10.8v-.3s0-.3,0-.3ZM73.8,14.7l-.5,3.8s0,0-.1,0c0,0-.1,0-.2,0s0,0-.1,0c0,0-.2,0-.3,0h0s1.8-14.4,1.8-14.4h-.3c-2.3-.5-8.3-1.5-13.8-1.5h-.5c-5.3,0-11,1-13.2,1.4h-.3c0,0,1.7,13.8,1.7,13.8h.4s0,0,0,0h.3s0-.3,0-.3l-1.6-12.8c2.4-.4,7.8-1.3,12.8-1.3h.5c5.1,0,10.8.9,13.3,1.3l-1.8,13.9c-.4,0-.8,0-1.4.1h0c0,0-.1,0-.2,0,0,0-.2,0-.3,0,0,0-.2,0-.3,0,0,0-.2,0-.2,0h-.2c-.6,0-1.3,0-2,.1-.7,0-1.5,0-2.2.1-.7,0-1.4,0-2,0-.2,0-.5,0-.7,0-.6,0-1.3,0-1.9,0s-.8,0-1.2,0c-.2,0-.5,0-.7,0h-.2c-.7,0-1.4,0-2.1,0-.2,0-.3,0-.5,0-.2,0-.3,0-.5,0-.3,0-.7,0-1,0-.1,0-.2,0-.3,0-.2,0-.4,0-.6,0h-.1c-.3,0-.5,0-.8,0-.3,0-.6,0-.9,0,0,0-.1,0-.1,0,0,0,0,0-.1,0h-.2c-.1,0-.2,0-.4,0,0,0,0,0,0,0h-.1c0,0-.1,0-.2,0,0,0,0,0-.1,0-.2,0-.4,0-.5,0-.3,0-.6,0-.8,0-.1,0-.2,0-.3,0-.1,0-.2,0-.3,0,0,0-.2,0-.3,0h0c0,0-.1,0-.1,0-.1,0-.2,0-.3,0l-.5-3.9h0c0,0-1.3-10.9-1.3-10.9,1.5-.3,8.3-1.5,14.6-1.6h.3c6.3,0,13.3,1.3,14.8,1.6l-1.4,11h0ZM46.3,4.1l1.7,13.7h0l-1.8-13.7ZM46.3,4.1l1.7,13.7h0l-1.8-13.7Z"/>
          <path class="cls-2" d="M60.4,1.7h0c-7.2,0-15.2,1.6-15.2,1.6l1.9,15.4s.5,0,1.3.1c0,0,0-.1,0-.2l-1.8-14.3c2.4-.4,8-1.3,13.2-1.4h.5c5.3,0,11.2.9,13.7,1.4l-1.8,14.3c0,0,0,.1,0,.2.8,0,1.3-.1,1.3-.1l1.9-15.4s-8-1.7-15.2-1.7Z"/>
          <g>
            <path class="cls-2" d="M75.2,2.3v.6c-1.7-.3-8.4-1.5-14.6-1.6h-.3c-6.2,0-13.2,1.3-14.9,1.6v-.6c1.6-.3,8.5-1.6,14.9-1.6s13.3,1.3,14.9,1.6Z"/>
            <path d="M75.9,1.7h-.3c0,0-9.3-1.7-15.3-1.7s-14.4,1.5-15.3,1.7h-.3c0,0,0,1.4,0,1.4h0v.6s1.4,10.6,1.4,10.6h0s.3,2.6.3,2.6l.2,1.8h0s0,.3,0,.3h.3s.1,0,.3,0c.2,0,.6,0,1,0,.3,0,.6,0,.9,0,.1,0,.3,0,.4,0,.2,0,.4,0,.6,0,.1,0,.3,0,.4,0,.3,0,.5,0,.8,0,1.1,0,2.4.1,3.7.2.3,0,.7,0,1,0,.3,0,.7,0,1,0,.3,0,.7,0,1,0,.7,0,1.4,0,2.1,0s1.4,0,2.1,0c.3,0,.7,0,1,0,.3,0,.7,0,1,0,.3,0,.7,0,1,0,1.7,0,3.2-.2,4.5-.3.2,0,.3,0,.5,0,1.3-.1,2.3-.2,2.8-.2.2,0,.3,0,.3,0h.3s0-.3,0-.3l.2-1.8.3-2.5h0s1.3-10.8,1.3-10.8v-.3s0,0,0,0h0v-1.6ZM45.5,2.9v-.6c1.6-.3,8.5-1.6,14.9-1.6s13.3,1.3,14.9,1.6v.6c-1.7-.3-8.4-1.5-14.6-1.6h-.3c-6.2,0-13.2,1.3-14.9,1.6,0,0,0,0,0,0ZM70.6,18.7h0c0,0-.1,0-.2,0,0,0-.2,0-.3,0,0,0-.2,0-.3,0,0,0-.2,0-.2,0h-.2c-.6,0-1.3,0-2,.1-.7,0-1.5,0-2.2.1-.7,0-1.4,0-2,0-.2,0-.5,0-.7,0-.6,0-1.3,0-1.9,0s-.8,0-1.2,0c-.2,0-.5,0-.7,0h-.2c-.7,0-1.4,0-2.1,0-.2,0-.3,0-.5,0-.2,0-.3,0-.5,0-.3,0-.7,0-1,0-.1,0-.2,0-.3,0-.2,0-.4,0-.6,0h-.1c-.3,0-.5,0-.8,0-.3,0-.6,0-.9,0,0,0-.1,0-.1,0,0,0,0,0-.1,0h-.2c-.1,0-.2,0-.4,0,0,0-.1,0-.2,0,0,0-.1,0-.2,0,0,0,0,0-.1,0-.2,0-.4,0-.5,0-.3,0-.6,0-.8,0v-1c-.1,0-1.8-12.8-1.8-12.8,2.4-.4,7.8-1.3,12.8-1.3h.5c5.1,0,10.8.9,13.3,1.3l-1.8,13.9c-.4,0-.8,0-1.4.1ZM73.9,14.6h0c0,0-.5,3.8-.5,3.8,0,0,0,0-.1,0,0,0-.1,0-.2,0s0,0-.1,0c0,0-.2,0-.3,0h0s1.8-14.4,1.8-14.4h-.3c-2.3-.5-8.3-1.5-13.8-1.5h-.5c-5.3,0-11,1-13.2,1.4h-.3c0,0,1.8,13.8,1.8,13.8v.6s0,0-.2,0h0c0,0-.1,0-.1,0-.1,0-.2,0-.3,0l-.5-3.9h0c0,0-1.3-10.9-1.3-10.9,1.5-.3,8.3-1.5,14.6-1.6h.3c6.3,0,13.3,1.3,14.8,1.6l-1.4,11Z"/>
          </g>
          <g>
            <path class="cls-2" d="M74.3,23.4l-.6-4.3v-.3s-2.8.3-6.4.5c-1.1,0-2.2.1-3.4.2-1.2,0-2.4,0-3.6,0-6.3,0-13.3-.7-13.3-.7v.3s-.6,4.3-.6,4.3c-.3,2.3-.5,4.6-.5,6.9v16.1c0,.5,1.6,1,4.2,1.3,2.6.3,6.2.6,10.2.6,7.9,0,14.4-.8,14.4-1.9v-16.1c0-2.3-.2-4.6-.5-6.9ZM74.4,46.4c-.3.6-5.5,1.6-14,1.6s-13.8-.9-14.1-1.5v-16.1c0-2.3.2-4.6.5-6.9l.6-4.3c.2,0,.6,0,1,0,.3,0,.6,0,.9,0,.1,0,.3,0,.4,0,.2,0,.4,0,.6,0,.1,0,.3,0,.4,0,.3,0,.5,0,.8,0,1.1,0,2.4.1,3.7.2.3,0,.7,0,1,0,.3,0,.7,0,1,0,.3,0,.7,0,1,0,.7,0,1.4,0,2.1,0s1.4,0,2.1,0c.3,0,.7,0,1,0,.4,0,.7,0,1,0,.3,0,.7,0,1,0,1.7,0,3.2-.2,4.5-.3.2,0,.3,0,.5,0,1.3-.1,2.3-.2,2.8-.2l.6,4.3c.3,2.3.5,4.6.5,6.9v16.1Z"/>
            <path d="M74.6,23.3l-.6-4.6h0c0-.2-.1-.3-.3-.3h0s0,0-.3,0c0,0,0,0-.1,0,0,0-.1,0-.2,0s0,0-.1,0c0,0-.2,0-.3,0h0c-.1,0-.2,0-.3,0h0c-.1,0-.2,0-.3,0-.4,0-.8,0-1.4.1h0c0,0-.2,0-.2,0,0,0-.2,0-.3,0,0,0-.2,0-.3,0,0,0-.2,0-.3,0h-.1c-.6,0-1.3,0-2,.1-.7,0-1.5,0-2.2.1-.7,0-1.4,0-2,0-.2,0-.5,0-.7,0-.6,0-1.3,0-1.9,0s-.8,0-1.2,0c-.2,0-.5,0-.7,0h-.2c-.7,0-1.4,0-2.1,0-.2,0-.3,0-.5,0-.2,0-.3,0-.5,0-.3,0-.7,0-1,0-.1,0-.2,0-.3,0-.2,0-.4,0-.6,0-.6,0-1.2,0-1.8-.1,0,0-.1,0-.1,0,0,0-.1,0-.2,0h-.1c-.1,0-.2,0-.4,0,0,0,0,0,0,0h-.1c0,0-.1,0-.2,0,0,0,0,0-.1,0-.2,0-.4,0-.5,0-.3,0-.6,0-.8,0-.1,0-.2,0-.3,0-.1,0-.2,0-.3,0,0,0-.2,0-.3,0h0c0,0-.1,0-.1,0-.1,0-.2,0-.3,0-.2,0-.3,0-.3,0,0,0,0,0,0,0h0c-.1,0-.3.1-.3.3h0s-.6,4.6-.6,4.6c-.3,2.3-.5,4.7-.5,7v16.1c0,2.2,14.1,2.2,14.7,2.2s14.7,0,14.7-2.2v-16.1c0-2.3-.2-4.7-.5-7ZM74.4,46.4c-.3.6-5.5,1.6-14,1.6s-13.8-.9-14.1-1.5v-16.1c0-2.3.2-4.6.5-6.9l.6-4.3c.2,0,.6,0,1,0,.3,0,.6,0,.9,0,.1,0,.3,0,.4,0,.2,0,.4,0,.6,0,.1,0,.3,0,.4,0,.3,0,.5,0,.8,0,1.1,0,2.4.1,3.7.2.3,0,.7,0,1,0,.3,0,.7,0,1,0,.3,0,.7,0,1,0,.7,0,1.4,0,2.1,0s1.4,0,2.1,0c.3,0,.7,0,1,0,.3,0,.7,0,1,0,.3,0,.7,0,1,0,1.7,0,3.2-.2,4.5-.3.2,0,.3,0,.5,0,1.3-.1,2.3-.2,2.8-.2l.6,4.3c.3,2.3.5,4.6.5,6.9v16.1Z"/>
            <path class="cls-2" d="M74.4,30.3v16.1c-.3.6-5.5,1.6-14,1.6s-13.8-.9-14.1-1.5v-16.1c0-2.3.2-4.6.5-6.9l.6-4.3c.2,0,.6,0,1,0,.3,0,.6,0,.9,0,.1,0,.3,0,.4,0,.2,0,.4,0,.6,0,.1,0,.3,0,.4,0,.3,0,.5,0,.8,0,1.1,0,2.4.1,3.7.2.3,0,.7,0,1,0,.3,0,.7,0,1,0,.3,0,.7,0,1,0,.7,0,1.4,0,2.1,0s1.4,0,2.1,0c.3,0,.7,0,1,0,.4,0,.7,0,1,0,.3,0,.7,0,1,0,1.7,0,3.2-.2,4.5-.3.2,0,.3,0,.5,0,1.3-.1,2.3-.2,2.8-.2l.6,4.3c.3,2.3.5,4.6.5,6.9Z"/>
          </g>
        </g>
        <rect class="cls-1" x="31.6" y="33.7" width="58" height="102.3"/>
      </g>
    </g>
  </g>
</svg>