<?xml version="1.0" encoding="UTF-8"?>
<svg xmlns="http://www.w3.org/2000/svg" version="1.1" viewBox="0 0 221.7 164.2">
  <defs>
    <style>
      .cls-1 {
        stroke-miterlimit: 10;
        stroke-width: 1.1px;
      }

      .cls-1, .cls-2 {
        stroke: #000;
        stroke-linecap: square;
      }

      .cls-1, .cls-2, .cls-3 {
        fill: #fff;
      }

      .cls-2 {
        stroke-linejoin: round;
        stroke-width: .8px;
      }
    </style>
  </defs>
  <!-- Generator: Adobe Illustrator 28.6.0, SVG Export Plug-In . SVG Version: 1.2.0 Build 709)  -->
  <g>
    <g id="Layer_1">
      <g>
        <rect class="cls-1" x="51.4" y="53.1" width="119" height="58"/>
        <g>
          <path d="M67.4,4l1.6,13.1h0l-1.7-13.1ZM95.7,2.9h-.3c0,0-.1,0-.4-.1-1.6-.3-8.1-1.5-13.9-1.5h-.3c-6,0-12.6,1.2-14.2,1.5-.2,0-.4,0-.4,0h-.3v.6s1.3,10.2,1.3,10.2h0s.3,2.5.3,2.5l.2,1.7h0s0,.3,0,.3h.2s.1,0,.3,0c.2,0,.5,0,1,0,.3,0,.5,0,.8,0,.1,0,.3,0,.4,0,.2,0,.4,0,.6,0,.1,0,.2,0,.4,0,.2,0,.5,0,.8,0,1.1,0,2.3.1,3.6.2.3,0,.6,0,1,0,.3,0,.6,0,1,0,.3,0,.7,0,1,0,.7,0,1.3,0,2,0s1.3,0,2,0c.3,0,.7,0,1,0,.3,0,.7,0,1,0,.3,0,.6,0,1,0,1.6,0,3.1-.2,4.3-.3.2,0,.3,0,.5,0,1.3-.1,2.2-.2,2.7-.2.2,0,.3,0,.3,0h.3s0-.3,0-.3l.2-1.7.3-2.4h0s1.3-10.3,1.3-10.3v-.3s0-.3,0-.3ZM93.7,14l-.4,3.6s0,0-.1,0c0,0-.1,0-.2,0s0,0-.1,0c0,0-.2,0-.3,0h0s1.8-13.7,1.8-13.7h-.3c-2.2-.4-8-1.4-13.1-1.4h-.5c-5,0-10.5,1-12.6,1.3h-.3c0,0,1.6,13.2,1.6,13.2h.4s0,0,0,0h.3s0-.3,0-.3l-1.5-12.2c2.3-.4,7.4-1.2,12.2-1.3h.5c4.9,0,10.3.8,12.7,1.3l-1.7,13.2c-.4,0-.8,0-1.3.1h0c0,0-.1,0-.2,0,0,0-.2,0-.3,0,0,0-.2,0-.3,0,0,0-.2,0-.2,0h-.2c-.6,0-1.2,0-1.9.1-.7,0-1.4,0-2.1.1-.6,0-1.3,0-1.9,0-.2,0-.5,0-.7,0-.6,0-1.2,0-1.8,0s-.7,0-1.1,0c-.2,0-.5,0-.7,0h-.2c-.7,0-1.3,0-2,0-.2,0-.3,0-.5,0-.2,0-.3,0-.5,0-.3,0-.6,0-1,0-.1,0-.2,0-.3,0-.2,0-.4,0-.6,0h-.1c-.3,0-.5,0-.8,0-.3,0-.5,0-.8,0,0,0,0,0-.1,0,0,0,0,0-.1,0h-.2c-.1,0-.2,0-.3,0,0,0,0,0,0,0h-.1c0,0-.1,0-.2,0,0,0,0,0-.1,0-.2,0-.3,0-.5,0-.3,0-.5,0-.8,0-.1,0-.2,0-.3,0-.1,0-.2,0-.3,0,0,0-.2,0-.2,0h0c0,0-.1,0-.1,0-.1,0-.2,0-.3,0l-.5-3.7h0c0,0-1.3-10.4-1.3-10.4,1.4-.3,7.9-1.5,13.9-1.5h.3c6,0,12.7,1.2,14.2,1.5l-1.3,10.5h0ZM67.4,4l1.6,13.1h0l-1.7-13.1ZM67.4,4l1.6,13.1h0l-1.7-13.1Z"/>
          <path class="cls-3" d="M80.9,1.6h0c-6.9,0-14.5,1.6-14.5,1.6l1.8,14.7s.5,0,1.3.1c0,0,0-.1,0-.2l-1.7-13.6c2.3-.4,7.6-1.3,12.6-1.3h.5c5.1,0,10.7.9,13.1,1.3l-1.7,13.6c0,0,0,.1,0,.2.8,0,1.3-.1,1.3-.1l1.8-14.7s-7.6-1.6-14.5-1.6Z"/>
          <g>
            <path class="cls-3" d="M95.1,2.2v.6c-1.6-.3-8.1-1.5-13.9-1.5h-.3c-6,0-12.6,1.2-14.2,1.5v-.6c1.5-.3,8.2-1.5,14.2-1.5s12.7,1.3,14.2,1.6Z"/>
            <path d="M95.7,1.7h-.3c0,0-8.9-1.7-14.6-1.7s-13.8,1.4-14.6,1.6h-.3c0,0,0,1.3,0,1.3h0v.6s1.3,10.2,1.3,10.2h0s.3,2.5.3,2.5l.2,1.7h0s0,.3,0,.3h.2s.1,0,.3,0c.2,0,.5,0,1,0,.3,0,.5,0,.8,0,.1,0,.3,0,.4,0,.2,0,.4,0,.6,0,.1,0,.2,0,.4,0,.2,0,.5,0,.8,0,1.1,0,2.3.1,3.6.2.3,0,.6,0,1,0,.3,0,.6,0,1,0,.3,0,.7,0,1,0,.7,0,1.3,0,2,0s1.3,0,2,0c.3,0,.7,0,1,0,.3,0,.7,0,1,0,.3,0,.6,0,1,0,1.6,0,3.1-.2,4.3-.3.2,0,.3,0,.5,0,1.3-.1,2.2-.2,2.7-.2.2,0,.3,0,.3,0h.3s0-.3,0-.3l.2-1.7.3-2.4h0s1.3-10.3,1.3-10.3v-.3s0,0,0,0h0v-1.5ZM66.7,2.8v-.6c1.5-.3,8.2-1.5,14.2-1.5s12.7,1.3,14.2,1.6v.6c-1.6-.3-8.1-1.5-13.9-1.5h-.3c-6,0-12.6,1.2-14.2,1.5,0,0,0,0,0,0ZM90.6,17.8h0c0,0-.1,0-.2,0,0,0-.2,0-.3,0,0,0-.2,0-.3,0,0,0-.2,0-.2,0h-.2c-.6,0-1.2,0-1.9.1-.7,0-1.4,0-2.1.1-.6,0-1.3,0-1.9,0-.2,0-.5,0-.7,0-.6,0-1.2,0-1.8,0s-.7,0-1.1,0c-.2,0-.5,0-.7,0h-.2c-.7,0-1.3,0-2,0-.2,0-.3,0-.5,0-.2,0-.3,0-.5,0-.3,0-.6,0-1,0-.1,0-.2,0-.3,0-.2,0-.4,0-.6,0h-.1c-.3,0-.5,0-.8,0-.3,0-.5,0-.8,0,0,0,0,0-.1,0,0,0,0,0-.1,0h-.2c-.1,0-.2,0-.3,0,0,0-.1,0-.2,0,0,0-.1,0-.2,0,0,0,0,0-.1,0-.2,0-.3,0-.5,0-.3,0-.5,0-.8,0v-1c-.1,0-1.7-12.2-1.7-12.2,2.3-.4,7.4-1.2,12.2-1.3h.5c4.9,0,10.3.8,12.7,1.3l-1.7,13.2c-.4,0-.8,0-1.3.1ZM93.7,13.9h0c0,0-.4,3.7-.4,3.7,0,0,0,0-.1,0,0,0-.1,0-.2,0s0,0-.1,0c0,0-.2,0-.3,0h0s1.8-13.7,1.8-13.7h-.3c-2.2-.4-8-1.4-13.1-1.4h-.5c-5,0-10.5,1-12.6,1.3h-.3c0,0,1.7,13.2,1.7,13.2v.6s0,0-.2,0h0c0,0-.1,0-.1,0-.1,0-.2,0-.3,0l-.5-3.7h0c0,0-1.3-10.4-1.3-10.4,1.4-.3,7.9-1.5,13.9-1.5h.3c6,0,12.7,1.2,14.2,1.5l-1.3,10.5Z"/>
          </g>
          <g>
            <path class="cls-3" d="M94.2,22.3l-.6-4.1v-.3s-2.6.3-6.1.5c-1,0-2.1.1-3.2.2-1.1,0-2.3,0-3.4,0-6,0-12.7-.7-12.7-.7v.3s-.6,4.1-.6,4.1c-.3,2.2-.4,4.4-.4,6.6v15.4c0,.5,1.5.9,4,1.3,2.5.3,5.9.5,9.7.5,7.6,0,13.7-.8,13.7-1.8v-15.4c0-2.2-.2-4.4-.4-6.6ZM94.3,44.3c-.3.6-5.3,1.5-13.4,1.5s-13.1-.9-13.4-1.5v-15.4c0-2.2.2-4.4.4-6.6l.6-4.1c.2,0,.5,0,1,0,.3,0,.5,0,.8,0,.1,0,.3,0,.4,0,.2,0,.4,0,.6,0,.1,0,.2,0,.4,0,.2,0,.5,0,.8,0,1.1,0,2.3.1,3.6.2.3,0,.6,0,1,0,.3,0,.6,0,1,0,.3,0,.7,0,1,0,.7,0,1.3,0,2,0s1.3,0,2,0c.3,0,.7,0,1,0,.3,0,.7,0,1,0,.3,0,.6,0,1,0,1.6,0,3.1-.2,4.3-.3.2,0,.3,0,.5,0,1.3-.1,2.2-.2,2.7-.2l.6,4.1c.3,2.2.4,4.4.4,6.6v15.4Z"/>
            <path d="M94.5,22.3l-.6-4.4h0c0-.2-.1-.3-.3-.3h0s0,0-.3,0c0,0,0,0-.1,0,0,0-.1,0-.2,0s0,0-.1,0c0,0-.2,0-.3,0h0c-.1,0-.2,0-.3,0h0c-.1,0-.2,0-.3,0-.4,0-.8,0-1.3.1h0c0,0-.2,0-.2,0,0,0-.2,0-.3,0,0,0-.2,0-.3,0,0,0-.2,0-.3,0h-.1c-.6,0-1.2,0-1.9.1-.7,0-1.4,0-2.1.1-.6,0-1.3,0-1.9,0-.2,0-.5,0-.7,0-.6,0-1.2,0-1.8,0s-.7,0-1.1,0c-.2,0-.5,0-.7,0h-.2c-.7,0-1.3,0-2,0-.2,0-.3,0-.5,0-.2,0-.3,0-.5,0-.3,0-.6,0-1,0-.1,0-.2,0-.3,0-.2,0-.4,0-.6,0-.6,0-1.2,0-1.7-.1,0,0,0,0-.1,0,0,0-.1,0-.2,0h-.1c-.1,0-.2,0-.3,0,0,0,0,0,0,0h-.1c0,0-.1,0-.2,0,0,0,0,0-.1,0-.2,0-.3,0-.5,0-.3,0-.5,0-.8,0-.1,0-.2,0-.3,0-.1,0-.2,0-.3,0,0,0-.2,0-.2,0h0c0,0-.1,0-.1,0-.1,0-.2,0-.3,0-.2,0-.2,0-.2,0,0,0,0,0,0,0h0c-.1,0-.3.1-.3.3h0s-.6,4.4-.6,4.4c-.3,2.2-.4,4.4-.4,6.7v15.4c0,2.1,13.5,2.1,14,2.1s14,0,14-2.1v-15.4c0-2.2-.2-4.5-.4-6.7ZM94.3,44.3c-.3.6-5.3,1.5-13.4,1.5s-13.1-.9-13.4-1.5v-15.4c0-2.2.2-4.4.5-6.6l.5-4.1c.2,0,.5,0,1,0,.3,0,.5,0,.8,0,.1,0,.3,0,.4,0,.2,0,.4,0,.6,0,.1,0,.2,0,.4,0,.2,0,.5,0,.8,0,1.1,0,2.3.1,3.6.2.3,0,.6,0,1,0,.3,0,.6,0,1,0,.3,0,.7,0,1,0,.7,0,1.3,0,2,0s1.3,0,2,0c.3,0,.7,0,1,0,.3,0,.7,0,1,0,.3,0,.6,0,1,0,1.6,0,3.1-.2,4.3-.3.2,0,.3,0,.5,0,1.3-.1,2.2-.2,2.7-.2l.6,4.1c.3,2.2.4,4.4.4,6.6v15.4Z"/>
            <path class="cls-3" d="M94.3,28.9v15.4c-.3.6-5.3,1.5-13.4,1.5s-13.1-.9-13.4-1.5v-15.4c0-2.2.2-4.4.4-6.6l.6-4.1c.2,0,.5,0,1,0,.3,0,.5,0,.8,0,.1,0,.3,0,.4,0,.2,0,.4,0,.6,0,.1,0,.2,0,.4,0,.2,0,.5,0,.8,0,1.1,0,2.3.1,3.6.2.3,0,.6,0,1,0,.3,0,.6,0,1,0,.3,0,.7,0,1,0,.7,0,1.3,0,2,0s1.3,0,2,0c.3,0,.7,0,1,0,.3,0,.7,0,1,0,.3,0,.6,0,1,0,1.6,0,3.1-.2,4.3-.3.2,0,.3,0,.5,0,1.3-.1,2.2-.2,2.7-.2l.6,4.1c.3,2.2.4,4.4.4,6.6Z"/>
          </g>
          <g>
            <path class="cls-3" d="M95.5,29.9v15.7c-.3.7-5.7,1.6-14.7,1.6s-14.3-1-14.7-1.6v-15.9c0-2.7.2-5.5.5-8.2l.9-5.4.2,1.7h0s-.6,4.4-.6,4.4c-.3,2.2-.4,4.4-.4,6.7v15.4c0,2.1,13.5,2.1,14,2.1s14,0,14-2.1v-15.4c0-2.2-.2-4.5-.4-6.7l-.6-4.4.2-1.7.8,5.1c.4,2.8.6,5.7.6,8.6Z"/>
            <path d="M96.2,29.9v15.7c0,2.3-14.7,2.3-15.3,2.3s-15.4,0-15.4-2.3v-15.9c0-2.7.2-5.5.6-8.3l1.3-7.8.7.2h0c0,0-.2,1.2-.2,1.2l-.2,1.1-.9,5.4c-.4,2.7-.5,5.4-.5,8.2v15.9c.3.6,5.7,1.6,14.7,1.6s14.3-1,14.7-1.6v-15.7c0-2.9-.2-5.7-.6-8.6l-.8-5.1-.2-1.1-.2-1.1h0c0,0,.6-.3.6-.3l1.2,7.5c.4,2.9.6,5.8.6,8.7Z"/>
          </g>
          <path class="cls-2" d="M64.2,38.9h-2.6v-6.2c-.2-9.1,1.7-16.8,1.8-17.1l2.5.6c0,0-1.9,7.7-1.7,16.5v6.2Z"/>
          <path class="cls-2" d="M97.5,38.9h2.6v-6.2c.2-9.1-1.7-16.8-1.8-17.1l-2.5.6c0,0,1.9,7.7,1.7,16.5v6.2Z"/>
          <path class="cls-3" d="M93.6,4.5l-1.7,13.2c-.4,0-.8,0-1.3.1h0c0,0-.1,0-.2,0,0,0-.2,0-.3,0,0,0-.2,0-.3,0,0,0-.2,0-.3,0h-.1c-.6,0-1.2,0-1.9.1-.7,0-1.4,0-2.1.1-.6,0-1.3,0-1.9,0-.2,0-.5,0-.7,0-.6,0-1.2,0-1.8,0s-.7,0-1.1,0c-.2,0-.5,0-.7,0h-.2c-.7,0-1.3,0-2,0-.2,0-.3,0-.5,0-.2,0-.3,0-.5,0-.3,0-.6,0-1,0-.1,0-.2,0-.3,0-.2,0-.4,0-.6,0-.6,0-1.2,0-1.7-.1,0,0,0,0-.1,0,0,0,0,0-.1,0h-.2c-.1,0-.2,0-.3,0,0,0,0,0,0,0h-.1c0,0-.1,0-.2,0,0,0,0,0-.1,0-.2,0-.3,0-.5,0-.3,0-.5,0-.8,0v-1c-.1,0-1.7-12.2-1.7-12.2,2.3-.4,7.4-1.2,12.2-1.3h.5c4.9,0,10.3.8,12.7,1.3Z"/>
          <circle cx="72.6" cy="40.9" r=".7"/>
          <path d="M72.6,23.2c-.4,0-.7.3-.7.7s.3.7.7.7.7-.3.7-.7-.3-.7-.7-.7Z"/>
          <circle cx="89.9" cy="40.9" r=".7"/>
          <path d="M89.9,23.2c-.4,0-.7.3-.7.7s.3.7.7.7.7-.3.7-.7-.3-.7-.7-.7Z"/>
        </g>
        <g>
          <path d="M126.2,4l1.6,13.1h0l-1.7-13.1ZM154.4,2.9h-.3c0,0-.1,0-.4-.1-1.6-.3-8.1-1.5-13.9-1.5h-.3c-6,0-12.6,1.2-14.2,1.5-.2,0-.4,0-.4,0h-.3v.6s1.3,10.2,1.3,10.2h0s.3,2.5.3,2.5l.2,1.7h0s0,.3,0,.3h.2s.1,0,.3,0c.2,0,.5,0,1,0,.3,0,.5,0,.8,0,.1,0,.3,0,.4,0,.2,0,.4,0,.6,0,.1,0,.2,0,.4,0,.2,0,.5,0,.8,0,1.1,0,2.3.1,3.6.2.3,0,.6,0,1,0,.3,0,.6,0,1,0,.3,0,.7,0,1,0,.7,0,1.3,0,2,0s1.3,0,2,0c.3,0,.7,0,1,0,.3,0,.7,0,1,0,.3,0,.6,0,1,0,1.6,0,3.1-.2,4.3-.3.2,0,.3,0,.5,0,1.3-.1,2.2-.2,2.7-.2.2,0,.3,0,.3,0h.3s0-.3,0-.3l.2-1.7.3-2.4h0s1.3-10.3,1.3-10.3v-.3s0-.3,0-.3ZM152.5,14l-.4,3.6s0,0-.1,0c0,0-.1,0-.2,0s0,0-.1,0c0,0-.2,0-.3,0h0s1.8-13.7,1.8-13.7h-.3c-2.2-.4-8-1.4-13.1-1.4h-.5c-5,0-10.5,1-12.6,1.3h-.3c0,0,1.6,13.2,1.6,13.2h.4s0,0,0,0h.3s0-.3,0-.3l-1.5-12.2c2.3-.4,7.4-1.2,12.2-1.3h.5c4.9,0,10.3.8,12.7,1.3l-1.7,13.2c-.4,0-.8,0-1.3.1h0c0,0-.1,0-.2,0,0,0-.2,0-.3,0,0,0-.2,0-.3,0,0,0-.2,0-.2,0h-.2c-.6,0-1.2,0-1.9.1-.7,0-1.4,0-2.1.1-.6,0-1.3,0-1.9,0-.2,0-.5,0-.7,0-.6,0-1.2,0-1.8,0s-.7,0-1.1,0c-.2,0-.5,0-.7,0h-.2c-.7,0-1.3,0-2,0-.2,0-.3,0-.5,0-.2,0-.3,0-.5,0-.3,0-.6,0-1,0-.1,0-.2,0-.3,0-.2,0-.4,0-.6,0h-.1c-.3,0-.5,0-.8,0-.3,0-.5,0-.8,0,0,0,0,0-.1,0,0,0,0,0-.1,0h-.2c-.1,0-.2,0-.3,0,0,0,0,0,0,0h-.1c0,0-.1,0-.2,0,0,0,0,0-.1,0-.2,0-.3,0-.5,0-.3,0-.5,0-.8,0-.1,0-.2,0-.3,0-.1,0-.2,0-.3,0,0,0-.2,0-.2,0h0c0,0-.1,0-.1,0-.1,0-.2,0-.3,0l-.5-3.7h0c0,0-1.3-10.4-1.3-10.4,1.4-.3,7.9-1.5,13.9-1.5h.3c6,0,12.7,1.2,14.2,1.5l-1.3,10.5h0ZM126.2,4l1.6,13.1h0l-1.7-13.1ZM126.2,4l1.6,13.1h0l-1.7-13.1Z"/>
          <path class="cls-3" d="M139.6,1.6h0c-6.9,0-14.5,1.6-14.5,1.6l1.8,14.7s.5,0,1.3.1c0,0,0-.1,0-.2l-1.7-13.6c2.3-.4,7.6-1.3,12.6-1.3h.5c5.1,0,10.7.9,13.1,1.3l-1.7,13.6c0,0,0,.1,0,.2.8,0,1.3-.1,1.3-.1l1.8-14.7s-7.6-1.6-14.5-1.6Z"/>
          <g>
            <path class="cls-3" d="M153.8,2.2v.6c-1.6-.3-8.1-1.5-13.9-1.5h-.3c-6,0-12.6,1.2-14.2,1.5v-.6c1.5-.3,8.2-1.5,14.2-1.5s12.7,1.3,14.2,1.6Z"/>
            <path d="M154.4,1.7h-.3c0,0-8.9-1.7-14.6-1.7s-13.8,1.4-14.6,1.6h-.3c0,0,0,1.3,0,1.3h0v.6s1.3,10.2,1.3,10.2h0s.3,2.5.3,2.5l.2,1.7h0s0,.3,0,.3h.2s.1,0,.3,0c.2,0,.5,0,1,0,.3,0,.5,0,.8,0,.1,0,.3,0,.4,0,.2,0,.4,0,.6,0,.1,0,.2,0,.4,0,.2,0,.5,0,.8,0,1.1,0,2.3.1,3.6.2.3,0,.6,0,1,0,.3,0,.6,0,1,0,.3,0,.7,0,1,0,.7,0,1.3,0,2,0s1.3,0,2,0c.3,0,.7,0,1,0,.3,0,.7,0,1,0,.3,0,.6,0,1,0,1.6,0,3.1-.2,4.3-.3.2,0,.3,0,.5,0,1.3-.1,2.2-.2,2.7-.2.2,0,.3,0,.3,0h.3s0-.3,0-.3l.2-1.7.3-2.4h0s1.3-10.3,1.3-10.3v-.3s0,0,0,0h0v-1.5ZM125.4,2.8v-.6c1.5-.3,8.2-1.5,14.2-1.5s12.7,1.3,14.2,1.6v.6c-1.6-.3-8.1-1.5-13.9-1.5h-.3c-6,0-12.6,1.2-14.2,1.5,0,0,0,0,0,0ZM149.3,17.8h0c0,0-.1,0-.2,0,0,0-.2,0-.3,0,0,0-.2,0-.3,0,0,0-.2,0-.2,0h-.2c-.6,0-1.2,0-1.9.1-.7,0-1.4,0-2.1.1-.6,0-1.3,0-1.9,0-.2,0-.5,0-.7,0-.6,0-1.2,0-1.8,0s-.7,0-1.1,0c-.2,0-.5,0-.7,0h-.2c-.7,0-1.3,0-2,0-.2,0-.3,0-.5,0-.2,0-.3,0-.5,0-.3,0-.6,0-1,0-.1,0-.2,0-.3,0-.2,0-.4,0-.6,0h-.1c-.3,0-.5,0-.8,0-.3,0-.5,0-.8,0,0,0,0,0-.1,0,0,0,0,0-.1,0h-.2c-.1,0-.2,0-.3,0,0,0-.1,0-.2,0,0,0-.1,0-.2,0,0,0,0,0-.1,0-.2,0-.3,0-.5,0-.3,0-.5,0-.8,0v-1c-.1,0-1.7-12.2-1.7-12.2,2.3-.4,7.4-1.2,12.2-1.3h.5c4.9,0,10.3.8,12.7,1.3l-1.7,13.2c-.4,0-.8,0-1.3.1ZM152.5,13.9h0c0,0-.4,3.7-.4,3.7,0,0,0,0-.1,0,0,0-.1,0-.2,0s0,0-.1,0c0,0-.2,0-.3,0h0s1.8-13.7,1.8-13.7h-.3c-2.2-.4-8-1.4-13.1-1.4h-.5c-5,0-10.5,1-12.6,1.3h-.3c0,0,1.7,13.2,1.7,13.2v.6s0,0-.2,0h0c0,0-.1,0-.1,0-.1,0-.2,0-.3,0l-.5-3.7h0c0,0-1.3-10.4-1.3-10.4,1.4-.3,7.9-1.5,13.9-1.5h.3c6,0,12.7,1.2,14.2,1.5l-1.3,10.5Z"/>
          </g>
          <g>
            <path class="cls-3" d="M152.9,22.3l-.6-4.1v-.3s-2.6.3-6.1.5c-1,0-2.1.1-3.2.2-1.1,0-2.3,0-3.4,0-6,0-12.7-.7-12.7-.7v.3s-.6,4.1-.6,4.1c-.3,2.2-.4,4.4-.4,6.6v15.4c0,.5,1.5.9,4,1.3,2.5.3,5.9.5,9.7.5,7.6,0,13.7-.8,13.7-1.8v-15.4c0-2.2-.2-4.4-.4-6.6ZM153,44.3c-.3.6-5.3,1.5-13.4,1.5s-13.1-.9-13.4-1.5v-15.4c0-2.2.2-4.4.4-6.6l.6-4.1c.2,0,.5,0,1,0,.3,0,.5,0,.8,0,.1,0,.3,0,.4,0,.2,0,.4,0,.6,0,.1,0,.2,0,.4,0,.2,0,.5,0,.8,0,1.1,0,2.3.1,3.6.2.3,0,.6,0,1,0,.3,0,.6,0,1,0,.3,0,.7,0,1,0,.7,0,1.3,0,2,0s1.3,0,2,0c.3,0,.7,0,1,0,.3,0,.7,0,1,0,.3,0,.6,0,1,0,1.6,0,3.1-.2,4.3-.3.2,0,.3,0,.5,0,1.3-.1,2.2-.2,2.7-.2l.6,4.1c.3,2.2.4,4.4.4,6.6v15.4Z"/>
            <path d="M153.2,22.3l-.6-4.4h0c0-.2-.1-.3-.3-.3h0s0,0-.3,0c0,0,0,0-.1,0,0,0-.1,0-.2,0s0,0-.1,0c0,0-.2,0-.3,0h0c-.1,0-.2,0-.3,0h0c-.1,0-.2,0-.3,0-.4,0-.8,0-1.3.1h0c0,0-.2,0-.2,0,0,0-.2,0-.3,0,0,0-.2,0-.3,0,0,0-.2,0-.3,0h-.1c-.6,0-1.2,0-1.9.1-.7,0-1.4,0-2.1.1-.6,0-1.3,0-1.9,0-.2,0-.5,0-.7,0-.6,0-1.2,0-1.8,0s-.7,0-1.1,0c-.2,0-.5,0-.7,0h-.2c-.7,0-1.3,0-2,0-.2,0-.3,0-.5,0-.2,0-.3,0-.5,0-.3,0-.6,0-1,0-.1,0-.2,0-.3,0-.2,0-.4,0-.6,0-.6,0-1.2,0-1.7-.1,0,0,0,0-.1,0,0,0-.1,0-.2,0h-.1c-.1,0-.2,0-.3,0,0,0,0,0,0,0h-.1c0,0-.1,0-.2,0,0,0,0,0-.1,0-.2,0-.3,0-.5,0-.3,0-.5,0-.8,0-.1,0-.2,0-.3,0-.1,0-.2,0-.3,0,0,0-.2,0-.2,0h0c0,0-.1,0-.1,0-.1,0-.2,0-.3,0-.2,0-.2,0-.2,0,0,0,0,0,0,0h0c-.1,0-.3.1-.3.3h0s-.6,4.4-.6,4.4c-.3,2.2-.4,4.4-.4,6.7v15.4c0,2.1,13.5,2.1,14,2.1s14,0,14-2.1v-15.4c0-2.2-.2-4.5-.4-6.7ZM153,44.3c-.3.6-5.3,1.5-13.4,1.5s-13.1-.9-13.4-1.5v-15.4c0-2.2.2-4.4.5-6.6l.5-4.1c.2,0,.5,0,1,0,.3,0,.5,0,.8,0,.1,0,.3,0,.4,0,.2,0,.4,0,.6,0,.1,0,.2,0,.4,0,.2,0,.5,0,.8,0,1.1,0,2.3.1,3.6.2.3,0,.6,0,1,0,.3,0,.6,0,1,0,.3,0,.7,0,1,0,.7,0,1.3,0,2,0s1.3,0,2,0c.3,0,.7,0,1,0,.3,0,.7,0,1,0,.3,0,.6,0,1,0,1.6,0,3.1-.2,4.3-.3.2,0,.3,0,.5,0,1.3-.1,2.2-.2,2.7-.2l.6,4.1c.3,2.2.4,4.4.4,6.6v15.4Z"/>
            <path class="cls-3" d="M153,28.9v15.4c-.3.6-5.3,1.5-13.4,1.5s-13.1-.9-13.4-1.5v-15.4c0-2.2.2-4.4.4-6.6l.6-4.1c.2,0,.5,0,1,0,.3,0,.5,0,.8,0,.1,0,.3,0,.4,0,.2,0,.4,0,.6,0,.1,0,.2,0,.4,0,.2,0,.5,0,.8,0,1.1,0,2.3.1,3.6.2.3,0,.6,0,1,0,.3,0,.6,0,1,0,.3,0,.7,0,1,0,.7,0,1.3,0,2,0s1.3,0,2,0c.3,0,.7,0,1,0,.3,0,.7,0,1,0,.3,0,.6,0,1,0,1.6,0,3.1-.2,4.3-.3.2,0,.3,0,.5,0,1.3-.1,2.2-.2,2.7-.2l.6,4.1c.3,2.2.4,4.4.4,6.6Z"/>
          </g>
          <g>
            <path class="cls-3" d="M154.3,29.9v15.7c-.3.7-5.7,1.6-14.7,1.6s-14.3-1-14.7-1.6v-15.9c0-2.7.2-5.5.5-8.2l.9-5.4.2,1.7h0s-.6,4.4-.6,4.4c-.3,2.2-.4,4.4-.4,6.7v15.4c0,2.1,13.5,2.1,14,2.1s14,0,14-2.1v-15.4c0-2.2-.2-4.5-.4-6.7l-.6-4.4.2-1.7.8,5.1c.4,2.8.6,5.7.6,8.6Z"/>
            <path d="M155,29.9v15.7c0,2.3-14.7,2.3-15.3,2.3s-15.4,0-15.4-2.3v-15.9c0-2.7.2-5.5.6-8.3l1.3-7.8.7.2h0c0,0-.2,1.2-.2,1.2l-.2,1.1-.9,5.4c-.4,2.7-.5,5.4-.5,8.2v15.9c.3.6,5.7,1.6,14.7,1.6s14.3-1,14.7-1.6v-15.7c0-2.9-.2-5.7-.6-8.6l-.8-5.1-.2-1.1-.2-1.1h0c0,0,.6-.3.6-.3l1.2,7.5c.4,2.9.6,5.8.6,8.7Z"/>
          </g>
          <path class="cls-2" d="M123,38.9h-2.6v-6.2c-.2-9.1,1.7-16.8,1.8-17.1l2.5.6c0,0-1.9,7.7-1.7,16.5v6.2Z"/>
          <path class="cls-2" d="M156.3,38.9h2.6v-6.2c.2-9.1-1.7-16.8-1.8-17.1l-2.5.6c0,0,1.9,7.7,1.7,16.5v6.2Z"/>
          <path class="cls-3" d="M152.3,4.5l-1.7,13.2c-.4,0-.8,0-1.3.1h0c0,0-.1,0-.2,0,0,0-.2,0-.3,0,0,0-.2,0-.3,0,0,0-.2,0-.3,0h-.1c-.6,0-1.2,0-1.9.1-.7,0-1.4,0-2.1.1-.6,0-1.3,0-1.9,0-.2,0-.5,0-.7,0-.6,0-1.2,0-1.8,0s-.7,0-1.1,0c-.2,0-.5,0-.7,0h-.2c-.7,0-1.3,0-2,0-.2,0-.3,0-.5,0-.2,0-.3,0-.5,0-.3,0-.6,0-1,0-.1,0-.2,0-.3,0-.2,0-.4,0-.6,0-.6,0-1.2,0-1.7-.1,0,0,0,0-.1,0,0,0,0,0-.1,0h-.2c-.1,0-.2,0-.3,0,0,0,0,0,0,0h-.1c0,0-.1,0-.2,0,0,0,0,0-.1,0-.2,0-.3,0-.5,0-.3,0-.5,0-.8,0v-1c-.1,0-1.7-12.2-1.7-12.2,2.3-.4,7.4-1.2,12.2-1.3h.5c4.9,0,10.3.8,12.7,1.3Z"/>
          <circle cx="131.3" cy="40.9" r=".7"/>
          <path d="M131.3,23.2c-.4,0-.7.3-.7.7s.3.7.7.7.7-.3.7-.7-.3-.7-.7-.7Z"/>
          <circle cx="148.7" cy="40.9" r=".7"/>
          <path d="M148.7,23.2c-.4,0-.7.3-.7.7s.3.7.7.7.7-.3.7-.7-.3-.7-.7-.7Z"/>
        </g>
        <g>
          <path d="M153.1,160.2l-1.6-13.1h0l1.7,13.1ZM124.8,161.3h.3c0,0,.1,0,.4.1,1.6.3,8.1,1.5,13.9,1.5h.3c6,0,12.6-1.2,14.2-1.5.2,0,.4,0,.4,0h.3v-.6s-1.3-10.2-1.3-10.2h0s-.3-2.5-.3-2.5l-.2-1.7h0s0-.3,0-.3h-.2s-.1,0-.3,0c-.2,0-.5,0-1,0-.3,0-.5,0-.8,0-.1,0-.3,0-.4,0-.2,0-.4,0-.6,0-.1,0-.2,0-.4,0-.2,0-.5,0-.8,0-1.1,0-2.3-.1-3.6-.2-.3,0-.6,0-1,0-.3,0-.6,0-1,0-.3,0-.7,0-1,0-.7,0-1.3,0-2,0s-1.3,0-2,0c-.3,0-.7,0-1,0-.3,0-.7,0-1,0-.3,0-.6,0-1,0-1.6,0-3.1.2-4.3.3-.2,0-.3,0-.5,0-1.3.1-2.2.2-2.7.2-.2,0-.3,0-.3,0h-.3s0,.3,0,.3l-.2,1.7-.3,2.4h0s-1.3,10.3-1.3,10.3v.3s0,.3,0,.3ZM126.8,150.2l.4-3.6s0,0,.1,0c0,0,.1,0,.2,0s0,0,.1,0c0,0,.2,0,.3,0h0s-1.8,13.7-1.8,13.7h.3c2.2.4,8,1.4,13.1,1.4h.5c5,0,10.5-1,12.6-1.3h.3c0,0-1.6-13.2-1.6-13.2h-.4s0,0,0,0h-.3s0,.3,0,.3l1.5,12.2c-2.3.4-7.4,1.2-12.2,1.3h-.5c-4.9,0-10.3-.8-12.7-1.3l1.7-13.2c.4,0,.8,0,1.3-.1h0c0,0,.1,0,.2,0,0,0,.2,0,.3,0,0,0,.2,0,.3,0,0,0,.2,0,.2,0h.2c.6,0,1.2,0,1.9-.1.7,0,1.4,0,2.1-.1.6,0,1.3,0,1.9,0,.2,0,.5,0,.7,0,.6,0,1.2,0,1.8,0s.7,0,1.1,0c.2,0,.5,0,.7,0h.2c.7,0,1.3,0,2,0,.2,0,.3,0,.5,0,.2,0,.3,0,.5,0,.3,0,.6,0,1,0,.1,0,.2,0,.3,0,.2,0,.4,0,.6,0h.1c.3,0,.5,0,.8,0,.3,0,.5,0,.8,0,0,0,0,0,.1,0,0,0,0,0,.1,0h.2c.1,0,.2,0,.3,0,0,0,0,0,0,0h.1c0,0,.1,0,.2,0,0,0,0,0,.1,0,.2,0,.3,0,.5,0,.3,0,.5,0,.8,0,.1,0,.2,0,.3,0,.1,0,.2,0,.3,0,0,0,.2,0,.2,0h0c0,0,.1,0,.1,0,.1,0,.2,0,.3,0l.5,3.7h0c0,0,1.3,10.4,1.3,10.4-1.4.3-7.9,1.5-13.9,1.5h-.3c-6,0-12.7-1.2-14.2-1.5l1.3-10.5h0ZM153.1,160.2l-1.6-13.1h0l1.7,13.1ZM153.1,160.2l-1.6-13.1h0l1.7,13.1Z"/>
          <path class="cls-3" d="M139.6,162.6h0c6.9,0,14.5-1.6,14.5-1.6l-1.8-14.7s-.5,0-1.3-.1c0,0,0,.1,0,.2l1.7,13.6c-2.3.4-7.6,1.3-12.6,1.3h-.5c-5.1,0-10.7-.9-13.1-1.3l1.7-13.6c0,0,0-.1,0-.2-.8,0-1.3.1-1.3.1l-1.8,14.7s7.6,1.6,14.5,1.6Z"/>
          <g>
            <path class="cls-3" d="M125.4,162v-.6c1.6.3,8.1,1.5,13.9,1.5h.3c6,0,12.6-1.2,14.2-1.5v.6c-1.5.3-8.2,1.5-14.2,1.5s-12.7-1.3-14.2-1.6Z"/>
            <path d="M124.8,162.5h.3c0,0,8.9,1.7,14.6,1.7s13.8-1.4,14.6-1.6h.3c0,0,0-1.3,0-1.3h0v-.6s-1.3-10.2-1.3-10.2h0s-.3-2.5-.3-2.5l-.2-1.7h0s0-.3,0-.3h-.2s-.1,0-.3,0c-.2,0-.5,0-1,0-.3,0-.5,0-.8,0-.1,0-.3,0-.4,0-.2,0-.4,0-.6,0-.1,0-.2,0-.4,0-.2,0-.5,0-.8,0-1.1,0-2.3-.1-3.6-.2-.3,0-.6,0-1,0-.3,0-.6,0-1,0-.3,0-.7,0-1,0-.7,0-1.3,0-2,0s-1.3,0-2,0c-.3,0-.7,0-1,0-.3,0-.7,0-1,0-.3,0-.6,0-1,0-1.6,0-3.1.2-4.3.3-.2,0-.3,0-.5,0-1.3.1-2.2.2-2.7.2-.2,0-.3,0-.3,0h-.3s0,.3,0,.3l-.2,1.7-.3,2.4h0s-1.3,10.3-1.3,10.3v.3s0,0,0,0h0v1.5ZM153.8,161.4v.6c-1.5.3-8.2,1.5-14.2,1.5s-12.7-1.3-14.2-1.6v-.6c1.6.3,8.1,1.5,13.9,1.5h.3c6,0,12.6-1.2,14.2-1.5,0,0,0,0,0,0ZM129.9,146.3h0c0,0,.1,0,.2,0,0,0,.2,0,.3,0,0,0,.2,0,.3,0h.2s.2,0,.2,0c.6,0,1.2,0,1.9-.1.7,0,1.4,0,2.1-.1.6,0,1.3,0,1.9,0,.2,0,.5,0,.7,0,.6,0,1.2,0,1.8,0s.7,0,1.1,0c.2,0,.5,0,.7,0h.2c.7,0,1.3,0,2,0,.2,0,.3,0,.5,0,.2,0,.3,0,.5,0,.3,0,.6,0,1,0,.1,0,.2,0,.3,0,.2,0,.4,0,.6,0h.1c.3,0,.5,0,.8,0,.3,0,.5,0,.8,0,0,0,0,0,.1,0,0,0,0,0,.1,0h.2c.1,0,.2,0,.3,0,0,0,.1,0,.2,0,0,0,.1,0,.2,0,0,0,0,0,.1,0,.2,0,.3,0,.5,0,.3,0,.5,0,.8,0v1c.1,0,1.7,12.2,1.7,12.2-2.3.4-7.4,1.2-12.2,1.3h-.5c-4.9,0-10.3-.8-12.7-1.3l1.7-13.2c.4,0,.8,0,1.3-.1ZM126.8,150.2h0c0,0,.4-3.7.4-3.7,0,0,0,0,.1,0,0,0,.1,0,.2,0s0,0,.1,0c0,0,.2,0,.3,0h0s-1.8,13.7-1.8,13.7h.3c2.2.4,8,1.4,13.1,1.4h.5c5,0,10.5-1,12.6-1.3h.3c0,0-1.7-13.2-1.7-13.2v-.6s0,0,.2,0h0c0,0,.1,0,.1,0,.1,0,.2,0,.3,0l.5,3.7h0c0,0,1.3,10.4,1.3,10.4-1.4.3-7.9,1.5-13.9,1.5h-.3c-6,0-12.7-1.2-14.2-1.5l1.3-10.5Z"/>
          </g>
          <g>
            <path class="cls-3" d="M126.3,141.8l.6,4.1v.3s2.6-.3,6.1-.5c1,0,2.1-.1,3.2-.2,1.1,0,2.3,0,3.4,0,6,0,12.7.7,12.7.7v-.3s.6-4.1.6-4.1c.3-2.2.4-4.4.4-6.6v-15.4c0-.5-1.5-.9-4-1.3-2.5-.3-5.9-.5-9.7-.5-7.6,0-13.7.8-13.7,1.8v15.4c0,2.2.2,4.4.4,6.6ZM126.2,119.9c.3-.6,5.3-1.5,13.4-1.5s13.1.9,13.4,1.5v15.4c0,2.2-.2,4.4-.4,6.6l-.6,4.1c-.2,0-.5,0-1,0-.3,0-.5,0-.8,0-.1,0-.3,0-.4,0-.2,0-.4,0-.6,0-.1,0-.2,0-.4,0-.2,0-.5,0-.8,0-1.1,0-2.3-.1-3.6-.2-.3,0-.6,0-1,0-.3,0-.6,0-1,0-.3,0-.7,0-1,0-.7,0-1.3,0-2,0s-1.3,0-2,0c-.3,0-.7,0-1,0-.3,0-.7,0-1,0-.3,0-.6,0-1,0-1.6,0-3.1.2-4.3.3-.2,0-.3,0-.5,0-1.3.1-2.2.2-2.7.2l-.6-4.1c-.3-2.2-.4-4.4-.4-6.6v-15.4Z"/>
            <path d="M126,141.9l.6,4.4h0c0,.2.1.3.3.3h0s0,0,.3,0c0,0,0,0,.1,0,0,0,.1,0,.2,0s0,0,.1,0c0,0,.2,0,.3,0h0c.1,0,.2,0,.3,0h0c.1,0,.2,0,.3,0,.4,0,.8,0,1.3-.1h0c0,0,.2,0,.2,0,0,0,.2,0,.3,0,0,0,.2,0,.3,0,0,0,.2,0,.3,0h.1c.6,0,1.2,0,1.9-.1.7,0,1.4,0,2.1-.1.6,0,1.3,0,1.9,0,.2,0,.5,0,.7,0,.6,0,1.2,0,1.8,0s.7,0,1.1,0c.2,0,.5,0,.7,0h.2c.7,0,1.3,0,2,0,.2,0,.3,0,.5,0,.2,0,.3,0,.5,0,.3,0,.6,0,1,0,.1,0,.2,0,.3,0,.2,0,.4,0,.6,0,.6,0,1.2,0,1.7.1,0,0,0,0,.1,0,0,0,.1,0,.2,0h.1c.1,0,.2,0,.3,0,0,0,0,0,0,0h.1c0,0,.1,0,.2,0,0,0,0,0,.1,0,.2,0,.3,0,.5,0,.3,0,.5,0,.8,0,.1,0,.2,0,.3,0,.1,0,.2,0,.3,0,0,0,.2,0,.2,0h0c0,0,.1,0,.1,0,.1,0,.2,0,.3,0,.2,0,.2,0,.2,0,0,0,0,0,0,0h0c.1,0,.3-.1.3-.3h0s.6-4.4.6-4.4c.3-2.2.4-4.4.4-6.7v-15.4c0-2.1-13.5-2.1-14-2.1s-14,0-14,2.1v15.4c0,2.2.2,4.5.4,6.7ZM126.2,119.9c.3-.6,5.3-1.5,13.4-1.5s13.1.9,13.4,1.5v15.4c0,2.2-.2,4.4-.5,6.6l-.5,4.1c-.2,0-.5,0-1,0-.3,0-.5,0-.8,0-.1,0-.3,0-.4,0-.2,0-.4,0-.6,0-.1,0-.2,0-.4,0-.2,0-.5,0-.8,0-1.1,0-2.3-.1-3.6-.2-.3,0-.6,0-1,0-.3,0-.6,0-1,0-.3,0-.7,0-1,0-.7,0-1.3,0-2,0s-1.3,0-2,0c-.3,0-.7,0-1,0-.3,0-.7,0-1,0-.3,0-.6,0-1,0-1.6,0-3.1.2-4.3.3-.2,0-.3,0-.5,0-1.3.1-2.2.2-2.7.2l-.6-4.1c-.3-2.2-.4-4.4-.4-6.6v-15.4Z"/>
            <path class="cls-3" d="M126.2,135.2v-15.4c.3-.6,5.3-1.5,13.4-1.5s13.1.9,13.4,1.5v15.4c0,2.2-.2,4.4-.4,6.6l-.6,4.1c-.2,0-.5,0-1,0-.3,0-.5,0-.8,0-.1,0-.3,0-.4,0-.2,0-.4,0-.6,0-.1,0-.2,0-.4,0-.2,0-.5,0-.8,0-1.1,0-2.3-.1-3.6-.2-.3,0-.6,0-1,0-.3,0-.6,0-1,0-.3,0-.7,0-1,0-.7,0-1.3,0-2,0s-1.3,0-2,0c-.3,0-.7,0-1,0-.3,0-.7,0-1,0-.3,0-.6,0-1,0-1.6,0-3.1.2-4.3.3-.2,0-.3,0-.5,0-1.3.1-2.2.2-2.7.2l-.6-4.1c-.3-2.2-.4-4.4-.4-6.6Z"/>
          </g>
          <g>
            <path class="cls-3" d="M125,134.3v-15.7c.3-.7,5.7-1.6,14.7-1.6s14.3,1,14.7,1.6v15.9c0,2.7-.2,5.5-.5,8.2l-.9,5.4-.2-1.7h0s.6-4.4.6-4.4c.3-2.2.4-4.4.4-6.7v-15.4c0-2.1-13.5-2.1-14-2.1s-14,0-14,2.1v15.4c0,2.2.2,4.5.4,6.7l.6,4.4-.2,1.7-.8-5.1c-.4-2.8-.6-5.7-.6-8.6Z"/>
            <path d="M124.3,134.3v-15.7c0-2.3,14.7-2.3,15.3-2.3s15.4,0,15.4,2.3v15.9c0,2.7-.2,5.5-.6,8.3l-1.3,7.8-.7-.2h0c0,0,.2-1.2.2-1.2l.2-1.1.9-5.4c.4-2.7.5-5.4.5-8.2v-15.9c-.3-.6-5.7-1.6-14.7-1.6s-14.3,1-14.7,1.6v15.7c0,2.9.2,5.7.6,8.6l.8,5.1.2,1.1.2,1.1h0c0,0-.6.3-.6.3l-1.2-7.5c-.4-2.9-.6-5.8-.6-8.7Z"/>
          </g>
          <path class="cls-2" d="M156.3,125.3h2.6v6.2c.2,9.1-1.7,16.8-1.8,17.1l-2.5-.6c0,0,1.9-7.7,1.7-16.5v-6.2Z"/>
          <path class="cls-2" d="M123,125.3h-2.6v6.2c-.2,9.1,1.7,16.8,1.8,17.1l2.5-.6c0,0-1.9-7.7-1.7-16.5v-6.2Z"/>
          <path class="cls-3" d="M126.9,159.7l1.7-13.2c.4,0,.8,0,1.3-.1h0c0,0,.1,0,.2,0,0,0,.2,0,.3,0,0,0,.2,0,.3,0,0,0,.2,0,.3,0h.1c.6,0,1.2,0,1.9-.1.7,0,1.4,0,2.1-.1.6,0,1.3,0,1.9,0,.2,0,.5,0,.7,0,.6,0,1.2,0,1.8,0s.7,0,1.1,0c.2,0,.5,0,.7,0h.2c.7,0,1.3,0,2,0,.2,0,.3,0,.5,0,.2,0,.3,0,.5,0,.3,0,.6,0,1,0,.1,0,.2,0,.3,0,.2,0,.4,0,.6,0,.6,0,1.2,0,1.7.1,0,0,0,0,.1,0,0,0,0,0,.1,0h.2c.1,0,.2,0,.3,0,0,0,0,0,0,0h.1c0,0,.1,0,.2,0,0,0,0,0,.1,0,.2,0,.3,0,.5,0,.3,0,.5,0,.8,0v1c.1,0,1.7,12.2,1.7,12.2-2.3.4-7.4,1.2-12.2,1.3h-.5c-4.9,0-10.3-.8-12.7-1.3Z"/>
          <path d="M147.9,124c.4,0,.7-.3.7-.7s-.3-.7-.7-.7-.7.3-.7.7.3.7.7.7Z"/>
          <path d="M147.9,140.9c.4,0,.7-.3.7-.7s-.3-.7-.7-.7-.7.3-.7.7.3.7.7.7Z"/>
          <path d="M130.6,124c.4,0,.7-.3.7-.7s-.3-.7-.7-.7-.7.3-.7.7.3.7.7.7Z"/>
          <path d="M130.6,140.9c.4,0,.7-.3.7-.7s-.3-.7-.7-.7-.7.3-.7.7.3.7.7.7Z"/>
        </g>
        <g>
          <path d="M94.3,160.2l-1.6-13.1h0l1.7,13.1ZM66.1,161.3h.3c0,0,.1,0,.4.1,1.6.3,8.1,1.5,13.9,1.5h.3c6,0,12.6-1.2,14.2-1.5.2,0,.4,0,.4,0h.3v-.6s-1.3-10.2-1.3-10.2h0s-.3-2.5-.3-2.5l-.2-1.7h0s0-.3,0-.3h-.2s-.1,0-.3,0c-.2,0-.5,0-1,0-.3,0-.5,0-.8,0-.1,0-.3,0-.4,0-.2,0-.4,0-.6,0-.1,0-.2,0-.4,0-.2,0-.5,0-.8,0-1.1,0-2.3-.1-3.6-.2-.3,0-.6,0-1,0-.3,0-.6,0-1,0-.3,0-.7,0-1,0-.7,0-1.3,0-2,0s-1.3,0-2,0c-.3,0-.7,0-1,0-.3,0-.7,0-1,0-.3,0-.6,0-1,0-1.6,0-3.1.2-4.3.3-.2,0-.3,0-.5,0-1.3.1-2.2.2-2.7.2-.2,0-.3,0-.3,0h-.3s0,.3,0,.3l-.2,1.7-.3,2.4h0s-1.3,10.3-1.3,10.3v.3s0,.3,0,.3ZM68,150.2l.4-3.6s0,0,.1,0c0,0,.1,0,.2,0s0,0,.1,0c0,0,.2,0,.3,0h0s-1.8,13.7-1.8,13.7h.3c2.2.4,8,1.4,13.1,1.4h.5c5,0,10.5-1,12.6-1.3h.3c0,0-1.6-13.2-1.6-13.2h-.4s0,0,0,0h-.3s0,.3,0,.3l1.5,12.2c-2.3.4-7.4,1.2-12.2,1.3h-.5c-4.9,0-10.3-.8-12.7-1.3l1.7-13.2c.4,0,.8,0,1.3-.1h0c0,0,.1,0,.2,0,0,0,.2,0,.3,0,0,0,.2,0,.3,0,0,0,.2,0,.2,0h.2c.6,0,1.2,0,1.9-.1.7,0,1.4,0,2.1-.1.6,0,1.3,0,1.9,0,.2,0,.5,0,.7,0,.6,0,1.2,0,1.8,0s.7,0,1.1,0c.2,0,.5,0,.7,0h.2c.7,0,1.3,0,2,0,.2,0,.3,0,.5,0,.2,0,.3,0,.5,0,.3,0,.6,0,1,0,.1,0,.2,0,.3,0,.2,0,.4,0,.6,0h.1c.3,0,.5,0,.8,0,.3,0,.5,0,.8,0,0,0,0,0,.1,0,0,0,0,0,.1,0h.2c.1,0,.2,0,.3,0,0,0,0,0,0,0h.1c0,0,.1,0,.2,0,0,0,0,0,.1,0,.2,0,.3,0,.5,0,.3,0,.5,0,.8,0,.1,0,.2,0,.3,0,.1,0,.2,0,.3,0,0,0,.2,0,.2,0h0c0,0,.1,0,.1,0,.1,0,.2,0,.3,0l.5,3.7h0c0,0,1.3,10.4,1.3,10.4-1.4.3-7.9,1.5-13.9,1.5h-.3c-6,0-12.7-1.2-14.2-1.5l1.3-10.5h0ZM94.3,160.2l-1.6-13.1h0l1.7,13.1ZM94.3,160.2l-1.6-13.1h0l1.7,13.1Z"/>
          <path class="cls-3" d="M80.9,162.6h0c6.9,0,14.5-1.6,14.5-1.6l-1.8-14.7s-.5,0-1.3-.1c0,0,0,.1,0,.2l1.7,13.6c-2.3.4-7.6,1.3-12.6,1.3h-.5c-5.1,0-10.7-.9-13.1-1.3l1.7-13.6c0,0,0-.1,0-.2-.8,0-1.3.1-1.3.1l-1.8,14.7s7.6,1.6,14.5,1.6Z"/>
          <g>
            <path class="cls-3" d="M66.7,162v-.6c1.6.3,8.1,1.5,13.9,1.5h.3c6,0,12.6-1.2,14.2-1.5v.6c-1.5.3-8.2,1.5-14.2,1.5s-12.7-1.3-14.2-1.6Z"/>
            <path d="M66.1,162.5h.3c0,0,8.9,1.7,14.6,1.7s13.8-1.4,14.6-1.6h.3c0,0,0-1.3,0-1.3h0v-.6s-1.3-10.2-1.3-10.2h0s-.3-2.5-.3-2.5l-.2-1.7h0s0-.3,0-.3h-.2s-.1,0-.3,0c-.2,0-.5,0-1,0-.3,0-.5,0-.8,0-.1,0-.3,0-.4,0-.2,0-.4,0-.6,0-.1,0-.2,0-.4,0-.2,0-.5,0-.8,0-1.1,0-2.3-.1-3.6-.2-.3,0-.6,0-1,0-.3,0-.6,0-1,0-.3,0-.7,0-1,0-.7,0-1.3,0-2,0s-1.3,0-2,0c-.3,0-.7,0-1,0-.3,0-.7,0-1,0-.3,0-.6,0-1,0-1.6,0-3.1.2-4.3.3-.2,0-.3,0-.5,0-1.3.1-2.2.2-2.7.2-.2,0-.3,0-.3,0h-.3s0,.3,0,.3l-.2,1.7-.3,2.4h0s-1.3,10.3-1.3,10.3v.3s0,0,0,0h0v1.5ZM95.1,161.4v.6c-1.5.3-8.2,1.5-14.2,1.5s-12.7-1.3-14.2-1.6v-.6c1.6.3,8.1,1.5,13.9,1.5h.3c6,0,12.6-1.2,14.2-1.5,0,0,0,0,0,0ZM71.2,146.3h0c0,0,.1,0,.2,0,0,0,.2,0,.3,0,0,0,.2,0,.3,0,0,0,.2,0,.2,0h.2c.6,0,1.2,0,1.9-.1.7,0,1.4,0,2.1-.1.6,0,1.3,0,1.9,0,.2,0,.5,0,.7,0,.6,0,1.2,0,1.8,0s.7,0,1.1,0c.2,0,.5,0,.7,0h.2c.7,0,1.3,0,2,0,.2,0,.3,0,.5,0,.2,0,.3,0,.5,0,.3,0,.6,0,1,0,.1,0,.2,0,.3,0,.2,0,.4,0,.6,0h.1c.3,0,.5,0,.8,0,.3,0,.5,0,.8,0,0,0,0,0,.1,0,0,0,0,0,.1,0h.2c.1,0,.2,0,.3,0,0,0,.1,0,.2,0,0,0,.1,0,.2,0,0,0,0,0,.1,0,.2,0,.3,0,.5,0,.3,0,.5,0,.8,0v1c.1,0,1.7,12.2,1.7,12.2-2.3.4-7.4,1.2-12.2,1.3h-.5c-4.9,0-10.3-.8-12.7-1.3l1.7-13.2c.4,0,.8,0,1.3-.1ZM68,150.2h0c0,0,.4-3.7.4-3.7,0,0,0,0,.1,0,0,0,.1,0,.2,0s0,0,.1,0c0,0,.2,0,.3,0h0s-1.8,13.7-1.8,13.7h.3c2.2.4,8,1.4,13.1,1.4h.5c5,0,10.5-1,12.6-1.3h.3c0,0-1.7-13.2-1.7-13.2v-.6s0,0,.2,0h0c0,0,.1,0,.1,0,.1,0,.2,0,.3,0l.5,3.7h0c0,0,1.3,10.4,1.3,10.4-1.4.3-7.9,1.5-13.9,1.5h-.3c-6,0-12.7-1.2-14.2-1.5l1.3-10.5Z"/>
          </g>
          <g>
            <path class="cls-3" d="M67.6,141.8l.6,4.1v.3s2.6-.3,6.1-.5c1,0,2.1-.1,3.2-.2,1.1,0,2.3,0,3.4,0,6,0,12.7.7,12.7.7v-.3s.6-4.1.6-4.1c.3-2.2.4-4.4.4-6.6v-15.4c0-.5-1.5-.9-4-1.3-2.5-.3-5.9-.5-9.7-.5-7.6,0-13.7.8-13.7,1.8v15.4c0,2.2.2,4.4.4,6.6ZM67.5,119.9c.3-.6,5.3-1.5,13.4-1.5s13.1.9,13.4,1.5v15.4c0,2.2-.2,4.4-.4,6.6l-.6,4.1c-.2,0-.5,0-1,0-.3,0-.5,0-.8,0-.1,0-.3,0-.4,0-.2,0-.4,0-.6,0-.1,0-.2,0-.4,0-.2,0-.5,0-.8,0-1.1,0-2.3-.1-3.6-.2-.3,0-.6,0-1,0-.3,0-.6,0-1,0-.3,0-.7,0-1,0-.7,0-1.3,0-2,0s-1.3,0-2,0c-.3,0-.7,0-1,0-.3,0-.7,0-1,0-.3,0-.6,0-1,0-1.6,0-3.1.2-4.3.3-.2,0-.3,0-.5,0-1.3.1-2.2.2-2.7.2l-.6-4.1c-.3-2.2-.4-4.4-.4-6.6v-15.4Z"/>
            <path d="M67.3,141.9l.6,4.4h0c0,.2.1.3.3.3h0s0,0,.3,0c0,0,0,0,.1,0,0,0,.1,0,.2,0s0,0,.1,0c0,0,.2,0,.3,0h0c.1,0,.2,0,.3,0h0c.1,0,.2,0,.3,0,.4,0,.8,0,1.3-.1h0c0,0,.2,0,.2,0,0,0,.2,0,.3,0,0,0,.2,0,.3,0,0,0,.2,0,.3,0h.1c.6,0,1.2,0,1.9-.1.7,0,1.4,0,2.1-.1.6,0,1.3,0,1.9,0,.2,0,.5,0,.7,0,.6,0,1.2,0,1.8,0s.7,0,1.1,0c.2,0,.5,0,.7,0h.2c.7,0,1.3,0,2,0,.2,0,.3,0,.5,0,.2,0,.3,0,.5,0,.3,0,.6,0,1,0,.1,0,.2,0,.3,0,.2,0,.4,0,.6,0,.6,0,1.2,0,1.7.1,0,0,0,0,.1,0,0,0,.1,0,.2,0h.1c.1,0,.2,0,.3,0,0,0,0,0,0,0h.1c0,0,.1,0,.2,0,0,0,0,0,.1,0,.2,0,.3,0,.5,0,.3,0,.5,0,.8,0,.1,0,.2,0,.3,0,.1,0,.2,0,.3,0,0,0,.2,0,.2,0h0c0,0,.1,0,.1,0,.1,0,.2,0,.3,0,.2,0,.2,0,.2,0,0,0,0,0,0,0h0c.1,0,.3-.1.3-.3h0s.6-4.4.6-4.4c.3-2.2.4-4.4.4-6.7v-15.4c0-2.1-13.5-2.1-14-2.1s-14,0-14,2.1v15.4c0,2.2.2,4.5.4,6.7ZM67.5,119.9c.3-.6,5.3-1.5,13.4-1.5s13.1.9,13.4,1.5v15.4c0,2.2-.2,4.4-.5,6.6l-.5,4.1c-.2,0-.5,0-1,0-.3,0-.5,0-.8,0-.1,0-.3,0-.4,0-.2,0-.4,0-.6,0-.1,0-.2,0-.4,0-.2,0-.5,0-.8,0-1.1,0-2.3-.1-3.6-.2-.3,0-.6,0-1,0-.3,0-.6,0-1,0-.3,0-.7,0-1,0-.7,0-1.3,0-2,0s-1.3,0-2,0c-.3,0-.7,0-1,0-.3,0-.7,0-1,0-.3,0-.6,0-1,0-1.6,0-3.1.2-4.3.3-.2,0-.3,0-.5,0-1.3.1-2.2.2-2.7.2l-.6-4.1c-.3-2.2-.4-4.4-.4-6.6v-15.4Z"/>
            <path class="cls-3" d="M67.5,135.2v-15.4c.3-.6,5.3-1.5,13.4-1.5s13.1.9,13.4,1.5v15.4c0,2.2-.2,4.4-.4,6.6l-.6,4.1c-.2,0-.5,0-1,0-.3,0-.5,0-.8,0-.1,0-.3,0-.4,0-.2,0-.4,0-.6,0-.1,0-.2,0-.4,0-.2,0-.5,0-.8,0-1.1,0-2.3-.1-3.6-.2-.3,0-.6,0-1,0-.3,0-.6,0-1,0-.3,0-.7,0-1,0-.7,0-1.3,0-2,0s-1.3,0-2,0c-.3,0-.7,0-1,0-.3,0-.7,0-1,0-.3,0-.6,0-1,0-1.6,0-3.1.2-4.3.3-.2,0-.3,0-.5,0-1.3.1-2.2.2-2.7.2l-.6-4.1c-.3-2.2-.4-4.4-.4-6.6Z"/>
          </g>
          <g>
            <path class="cls-3" d="M66.2,134.3v-15.7c.3-.7,5.7-1.6,14.7-1.6s14.3,1,14.7,1.6v15.9c0,2.7-.2,5.5-.5,8.2l-.9,5.4-.2-1.7h0s.6-4.4.6-4.4c.3-2.2.4-4.4.4-6.7v-15.4c0-2.1-13.5-2.1-14-2.1s-14,0-14,2.1v15.4c0,2.2.2,4.5.4,6.7l.6,4.4-.2,1.7-.8-5.1c-.4-2.8-.6-5.7-.6-8.6Z"/>
            <path d="M65.5,134.3v-15.7c0-2.3,14.7-2.3,15.3-2.3s15.4,0,15.4,2.3v15.9c0,2.7-.2,5.5-.6,8.3l-1.3,7.8-.7-.2h0c0,0,.2-1.2.2-1.2l.2-1.1.9-5.4c.4-2.7.5-5.4.5-8.2v-15.9c-.3-.6-5.7-1.6-14.7-1.6s-14.3,1-14.7,1.6v15.7c0,2.9.2,5.7.6,8.6l.8,5.1.2,1.1.2,1.1h0c0,0-.6.3-.6.3l-1.2-7.5c-.4-2.9-.6-5.8-.6-8.7Z"/>
          </g>
          <path class="cls-2" d="M97.5,125.3h2.6v6.2c.2,9.1-1.7,16.8-1.8,17.1l-2.5-.6c0,0,1.9-7.7,1.7-16.5v-6.2Z"/>
          <path class="cls-2" d="M64.2,125.3h-2.6v6.2c-.2,9.1,1.7,16.8,1.8,17.1l2.5-.6c0,0-1.9-7.7-1.7-16.5v-6.2Z"/>
          <path class="cls-3" d="M68.1,159.7l1.7-13.2c.4,0,.8,0,1.3-.1h0c0,0,.1,0,.2,0,0,0,.2,0,.3,0,0,0,.2,0,.3,0,0,0,.2,0,.3,0h.1c.6,0,1.2,0,1.9-.1.7,0,1.4,0,2.1-.1.6,0,1.3,0,1.9,0,.2,0,.5,0,.7,0,.6,0,1.2,0,1.8,0s.7,0,1.1,0c.2,0,.5,0,.7,0h.2c.7,0,1.3,0,2,0,.2,0,.3,0,.5,0,.2,0,.3,0,.5,0,.3,0,.6,0,1,0,.1,0,.2,0,.3,0,.2,0,.4,0,.6,0,.6,0,1.2,0,1.7.1,0,0,0,0,.1,0,0,0,0,0,.1,0h.2c.1,0,.2,0,.3,0,0,0,0,0,0,0h.1c0,0,.1,0,.2,0,0,0,0,0,.1,0,.2,0,.3,0,.5,0,.3,0,.5,0,.8,0v1c.1,0,1.7,12.2,1.7,12.2-2.3.4-7.4,1.2-12.2,1.3h-.5c-4.9,0-10.3-.8-12.7-1.3Z"/>
          <path d="M89.1,124c.4,0,.7-.3.7-.7s-.3-.7-.7-.7-.7.3-.7.7.3.7.7.7Z"/>
          <circle cx="89.1" cy="140.2" r=".7"/>
          <path d="M71.8,124c.4,0,.7-.3.7-.7s-.3-.7-.7-.7-.7.3-.7.7.3.7.7.7Z"/>
          <circle cx="71.8" cy="140.2" r=".7"/>
        </g>
        <g>
          <path d="M217.8,68.5l-13.1,1.6h0c0,0,13.1-1.6,13.1-1.6ZM218.8,96.8v-.3c0,0,0-.1.1-.4.3-1.6,1.5-8.1,1.5-13.9v-.3c0-6-1.2-12.6-1.5-14.2,0-.2,0-.4,0-.4v-.3h-.6s-10.2,1.3-10.2,1.3h0s-2.4.3-2.4.3l-1.7.2h-.3s0,.3,0,.3c0,0,0,.1,0,.3,0,.2,0,.5,0,1,0,.3,0,.5,0,.8,0,.1,0,.3,0,.4,0,.2,0,.4,0,.6,0,.1,0,.2,0,.4,0,.2,0,.5,0,.8,0,1.1-.1,2.3-.2,3.6,0,.3,0,.6,0,1,0,.3,0,.6,0,1,0,.3,0,.7,0,1,0,.7,0,1.3,0,2s0,1.3,0,2c0,.3,0,.7,0,1,0,.3,0,.7,0,1,0,.3,0,.6,0,1,0,1.6.2,3.1.3,4.3,0,.2,0,.3,0,.5.1,1.3.2,2.2.2,2.7,0,.2,0,.3,0,.3v.3s.3,0,.3,0l1.7.2,2.4.3h0s10.3,1.3,10.3,1.3h.3s.3,0,.3,0ZM207.8,94.8l-3.6-.4s0,0,0-.1c0,0,0-.1,0-.2s0,0,0-.1c0,0,0-.2,0-.3h0l13.7,1.8v-.3c.4-2.2,1.4-8,1.4-13.1v-.5c0-5-1-10.5-1.3-12.6v-.3c0,0-13.2,1.6-13.2,1.6h0c0,0,0,.4,0,.4h0s0,.3,0,.3h.3s12.2-1.5,12.2-1.5c.4,2.3,1.2,7.4,1.3,12.2v.5c0,4.9-.8,10.3-1.3,12.7l-13.2-1.7c0-.4,0-.8-.1-1.3h0c0-.1,0-.2,0-.3,0,0,0-.2,0-.3,0,0,0-.2,0-.3v-.2s0-.2,0-.2c0-.6,0-1.2-.1-1.9,0-.7,0-1.4-.1-2.1,0-.6,0-1.3,0-1.9,0-.2,0-.5,0-.7,0-.6,0-1.2,0-1.8s0-.7,0-1.1c0-.2,0-.5,0-.7v-.2c0-.7,0-1.3,0-2,0-.2,0-.3,0-.5,0-.2,0-.3,0-.5,0-.3,0-.6,0-1,0-.1,0-.2,0-.3,0-.2,0-.4,0-.6h0c0-.4,0-.6,0-.9,0-.3,0-.5,0-.8,0,0,0,0,0-.1,0,0,0,0,0-.1v-.2c0-.1,0-.2,0-.3,0,0,0,0,0,0h0c0-.2,0-.2,0-.3,0,0,0,0,0-.1,0-.2,0-.3,0-.5,0-.3,0-.5,0-.8,0-.1,0-.2,0-.3,0-.1,0-.2,0-.3,0,0,0-.2,0-.2h0c0,0,0-.1,0-.2,0-.1,0-.2,0-.3l3.7-.5h0l10.4-1.3c.3,1.4,1.5,7.9,1.5,13.9v.3c0,6-1.2,12.7-1.5,14.2l-10.5-1.3h0ZM217.8,68.5l-13.1,1.6h0c0,0,13.1-1.6,13.1-1.6ZM217.8,68.5l-13.1,1.6h0c0,0,13.1-1.6,13.1-1.6Z"/>
          <path class="cls-3" d="M220.1,82h0c0-6.9-1.6-14.5-1.6-14.5l-14.7,1.8s0,.5-.1,1.3c0,0,.1,0,.2,0l13.6-1.7c.4,2.3,1.3,7.6,1.3,12.6v.5c0,5.1-.9,10.7-1.3,13.1l-13.6-1.7c0,0-.1,0-.2,0,0,.8.1,1.3.1,1.3l14.7,1.8s1.6-7.6,1.6-14.5Z"/>
          <g>
            <path class="cls-3" d="M219.6,96.2h-.6c.3-1.6,1.5-8.1,1.5-13.9v-.3c0-6-1.2-12.6-1.5-14.2h.6c.3,1.5,1.5,8.2,1.5,14.2s-1.3,12.7-1.6,14.2Z"/>
            <path d="M220.1,96.8v-.3c0,0,1.7-8.9,1.7-14.6s-1.4-13.8-1.6-14.6v-.3c0,0-1.3,0-1.3,0h-.6s-10.2,1.3-10.2,1.3h0s-2.4.3-2.4.3l-1.7.2h-.3s0,.3,0,.3c0,0,0,.1,0,.3,0,.2,0,.5,0,1,0,.3,0,.5,0,.8,0,.1,0,.3,0,.4,0,.2,0,.4,0,.6,0,.1,0,.2,0,.4,0,.2,0,.5,0,.8,0,1.1-.1,2.3-.2,3.6,0,.3,0,.6,0,1,0,.3,0,.6,0,1,0,.3,0,.7,0,1,0,.7,0,1.3,0,2s0,1.3,0,2c0,.3,0,.7,0,1,0,.3,0,.7,0,1,0,.3,0,.6,0,1,0,1.6.2,3.1.3,4.3,0,.2,0,.3,0,.5.1,1.3.2,2.2.2,2.7,0,.2,0,.3,0,.3v.3s.3,0,.3,0l1.7.2,2.4.3h0s10.3,1.3,10.3,1.3h.3s0,0,0,0h0s1.5,0,1.5,0ZM218.9,67.8h.6c.3,1.5,1.5,8.2,1.5,14.2s-1.3,12.7-1.6,14.2h-.6c.3-1.6,1.5-8.1,1.5-13.9v-.3c0-6-1.2-12.6-1.5-14.2,0,0,0,0,0,0ZM203.9,91.7h0c0-.1,0-.2,0-.3,0,0,0-.2,0-.3,0,0,0-.2,0-.3,0,0,0-.2,0-.2v-.2c0-.6,0-1.2-.1-1.9,0-.7,0-1.4-.1-2.1,0-.6,0-1.3,0-1.9,0-.2,0-.5,0-.7,0-.6,0-1.2,0-1.8s0-.7,0-1.1c0-.2,0-.5,0-.7v-.2c0-.7,0-1.3,0-2,0-.2,0-.3,0-.5,0-.2,0-.3,0-.5,0-.3,0-.6,0-1,0-.1,0-.2,0-.3,0-.2,0-.4,0-.6h0c0-.4,0-.6,0-.9,0-.3,0-.5,0-.8,0,0,0,0,0-.1,0,0,0,0,0-.1v-.2c0-.1,0-.2,0-.3,0,0,0-.1,0-.2,0,0,0-.1,0-.2,0,0,0,0,0-.1,0-.2,0-.3,0-.5,0-.3,0-.5,0-.8h1c0-.1,12.2-1.7,12.2-1.7.4,2.3,1.2,7.4,1.3,12.2v.5c0,4.9-.8,10.3-1.3,12.7l-13.2-1.7c0-.4,0-.8-.1-1.3ZM207.8,94.8h0s-3.6-.5-3.6-.5c0,0,0,0,0-.1,0,0,0-.1,0-.2s0,0,0-.1c0,0,0-.2,0-.3h0l13.7,1.8v-.3c.4-2.2,1.4-8,1.4-13.1v-.5c0-5-1-10.5-1.3-12.6v-.3c0,0-13.2,1.7-13.2,1.7h-.6s0,0,0-.2h0c0,0,0-.1,0-.2,0-.1,0-.2,0-.3l3.7-.5h0l10.4-1.3c.3,1.4,1.5,7.9,1.5,13.9v.3c0,6-1.2,12.7-1.5,14.2l-10.5-1.3Z"/>
          </g>
          <g>
            <path class="cls-3" d="M199.4,95.3l4.1-.6h.3s-.3-2.6-.5-6.1c0-1-.1-2.1-.2-3.2,0-1.1,0-2.3,0-3.4,0-6,.7-12.7.7-12.7h-.3s-4.1-.6-4.1-.6c-2.2-.3-4.4-.4-6.6-.4h-15.4c-.5,0-.9,1.5-1.3,4-.3,2.5-.5,5.9-.5,9.7,0,7.6.8,13.7,1.8,13.7h15.4c2.2,0,4.4-.2,6.6-.4ZM177.4,95.4c-.6-.3-1.5-5.3-1.5-13.4s.9-13.1,1.5-13.4h15.4c2.2,0,4.4.2,6.6.4l4.1.6c0,.2,0,.5,0,1,0,.3,0,.5,0,.8,0,.1,0,.3,0,.4,0,.2,0,.4,0,.6,0,.1,0,.2,0,.4,0,.2,0,.5,0,.8,0,1.1-.1,2.3-.2,3.6,0,.3,0,.6,0,1,0,.3,0,.6,0,1,0,.3,0,.7,0,1,0,.7,0,1.3,0,2s0,1.3,0,2c0,.3,0,.7,0,1,0,.3,0,.7,0,1,0,.3,0,.6,0,1,0,1.6.2,3.1.3,4.3,0,.2,0,.3,0,.5.1,1.3.2,2.2.2,2.7l-4.1.6c-2.2.3-4.4.4-6.6.4h-15.4Z"/>
            <path d="M199.5,95.6l4.4-.6h0c.1,0,.3-.2.3-.3h0c0,0,0-.2,0-.3,0,0,0,0,0-.1,0,0,0-.1,0-.2s0,0,0-.1c0,0,0-.2,0-.3h0c0-.1,0-.2,0-.3h0c0-.1,0-.2,0-.3,0-.4,0-.8-.1-1.3h0c0-.1,0-.2,0-.3,0,0,0-.2,0-.3,0,0,0-.2,0-.3,0,0,0-.2,0-.3h0c0-.7,0-1.4-.1-2.1,0-.7,0-1.4-.1-2.1,0-.6,0-1.3,0-1.9,0-.2,0-.5,0-.7,0-.6,0-1.2,0-1.8s0-.7,0-1.1c0-.2,0-.5,0-.7v-.2c0-.7,0-1.3,0-2,0-.2,0-.3,0-.5,0-.2,0-.3,0-.5,0-.3,0-.6,0-1,0-.1,0-.2,0-.3,0-.2,0-.4,0-.6,0-.6,0-1.2.1-1.7,0,0,0,0,0-.1,0,0,0-.1,0-.2h0c0-.3,0-.4,0-.5,0,0,0,0,0,0h0c0-.2,0-.2,0-.3,0,0,0,0,0-.1,0-.2,0-.3,0-.5,0-.3,0-.5,0-.8,0-.1,0-.2,0-.3,0-.1,0-.2,0-.3,0,0,0-.2,0-.2h0c0,0,0-.1,0-.2,0-.1,0-.2,0-.3,0-.2,0-.2,0-.2,0,0,0,0,0,0h0c0-.1-.1-.3-.3-.3h0l-4.4-.6c-2.2-.3-4.4-.4-6.7-.4h-15.4c-2.1,0-2.1,13.5-2.1,14s0,14,2.1,14h15.4c2.2,0,4.5-.2,6.7-.4ZM177.4,95.4c-.6-.3-1.5-5.3-1.5-13.4s.9-13.1,1.5-13.4h15.4c2.2,0,4.4.2,6.6.5l4.1.5c0,.2,0,.5,0,1,0,.3,0,.5,0,.8,0,.1,0,.3,0,.4,0,.2,0,.4,0,.6,0,.1,0,.2,0,.4,0,.2,0,.5,0,.8,0,1.1-.1,2.3-.2,3.6,0,.3,0,.6,0,1,0,.3,0,.6,0,1,0,.3,0,.7,0,1,0,.7,0,1.3,0,2s0,1.3,0,2c0,.3,0,.7,0,1,0,.3,0,.7,0,1,0,.3,0,.6,0,1,0,1.6.2,3.1.3,4.3,0,.2,0,.3,0,.5.1,1.3.2,2.2.2,2.7l-4.1.6c-2.2.3-4.4.4-6.6.4h-15.4Z"/>
            <path class="cls-3" d="M192.8,95.4h-15.4c-.6-.3-1.5-5.3-1.5-13.4s.9-13.1,1.5-13.4h15.4c2.2,0,4.4.2,6.6.4l4.1.6c0,.2,0,.5,0,1,0,.3,0,.5,0,.8,0,.1,0,.3,0,.4,0,.2,0,.4,0,.6,0,.1,0,.2,0,.4,0,.2,0,.5,0,.8,0,1.1-.1,2.3-.2,3.6,0,.3,0,.6,0,1,0,.3,0,.6,0,1,0,.3,0,.7,0,1,0,.7,0,1.3,0,2s0,1.3,0,2c0,.3,0,.7,0,1,0,.3,0,.7,0,1,0,.3,0,.6,0,1,0,1.6.2,3.1.3,4.3,0,.2,0,.3,0,.5.1,1.3.2,2.2.2,2.7l-4.1.6c-2.2.3-4.4.4-6.6.4Z"/>
          </g>
          <g>
            <path class="cls-3" d="M191.9,96.6h-15.7c-.7-.3-1.6-5.7-1.6-14.7s1-14.3,1.6-14.7h15.9c2.7,0,5.5.2,8.2.5l5.4.9-1.7.2h0l-4.4-.6c-2.2-.3-4.4-.4-6.7-.4h-15.4c-2.1,0-2.1,13.5-2.1,14s0,14,2.1,14h15.4c2.2,0,4.5-.2,6.7-.4l4.4-.6,1.7.2-5.1.8c-2.8.4-5.7.6-8.6.6Z"/>
            <path d="M191.9,97.3h-15.7c-2.3,0-2.3-14.7-2.3-15.3s0-15.4,2.3-15.4h15.9c2.7,0,5.5.2,8.3.6l7.8,1.3-.2.7h0l-1.1-.2-1.1-.2-5.4-.9c-2.7-.4-5.4-.5-8.2-.5h-15.9c-.6.3-1.6,5.7-1.6,14.7s1,14.3,1.6,14.7h15.7c2.9,0,5.7-.2,8.6-.6l5.1-.8,1.1-.2,1.1-.2h0s.2.7.2.7l-7.5,1.2c-2.9.4-5.8.6-8.7.6Z"/>
          </g>
          <path class="cls-2" d="M182.8,65.3v-2.6h6.2c9.1-.2,16.8,1.7,17.1,1.8l-.6,2.5c0,0-7.7-1.9-16.5-1.7h-6.2Z"/>
          <path class="cls-2" d="M182.8,98.6v2.6h6.2c9.1.2,16.8-1.7,17.1-1.8l-.6-2.5c0,0-7.7,1.9-16.5,1.7h-6.2Z"/>
          <path class="cls-3" d="M217.3,94.7l-13.2-1.7c0-.4,0-.8-.1-1.3h0c0-.1,0-.2,0-.3,0,0,0-.2,0-.3,0,0,0-.2,0-.3,0,0,0-.2,0-.3h0c0-.7,0-1.4-.1-2.1,0-.7,0-1.4-.1-2.1,0-.6,0-1.3,0-1.9,0-.2,0-.5,0-.7,0-.6,0-1.2,0-1.8s0-.7,0-1.1c0-.2,0-.5,0-.7v-.2c0-.7,0-1.3,0-2,0-.2,0-.3,0-.5,0-.2,0-.3,0-.5,0-.3,0-.6,0-1,0-.1,0-.2,0-.3,0-.2,0-.4,0-.6,0-.6,0-1.2.1-1.7,0,0,0,0,0-.1,0,0,0,0,0-.1v-.2c0-.1,0-.2,0-.3,0,0,0,0,0,0h0c0-.2,0-.2,0-.3,0,0,0,0,0-.1,0-.2,0-.3,0-.5,0-.3,0-.5,0-.8h1c0-.1,12.2-1.7,12.2-1.7.4,2.3,1.2,7.4,1.3,12.2v.5c0,4.9-.8,10.3-1.3,12.7Z"/>
          <path d="M181.6,73.7c0-.4-.3-.7-.7-.7s-.7.3-.7.7.3.7.7.7.7-.3.7-.7Z"/>
          <circle cx="197.8" cy="73.7" r=".7"/>
          <path d="M181.6,91c0-.4-.3-.7-.7-.7s-.7.3-.7.7.3.7.7.7.7-.3.7-.7Z"/>
          <path d="M198.5,91c0-.4-.3-.7-.7-.7s-.7.3-.7.7.3.7.7.7.7-.3.7-.7Z"/>
        </g>
        <g>
          <path d="M4,95.4l13.1-1.6h0c0,0-13.1,1.6-13.1,1.6ZM2.9,67.2v.3c0,0,0,.1-.1.4-.3,1.6-1.5,8.1-1.5,13.9v.3c0,6,1.2,12.6,1.5,14.2,0,.2,0,.4,0,.4v.3h.6s10.2-1.3,10.2-1.3h0s2.4-.3,2.4-.3l1.7-.2h.3s0-.3,0-.3c0,0,0-.1,0-.3,0-.2,0-.5,0-1,0-.3,0-.5,0-.8,0-.1,0-.3,0-.4,0-.2,0-.4,0-.6,0-.1,0-.2,0-.4,0-.2,0-.5,0-.8,0-1.1.1-2.3.2-3.6,0-.3,0-.6,0-1,0-.3,0-.6,0-1,0-.3,0-.7,0-1,0-.7,0-1.3,0-2s0-1.3,0-2c0-.3,0-.7,0-1,0-.3,0-.7,0-1,0-.3,0-.6,0-1,0-1.6-.2-3.1-.3-4.3,0-.2,0-.3,0-.5-.1-1.3-.2-2.2-.2-2.7,0-.2,0-.3,0-.3v-.3s-.3,0-.3,0l-1.7-.2-2.4-.3h0s-10.3-1.3-10.3-1.3h-.3s-.3,0-.3,0ZM14,69.1l3.6.4s0,0,0,.1c0,0,0,.1,0,.2s0,0,0,.1c0,0,0,.2,0,.3h0l-13.7-1.8v.3c-.4,2.2-1.4,8-1.4,13.1v.5c0,5,1,10.5,1.3,12.6v.3c0,0,13.2-1.6,13.2-1.6h0c0,0,0-.4,0-.4h0s0-.3,0-.3h-.3s-12.2,1.5-12.2,1.5c-.4-2.3-1.2-7.4-1.3-12.2v-.5c0-4.9.8-10.3,1.3-12.7l13.2,1.7c0,.4,0,.8.1,1.3h0c0,.1,0,.2,0,.3,0,0,0,.2,0,.3,0,0,0,.2,0,.3,0,0,0,.2,0,.2v.2c0,.6,0,1.2.1,1.9,0,.7,0,1.4.1,2.1,0,.6,0,1.3,0,1.9,0,.2,0,.5,0,.7,0,.6,0,1.2,0,1.8s0,.7,0,1.1c0,.2,0,.5,0,.7v.2c0,.7,0,1.3,0,2,0,.2,0,.3,0,.5,0,.2,0,.3,0,.5,0,.3,0,.6,0,1,0,.1,0,.2,0,.3,0,.2,0,.4,0,.6h0c0,.4,0,.6,0,.9,0,.3,0,.5,0,.8,0,0,0,0,0,.1,0,0,0,0,0,.1v.2c0,.1,0,.2,0,.3,0,0,0,0,0,0h0c0,.2,0,.2,0,.3,0,0,0,0,0,.1,0,.2,0,.3,0,.5,0,.3,0,.5,0,.8,0,.1,0,.2,0,.3,0,.1,0,.2,0,.3,0,0,0,.2,0,.2h0c0,0,0,.1,0,.2,0,.1,0,.2,0,.3l-3.7.5h0l-10.4,1.3c-.3-1.4-1.5-7.9-1.5-13.9v-.3c0-6,1.2-12.7,1.5-14.2l10.5,1.3h0ZM4,95.4l13.1-1.6h0c0,0-13.1,1.6-13.1,1.6ZM4,95.4l13.1-1.6h0c0,0-13.1,1.6-13.1,1.6Z"/>
          <path class="cls-3" d="M1.6,82h0c0,6.9,1.6,14.5,1.6,14.5l14.7-1.8s0-.5.1-1.3c0,0-.1,0-.2,0l-13.6,1.7c-.4-2.3-1.3-7.6-1.3-12.6v-.5c0-5.1.9-10.7,1.3-13.1l13.6,1.7c0,0,.1,0,.2,0,0-.8-.1-1.3-.1-1.3l-14.7-1.8s-1.6,7.6-1.6,14.5Z"/>
          <g>
            <path class="cls-3" d="M2.2,67.8h.6c-.3,1.6-1.5,8.1-1.5,13.9v.3c0,6,1.2,12.6,1.5,14.2h-.6c-.3-1.5-1.5-8.2-1.5-14.2s1.3-12.7,1.6-14.2Z"/>
            <path d="M1.7,67.2v.3c0,0-1.7,8.9-1.7,14.6s1.4,13.8,1.6,14.6v.3c0,0,1.3,0,1.3,0h.6s10.2-1.3,10.2-1.3h0s2.4-.3,2.4-.3l1.7-.2h.3s0-.3,0-.3c0,0,0-.1,0-.3,0-.2,0-.5,0-1,0-.3,0-.5,0-.8,0-.1,0-.3,0-.4,0-.2,0-.4,0-.6,0-.1,0-.2,0-.4,0-.2,0-.5,0-.8,0-1.1.1-2.3.2-3.6,0-.3,0-.6,0-1,0-.3,0-.6,0-1,0-.3,0-.7,0-1,0-.7,0-1.3,0-2s0-1.3,0-2c0-.3,0-.7,0-1,0-.3,0-.7,0-1,0-.3,0-.6,0-1,0-1.6-.2-3.1-.3-4.3,0-.2,0-.3,0-.5-.1-1.3-.2-2.2-.2-2.7,0-.2,0-.3,0-.3v-.3s-.3,0-.3,0l-1.7-.2-2.4-.3h0s-10.3-1.3-10.3-1.3h-.3s0,0,0,0h0s-1.5,0-1.5,0ZM2.8,96.2h-.6c-.3-1.5-1.5-8.2-1.5-14.2s1.3-12.7,1.6-14.2h.6c-.3,1.6-1.5,8.1-1.5,13.9v.3c0,6,1.2,12.6,1.5,14.2,0,0,0,0,0,0ZM17.8,72.3h0c0,.1,0,.2,0,.3,0,0,0,.2,0,.3,0,0,0,.2,0,.3,0,0,0,.2,0,.2v.2c0,.6,0,1.2.1,1.9,0,.7,0,1.4.1,2.1,0,.6,0,1.3,0,1.9,0,.2,0,.5,0,.7,0,.6,0,1.2,0,1.8s0,.7,0,1.1c0,.2,0,.5,0,.7v.2c0,.7,0,1.3,0,2,0,.2,0,.3,0,.5,0,.2,0,.3,0,.5,0,.3,0,.6,0,1,0,.1,0,.2,0,.3,0,.2,0,.4,0,.6h0c0,.4,0,.6,0,.9,0,.3,0,.5,0,.8,0,0,0,0,0,.1,0,0,0,0,0,.1v.2c0,.1,0,.2,0,.3,0,0,0,.1,0,.2,0,0,0,.1,0,.2,0,0,0,0,0,.1,0,.2,0,.3,0,.5,0,.3,0,.5,0,.8h-1c0,.1-12.2,1.7-12.2,1.7-.4-2.3-1.2-7.4-1.3-12.2v-.5c0-4.9.8-10.3,1.3-12.7l13.2,1.7c0,.4,0,.8.1,1.3ZM13.9,69.1h0s3.6.5,3.6.5c0,0,0,0,0,.1,0,0,0,.1,0,.2s0,0,0,.1c0,0,0,.2,0,.3h0l-13.7-1.8v.3c-.4,2.2-1.4,8-1.4,13.1v.5c0,5,1,10.5,1.3,12.6v.3c0,0,13.2-1.7,13.2-1.7h.6s0,0,0,.2h0c0,0,0,.1,0,.2,0,.1,0,.2,0,.3l-3.7.5h0l-10.4,1.3c-.3-1.4-1.5-7.9-1.5-13.9v-.3c0-6,1.2-12.7,1.5-14.2l10.5,1.3Z"/>
          </g>
          <g>
            <path class="cls-3" d="M22.3,68.7l-4.1.6h-.3s.3,2.6.5,6.1c0,1,.1,2.1.2,3.2,0,1.1,0,2.3,0,3.4,0,6-.7,12.7-.7,12.7h.3s4.1.6,4.1.6c2.2.3,4.4.4,6.6.4h15.4c.5,0,.9-1.5,1.3-4,.3-2.5.5-5.9.5-9.7,0-7.6-.8-13.7-1.8-13.7h-15.4c-2.2,0-4.4.2-6.6.4ZM44.3,68.6c.6.3,1.5,5.3,1.5,13.4s-.9,13.1-1.5,13.4h-15.4c-2.2,0-4.4-.2-6.6-.4l-4.1-.6c0-.2,0-.5,0-1,0-.3,0-.5,0-.8,0-.1,0-.3,0-.4,0-.2,0-.4,0-.6,0-.1,0-.2,0-.4,0-.2,0-.5,0-.8,0-1.1.1-2.3.2-3.6,0-.3,0-.6,0-1,0-.3,0-.6,0-1,0-.3,0-.7,0-1,0-.7,0-1.3,0-2s0-1.3,0-2c0-.3,0-.7,0-1,0-.3,0-.7,0-1,0-.3,0-.6,0-1,0-1.6-.2-3.1-.3-4.3,0-.2,0-.3,0-.5-.1-1.3-.2-2.2-.2-2.7l4.1-.6c2.2-.3,4.4-.4,6.6-.4h15.4Z"/>
            <path d="M22.3,68.4l-4.4.6h0c-.1,0-.3.2-.3.3h0c0,0,0,.2,0,.3,0,0,0,0,0,.1,0,0,0,.1,0,.2s0,0,0,.1c0,0,0,.2,0,.3h0c0,.1,0,.2,0,.3h0c0,.1,0,.2,0,.3,0,.4,0,.8.1,1.3h0c0,.1,0,.2,0,.3,0,0,0,.2,0,.3,0,0,0,.2,0,.3,0,0,0,.2,0,.3h0c0,.7,0,1.4.1,2.1,0,.7,0,1.4.1,2.1,0,.6,0,1.3,0,1.9,0,.2,0,.5,0,.7,0,.6,0,1.2,0,1.8s0,.7,0,1.1c0,.2,0,.5,0,.7v.2c0,.7,0,1.3,0,2,0,.2,0,.3,0,.5,0,.2,0,.3,0,.5,0,.3,0,.6,0,1,0,.1,0,.2,0,.3,0,.2,0,.4,0,.6,0,.6,0,1.2-.1,1.7,0,0,0,0,0,.1,0,0,0,.1,0,.2h0c0,.3,0,.4,0,.5,0,0,0,0,0,0h0c0,.2,0,.2,0,.3,0,0,0,0,0,.1,0,.2,0,.3,0,.5,0,.3,0,.5,0,.8,0,.1,0,.2,0,.3,0,.1,0,.2,0,.3,0,0,0,.2,0,.2h0c0,0,0,.1,0,.2,0,.1,0,.2,0,.3,0,.2,0,.2,0,.2,0,0,0,0,0,0h0c0,.1.1.3.3.3h0l4.4.6c2.2.3,4.4.4,6.7.4h15.4c2.1,0,2.1-13.5,2.1-14s0-14-2.1-14h-15.4c-2.2,0-4.5.2-6.7.4ZM44.3,68.6c.6.3,1.5,5.3,1.5,13.4s-.9,13.1-1.5,13.4h-15.4c-2.2,0-4.4-.2-6.6-.5l-4.1-.5c0-.2,0-.5,0-1,0-.3,0-.5,0-.8,0-.1,0-.3,0-.4,0-.2,0-.4,0-.6,0-.1,0-.2,0-.4,0-.2,0-.5,0-.8,0-1.1.1-2.3.2-3.6,0-.3,0-.6,0-1,0-.3,0-.6,0-1,0-.3,0-.7,0-1,0-.7,0-1.3,0-2s0-1.3,0-2c0-.3,0-.7,0-1,0-.3,0-.7,0-1,0-.3,0-.6,0-1,0-1.6-.2-3.1-.3-4.3,0-.2,0-.3,0-.5-.1-1.3-.2-2.2-.2-2.7l4.1-.6c2.2-.3,4.4-.4,6.6-.4h15.4Z"/>
            <path class="cls-3" d="M28.9,68.6h15.4c.6.3,1.5,5.3,1.5,13.4s-.9,13.1-1.5,13.4h-15.4c-2.2,0-4.4-.2-6.6-.4l-4.1-.6c0-.2,0-.5,0-1,0-.3,0-.5,0-.8,0-.1,0-.3,0-.4,0-.2,0-.4,0-.6,0-.1,0-.2,0-.4,0-.2,0-.5,0-.8,0-1.1.1-2.3.2-3.6,0-.3,0-.6,0-1,0-.3,0-.6,0-1,0-.3,0-.7,0-1,0-.7,0-1.3,0-2s0-1.3,0-2c0-.3,0-.7,0-1,0-.3,0-.7,0-1,0-.3,0-.6,0-1,0-1.6-.2-3.1-.3-4.3,0-.2,0-.3,0-.5-.1-1.3-.2-2.2-.2-2.7l4.1-.6c2.2-.3,4.4-.4,6.6-.4Z"/>
          </g>
          <g>
            <path class="cls-3" d="M29.9,67.3h15.7c.7.3,1.6,5.7,1.6,14.7s-1,14.3-1.6,14.7h-15.9c-2.7,0-5.5-.2-8.2-.5l-5.4-.9,1.7-.2h0l4.4.6c2.2.3,4.4.4,6.7.4h15.4c2.1,0,2.1-13.5,2.1-14s0-14-2.1-14h-15.4c-2.2,0-4.5.2-6.7.4l-4.4.6-1.7-.2,5.1-.8c2.8-.4,5.7-.6,8.6-.6Z"/>
            <path d="M29.9,66.6h15.7c2.3,0,2.3,14.7,2.3,15.3s0,15.4-2.3,15.4h-15.9c-2.7,0-5.5-.2-8.3-.6l-7.8-1.3.2-.7h0l1.1.2,1.1.2,5.4.9c2.7.4,5.4.5,8.2.5h15.9c.6-.3,1.6-5.7,1.6-14.7s-1-14.3-1.6-14.7h-15.7c-2.9,0-5.7.2-8.6.6l-5.1.8-1.1.2-1.1.2h0s-.2-.7-.2-.7l7.5-1.2c2.9-.4,5.8-.6,8.7-.6Z"/>
          </g>
          <path class="cls-2" d="M38.9,98.6v2.6h-6.2c-9.1.2-16.8-1.7-17.1-1.8l.6-2.5c0,0,7.7,1.9,16.5,1.7h6.2Z"/>
          <path class="cls-2" d="M38.9,65.3v-2.6h-6.2c-9.1-.2-16.8,1.7-17.1,1.8l.6,2.5c0,0,7.7-1.9,16.5-1.7h6.2Z"/>
          <path class="cls-3" d="M4.5,69.3l13.2,1.7c0,.4,0,.8.1,1.3h0c0,.1,0,.2,0,.3,0,0,0,.2,0,.3,0,0,0,.2,0,.3,0,0,0,.2,0,.3h0c0,.7,0,1.4.1,2.1,0,.7,0,1.4.1,2.1,0,.6,0,1.3,0,1.9,0,.2,0,.5,0,.7,0,.6,0,1.2,0,1.8s0,.7,0,1.1c0,.2,0,.5,0,.7v.2c0,.7,0,1.3,0,2,0,.2,0,.3,0,.5,0,.2,0,.3,0,.5,0,.3,0,.6,0,1,0,.1,0,.2,0,.3,0,.2,0,.4,0,.6,0,.6,0,1.2-.1,1.7,0,0,0,0,0,.1,0,0,0,0,0,.1v.2c0,.1,0,.2,0,.3,0,0,0,0,0,0h0c0,.2,0,.2,0,.3,0,0,0,0,0,.1,0,.2,0,.3,0,.5,0,.3,0,.5,0,.8h-1c0,.1-12.2,1.7-12.2,1.7-.4-2.3-1.2-7.4-1.3-12.2v-.5c0-4.9.8-10.3,1.3-12.7Z"/>
          <path d="M40.2,90.3c0,.4.3.7.7.7s.7-.3.7-.7-.3-.7-.7-.7-.7.3-.7.7Z"/>
          <path d="M23.2,90.3c0,.4.3.7.7.7s.7-.3.7-.7-.3-.7-.7-.7-.7.3-.7.7Z"/>
          <circle cx="40.9" cy="72.9" r=".7"/>
          <circle cx="24" cy="72.9" r=".7"/>
        </g>
      </g>
    </g>
  </g>
</svg>