<?xml version="1.0" encoding="UTF-8"?>
<svg xmlns="http://www.w3.org/2000/svg" version="1.1" viewBox="0 0 214.7 136.3">
  <defs>
    <style>
      .cls-1 {
        stroke-miterlimit: 10;
        stroke-width: 1.1px;
      }

      .cls-1, .cls-2 {
        stroke-linecap: square;
      }

      .cls-1, .cls-2, .cls-3 {
        fill: #fff;
        stroke: #000;
      }

      .cls-2 {
        stroke-width: .7px;
      }

      .cls-2, .cls-3 {
        stroke-linejoin: round;
      }

      .cls-3 {
        stroke-width: .4px;
      }
    </style>
  </defs>
  <!-- Generator: Adobe Illustrator 28.6.0, SVG Export Plug-In . SVG Version: 1.2.0 Build 709)  -->
  <g>
    <g id="Layer_1">
      <g>
        <path class="cls-1" d="M39.4,47v42.7l31,4.7c24.6,3.7,49.6,3.7,74.2,0l31-4.7v-42.7l-31-4.7c-24.6-3.7-49.6-3.7-74.2,0l-31,4.7Z"/>
        <g>
          <path class="cls-2" d="M29.1,53.8l-20.8,2.8h0c.7,7.2.7,14.4,0,21.6h0l20.8,2.8c2.1.3,4.1-1.1,4.6-3.2h0c1.5-6.9,1.5-14,0-20.8h0c-.5-2.1-2.5-3.5-4.6-3.2Z"/>
          <polygon class="cls-2" points="8.3 77.2 3.4 77.2 3.4 57.6 8.3 57.6 8.2 56.6 8.2 56.6 1.3 56.6 1.3 78.2 8.2 78.2 8.3 77.2"/>
          <rect class="cls-2" x="-10" y="66.9" width="21.6" height=".9" transform="translate(-66.6 68.2) rotate(-90)"/>
        </g>
        <g>
          <path class="cls-2" d="M120.1,29.1l-2.8-20.8h0c-7.2.7-14.4.7-21.6,0h0l-2.8,20.8c-.3,2.1,1.1,4.1,3.2,4.6h0c6.9,1.5,14,1.5,20.8,0h0c2.1-.5,3.5-2.5,3.2-4.6Z"/>
          <polygon class="cls-2" points="96.7 8.3 96.7 3.4 116.3 3.4 116.3 8.3 117.3 8.2 117.3 8.2 117.3 1.3 95.6 1.3 95.6 8.2 96.7 8.3"/>
          <rect class="cls-2" x="95.6" y=".4" width="21.6" height=".9"/>
        </g>
        <g>
          <path class="cls-2" d="M78,31.4l-5.9-20.2h0c-7,1.7-14.2,2.8-21.4,3.2h0l.4,21c0,2.1,1.7,3.9,3.8,4.1h0c7,.5,14.1-.6,20.6-3.1h0c2-.8,3.1-3,2.5-5Z"/>
          <polygon class="cls-2" points="51.7 14.4 51 9.5 70.3 6.5 71.1 11.4 72.1 11.2 72.1 11.2 71 4.3 49.7 7.6 50.7 14.4 51.7 14.4"/>
          <rect class="cls-2" x="49.5" y="5" width="21.6" height=".9" transform="translate(-.1 9.1) rotate(-8.6)"/>
        </g>
        <g>
          <path class="cls-2" d="M185.7,53.8l20.8,2.8h0c-.7,7.2-.7,14.4,0,21.6h0l-20.8,2.8c-2.1.3-4.1-1.1-4.6-3.2h0c-1.5-6.9-1.5-14,0-20.8h0c.5-2.1,2.5-3.5,4.6-3.2Z"/>
          <polygon class="cls-2" points="206.4 77.2 211.4 77.2 211.4 57.6 206.4 57.6 206.5 56.6 206.5 56.6 213.5 56.6 213.5 78.2 206.5 78.2 206.4 77.2"/>
          <rect class="cls-2" x="203.1" y="66.9" width="21.6" height=".9" transform="translate(146.5 281.3) rotate(-90)"/>
        </g>
        <g>
          <path class="cls-2" d="M136.8,31.4l5.9-20.2h0c7,1.7,14.2,2.8,21.4,3.2h0l-.4,21c0,2.1-1.7,3.9-3.8,4.1h0c-7,.5-14.1-.6-20.6-3.1h0c-2-.8-3.1-3-2.5-5Z"/>
          <polygon class="cls-2" points="163 14.4 163.7 9.5 144.4 6.5 143.7 11.4 142.6 11.2 142.6 11.2 143.7 4.3 165.1 7.6 164 14.4 163 14.4"/>
          <rect class="cls-2" x="143.6" y="5" width="21.6" height=".9" transform="translate(306.4 34) rotate(-171.4)"/>
        </g>
        <g>
          <path class="cls-2" d="M94.7,107.3l2.8,20.8h0c7.2-.7,14.4-.7,21.6,0h0l2.8-20.8c.3-2.1-1.1-4.1-3.2-4.6h0c-6.9-1.5-14-1.5-20.8,0h0c-2.1.5-3.5,2.5-3.2,4.6Z"/>
          <polygon class="cls-2" points="118.1 128 118.1 133 98.5 133 98.5 128 97.4 128.1 97.4 128.1 97.4 135 119.1 135 119.1 128.1 118.1 128"/>
          <rect class="cls-2" x="97.4" y="135" width="21.6" height=".9" transform="translate(216.5 271) rotate(180)"/>
        </g>
        <g>
          <path class="cls-2" d="M136.8,104.9l5.9,20.2h0c7-1.7,14.2-2.8,21.4-3.2h0l-.4-21c0-2.1-1.7-3.9-3.8-4.1h0c-7-.5-14.1.6-20.6,3.1h0c-2,.8-3.1,3-2.5,5Z"/>
          <polygon class="cls-2" points="163 122 163.7 126.9 144.4 129.8 143.7 124.9 142.6 125.1 142.6 125.1 143.7 132 165.1 128.8 164 121.9 163 122"/>
          <rect class="cls-2" x="143.6" y="130.4" width="21.6" height=".9" transform="translate(326.7 237.1) rotate(171.4)"/>
        </g>
        <g>
          <path class="cls-2" d="M78,104.9l-5.9,20.2h0c-7-1.7-14.2-2.8-21.4-3.2h0l.4-21c0-2.1,1.7-3.9,3.8-4.1h0c7-.5,14.1.6,20.6,3.1h0c2,.8,3.1,3,2.5,5Z"/>
          <polygon class="cls-2" points="51.7 122 51 126.9 70.3 129.8 71.1 124.9 72.1 125.1 72.1 125.1 71 132 49.7 128.8 50.7 121.9 51.7 122"/>
          <rect class="cls-2" x="49.5" y="130.4" width="21.6" height=".9" transform="translate(20.2 -7.5) rotate(8.6)"/>
        </g>
        <path class="cls-3" d="M39.7,56.3c-.1,0-.2,0-.3,0,0,0,0,0,0,0,0,0,0,0,0,0h0c15,0,34.2-6,39.8-9.1,3.1-1.7,7.2-4.3,9-6.8,0,0,0,0,0,0,0,0,0,0,0,0-1.8,2.5-5.9,5.1-9,6.8-5.6,3.1-24.6,9.2-39.6,9.2Z"/>
        <path class="cls-3" d="M46.3,66.3c-2.3,0-4.6,0-6.9-.2,0,0,0,0,0,0,0,0,0,0,0,0,9.8.6,19,0,30.7-2.1,3.4-.6,7.4-1.4,11.2-3,2.7-1.1,5.2-2.5,7.5-3.9,5.8-3.4,11.5-7,17.1-10.7,2.8-1.9,9.1-5.2,12.4-6.5,0,0,0,0,0,0,0,0,0,0,0,0-3.3,1.3-9.6,4.7-12.4,6.5-5.5,3.7-11.3,7.3-17.1,10.7-2.4,1.4-4.9,2.8-7.5,3.9-3.8,1.5-7.8,2.4-11.2,3-8.9,1.6-16.4,2.3-23.8,2.3Z"/>
        <path class="cls-3" d="M160.7,70.8c0,0-.1,0-.2,0-9-.1-16-.7-22.7-1.2-6.7-.5-13.7-1.1-22.7-1.2h0s0,0,0,0c1.1-2.5,4-3.5,6.5-4.1,4.8-1.2,9.9-1.9,14.7-2.6,6-.9,12.1-1.7,18-3.5,4.3-1.3,16.7-4.7,21.2-5.1h0s0,0,0,0h0c-4.5.5-16.9,3.8-21.2,5.1-5.9,1.8-12,2.7-18,3.5-4.9.7-9.9,1.4-14.7,2.6-2.4.6-5.3,1.6-6.4,4,9,.1,15.9.7,22.7,1.2,6.7.5,13.7,1.1,22.7,1.2,2.9,0,12.5-1,14.9-2.1h0s0,0,0,0h0c-2.5,1-11.7,2.1-14.8,2.1Z"/>
        <path class="cls-3" d="M165,83.4c-16.8,0-33-.5-52.3-1.6-.8,0-1.6,0-2.4-.1-5.5-.3-11.2-.7-16.8-.6-1.6,0-3.1,0-4.7,0-3.1,0-6.3.1-9.4,0-4.8-.2-9.6-1-14.3-2.3h-.2c0,0,9.1-1.4,9.1-1.4,1.9-.3,4-.6,5.9-1.2,2.4-.7,4.6-1.9,6.5-2.9,7.4-4.1,14.5-8.8,21.3-13.5,2.6-1.8,5.4-3.6,8-5.4,2.8-1.9,5.6-3.6,8.7-4.9,4.4-1.9,9.3-2.3,14.1-2.7,5.1-.4,10.4-.9,15-3.1,0,0,0,0,0,0,0,0,0,0,0,0-4.6,2.2-9.9,2.7-15,3.1-4.8.4-9.7.8-14.1,2.6-3.1,1.3-5.9,3.1-8.7,4.9-2.7,1.8-5.4,3.6-8,5.4-6.9,4.6-14,9.4-21.3,13.5-1.9,1-4.1,2.2-6.5,2.9-1.9.6-3.9.9-5.9,1.2l-8.7,1.3c4.6,1.2,9.3,2,14.1,2.2,3.1.2,6.3,0,9.4,0,1.5,0,3.1,0,4.7,0,5.6,0,11.3.3,16.8.6.8,0,1.6,0,2.4.1,23.4,1.4,42.2,1.8,62.8,1.6,0,0,0,0,0,0,0,0,0,0,0,0-3.5,0-7,0-10.5,0Z"/>
        <path class="cls-3" d="M118.6,93.9c-6.5,0-13-.2-19.5-1.2-3.7-.6-7.4-1.5-11-2.3-1.2-.3-2.5-.6-3.7-.9-14.4-3.3-27.6-5.4-45.1-5.5,0,0,0,0,0,0,0,0,0,0,0,0h0c17.5,0,30.7,2.3,45.1,5.5,1.2.3,2.5.6,3.7.9,3.6.8,7.3,1.7,10.9,2.3,8.3,1.3,16.7,1.3,24.8,1.2,5.6,0,11.3-.1,16.8-.2,3.1,0,6.4,0,9.6-.1,0,0,0,0,0,0s0,0,0,0c-3.2,0-6.4,0-9.6.1-5.5,0-11.2.2-16.8.2-1.7,0-3.5,0-5.3,0Z"/>
      </g>
    </g>
  </g>
</svg>