<?xml version="1.0" encoding="UTF-8"?>
<svg xmlns="http://www.w3.org/2000/svg" version="1.1" viewBox="0 0 123.6 123.7">
  <defs>
    <style>
      .cls-1 {
        stroke-width: 1.1px;
      }

      .cls-1, .cls-2 {
        stroke-linecap: square;
      }

      .cls-1, .cls-2, .cls-3 {
        fill: #fff;
        stroke: #000;
        stroke-linejoin: round;
      }

      .cls-2 {
        stroke-width: .7px;
      }

      .cls-3 {
        stroke-linecap: round;
        stroke-width: .5px;
      }
    </style>
  </defs>
  <!-- Generator: Adobe Illustrator 28.6.0, SVG Export Plug-In . SVG Version: 1.2.0 Build 709)  -->
  <g>
    <g id="Layer_1">
      <g>
        <g>
          <path class="cls-2" d="M101.7,44.6l15-19.7-9.8-8.2-8.2-9.8-19.7,15c-2,1.5-2.5,4.3-1.2,6.5h0c4.4,7,10.3,12.9,17.3,17.3h0c2.1,1.3,4.9.8,6.5-1.2Z"/>
          <polygon class="cls-2" points="99.5 7.8 103.6 3.7 106.5 6.6 102.1 11 102.9 11.9 107.4 7.5 109.7 9.8 105 14.5 105.8 15.4 110.6 10.7 112.9 13 108.2 17.8 109.1 18.6 113.8 13.9 116.1 16.3 111.7 20.7 112.6 21.5 117 17.1 119.9 20 115.8 24.1 116.7 24.9 116.7 24.9 122.5 19.1 104.5 1.1 98.7 6.9 99.5 7.8"/>
          <rect class="cls-2" x="101.1" y="9.2" width="25.5" height="1.1" transform="translate(40.2 -77.7) rotate(45)"/>
        </g>
        <g>
          <path class="cls-2" d="M21.9,79.2l-15,19.7,9.8,8.2,8.2,9.8,19.7-15c2-1.5,2.5-4.3,1.2-6.5h0c-4.4-7-10.3-12.9-17.3-17.3h0c-2.1-1.3-4.9-.8-6.5,1.2Z"/>
          <polygon class="cls-2" points="24.1 115.9 20 120 17.1 117.1 21.5 112.7 20.7 111.8 16.3 116.2 13.9 113.9 18.6 109.2 17.8 108.3 13 113 10.7 110.7 15.4 105.9 14.5 105.1 9.8 109.8 7.5 107.5 11.9 103 11 102.2 6.6 106.6 3.7 103.7 7.8 99.6 6.9 98.8 6.9 98.8 1.1 104.6 19.1 122.6 24.9 116.8 24.1 115.9"/>
          <rect class="cls-2" x="-3" y="113.4" width="25.5" height="1.1" transform="translate(-64 201.5) rotate(-135)"/>
        </g>
        <g>
          <path class="cls-2" d="M79,101.8l19.7,15,8.2-9.8,9.8-8.2-15-19.7c-1.5-2-4.3-2.5-6.5-1.2h0c-7,4.4-12.9,10.3-17.3,17.3h0c-1.3,2.1-.8,4.9,1.2,6.5Z"/>
          <polygon class="cls-2" points="115.8 99.6 119.9 103.7 117 106.6 112.6 102.2 111.7 103 116.1 107.5 113.8 109.8 109.1 105.1 108.2 105.9 112.9 110.7 110.6 113 105.8 108.3 105 109.2 109.7 113.9 107.4 116.2 102.9 111.8 102.1 112.7 106.5 117.1 103.6 120 99.5 115.9 98.7 116.8 98.7 116.8 104.5 122.6 122.5 104.6 116.7 98.8 115.8 99.6"/>
          <rect class="cls-2" x="101.1" y="113.4" width="25.5" height="1.1" transform="translate(275 114.1) rotate(135)"/>
        </g>
        <g>
          <path class="cls-2" d="M44.6,21.9L24.9,6.9l-8.2,9.8-9.8,8.2,15,19.7c1.5,2,4.3,2.5,6.5,1.2h0c7-4.4,12.9-10.3,17.3-17.3h0c1.3-2.1.8-4.9-1.2-6.5Z"/>
          <polygon class="cls-2" points="7.8 24.1 3.7 20 6.6 17.1 11 21.5 11.9 20.7 7.5 16.3 9.8 13.9 14.5 18.6 15.4 17.8 10.7 13 13 10.7 17.8 15.4 18.6 14.5 13.9 9.8 16.3 7.5 20.7 11.9 21.5 11 17.1 6.6 20 3.7 24.1 7.8 24.9 6.9 24.9 6.9 19.1 1.1 1.1 19.1 6.9 24.9 7.8 24.1"/>
          <rect class="cls-2" x="-3" y="9.2" width="25.5" height="1.1" transform="translate(-4 9.7) rotate(-45)"/>
        </g>
        <circle class="cls-1" cx="61.6" cy="61.7" r="33.4"/>
        <circle class="cls-1" cx="61.6" cy="61.7" r="29.5"/>
      </g>
      <g>
        <path class="cls-3" d="M60.1,60.6s-6.7-7.9-3.4-17.1c4.4,5,4.8,13.5,4.8,17.3,1.3-3.5,3.2-14.8,11.8-17.3,1.4,9.8-11.1,17.7-11.1,17.7,0,0,7-3.1,13.2-1.9-4.9,5.2-12.9,3.2-12.9,3.2,0,0,12.6,5.2,14.4,11.3-7.7,0-15.1-10.4-15.1-10.4,0,0,4.7,5.2,4.3,9.7-2.9-2.7-5.1-10.3-5.1-10.3,0,0,2.2,13.4-2.2,14.9-2.2-3.7.2-14.2.2-14.2,0,0-10.2,8.3-14.8,6.2,2.3-4.6,10.2-9.4,14.5-8.9-6.9-1.4-9.7-7.5-9.7-7.5,0,0,4.9,1,11.1,7.3Z"/>
        <path class="cls-3" d="M60.6,61.5c-.5-2.5.8-10.4,2.3-12.4,2.1,3.8-1.1,11.3-1.7,12.7,2-2.8,7.4-6.6,10-6.2-.2,2.9-10,6.7-10,6.7,0,0,11.4,0,13.9,2.6-7.3,1.5-10.4-.3-13.9-2.3.7,2.7,2,5.1,1.3,8.3-2.3-2.1-1.7-8.3-1.7-8.3,0,0-4.3,10.5-9.4,11.7.3-5.8,8.8-11.9,8.8-11.9,0,0-8.9-.5-9.8-2.3,1.2-.5,6.1-.6,10.1,1.5Z"/>
      </g>
    </g>
  </g>
</svg>