<?xml version="1.0" encoding="UTF-8"?>
<svg xmlns="http://www.w3.org/2000/svg" version="1.1" viewBox="0 0 134.6 128.8">
  <defs>
    <style>
      .cls-1 {
        stroke-width: 1.1px;
      }

      .cls-1, .cls-2 {
        fill: #fff;
        stroke: #000;
        stroke-linecap: square;
        stroke-linejoin: round;
      }

      .cls-2 {
        stroke-width: .7px;
      }
    </style>
  </defs>
  <!-- Generator: Adobe Illustrator 28.6.0, SVG Export Plug-In . SVG Version: 1.2.0 Build 709)  -->
  <g>
    <g id="Layer_1">
      <g>
        <g>
          <path class="cls-2" d="M54.8,101.2l2.7,19.8h0c6.8-.6,13.7-.6,20.6,0h0l2.7-19.8c.3-2-1-3.9-3-4.4h0c-6.5-1.5-13.3-1.5-19.8,0h0c-2,.4-3.3,2.3-3,4.4Z"/>
          <polygon class="cls-2" points="77.1 120.9 77.1 125.6 58.5 125.6 58.5 120.9 57.5 121 57.5 121 57.5 127.6 78 127.6 78 121 77.1 120.9"/>
          <rect class="cls-2" x="57.5" y="127.6" width="20.6" height=".9" transform="translate(135.5 256) rotate(180)"/>
        </g>
        <g>
          <path class="cls-2" d="M25.6,61.8l-18.1,8.5h0c2.7,6.3,4.7,12.9,6.2,19.6h0l19.7-3.4c2-.3,3.4-2.2,3.2-4.2h0c-.6-6.7-2.6-13.1-5.9-18.9h0c-1-1.8-3.2-2.5-5.1-1.6Z"/>
          <polygon class="cls-2" points="13.5 89 9 90.4 3.4 72.6 7.9 71.2 7.5 70.3 7.5 70.3 1.2 72.3 7.4 91.9 13.7 89.9 13.5 89"/>
          <rect class="cls-2" x="-6.4" y="81.8" width="20.6" height=".9" transform="translate(-73.4 110.6) rotate(-107.5)"/>
        </g>
        <g>
          <path class="cls-2" d="M53.9,21.1l-13.6-14.7h0c-5.2,4.5-10.9,8.4-16.8,11.8h0l9.2,17.7c.9,1.8,3.1,2.6,5,1.8h0c6.2-2.6,11.7-6.4,16.2-11.4h0c1.4-1.5,1.4-3.8,0-5.3Z"/>
          <polygon class="cls-2" points="24.3 17.8 21.6 14 36.8 3.3 39.5 7.1 40.3 6.5 40.3 6.5 36.5 1.1 19.7 12.9 23.5 18.3 24.3 17.8"/>
          <rect class="cls-2" x="17.5" y="6.2" width="20.6" height=".9" transform="translate(1.3 17.2) rotate(-35.1)"/>
        </g>
        <g>
          <path class="cls-2" d="M109,61.8l18.1,8.5h0c-2.7,6.3-4.7,12.9-6.2,19.6h0l-19.7-3.4c-2-.3-3.4-2.2-3.2-4.2h0c.6-6.7,2.6-13.1,5.9-18.9h0c1-1.8,3.2-2.5,5.1-1.6Z"/>
          <polygon class="cls-2" points="121.1 89 125.6 90.4 131.2 72.6 126.7 71.2 127.1 70.3 127.1 70.3 133.4 72.3 127.2 91.9 120.9 89.9 121.1 89"/>
          <rect class="cls-2" x="120.4" y="81.8" width="20.6" height=".9" transform="translate(13 182.2) rotate(-72.5)"/>
        </g>
        <g>
          <path class="cls-2" d="M80.7,21.1l13.6-14.7h0c5.2,4.5,10.9,8.4,16.8,11.8h0l-9.2,17.7c-.9,1.8-3.1,2.6-5,1.8h0c-6.2-2.6-11.7-6.4-16.2-11.4h0c-1.4-1.5-1.4-3.8,0-5.3Z"/>
          <polygon class="cls-2" points="110.3 17.8 113 14 97.8 3.3 95.1 7.1 94.3 6.5 94.3 6.5 98.1 1.1 114.9 12.9 111.1 18.3 110.3 17.8"/>
          <rect class="cls-2" x="96.5" y="6.2" width="20.6" height=".9" transform="translate(190.3 73.5) rotate(-144.9)"/>
        </g>
        <circle class="cls-1" cx="67.3" cy="61.7" r="32.8" transform="translate(-9 11.6) rotate(-9.2)"/>
      </g>
    </g>
  </g>
</svg>