<?xml version="1.0" encoding="UTF-8"?>
<svg xmlns="http://www.w3.org/2000/svg" version="1.1" viewBox="0 0 274.9 296.9">
  <defs>
    <style>
      .cls-1 {
        fill-rule: evenodd;
      }

      .cls-1, .cls-2 {
        fill: #fff;
      }
    </style>
  </defs>
  <!-- Generator: Adobe Illustrator 28.6.0, SVG Export Plug-In . SVG Version: 1.2.0 Build 709)  -->
  <g>
    <g id="Layer_1">
      <g>
        <g>
          <g>
            <path class="cls-2" d="M258.5,131.9c1-.8,1-2.4,0-3.4-1-.8-2.4-.8-3.4,0l-6.3,6.3c-.8,1-.8,2.4,0,3.4,1,1,2.6,1,3.4,0l6.3-6.3ZM205.8,184.5c1-1,1-2.4,0-3.4-1-1-2.4-1-3.4,0l-6.1,6.3c-1,1-1,2.4,0,3.4.8,1,2.4,1,3.4,0l6.1-6.3Z"/>
            <path d="M198,192.1c-.8,0-1.6-.3-2.1-.9-1.2-1.2-1.2-3,0-4.2l6.1-6.3c1.2-1.2,3-1.2,4.2,0,.6.6.9,1.3.9,2.1s-.3,1.5-.9,2.1l-6.1,6.3c-.6.6-1.4.9-2.2.9ZM204.1,181c-.5,0-.9.2-1.3.6l-6.1,6.3c-.8.8-.8,1.8,0,2.6.6.7,1.9.7,2.6,0l6.1-6.3c.4-.4.6-.8.6-1.3s-.2-.9-.6-1.3c-.4-.4-.8-.6-1.3-.6ZM250.5,139.5c-.8,0-1.6-.3-2.2-.9-1-1.2-1-3,0-4.2l6.3-6.3c1.2-1,3-1,4.1,0,.6.6,1,1.5.9,2.3,0,.8-.4,1.5-.9,1.9l-6.3,6.3c-.5.6-1.2.9-2,.9ZM256.8,128.5c-.5,0-1,.2-1.3.5l-6.3,6.3c-.6.7-.6,1.9,0,2.6.6.6,2,.7,2.5,0l6.3-6.3c.4-.3.5-.7.6-1.2,0-.5-.2-1.1-.6-1.4-.3-.3-.8-.4-1.3-.4Z"/>
          </g>
          <g>
            <path class="cls-2" d="M255.1,190.8c1,1,2.4,1,3.4,0,1-1,1-2.4,0-3.4l-6.3-6.3c-.8-1-2.4-1-3.4,0-.8,1-.8,2.4,0,3.4l6.3,6.3ZM202.5,138.2c1,1,2.4,1,3.4,0s1-2.4,0-3.4l-6.1-6.3c-1-.8-2.6-.8-3.4,0s-1,2.6,0,3.4l6.1,6.3Z"/>
            <path d="M256.8,192.4c-.8,0-1.6-.3-2.3-1l-6.3-6.3c-1.1-1.3-1.1-3.2,0-4.5,1.3-1.4,3.6-1.3,4.6,0l6.3,6.2c1.3,1.3,1.3,3.2,0,4.5-.6.6-1.4,1-2.3,1ZM250.5,181.2c-.4,0-.9.2-1.2.5-.5.6-.5,1.6,0,2.3l6.3,6.2c.6.6,1.6.6,2.2,0,.7-.7.7-1.6,0-2.3l-6.3-6.3c-.3-.3-.6-.5-1.1-.5ZM204.1,139.7c-.8,0-1.6-.3-2.3-1l-6.1-6.3c-.6-.5-.9-1.2-1-2.1,0-.9.3-1.8,1-2.5,1.1-1,3.2-1.1,4.5,0l6.2,6.4c.6.6,1,1.4,1,2.3s-.3,1.6-1,2.3c-.6.6-1.4,1-2.3,1ZM198,128.7c-.4,0-.8.1-1.1.4-.3.3-.5.8-.5,1.3,0,.4.2.7.4.9l6.2,6.4c.6.6,1.6.6,2.2,0,.3-.3.5-.7.5-1.1s-.2-.8-.5-1.1l-6.1-6.3c-.3-.2-.7-.4-1.2-.4Z"/>
          </g>
          <g>
            <path class="cls-2" d="M241.7,197.9c-1.5.6-2.3,2.3-1.8,3.9.6,1.5,2.4,2.3,3.9,1.8,9-3.4,16.8-9.5,22.1-17.3,5.2-7.6,8.2-16.8,8.2-26.6s-3.1-19.1-8.2-26.5c-5.3-7.9-12.9-13.9-22-17.3-1.5-.6-3.2.2-3.9,1.8-.5,1.5.3,3.2,1.8,3.7,7.7,3.1,14.5,8.2,19.2,15,4.5,6.6,7.1,14.7,7.1,23.2s-2.6,16.6-7.1,23.2c-4.8,6.8-11.5,12.1-19.4,15h0Z"/>
            <path d="M242.9,204.5c-1.6,0-3.1-1-3.7-2.4-.6-2.1.3-4.1,2.2-4.9,7.6-2.8,14.1-7.9,19-14.7,4.5-6.7,7-14.5,7-22.8s-2.4-16.1-7-22.8c-4.5-6.5-11-11.6-18.8-14.7-1.8-.6-2.9-2.8-2.2-4.7.8-2,3.1-3.1,5-2.3,9.1,3.4,16.9,9.5,22.3,17.6,5.5,7.9,8.4,17.2,8.4,26.9s-2.9,19-8.4,27.1c-5.5,7.9-13.4,14.2-22.5,17.6-.4.1-.8.2-1.2.2ZM242.9,116.5c-.9,0-1.7.6-2.1,1.5-.3,1,.3,2.3,1.3,2.7,8.2,3.2,14.9,8.5,19.6,15.3,4.7,6.9,7.2,15.1,7.2,23.7s-2.5,16.8-7.2,23.7c-5.1,7.2-11.9,12.4-19.8,15.3-1.1.5-1.6,1.7-1.3,2.9.3.8,1.3,1.3,2.2,1.3h0c.2,0,.4,0,.6,0,8.7-3.3,16.4-9.3,21.7-17,5.3-7.8,8.1-16.8,8.1-26.2s-2.8-18.4-8.1-26c-5.2-7.8-12.7-13.7-21.6-17-.3-.1-.5-.2-.8-.2Z"/>
          </g>
          <g>
            <path class="cls-1" d="M227.3,192.4c18.1,0,32.8-14.7,32.8-32.8s-14.7-32.8-32.8-32.8-32.8,14.7-32.8,32.8,14.7,32.8,32.8,32.8h0Z"/>
            <path d="M227.3,194.1c-19,0-34.4-15.4-34.4-34.4s15.4-34.4,34.4-34.4,34.4,15.4,34.4,34.4-15.4,34.4-34.4,34.4ZM227.3,128.5c-17.2,0-31.2,14-31.2,31.2s14,31.2,31.2,31.2,31.2-14,31.2-31.2-14-31.2-31.2-31.2Z"/>
          </g>
        </g>
        <g>
          <g>
            <path class="cls-2" d="M109.6,16.5c-1-1-2.4-1-3.4,0-1,1-1,2.4,0,3.4l6.3,6.3c1,.8,2.4.8,3.4,0,1-1,1-2.6,0-3.4l-6.3-6.3ZM162.3,69.1c-1-1-2.4-1-3.4,0-1,1-1,2.4,0,3.4l6.3,6.1c.8,1,2.4,1,3.4,0s.8-2.4,0-3.4l-6.3-6.1Z"/>
            <path d="M166.8,79.9c-.8,0-1.6-.3-2.1-.9l-6.3-6.1c-.6-.6-.9-1.3-.9-2.1s.3-1.5.9-2.1c1.2-1.2,3-1.1,4.2,0l6.3,6.1c1,1.2,1,3.2,0,4.2-.6.6-1.4.9-2.2.9ZM160.6,68.9c-.5,0-.9.2-1.3.6-.4.4-.6.8-.6,1.3s.2.9.6,1.3l6.3,6.1c.6.8,1.9.7,2.6,0,.6-.6.6-1.9,0-2.6l-6.3-6.1c-.4-.4-.8-.6-1.3-.6ZM114.2,27.3c-.8,0-1.5-.3-2.1-.7l-6.3-6.3c-1.2-1.2-1.2-3,0-4.2,1.1-1.2,3-1.2,4.2,0l6.3,6.3c.5.4.9,1.1.9,1.9,0,.9-.3,1.7-.9,2.3-.6.5-1.3.8-2.1.8ZM107.9,16.3c-.5,0-.9.2-1.3.6-.8.8-.8,1.8,0,2.6l6.3,6.3c.7.6,1.9.6,2.6,0,.3-.3.6-.9.5-1.4,0-.5-.2-.9-.5-1.1l-6.3-6.3c-.4-.4-.8-.6-1.3-.6Z"/>
          </g>
          <g>
            <path class="cls-2" d="M168.5,19.9c.8-1,.8-2.4,0-3.4-1-1-2.6-1-3.4,0l-6.3,6.3c-1,.8-1,2.4,0,3.4,1,.8,2.4.8,3.4,0l6.3-6.3ZM115.9,72.5c1-1,1-2.4,0-3.4-1-1-2.4-1-3.4,0l-6.3,6.1c-1,1-1,2.6,0,3.4,1,1,2.4,1,3.4,0l6.3-6.1Z"/>
            <path d="M107.9,80.2c-.8,0-1.6-.3-2.3-1-.6-.5-.9-1.2-1-2.1,0-.9.3-1.8,1-2.5l6.3-6.1c1.2-1.2,3.3-1.2,4.5,0,.6.6,1,1.4,1,2.3s-.3,1.6-1,2.3l-6.3,6.1c-.6.6-1.4,1-2.3,1ZM114.2,69.2c-.4,0-.8.2-1.1.5l-6.3,6.1c-.3.3-.5.8-.5,1.3,0,.4.2.7.4.9.7.7,1.7.7,2.3,0l6.3-6.1c.3-.3.5-.7.5-1.1s-.2-.8-.5-1.1-.7-.5-1.1-.5ZM160.6,27.6c-.8,0-1.6-.3-2.2-.8-.7-.7-1.1-1.6-1-2.5,0-.9.4-1.6,1-2.1l6.2-6.2c1-1.2,3.3-1.2,4.5,0,1.1,1.3,1.1,3.2,0,4.5l-6.3,6.3c-.7.6-1.5.8-2.3.8ZM166.8,16.5c-.4,0-.8.2-1,.4l-6.3,6.3c-.3.3-.5.6-.5,1,0,.5.2.9.5,1.3.5.4,1.7.5,2.3,0l6.2-6.2c.5-.6.5-1.6,0-2.3-.3-.3-.7-.4-1.1-.4Z"/>
          </g>
          <g>
            <path class="cls-2" d="M175.7,33.3c.5,1.5,2.3,2.3,3.9,1.8,1.5-.6,2.3-2.4,1.6-3.9-3.4-9-9.4-16.6-17.1-22.1-7.6-5.2-16.8-8.2-26.6-8.2s-19.1,3.1-26.6,8.2c-7.7,5.3-13.7,13.1-17.1,22-.6,1.6.2,3.2,1.6,3.9,1.6.5,3.4-.2,3.9-1.8,2.9-7.7,8.2-14.5,15-19.2,6.6-4.5,14.5-7.1,23.2-7.1s16.6,2.6,23.2,7.1c6.8,4.8,12.1,11.5,15,19.4h0Z"/>
            <path d="M178.6,36c-1.7,0-3.2-1-3.7-2.5-2.7-7.5-7.8-14.1-14.7-19-6.7-4.5-14.5-7-22.8-7s-16.1,2.4-22.8,7c-6.7,4.6-11.9,11.3-14.7,18.8-.6,1.8-2.8,2.9-4.9,2.3-2-.9-2.9-3-2.1-4.9,3.5-9.1,9.6-17,17.4-22.3C118.3,2.9,127.7,0,137.4,0s19,2.9,27.1,8.4c8,5.7,14,13.4,17.4,22.5.4.9.4,1.9,0,2.8-.4.9-1.1,1.7-2,2.1-.5.2-.9.2-1.3.2ZM137.4,6c8.6,0,16.8,2.5,23.7,7.2,7.2,5.1,12.4,11.9,15.3,19.8.3.8,1.2,1.4,2.2,1.4h0c.3,0,.5,0,.7-.1.4-.2.9-.6,1.1-1.2s.2-1.1,0-1.6c-3.3-8.8-9.1-16.3-16.8-21.8-7.8-5.3-16.8-8.1-26.2-8.1s-18.4,2.8-26.2,8.1c-7.5,5.2-13.5,12.8-16.8,21.6-.5,1.3.2,2.4,1.2,2.9.7.2,2.4,0,2.8-1.3,3-7.9,8.4-14.9,15.3-19.6,6.9-4.7,15.1-7.2,23.7-7.2Z"/>
          </g>
          <g>
            <path class="cls-1" d="M170.2,47.6c0-18.1-14.7-32.8-32.8-32.8s-32.8,14.7-32.8,32.8,14.7,32.8,32.8,32.8,32.8-14.7,32.8-32.8h0Z"/>
            <path d="M137.4,82c-19,0-34.4-15.4-34.4-34.4s15.4-34.4,34.4-34.4,34.4,15.4,34.4,34.4-15.4,34.4-34.4,34.4ZM137.4,16.5c-17.2,0-31.2,14-31.2,31.2s14,31.2,31.2,31.2,31.2-14,31.2-31.2-14-31.2-31.2-31.2Z"/>
          </g>
        </g>
        <g>
          <g>
            <path class="cls-2" d="M16.6,131.9c-1-1-1-2.4,0-3.4.8-1,2.4-1,3.4,0l6.1,6.3c1,1,1,2.4,0,3.4-1,.8-2.4.8-3.4,0l-6.1-6.3ZM69.1,184.5c-.8-1-.8-2.4,0-3.4,1-1,2.6-1,3.4,0l6.3,6.3c1,.8,1,2.4,0,3.2-1,1-2.4,1-3.4,0l-6.3-6.1Z"/>
            <path d="M77.1,192c-.8,0-1.5-.3-2.1-.9l-6.3-6.1c-1-1.2-1-3,0-4.2,1.2-1.2,3.3-1.2,4.3,0l6.3,6.3c.6.5.9,1.2.9,2s-.3,1.6-.9,2c-.5.5-1.3.9-2.1.9ZM70.9,181c-.5,0-1,.2-1.4.6-.6.7-.6,1.9,0,2.6l6.3,6.1c.7.7,1.9.7,2.6,0,.4-.3.6-.7.6-1.2s-.2-.9-.5-1.2l-6.3-6.3c-.3-.4-.7-.6-1.2-.6ZM24.5,139.4c-.8,0-1.5-.3-2.1-.7l-6.2-6.3c-1.2-1.2-1.2-3,0-4.2.9-1.1,3-1.1,4.2,0l6.1,6.3c1.2,1.2,1.2,3,0,4.2-.6.5-1.3.8-2.1.8ZM18.3,128.3c-.5,0-.9.2-1.2.5-.8.8-.8,1.9,0,2.6l6.1,6.3c.6.5,1.9.6,2.6,0,.3-.3.5-.8.5-1.3s-.2-.9-.6-1.3l-6.1-6.3c-.4-.4-.8-.6-1.4-.6Z"/>
          </g>
          <g>
            <path class="cls-2" d="M20,190.7c-1,1-2.6,1-3.4,0-1-.8-1-2.4,0-3.2l6.1-6.3c1-1,2.4-1,3.4,0,1,1,1,2.4,0,3.4l-6.1,6.1ZM72.5,138.2c-.8.8-2.4.8-3.4,0-.8-1-.8-2.4,0-3.4l6.3-6.3c1-1,2.4-1,3.4,0s1,2.4,0,3.4l-6.3,6.3Z"/>
            <path d="M18.3,192.2c-.9,0-1.7-.4-2.3-1-.5-.4-.9-1.3-.9-2.1s.4-1.7,1-2.2l6.1-6.2c1.3-1.3,3.3-1.2,4.5,0,1.3,1.3,1.3,3.2,0,4.5l-6.1,6.1c-.6.6-1.5,1-2.3,1ZM24.5,181.2c-.4,0-.8.2-1.1.5l-6.1,6.3c-.3.3-.5.7-.5,1.1s.2.8.4,1c.7.8,1.7.7,2.3,0l6.1-6.1c.7-.7.7-1.6,0-2.2-.3-.3-.7-.5-1.1-.5ZM70.9,139.6c-.8,0-1.7-.3-2.3-.8-1.2-1.4-1.2-3.3-.1-4.5l6.3-6.3c1.3-1.2,3.3-1.2,4.5,0,.6.6,1,1.4,1,2.3s-.3,1.6-1,2.3l-6.3,6.3c-.5.5-1.3.8-2.2.8ZM77.1,128.6c-.4,0-.8.2-1.1.5l-6.3,6.3c-.5.6-.5,1.6,0,2.3.4.3,1.7.4,2.2,0l6.3-6.3c.3-.3.5-.7.5-1.1s-.2-.8-.5-1.1c-.3-.3-.7-.5-1.1-.5Z"/>
          </g>
          <g>
            <path class="cls-2" d="M33.3,197.9c1.6.5,2.4,2.3,1.8,3.9-.5,1.5-2.3,2.3-3.9,1.6-8.9-3.4-16.6-9.4-22-17.1-5.3-7.6-8.4-16.8-8.4-26.6s3.1-19.1,8.4-26.6c5.3-7.7,12.9-13.7,22-17.1,1.5-.6,3.2.2,3.7,1.6.6,1.6-.2,3.2-1.6,3.9-7.9,2.9-14.5,8.2-19.2,15-4.5,6.6-7.3,14.5-7.3,23.2s2.7,16.6,7.3,23.2c4.7,6.8,11.5,12.1,19.2,15h0Z"/>
            <path d="M32.3,204.4c-.5,0-1,0-1.5-.3-9-3.5-17-9.6-22.3-17.4-5.6-8-8.5-17.3-8.5-27.1s3-19.1,8.5-27.1c5.5-8,13.2-14,22.3-17.4.4-.2.9-.3,1.4-.3,1.5,0,2.9,1,3.4,2.4.8,1.9-.1,4-2.1,4.9-7.7,2.8-14.2,7.9-18.9,14.7-4.7,6.8-7.1,14.7-7.1,22.8s2.5,16,7.1,22.8c4.6,6.7,11.3,11.9,18.8,14.7.9.3,1.7.9,2.2,1.9.5.9.5,2.1,0,3.1-.5,1.4-1.9,2.3-3.5,2.3ZM32.2,116.5c-.3,0-.5,0-.7.2-8.9,3.3-16.3,9.1-21.6,16.8-5.4,7.7-8.3,16.7-8.3,26.2s2.9,18.5,8.3,26.2c5.2,7.5,12.8,13.5,21.6,16.8,1.2.5,2.5-.1,2.8-1.1.3-.6.2-1.3,0-1.8-.2-.5-.7-.9-1.2-1-7.9-3-14.9-8.4-19.6-15.3-4.8-7.1-7.4-15.3-7.4-23.7s2.6-16.6,7.4-23.7c4.9-7.1,11.7-12.4,19.6-15.3.9-.4,1.7-1.5,1.1-2.8-.3-.8-1.1-1.3-1.9-1.3Z"/>
          </g>
          <g>
            <path class="cls-1" d="M47.6,192.4c-18.1,0-32.8-14.7-32.8-32.8s14.7-32.8,32.8-32.8,32.8,14.7,32.8,32.8-14.7,32.8-32.8,32.8h0Z"/>
            <path d="M47.6,194.1c-19,0-34.4-15.4-34.4-34.4s15.4-34.4,34.4-34.4,34.4,15.4,34.4,34.4-15.4,34.4-34.4,34.4ZM47.6,128.5c-17.2,0-31.2,14-31.2,31.2s14,31.2,31.2,31.2,31.2-14,31.2-31.2-14-31.2-31.2-31.2Z"/>
          </g>
        </g>
        <g>
          <g>
            <path class="cls-2" d="M109.8,280.4c-1,1-2.4,1-3.4,0-.8-1-.8-2.4,0-3.4l6.3-6.3c1-1,2.4-1,3.4,0,1,1,1,2.4,0,3.4l-6.3,6.3ZM162.4,227.8c-1,1-2.4,1-3.4,0s-1-2.4,0-3.4l6.3-6.3c1-.8,2.4-.8,3.4,0,.8,1,.8,2.6,0,3.4l-6.3,6.3Z"/>
            <path d="M108.1,281.7c-.8,0-1.5-.3-2.1-.9-1-1.2-1-3,0-4.1l6.3-6.3c1.2-1.1,3-1.2,4.2,0,.6.6.9,1.3.9,2.1s-.3,1.5-.9,2.1l-6.3,6.3c-.6.6-1.3.9-2.1.9ZM114.4,270.6c-.5,0-.9.2-1.3.6l-6.3,6.3c-.6.7-.6,1.9,0,2.6.7.7,1.8.7,2.6,0l6.3-6.3c.4-.4.6-.8.6-1.3s-.2-.9-.6-1.3c-.4-.4-.8-.6-1.3-.6ZM160.7,229.1c-.8,0-1.5-.3-2.1-.9-.6-.6-.9-1.3-.9-2.1s.3-1.5.9-2.1l6.3-6.3c1.2-1,3-1,4.1,0,1.1,1.3,1.1,3.2,0,4.2l-6.3,6.3c-.6.6-1.3.9-2.1.9ZM167,218.1c-.5,0-1,.2-1.3.5l-6.3,6.3c-.4.4-.6.8-.6,1.3s.2.9.6,1.3c.7.7,1.9.7,2.6,0l6.3-6.3c.6-.6.6-1.9,0-2.6-.3-.2-.8-.4-1.3-.4Z"/>
          </g>
          <g>
            <path class="cls-2" d="M168.7,277c.8,1,.8,2.4,0,3.4-1,1-2.4,1-3.4,0l-6.3-6.3c-1-1-1-2.4,0-3.4s2.4-1,3.4,0l6.3,6.3ZM116.1,224.4c1,1,1,2.4,0,3.4-1,1-2.4,1-3.4,0l-6.3-6.3c-.8-.8-.8-2.4,0-3.4,1-.8,2.4-.8,3.4,0l6.3,6.3Z"/>
            <path d="M167,282c-.8,0-1.6-.3-2.3-1l-6.3-6.3c-.6-.6-1-1.4-1-2.3s.3-1.6,1-2.3c1.2-1.2,3.3-1.2,4.5,0l6.3,6.3c1.1,1.3,1.1,3.2,0,4.5-.7.7-1.5,1-2.3,1ZM160.7,270.8c-.4,0-.8.2-1.1.5-.3.3-.5.7-.5,1.1s.2.8.5,1.1l6.3,6.3c.6.6,1.6.6,2.2,0,.5-.6.5-1.6,0-2.3l-6.3-6.2c-.3-.3-.7-.5-1.1-.5ZM114.4,229.3c-.8,0-1.6-.3-2.3-1l-6.3-6.3c-1.1-1.1-1.1-3.2,0-4.5,1.4-1.2,3.3-1.1,4.5-.1l6.4,6.3c.6.6,1,1.4,1,2.3s-.3,1.6-1,2.3c-.6.6-1.4,1-2.3,1ZM108.1,218.3c-.4,0-.9.2-1.2.4-.4.5-.5,1.7,0,2.2l6.3,6.3c.6.6,1.6.6,2.2,0,.3-.3.5-.7.5-1.1s-.2-.8-.5-1.1l-6.3-6.3c-.3-.2-.7-.4-1.1-.4Z"/>
          </g>
          <g>
            <path class="cls-2" d="M175.8,263.6c.6-1.5,2.3-2.3,3.9-1.8,1.5.6,2.3,2.3,1.8,3.9-3.4,9-9.5,16.6-17.3,22.1-7.6,5.2-16.8,8.2-26.6,8.2s-19.1-3.1-26.6-8.2c-7.7-5.3-13.7-13.1-17.1-22-.6-1.6.2-3.2,1.8-3.9,1.5-.6,3.2.2,3.7,1.8,3.1,7.7,8.2,14.5,15,19.2,6.6,4.5,14.7,7.1,23.2,7.1s16.6-2.6,23.2-7.3c6.8-4.7,12.1-11.3,15-19.2h0Z"/>
            <path d="M137.6,296.9c-9.7,0-19-2.9-27.1-8.4-7.8-5.3-14-13.3-17.4-22.3-.8-2,.2-4.1,2.2-4.9.4-.2.9-.3,1.4-.3,1.6,0,3,1.1,3.4,2.6,3.1,7.7,8.2,14.3,14.7,18.8,6.7,4.6,14.5,7,22.8,7s16.2-2.5,22.8-7.1c6.8-4.7,11.9-11.2,14.7-18.8.8-1.9,2.9-2.9,4.9-2.3,2,.9,2.9,2.9,2.3,4.9-3.4,9-9.4,16.8-17.6,22.5-8.1,5.5-17.4,8.4-27.1,8.4ZM96.6,262.6c-.3,0-.5,0-.7.2-.6.3-1.1.7-1.3,1.2-.2.5-.3,1.1,0,1.7,3.3,8.8,9.3,16.4,16.8,21.6,7.8,5.3,16.8,8.1,26.2,8.1s18.4-2.8,26.2-8.1c7.9-5.6,13.7-13.1,17-21.7.3-1.1-.2-2.4-1.3-2.9-.1,0-.4,0-.6,0-.9,0-1.8.6-2.2,1.4-2.9,7.9-8.2,14.6-15.3,19.5-6.8,4.8-15,7.4-23.7,7.4s-16.8-2.5-23.7-7.2c-6.8-4.7-12.1-11.5-15.3-19.6-.3-.9-1.1-1.5-1.9-1.5Z"/>
          </g>
          <g>
            <path class="cls-1" d="M170.3,249.3c0,18.1-14.7,32.8-32.8,32.8s-32.8-14.7-32.8-32.8,14.7-32.8,32.8-32.8,32.8,14.7,32.8,32.8h0Z"/>
            <path d="M137.6,283.7c-19,0-34.4-15.4-34.4-34.4s15.4-34.4,34.4-34.4,34.4,15.4,34.4,34.4-15.4,34.4-34.4,34.4ZM137.6,218.1c-17.2,0-31.2,14-31.2,31.2s14,31.2,31.2,31.2,31.2-14,31.2-31.2-14-31.2-31.2-31.2Z"/>
          </g>
        </g>
        <g>
          <path class="cls-1" d="M137.6,87c40.2,0,72.6,32.5,72.6,72.6s-32.5,72.6-72.6,72.6-72.6-32.6-72.6-72.6,32.5-72.6,72.6-72.6h0Z"/>
          <path d="M137.6,233.9c-40.9,0-74.3-33.3-74.3-74.3s33.3-74.3,74.3-74.3,74.3,33.3,74.3,74.3-33.3,74.3-74.3,74.3ZM137.6,88.6c-39.2,0-71,31.9-71,71s31.9,71,71,71,71-31.9,71-71-31.9-71-71-71Z"/>
        </g>
        <path d="M172.6,200.7h-41.7v-34.2h41.7v34.2ZM134.2,197.4h35.2v-27.8h-35.2v27.8Z"/>
        <g>
          <g>
            <path class="cls-1" d="M174.7,157.9s3.4,9.7,3.9,13.7c.3,4.2,6.5,14.7,9.2,18.2,2.7,3.6,6.8,5.3,10.7,6,3.9.6,18.7.3,26.5-1,7.7-1.3,20.8-7.7,23.9-15.5,3.1-7.6,6.6-27.3-7.1-44.1-13.9-16.6-19.2-12.9-28.7-16.5s-21-5-27.9-5.3c-6.8-.3-8.4-.6-11.9.2-3.4.8-7.7,3.7-9.7,10.8-1.9,7.3-4.4,11.9-3.2,15.2,1.1,3.4,2.9,12.4,2.9,13.2s11.6,5,11.6,5h0Z"/>
            <path d="M205.3,197.8h0c-2.3,0-5.4,0-7.1-.3-3.4-.6-8.3-2.2-11.7-6.6-2.6-3.4-9.2-14.2-9.5-19.1-.4-3.1-2.8-10.3-3.5-12.6-12-4.3-12-5.1-12-6.3,0-.9-1.7-9.5-2.8-12.7-1-2.8,0-5.9,1.5-10.3.6-1.7,1.2-3.6,1.7-5.8,2.5-9.1,8.4-11.4,10.9-12,2.9-.7,4.6-.6,9.1-.4l3.3.2c7.7.4,19.1,2,28.4,5.4,2.3.9,4.4,1.3,6.5,1.7,6.3,1.3,12.3,2.4,22.9,15.3,13.6,16.7,11.1,36.6,7.4,45.7-3.4,8.5-17,15.1-25.1,16.5-5.5.9-13.9,1.3-19.9,1.3ZM164.6,152.1c1.5.8,6.4,2.8,10.7,4.3l.7.3.3.7c.1.4,3.5,9.9,4,14.1.3,3.7,6.1,13.8,8.9,17.4,2.8,3.6,6.8,4.9,9.6,5.4,1.1.2,3.6.3,6.6.3,5.7,0,14.1-.4,19.3-1.3,7.4-1.2,19.9-7.5,22.7-14.5,3.4-8.5,5.8-26.9-6.9-42.5-9.9-11.9-15.1-12.9-21.1-14.1-2.2-.4-4.4-.9-7-1.8-8.9-3.3-20-4.9-27.4-5.2l-3.3-.2c-4-.2-5.5-.3-8.2.3-1.9.4-6.5,2.3-8.5,9.7-.6,2.2-1.2,4.1-1.8,5.9-1.2,3.7-2.1,6.6-1.5,8.3,1,3,2.5,10.4,2.9,13Z"/>
          </g>
          <g>
            <path class="cls-1" d="M163.9,153.5s-.5,8.1-.5,11.3c-.2,3.4-1.8,8.2-.8,12.6,1.1,4.5,3.7,8.6,4.5,8.7,1,.2,4.4-1.8,5.7-4,1.3-2.3,2.7-5,1.5-7.3-1.1-2.1-2.7-4.7-3.4-6.1-.6-1.3.6-5.5,2.9-11.1l-9.8-4Z"/>
            <path d="M167.2,187.8h-.4c-2.2-.5-4.9-6.2-5.8-10-.7-3.3-.2-6.6.3-9.5.2-1.3.4-2.5.5-3.5,0-3.2.5-11,.5-11.3v-2.3c.1,0,13.6,5.5,13.6,5.5l-.6,1.5c-3.1,7.8-3,9.5-2.9,9.9.4.9,1.1,2.1,1.9,3.4.5.9,1,1.8,1.5,2.6,1.8,3.1-.3,6.7-1.5,8.8-1.5,2.6-5.1,4.9-6.9,4.9ZM165.3,155.9c-.1,2.6-.4,6.9-.4,8.9,0,1.2-.3,2.6-.5,4-.4,2.6-.9,5.6-.3,8.3.9,3.4,2.6,6.4,3.4,7.4.9-.4,3-1.6,3.8-3.1,1.2-2.1,2.3-4.2,1.5-5.7-.5-.8-1-1.7-1.5-2.6-.8-1.4-1.6-2.8-2-3.7-.7-1.3-.5-3.7,2.3-10.9l-6.3-2.6Z"/>
          </g>
          <path d="M204.5,154.6c-2-5.1-1.6-7.6-1.4-9.2.2-1.3.2-1.6-2.1-3.3-5.5-4.1-10.1-4.7-24-6l.3-3.2c14.3,1.3,19.5,2,25.7,6.6,3.4,2.6,3.7,4,3.3,6.3-.2,1.4-.5,3.3,1.2,7.6l-3,1.2Z"/>
          <path d="M189.9,166.7c-1.3-1.2-2.6-3.8-4.4-7.1-1.9-3.7-4.4-8.4-6.7-10.7l2.3-2.3c2.6,2.6,5.1,7.3,7.2,11.4,1.4,2.7,2.9,5.5,3.7,6.3l-2.2,2.4Z"/>
          <path d="M184.2,156.5c-.1-8.1,3.2-14,5.2-17.5.7-1.2,1.3-2.3,1.4-2.9l3.2.6c-.2,1.1-.9,2.3-1.8,3.9-2,3.4-4.9,8.6-4.8,15.8h-3.2Z"/>
          <g>
            <path class="cls-1" d="M194.9,183.6c-3.6-1.6-8.9-7.9-6.5-13.7,2.6-5.7,9.4-12.9,15.2-15,5.8-2.3,13.7-3.2,18.6-.8,4.8,2.4,7.4,10.2,7.3,13.1-.2,2.9-4.4,9.5-6.9,11.6-2.6,2.1-10.7,4.7-14.5,5.8-3.7,1.1-9.5.6-13.1-1h0Z"/>
            <path d="M203.2,186.8c-3.2,0-6.6-.6-9-1.7-4.1-1.8-10.2-8.9-7.3-15.8,2.7-5.9,9.8-13.6,16.1-15.9,6.8-2.7,15.1-3.1,19.8-.7,5.4,2.7,8.4,11,8.2,14.6-.2,3.6-4.8,10.6-7.5,12.8-3,2.4-11.5,5.1-15.1,6.1-1.5.4-3.3.7-5.2.7ZM215,154.2c-3.4,0-7.4.8-10.9,2.1-5.5,2-12,9.1-14.3,14.2-1.9,4.7,2.6,10.2,5.7,11.6,3.1,1.4,8.8,1.9,11.9.9,5.2-1.5,11.9-3.9,14-5.5,2.4-2,6.2-8.2,6.3-10.5.1-2.4-2.2-9.5-6.4-11.5-1.6-.8-3.8-1.2-6.4-1.2Z"/>
          </g>
          <g>
            <path class="cls-1" d="M168.2,135.8c-1.5,3.2-1.5,7.4.8,12.3,3.9,8.2,4,10.5,6.3,9.8,2.4-.6,6.3-2.4,6.5-4.7.2-2.3-2.7-7.3-4.5-10.7-.8-1.5,1.8-6.8-.2-8.1-3.7-2.1-6.1-5.2-8.9,1.3h0Z"/>
            <path d="M174.7,159.6h0c-2.3,0-3.1-1.8-4.8-5.9-.6-1.3-1.3-3-2.3-5-2.9-6.3-2.1-10.9-.8-13.6.9-2.1,2.4-4.8,5.1-4.8s3,.9,4.4,1.8c.5.3,1,.7,1.6,1,2.1,1.4,1.6,4.3,1.1,6.6-.2.8-.4,1.9-.3,2.3l.8,1.4c2.4,4.4,4,7.8,3.9,10-.3,4-6.9,5.9-7.7,6.1-.4.1-.7.2-1.1.2ZM171.9,133.5c-.6,0-1.4,1.1-2.2,2.9-1.4,3.1-1.1,6.9.8,11,1,2,1.7,3.7,2.3,5.1.8,1.8,1.6,3.5,2,3.9,0,0,0,0,.1,0,2.9-.8,5.2-2.4,5.3-3.2.1-1.5-2.2-5.7-3.5-8.2l-.8-1.6c-.6-1.1-.3-2.6,0-4.3.2-.9.5-2.8.3-3.3-.4-.2-1-.6-1.6-.9-1-.7-2.1-1.3-2.7-1.3Z"/>
          </g>
        </g>
        <g>
          <g>
            <path class="cls-1" d="M102.5,65.1c-.8-2.4,4.8-4.5,6.6-5.5,1.5-.6,2.9-1.5,4.4-2.3,3.9,1.8,10.8,3.2,15.3,4.8-1.8-1.9-3.2-4.8-4.4-6.9-2.6-4.7-3.4-5.3-1.9-10.7.5-2.1,4.2-10.5,4.8-11.5-6.5,1.9-13.6,3.9-20,6-4,1.3-5.5,2.7-8.9,5-3.7,2.7-7.7,5.3-11.3,8.1-3.2,2.3-5.3,5.5-6.9,9-1.1,2.4-1,3.1.6,5,1.8,1.8,4,3.9,5.8,5.7,2.4,2.3,3.6,3.1,6.3,4.8,2.4,1.8,13.4,9,14.7,10.5,3.2,3.4,6.1,7.3,9,10.5,1.6,1.8,2.7,2.4,5,1.6,3.9-1.5,4.7-5.3,2.6-8.9-2.1-3.9-4.4-3.9-6.5-9-.3-.5-.5-1-.6-1.5-2.1-4.4-2.7-4.4-7.1-7.7-1.6-1.5-7.1-5.3-7.6-7.1h0Z"/>
            <path d="M120,100.2h0c-1.5,0-2.5-.8-3.7-2.1-1.3-1.4-2.5-2.9-3.8-4.4-1.7-2-3.4-4.1-5.3-6.1-.9-1-6.6-4.9-10.4-7.5-1.9-1.3-3.5-2.4-4.2-2.9-2.7-1.7-3.8-2.6-6.3-4.9-.9-.9-1.9-1.8-2.8-2.7-1-1-2.1-2-3-2.9-1.7-2.1-2-3-.8-5.6,1.9-4.3,4.2-7.2,7.1-9.3,2-1.5,4.2-3.1,6.3-4.6,1.7-1.2,3.3-2.3,5-3.5.8-.5,1.4-1,2-1.4,2.2-1.6,3.8-2.7,7-3.7,4.2-1.4,8.7-2.7,13-3.9,2.4-.7,4.7-1.4,7-2l1.5-.5-.9,1.3c-.6.9-4.3,9.2-4.8,11.3-1.3,4.6-.8,5.5,1.2,9.1l1.1,1.9c1.1,2,2.4,4.4,3.9,6.1l1.5,1.7-2.2-.8c-1.9-.7-4.2-1.3-6.5-2-3.1-.9-6.4-1.8-8.7-2.8-1.4.8-2.7,1.5-4.2,2.1-.3.2-.7.4-1.2.6-2,.9-5.6,2.7-5.1,4.2.3,1.2,3.6,3.8,5.5,5.3.8.6,1.5,1.2,1.9,1.5.6.5,1.2.9,1.7,1.3,2.9,2.2,3.7,2.8,5.5,6.6.2.5.3,1,.6,1.4,1.2,2.9,2.4,4.1,3.6,5.4,1,1,1.9,2,2.9,3.7,1.2,2,1.5,4.2.9,6.1-.6,1.7-1.9,2.9-3.7,3.6-.7.3-1.3.4-1.9.4ZM126.3,34c-1.9.6-3.8,1.1-5.7,1.7-4.3,1.3-8.8,2.6-13,3.9-3.1,1-4.6,2.1-6.7,3.6-.6.4-1.3.9-2,1.4-1.6,1.2-3.3,2.3-5,3.5-2.1,1.5-4.3,3-6.3,4.5-2.8,1.9-4.9,4.7-6.8,8.8-1.1,2.2-.9,2.6.6,4.4.9.9,1.9,1.9,2.9,2.9,1,.9,2,1.9,2.8,2.7,2.4,2.3,3.6,3.1,6.2,4.8.8.6,2.4,1.7,4.2,2.9,5.3,3.6,9.7,6.7,10.6,7.7,1.9,1.9,3.6,4.1,5.3,6.1,1.3,1.5,2.5,3,3.7,4.4,1.7,1.9,2.5,2.1,4.4,1.5,1.5-.6,2.6-1.6,3.1-2.9.5-1.5.3-3.4-.8-5.1-.9-1.6-1.8-2.5-2.7-3.5-1.3-1.3-2.6-2.6-3.8-5.7-.3-.4-.5-1-.7-1.5-1.7-3.5-2.4-4-5.2-6.2-.5-.4-1.1-.8-1.7-1.3-.4-.4-1.1-.9-1.9-1.5-3-2.4-5.5-4.5-5.9-5.9-.8-2.4,3.1-4.3,5.7-5.5.5-.2.9-.4,1.2-.6,1.5-.7,3-1.5,4.4-2.3h.3c0-.1.3,0,.3,0,2.2,1,5.6,2,8.8,2.9,1.6.4,3.2.9,4.7,1.4-1.1-1.5-2-3.3-2.8-4.8l-1.1-1.9c-2.1-3.7-2.7-4.8-1.3-9.9.4-1.7,2.9-7.7,4.3-10.4Z"/>
          </g>
          <path class="cls-1" d="M158.7,78c-.5,1-1.1,2.1-1.9,3.9-2.1,5.2-4.4,5.2-6.5,9-2.1,3.6-1.3,7.4,2.6,8.9,2.3.8,3.4.2,5-1.6,3.1-3.2,5.8-7.1,9-10.5,1.3-1.5,12.3-8.7,14.7-10.5,2.7-1.8,3.9-2.6,6.3-4.8,1.8-1.8,4-3.9,5.8-5.7,1.8-1.9,1.8-2.6.8-5-1.8-3.6-3.9-6.8-7.1-9-3.6-2.7-7.6-5.3-11.3-8.1-3.4-2.3-4.8-3.7-8.9-5-6.5-2.1-13.4-4-20-6,.2.2.3.5.5.6.6,1.5,5.2,15.8,5.2,17.1s-2.6,11.6-3.6,12.6c-.8,1.1-9.4,4.8-10.8,4.7-2.3-.5-6.9-4-8.7-5.5-.5-.3-.8-.6-1-1-4.5-1.6-11.5-3.1-15.3-4.8-1.5.8-2.9,1.6-4.4,2.3-1.8,1-7.4,3.1-6.6,5.5.5,1.8,6,5.7,7.6,7.1,4.4,3.4,5,3.4,7.1,7.7,8.4.8,26.3,2.1,30,1,3.9-1,7.6-1.6,11.5-2.9h0Z"/>
          <path d="M140.8,83.1c-4.2,0-9.3-.4-13.7-.7l-2.8-.2c-.9,0-1.6-.8-1.5-1.7,0-.9.8-1.6,1.7-1.5l2.8.2c6.4.5,16,1.2,19.4.2,1.3-.3,2.6-.6,3.8-.9,2.6-.6,5.1-1.1,7.6-2,.9-.3,1.8.2,2,1,.3.8-.2,1.8-1,2-2.7.9-5.4,1.5-7.9,2.1-1.2.3-2.4.5-3.6.9-1.6.5-4,.7-6.8.7Z"/>
          <path d="M154.6,101.7c-.7,0-1.4-.1-2.3-.4-2.2-.8-3.7-2.3-4.4-4.2-.8-2.2-.4-4.6,1-7,1-1.8,2.1-2.9,3-3.9,1.2-1.2,2.3-2.3,3.3-4.9,2.3-5.2,3.1-5.9,6.4-8.4l1.9-1.4c.4-.3,1.1-.9,1.9-1.5,1.4-1.1,4.8-3.8,5.2-4.7-.1-.6-1.6-1.6-4.5-3-.5-.3-1-.5-1.3-.7-1.6-.8-3.2-1.6-4.7-2.4-.8-.4-1.1-1.4-.6-2.2.4-.8,1.4-1.1,2.2-.6,1.4.8,3,1.6,4.6,2.4.3.2.7.4,1.2.6,2.9,1.4,7.3,3.5,6.2,6.8-.4,1.6-2.9,3.6-6.2,6.3-.8.6-1.4,1.1-1.8,1.5-.8.6-1.4,1.1-2,1.5-2.9,2.2-3.4,2.6-5.4,7.1-1.3,3.2-2.7,4.7-4,5.9-.9.9-1.7,1.7-2.5,3.2-.9,1.5-1.2,3.1-.7,4.3.4,1,1.2,1.8,2.5,2.3,1.4.5,1.9.3,3.2-1.2,1.5-1.6,2.9-3.3,4.3-5,1.5-1.8,3.1-3.7,4.7-5.5.9-1,5-3.9,10.7-7.8,1.8-1.3,3.4-2.3,4.2-2.9,2.7-1.8,3.8-2.5,6.2-4.7.8-.8,1.8-1.8,2.8-2.7,1-1,2.1-2,3-2.9q1.2-1.3.5-3.3c-2-4-4-6.5-6.5-8.3-2-1.6-4.2-3.1-6.3-4.6-1.7-1.2-3.4-2.3-5-3.5-.7-.5-1.3-.9-2-1.3-2.1-1.5-3.5-2.5-6.5-3.4-4.9-1.6-10.1-3.1-15.2-4.6l-4.8-1.4c-.9-.3-1.3-1.1-1.1-2,.3-.9,1.1-1.3,2-1.1l4.8,1.4c5.1,1.5,10.4,3,15.3,4.6,3.4,1.1,5.1,2.3,7.3,3.8.6.4,1.2.9,2,1.3,1.7,1.2,3.3,2.4,5,3.5,2.2,1.5,4.4,3,6.4,4.6,3.7,2.6,6,6.5,7.6,9.6,1.2,3,1.2,4.3-1.1,6.8-1,1-2,2-3.1,3-1,.9-1.9,1.9-2.8,2.7-2.6,2.4-3.8,3.3-6.6,5.1-.7.5-2.3,1.6-4.2,2.9-3.3,2.3-9.4,6.5-10.2,7.3-1.7,1.7-3.1,3.6-4.6,5.3-1.5,1.8-2.9,3.6-4.5,5.2-1.4,1.5-2.7,2.5-4.5,2.5Z"/>
          <g>
            <path class="cls-1" d="M138.5,68.6c1.5.2,10-3.6,10.8-4.7,1-1,3.6-11.1,3.6-12.6s-4.5-15.7-5.2-17.1c-1-1.8-6.8-7.4-8.6-7.7-2.1-.3-8.9,2.4-11.8,6.6-.6,1-4.4,9.4-4.8,11.5-1.5,5.3-.6,6,1.9,10.7,1.3,2.4,3.1,6.1,5.3,7.9,1.8,1.5,6.5,5,8.7,5.5h0Z"/>
            <path d="M138.6,70.2h-.3c-3.2-.7-8.9-5.3-9.6-5.9-2.2-1.8-3.9-5-5.3-7.5l-1.1-2c-2.3-4-2.9-5.4-1.4-10.7.5-2.1,4.2-10.7,5.1-11.9,3-4.3,9.7-7.4,12.8-7.4h.6c2.6.5,8.8,6.8,9.7,8.6.6,1.3,5.4,16.1,5.4,17.9s-2.5,12.2-4,13.7c-1,1.4-9.8,5.2-11.9,5.2ZM138.8,28.1c-1.8,0-7.6,2.3-10.1,6-.5.8-4.1,9-4.6,10.9-1.2,4.3-.9,4.8,1.1,8.3l1.1,2.1c1.1,2.2,2.7,5.2,4.4,6.5,2.7,2.2,6.3,4.7,7.9,5.1,1.6-.2,8.4-3.1,9.4-4.1.8-1.3,3.1-10.3,3.2-11.6-.1-1.3-4.3-14.9-5-16.4-.8-1.5-6.1-6.5-7.4-6.8Z"/>
          </g>
          <path d="M128,62.8c-.2,0-.4,0-.6-.1-2-.8-4.3-1.3-6.5-1.8-2.7-.6-5.4-1.2-7.8-2.3-.8-.4-1.2-1.3-.8-2.1.4-.8,1.3-1.2,2.1-.8,2.1,1,4.5,1.5,7.1,2.1,2.3.5,4.8,1,7,1.9.8.3,1.2,1.3.9,2.1-.3.6-.9,1-1.5,1Z"/>
          <path d="M120,101.2c-1.8,0-3.1-1-4.5-2.5-1.3-1.4-2.5-2.9-3.8-4.4-1.7-2-3.4-4.1-5.2-6-.8-.9-6.9-5.1-10.2-7.4-1.9-1.3-3.5-2.4-4.2-2.9-2.6-1.7-3.9-2.6-6.4-5-.9-.9-1.9-1.8-2.8-2.8-1-1-2.1-2-3-2.9-2.2-2.6-2.3-3.9-1-6.8,2-4.4,4.4-7.5,7.5-9.7,2-1.5,4.1-3,6.3-4.6,1.7-1.2,3.3-2.3,4.9-3.5.8-.5,1.4-1,2-1.4,2.2-1.5,3.9-2.8,7.3-3.9,4.2-1.4,8.7-2.7,13.1-3.9,2.4-.7,4.7-1.4,7-2,.8-.3,1.7.2,2,1.1.3.9-.2,1.8-1.1,2-2.3.7-4.6,1.4-7,2.1-4.4,1.3-8.8,2.6-13,3.9-2.9.9-4.3,1.9-6.5,3.4-.6.4-1.3.9-2,1.4-1.6,1.2-3.3,2.3-4.9,3.5-2.1,1.5-4.3,3-6.3,4.5-2.7,1.9-4.7,4.5-6.5,8.4q-.8,1.8.4,3.3c.8.8,1.8,1.8,2.9,2.8,1,.9,2,1.9,2.8,2.8,2.3,2.2,3.4,2.9,6,4.6.8.6,2.4,1.7,4.2,2.9,5.7,3.9,9.8,6.8,10.8,7.8,1.9,1.9,3.6,4.1,5.3,6.1,1.2,1.5,2.5,3,3.7,4.3,1.4,1.5,1.9,1.7,3.3,1.2,1.2-.5,2.1-1.2,2.4-2.3.4-1.2.2-2.8-.7-4.3-.8-1.5-1.6-2.3-2.5-3.3-1.3-1.3-2.7-2.8-4-6-2-4.5-2.4-4.8-5.4-7.1l-1.9-1.5c-.5-.4-1.1-.9-1.9-1.5-3.4-2.7-5.8-4.7-6.3-6.4-1.1-3.3,3.3-5.4,6.3-6.8.5-.2.9-.4,1.1-.6,1.6-.8,3.2-1.6,4.7-2.4.8-.4,1.8-.2,2.2.6.4.8.2,1.8-.6,2.2-1.5.8-3.1,1.6-4.7,2.5-.3.2-.7.4-1.2.6-2.9,1.4-4.4,2.4-4.6,3,.4.9,3.8,3.6,5.2,4.8.8.6,1.5,1.2,1.9,1.6l1.8,1.4c3.2,2.5,4.1,3.3,6.4,8.4,1.1,2.7,2.1,3.8,3.4,5,1,1,2,2.1,3,3.9,1.4,2.3,1.7,4.8.9,6.9-.7,1.9-2.2,3.4-4.4,4.2-.9.3-1.6.4-2.3.4Z"/>
        </g>
      </g>
    </g>
  </g>
</svg>