<?xml version="1.0" encoding="UTF-8"?>
<svg xmlns="http://www.w3.org/2000/svg" version="1.1" viewBox="0 0 299.8 100.1">
  <defs>
    <style>
      .cls-1 {
        fill-rule: evenodd;
      }

      .cls-1, .cls-2 {
        fill: #fff;
      }
    </style>
  </defs>
  <!-- Generator: Adobe Illustrator 28.6.0, SVG Export Plug-In . SVG Version: 1.2.0 Build 709)  -->
  <g>
    <g id="Layer_1">
      <g>
        <g>
          <rect class="cls-2" x="85.3" y="1.6" width="129.2" height="96.9"/>
          <path d="M216.1,100.1H83.7V0h132.4v100.1ZM86.9,96.9h125.9V3.2h-125.9v93.6Z"/>
        </g>
        <g>
          <g>
            <path class="cls-1" d="M21.1,63v-25.8c0-6,4.8-12.6,10.7-13.4l34.4-5.5c5.8-.8,10.7,4.8,10.7,10.8v42c0,6-4.8,11.8-10.7,10.8l-17.3-3.1-17.1-2.4c-5.8-.8-10.7-7.4-10.7-13.4h0Z"/>
            <path d="M67.4,83.2c-.5,0-1,0-1.5-.1l-17.3-3.1-17.1-2.4c-6.1-.8-11.7-7.8-11.7-14.6v-25.8c0-6.8,5.6-13.7,11.7-14.6l34.4-5.5c.5,0,.9,0,1.3,0,5.7,0,10.8,5.7,10.8,12.1v42c0,6.5-5,12.1-10.6,12.1ZM67.2,19.4c-.3,0-.6,0-.9,0l-34.4,5.5c-5,.7-9.6,6.6-9.6,12.2v25.8c0,5.6,4.7,11.5,9.6,12.2l17.1,2.4,17.3,3.1c4.6.8,9.2-4,9.2-9.6V29.1c0-5.2-3.9-9.7-8.3-9.7Z"/>
          </g>
          <g>
            <polygon class="cls-2" points="8.8 61.5 18 58.9 19.1 62.8 9.8 65.5 8.8 61.5"/>
            <path d="M8.9,67.1l-1.5-6.4,11.5-3.2,1.8,6.2-11.7,3.4ZM10.3,62.4l.4,1.7,7-2-.5-1.6-6.9,1.9Z"/>
          </g>
          <g>
            <polygon class="cls-2" points="19.5 37.5 9.8 34.7 8.8 38.6 18.3 41.3 19.5 37.5"/>
            <path d="M19.1,42.8l-11.8-3.4,1.6-6.2,12.1,3.4-1.8,6.2ZM10.3,37.7l7.2,2.1.5-1.5-7.3-2.1-.4,1.5Z"/>
          </g>
          <g>
            <path class="cls-1" d="M30.9,23.9c-8.7,1.9-12.6,8.2-14.2,12.4-1.5,4.2-1.5,8.1-1.5,13.7s0,9.5,1.5,13.7c1.6,4.4,5.2,10.8,14.4,12.4-5.5-1.1-10-7.6-10-13.2v-25.8c0-5.7,4.4-11.8,9.8-13.2h0Z"/>
            <path d="M30.9,77.4c-7.4-1.3-12.5-5.7-15.3-13.2-1.5-4.4-1.5-8.5-1.5-14.1s0-9.7,1.5-14.1c1.6-4.1,5.6-11.1,15.1-13.2l.6,2.4c-4.8,1.3-8.9,6.8-8.9,12.1v25.8c0,5.3,4.3,11.1,9,12.1l-.5,2.4ZM21.4,30.8c-1.8,2.1-2.9,4.3-3.5,5.9-1.4,4-1.4,7.7-1.4,13.3s0,9.3,1.4,13.3c1,2.7,2.3,4.9,3.9,6.7-1.2-2.2-1.9-4.7-1.9-7.1v-25.8c0-2.1.6-4.3,1.5-6.3Z"/>
          </g>
          <g>
            <path class="cls-1" d="M16.4,79.6c-2.1-3.6-4.5-7.3-6.5-13.1-1.9-5.8-2.3-12.9-2.3-16.5s.3-10.7,2.3-16.5c1.9-5.8,4.4-9.5,6.5-13.1,2.1-3.6-.6-3.6-3.1-.8-2.4,2.6-7.1,8.1-9.5,14.9-2.4,6.8-2.4,12.3-2.6,15.5.2,3.2.2,8.7,2.6,15.5,2.4,6.8,7.1,12.3,9.5,14.9,2.4,2.7,5.2,2.7,3.1-.8h0Z"/>
            <path d="M16.4,83.6c-1.2,0-2.7-.9-4-2.4-3.2-3.4-7.5-8.8-9.8-15.2C.4,59.7.2,54.5,0,51.1v-1s0-1.2,0-1.2c.2-3.4.4-8.5,2.6-14.8,2.3-6.5,6.6-11.9,9.8-15.3,2.1-2.4,4.8-3,5.7-1.4.5.9.3,2.1-.7,3.7l-.8,1.3c-1.9,3.2-3.9,6.6-5.6,11.6-2,6-2.2,13.2-2.2,16.1s.2,10.1,2.2,16.1c1.7,5,3.7,8.3,5.6,11.6l.8,1.3c.9,1.6,1.2,2.8.7,3.7-.3.6-1,.9-1.7.9ZM15.7,19.2c-.4.2-.9.6-1.5,1.3-3.1,3.3-7.1,8.4-9.3,14.5-2.1,5.9-2.3,10.8-2.5,14.1v1.1c0,0,0,.9,0,.9.1,3.3.4,8.2,2.5,14.1,2.2,6.1,6.2,11.2,9.3,14.4.6.6,1.1,1.1,1.5,1.3,0-.2-.2-.4-.3-.7l-.8-1.3c-1.9-3.2-4.1-6.8-5.8-12-2.1-6.3-2.3-13.9-2.3-16.8s.2-10.6,2.3-16.9c1.8-5.3,3.9-8.9,5.8-12.1l.8-1.3c.2-.3.3-.5.3-.7Z"/>
          </g>
        </g>
        <g>
          <g>
            <path class="cls-1" d="M278.9,63v-25.8c0-6-5-12.6-10.8-13.4l-34.4-5.5c-5.8-.8-10.7,4.8-10.7,10.8v42c0,6,4.8,11.8,10.7,10.8l17.4-3.1,17-2.4c5.8-.8,10.8-7.4,10.8-13.4h0Z"/>
            <path d="M232.4,83.2c-5.6,0-10.6-5.7-10.6-12.1V29.1c0-6.9,5.8-12.9,12-12l34.4,5.5c6.2.9,11.8,7.8,11.8,14.6v25.8c0,6.8-5.7,13.7-11.9,14.6l-16.9,2.4-17.4,3.1c-.5,0-1,.1-1.5.1ZM232.6,19.4c-4.4,0-8.3,4.5-8.3,9.7v42c0,5.2,3.8,9.7,8.2,9.7h0c.4,0,.7,0,1.1,0l17.4-3.1,17-2.4c5-.7,9.8-6.6,9.8-12.2v-25.8c0-5.6-4.7-11.5-9.8-12.2l-34.4-5.5c-.3,0-.6,0-.9,0Z"/>
          </g>
          <g>
            <polygon class="cls-2" points="291.2 61.5 281.8 58.9 280.7 62.8 290 65.5 291.2 61.5"/>
            <path d="M290.9,67.1l-11.7-3.4,1.8-6.2,11.7,3.2-1.8,6.4ZM282.2,62l7,2.1.5-1.7-7-1.9-.5,1.6Z"/>
          </g>
          <g>
            <polygon class="cls-2" points="280.3 37.5 290 34.7 291.2 38.6 281.5 41.3 280.3 37.5"/>
            <path d="M280.6,42.8l-1.8-6.2,12-3.4,1.8,6.2-12,3.4ZM281.8,38.3l.5,1.5,7.4-2.1-.5-1.5-7.4,2.1Z"/>
          </g>
          <g>
            <path class="cls-1" d="M269,23.9c8.6,1.9,12.4,8.2,14,12.4,1.5,4.2,1.6,8.1,1.6,13.7s-.2,9.5-1.6,13.7c-1.6,4.4-5.2,10.8-14.4,12.4,5.5-1.1,10.2-7.6,10.2-13.2v-25.8c0-5.7-4.5-11.8-9.8-13.2h0Z"/>
            <path d="M268.9,77.4l-.5-2.4c4.7-1,9.2-6.8,9.2-12.1v-25.8c0-5.1-4.2-10.8-9-12.1l.6-2.3c9.4,2.1,13.4,9.2,14.9,13.2,1.6,4.5,1.7,8.7,1.7,14.2s-.1,9.6-1.7,14.1c-2.8,7.5-7.9,11.9-15.3,13.2ZM278.7,31.1c.9,1.9,1.5,4,1.5,6.1v25.8c0,2.3-.7,4.6-1.8,6.7,1.5-1.7,2.7-3.8,3.6-6.3,1.4-4.1,1.5-8.1,1.5-13.3s-.1-9.2-1.5-13.3c-.6-1.6-1.6-3.6-3.3-5.6Z"/>
          </g>
          <g>
            <path class="cls-1" d="M283.4,79.6c2.1-3.6,4.5-7.3,6.5-13.1,2.1-5.8,2.4-12.9,2.4-16.5s-.3-10.7-2.4-16.5c-1.9-5.8-4.4-9.5-6.5-13.1-2.1-3.6.8-3.6,3.1-.8,2.4,2.6,7.1,8.1,9.5,14.9,2.4,6.8,2.6,12.3,2.6,15.5s-.2,8.7-2.6,15.5c-2.4,6.8-7.1,12.3-9.5,14.9-2.3,2.7-5.2,2.7-3.1-.8h0Z"/>
            <path d="M283.5,83.6c-.8,0-1.4-.3-1.7-.9-.5-.9-.3-2.1.6-3.7l.7-1.2c1.9-3.2,3.9-6.6,5.6-11.6,2.1-5.9,2.4-13.2,2.4-16.1s-.2-10.2-2.4-16.1c-1.7-5.1-3.7-8.4-5.6-11.7l-.7-1.2c-.9-1.6-1.1-2.8-.6-3.7.9-1.6,3.7-.9,5.7,1.5,3.1,3.4,7.4,8.8,9.7,15.2,2.4,6.6,2.7,12,2.7,15.9s-.3,9.3-2.7,15.9c-2.3,6.5-6.6,11.9-9.8,15.3-1.2,1.4-2.7,2.3-3.9,2.3ZM284.1,19.2c0,.2.2.4.4.7l.7,1.2c1.9,3.2,4.1,6.8,5.9,12.1,2.2,6,2.5,13.1,2.5,16.9s-.3,10.9-2.5,16.9c-1.8,5.3-3.9,8.9-5.8,12.1l-.7,1.2c-.2.3-.3.5-.4.7.4-.2.9-.6,1.5-1.3,3.1-3.3,7.2-8.4,9.3-14.5,2.2-6.2,2.5-11.3,2.5-15.1s-.3-8.9-2.5-15.1c-2.2-6.1-6.2-11.2-9.3-14.4-.6-.7-1.1-1.1-1.5-1.3Z"/>
          </g>
        </g>
      </g>
    </g>
  </g>
</svg>