<?xml version="1.0" encoding="UTF-8"?>
<svg xmlns="http://www.w3.org/2000/svg" version="1.1" viewBox="0 0 178.9 178.9">
  <defs>
    <style>
      .cls-1, .cls-2 {
        fill-rule: evenodd;
      }

      .cls-1, .cls-3 {
        fill: #fff;
      }
    </style>
  </defs>
  <!-- Generator: Adobe Illustrator 28.6.0, SVG Export Plug-In . SVG Version: 1.2.0 Build 709)  -->
  <g>
    <g id="Layer_1">
      <g>
        <g>
          <g>
            <g>
              <path class="cls-1" d="M62.2,48.1c1.1-12.9,3.9-32.3,8.6-46.5h36.8c4.7,14.2,7.4,33.6,8.6,46.5h-53.9Z"/>
              <path d="M117.8,49.7h-57.4l.2-1.8c.6-6.6,2.9-29.5,8.6-46.9l.4-1.1h39.1l.4,1.1c5.7,17.4,8,40.3,8.6,46.9l.2,1.8ZM63.9,46.5h50.4c-.8-8-3-27.7-8-43.3h-34.5c-4.9,15.6-7.2,35.3-8,43.3Z"/>
            </g>
            <path d="M89.1,10c-6.7,0-13.4-.9-20-2.6l.8-3.1c12.9,3.3,25.5,3.3,38.6,0l.8,3.1c-6.7,1.7-13.4,2.6-20.2,2.6Z"/>
          </g>
          <g>
            <g>
              <path class="cls-1" d="M62.2,130.6c1.1,13.1,3.9,32.5,8.6,46.7h36.8c4.7-14.2,7.4-33.6,8.6-46.7h-53.9Z"/>
              <path d="M108.7,178.9h-39.1l-.4-1.1c-5.7-17.4-8.1-40.4-8.6-47l-.2-1.8h57.4l-.2,1.8c-.6,6.6-2.9,29.6-8.6,47l-.4,1.1ZM71.9,175.7h34.5c5-15.6,7.2-35.4,8-43.4h-50.4c.8,8,3,27.8,8,43.4Z"/>
            </g>
            <path d="M108.4,174.6c-13.1-3.3-25.7-3.3-38.6,0l-.8-3.1c13.3-3.4,26.8-3.4,40.2,0l-.8,3.1Z"/>
          </g>
          <g>
            <g>
              <path class="cls-1" d="M130.6,62.6c13.1,1.1,32.5,3.9,46.7,8.7v36.6c-14.2,4.8-33.6,7.6-46.7,8.7v-54.1Z"/>
              <path d="M129,118.5v-57.6l1.8.2c6.7.6,29.8,2.9,47,8.8l1.1.4v39l-1.1.4c-17.3,5.9-40.4,8.2-47,8.8l-1.8.2ZM132.2,64.4v50.5c8-.8,27.9-3,43.4-8.1v-34.3c-15.5-5.1-35.4-7.4-43.4-8.1Z"/>
            </g>
            <path d="M171.5,109.7c-3.4-13.3-3.4-26.8,0-40l3.1.8c-3.3,12.7-3.3,25.7,0,38.4l-3.1.8Z"/>
          </g>
          <g>
            <g>
              <path class="cls-1" d="M48.1,62.6c-12.9,1.1-32.3,3.9-46.5,8.7v36.6c14.2,4.8,33.6,7.6,46.5,8.7v-54.1Z"/>
              <path d="M49.7,118.5l-1.8-.2c-6.7-.6-29.7-2.9-46.9-8.8l-1.1-.4v-39l1.1-.4c17.2-5.9,40.2-8.2,46.9-8.8l1.8-.2v57.6ZM3.2,106.8c15.4,5.1,35.3,7.3,43.3,8.1v-50.5c-8,.8-27.8,3.1-43.3,8.1v34.3Z"/>
            </g>
            <path d="M7.2,109.7l-3.1-.8c3.5-12.7,3.5-25.6,0-38.4l3.1-.8c3.6,13.3,3.6,26.8,0,40.1Z"/>
          </g>
          <g>
            <path class="cls-1" d="M34.2,24.9h109.8c5.3,0,9.7,4.4,9.7,9.7v109.8c0,5.3-4.4,9.7-9.7,9.7H34.2c-5.3,0-9.7-4.4-9.7-9.7V34.6c0-5.3,4.4-9.7,9.7-9.7h0Z"/>
            <path d="M144,155.6H34.2c-6.2,0-11.3-5.1-11.3-11.3V34.6c0-6.2,5.1-11.3,11.3-11.3h109.8c6.2,0,11.3,5.1,11.3,11.3v109.8c0,6.2-5.1,11.3-11.3,11.3ZM34.2,26.5c-4.4,0-8.1,3.6-8.1,8.1v109.8c0,4.4,3.6,8.1,8.1,8.1h109.8c4.4,0,8.1-3.6,8.1-8.1V34.6c0-4.4-3.6-8.1-8.1-8.1H34.2Z"/>
          </g>
        </g>
        <g>
          <g>
            <path class="cls-1" d="M51.5,60.2h75.1c3.6,0,6.5,2.9,6.5,6.3v45.9c0,3.4-2.9,6.3-6.5,6.3H51.5c-3.4,0-6.3-2.9-6.3-6.3v-45.9c0-3.4,2.9-6.3,6.3-6.3h0Z"/>
            <path d="M126.6,119.2H51.5c-3.7,0-6.9-3.1-6.9-6.9v-45.8c0-3.7,3.1-6.9,6.9-6.9h75.1c3.8,0,7,3.1,7,6.9v45.8c0,3.7-3.2,6.9-7,6.9ZM51.5,60.8c-3.1,0-5.7,2.7-5.7,5.7v45.8c0,3.1,2.7,5.7,5.7,5.7h75.1c3.2,0,5.9-2.6,5.9-5.7v-45.8c0-3.1-2.7-5.7-5.9-5.7H51.5Z"/>
          </g>
          <path d="M125.3,115.4H53c-2.3,0-4.3-2-4.3-4.3v-43.3c0-2.4,1.9-4.3,4.3-4.3h72.3c2.4,0,4.3,1.9,4.3,4.3v43.3c0,2.2-2,4.3-4.3,4.3ZM53,64.7c-1.8,0-3.1,1.4-3.1,3.1v43.3c0,1.7,1.4,3.1,3.1,3.1h72.3c1.6,0,3.1-1.5,3.1-3.1v-43.3c0-1.8-1.4-3.1-3.1-3.1H53Z"/>
          <g>
            <path class="cls-1" d="M107.2,89.8c5.7,0,10.2,4.5,10.2,10.2s-4.5,10.2-10.2,10.2-10.2-4.5-10.2-10.2,4.5-10.2,10.2-10.2h0Z"/>
            <path d="M107.2,110.7c-5.9,0-10.7-4.8-10.7-10.7s4.8-10.7,10.7-10.7,10.7,4.8,10.7,10.7-4.8,10.7-10.7,10.7ZM107.2,90.3c-5.3,0-9.6,4.3-9.6,9.6s4.3,9.6,9.6,9.6,9.6-4.3,9.6-9.6-4.3-9.6-9.6-9.6Z"/>
          </g>
          <path class="cls-2" d="M107.2,96.9c1.8,0,3.1,1.5,3.1,3.1s-1.3,3.1-3.1,3.1-3.1-1.3-3.1-3.1,1.5-3.1,3.1-3.1h0Z"/>
          <path class="cls-1" d="M107.2,98.2c1,0,1.8.8,1.8,1.8s-.8,1.8-1.8,1.8-1.8-.8-1.8-1.8.8-1.8,1.8-1.8h0Z"/>
          <g>
            <path class="cls-1" d="M97.4,102.4c-1,0-1.6-.3-2.4-.8-.6-.3-1.6-.5-2.1-.6-1-.2-1.6-.3-3.6-.3s-1.6-.2-1.6-.6.5-.5,1.6-.6c1.9,0,2.6-.2,3.6-.3.5-.2,1.5-.3,2.1-.6.8-.3,1.5-.8,2.4-.8,4.2,0,4,4.8,0,4.8h0Z"/>
            <path d="M97.3,102.9c-1.1,0-1.9-.4-2.7-.9-.3-.2-.9-.3-1.3-.4-.3,0-.5-.1-.7-.2h-.3c-.8-.2-1.5-.3-3.1-.3s-2.2,0-2.2-1.2.8-1,1.7-1.2h.4c1.7,0,2.4-.2,3.2-.3h.4c0,0,.3-.2.6-.2.4-.1,1-.2,1.4-.4.3-.1.5-.2.6-.3.6-.3,1.2-.6,2-.6,2.5,0,3.7,1.5,3.7,3s-.4,1.6-1,2.1c-.7.6-1.6.9-2.7.9ZM88.5,100c.2,0,.4,0,.8,0,1.7,0,2.5.1,3.3.3h.4c.2.1.4.2.7.2.5.1,1.1.3,1.6.5.9.5,1.4.8,2.2.8s1.5-.2,1.9-.6c.4-.3.6-.8.6-1.3,0-.9-.8-1.8-2.5-1.8s-1,.2-1.5.5c-.2.1-.4.2-.7.3-.4.2-1.1.4-1.6.5-.2,0-.4.1-.6.2h-.4c-.8.2-1.6.4-3.3.4h-.3c-.2,0-.3,0-.5.1Z"/>
          </g>
          <g>
            <path class="cls-3" d="M120.6,98c1,0,1.8,1,1.8,1.9s-.8,1.9-1.8,1.9h-3.2c-1,0-1.9-.8-1.9-1.9s1-1.9,1.9-1.9h3.2Z"/>
            <path d="M120.6,102.4h-3.2c-1.2,0-2.5-1-2.5-2.5s1.2-2.5,2.5-2.5h3.2c1.3,0,2.3,1.2,2.3,2.5s-1,2.5-2.3,2.5ZM117.4,98.6c-.7,0-1.4.7-1.4,1.4s.7,1.4,1.4,1.4h3.2c.7,0,1.2-.6,1.2-1.4s-.6-1.4-1.2-1.4h-3.2Z"/>
          </g>
          <g>
            <path class="cls-1" d="M104.3,69.4c3.2-1.9,7.4-.8,9.4,2.4,1.9,3.4.8,7.4-2.6,9.4-3.2,1.9-7.4.8-9.2-2.4-1.9-3.4-.8-7.4,2.4-9.4h0Z"/>
            <path d="M107.7,82.7c-2.6,0-5-1.4-6.3-3.7-2.1-3.6-.9-8,2.6-10.1,1.1-.7,2.4-1,3.7-1,2.6,0,5.1,1.4,6.4,3.6,2.1,3.7.9,8-2.8,10.1-1.1.7-2.4,1-3.7,1ZM107.7,69c-1.1,0-2.2.3-3.1.9-3,1.8-4,5.5-2.2,8.6,1.1,1.9,3.1,3.1,5.3,3.1s2.2-.3,3.1-.9c3.1-1.8,4.2-5.5,2.4-8.6-1.1-1.9-3.2-3.1-5.4-3.1Z"/>
          </g>
          <path class="cls-2" d="M106.7,73.5c1-.6,2.3-.2,2.9.8.5,1,.2,2.3-.8,2.9-1,.6-2.4.2-2.9-.8-.6-1-.3-2.3.8-2.9h0Z"/>
          <g>
            <path class="cls-1" d="M102.8,80.1c-.5.3-1.1.3-1.8.3s-1,.2-1.5.3c-.5.2-1,.3-2.1,1-.6.3-1,.5-1.1.2-.2-.2,0-.5.6-.8,1.1-.8,1.5-1,1.9-1.5.3-.3.8-.6,1.1-1.1.3-.5.5-1,1.1-1.3,2.4-1.3,4,1.5,1.6,2.9h0Z"/>
            <path d="M96.6,82.6c-.3,0-.6-.2-.7-.4-.1-.2-.2-.4-.1-.6,0-.4.4-.7,1-1,.3-.2.5-.4.7-.5.5-.4.7-.5,1.1-.8.1-.1.2-.2.4-.3.2-.2.5-.4.7-.7,0,0,.1-.2.2-.3.2-.4.5-.9,1.2-1.2,1.5-.8,3.2-.2,3.6,1.1.2.8,0,2-1.4,2.8-.6.4-1.4.4-2.1.4s-.8.1-1.3.3c-.5.2-.9.3-2,.9-.5.3-.8.4-1.1.4ZM102.4,77.4c-.3,0-.6,0-1,.3-.4.2-.5.4-.7.8,0,.1-.1.2-.2.3-.3.4-.6.7-.9.9-.1,0-.2.2-.3.3-.1.1-.3.2-.4.4.2,0,.3-.1.5-.2.5-.2,1.1-.4,1.6-.4s1.1,0,1.5-.2c.9-.5,1-1.1.9-1.5-.1-.4-.5-.7-1-.7Z"/>
          </g>
          <g>
            <path class="cls-3" d="M114.8,69.7c.6-.3,1.5-.2,1.8.5.3.6.2,1.3-.5,1.8l-1.8,1c-.6.3-1.5.2-1.8-.5-.3-.5-.2-1.3.5-1.6l1.8-1.1Z"/>
            <path d="M113.6,73.7c-.7,0-1.3-.4-1.6-1-.2-.3-.3-.8-.2-1.3.1-.5.5-.9.9-1.1l1.7-1.1c1.1-.6,2.2-.2,2.6.7.4.9.2,1.8-.7,2.5l-1.8,1c-.3.2-.6.2-.9.2ZM115.5,70.1c-.1,0-.3,0-.4.1l-1.7,1.1c-.3.1-.3.3-.4.4,0,.2,0,.3,0,.4.2.4.5.4.6.4s.3,0,.4-.1l1.8-1c.4-.3.5-.6.3-1-.2-.3-.5-.3-.6-.3Z"/>
          </g>
          <path class="cls-1" d="M107.2,74.4c.5-.2,1.1,0,1.3.5.3.3.2,1-.3,1.3-.5.2-1,0-1.3-.3-.3-.5-.2-1.1.3-1.5h0Z"/>
          <g>
            <path class="cls-1" d="M75.1,81.2c-3.2,1.9-7.4.8-9.4-2.4-1.8-3.4-.6-7.4,2.6-9.4,3.2-1.9,7.4-.8,9.4,2.4,1.8,3.4.6,7.4-2.6,9.4h0Z"/>
            <path d="M71.6,82.7c-2.6,0-5.1-1.4-6.4-3.6-1.9-3.7-.7-8,2.8-10.1,1.1-.7,2.4-1,3.7-1,2.6,0,5.1,1.4,6.4,3.6,1.9,3.7.7,8-2.8,10.1-1.1.7-2.4,1-3.7,1ZM71.7,69c-1.1,0-2.2.3-3.1.9-3,1.8-4,5.5-2.4,8.6,1.1,1.9,3.2,3.1,5.4,3.1s2.2-.3,3.1-.9c3-1.8,4-5.5,2.4-8.6-1.1-1.9-3.2-3.1-5.4-3.1Z"/>
          </g>
          <path class="cls-2" d="M72.8,77.2c-1.1.6-2.4.2-2.9-.8-.6-1-.3-2.3.6-2.9,1.1-.6,2.4-.2,2.9.8.6,1,.3,2.3-.6,2.9h0Z"/>
          <g>
            <path class="cls-1" d="M76.7,70.6c.5-.3,1-.2,1.6-.3.5,0,1.1-.2,1.5-.3.6-.2,1-.3,2.3-1,.5-.3,1-.5,1-.2.2.3,0,.5-.6.8-1.1.8-1.5,1.1-1.9,1.5-.3.3-.6.6-1,1.1-.5.5-.6,1-1.1,1.3-2.4,1.3-4-1.5-1.6-2.9h0Z"/>
            <path d="M77.1,74.4c-1,0-1.8-.6-2.1-1.5-.2-.8,0-2,1.4-2.8.4-.3.8-.3,1.2-.3.2,0,.4,0,.6,0,.5,0,1.1-.2,1.3-.3.7-.2,1-.3,2.3-1,.8-.6,1.7-.4,1.8.2.3.8-.5,1.2-.9,1.5-.5.4-.9.7-1.2.9-.3.2-.5.4-.7.5-.2.3-.5.5-.8,1-.3.3-.4.4-.5.6-.2.3-.4.6-.8.8-.5.3-1,.4-1.5.4ZM80.5,70.3c-.2,0-.4.1-.6.2-.3.2-1.1.3-1.6.3-.2,0-.4,0-.7,0-.3,0-.5,0-.6.1-.9.5-1,1.1-.9,1.5.2.7,1.1.9,1.9.4.1-.1.3-.3.4-.5.2-.2.3-.4.6-.7.3-.4.6-.8,1-1.1.2-.2.4-.3.5-.4Z"/>
          </g>
          <g>
            <path class="cls-3" d="M64.6,80.9c-.6.3-1.5.2-1.8-.5s-.2-1.3.5-1.8l1.8-1c.6-.3,1.5-.2,1.8.5s.2,1.3-.5,1.8l-1.8,1Z"/>
            <path d="M63.9,81.6c-.7,0-1.3-.4-1.6-1-.5-.9-.2-1.8.7-2.5l1.8-1c1-.5,2.1-.2,2.6.7.5.9.2,1.8-.7,2.5l-1.8,1c-.3.2-.6.2-.9.2ZM65.7,78.1c-.1,0-.3,0-.4.1l-1.8,1c-.4.3-.5.6-.3,1,.2.3.5.3.6.3s.3,0,.4-.1l1.8-1c.4-.3.5-.6.3-1-.2-.3-.5-.3-.6-.3Z"/>
          </g>
          <path class="cls-1" d="M72.2,76.2c-.5.2-1,0-1.3-.3-.3-.5-.2-1.1.3-1.5.5-.2,1.1,0,1.3.5.3.3.2,1-.3,1.3h0Z"/>
          <g>
            <path class="cls-1" d="M71.7,108.8c-4.8,2.7-11.1,1.1-13.9-3.7-2.9-5-1.1-11.1,3.7-13.9,4.8-2.9,11-1.1,13.9,3.7,2.7,4.8,1.1,11-3.7,13.9h0Z"/>
            <path d="M66.6,110.7c-3.9,0-7.4-2-9.3-5.3-1.5-2.5-1.9-5.4-1.1-8.2.7-2.8,2.5-5.1,5-6.5,1.6-1,3.4-1.5,5.3-1.5,3.8,0,7.3,2.1,9.3,5.4,2.9,5.2,1.2,11.6-3.9,14.7-1.6.9-3.5,1.4-5.4,1.4ZM66.5,90.4c-1.7,0-3.3.5-4.7,1.3-2.2,1.3-3.8,3.3-4.5,5.8-.7,2.5-.3,5.1,1,7.3,1.7,2.9,4.8,4.8,8.3,4.8s3.3-.4,4.8-1.3c4.6-2.7,6.1-8.5,3.5-13.1-1.8-3-5-4.8-8.4-4.8Z"/>
          </g>
          <path class="cls-2" d="M68.1,102.7c-1.5.8-3.4.3-4.2-1.1-1-1.6-.3-3.4,1.1-4.2,1.5-1,3.2-.5,4.2,1.1.8,1.5.3,3.2-1.1,4.2h0Z"/>
          <path class="cls-1" d="M67.5,101.6c-1,.5-1.9.2-2.4-.6-.6-1-.3-2.1.6-2.6.8-.5,1.9-.2,2.4.6.5,1,.2,2.1-.6,2.6h0Z"/>
          <g>
            <path class="cls-1" d="M73.9,92.8c.6-.3,1.5-.3,2.4-.5.8,0,1.6-.3,2.3-.5.8-.3,1.5-.5,3.2-1.5,1-.5,1.5-.6,1.6-.2.2.3-.2.6-1,1.3-1.8,1-2.3,1.5-2.9,2.1-.5.3-1.1,1-1.6,1.6-.5.6-.8,1.5-1.6,1.9-3.7,1.9-6-2.3-2.4-4.4h0Z"/>
            <path d="M74.5,98.3c-1.4,0-2.5-.8-2.8-2-.3-1.1,0-2.7,2-3.9.6-.3,1.2-.4,1.8-.4.2,0,.5,0,.8-.1.6,0,1.1-.2,1.7-.3.2,0,.4-.1.6-.2l.4-.2c.6-.2,1.3-.5,2.7-1.2.7-.3,1.1-.5,1.5-.5s.8.2.9.7c.4.7-.4,1.3-1.2,1.9-1.8,1-2.2,1.4-2.8,2-.5.4-1.1,1-1.6,1.6-.1.2-.2.3-.4.5-.3.5-.7,1.1-1.4,1.6-.7.4-1.4.6-2.1.6ZM82.7,90.6c-.2,0-.5.2-.6.3-1.4.8-2.1,1-2.8,1.3l-.5.2c-.2,0-.4.1-.6.2-.6.2-1.2.4-1.9.4-.2,0-.5,0-.7.1-.6,0-1.1.1-1.4.3-1.3.8-1.6,1.8-1.4,2.6.3,1.2,1.8,1.6,3.3.8.4-.3.7-.7,1-1.2.1-.2.3-.4.4-.6.5-.7,1.2-1.4,1.8-1.7.6-.6,1.1-1.1,2.9-2.1,0,0,.3-.2.5-.4Z"/>
          </g>
          <g>
            <path class="cls-3" d="M56,108.3c-1,.5-2.1.2-2.7-.8-.5-.8-.2-2.1.8-2.6l2.7-1.6c.8-.5,2.1-.2,2.6.8.5.8.2,2.1-.6,2.6l-2.7,1.6Z"/>
            <path d="M55.1,109.1c-.9,0-1.7-.5-2.3-1.3-.3-.5-.4-1.2-.2-1.9.2-.7.6-1.2,1.2-1.5l2.7-1.6c.3-.2.7-.3,1.1-.3,1,0,1.8.5,2.2,1.3.6,1,.2,2.7-.9,3.3l-2.7,1.6c-.4.2-.8.3-1.2.3ZM57.7,103.7c-.2,0-.4,0-.6.1l-2.7,1.6c-.4.2-.6.5-.7.8-.1.3,0,.7,0,1,.5.7,1.3,1,2,.6l2.7-1.6c.5-.3.8-1.3.5-1.8-.3-.5-.8-.8-1.2-.8Z"/>
          </g>
        </g>
      </g>
    </g>
  </g>
</svg>