<?xml version="1.0" encoding="UTF-8"?>
<svg xmlns="http://www.w3.org/2000/svg" version="1.1" viewBox="0 0 112 112">
  <defs>
    <style>
      .cls-1 {
        stroke: #000;
        stroke-linecap: square;
        stroke-linejoin: round;
        stroke-width: .7px;
      }

      .cls-1, .cls-2 {
        fill: #fff;
      }
    </style>
  </defs>
  <!-- Generator: Adobe Illustrator 28.6.0, SVG Export Plug-In . SVG Version: 1.2.0 Build 709)  -->
  <g>
    <g id="Layer_1">
      <g>
        <g>
          <path class="cls-1" d="M37.9,18.7L21.2,5.9h0c-4.6,5.6-9.7,10.7-15.3,15.3h0l12.8,16.7c1.3,1.7,3.7,2.1,5.5,1h0c5.9-3.8,11-8.8,14.7-14.7h0c1.1-1.8.7-4.2-1-5.5Z"/>
          <polygon class="cls-1" points="6.7 20.6 3.2 17.1 17.1 3.2 20.6 6.7 21.2 5.9 21.2 5.9 16.3 1 1 16.3 5.9 21.2 6.7 20.6"/>
          <rect class="cls-1" x="-2.5" y="7.9" width="21.6" height=".9" transform="translate(-3.4 8.3) rotate(-45)"/>
        </g>
        <g>
          <path class="cls-1" d="M74.1,93.3l16.7,12.8h0c4.6-5.6,9.7-10.7,15.3-15.3h0s-12.8-16.7-12.8-16.7c-1.3-1.7-3.7-2.1-5.5-1h0c-5.9,3.8-11,8.8-14.7,14.7h0c-1.1,1.8-.7,4.2,1,5.5Z"/>
          <polygon class="cls-1" points="105.3 91.5 108.8 95 95 108.8 91.5 105.3 90.8 106.1 90.8 106.1 95.7 111 111 95.7 106.1 90.8 105.3 91.5"/>
          <rect class="cls-1" x="92.9" y="103.2" width="21.6" height=".9" transform="translate(250.3 103.7) rotate(135)"/>
        </g>
        <g>
          <path class="cls-1" d="M93.3,37.9l12.8-16.7h0c-5.6-4.6-10.7-9.7-15.3-15.3h0l-16.7,12.8c-1.7,1.3-2.1,3.7-1,5.5h0c3.8,5.9,8.8,11,14.7,14.7h0c1.8,1.1,4.2.7,5.5-1Z"/>
          <polygon class="cls-1" points="91.5 6.7 95 3.2 108.8 17.1 105.3 20.6 106.1 21.2 106.1 21.2 111 16.3 95.7 1 90.8 5.9 91.5 6.7"/>
          <rect class="cls-1" x="92.9" y="7.9" width="21.6" height=".9" transform="translate(36.3 -70.9) rotate(45)"/>
        </g>
        <g>
          <path class="cls-1" d="M18.7,74.1l-12.8,16.7h0c5.6,4.6,10.7,9.7,15.3,15.3h0s16.7-12.8,16.7-12.8c1.7-1.3,2.1-3.7,1-5.5h0c-3.8-5.9-8.8-11-14.7-14.7h0c-1.8-1.1-4.2-.7-5.5,1Z"/>
          <polygon class="cls-1" points="20.6 105.3 17.1 108.8 3.2 95 6.7 91.5 5.9 90.8 5.9 90.8 1 95.7 16.3 111 21.2 106.1 20.6 105.3"/>
          <rect class="cls-1" x="-2.5" y="103.2" width="21.6" height=".9" transform="translate(-59.1 182.9) rotate(-135)"/>
        </g>
        <g>
          <g>
            <polyline class="cls-2" points="86.5 44.3 98.2 56 56 98.2 13.9 56 56 13.9 86.5 44.3"/>
            <path d="M56,98.9l-.4-.4L13.1,56l.4-.4L56,13.1l.4.4,42.5,42.5-.4.4-42.5,42.5ZM14.6,56l41.4,41.4,41.4-41.4L56,14.6,14.6,56Z"/>
          </g>
          <path d="M52.5,61.4c0,0-.1,0-.1,0-1.9-2.4-2.2-5.7-2.2-8.5,0-3.5.2-7.1.8-10.6,0-.5.2-.9.2-1.4.2-1.2.4-2.4.5-3.6.3-3.6-.2-7.3-.8-11.1-.3-1.8-.7-3.8-1.8-5.2h-.1c0-.1.3-.4.3-.4h.1c1.1,1.6,1.6,3.7,1.9,5.5.6,3.8,1.2,7.5.8,11.2-.1,1.2-.3,2.5-.5,3.7,0,.4-.2.9-.2,1.3-.6,3.5-.8,7-.8,10.5,0,2.8.3,5.9,2,8.2.8-.5,1-1.8.7-2.8,0-.4-.2-.9-.4-1.3-.2-.7-.5-1.4-.5-2.1,0-.9.2-1.8.4-2.6l4-14.2c.3-1.2.7-2.5,1.3-3.6,1.1-2.4,3-4.2,4.9-6.1,1.2-1.2,2.4-2.3,3.4-3.7h.1c0-.1.3,0,.3,0h-.1c-1,1.5-2.2,2.7-3.4,3.8-1.8,1.8-3.7,3.6-4.8,6-.5,1.1-.9,2.4-1.2,3.6l-4,14.2c-.2.8-.5,1.6-.4,2.5,0,.7.3,1.3.5,2,.1.4.3.9.4,1.3.3,1.2,0,2.7-1.1,3.3,0,0,0,0,0,0Z"/>
          <path d="M52.1,77.8c-.2,0-.4,0-.7-.1-.8-.2-1.3-.9-1.7-1.5-4.3-5.5-7-12.4-7.6-19.3,0-.5,0-.9.3-1.3.2-.2.4-.3.7-.4.2,0,.4-.2.6-.3.1-.1.1-.3.1-.6l1.1-20.3c.1-2.5.3-5-.2-7.4,0-.3-.1-.7-.2-1v-.2s.3,0,.3,0v.2c.1.3.2.7.3,1.1.5,2.5.3,5.1.2,7.5l-1.1,20.3c0,.2,0,.5-.2.8-.2.3-.5.4-.7.4-.2,0-.4.1-.5.3-.2.2-.2.6-.2,1,.6,6.9,3.3,13.7,7.5,19.1.4.6.9,1.1,1.6,1.3,1.1.3,2.2-.4,2.9-1.2,1.6-1.8,2.1-4.3,2.6-6.7,1.1-5.1,2.3-10,5.1-14.1,1.2-1.7,2.7-3.2,4.1-4.7l.2-.2c4.1-4.2,8.4-8.9,11.9-13.9h.1c0-.1.3,0,.3,0h-.1c-3.5,5.2-7.8,9.8-12,14.1l-.2.2c-1.4,1.5-2.9,3-4.1,4.7-2.8,4-4,8.9-5.1,13.9-.5,2.4-1,4.9-2.7,6.8-.6.8-1.6,1.4-2.6,1.4Z"/>
          <path d="M43.6,85.9v-.2c-.2-.5-.3-.9-.5-1.4-.9-2.7-2.5-5.2-3.9-7.6-.4-.7-.8-1.3-1.2-2-1.7-2.9-3.5-6.4-3.7-10.2,0-1.8.2-3.6.4-5.3,0-.6.2-1.3.3-1.9.3-2.8.3-5.7.4-8.5v-6.7c0-2.3,0-4.7-1-6.6v-.2c0,0,.2-.2.2-.2v.2c1,2,1.1,4.4,1.1,6.7v6.7c0,2.8,0,5.7-.4,8.5,0,.6-.2,1.3-.3,1.9-.3,1.7-.5,3.5-.4,5.2.2,3.7,2,7.1,3.7,10,.4.7.8,1.3,1.2,2,1.5,2.4,3,4.9,4,7.6.2.5.3,1,.5,1.4v.2c0,0-.3.1-.3.1Z"/>
          <path d="M52.1,94.7l-.2-.3h.1c1.1-.9,2.4-1.6,3.6-2.2,1.4-.7,2.9-1.5,4.1-2.6,1.4-1.2,2.5-2.8,3.6-4.4,2.6-3.8,5.5-8,6.5-12.8.2-1,.7-4.1,1.2-6.8.3-2.1.7-4.1.8-4.8,1.8-8.9,7.9-13,11.5-15.5,1.1-.7,2-1.3,2.3-1.8h.1c0-.1.3,0,.3,0h-.1c-.4.7-1.2,1.2-2.4,2-3.6,2.4-9.6,6.5-11.4,15.2-.2.8-.5,2.7-.8,4.8-.5,2.7-1,5.8-1.2,6.9-1.1,4.8-4,9.1-6.6,12.9-1.1,1.6-2.2,3.2-3.6,4.4-1.3,1.1-2.7,1.9-4.2,2.6-1.2.6-2.4,1.3-3.5,2.1h-.1Z"/>
          <path d="M70.8,83.5l-.3-.2v-.2c.2-.3.4-.5.5-.8,1.5-2.8,2.6-5.9,3.7-8.8,1.4-3.7,2.8-7.6,4.9-10.9,1.7-2.7,3.9-5.1,6.1-7.4,1.8-1.9,3.6-3.9,5.1-6.1h.1c0-.1.3,0,.3,0h-.1c-1.6,2.3-3.4,4.3-5.2,6.3-2.1,2.3-4.3,4.7-6,7.4-2.1,3.4-3.5,7.2-4.9,10.9-1.1,3-2.2,6-3.7,8.9-.1.3-.3.6-.5.8v.2Z"/>
          <path d="M29.4,71.7v-.2c-.3-.7-.5-1.3-.5-1.8-.2-1.6.3-3.2.7-4.8l.2-.6c1.7-5.9,2.1-12.3,1.1-18.3-.2-1.5-.7-3.6-1.9-5h-.1c0-.1.3-.4.3-.4h.1c1.3,1.7,1.7,3.8,2,5.3,1,6.1.6,12.5-1.1,18.5l-.2.6c-.4,1.5-.9,3.1-.7,4.6,0,.5.2,1.1.5,1.8v.2c0,0-.3.1-.3.1Z"/>
          <path d="M18.7,60.8h-.3c0-.1,0-.3,0-.3,1.6-4,2.4-7.9,2.2-11.5v-.2s.4,0,.4,0v.2c.2,3.7-.6,7.6-2.2,11.6v.2Z"/>
        </g>
      </g>
    </g>
  </g>
</svg>