<?xml version="1.0" encoding="UTF-8"?>
<svg xmlns="http://www.w3.org/2000/svg" version="1.1" viewBox="0 0 32 32">
  <defs>
    <style>
      .cls-1 {
        fill: #fff;
      }
    </style>
  </defs>
  <!-- Generator: Adobe Illustrator 28.6.0, SVG Export Plug-In . SVG Version: 1.2.0 Build 709)  -->
  <g>
    <g id="Layer_1">
      <path class="cls-1" d="M27.4,9l-4.4-4.4c-.4-.4-.9-.6-1.4-.6H6c-1.1,0-2,.9-2,2v20c0,1.1.9,2,2,2h20c1.1,0,2-.9,2-2v-15.6c0-.5-.2-1-.6-1.4ZM21,26h-10v-7h10v7ZM26,26h-3v-7c0-1.1-.9-2-2-2h-10c-1.1,0-2,.9-2,2v7h-3V6h15.6l4.4,4.4v15.6ZM20,9c0,.6-.4,1-1,1h-7c-.6,0-1-.4-1-1s.4-1,1-1h7c.6,0,1,.4,1,1Z"/>
    </g>
  </g>
</svg>