<?xml version="1.0" encoding="UTF-8"?>
<svg xmlns="http://www.w3.org/2000/svg" version="1.1" viewBox="0 0 32 32">
  <!-- Generator: Adobe Illustrator 28.6.0, SVG Export Plug-In . SVG Version: 1.2.0 Build 709)  -->
  <g>
    <g id="Layer_1">
      <path d="M21,4h-10c-3.9,0-7,3.1-7,7v10c0,3.9,3.1,7,7,7h6c.1,0,.2,0,.3,0,3.3-1.1,9.5-7.4,10.6-10.6,0-.1,0-.2,0-.3v-6c0-3.9-3.1-7-7-7ZM6,21v-10c0-2.8,2.2-5,5-5h10c2.8,0,5,2.2,5,5v5h-3c-3.9,0-7,3.1-7,7v3h-5c-2.8,0-5-2.2-5-5ZM18,25.4v-2.4c0-2.8,2.2-5,5-5h2.4c-1.5,2.4-5,5.9-7.4,7.4Z"/>
    </g>
  </g>
</svg>