<?xml version="1.0" encoding="UTF-8"?>
<svg xmlns="http://www.w3.org/2000/svg" version="1.1" viewBox="0 0 32 32">
  <defs>
    <style>
      .cls-1 {
        fill: #ff110a;
      }
    </style>
  </defs>
  <!-- Generator: Adobe Illustrator 28.6.0, SVG Export Plug-In . SVG Version: 1.2.0 Build 709)  -->
  <g>
    <g id="Layer_1">
      <path class="cls-1" d="M27,6H5c-.6,0-1,.4-1,1s.4,1,1,1h1v18c0,1.1.9,2,2,2h16c1.1,0,2-.9,2-2V8h1c.6,0,1-.4,1-1s-.4-1-1-1ZM24,26H8V8h16v18ZM10,3c0-.6.4-1,1-1h10c.6,0,1,.4,1,1s-.4,1-1,1h-10c-.6,0-1-.4-1-1Z"/>
    </g>
  </g>
</svg>