<?xml version="1.0" encoding="UTF-8"?>
<svg xmlns="http://www.w3.org/2000/svg" version="1.1" viewBox="0 0 32 32">
  <defs>
    <style>
      .cls-1 {
        fill: #fff;
      }
    </style>
  </defs>
  <!-- Generator: Adobe Illustrator 28.6.0, SVG Export Plug-In . SVG Version: 1.2.0 Build 709)  -->
  <g>
    <g id="Layer_1">
      <path class="cls-1" d="M25.2,6.8C20.1,1.7,11.9,1.7,6.8,6.8c-5.1,5.1-5.1,13.3,0,18.4,5.1,5.1,13.3,5.1,18.4,0s5.1-13.3,0-18.4ZM23.8,8.2c.5.5,1,1.1,1.4,1.7l-4.2,5-3.5-9.8c2.4.3,4.6,1.4,6.3,3.1ZM19.4,16.6l-2.3,2.7-3.4-.6-1.2-3.3,2.3-2.7,3.4.6,1.2,3.3ZM8.2,8.2c1.9-1.9,4.4-3,7.1-3.2l2.2,6.1-10.2-1.9c.3-.4.6-.7.9-1.1ZM5.8,20.2c-1.2-2.9-1.1-6.2.3-9.1l6.4,1.2-6.7,7.9ZM8.2,23.8c-.5-.5-1-1.1-1.4-1.7l4.2-5,3.5,9.8c-2.4-.3-4.6-1.4-6.3-3.1ZM23.8,23.8c-1.9,1.9-4.4,3-7.1,3.2l-2.2-6.1,10.2,1.9c-.3.4-.6.7-.9,1.1ZM19.5,19.7l6.7-7.9c1.2,2.9,1.1,6.2-.3,9.1l-6.4-1.2Z"/>
    </g>
  </g>
</svg>