<?xml version="1.0" encoding="UTF-8"?>
<svg xmlns="http://www.w3.org/2000/svg" version="1.1" viewBox="0 0 166.7 166.7">
  <defs>
    <style>
      .cls-1 {
        fill: #fff;
        fill-rule: evenodd;
      }
    </style>
  </defs>
  <!-- Generator: Adobe Illustrator 28.6.0, SVG Export Plug-In . SVG Version: 1.2.0 Build 709)  -->
  <g>
    <g id="Layer_1">
      <g>
        <g>
          <path class="cls-1" d="M7.4,7.5C16.3-1.4,30.5-1.4,39.4,7.5c8.7,8.9,8.7,23.1,0,32-8.9,8.7-23.1,8.7-32,0C-1.5,30.6-1.5,16.3,7.4,7.5h0Z"/>
          <path d="M23.4,46.8c-6.2,0-12.1-2.4-16.6-6.8-9.1-9.1-9.1-24,0-33.1C11.3,2.5,17.2,0,23.4,0s12.1,2.5,16.6,6.9c9,9.1,9,24,0,33.1-4.5,4.4-10.3,6.8-16.6,6.8ZM23.4,1.6c-5.8,0-11.3,2.3-15.4,6.4C-.5,16.5-.5,30.4,8,38.9c4.1,4.1,9.6,6.3,15.4,6.3s11.3-2.2,15.4-6.3c8.3-8.5,8.3-22.3,0-30.8-4.1-4.1-9.6-6.4-15.4-6.4Z"/>
        </g>
        <path d="M111.1,112.6c-.4,0-.8-.2-1.1-.5L22.3,24.6c-.6-.6-.6-1.7,0-2.3.6-.6,1.6-.6,2.3,0l87.7,87.5c.6.6.6,1.7,0,2.3-.3.3-.7.5-1.1.5Z"/>
        <g>
          <path class="cls-1" d="M49.7,49.6c1.5-1.5,4-1.5,5.5,0,1.6,1.6,1.6,4,0,5.7s-4,1.5-5.5,0-1.6-4,0-5.7h0Z"/>
          <path d="M52.5,58c-1.5,0-2.9-.6-3.9-1.6-2.3-2.3-2.3-5.7,0-7.9,2-2,5.8-2,7.8,0,2.3,2.3,2.3,5.7,0,7.9-1,1-2.4,1.6-3.9,1.6ZM52.5,50.1c-.6,0-1.2.2-1.6.6-1,1-1,2.4,0,3.4.8.8,2.4.8,3.2,0,1-1,1-2.4,0-3.4-.4-.4-1-.6-1.6-.6Z"/>
        </g>
        <g>
          <path class="cls-1" d="M129.5,129.5c2.3-2.4,6.1-2.4,8.6,0,2.4,2.3,2.4,6.1,0,8.6-2.4,2.4-6.3,2.4-8.6,0-2.4-2.4-2.4-6.3,0-8.6h0Z"/>
          <path d="M133.7,140.7c-1.9,0-3.6-.7-4.8-2.1-1.3-1.3-2.1-3.1-2-5,0-1.8.8-3.5,2.1-4.7,1.2-1.3,2.9-2,4.8-2s3.6.7,4.9,2c1.3,1.2,2,2.9,2,4.7,0,1.9-.7,3.7-2,5-1.3,1.3-3.1,2-4.9,2ZM133.7,128.5c-1.4,0-2.7.6-3.6,1.6-1,1-1.6,2.2-1.6,3.6,0,1.4.5,2.8,1.6,3.9,1.9,2.1,5.4,2,7.4,0,1-1,1.6-2.4,1.6-3.9,0-1.4-.6-2.6-1.6-3.5-1-1-2.4-1.6-3.8-1.6Z"/>
        </g>
        <rect x="123.2" y="118.2" width="3.2" height="13.2" transform="translate(-51.7 124.8) rotate(-45)"/>
        <rect x="141.1" y="136.1" width="3.2" height="13.2" transform="translate(-59.1 142.7) rotate(-45)"/>
        <g>
          <path class="cls-1" d="M110.9,111c12.6-12.4,32.9-12.4,45.5,0,12.6,12.6,12.6,32.9,0,45.5s-32.9,12.6-45.5,0c-12.4-12.6-12.4-32.9,0-45.5h0ZM120.4,120.5c7.4-7.3,19.2-7.3,26.5,0,7.3,7.4,7.3,19.2,0,26.5-7.3,7.3-19.1,7.3-26.5,0-7.3-7.3-7.3-19.1,0-26.5h0Z"/>
          <path d="M133.7,166.7c-8.8,0-17.1-3.4-23.3-9.7-12.7-12.9-12.7-33.8,0-46.7,6.2-6.2,14.5-9.6,23.3-9.6s17.1,3.4,23.3,9.6c6.2,6.2,9.7,14.5,9.7,23.3s-3.4,17.1-9.7,23.3c-6.2,6.2-14.5,9.7-23.3,9.7ZM133.7,102.4c-8.4,0-16.3,3.2-22.2,9.1-12.1,12.2-12.1,32.1,0,44.4,5.9,5.9,13.8,9.2,22.2,9.2s16.3-3.3,22.2-9.2c12.2-12.2,12.2-32.1,0-44.4-5.9-5.9-13.8-9.1-22.2-9.1ZM133.7,153.2c-5.2,0-10.1-2-13.9-5.7-7.5-7.5-7.5-19.9,0-27.6,3.8-3.7,8.7-5.7,13.9-5.7s10.1,2,13.7,5.7c7.5,7.7,7.5,20.1,0,27.6-3.7,3.7-8.5,5.7-13.7,5.7ZM133.7,115.8c-4.8,0-9.3,1.9-12.7,5.2-6.9,7.1-6.9,18.4,0,25.3,3.4,3.4,8,5.2,12.7,5.2s9.2-1.8,12.6-5.2c6.9-6.9,6.9-18.3,0-25.3-3.4-3.4-7.8-5.2-12.6-5.2Z"/>
        </g>
      </g>
    </g>
  </g>
</svg>