<?xml version="1.0" encoding="UTF-8"?>
<svg xmlns="http://www.w3.org/2000/svg" version="1.1" viewBox="0 0 95.7 60.4">
  <defs>
    <style>
      .cls-1 {
        fill: none;
      }

      .cls-1, .cls-2 {
        stroke: #000;
        stroke-linecap: round;
        stroke-linejoin: round;
        stroke-width: 1.1px;
      }

      .cls-2 {
        fill: #fff;
      }
    </style>
  </defs>
  <!-- Generator: Adobe Illustrator 28.6.0, SVG Export Plug-In . SVG Version: 1.2.0 Build 709)  -->
  <g>
    <g id="Layer_1">
      <g>
        <rect class="cls-2" x=".6" y=".6" width="94.6" height="59.3" rx="10.4" ry="10.4"/>
        <g>
          <path class="cls-1" d="M51.7,27.6c9.3-1.2,17.8-3,25.3-5,.6-9.5,2.9-17.4,4.6-22.1H15.2c9.3,2.4,26,9.2,36.5,27.1Z"/>
          <path class="cls-1" d="M51.7,27.6C41.2,9.7,24.5,3,15.2.6h-4.3C5.2.6.6,5.2.6,10.9v16.3c17.9,2.9,35.5,2.4,51.1.4Z"/>
          <path class="cls-1" d="M95.1,16.9v-6c0-5.7-4.6-10.4-10.4-10.4h-3.1c-1.7,4.7-4,12.6-4.6,22.1,7-1.8,13.1-3.9,18.1-5.8Z"/>
          <path class="cls-1" d="M60.4,55.5c7.1.7,14.8,1.1,23.1,1.1-5.8-12.1-7.1-23.9-6.5-33.9-7.5,2-16.1,3.8-25.3,5,4.3,7.3,7.5,16.4,8.7,27.9Z"/>
          <path class="cls-1" d="M60.4,55.5c.2,1.4.3,2.9.4,4.3h24c.2,0,.3,0,.5,0-.6-1.1-1.2-2.2-1.7-3.2-8.3,0-16-.4-23.1-1.1Z"/>
          <path class="cls-1" d="M95.1,16.9c-4.9,1.9-11.1,3.9-18.1,5.8-.6,10,.7,21.9,6.5,33.9,2.9,0,5.8,0,8.9-.1,1.7-1.8,2.7-4.3,2.7-7V16.9Z"/>
          <path class="cls-1" d="M51.7,27.6c-15.6,2-33.2,2.5-51.1-.4v11.6c10.3,6,29.8,13.9,59.9,16.7-1.2-11.5-4.5-20.6-8.7-27.9Z"/>
          <path class="cls-1" d="M83.5,56.6c.5,1.1,1.1,2.2,1.7,3.2,2.8-.1,5.4-1.4,7.2-3.4-3,0-6,.1-8.9.1Z"/>
          <path class="cls-1" d="M.6,38.8v10.7c0,5.7,4.6,10.4,10.4,10.4h49.9c0-1.5-.2-2.9-.4-4.3C30.3,52.7,10.8,44.8.6,38.8Z"/>
        </g>
      </g>
    </g>
  </g>
</svg>