<?xml version="1.0" encoding="UTF-8"?>
<svg xmlns="http://www.w3.org/2000/svg" version="1.1" viewBox="0 0 101.3 66.4">
  <defs>
    <style>
      .cls-1 {
        fill: #fff;
      }

      .cls-1, .cls-2, .cls-3 {
        stroke: #000;
        stroke-miterlimit: 10;
        stroke-width: 1.1px;
      }

      .cls-1, .cls-3 {
        stroke-linecap: square;
      }

      .cls-2, .cls-3 {
        fill: none;
      }
    </style>
  </defs>
  <!-- Generator: Adobe Illustrator 28.6.0, SVG Export Plug-In . SVG Version: 1.2.0 Build 709)  -->
  <g>
    <g id="Layer_1">
      <g>
        <g>
          <rect class="cls-1" x="3.2" y="3.4" width="95" height="59.7"/>
          <rect class="cls-3" x="8.5" y="9.4" width="84.3" height="47.6"/>
          <g>
            <path d="M3.4,3.8s0,0,0,0c-.1,0-.3,0-.3-.2,0,0-.3-.8-.4-1.2,0-.2,0-.4.3-.5.2,0,.4,0,.5.3,0,.1,0,.2.1.4l.8-1.6c0-.2.3-.3.5-.2.2,0,.3.3.2.5l-1.2,2.4c0,.1-.2.2-.3.2Z"/>
            <path d="M5,3.8c-.2,0-.3-.1-.4-.3l-.2-1.9c0-.2.1-.4.3-.4.2,0,.4.1.4.3l.2,1.9c0,.2-.1.4-.3.4,0,0,0,0,0,0Z"/>
            <path d="M6.7,3.8s0,0,0,0c-.2,0-.4-.2-.4-.4,0-1,.1-2.4.1-2.5,0-.2.2-.4.4-.4h0c.2,0,.4.2.4.4s0,2.1-.1,2.5c0,.2-.2.4-.4.4Z"/>
            <path d="M8,3.8c-.2,0-.4-.2-.4-.4,0-.3-.1-2.9-.1-3s.2-.4.4-.4h0c.2,0,.4.2.4.4,0,.1,0,1.9.1,3,0,.2-.2.4-.4.4,0,0,0,0,0,0Z"/>
            <path d="M10.9,3.8c-.2,0-.3-.1-.4-.3l-.2-1.9c0-.2.1-.4.3-.4.2,0,.4.1.4.3l.2,1.9c0,.2-.1.4-.3.4,0,0,0,0,0,0Z"/>
            <path d="M12.5,3.8s0,0,0,0c-.2,0-.4-.2-.4-.4,0-1,.1-2.4.1-2.5,0-.2.2-.4.4-.4h0c.2,0,.4.2.4.4s0,2.1-.1,2.5c0,.2-.2.4-.4.4Z"/>
            <path d="M13.9,3.8c-.2,0-.4-.2-.4-.4,0-.3-.1-2.9-.1-3s.2-.4.4-.4h0c.2,0,.4.2.4.4,0,.1,0,1.9.1,3,0,.2-.2.4-.4.4,0,0,0,0,0,0Z"/>
            <path d="M13.3,3.8c-.2,0-.3-.1-.4-.3l-.2-1.9c0-.2.1-.4.3-.4.2,0,.4.1.4.3l.2,1.9c0,.2-.1.4-.3.4,0,0,0,0,0,0Z"/>
            <path d="M15,3.8s0,0,0,0c-.2,0-.4-.2-.4-.4,0-1,.1-2.4.1-2.5,0-.2.2-.4.4-.4h0c.2,0,.4.2.4.4s0,2.1-.1,2.5c0,.2-.2.4-.4.4Z"/>
            <path d="M16.3,3.8c-.2,0-.4-.2-.4-.4,0-.3-.1-2.9-.1-3s.2-.4.4-.4h0c.2,0,.4.2.4.4,0,.1,0,1.9.1,3,0,.2-.2.4-.4.4,0,0,0,0,0,0Z"/>
            <path d="M9.6,3.8c-.1,0-.3,0-.3-.2l-.8-1.9c0-.2,0-.4.2-.5.2,0,.4,0,.5.2l.4.9.3-1.5c0-.2.2-.3.4-.3.2,0,.3.2.3.4l-.6,2.6c0,.2-.2.3-.3.3,0,0,0,0,0,0Z"/>
            <g>
              <path d="M17,3.8s0,0,0,0c-.1,0-.3,0-.3-.2s-.3-.8-.4-1.2c0-.2,0-.4.3-.5.2,0,.4,0,.5.3,0,.1,0,.2.1.4l.8-1.6c0-.2.3-.3.5-.2.2,0,.3.3.2.5l-1.2,2.4c0,.1-.2.2-.3.2Z"/>
              <path d="M18.6,3.8c-.2,0-.3-.1-.4-.3l-.2-1.9c0-.2.1-.4.3-.4.2,0,.4.1.4.3l.2,1.9c0,.2-.1.4-.3.4,0,0,0,0,0,0Z"/>
              <path d="M20.2,3.8s0,0,0,0c-.2,0-.4-.2-.4-.4,0-1,.1-2.4.1-2.5,0-.2.2-.4.4-.4h0c.2,0,.4.2.4.4s0,2.1-.1,2.5c0,.2-.2.4-.4.4Z"/>
              <path d="M21.6,3.8c-.2,0-.4-.2-.4-.4,0-.3-.1-2.9-.1-3s.2-.4.4-.4h0c.2,0,.4.2.4.4,0,.1,0,1.9.1,3,0,.2-.2.4-.4.4,0,0,0,0,0,0Z"/>
              <path d="M24.5,3.8c-.2,0-.3-.1-.4-.3l-.2-1.9c0-.2.1-.4.3-.4.2,0,.4.1.4.3l.2,1.9c0,.2-.1.4-.3.4,0,0,0,0,0,0Z"/>
              <path d="M26.1,3.8s0,0,0,0c-.2,0-.4-.2-.4-.4,0-1,.1-2.4.1-2.5,0-.2.2-.4.4-.4h0c.2,0,.4.2.4.4s0,2.1-.1,2.5c0,.2-.2.4-.4.4Z"/>
              <path d="M27.4,3.8c-.2,0-.4-.2-.4-.4,0-.3-.1-2.9-.1-3s.2-.4.4-.4h0c.2,0,.4.2.4.4,0,.1,0,1.9.1,3,0,.2-.2.4-.4.4,0,0,0,0,0,0Z"/>
              <path d="M26.9,3.8c-.2,0-.3-.1-.4-.3l-.2-1.9c0-.2.1-.4.3-.4.2,0,.4.1.4.3l.2,1.9c0,.2-.1.4-.3.4,0,0,0,0,0,0Z"/>
              <path d="M28.5,3.8s0,0,0,0c-.2,0-.4-.2-.4-.4,0-1,.1-2.4.1-2.5,0-.2.2-.4.4-.4h0c.2,0,.4.2.4.4s0,2.1-.1,2.5c0,.2-.2.4-.4.4Z"/>
              <path d="M29.9,3.8c-.2,0-.4-.2-.4-.4,0-.3-.1-2.9-.1-3s.2-.4.4-.4h0c.2,0,.4.2.4.4,0,.1,0,1.9.1,3,0,.2-.2.4-.4.4,0,0,0,0,0,0Z"/>
              <path d="M23.1,3.8c-.1,0-.3,0-.3-.2l-.8-1.9c0-.2,0-.4.2-.5.2,0,.4,0,.5.2l.4.9.3-1.5c0-.2.2-.3.4-.3.2,0,.3.2.3.4l-.6,2.6c0,.2-.2.3-.3.3,0,0,0,0,0,0Z"/>
            </g>
            <path d="M31.1,3.8c-.2,0-.4-.2-.4-.4,0-.3-.1-2.9-.1-3s.2-.4.4-.4h0c.2,0,.4.2.4.4,0,.1,0,1.9.1,3,0,.2-.2.4-.4.4,0,0,0,0,0,0Z"/>
            <path d="M30.6,3.8c-.2,0-.3-.1-.4-.3l-.2-1.9c0-.2.1-.4.3-.4.2,0,.4.1.4.3l.2,1.9c0,.2-.1.4-.3.4,0,0,0,0,0,0Z"/>
            <path d="M32.2,3.8s0,0,0,0c-.2,0-.4-.2-.4-.4,0-1,.1-2.4.1-2.5,0-.2.2-.4.4-.4h0c.2,0,.4.2.4.4s0,2.1-.1,2.5c0,.2-.2.4-.4.4Z"/>
            <path d="M33.6,3.8c-.2,0-.4-.2-.4-.4,0-.3-.1-2.9-.1-3s.2-.4.4-.4h0c.2,0,.4.2.4.4,0,.1,0,1.9.1,3,0,.2-.2.4-.4.4,0,0,0,0,0,0Z"/>
            <g>
              <path d="M34.2,3.8s0,0,0,0c-.1,0-.3,0-.3-.2,0,0-.3-.8-.4-1.2,0-.2,0-.4.3-.5.2,0,.4,0,.5.3,0,.1,0,.2.1.4l.8-1.6c0-.2.3-.3.5-.2.2,0,.3.3.2.5l-1.2,2.4c0,.1-.2.2-.3.2Z"/>
              <path d="M35.9,3.8c-.2,0-.3-.1-.4-.3l-.2-1.9c0-.2.1-.4.3-.4.2,0,.4.1.4.3l.2,1.9c0,.2-.1.4-.3.4,0,0,0,0,0,0Z"/>
              <path d="M37.5,3.8s0,0,0,0c-.2,0-.4-.2-.4-.4,0-1,.1-2.4.1-2.5,0-.2.2-.4.4-.4h0c.2,0,.4.2.4.4s0,2.1-.1,2.5c0,.2-.2.4-.4.4Z"/>
              <path d="M38.9,3.8c-.2,0-.4-.2-.4-.4,0-.3-.1-2.9-.1-3s.2-.4.4-.4h0c.2,0,.4.2.4.4,0,.1,0,1.9.1,3,0,.2-.2.4-.4.4,0,0,0,0,0,0Z"/>
              <path d="M41.7,3.8c-.2,0-.3-.1-.4-.3l-.2-1.9c0-.2.1-.4.3-.4.2,0,.4.1.4.3l.2,1.9c0,.2-.1.4-.3.4,0,0,0,0,0,0Z"/>
              <path d="M43.3,3.8s0,0,0,0c-.2,0-.4-.2-.4-.4,0-1,.1-2.4.1-2.5,0-.2.2-.4.4-.4h0c.2,0,.4.2.4.4s0,2.1-.1,2.5c0,.2-.2.4-.4.4Z"/>
              <path d="M44.7,3.8c-.2,0-.4-.2-.4-.4,0-.3-.1-2.9-.1-3s.2-.4.4-.4h0c.2,0,.4.2.4.4,0,.1,0,1.9.1,3,0,.2-.2.4-.4.4,0,0,0,0,0,0Z"/>
              <path d="M44.2,3.8c-.2,0-.3-.1-.4-.3l-.2-1.9c0-.2.1-.4.3-.4.2,0,.4.1.4.3l.2,1.9c0,.2-.1.4-.3.4,0,0,0,0,0,0Z"/>
              <path d="M45.8,3.8s0,0,0,0c-.2,0-.4-.2-.4-.4,0-1,.1-2.4.1-2.5,0-.2.2-.4.4-.4h0c.2,0,.4.2.4.4s0,2.1-.1,2.5c0,.2-.2.4-.4.4Z"/>
              <path d="M47.2,3.8c-.2,0-.4-.2-.4-.4,0-.3-.1-2.9-.1-3s.2-.4.4-.4h0c.2,0,.4.2.4.4,0,.1,0,1.9.1,3,0,.2-.2.4-.4.4,0,0,0,0,0,0Z"/>
              <path d="M40.4,3.8c-.1,0-.3,0-.3-.2l-.8-1.9c0-.2,0-.4.2-.5.2,0,.4,0,.5.2l.4.9.3-1.5c0-.2.2-.3.4-.3.2,0,.3.2.3.4l-.6,2.6c0,.2-.2.3-.3.3,0,0,0,0,0,0Z"/>
            </g>
            <path d="M48.4,3.8c-.2,0-.4-.2-.4-.4,0-.3-.1-2.9-.1-3s.2-.4.4-.4h0c.2,0,.4.2.4.4,0,.1,0,1.9.1,3,0,.2-.2.4-.4.4,0,0,0,0,0,0Z"/>
            <path d="M47.8,3.8c-.2,0-.3-.1-.4-.3l-.2-1.9c0-.2.1-.4.3-.4.2,0,.4.1.4.3l.2,1.9c0,.2-.1.4-.3.4,0,0,0,0,0,0Z"/>
            <path d="M49.5,3.8s0,0,0,0c-.2,0-.4-.2-.4-.4,0-1,.1-2.4.1-2.5,0-.2.2-.4.4-.4h0c.2,0,.4.2.4.4s0,2.1-.1,2.5c0,.2-.2.4-.4.4Z"/>
            <path d="M50.8,3.8c-.2,0-.4-.2-.4-.4,0-.3-.1-2.9-.1-3s.2-.4.4-.4h0c.2,0,.4.2.4.4,0,.1,0,1.9.1,3,0,.2-.2.4-.4.4,0,0,0,0,0,0Z"/>
            <g>
              <path d="M51.5,3.8s0,0,0,0c-.1,0-.3,0-.3-.2s-.3-.8-.4-1.2c0-.2,0-.4.3-.5.2,0,.4,0,.5.3,0,.1,0,.2.1.4l.8-1.6c0-.2.3-.3.5-.2.2,0,.3.3.2.5l-1.2,2.4c0,.1-.2.2-.3.2Z"/>
              <path d="M53.1,3.8c-.2,0-.3-.1-.4-.3l-.2-1.9c0-.2.1-.4.3-.4.2,0,.4.1.4.3l.2,1.9c0,.2-.1.4-.3.4,0,0,0,0,0,0Z"/>
              <path d="M54.7,3.8s0,0,0,0c-.2,0-.4-.2-.4-.4,0-1,.1-2.4.1-2.5,0-.2.2-.4.4-.4h0c.2,0,.4.2.4.4s0,2.1-.1,2.5c0,.2-.2.4-.4.4Z"/>
              <path d="M56.1,3.8c-.2,0-.4-.2-.4-.4,0-.3-.1-2.9-.1-3s.2-.4.4-.4h0c.2,0,.4.2.4.4,0,.1,0,1.9.1,3,0,.2-.2.4-.4.4,0,0,0,0,0,0Z"/>
              <path d="M59,3.8c-.2,0-.3-.1-.4-.3l-.2-1.9c0-.2.1-.4.3-.4.2,0,.4.1.4.3l.2,1.9c0,.2-.1.4-.3.4,0,0,0,0,0,0Z"/>
              <path d="M60.6,3.8s0,0,0,0c-.2,0-.4-.2-.4-.4,0-1,.1-2.4.1-2.5,0-.2.2-.4.4-.4h0c.2,0,.4.2.4.4s0,2.1-.1,2.5c0,.2-.2.4-.4.4Z"/>
              <path d="M61.9,3.8c-.2,0-.4-.2-.4-.4,0-.3-.1-2.9-.1-3s.2-.4.4-.4h0c.2,0,.4.2.4.4,0,.1,0,1.9.1,3,0,.2-.2.4-.4.4,0,0,0,0,0,0Z"/>
              <path d="M61.4,3.8c-.2,0-.3-.1-.4-.3l-.2-1.9c0-.2.1-.4.3-.4.2,0,.4.1.4.3l.2,1.9c0,.2-.1.4-.3.4,0,0,0,0,0,0Z"/>
              <path d="M63,3.8s0,0,0,0c-.2,0-.4-.2-.4-.4,0-1,.1-2.4.1-2.5,0-.2.2-.4.4-.4h0c.2,0,.4.2.4.4s0,2.1-.1,2.5c0,.2-.2.4-.4.4Z"/>
              <path d="M64.4,3.8c-.2,0-.4-.2-.4-.4,0-.3-.1-2.9-.1-3s.2-.4.4-.4h0c.2,0,.4.2.4.4,0,.1,0,1.9.1,3,0,.2-.2.4-.4.4,0,0,0,0,0,0Z"/>
              <path d="M57.6,3.8c-.1,0-.3,0-.3-.2l-.8-1.9c0-.2,0-.4.2-.5.2,0,.4,0,.5.2l.4.9.3-1.5c0-.2.2-.3.4-.3.2,0,.3.2.3.4l-.6,2.6c0,.2-.2.3-.3.3,0,0,0,0,0,0Z"/>
            </g>
            <path d="M65.6,3.8c-.2,0-.4-.2-.4-.4,0-.3-.1-2.9-.1-3s.2-.4.4-.4h0c.2,0,.4.2.4.4,0,.1,0,1.9.1,3,0,.2-.2.4-.4.4,0,0,0,0,0,0Z"/>
            <path d="M65.1,3.8c-.2,0-.3-.1-.4-.3l-.2-1.9c0-.2.1-.4.3-.4.2,0,.4.1.4.3l.2,1.9c0,.2-.1.4-.3.4,0,0,0,0,0,0Z"/>
            <path d="M66.7,3.8s0,0,0,0c-.2,0-.4-.2-.4-.4,0-1,.1-2.4.1-2.5,0-.2.2-.4.4-.4h0c.2,0,.4.2.4.4s0,2.1-.1,2.5c0,.2-.2.4-.4.4Z"/>
            <path d="M68.1,3.8c-.2,0-.4-.2-.4-.4,0-.3-.1-2.9-.1-3s.2-.4.4-.4h0c.2,0,.4.2.4.4,0,.1,0,1.9.1,3,0,.2-.2.4-.4.4,0,0,0,0,0,0Z"/>
            <g>
              <path d="M68.7,3.8s0,0,0,0c-.1,0-.3,0-.3-.2,0,0-.3-.8-.4-1.2,0-.2,0-.4.3-.5.2,0,.4,0,.5.3,0,.1,0,.2.1.4l.8-1.6c0-.2.3-.3.5-.2.2,0,.3.3.2.5l-1.2,2.4c0,.1-.2.2-.3.2Z"/>
              <path d="M70.4,3.8c-.2,0-.3-.1-.4-.3l-.2-1.9c0-.2.1-.4.3-.4.2,0,.4.1.4.3l.2,1.9c0,.2-.1.4-.3.4,0,0,0,0,0,0Z"/>
              <path d="M72,3.8s0,0,0,0c-.2,0-.4-.2-.4-.4,0-1,.1-2.4.1-2.5,0-.2.2-.4.4-.4h0c.2,0,.4.2.4.4s0,2.1-.1,2.5c0,.2-.2.4-.4.4Z"/>
              <path d="M73.4,3.8c-.2,0-.4-.2-.4-.4,0-.3-.1-2.9-.1-3s.2-.4.4-.4h0c.2,0,.4.2.4.4,0,.1,0,1.9.1,3,0,.2-.2.4-.4.4,0,0,0,0,0,0Z"/>
              <path d="M76.2,3.8c-.2,0-.3-.1-.4-.3l-.2-1.9c0-.2.1-.4.3-.4.2,0,.4.1.4.3l.2,1.9c0,.2-.1.4-.3.4,0,0,0,0,0,0Z"/>
              <path d="M77.8,3.8s0,0,0,0c-.2,0-.4-.2-.4-.4,0-1,.1-2.4.1-2.5,0-.2.2-.4.4-.4h0c.2,0,.4.2.4.4s0,2.1-.1,2.5c0,.2-.2.4-.4.4Z"/>
              <path d="M79.2,3.8c-.2,0-.4-.2-.4-.4,0-.3-.1-2.9-.1-3s.2-.4.4-.4h0c.2,0,.4.2.4.4,0,.1,0,1.9.1,3,0,.2-.2.4-.4.4,0,0,0,0,0,0Z"/>
              <path d="M78.7,3.8c-.2,0-.3-.1-.4-.3l-.2-1.9c0-.2.1-.4.3-.4.2,0,.4.1.4.3l.2,1.9c0,.2-.1.4-.3.4,0,0,0,0,0,0Z"/>
              <path d="M80.3,3.8s0,0,0,0c-.2,0-.4-.2-.4-.4,0-1,.1-2.4.1-2.5,0-.2.2-.4.4-.4h0c.2,0,.4.2.4.4s0,2.1-.1,2.5c0,.2-.2.4-.4.4Z"/>
              <path d="M81.7,3.8c-.2,0-.4-.2-.4-.4,0-.3-.1-2.9-.1-3s.2-.4.4-.4h0c.2,0,.4.2.4.4,0,.1,0,1.9.1,3,0,.2-.2.4-.4.4,0,0,0,0,0,0Z"/>
              <path d="M74.9,3.8c-.1,0-.3,0-.3-.2l-.8-1.9c0-.2,0-.4.2-.5.2,0,.4,0,.5.2l.4.9.3-1.5c0-.2.2-.3.4-.3.2,0,.3.2.3.4l-.6,2.6c0,.2-.2.3-.3.3,0,0,0,0,0,0Z"/>
            </g>
            <path d="M82.9,3.8c-.2,0-.4-.2-.4-.4,0-.3-.1-2.9-.1-3s.2-.4.4-.4h0c.2,0,.4.2.4.4,0,.1,0,1.9.1,3,0,.2-.2.4-.4.4,0,0,0,0,0,0Z"/>
            <path d="M82.3,3.8c-.2,0-.3-.1-.4-.3l-.2-1.9c0-.2.1-.4.3-.4.2,0,.4.1.4.3l.2,1.9c0,.2-.1.4-.3.4,0,0,0,0,0,0Z"/>
            <path d="M84,3.8s0,0,0,0c-.2,0-.4-.2-.4-.4,0-1,.1-2.4.1-2.5,0-.2.2-.4.4-.4h0c.2,0,.4.2.4.4s0,2.1-.1,2.5c0,.2-.2.4-.4.4Z"/>
            <path d="M85.3,3.8c-.2,0-.4-.2-.4-.4,0-.3-.1-2.9-.1-3s.2-.4.4-.4h0c.2,0,.4.2.4.4,0,.1,0,1.9.1,3,0,.2-.2.4-.4.4,0,0,0,0,0,0Z"/>
            <g>
              <path d="M86,3.8s0,0,0,0c-.1,0-.3,0-.3-.2,0,0-.3-.8-.4-1.2,0-.2,0-.4.3-.5.2,0,.4,0,.5.3,0,.1,0,.2.1.4l.8-1.6c0-.2.3-.3.5-.2.2,0,.3.3.2.5l-1.2,2.4c0,.1-.2.2-.3.2Z"/>
              <path d="M87.6,3.8c-.2,0-.3-.1-.4-.3l-.2-1.9c0-.2.1-.4.3-.4.2,0,.4.1.4.3l.2,1.9c0,.2-.1.4-.3.4,0,0,0,0,0,0Z"/>
              <path d="M89.2,3.8s0,0,0,0c-.2,0-.4-.2-.4-.4,0-1,.1-2.4.1-2.5,0-.2.2-.4.4-.4h0c.2,0,.4.2.4.4s0,2.1-.1,2.5c0,.2-.2.4-.4.4Z"/>
              <path d="M90.6,3.8c-.2,0-.4-.2-.4-.4,0-.3-.1-2.9-.1-3s.2-.4.4-.4h0c.2,0,.4.2.4.4,0,.1,0,1.9.1,3,0,.2-.2.4-.4.4,0,0,0,0,0,0Z"/>
              <path d="M93.4,3.8c-.2,0-.3-.1-.4-.3l-.2-1.9c0-.2.1-.4.3-.4.2,0,.4.1.4.3l.2,1.9c0,.2-.1.4-.3.4,0,0,0,0,0,0Z"/>
              <path d="M95.1,3.8s0,0,0,0c-.2,0-.4-.2-.4-.4,0-1,.1-2.4.1-2.5,0-.2.2-.4.4-.4h0c.2,0,.4.2.4.4s0,2.1-.1,2.5c0,.2-.2.4-.4.4Z"/>
              <path d="M96.4,3.8c-.2,0-.4-.2-.4-.4,0-.3-.1-2.9-.1-3s.2-.4.4-.4h0c.2,0,.4.2.4.4,0,.1,0,1.9.1,3,0,.2-.2.4-.4.4,0,0,0,0,0,0Z"/>
              <path d="M95.9,3.8c-.2,0-.3-.1-.4-.3l-.2-1.9c0-.2.1-.4.3-.4.2,0,.4.1.4.3l.2,1.9c0,.2-.1.4-.3.4,0,0,0,0,0,0Z"/>
              <path d="M97.5,3.8s0,0,0,0c-.2,0-.4-.2-.4-.4,0-1,.1-2.4.1-2.5,0-.2.2-.4.4-.4h0c.2,0,.4.2.4.4s0,2.1-.1,2.5c0,.2-.2.4-.4.4Z"/>
              <path d="M92.1,3.8c-.1,0-.3,0-.3-.2l-.8-1.9c0-.2,0-.4.2-.5.2,0,.4,0,.5.2l.4.9.3-1.5c0-.2.2-.3.4-.3.2,0,.3.2.3.4l-.6,2.6c0,.2-.2.3-.3.3,0,0,0,0,0,0Z"/>
            </g>
          </g>
          <g>
            <path d="M96.1,65.8c0,0-.1,0-.2,0-.2,0-.3-.3-.2-.5l1.2-2.4c0-.1.2-.2.3-.2.1,0,.3,0,.3.2,0,0,.3.8.4,1.2,0,.2,0,.4-.3.5-.2,0-.4,0-.5-.3,0-.1,0-.2-.1-.4l-.8,1.6c0,.1-.2.2-.3.2Z"/>
            <path d="M95.8,65.3c-.2,0-.3-.1-.4-.3l-.2-1.9c0-.2.1-.4.3-.4.2,0,.4.1.4.3l.2,1.9c0,.2-.1.4-.3.4,0,0,0,0,0,0Z"/>
            <path d="M93.9,65.9h0c-.2,0-.4-.2-.4-.4s0-2.1.1-2.5c0-.2.2-.4.4-.4.2,0,.4.2.4.4,0,1-.1,2.4-.1,2.5,0,.2-.2.4-.4.4Z"/>
            <path d="M92.7,66.4c-.2,0-.4-.2-.4-.4,0-.1,0-1.9-.1-3,0-.2.2-.4.4-.4.2,0,.4.2.4.4,0,.3.1,2.9.1,3s-.2.4-.4.4h0Z"/>
            <path d="M90,65.3c-.2,0-.3-.1-.4-.3l-.2-1.9c0-.2.1-.4.3-.4.2,0,.4.1.4.3l.2,1.9c0,.2-.1.4-.3.4,0,0,0,0,0,0Z"/>
            <path d="M88.1,65.9h0c-.2,0-.4-.2-.4-.4s0-2.1.1-2.5c0-.2.2-.4.4-.4.2,0,.4.2.4.4,0,1-.1,2.4-.1,2.5,0,.2-.2.4-.4.4Z"/>
            <path d="M86.9,66.4c-.2,0-.4-.2-.4-.4,0-.1,0-1.9-.1-3,0-.2.2-.4.4-.4.2,0,.4.2.4.4,0,.3.1,2.9.1,3s-.2.4-.4.4h0Z"/>
            <path d="M87.5,65.3c-.2,0-.3-.1-.4-.3l-.2-1.9c0-.2.1-.4.3-.4.2,0,.4.1.4.3l.2,1.9c0,.2-.1.4-.3.4,0,0,0,0,0,0Z"/>
            <path d="M85.6,65.9h0c-.2,0-.4-.2-.4-.4s0-2.1.1-2.5c0-.2.2-.4.4-.4.2,0,.4.2.4.4,0,1-.1,2.4-.1,2.5,0,.2-.2.4-.4.4Z"/>
            <path d="M84.4,66.4c-.2,0-.4-.2-.4-.4,0-.1,0-1.9-.1-3,0-.2.2-.4.4-.4.2,0,.4.2.4.4,0,.3.1,2.9.1,3s-.2.4-.4.4h0Z"/>
            <path d="M90.5,66s0,0,0,0c-.2,0-.3-.2-.3-.4l.6-2.6c0-.2.2-.3.3-.3.2,0,.3,0,.4.2l.8,1.9c0,.2,0,.4-.2.5-.2,0-.4,0-.5-.2l-.4-.9-.3,1.5c0,.2-.2.3-.4.3Z"/>
            <g>
              <path d="M82.5,65.8c0,0-.1,0-.2,0-.2,0-.3-.3-.2-.5l1.2-2.4c0-.1.2-.2.3-.2.1,0,.3,0,.3.2,0,0,.3.8.4,1.2,0,.2,0,.4-.3.5-.2,0-.4,0-.5-.3,0-.1,0-.2-.1-.4l-.8,1.6c0,.1-.2.2-.3.2Z"/>
              <path d="M82.2,65.3c-.2,0-.3-.1-.4-.3l-.2-1.9c0-.2.1-.4.3-.4.2,0,.4.1.4.3l.2,1.9c0,.2-.1.4-.3.4,0,0,0,0,0,0Z"/>
              <path d="M80.3,65.9h0c-.2,0-.4-.2-.4-.4s0-2.1.1-2.5c0-.2.2-.4.4-.4.2,0,.4.2.4.4,0,1-.1,2.4-.1,2.5,0,.2-.2.4-.4.4Z"/>
              <path d="M79.2,66.4c-.2,0-.4-.2-.4-.4,0-.1,0-1.9-.1-3,0-.2.2-.4.4-.4.2,0,.4.2.4.4,0,.3.1,2.9.1,3s-.2.4-.4.4h0Z"/>
              <path d="M76.4,65.3c-.2,0-.3-.1-.4-.3l-.2-1.9c0-.2.1-.4.3-.4.2,0,.4.1.4.3l.2,1.9c0,.2-.1.4-.3.4,0,0,0,0,0,0Z"/>
              <path d="M74.5,65.9h0c-.2,0-.4-.2-.4-.4s0-2.1.1-2.5c0-.2.2-.4.4-.4.2,0,.4.2.4.4,0,1-.1,2.4-.1,2.5,0,.2-.2.4-.4.4Z"/>
              <path d="M73.3,66.4c-.2,0-.4-.2-.4-.4,0-.1,0-1.9-.1-3,0-.2.2-.4.4-.4.2,0,.4.2.4.4,0,.3.1,2.9.1,3s-.2.4-.4.4h0Z"/>
              <path d="M73.9,65.3c-.2,0-.3-.1-.4-.3l-.2-1.9c0-.2.1-.4.3-.4.2,0,.4.1.4.3l.2,1.9c0,.2-.1.4-.3.4,0,0,0,0,0,0Z"/>
              <path d="M72,65.9h0c-.2,0-.4-.2-.4-.4s0-2.1.1-2.5c0-.2.2-.4.4-.4.2,0,.4.2.4.4,0,1-.1,2.4-.1,2.5,0,.2-.2.4-.4.4Z"/>
              <path d="M70.9,66.4c-.2,0-.4-.2-.4-.4,0-.1,0-1.9-.1-3,0-.2.2-.4.4-.4.2,0,.4.2.4.4,0,.3.1,2.9.1,3s-.2.4-.4.4h0Z"/>
              <path d="M76.9,66s0,0,0,0c-.2,0-.3-.2-.3-.4l.6-2.6c0-.2.2-.3.3-.3.2,0,.3,0,.4.2l.8,1.9c0,.2,0,.4-.2.5-.2,0-.4,0-.5-.2l-.4-.9-.3,1.5c0,.2-.2.3-.4.3Z"/>
            </g>
            <path d="M69.7,66.4c-.2,0-.4-.2-.4-.4,0-.1,0-1.9-.1-3,0-.2.2-.4.4-.4.2,0,.4.2.4.4,0,.3.1,2.9.1,3s-.2.4-.4.4h0Z"/>
            <path d="M70.3,65.3c-.2,0-.3-.1-.4-.3l-.2-1.9c0-.2.1-.4.3-.4.2,0,.4.1.4.3l.2,1.9c0,.2-.1.4-.3.4,0,0,0,0,0,0Z"/>
            <path d="M68.3,65.9h0c-.2,0-.4-.2-.4-.4s0-2.1.1-2.5c0-.2.2-.4.4-.4.2,0,.4.2.4.4,0,1-.1,2.4-.1,2.5,0,.2-.2.4-.4.4Z"/>
            <path d="M67.2,66.4c-.2,0-.4-.2-.4-.4,0-.1,0-1.9-.1-3,0-.2.2-.4.4-.4.2,0,.4.2.4.4,0,.3.1,2.9.1,3s-.2.4-.4.4h0Z"/>
            <g>
              <path d="M65.2,65.8c0,0-.1,0-.2,0-.2,0-.3-.3-.2-.5l1.2-2.4c0-.1.2-.2.3-.2.1,0,.3,0,.3.2,0,0,.3.8.4,1.2,0,.2,0,.4-.3.5-.2,0-.4,0-.5-.3,0-.1,0-.2-.1-.4l-.8,1.6c0,.1-.2.2-.3.2Z"/>
              <path d="M65,65.3c-.2,0-.3-.1-.4-.3l-.2-1.9c0-.2.1-.4.3-.4.2,0,.4.1.4.3l.2,1.9c0,.2-.1.4-.3.4,0,0,0,0,0,0Z"/>
              <path d="M63.1,65.9h0c-.2,0-.4-.2-.4-.4s0-2.1.1-2.5c0-.2.2-.4.4-.4.2,0,.4.2.4.4,0,1-.1,2.4-.1,2.5,0,.2-.2.4-.4.4Z"/>
              <path d="M61.9,66.4c-.2,0-.4-.2-.4-.4,0-.1,0-1.9-.1-3,0-.2.2-.4.4-.4.2,0,.4.2.4.4,0,.3.1,2.9.1,3s-.2.4-.4.4h0Z"/>
              <path d="M59.2,65.3c-.2,0-.3-.1-.4-.3l-.2-1.9c0-.2.1-.4.3-.4.2,0,.4.1.4.3l.2,1.9c0,.2-.1.4-.3.4,0,0,0,0,0,0Z"/>
              <path d="M57.2,65.9h0c-.2,0-.4-.2-.4-.4s0-2.1.1-2.5c0-.2.2-.4.4-.4.2,0,.4.2.4.4,0,1-.1,2.4-.1,2.5,0,.2-.2.4-.4.4Z"/>
              <path d="M56.1,66.4c-.2,0-.4-.2-.4-.4,0-.1,0-1.9-.1-3,0-.2.2-.4.4-.4.2,0,.4.2.4.4,0,.3.1,2.9.1,3s-.2.4-.4.4h0Z"/>
              <path d="M56.7,65.3c-.2,0-.3-.1-.4-.3l-.2-1.9c0-.2.1-.4.3-.4.2,0,.4.1.4.3l.2,1.9c0,.2-.1.4-.3.4,0,0,0,0,0,0Z"/>
              <path d="M54.8,65.9h0c-.2,0-.4-.2-.4-.4s0-2.1.1-2.5c0-.2.2-.4.4-.4.2,0,.4.2.4.4,0,1-.1,2.4-.1,2.5,0,.2-.2.4-.4.4Z"/>
              <path d="M53.6,66.4c-.2,0-.4-.2-.4-.4,0-.1,0-1.9-.1-3,0-.2.2-.4.4-.4.2,0,.4.2.4.4,0,.3.1,2.9.1,3s-.2.4-.4.4h0Z"/>
              <path d="M59.7,66s0,0,0,0c-.2,0-.3-.2-.3-.4l.6-2.6c0-.2.2-.3.3-.3.2,0,.3,0,.4.2l.8,1.9c0,.2,0,.4-.2.5-.2,0-.4,0-.5-.2l-.4-.9-.3,1.5c0,.2-.2.3-.4.3Z"/>
            </g>
            <path d="M52.4,66.4c-.2,0-.4-.2-.4-.4,0-.1,0-1.9-.1-3,0-.2.2-.4.4-.4.2,0,.4.2.4.4,0,.3.1,2.9.1,3s-.2.4-.4.4h0Z"/>
            <path d="M53,65.3c-.2,0-.3-.1-.4-.3l-.2-1.9c0-.2.1-.4.3-.4.2,0,.4.1.4.3l.2,1.9c0,.2-.1.4-.3.4,0,0,0,0,0,0Z"/>
            <path d="M51.1,65.9h0c-.2,0-.4-.2-.4-.4s0-2.1.1-2.5c0-.2.2-.4.4-.4.2,0,.4.2.4.4,0,1-.1,2.4-.1,2.5,0,.2-.2.4-.4.4Z"/>
            <path d="M49.9,66.4c-.2,0-.4-.2-.4-.4,0-.1,0-1.9-.1-3,0-.2.2-.4.4-.4.2,0,.4.2.4.4,0,.3.1,2.9.1,3s-.2.4-.4.4h0Z"/>
            <g>
              <path d="M48,65.8c0,0-.1,0-.2,0-.2,0-.3-.3-.2-.5l1.2-2.4c0-.1.2-.2.3-.2.1,0,.3,0,.3.2,0,0,.3.8.4,1.2,0,.2,0,.4-.3.5-.2,0-.4,0-.5-.3,0-.1,0-.2-.1-.4l-.8,1.6c0,.1-.2.2-.3.2Z"/>
              <path d="M47.7,65.3c-.2,0-.3-.1-.4-.3l-.2-1.9c0-.2.1-.4.3-.4.2,0,.4.1.4.3l.2,1.9c0,.2-.1.4-.3.4,0,0,0,0,0,0Z"/>
              <path d="M45.8,65.9h0c-.2,0-.4-.2-.4-.4s0-2.1.1-2.5c0-.2.2-.4.4-.4.2,0,.4.2.4.4,0,1-.1,2.4-.1,2.5,0,.2-.2.4-.4.4Z"/>
              <path d="M44.7,66.4c-.2,0-.4-.2-.4-.4,0-.1,0-1.9-.1-3,0-.2.2-.4.4-.4.2,0,.4.2.4.4,0,.3.1,2.9.1,3s-.2.4-.4.4h0Z"/>
              <path d="M41.9,65.3c-.2,0-.3-.1-.4-.3l-.2-1.9c0-.2.1-.4.3-.4.2,0,.4.1.4.3l.2,1.9c0,.2-.1.4-.3.4,0,0,0,0,0,0Z"/>
              <path d="M40,65.9h0c-.2,0-.4-.2-.4-.4s0-2.1.1-2.5c0-.2.2-.4.4-.4.2,0,.4.2.4.4,0,1-.1,2.4-.1,2.5,0,.2-.2.4-.4.4Z"/>
              <path d="M38.8,66.4c-.2,0-.4-.2-.4-.4,0-.1,0-1.9-.1-3,0-.2.2-.4.4-.4.2,0,.4.2.4.4,0,.3.1,2.9.1,3s-.2.4-.4.4h0Z"/>
              <path d="M39.4,65.3c-.2,0-.3-.1-.4-.3l-.2-1.9c0-.2.1-.4.3-.4.2,0,.4.1.4.3l.2,1.9c0,.2-.1.4-.3.4,0,0,0,0,0,0Z"/>
              <path d="M37.5,65.9h0c-.2,0-.4-.2-.4-.4s0-2.1.1-2.5c0-.2.2-.4.4-.4.2,0,.4.2.4.4,0,1-.1,2.4-.1,2.5,0,.2-.2.4-.4.4Z"/>
              <path d="M36.4,66.4c-.2,0-.4-.2-.4-.4,0-.1,0-1.9-.1-3,0-.2.2-.4.4-.4.2,0,.4.2.4.4,0,.3.1,2.9.1,3s-.2.4-.4.4h0Z"/>
              <path d="M42.4,66s0,0,0,0c-.2,0-.3-.2-.3-.4l.6-2.6c0-.2.2-.3.3-.3.2,0,.3,0,.4.2l.8,1.9c0,.2,0,.4-.2.5-.2,0-.4,0-.5-.2l-.4-.9-.3,1.5c0,.2-.2.3-.4.3Z"/>
            </g>
            <path d="M35.2,66.4c-.2,0-.4-.2-.4-.4,0-.1,0-1.9-.1-3,0-.2.2-.4.4-.4.2,0,.4.2.4.4,0,.3.1,2.9.1,3s-.2.4-.4.4h0Z"/>
            <path d="M35.8,65.3c-.2,0-.3-.1-.4-.3l-.2-1.9c0-.2.1-.4.3-.4.2,0,.4.1.4.3l.2,1.9c0,.2-.1.4-.3.4,0,0,0,0,0,0Z"/>
            <path d="M33.9,65.9h0c-.2,0-.4-.2-.4-.4s0-2.1.1-2.5c0-.2.2-.4.4-.4.2,0,.4.2.4.4,0,1-.1,2.4-.1,2.5,0,.2-.2.4-.4.4Z"/>
            <path d="M32.7,66.4c-.2,0-.4-.2-.4-.4,0-.1,0-1.9-.1-3,0-.2.2-.4.4-.4.2,0,.4.2.4.4,0,.3.1,2.9.1,3s-.2.4-.4.4h0Z"/>
            <g>
              <path d="M30.8,65.8c0,0-.1,0-.2,0-.2,0-.3-.3-.2-.5l1.2-2.4c0-.1.2-.2.3-.2.1,0,.3,0,.3.2,0,0,.3.8.4,1.2,0,.2,0,.4-.3.5-.2,0-.4,0-.5-.3,0-.1,0-.2-.1-.4l-.8,1.6c0,.1-.2.2-.3.2Z"/>
              <path d="M30.5,65.3c-.2,0-.3-.1-.4-.3l-.2-1.9c0-.2.1-.4.3-.4.2,0,.4.1.4.3l.2,1.9c0,.2-.1.4-.3.4,0,0,0,0,0,0Z"/>
              <path d="M28.6,65.9h0c-.2,0-.4-.2-.4-.4s0-2.1.1-2.5c0-.2.2-.4.4-.4.2,0,.4.2.4.4,0,1-.1,2.4-.1,2.5,0,.2-.2.4-.4.4Z"/>
              <path d="M27.4,66.4c-.2,0-.4-.2-.4-.4,0-.1,0-1.9-.1-3,0-.2.2-.4.4-.4.2,0,.4.2.4.4,0,.3.1,2.9.1,3s-.2.4-.4.4h0Z"/>
              <path d="M24.7,65.3c-.2,0-.3-.1-.4-.3l-.2-1.9c0-.2.1-.4.3-.4.2,0,.4.1.4.3l.2,1.9c0,.2-.1.4-.3.4,0,0,0,0,0,0Z"/>
              <path d="M22.7,65.9h0c-.2,0-.4-.2-.4-.4s0-2.1.1-2.5c0-.2.2-.4.4-.4.2,0,.4.2.4.4,0,1-.1,2.4-.1,2.5,0,.2-.2.4-.4.4Z"/>
              <path d="M21.6,66.4c-.2,0-.4-.2-.4-.4,0-.1,0-1.9-.1-3,0-.2.2-.4.4-.4.2,0,.4.2.4.4,0,.3.1,2.9.1,3s-.2.4-.4.4h0Z"/>
              <path d="M22.2,65.3c-.2,0-.3-.1-.4-.3l-.2-1.9c0-.2.1-.4.3-.4.2,0,.4.1.4.3l.2,1.9c0,.2-.1.4-.3.4,0,0,0,0,0,0Z"/>
              <path d="M20.3,65.9h0c-.2,0-.4-.2-.4-.4s0-2.1.1-2.5c0-.2.2-.4.4-.4.2,0,.4.2.4.4,0,1-.1,2.4-.1,2.5,0,.2-.2.4-.4.4Z"/>
              <path d="M19.1,66.4c-.2,0-.4-.2-.4-.4,0-.1,0-1.9-.1-3,0-.2.2-.4.4-.4.2,0,.4.2.4.4,0,.3.1,2.9.1,3s-.2.4-.4.4h0Z"/>
              <path d="M25.2,66s0,0,0,0c-.2,0-.3-.2-.3-.4l.6-2.6c0-.2.2-.3.3-.3.2,0,.3,0,.4.2l.8,1.9c0,.2,0,.4-.2.5-.2,0-.4,0-.5-.2l-.4-.9-.3,1.5c0,.2-.2.3-.4.3Z"/>
            </g>
            <path d="M17.9,66.4c-.2,0-.4-.2-.4-.4,0-.1,0-1.9-.1-3,0-.2.2-.4.4-.4.2,0,.4.2.4.4,0,.3.1,2.9.1,3s-.2.4-.4.4h0Z"/>
            <path d="M18.5,65.3c-.2,0-.3-.1-.4-.3l-.2-1.9c0-.2.1-.4.3-.4.2,0,.4.1.4.3l.2,1.9c0,.2-.1.4-.3.4,0,0,0,0,0,0Z"/>
            <path d="M16.6,65.9h0c-.2,0-.4-.2-.4-.4s0-2.1.1-2.5c0-.2.2-.4.4-.4.2,0,.4.2.4.4,0,1-.1,2.4-.1,2.5,0,.2-.2.4-.4.4Z"/>
            <path d="M15.4,66.4c-.2,0-.4-.2-.4-.4,0-.1,0-1.9-.1-3,0-.2.2-.4.4-.4.2,0,.4.2.4.4,0,.3.1,2.9.1,3s-.2.4-.4.4h0Z"/>
            <g>
              <path d="M13.5,65.8c0,0-.1,0-.2,0-.2,0-.3-.3-.2-.5l1.2-2.4c0-.1.2-.2.3-.2.1,0,.3,0,.3.2,0,0,.3.8.4,1.2,0,.2,0,.4-.3.5-.2,0-.4,0-.5-.3,0-.1,0-.2-.1-.4l-.8,1.6c0,.1-.2.2-.3.2Z"/>
              <path d="M13.3,65.3c-.2,0-.3-.1-.4-.3l-.2-1.9c0-.2.1-.4.3-.4.2,0,.4.1.4.3l.2,1.9c0,.2-.1.4-.3.4,0,0,0,0,0,0Z"/>
              <path d="M11.3,65.9h0c-.2,0-.4-.2-.4-.4s0-2.1.1-2.5c0-.2.2-.4.4-.4.2,0,.4.2.4.4,0,1-.1,2.4-.1,2.5,0,.2-.2.4-.4.4Z"/>
              <path d="M10.2,66.4c-.2,0-.4-.2-.4-.4,0-.1,0-1.9-.1-3,0-.2.2-.4.4-.4.2,0,.4.2.4.4,0,.3.1,2.9.1,3s-.2.4-.4.4h0Z"/>
              <path d="M7.4,65.3c-.2,0-.3-.1-.4-.3l-.2-1.9c0-.2.1-.4.3-.4.2,0,.4.1.4.3l.2,1.9c0,.2-.1.4-.3.4,0,0,0,0,0,0Z"/>
              <path d="M5.5,65.9h0c-.2,0-.4-.2-.4-.4s0-2.1.1-2.5c0-.2.2-.4.4-.4.2,0,.4.2.4.4,0,1-.1,2.4-.1,2.5,0,.2-.2.4-.4.4Z"/>
              <path d="M4.3,66.4c-.2,0-.4-.2-.4-.4,0-.1,0-1.9-.1-3,0-.2.2-.4.4-.4.2,0,.4.2.4.4,0,.3.1,2.9.1,3s-.2.4-.4.4h0Z"/>
              <path d="M5,65.3c-.2,0-.3-.1-.4-.3l-.2-1.9c0-.2.1-.4.3-.4.2,0,.4.1.4.3l.2,1.9c0,.2-.1.4-.3.4,0,0,0,0,0,0Z"/>
              <path d="M3,65.9h0c-.2,0-.4-.2-.4-.4s0-2.1.1-2.5c0-.2.2-.4.4-.4.2,0,.4.2.4.4,0,1-.1,2.4-.1,2.5,0,.2-.2.4-.4.4Z"/>
              <path d="M7.9,66s0,0,0,0c-.2,0-.3-.2-.3-.4l.6-2.6c0-.2.2-.3.3-.3.2,0,.3,0,.4.2l.8,1.9c0,.2,0,.4-.2.5-.2,0-.4,0-.5-.2l-.4-.9-.3,1.5c0,.2-.2.3-.4.3Z"/>
            </g>
          </g>
          <g>
            <path d="M100.3,5.2c0,0-.1,0-.2,0l-2.2-1.3c-.1,0-.2-.2-.2-.3,0-.1,0-.3.2-.3,0,0,.7-.3,1.2-.5.2,0,.4,0,.5.2,0,.2,0,.4-.2.5-.1,0-.3,0-.4.2l1.6.9c.2.1.2.3.1.5,0,.1-.2.2-.3.2Z"/>
            <path d="M98.1,5.7c-.2,0-.3-.1-.4-.3,0-.2.1-.4.3-.4l1.8-.2c.2,0,.4.1.4.3,0,.2-.1.4-.3.4l-1.8.2s0,0,0,0Z"/>
            <path d="M100.5,7.5c-.1,0-1.8,0-2.3-.1-.2,0-.4-.2-.3-.4,0-.2.2-.4.4-.3.9,0,2.2.1,2.3.1.2,0,.4.2.4.4,0,.2-.2.4-.4.4Z"/>
            <path d="M98.1,8.9c-.2,0-.4-.2-.4-.4,0-.2.1-.4.4-.4.3,0,2.7-.1,2.8-.1s.4.2.4.4c0,.2-.2.4-.4.4-.1,0-1.7,0-2.8.1,0,0,0,0,0,0Z"/>
            <path d="M98.1,12c-.2,0-.3-.1-.4-.3,0-.2.1-.4.3-.4l1.8-.2c.2,0,.4.1.4.3,0,.2-.1.4-.3.4l-1.8.2s0,0,0,0Z"/>
            <path d="M100.5,13.8c-.1,0-1.8,0-2.3-.1-.2,0-.4-.2-.3-.4,0-.2.2-.4.4-.3.9,0,2.2.1,2.3.1.2,0,.4.2.4.4,0,.2-.2.4-.4.4Z"/>
            <path d="M98.1,15.2c-.2,0-.4-.2-.4-.4,0-.2.1-.4.4-.4.3,0,2.7-.1,2.8-.1s.4.2.4.4c0,.2-.2.4-.4.4-.1,0-1.7,0-2.8.1,0,0,0,0,0,0Z"/>
            <path d="M98.1,14.7c-.2,0-.3-.1-.4-.3,0-.2.1-.4.3-.4l1.8-.2c.2,0,.4.1.4.3,0,.2-.1.4-.3.4l-1.8.2s0,0,0,0Z"/>
            <path d="M100.5,16.5c-.1,0-1.8,0-2.3-.1-.2,0-.4-.2-.3-.4,0-.2.2-.4.4-.3.9,0,2.2.1,2.3.1.2,0,.4.2.4.4,0,.2-.2.4-.4.4Z"/>
            <path d="M98.1,17.9c-.2,0-.4-.2-.4-.4,0-.2.1-.4.4-.4.3,0,2.7-.1,2.8-.1s.4.2.4.4c0,.2-.2.4-.4.4-.1,0-1.7,0-2.8.1,0,0,0,0,0,0Z"/>
            <path d="M100.6,11.2s0,0,0,0l-2.4-.6c-.1,0-.3-.2-.3-.3,0-.2,0-.3.2-.4l1.8-.9c.2,0,.4,0,.5.2,0,.2,0,.4-.2.5l-.9.4,1.5.4c.2,0,.3.3.3.4,0,.2-.2.3-.4.3Z"/>
            <path d="M98.1,19.2c-.2,0-.4-.2-.4-.4,0-.2.1-.4.4-.4.3,0,2.7-.1,2.8-.1s.4.2.4.4c0,.2-.2.4-.4.4-.1,0-1.7,0-2.8.1,0,0,0,0,0,0Z"/>
            <path d="M98.1,18.6c-.2,0-.3-.1-.4-.3,0-.2.1-.4.3-.4l1.8-.2c.2,0,.4.1.4.3,0,.2-.1.4-.3.4l-1.8.2s0,0,0,0Z"/>
            <path d="M100.5,20.5c-.1,0-1.8,0-2.3-.1-.2,0-.4-.2-.3-.4,0-.2.2-.4.4-.3.9,0,2.2.1,2.3.1.2,0,.4.2.4.4,0,.2-.2.4-.4.4Z"/>
            <path d="M98.1,21.8c-.2,0-.4-.2-.4-.4,0-.2.1-.4.4-.4.3,0,2.7-.1,2.8-.1s.4.2.4.4c0,.2-.2.4-.4.4-.1,0-1.7,0-2.8.1,0,0,0,0,0,0Z"/>
            <path d="M100.3,23.8c0,0-.1,0-.2,0l-2.2-1.3c-.1,0-.2-.2-.2-.3,0-.1,0-.3.2-.3,0,0,.7-.3,1.2-.5.2,0,.4,0,.5.2,0,.2,0,.4-.2.5-.1,0-.3,0-.4.2l1.6.9c.2.1.2.3.1.5,0,.1-.2.2-.3.2Z"/>
            <path d="M98.1,24.3c-.2,0-.3-.1-.4-.3,0-.2.1-.4.3-.4l1.8-.2c.2,0,.4.1.4.3,0,.2-.1.4-.3.4l-1.8.2s0,0,0,0Z"/>
            <path d="M100.5,26.2c-.1,0-1.8,0-2.3-.1-.2,0-.4-.2-.3-.4,0-.2.2-.4.4-.3.9,0,2.2.1,2.3.1.2,0,.4.2.4.4,0,.2-.2.4-.4.4Z"/>
            <path d="M98.1,27.6c-.2,0-.4-.2-.4-.4,0-.2.1-.4.4-.4.3,0,2.7-.1,2.8-.1s.4.2.4.4c0,.2-.2.4-.4.4-.1,0-1.7,0-2.8.1,0,0,0,0,0,0Z"/>
            <path d="M98.1,30.6c-.2,0-.3-.1-.4-.3,0-.2.1-.4.3-.4l1.8-.2c.2,0,.4.1.4.3,0,.2-.1.4-.3.4l-1.8.2s0,0,0,0Z"/>
            <path d="M100.5,32.5c-.1,0-1.8,0-2.3-.1-.2,0-.4-.2-.3-.4,0-.2.2-.4.4-.3.9,0,2.2.1,2.3.1.2,0,.4.2.4.4,0,.2-.2.4-.4.4Z"/>
            <path d="M98.1,33.9c-.2,0-.4-.2-.4-.4,0-.2.1-.4.4-.4.3,0,2.7-.1,2.8-.1s.4.2.4.4c0,.2-.2.4-.4.4-.1,0-1.7,0-2.8.1,0,0,0,0,0,0Z"/>
            <path d="M98.1,33.3c-.2,0-.3-.1-.4-.3,0-.2.1-.4.3-.4l1.8-.2c.2,0,.4.1.4.3,0,.2-.1.4-.3.4l-1.8.2s0,0,0,0Z"/>
            <path d="M100.5,35.2c-.1,0-1.8,0-2.3-.1-.2,0-.4-.2-.3-.4,0-.2.2-.4.4-.3.9,0,2.2.1,2.3.1.2,0,.4.2.4.4,0,.2-.2.4-.4.4Z"/>
            <path d="M98.1,36.5c-.2,0-.4-.2-.4-.4,0-.2.1-.4.4-.4.3,0,2.7-.1,2.8-.1s.4.2.4.4c0,.2-.2.4-.4.4-.1,0-1.7,0-2.8.1,0,0,0,0,0,0Z"/>
            <path d="M100.6,29.8s0,0,0,0l-2.4-.6c-.1,0-.3-.2-.3-.3,0-.2,0-.3.2-.4l1.8-.9c.2,0,.4,0,.5.2,0,.2,0,.4-.2.5l-.9.4,1.5.4c.2,0,.3.3.3.4,0,.2-.2.3-.4.3Z"/>
            <path d="M98.1,37.8c-.2,0-.4-.2-.4-.4,0-.2.1-.4.4-.4.3,0,2.7-.1,2.8-.1s.4.2.4.4c0,.2-.2.4-.4.4-.1,0-1.7,0-2.8.1,0,0,0,0,0,0Z"/>
            <path d="M98.1,37.3c-.2,0-.3-.1-.4-.3,0-.2.1-.4.3-.4l1.8-.2c.2,0,.4.1.4.3,0,.2-.1.4-.3.4l-1.8.2s0,0,0,0Z"/>
            <path d="M100.5,39.1c-.1,0-1.8,0-2.3-.1-.2,0-.4-.2-.3-.4,0-.2.2-.4.4-.3.9,0,2.2.1,2.3.1.2,0,.4.2.4.4,0,.2-.2.4-.4.4Z"/>
            <path d="M98.1,40.5c-.2,0-.4-.2-.4-.4,0-.2.1-.4.4-.4.3,0,2.7-.1,2.8-.1s.4.2.4.4c0,.2-.2.4-.4.4-.1,0-1.7,0-2.8.1,0,0,0,0,0,0Z"/>
            <path d="M100.3,42.5c0,0-.1,0-.2,0l-2.2-1.3c-.1,0-.2-.2-.2-.3,0-.1,0-.3.2-.3,0,0,.7-.3,1.2-.5.2,0,.4,0,.5.2,0,.2,0,.4-.2.5-.1,0-.3,0-.4.2l1.6.9c.2.1.2.3.1.5,0,.1-.2.2-.3.2Z"/>
            <path d="M98.1,43c-.2,0-.3-.1-.4-.3,0-.2.1-.4.3-.4l1.8-.2c.2,0,.4.1.4.3,0,.2-.1.4-.3.4l-1.8.2s0,0,0,0Z"/>
            <path d="M100.5,44.8c-.1,0-1.8,0-2.3-.1-.2,0-.4-.2-.3-.4,0-.2.2-.4.4-.3.9,0,2.2.1,2.3.1.2,0,.4.2.4.4,0,.2-.2.4-.4.4Z"/>
            <path d="M98.1,46.2c-.2,0-.4-.2-.4-.4,0-.2.1-.4.4-.4.3,0,2.7-.1,2.8-.1s.4.2.4.4c0,.2-.2.4-.4.4-.1,0-1.7,0-2.8.1,0,0,0,0,0,0Z"/>
            <path d="M98.1,49.3c-.2,0-.3-.1-.4-.3,0-.2.1-.4.3-.4l1.8-.2c.2,0,.4.1.4.3,0,.2-.1.4-.3.4l-1.8.2s0,0,0,0Z"/>
            <path d="M100.5,51.1c-.1,0-1.8,0-2.3-.1-.2,0-.4-.2-.3-.4,0-.2.2-.4.4-.3.9,0,2.2.1,2.3.1.2,0,.4.2.4.4,0,.2-.2.4-.4.4Z"/>
            <path d="M98.1,52.5c-.2,0-.4-.2-.4-.4,0-.2.1-.4.4-.4.3,0,2.7-.1,2.8-.1s.4.2.4.4c0,.2-.2.4-.4.4-.1,0-1.7,0-2.8.1,0,0,0,0,0,0Z"/>
            <path d="M98.1,51.9c-.2,0-.3-.1-.4-.3,0-.2.1-.4.3-.4l1.8-.2c.2,0,.4.1.4.3,0,.2-.1.4-.3.4l-1.8.2s0,0,0,0Z"/>
            <path d="M100.5,53.8c-.1,0-1.8,0-2.3-.1-.2,0-.4-.2-.3-.4,0-.2.2-.4.4-.3.9,0,2.2.1,2.3.1.2,0,.4.2.4.4,0,.2-.2.4-.4.4Z"/>
            <path d="M98.1,55.2c-.2,0-.4-.2-.4-.4,0-.2.1-.4.4-.4.3,0,2.7-.1,2.8-.1s.4.2.4.4c0,.2-.2.4-.4.4-.1,0-1.7,0-2.8.1,0,0,0,0,0,0Z"/>
            <path d="M100.6,48.5s0,0,0,0l-2.4-.6c-.1,0-.3-.2-.3-.3,0-.2,0-.3.2-.4l1.8-.9c.2,0,.4,0,.5.2,0,.2,0,.4-.2.5l-.9.4,1.5.4c.2,0,.3.3.3.4,0,.2-.2.3-.4.3Z"/>
            <path d="M98.1,56.5c-.2,0-.4-.2-.4-.4,0-.2.1-.4.4-.4.3,0,2.7-.1,2.8-.1s.4.2.4.4c0,.2-.2.4-.4.4-.1,0-1.7,0-2.8.1,0,0,0,0,0,0Z"/>
            <path d="M98.1,55.9c-.2,0-.3-.1-.4-.3,0-.2.1-.4.3-.4l1.8-.2c.2,0,.4.1.4.3,0,.2-.1.4-.3.4l-1.8.2s0,0,0,0Z"/>
            <path d="M100.5,57.8c-.1,0-1.8,0-2.3-.1-.2,0-.4-.2-.3-.4,0-.2.2-.4.4-.3.9,0,2.2.1,2.3.1.2,0,.4.2.4.4,0,.2-.2.4-.4.4Z"/>
            <path d="M98.1,59.1c-.2,0-.4-.2-.4-.4,0-.2.1-.4.4-.4.3,0,2.7-.1,2.8-.1s.4.2.4.4c0,.2-.2.4-.4.4-.1,0-1.7,0-2.8.1,0,0,0,0,0,0Z"/>
            <path d="M98.1,62.2c-.2,0-.4-.2-.4-.4,0-.2.1-.4.4-.4.3,0,2.7-.1,2.8-.1s.4.2.4.4c0,.2-.2.4-.4.4-.1,0-1.7,0-2.8.1,0,0,0,0,0,0Z"/>
            <path d="M100.3,61.1c0,0-.1,0-.2,0l-2.2-1.3c-.1,0-.2-.2-.2-.3,0-.1,0-.3.2-.3,0,0,.7-.3,1.2-.5.2,0,.4,0,.5.2,0,.2,0,.4-.2.5-.1,0-.3,0-.4.2l1.6.9c.2.1.2.3.1.5,0,.1-.2.2-.3.2Z"/>
            <path d="M98.1,61.6c-.2,0-.3-.1-.4-.3,0-.2.1-.4.3-.4l1.8-.2c.2,0,.4.1.4.3,0,.2-.1.4-.3.4l-1.8.2s0,0,0,0Z"/>
            <path d="M100.5,63.5c-.1,0-1.8,0-2.3-.1-.2,0-.4-.2-.3-.4,0-.2.2-.4.4-.3.9,0,2.2.1,2.3.1.2,0,.4.2.4.4,0,.2-.2.4-.4.4Z"/>
          </g>
          <g>
            <path d="M2,63.8c-.2,0-.3,0-.3-.3,0-.2,0-.4.2-.5.1,0,.3,0,.4-.2l-1.6-.9c-.2-.1-.2-.3-.1-.5.1-.2.3-.2.5-.1l2.2,1.3c.1,0,.2.2.2.3,0,.1,0,.3-.2.3,0,0-.7.3-1.2.5,0,0,0,0-.1,0Z"/>
            <path d="M1.4,61.8c-.2,0-.3-.1-.4-.3,0-.2.1-.4.3-.4l1.8-.2c.2,0,.4.1.4.3,0,.2-.1.4-.3.4l-1.8.2s0,0,0,0Z"/>
            <path d="M3.2,59.8s0,0,0,0c-.9,0-2.2-.1-2.3-.1-.2,0-.4-.2-.4-.4,0-.2.2-.4.4-.4s1.8,0,2.3.1c.2,0,.4.2.3.4,0,.2-.2.3-.4.3Z"/>
            <path d="M.4,58.5C.2,58.5,0,58.3,0,58.1c0-.2.2-.4.4-.4.1,0,1.7,0,2.8-.1.2,0,.4.1.4.4,0,.2-.1.4-.4.4-.3,0-2.7.1-2.8.1Z"/>
            <path d="M1.4,55.5c-.2,0-.3-.1-.4-.3,0-.2.1-.4.3-.4l1.8-.2c.2,0,.4.1.4.3,0,.2-.1.4-.3.4l-1.8.2s0,0,0,0Z"/>
            <path d="M3.2,53.5s0,0,0,0c-.9,0-2.2-.1-2.3-.1-.2,0-.4-.2-.4-.4,0-.2.2-.4.4-.4s1.8,0,2.3.1c.2,0,.4.2.3.4,0,.2-.2.3-.4.3Z"/>
            <path d="M.4,52.2C.2,52.2,0,52,0,51.8c0-.2.2-.4.4-.4.1,0,1.7,0,2.8-.1.2,0,.4.1.4.4,0,.2-.1.4-.4.4-.3,0-2.7.1-2.8.1Z"/>
            <path d="M1.4,52.8c-.2,0-.3-.1-.4-.3,0-.2.1-.4.3-.4l1.8-.2c.2,0,.4.1.4.3,0,.2-.1.4-.3.4l-1.8.2s0,0,0,0Z"/>
            <path d="M3.2,50.9s0,0,0,0c-.9,0-2.2-.1-2.3-.1-.2,0-.4-.2-.4-.4,0-.2.2-.4.4-.4s1.8,0,2.3.1c.2,0,.4.2.3.4,0,.2-.2.3-.4.3Z"/>
            <path d="M.4,49.5C.2,49.5,0,49.3,0,49.1c0-.2.2-.4.4-.4.1,0,1.7,0,2.8-.1.2,0,.4.1.4.4,0,.2-.1.4-.4.4-.3,0-2.7.1-2.8.1Z"/>
            <path d="M1.4,57.6c-.1,0-.3,0-.3-.2,0-.2,0-.4.2-.5l.9-.4-1.5-.4c-.2,0-.3-.3-.3-.4,0-.2.3-.3.4-.3l2.4.6c.1,0,.3.2.3.3,0,.2,0,.3-.2.4l-1.8.9c0,0-.1,0-.2,0Z"/>
            <path d="M.4,48.2C.2,48.2,0,48,0,47.8c0-.2.2-.4.4-.4.1,0,1.7,0,2.8-.1.2,0,.4.1.4.4,0,.2-.1.4-.4.4-.3,0-2.7.1-2.8.1Z"/>
            <path d="M1.4,48.9c-.2,0-.3-.1-.4-.3,0-.2.1-.4.3-.4l1.8-.2c.2,0,.4.1.4.3,0,.2-.1.4-.3.4l-1.8.2s0,0,0,0Z"/>
            <path d="M3.2,46.9s0,0,0,0c-.9,0-2.2-.1-2.3-.1-.2,0-.4-.2-.4-.4,0-.2.2-.4.4-.4s1.8,0,2.3.1c.2,0,.4.2.3.4,0,.2-.2.3-.4.3Z"/>
            <path d="M.4,45.5C.2,45.5,0,45.4,0,45.2c0-.2.2-.4.4-.4.1,0,1.7,0,2.8-.1.2,0,.4.1.4.4,0,.2-.1.4-.4.4-.3,0-2.7.1-2.8.1Z"/>
            <path d="M2,45.2c-.2,0-.3,0-.3-.3,0-.2,0-.4.2-.5.1,0,.3,0,.4-.2l-1.6-.9c-.2-.1-.2-.3-.1-.5.1-.2.3-.2.5-.1l2.2,1.3c.1,0,.2.2.2.3,0,.1,0,.3-.2.3,0,0-.7.3-1.2.5,0,0,0,0-.1,0Z"/>
            <path d="M1.4,43.2c-.2,0-.3-.1-.4-.3,0-.2.1-.4.3-.4l1.8-.2c.2,0,.4.1.4.3,0,.2-.1.4-.3.4l-1.8.2s0,0,0,0Z"/>
            <path d="M3.2,41.2s0,0,0,0c-.9,0-2.2-.1-2.3-.1-.2,0-.4-.2-.4-.4,0-.2.2-.4.4-.4s1.8,0,2.3.1c.2,0,.4.2.3.4,0,.2-.2.3-.4.3Z"/>
            <path d="M.4,39.8C.2,39.8,0,39.7,0,39.5c0-.2.2-.4.4-.4.1,0,1.7,0,2.8-.1.2,0,.4.1.4.4,0,.2-.1.4-.4.4-.3,0-2.7.1-2.8.1Z"/>
            <path d="M1.4,36.9c-.2,0-.3-.1-.4-.3,0-.2.1-.4.3-.4l1.8-.2c.2,0,.4.1.4.3,0,.2-.1.4-.3.4l-1.8.2s0,0,0,0Z"/>
            <path d="M3.2,34.9s0,0,0,0c-.9,0-2.2-.1-2.3-.1-.2,0-.4-.2-.4-.4,0-.2.2-.4.4-.4s1.8,0,2.3.1c.2,0,.4.2.3.4,0,.2-.2.3-.4.3Z"/>
            <path d="M.4,33.5C.2,33.5,0,33.4,0,33.2c0-.2.2-.4.4-.4.1,0,1.7,0,2.8-.1.2,0,.4.1.4.4,0,.2-.1.4-.4.4-.3,0-2.7.1-2.8.1Z"/>
            <path d="M1.4,34.2c-.2,0-.3-.1-.4-.3,0-.2.1-.4.3-.4l1.8-.2c.2,0,.4.1.4.3,0,.2-.1.4-.3.4l-1.8.2s0,0,0,0Z"/>
            <path d="M3.2,32.2s0,0,0,0c-.9,0-2.2-.1-2.3-.1-.2,0-.4-.2-.4-.4,0-.2.2-.4.4-.4s1.8,0,2.3.1c.2,0,.4.2.3.4,0,.2-.2.3-.4.3Z"/>
            <path d="M.4,30.9C.2,30.9,0,30.7,0,30.5c0-.2.2-.4.4-.4.1,0,1.7,0,2.8-.1.2,0,.4.1.4.4,0,.2-.1.4-.4.4-.3,0-2.7.1-2.8.1Z"/>
            <path d="M1.4,38.9c-.1,0-.3,0-.3-.2,0-.2,0-.4.2-.5l.9-.4-1.5-.4c-.2,0-.3-.3-.3-.4,0-.2.3-.3.4-.3l2.4.6c.1,0,.3.2.3.3,0,.2,0,.3-.2.4l-1.8.9c0,0-.1,0-.2,0Z"/>
            <path d="M.4,29.6C.2,29.6,0,29.4,0,29.2c0-.2.2-.4.4-.4.1,0,1.7,0,2.8-.1.2,0,.4.1.4.4,0,.2-.1.4-.4.4-.3,0-2.7.1-2.8.1Z"/>
            <path d="M1.4,30.2c-.2,0-.3-.1-.4-.3,0-.2.1-.4.3-.4l1.8-.2c.2,0,.4.1.4.3,0,.2-.1.4-.3.4l-1.8.2s0,0,0,0Z"/>
            <path d="M3.2,28.3s0,0,0,0c-.9,0-2.2-.1-2.3-.1-.2,0-.4-.2-.4-.4,0-.2.2-.4.4-.4s1.8,0,2.3.1c.2,0,.4.2.3.4,0,.2-.2.3-.4.3Z"/>
            <path d="M.4,26.9C.2,26.9,0,26.7,0,26.5c0-.2.2-.4.4-.4.1,0,1.7,0,2.8-.1.2,0,.4.1.4.4,0,.2-.1.4-.4.4-.3,0-2.7.1-2.8.1Z"/>
            <path d="M2,26.5c-.2,0-.3,0-.3-.3,0-.2,0-.4.2-.5.1,0,.3,0,.4-.2l-1.6-.9c-.2-.1-.2-.3-.1-.5.1-.2.3-.2.5-.1l2.2,1.3c.1,0,.2.2.2.3,0,.1,0,.3-.2.3,0,0-.7.3-1.2.5,0,0,0,0-.1,0Z"/>
            <path d="M1.4,24.5c-.2,0-.3-.1-.4-.3,0-.2.1-.4.3-.4l1.8-.2c.2,0,.4.1.4.3,0,.2-.1.4-.3.4l-1.8.2s0,0,0,0Z"/>
            <path d="M3.2,22.6s0,0,0,0c-.9,0-2.2-.1-2.3-.1-.2,0-.4-.2-.4-.4,0-.2.2-.4.4-.4s1.8,0,2.3.1c.2,0,.4.2.3.4,0,.2-.2.3-.4.3Z"/>
            <path d="M.4,21.2C.2,21.2,0,21,0,20.8c0-.2.2-.4.4-.4.1,0,1.7,0,2.8-.1.2,0,.4.1.4.4,0,.2-.1.4-.4.4-.3,0-2.7.1-2.8.1Z"/>
            <path d="M1.4,18.2c-.2,0-.3-.1-.4-.3,0-.2.1-.4.3-.4l1.8-.2c.2,0,.4.1.4.3,0,.2-.1.4-.3.4l-1.8.2s0,0,0,0Z"/>
            <path d="M3.2,16.3s0,0,0,0c-.9,0-2.2-.1-2.3-.1-.2,0-.4-.2-.4-.4,0-.2.2-.4.4-.4s1.8,0,2.3.1c.2,0,.4.2.3.4,0,.2-.2.3-.4.3Z"/>
            <path d="M.4,14.9C.2,14.9,0,14.7,0,14.5c0-.2.2-.4.4-.4.1,0,1.7,0,2.8-.1.2,0,.4.1.4.4,0,.2-.1.4-.4.4-.3,0-2.7.1-2.8.1Z"/>
            <path d="M1.4,15.6c-.2,0-.3-.1-.4-.3,0-.2.1-.4.3-.4l1.8-.2c.2,0,.4.1.4.3,0,.2-.1.4-.3.4l-1.8.2s0,0,0,0Z"/>
            <path d="M3.2,13.6s0,0,0,0c-.9,0-2.2-.1-2.3-.1-.2,0-.4-.2-.4-.4,0-.2.2-.4.4-.4s1.8,0,2.3.1c.2,0,.4.2.3.4,0,.2-.2.3-.4.3Z"/>
            <path d="M.4,12.2C.2,12.2,0,12.1,0,11.9c0-.2.2-.4.4-.4.1,0,1.7,0,2.8-.1.2,0,.4.1.4.4,0,.2-.1.4-.4.4-.3,0-2.7.1-2.8.1Z"/>
            <path d="M1.4,20.3c-.1,0-.3,0-.3-.2,0-.2,0-.4.2-.5l.9-.4-1.5-.4c-.2,0-.3-.3-.3-.4,0-.2.3-.3.4-.3l2.4.6c.1,0,.3.2.3.3,0,.2,0,.3-.2.4l-1.8.9c0,0-.1,0-.2,0Z"/>
            <path d="M.4,10.9C.2,10.9,0,10.8,0,10.6c0-.2.2-.4.4-.4.1,0,1.7,0,2.8-.1.2,0,.4.1.4.4,0,.2-.1.4-.4.4-.3,0-2.7.1-2.8.1Z"/>
            <path d="M1.4,11.6c-.2,0-.3-.1-.4-.3,0-.2.1-.4.3-.4l1.8-.2c.2,0,.4.1.4.3,0,.2-.1.4-.3.4l-1.8.2s0,0,0,0Z"/>
            <path d="M3.2,9.6s0,0,0,0c-.9,0-2.2-.1-2.3-.1-.2,0-.4-.2-.4-.4,0-.2.2-.4.4-.4s1.8,0,2.3.1c.2,0,.4.2.3.4,0,.2-.2.3-.4.3Z"/>
            <path d="M.4,8.3C.2,8.3,0,8.1,0,7.9c0-.2.2-.4.4-.4.1,0,1.7,0,2.8-.1.2,0,.4.1.4.4,0,.2-.1.4-.4.4-.3,0-2.7.1-2.8.1Z"/>
            <path d="M.4,5.2C.2,5.2,0,5,0,4.8c0-.2.2-.4.4-.4.1,0,1.7,0,2.8-.1.2,0,.4.1.4.4,0,.2-.1.4-.4.4-.3,0-2.7.1-2.8.1Z"/>
            <path d="M2,7.9c-.2,0-.3,0-.3-.3,0-.2,0-.4.2-.5.1,0,.3,0,.4-.2l-1.6-.9c-.2-.1-.2-.3-.1-.5.1-.2.3-.2.5-.1l2.2,1.3c.1,0,.2.2.2.3,0,.1,0,.3-.2.3,0,0-.7.3-1.2.5,0,0,0,0-.1,0Z"/>
            <path d="M1.4,5.9c-.2,0-.3-.1-.4-.3,0-.2.1-.4.3-.4l1.8-.2c.2,0,.4.1.4.3,0,.2-.1.4-.3.4l-1.8.2s0,0,0,0Z"/>
            <path d="M3.2,3.9s0,0,0,0c-.9,0-2.2-.1-2.3-.1-.2,0-.4-.2-.4-.4,0-.2.2-.4.4-.4s1.8,0,2.3.1c.2,0,.4.2.3.4,0,.2-.2.3-.4.3Z"/>
          </g>
        </g>
        <g>
          <rect class="cls-2" x="11.6" y="11.4" width="8.3" height="8.1" transform="translate(15.6 -6.6) rotate(45)"/>
          <rect class="cls-2" x="23.2" y="11.6" width="8.3" height="8.1" transform="translate(19.1 -14.7) rotate(45)"/>
          <rect class="cls-2" x="34.7" y="11.7" width="8.3" height="8.1" transform="translate(22.5 -22.9) rotate(45)"/>
          <rect class="cls-2" x="46.3" y="11.8" width="8.3" height="8.1" transform="translate(26 -31) rotate(45)"/>
          <rect class="cls-2" x="57.9" y="11.9" width="8.3" height="8.1" transform="translate(29.5 -39.2) rotate(45)"/>
          <rect class="cls-2" x="69.4" y="12.1" width="8.3" height="8.1" transform="translate(33 -47.3) rotate(45)"/>
          <rect class="cls-2" x="81" y="12.2" width="8.3" height="8.1" transform="translate(36.4 -55.5) rotate(45)"/>
          <rect class="cls-2" x="11.7" y="23" width="8.3" height="8.1" transform="translate(23.8 -3.3) rotate(45)"/>
          <rect class="cls-2" x="23.3" y="23.1" width="8.3" height="8.1" transform="translate(27.3 -11.4) rotate(45)"/>
          <rect class="cls-2" x="34.8" y="23.2" width="8.3" height="8.1" transform="translate(30.7 -19.6) rotate(45)"/>
          <rect class="cls-2" x="46.4" y="23.4" width="8.3" height="8.1" transform="translate(34.2 -27.7) rotate(45)"/>
          <rect class="cls-2" x="58" y="23.5" width="8.3" height="8.1" transform="translate(37.7 -35.9) rotate(45)"/>
          <rect class="cls-2" x="69.6" y="23.6" width="8.3" height="8.1" transform="translate(41.2 -44) rotate(45)"/>
          <rect class="cls-2" x="81.1" y="23.7" width="8.3" height="8.1" transform="translate(44.7 -52.2) rotate(45)"/>
          <rect class="cls-2" x="11.8" y="34.5" width="8.3" height="8.1" transform="translate(32 0) rotate(45)"/>
          <rect class="cls-2" x="23.4" y="34.7" width="8.3" height="8.1" transform="translate(35.5 -8.1) rotate(45)"/>
          <rect class="cls-2" x="35" y="34.8" width="8.3" height="8.1" transform="translate(38.9 -16.3) rotate(45)"/>
          <rect class="cls-2" x="46.5" y="34.9" width="8.3" height="8.1" transform="translate(42.4 -24.4) rotate(45)"/>
          <rect class="cls-2" x="58.1" y="35" width="8.3" height="8.1" transform="translate(45.9 -32.6) rotate(45)"/>
          <rect class="cls-2" x="69.7" y="35.2" width="8.3" height="8.1" transform="translate(49.4 -40.7) rotate(45)"/>
          <rect class="cls-2" x="81.3" y="35.3" width="8.3" height="8.1" transform="translate(52.9 -48.9) rotate(45)"/>
          <rect class="cls-2" x="11.9" y="46.1" width="8.3" height="8.1" transform="translate(40.2 3.3) rotate(45)"/>
          <rect class="cls-2" x="23.5" y="46.2" width="8.3" height="8.1" transform="translate(43.7 -4.8) rotate(45)"/>
          <rect class="cls-2" x="35.1" y="46.3" width="8.3" height="8.1" transform="translate(47.1 -13) rotate(45)"/>
          <rect class="cls-2" x="46.7" y="46.5" width="8.3" height="8.1" transform="translate(50.6 -21.1) rotate(45)"/>
          <rect class="cls-2" x="58.2" y="46.6" width="8.3" height="8.1" transform="translate(54.1 -29.3) rotate(45)"/>
          <rect class="cls-2" x="69.8" y="46.7" width="8.3" height="8.1" transform="translate(57.6 -37.4) rotate(45)"/>
          <rect class="cls-2" x="81.4" y="46.8" width="8.3" height="8.1" transform="translate(61.1 -45.6) rotate(45)"/>
        </g>
      </g>
    </g>
  </g>
</svg>