<?xml version="1.0" encoding="UTF-8"?>
<svg xmlns="http://www.w3.org/2000/svg" version="1.1" viewBox="0 0 55.9 88.1">
  <defs>
    <style>
      .cls-1 {
        fill: #fff;
      }
    </style>
  </defs>
  <!-- Generator: Adobe Illustrator 28.6.0, SVG Export Plug-In . SVG Version: 1.2.0 Build 709)  -->
  <g>
    <g id="Layer_1">
      <g>
        <g>
          <rect class="cls-1" x="5.8" y="6.3" width="44.3" height="75.4" transform="translate(55.9 88.1) rotate(180)"/>
          <path d="M5.8,5.9h44.3c.2,0,.4.2.4.4v75.4c0,.2-.2.4-.4.4H5.8c-.2,0-.4-.2-.4-.4V6.3c0-.2.2-.4.4-.4ZM49.6,6.8H6.2v74.6h43.4V6.8Z"/>
        </g>
        <g>
          <rect class="cls-1" x="9.1" y="12" width="37.7" height="64.2" transform="translate(55.9 88.1) rotate(180)"/>
          <path d="M9.1,11.5h37.7c.2,0,.4.2.4.4v64.2c0,.2-.2.4-.4.4H9.1c-.2,0-.4-.2-.4-.4V12c0-.2.2-.4.4-.4ZM46.4,12.4H9.5v63.4h36.8V12.4Z"/>
        </g>
        <path d="M47.9,88.1c.2,0,.5,0,.6-.3l1.7-4.9,1.5,3.1c.1.2.4.3.6.2.2-.1.3-.4.2-.6l-1.1-2.2,2,1.6c.2.2.5.1.6,0,.2-.2.1-.5,0-.6l-2-1.7,3.5.9c.2,0,.5,0,.5-.3s0-.5-.3-.5l-5.4-1.4s0,0-.1,0h0s0,0,0,0c0,0,0,0,0,0,0,0,0,0,0,0,0,0,0,0,0,0,0,0,0,0,0,0,0,0,0,0,0,0,0,0,0,0,0,0,0,0,0,0,0,0,0,0,0,0,0,0,0,0,0,0,0,0,0,0,0,0,0,0l-2.1,5.9c0,.2,0,.5.3.6Z"/>
        <path d="M47.6.6l2.1,5.9s0,0,0,0c0,0,0,0,0,0,0,0,0,0,0,0,0,0,0,0,0,0,0,0,0,0,0,0,0,0,0,0,0,0,0,0,0,0,0,0,0,0,0,0,0,0,0,0,0,0,0,0,0,0,0,0,0,0,0,0,0,0,.1,0,0,0,0,0,0,0l5.4-1.4c.2,0,.4-.3.3-.5,0-.2-.3-.4-.5-.3l-3.5.9,2-1.7c.2-.2.2-.4,0-.6,0-.1-.2-.2-.3-.2s-.2,0-.3.1l-2,1.6,1.1-2.2c.1-.2,0-.5-.2-.6-.2-.1-.5,0-.6.2l-1.5,3.1-1.7-4.9c0-.2-.2-.3-.4-.3s0,0-.1,0c-.2,0-.4.3-.3.6Z"/>
        <path d="M0,83.3c0,.2.3.4.5.3l3.5-.9-2,1.7c-.2.2-.2.4,0,.6.2.2.4.2.6,0l2-1.6-1.1,2.2c-.1.2,0,.5.2.6.2.1.5,0,.6-.2l1.5-3.1,1.7,4.9c0,.2.3.4.6.3.2,0,.4-.3.3-.6l-2.1-5.9s0,0,0,0c0,0,0,0,0,0,0,0,0,0,0,0,0,0,0,0,0,0,0,0,0,0,0,0,0,0,0,0,0,0,0,0,0,0,0,0,0,0,0,0,0,0,0,0,0,0,0,0,0,0,0,0,0,0,0,0,0,0,0,0h0s0,0-.1,0l-5.4,1.4c-.2,0-.4.3-.3.5Z"/>
        <path d="M.3,5.4l5.4,1.4s0,0,0,0c0,0,0,0,.1,0,0,0,0,0,0,0,0,0,0,0,0,0,0,0,0,0,0,0,0,0,0,0,0,0,0,0,0,0,0,0,0,0,0,0,0,0,0,0,0,0,0,0,0,0,0,0,0,0,0,0,0,0,0,0,0,0,0,0,0,0L8.3.6c0-.2,0-.5-.3-.6,0,0,0,0-.1,0-.2,0-.4.1-.4.3l-1.7,4.9-1.5-3.1c-.1-.2-.4-.3-.6-.2-.2.1-.3.4-.2.6l1.1,2.2-2-1.6c0,0-.2-.1-.3-.1s-.3,0-.3.2c-.2.2-.1.5,0,.6l2,1.7-3.5-.9c-.2,0-.5,0-.5.3,0,.2,0,.5.3.5Z"/>
      </g>
    </g>
  </g>
</svg>