<?xml version="1.0" encoding="UTF-8"?>
<svg xmlns="http://www.w3.org/2000/svg" version="1.1" viewBox="0 0 101.7 71.7">
  <defs>
    <style>
      .cls-1 {
        fill: #fff;
        stroke: #000;
        stroke-miterlimit: 10;
        stroke-width: 1.1px;
      }
    </style>
  </defs>
  <!-- Generator: Adobe Illustrator 28.6.0, SVG Export Plug-In . SVG Version: 1.2.0 Build 709)  -->
  <g>
    <g id="Layer_1">
      <g>
        <path class="cls-1" d="M50.9,9c.7,0,1.4,0,2.2,0,2.4-2.6,4.9-5.2,7.4-7.8-3.1-.4-6.3-.6-9.6-.6-4.6,0-9.2.4-13.6,1.3.6,2.7,1.4,5.4,2.2,8.1,3.6-.7,7.4-1,11.4-1Z"/>
        <path class="cls-1" d="M19,18.4c5.3-4,12.4-7,20.5-8.4-.8-2.7-1.6-5.4-2.2-8.1-7.7,1.5-14.7,4.2-20.6,7.9-.8.5-1.7,1.1-2.4,1.7.2,1.2.5,2.3,1.2,3.4.9,1.5,2.1,2.6,3.6,3.6Z"/>
        <path class="cls-1" d="M71.4,12.4c-.3-1.3-.6-2.6-.7-3.9,0-.8,0-1.7.2-2.4.4-.9,1.2-1.5,2-2-4-1.3-8.2-2.3-12.5-2.9-2.5,2.6-5,5.2-7.4,7.8,6.6.2,12.9,1.4,18.3,3.4Z"/>
        <path class="cls-1" d="M61.8,62.7c.5-.1,1-.3,1.5-.4,1.1-.4,2.2-.9,3.1-1.5-1.7.4-3.4.8-5.1,1.1.2.3.3.6.5.9Z"/>
        <path class="cls-1" d="M70.9,6c-.3.8-.3,1.6-.2,2.4.1,1.3.4,2.6.7,3.9,11.3,4.1,19.3,11.3,21.1,19.9,2.7-.6,5.4-1.4,8.1-2.3-.2-.7-.4-1.4-.6-2.1-.8-2.5-1.9-4.9-3.4-7.1-2.8-4.2-6.6-7.9-11.5-11-3.6-2.3-7.7-4.3-12.1-5.7-.9.5-1.7,1.1-2,2Z"/>
        <path class="cls-1" d="M15,21.9c1.2-1.2,2.5-2.4,3.9-3.5-1.4-1-2.7-2.1-3.6-3.6-.6-1.1-1-2.2-1.2-3.4-2,1.5-3.8,3.1-5.4,4.7,2,2,4,3.9,6.2,5.7Z"/>
        <path class="cls-1" d="M49.8,64.9c-1.8.7-3.5,1.7-4.4,3.4-.5.8-.7,1.7-.8,2.6,2.1.2,4.2.3,6.3.3,5.1,0,10.1-.5,14.9-1.5-1.4-2.3-2.7-4.5-3.9-6.9-3.9,1-8.2.8-12,2.2Z"/>
        <path class="cls-1" d="M87.2,49.3c-4.7,5.2-12,9.2-20.7,11.5-1,.6-2,1.1-3.1,1.5-.5.2-1,.3-1.5.4,1.3,2.3,2.6,4.6,3.9,6.9,7.1-1.5,13.7-4.1,19.3-7.7,4.8-3.1,8.7-6.8,11.5-11,0-.1.2-.3.3-.4-1.5-.2-3-.3-4.5-.5-1.7-.2-3.4-.4-5.1-.7Z"/>
        <path class="cls-1" d="M49.8,64.9c3.8-1.4,8.1-1.2,12-2.2-.2-.3-.3-.6-.5-.9-3.4.6-6.9.9-10.5.9-8.4,0-16.1-1.6-22.7-4.3-1.1,1-2.1,2-2.9,3.2-.8,1.2-1.5,2.5-1.9,3.9,6.4,2.9,13.6,4.7,21.2,5.3.1-.9.3-1.8.8-2.6.9-1.7,2.7-2.7,4.4-3.4Z"/>
        <path class="cls-1" d="M15,21.9c-2.2-1.8-4.2-3.7-6.2-5.7-1.4,1.4-2.6,3-3.6,4.6-1.2,1.9-2.2,3.8-3,5.8,2.6,1,5.3,1.9,8,2.7,1-2.6,2.7-5.1,4.8-7.4Z"/>
        <path class="cls-1" d="M101.2,35.9c0-2-.2-4-.7-5.9-2.6.9-5.3,1.7-8.1,2.3.2,1.2.4,2.4.4,3.6,0,4.9-2.1,9.5-5.6,13.5,1.7.2,3.4.5,5.1.7,1.5.2,3,.4,4.5.5,1.4-2.1,2.4-4.4,3.1-6.7.8-2.6,1.2-5.3,1.2-8Z"/>
        <path class="cls-1" d="M28.2,58.5c-2-.8-3.9-1.8-5.6-2.8-1,2.6-2,5.3-2.9,8,1.2.6,2.4,1.3,3.7,1.8.4-1.4,1.1-2.7,1.9-3.9.8-1.2,1.9-2.2,2.9-3.2Z"/>
        <path class="cls-1" d="M9,35.9c0-2.3.4-4.5,1.3-6.6-2.7-.8-5.3-1.7-8-2.7-.2.4-.3.9-.5,1.3-.8,2.6-1.2,5.3-1.2,8s.4,5.4,1.2,8c.8,2.5,1.9,4.9,3.4,7.1,2.8,4.2,6.6,7.9,11.5,11,1,.6,2,1.2,3,1.8.9-2.7,1.8-5.4,2.9-8-8.4-4.9-13.6-12-13.6-19.8Z"/>
        <path class="cls-1" d="M92.4,32.3c-1.8-8.6-9.8-15.9-21.1-19.9-5.5-2-11.7-3.2-18.3-3.4-.7,0-1.4,0-2.2,0-3.9,0-7.8.3-11.4,1-8.1,1.5-15.2,4.4-20.5,8.4-1.4,1.1-2.8,2.2-3.9,3.5-2.1,2.3-3.8,4.7-4.8,7.4-.8,2.1-1.3,4.3-1.3,6.6,0,7.9,5.2,14.9,13.6,19.8,1.7,1,3.6,2,5.6,2.8,6.5,2.7,14.3,4.3,22.7,4.3s7.1-.3,10.5-.9c1.7-.3,3.4-.6,5.1-1.1,8.7-2.2,16-6.3,20.7-11.5,3.6-4,5.6-8.6,5.6-13.5s-.1-2.4-.4-3.6Z"/>
      </g>
    </g>
  </g>
</svg>