<?xml version="1.0" encoding="UTF-8"?>
<svg xmlns="http://www.w3.org/2000/svg" version="1.1" viewBox="0 0 88.1 55.9">
  <defs>
    <style>
      .cls-1 {
        fill: #fff;
      }
    </style>
  </defs>
  <!-- Generator: Adobe Illustrator 28.6.0, SVG Export Plug-In . SVG Version: 1.2.0 Build 709)  -->
  <g>
    <g id="Layer_1">
      <g>
        <g>
          <rect class="cls-1" x="21.9" y="-9.8" width="44.3" height="75.4" transform="translate(16.1 72) rotate(-90)"/>
          <path d="M82.2,5.8v44.3c0,.2-.2.4-.4.4H6.3c-.2,0-.4-.2-.4-.4V5.8c0-.2.2-.4.4-.4h75.4c.2,0,.4.2.4.4ZM81.3,49.6V6.2H6.8v43.4h74.6Z"/>
        </g>
        <g>
          <rect class="cls-1" x="25.2" y="-4.2" width="37.7" height="64.2" transform="translate(16.1 72) rotate(-90)"/>
          <path d="M76.6,9.1v37.7c0,.2-.2.4-.4.4H12c-.2,0-.4-.2-.4-.4V9.1c0-.2.2-.4.4-.4h64.2c.2,0,.4.2.4.4ZM75.7,46.4V9.5H12.4v36.8h63.4Z"/>
        </g>
        <path d="M0,47.9c0,.2,0,.5.3.6l4.9,1.7-3.1,1.5c-.2.1-.3.4-.2.6.1.2.4.3.6.2l2.2-1.1-1.6,2c-.2.2-.1.5,0,.6.2.2.5.1.6,0l1.7-2-.9,3.5c0,.2,0,.5.3.5.2,0,.5,0,.5-.3l1.4-5.4s0,0,0-.1h0s0,0,0,0c0,0,0,0,0,0,0,0,0,0,0,0,0,0,0,0,0,0,0,0,0,0,0,0,0,0,0,0,0,0,0,0,0,0,0,0,0,0,0,0,0,0,0,0,0,0,0,0,0,0,0,0,0,0,0,0,0,0,0,0l-5.9-2.1c-.2,0-.5,0-.6.3Z"/>
        <path d="M87.5,47.6l-5.9,2.1s0,0,0,0c0,0,0,0,0,0,0,0,0,0,0,0,0,0,0,0,0,0,0,0,0,0,0,0,0,0,0,0,0,0,0,0,0,0,0,0,0,0,0,0,0,0,0,0,0,0,0,0,0,0,0,0,0,0,0,0,0,0,0,.1,0,0,0,0,0,0l1.4,5.4c0,.2.3.4.5.3.2,0,.4-.3.3-.5l-.9-3.5,1.7,2c.2.2.4.2.6,0,.1,0,.2-.2.2-.3s0-.2-.1-.3l-1.6-2,2.2,1.1c.2.1.5,0,.6-.2.1-.2,0-.5-.2-.6l-3.1-1.5,4.9-1.7c.2,0,.3-.2.3-.4s0,0,0-.1c0-.2-.3-.4-.6-.3Z"/>
        <path d="M4.9,0c-.2,0-.4.3-.3.5l.9,3.5-1.7-2c-.2-.2-.4-.2-.6,0-.2.2-.2.4,0,.6l1.6,2-2.2-1.1c-.2-.1-.5,0-.6.2-.1.2,0,.5.2.6l3.1,1.5L.3,7.5c-.2,0-.4.3-.3.6,0,.2.3.4.6.3l5.9-2.1s0,0,0,0c0,0,0,0,0,0,0,0,0,0,0,0,0,0,0,0,0,0,0,0,0,0,0,0,0,0,0,0,0,0,0,0,0,0,0,0,0,0,0,0,0,0,0,0,0,0,0,0,0,0,0,0,0,0,0,0,0,0,0,0h0s0,0,0-.1L5.4.3c0-.2-.3-.4-.5-.3Z"/>
        <path d="M82.7.3l-1.4,5.4s0,0,0,0c0,0,0,0,0,.1,0,0,0,0,0,0,0,0,0,0,0,0,0,0,0,0,0,0,0,0,0,0,0,0,0,0,0,0,0,0,0,0,0,0,0,0,0,0,0,0,0,0,0,0,0,0,0,0,0,0,0,0,0,0,0,0,0,0,0,0l5.9,2.1c.2,0,.5,0,.6-.3,0,0,0,0,0-.1,0-.2-.1-.4-.3-.4l-4.9-1.7,3.1-1.5c.2-.1.3-.4.2-.6s-.4-.3-.6-.2l-2.2,1.1,1.6-2c0,0,.1-.2.1-.3s0-.3-.2-.3c-.2-.2-.5-.1-.6,0l-1.7,2,.9-3.5c0-.2,0-.5-.3-.5-.2,0-.5,0-.5.3Z"/>
      </g>
    </g>
  </g>
</svg>