<?xml version="1.0" encoding="UTF-8"?>
<svg xmlns="http://www.w3.org/2000/svg" version="1.1" viewBox="0 0 101 101">
  <defs>
    <style>
      .cls-1 {
        stroke-width: 1.1px;
      }

      .cls-1, .cls-2 {
        fill: #fff;
        stroke: #000;
        stroke-linecap: square;
        stroke-miterlimit: 10;
      }

      .cls-2 {
        stroke-width: .4px;
      }
    </style>
  </defs>
  <!-- Generator: Adobe Illustrator 28.6.0, SVG Export Plug-In . SVG Version: 1.2.0 Build 709)  -->
  <g>
    <g id="Layer_1">
      <g>
        <path class="cls-1" d="M.5,100.5c55.2,0,99.9-44.7,99.9-99.9H.5v99.9Z"/>
        <path class="cls-1" d="M12,40.8c0,4.1-.6,7.9-1.5,11.2-2.2,7.3-3.1,15-3.1,22.6v3.4c0,8.5,8,14.8,16.3,12.7,32.9-8.4,58.8-34.3,67.2-67.2,2.1-8.3-4.2-16.3-12.7-16.3h-2.2c-8,0-15.9,1.1-23.5,3.4-3.3,1-7.2,1.6-11.4,1.6-7.1,0-13.3-1.7-17.2-4.2-.7-.5-1.6-.8-2.5-.8h0c-7.7,0-13.9,6.2-13.9,13.9v.3c0,.8.2,1.7.7,2.4,2.4,3.9,4,10,4,16.8Z"/>
        <ellipse class="cls-1" cx="48.4" cy="45.7" rx="42.7" ry="22.5" transform="translate(-18.2 47.6) rotate(-45)"/>
        <path class="cls-2" d="M62.2,55.4c0-1.3-1.1-2.3-2.3-2.3s-2.3,1.1-2.3,2.3,1.1,2.3,2.3,2.3,2.3-1.1,2.3-2.3Z"/>
      </g>
    </g>
  </g>
</svg>