<?xml version="1.0" encoding="UTF-8"?>
<svg xmlns="http://www.w3.org/2000/svg" version="1.1" viewBox="0 0 48.3 101">
  <defs>
    <style>
      .cls-1 {
        stroke-width: 1.1px;
      }

      .cls-1, .cls-2 {
        fill: #fff;
        stroke: #000;
        stroke-linecap: square;
        stroke-miterlimit: 10;
      }

      .cls-2 {
        stroke-width: .4px;
      }
    </style>
  </defs>
  <!-- Generator: Adobe Illustrator 28.6.0, SVG Export Plug-In . SVG Version: 1.2.0 Build 709)  -->
  <g>
    <g id="Layer_1">
      <g>
        <rect class="cls-1" x="-25.8" y="26.9" width="99.9" height="47.2" transform="translate(74.6 26.4) rotate(90)"/>
        <path class="cls-1" d="M5,77.2V12.4c0-4.2,3.4-7.7,7.7-7.7h22.9c4.2,0,7.7,3.4,7.7,7.7v64.8c0,10.6-8.6,19.1-19.1,19.1h0c-10.6,0-19.1-8.6-19.1-19.1Z"/>
        <rect x="16.3" y="2.1" width="15.7" height="1.1"/>
        <rect class="cls-1" x="18.9" y="3.9" width="10.4" height="3.8" transform="translate(29.9 -18.4) rotate(90)"/>
        <g>
          <path class="cls-2" d="M20.8,16.6c0,1.9,1.5,3.3,3.3,3.3s3.3-1.5,3.3-3.3-1.5-3.4-3.3-3.4-3.3,1.5-3.3,3.4Z"/>
          <path class="cls-2" d="M22.2,16.6c0,1.1.9,2,2,2s2-.9,2-2-.9-2-2-2-2,.9-2,2Z"/>
        </g>
      </g>
    </g>
  </g>
</svg>