<?xml version="1.0" encoding="UTF-8"?>
<svg xmlns="http://www.w3.org/2000/svg" version="1.1" viewBox="0 0 48.3 101">
  <defs>
    <style>
      .cls-1 {
        stroke-width: 1.1px;
      }

      .cls-1, .cls-2 {
        fill: #fff;
        stroke: #000;
        stroke-linecap: square;
        stroke-miterlimit: 10;
      }

      .cls-2 {
        stroke-width: .4px;
      }
    </style>
  </defs>
  <!-- Generator: Adobe Illustrator 28.6.0, SVG Export Plug-In . SVG Version: 1.2.0 Build 709)  -->
  <g>
    <g id="Layer_1">
      <g>
        <rect class="cls-1" x="-25.8" y="26.9" width="99.9" height="47.2" transform="translate(74.6 26.4) rotate(90)"/>
        <path class="cls-1" d="M43.3,77.2v-18.9c1.2-.9,2.1-4,2.1-7.7s-.9-6.8-2.1-7.7v-18.9c0-10.6-8.6-19.1-19.1-19.1h0C13.6,4.7,5,13.3,5,23.8v18.9c-1.2.9-2.1,4-2.1,7.7s.9,6.8,2.1,7.7v18.9c0,10.6,8.6,19.1,19.1,19.1h0c10.6,0,19.1-8.6,19.1-19.1Z"/>
        <rect class="cls-1" x="-11.7" y="33.8" width="71.6" height="33.4" rx="15.8" ry="15.8" transform="translate(74.6 26.4) rotate(90)"/>
        <g>
          <path class="cls-2" d="M11.6,51.4c0,1.9,1.5,3.3,3.4,3.3s3.3-1.5,3.3-3.3-1.5-3.3-3.3-3.3-3.4,1.5-3.4,3.3Z"/>
          <path class="cls-2" d="M13,51.4c0,1.1.9,2,2,2s2-.9,2-2-.9-2-2-2-2,.9-2,2Z"/>
        </g>
      </g>
    </g>
  </g>
</svg>