<?xml version="1.0" encoding="UTF-8"?>
<svg xmlns="http://www.w3.org/2000/svg" version="1.1" viewBox="0 0 149.7 293.8">
  <defs>
    <style>
      .cls-1 {
        fill: #fff;
        fill-rule: evenodd;
      }
    </style>
  </defs>
  <!-- Generator: Adobe Illustrator 28.6.0, SVG Export Plug-In . SVG Version: 1.2.0 Build 709)  -->
  <g>
    <g id="Layer_1">
      <g>
        <g>
          <path class="cls-1" d="M1.6,287.2c48.8,6.6,97.5,6.6,146.4,0V1.6H1.6v285.6h0Z"/>
          <path d="M74.8,293.8c-24.3,0-49-1.7-73.4-5l-1.4-.2V0h149.7v288.6l-1.4.2c-24.4,3.3-49.1,5-73.5,5ZM3.2,285.8c47.5,6.3,95.6,6.3,143.2,0V3.2H3.2v282.6Z"/>
        </g>
        <path d="M74.9,277.6c-16.1,0-32.3-2.2-48.3-6.7-5.9-1.7-11.4-4-11.4-9V54.1c0-25.1,26.8-45.5,59.7-45.5s59.7,20.4,59.7,45.5v207.8c0,5.1-5.5,7.3-11.4,9-16.1,4.4-32.3,6.7-48.4,6.7ZM74.9,10.2c-32,0-58.1,19.7-58.1,43.9v207.8c0,4,4.9,5.9,10.2,7.5,15.8,4.4,31.9,6.6,47.8,6.6s32-2.2,47.9-6.6c5.3-1.5,10.2-3.5,10.2-7.5V54.1c0-24.2-26.1-43.9-58.1-43.9Z"/>
        <path d="M74.6,246c-17.8,0-30-4.2-43.9-10.9-5.3-2.6-5.2-6.1-5.2-10.2v-1.4s0-169.5,0-169.5c0-20.4,21.7-36.3,49.4-36.3s49.4,16,49.4,36.3v168.9c0,.6,0,1.1,0,1.6,0,4.4.1,7.9-5.8,10.7-13.9,6.8-25.6,10.7-43.9,10.7ZM74.9,19.4c-26.8,0-47.8,15.2-47.8,34.7v170.9c0,4-.1,6.6,4.2,8.7,13.7,6.6,25.7,10.7,43.2,10.7s29.5-3.9,43.2-10.6c5-2.4,5-4.8,4.9-9.2,0-.5,0-1.1,0-1.7V54.1c0-19.5-21-34.7-47.8-34.7Z"/>
        <path d="M74.9,53.4c-3.3,0-6-2.7-6-6s2.6-6,6-6,6,2.6,6,6-2.7,6-6,6ZM74.9,43.1c-2.4,0-4.4,1.9-4.4,4.4s2,4.4,4.4,4.4,4.4-2,4.4-4.4-1.9-4.4-4.4-4.4Z"/>
      </g>
    </g>
  </g>
</svg>