<?xml version="1.0" encoding="UTF-8"?>
<svg xmlns="http://www.w3.org/2000/svg" version="1.1" viewBox="0 0 45.7 101">
  <defs>
    <style>
      .cls-1 {
        stroke-width: 1.1px;
      }

      .cls-1, .cls-2 {
        fill: #fff;
        stroke: #000;
        stroke-linecap: square;
        stroke-miterlimit: 10;
      }

      .cls-2 {
        stroke-width: .4px;
      }
    </style>
  </defs>
  <!-- Generator: Adobe Illustrator 28.6.0, SVG Export Plug-In . SVG Version: 1.2.0 Build 709)  -->
  <g>
    <g id="Layer_1">
      <g>
        <rect class="cls-1" x=".5" y=".5" width="44.7" height="99.9" rx="5.1" ry="5.1" transform="translate(45.7 101) rotate(180)"/>
        <path class="cls-1" d="M30.5,5.4c5.8,0,10.5,4.7,10.5,10.5v65.2c0,10-8.1,18.1-18.1,18.1s-18.1-8.1-18.1-18.1V15.9c0-5.8,4.7-10.5,10.5-10.5h15.3Z"/>
        <path class="cls-1" d="M22.9,95.5h0c-8,0-14.4-6.5-14.4-14.4V15.9c0-3.8,3-6.8,6.8-6.8h15.3c3.8,0,6.8,3,6.8,6.8v65.2c0,8-6.5,14.4-14.4,14.4Z"/>
        <g>
          <circle class="cls-2" cx="29.6" cy="66.2" r="1.6"/>
          <path class="cls-2" d="M23.6,66.2c0,.9.7,1.6,1.6,1.6s1.6-.7,1.6-1.6-.7-1.6-1.6-1.6-1.6.7-1.6,1.6Z"/>
          <path class="cls-2" d="M19.1,66.2c0,.9.7,1.6,1.6,1.6s1.6-.7,1.6-1.6-.7-1.6-1.6-1.6-1.6.7-1.6,1.6Z"/>
          <path class="cls-2" d="M14.6,66.2c0,.9.7,1.6,1.6,1.6s1.6-.7,1.6-1.6-.7-1.6-1.6-1.6-1.6.7-1.6,1.6Z"/>
          <path class="cls-2" d="M28.1,70.5c0,.9.7,1.6,1.6,1.6s1.6-.7,1.6-1.6-.7-1.6-1.6-1.6-1.6.7-1.6,1.6Z"/>
          <path class="cls-2" d="M23.6,70.5c0,.9.7,1.6,1.6,1.6s1.6-.7,1.6-1.6-.7-1.6-1.6-1.6-1.6.7-1.6,1.6Z"/>
          <path class="cls-2" d="M19.1,70.5c0,.9.7,1.6,1.6,1.6s1.6-.7,1.6-1.6-.7-1.6-1.6-1.6-1.6.7-1.6,1.6Z"/>
          <path class="cls-2" d="M14.6,70.5c0,.9.7,1.6,1.6,1.6s1.6-.7,1.6-1.6-.7-1.6-1.6-1.6-1.6.7-1.6,1.6Z"/>
          <circle class="cls-2" cx="29.6" cy="74.8" r="1.6"/>
          <path class="cls-2" d="M23.6,74.8c0,.9.7,1.6,1.6,1.6s1.6-.7,1.6-1.6-.7-1.6-1.6-1.6-1.6.7-1.6,1.6Z"/>
          <path class="cls-2" d="M19.1,74.8c0,.9.7,1.6,1.6,1.6s1.6-.7,1.6-1.6-.7-1.6-1.6-1.6-1.6.7-1.6,1.6Z"/>
          <path class="cls-2" d="M14.6,74.8c0,.9.7,1.6,1.6,1.6s1.6-.7,1.6-1.6-.7-1.6-1.6-1.6-1.6.7-1.6,1.6Z"/>
          <circle class="cls-2" cx="29.6" cy="79.1" r="1.6"/>
          <path class="cls-2" d="M23.6,79.1c0,.9.7,1.6,1.6,1.6s1.6-.7,1.6-1.6-.7-1.6-1.6-1.6-1.6.7-1.6,1.6Z"/>
          <path class="cls-2" d="M19.1,79.1c0,.9.7,1.6,1.6,1.6s1.6-.7,1.6-1.6-.7-1.6-1.6-1.6-1.6.7-1.6,1.6Z"/>
          <path class="cls-2" d="M14.6,79.1c0,.9.7,1.6,1.6,1.6s1.6-.7,1.6-1.6-.7-1.6-1.6-1.6-1.6.7-1.6,1.6Z"/>
        </g>
        <g>
          <circle class="cls-2" cx="22.9" cy="13.9" r="3.3"/>
          <path class="cls-2" d="M20.9,13.9c0,1.1.9,2,2,2s2-.9,2-2-.9-2-2-2-2,.9-2,2Z"/>
        </g>
      </g>
    </g>
  </g>
</svg>