<?xml version="1.0" encoding="UTF-8"?>
<svg xmlns="http://www.w3.org/2000/svg" version="1.1" viewBox="0 0 148.5 148.5">
  <defs>
    <style>
      .cls-1 {
        fill: #fff;
        fill-rule: evenodd;
      }
    </style>
  </defs>
  <!-- Generator: Adobe Illustrator 28.6.0, SVG Export Plug-In . SVG Version: 1.2.0 Build 709)  -->
  <g>
    <g id="Layer_1">
      <g>
        <g>
          <path class="cls-1" d="M1.6,1.6c0,80.2,65.1,145.3,145.3,145.3V1.6H1.6Z"/>
          <path d="M148.5,148.5h-1.6C65.9,148.5,0,82.6,0,1.6V0h148.5v148.5ZM3.2,3.2c.9,78,64.1,141.2,142.1,142.1V3.2H3.2Z"/>
        </g>
        <path d="M127.7,139.7h0c-1.3,0-2.6-.1-3.9-.4-41-8.1-75.3-32-96.4-67.2-10-16.6-16-33.1-19.3-53.6v-.7c-.5-2.1-1.1-5.3,1.7-7.9,2.2-2,7-2,9.3-2h108.3c2.9,0,6.9.4,9.6,2.1,3.6,2.3,3.6,8.2,3.6,11.7v105.1c0,3.3-1.3,9.2-4.9,11-2.3,1.3-5.1,1.9-8,1.9ZM19,9.5c-1.9,0-6.5,0-8.2,1.6-2.1,2-1.7,4.5-1.3,6.4v.8c3.4,20.3,9.3,36.6,19.2,53,20.9,34.8,54.8,58.4,95.4,66.5,3.7.8,7.7.3,10.8-1.4,3.1-1.6,4.1-7.2,4.1-9.6V21.6c0-3.2,0-8.4-2.9-10.3-2.4-1.5-6.1-1.8-8.8-1.8H19Z"/>
        <path d="M119.6,35.5c-3.2,0-6-2.8-6-6s2.7-5.8,6-5.8,6,2.7,6,5.8-2.8,6-6,6ZM119.6,25.3c-2.4,0-4.4,1.9-4.4,4.2s2.1,4.4,4.4,4.4,4.4-2.1,4.4-4.4-2-4.2-4.4-4.2Z"/>
        <rect x="31" y="28.7" width="76.5" height="1.6"/>
        <rect x="51.2" y="62.1" width="70.1" height="1.6" transform="translate(-19.2 79.4) rotate(-45)"/>
        <rect x="118.8" y="41.2" width="1.6" height="76.5"/>
      </g>
    </g>
  </g>
</svg>