<?xml version="1.0" encoding="UTF-8"?>
<svg xmlns="http://www.w3.org/2000/svg" version="1.1" viewBox="0 0 148.5 148.5">
  <defs>
    <style>
      .cls-1 {
        fill-rule: evenodd;
      }

      .cls-1, .cls-2 {
        fill: #fff;
      }
    </style>
  </defs>
  <!-- Generator: Adobe Illustrator 28.6.0, SVG Export Plug-In . SVG Version: 1.2.0 Build 709)  -->
  <g>
    <g id="Layer_1">
      <g>
        <g>
          <rect class="cls-2" x="1.6" y="1.6" width="145.3" height="145.3"/>
          <path d="M148.5,148.5H0V0h148.5v148.5ZM3.2,145.3h142.1V3.2H3.2v142.1Z"/>
        </g>
        <path d="M119,32c-3.6,0-6.6-3-6.6-6.8s3-6.8,6.6-6.8,6.8,3.1,6.8,6.8-3.1,6.8-6.8,6.8ZM119,20c-2.8,0-5,2.3-5,5.2s2.2,5.2,5,5.2,5.2-2.4,5.2-5.2-2.4-5.2-5.2-5.2Z"/>
        <rect x="118.2" y="19.2" width="1.6" height="11.9"/>
        <rect x="113.2" y="24.4" width="11.8" height="1.6"/>
        <path d="M132.7,139.5H15.8c-3.8,0-6.8-2.9-6.8-6.6V15.8c0-3.7,3-6.6,6.8-6.6h116.9c3.8,0,6.8,2.9,6.8,6.6v117c0,3.7-3,6.6-6.8,6.6ZM15.8,10.8c-2.9,0-5.2,2.2-5.2,5v117c0,2.8,2.3,5,5.2,5h116.9c2.9,0,5.2-2.2,5.2-5V15.8c0-2.8-2.3-5-5.2-5H15.8Z"/>
        <path d="M131.1,136.3H17.4c-2.8,0-5-2.2-5-5V17.4c0-2.8,2.2-5,5-5h113.7c2.8,0,5,2.2,5,5v113.8c0,2.8-2.2,5-5,5ZM17.4,14c-1.9,0-3.4,1.5-3.4,3.4v113.8c0,1.9,1.5,3.4,3.4,3.4h113.7c1.9,0,3.4-1.5,3.4-3.4V17.4c0-1.9-1.5-3.4-3.4-3.4H17.4Z"/>
        <g>
          <path class="cls-1" d="M74.3,47.6c5.3,0,9.7-4.4,9.7-9.8,0-8.1-5.8-5.8-5.8-11.5V9.7h-7.7v16.3c0,6.1-5.8,3.6-5.8,11.8s4.4,9.8,9.7,9.8h0Z"/>
          <path d="M74.3,48.4c-5.8,0-10.5-4.8-10.5-10.7s2-6.3,3.5-7.6c1.3-1,2.3-1.8,2.3-4.2V8.9h9.4v17.4c0,2.2.9,2.9,2.2,3.9,1.6,1.2,3.6,2.8,3.6,7.6s-4.7,10.7-10.5,10.7ZM71.2,10.5v15.5c0,3.2-1.5,4.4-2.9,5.5-1.5,1.2-2.9,2.3-2.9,6.3s4,9,8.9,9,8.9-4.1,8.9-9-1.4-5.1-3-6.3c-1.3-1-2.8-2.2-2.8-5.2v-15.8h-6.1Z"/>
        </g>
        <g>
          <polygon class="cls-1" points="66 6.3 82.5 6.3 81 9.7 67.5 9.7 66 6.3"/>
          <path d="M81,10.5h-13.6c-.3,0-.6-.2-.7-.5l-1.5-3.4c-.1-.2,0-.5,0-.8.2-.2.4-.4.7-.4h16.5c.3,0,.5.1.7.4.2.2.2.5,0,.8l-1.5,3.4c-.1.3-.4.5-.7.5ZM68,8.9h12.5l.8-1.8h-14l.8,1.8Z"/>
        </g>
        <g>
          <rect class="cls-2" x="63" y="1.6" width="22.6" height="4.7"/>
          <path d="M86.4,7.1h-24.2V.8h24.2v6.3ZM63.8,5.5h21v-3.1h-21v3.1Z"/>
        </g>
      </g>
    </g>
  </g>
</svg>