<?xml version="1.0" encoding="UTF-8"?>
<svg xmlns="http://www.w3.org/2000/svg" version="1.1" viewBox="0 0 67.7 67.7">
  <defs>
    <style>
      .cls-1 {
        stroke-width: 1.1px;
      }

      .cls-1, .cls-2 {
        fill: #fff;
        stroke: #000;
        stroke-linecap: square;
        stroke-miterlimit: 10;
      }

      .cls-2 {
        stroke-width: .4px;
      }
    </style>
  </defs>
  <!-- Generator: Adobe Illustrator 28.6.0, SVG Export Plug-In . SVG Version: 1.2.0 Build 709)  -->
  <g>
    <g id="Layer_1">
      <g>
        <rect class="cls-1" x=".5" y=".5" width="66.6" height="66.6"/>
        <rect class="cls-1" x="4.5" y="4.5" width="58.6" height="58.6" rx="4.4" ry="4.4" transform="translate(67.7 0) rotate(90)"/>
        <path class="cls-1" d="M12,7.2h43.7c2.6,0,4.8,2.2,4.8,4.8v43.7c0,2.6-2.2,4.8-4.8,4.8H12c-2.6,0-4.8-2.2-4.8-4.8V12c0-2.6,2.2-4.8,4.8-4.8Z" transform="translate(67.7 0) rotate(90)"/>
        <path class="cls-2" d="M52.6,55.2c0-1.2,1-2.2,2.2-2.2s2.2,1,2.2,2.2-1,2.2-2.2,2.2-2.2-1-2.2-2.2Z"/>
      </g>
    </g>
  </g>
</svg>