<svg xmlns="http://www.w3.org/2000/svg" viewBox="0 0 104 64">
  <path fill="#2E77BC" d="M104 64H0V0h104v64zM52 32"/>
  <path fill="#FFFFFF" d="M52 32l2.4-5.7h17.5v-4H56.4L59 17H45.6l-2.5 5.3L40.5 17H27.1v3.8L24.3 17H13.8l-8.4 19h11.3l1.6-3.7h3.3l1.6 3.7h22.8v-3.9l1.8 3.9h10.5L52 32zm-31.8-3.7h-3.4l3.4-8.1v8.1zm21.9 3.7H27.8v-19h14.3v3.9h-10v3.6h9.8v3.9h-9.8v3.8h10v3.8zm9.9 0h-5.3l-6-10.3V32h-10V13h10.1l5.9 10.1V13h10v19h-4.7zm35.8 0h-6.6l-1.6-3.7h-9.3l-1.5 3.7h-6.8l8.4-19h9l8.4 19zm-9.8-7.6l-3-7.1-3 7.1h6z"/>
</svg> 