<svg xmlns="http://www.w3.org/2000/svg" viewBox="0 0 1000 324">
  <path fill="#1434CB" d="M651.185 0h-88.67l55.45 323.47h88.67L651.185 0zM321.16 0L235.32 220.49l-9.632-48.856-28.903-146.468C193.338 10.582 180.966 0 165.814 0H0l2.176 7.582c33.404 7.582 70.936 19.815 93.816 32.907 13.944 7.582 17.897 14.304 22.57 32.048l75.6 250.933h89.387L424.98 0h-103.82zM814.96 0l-70.22 323.47h84.717L899.677 0H814.96zM951.87 213.767c.717-3.791 34.12-166.283 34.12-166.283-0.717 3.791 7.174-18.956 11.486-31.189l5.74 27.398 19.73 170.074H951.87z"/>
  <path fill="#1434CB" d="M1000 0h-68.76c-13.944 0-24.714 3.791-30.454 17.236L806.24 323.47h89.387s11.127-52.648 13.586-64.022h83.647c1.717 8.441 7.457 64.022 7.457 64.022H1080L1000 0zm-95.485 198.604c5.382-13.811 25.83-66.954 25.83-66.954s5.382-14.304 8.975-23.605l4.307 20.673 14.661 69.886h-53.773z"/>
</svg> 