<?xml version="1.0" encoding="UTF-8"?>
<svg xmlns="http://www.w3.org/2000/svg" version="1.1" viewBox="0 0 56.3 56.2">
  <defs>
    <style>
      .cls-1 {
        fill: none;
        stroke-width: .4px;
      }

      .cls-1, .cls-2 {
        stroke: #000;
        stroke-miterlimit: 10;
      }

      .cls-2 {
        fill: #fff;
        stroke-width: 1.1px;
      }
    </style>
  </defs>
  <!-- Generator: Adobe Illustrator 28.6.0, SVG Export Plug-In . SVG Version: 1.2.0 Build 709)  -->
  <g>
    <g id="Layer_1">
      <g>
        <rect class="cls-2" x=".5" y=".5" width="55.2" height="45.2"/>
        <rect class="cls-2" x=".5" y="45.7" width="55.2" height="5"/>
        <g>
          <g>
            <path class="cls-1" d="M16.5,46.7c-.6.2-1,.8-1,1.5s.4,1.3,1,1.5v-3.1Z"/>
            <path class="cls-1" d="M17.7,46.7v3.1c.6-.2,1-.8,1-1.5s-.4-1.3-1-1.5Z"/>
          </g>
          <rect class="cls-1" x="16.5" y="46.2" width="1.3" height="4"/>
        </g>
        <g>
          <g>
            <path class="cls-1" d="M23.9,46.7c-.6.2-1,.8-1,1.5s.4,1.3,1,1.5v-3.1Z"/>
            <path class="cls-1" d="M25.2,46.7v3.1c.6-.2,1-.8,1-1.5s-.4-1.3-1-1.5Z"/>
          </g>
          <rect class="cls-1" x="23.9" y="46.2" width="1.3" height="4"/>
        </g>
        <g>
          <g>
            <path class="cls-1" d="M31.4,46.7c-.6.2-1,.8-1,1.5s.4,1.3,1,1.5v-3.1Z"/>
            <path class="cls-1" d="M32.7,46.7v3.1c.6-.2,1-.8,1-1.5s-.4-1.3-1-1.5Z"/>
          </g>
          <rect class="cls-1" x="31.4" y="46.2" width="1.3" height="4"/>
        </g>
        <g>
          <g>
            <path class="cls-1" d="M38.9,46.7c-.6.2-1,.8-1,1.5s.4,1.3,1,1.5v-3.1Z"/>
            <path class="cls-1" d="M40.2,46.7v3.1c.6-.2,1-.8,1-1.5s-.4-1.3-1-1.5Z"/>
          </g>
          <rect class="cls-1" x="38.9" y="46.2" width="1.3" height="4"/>
        </g>
        <path d="M40.5,15.6s0,0-.1,0c-1.3,0-2.5-.6-3.4-1.5-.9-.9-1.4-2.2-1.3-3.4,0-2.7,2.3-4.8,4.9-4.7,2.7,0,4.8,2.3,4.7,4.9,0,2.6-2.2,4.7-4.8,4.7ZM40.5,6.5c-2.3,0-4.2,1.8-4.2,4.1,0,1.1.4,2.2,1.2,3,.8.8,1.8,1.3,3,1.3,0,0,0,0,.1,0,2.3,0,4.2-1.8,4.2-4.1,0-1.1-.4-2.2-1.2-3-.8-.8-1.8-1.3-3-1.3,0,0,0,0-.1,0Z"/>
        <g>
          <path d="M14.7,19.8c0,0-.1,0-.2,0-2.2,0-4.2-1-5.8-2.6-1.5-1.6-2.3-3.7-2.3-5.9.1-4.5,3.9-8.1,8.4-8,2.2,0,4.2,1,5.8,2.6,1.5,1.6,2.3,3.7,2.3,5.9,0,2.2-1,4.2-2.6,5.8-1.5,1.5-3.5,2.3-5.7,2.3ZM6.8,11.4h.3c0,2.1.7,4,2.1,5.5,1.4,1.5,3.3,2.3,5.4,2.4,2,0,4-.7,5.5-2.1,1.5-1.4,2.3-3.3,2.4-5.4,0-2-.7-4-2.1-5.5s-3.3-2.3-5.4-2.4c-4.2-.1-7.8,3.2-7.9,7.5h-.3Z"/>
          <path d="M19.5,11.3c-.1-2.4-2.1-4.4-4.5-4.5V1.7h-.6v5.1c-1.1,0-2.2.5-3,1.3-.9.9-1.4,2-1.5,3.2h-5.1v.6h5.1c0,1.1.5,2.2,1.3,3,.9.9,2,1.4,3.2,1.5v5.1h.6v-5.1c1.1,0,2.2-.5,3-1.3.9-.9,1.4-2,1.5-3.2h5.1v-.6h-5.1Z"/>
        </g>
        <path d="M43.2,10.4c0-.6-.3-1.2-.7-1.6-.5-.5-1.1-.8-1.7-.8v-3.7h-.6v3.7c-1.3.1-2.3,1.2-2.5,2.5h-3.7v.6h3.7c.1,1.3,1.2,2.3,2.5,2.5v3.7h.6v-3.7c.6,0,1.2-.3,1.6-.7.5-.5.8-1.1.8-1.7h3.7v-.6h-3.7Z"/>
        <path d="M46.5,31.3c-.1-3.1-2.6-5.6-5.7-5.7v-6.1h-.6v6.1c-1.4,0-2.8.6-3.8,1.6-1.1,1.1-1.8,2.5-1.9,4.1h-6.1v.6h6.1c.1,3.1,2.6,5.6,5.7,5.7v6.1h.6v-6.1c3.1-.1,5.6-2.6,5.7-5.7h6.1v-.6h-6.1Z"/>
        <g>
          <path d="M14.7,39.7c0,0-.1,0-.2,0-3.9,0-7-3.4-6.9-7.3,0-1.9.8-3.6,2.2-5s3.2-2,5.1-1.9c1.9,0,3.6.8,5,2.2,1.3,1.4,2,3.2,1.9,5.1,0,3.8-3.3,6.9-7.1,6.9ZM14.7,26.1c-1.7,0-3.3.6-4.5,1.8-1.3,1.2-2,2.8-2,4.6,0,3.6,2.8,6.6,6.3,6.7,0,0,.1,0,.2,0,3.5,0,6.4-2.8,6.5-6.3,0-1.7-.6-3.4-1.8-4.7-1.2-1.3-2.8-2-4.6-2,0,0-.1,0-.2,0Z"/>
          <path d="M23.6,32.3h-5.2c-.1-1.8-1.6-3.3-3.4-3.4v-5.2h-.6v5.2c-1.8.1-3.3,1.6-3.4,3.4h-5.2v.6h5.2c.1,1.8,1.6,3.3,3.4,3.4v5.2h.6v-5.2c1.8-.1,3.3-1.6,3.4-3.4h5.2v-.6Z"/>
        </g>
        <polygon class="cls-2" points="46.6 55.6 9.6 55.6 9.6 50.8 11.7 50.8 11.7 53.9 44.5 53.9 44.5 50.8 46.6 50.8 46.6 55.6"/>
        <path d="M40.5,42c0,0-.2,0-.3,0-2.8,0-5.4-1.2-7.3-3.2s-2.9-4.7-2.9-7.5c0-2.8,1.2-5.4,3.2-7.3,2-1.9,4.7-2.9,7.5-2.9,2.8,0,5.4,1.2,7.3,3.2,1.9,2,2.9,4.7,2.9,7.5h-.3s.3,0,.3,0c0,2.8-1.2,5.4-3.2,7.3-2,1.9-4.5,2.9-7.2,2.9ZM40.5,21.7c-2.5,0-5,1-6.8,2.7-1.9,1.8-3,4.3-3.1,6.9s.9,5.2,2.7,7.1,4.3,3,6.9,3.1c2.6,0,5.2-.9,7.1-2.7,1.9-1.8,3-4.3,3.1-6.9s-.9-5.2-2.7-7.1c-1.8-1.9-4.3-3-6.9-3.1,0,0-.2,0-.3,0Z"/>
      </g>
    </g>
  </g>
</svg>