<?xml version="1.0" encoding="UTF-8"?>
<svg xmlns="http://www.w3.org/2000/svg" version="1.1" viewBox="0 0 30.4 51.1">
  <defs>
    <style>
      .cls-1 {
        fill: #fff;
        stroke-width: .8px;
      }

      .cls-1, .cls-2 {
        stroke: #000;
        stroke-miterlimit: 10;
      }

      .cls-2 {
        fill: none;
        stroke-width: .4px;
      }
    </style>
  </defs>
  <!-- Generator: Adobe Illustrator 28.6.0, SVG Export Plug-In . SVG Version: 1.2.0 Build 709)  -->
  <g>
    <g id="Layer_1">
      <g>
        <rect class="cls-1" x=".4" y=".4" width="29.5" height="44.5"/>
        <rect class="cls-1" x=".4" y="44.9" width="29.5" height="5.8"/>
        <g>
          <g>
            <g>
              <path class="cls-2" d="M4.5,46.2c-.6.2-1,.8-1,1.5s.4,1.3,1,1.5v-3.1Z"/>
              <path class="cls-2" d="M5.7,46.2v3.1c.6-.2,1-.8,1-1.5s-.4-1.3-1-1.5Z"/>
            </g>
            <rect class="cls-2" x="4.5" y="45.8" width="1.3" height="4"/>
          </g>
          <g>
            <g>
              <path class="cls-2" d="M11.9,46.2c-.6.2-1,.8-1,1.5s.4,1.3,1,1.5v-3.1Z"/>
              <path class="cls-2" d="M13.2,46.2v3.1c.6-.2,1-.8,1-1.5s-.4-1.3-1-1.5Z"/>
            </g>
            <rect class="cls-2" x="11.9" y="45.8" width="1.3" height="4"/>
          </g>
        </g>
        <path d="M17.6,47.8c0,.5.4.9.9.9s.9-.4.9-.9-.4-.9-.9-.9-.9.4-.9.9Z"/>
        <path d="M21,47.8c0,.5.4.9.9.9s.9-.4.9-.9-.4-.9-.9-.9-.9.4-.9.9Z"/>
        <path d="M24.5,47.8c0,.5.4.9.9.9s.9-.4.9-.9-.4-.9-.9-.9-.9.4-.9.9Z"/>
        <g>
          <path d="M15.2,24.1c0,0,.1,0,.2,0,2.2,0,4.2,1,5.8,2.6,1.5,1.6,2.3,3.7,2.3,5.9-.1,4.5-3.9,8.1-8.4,8-2.2,0-4.2-1-5.8-2.6-1.5-1.6-2.3-3.7-2.3-5.9,0-2.2,1-4.2,2.6-5.8,1.5-1.5,3.5-2.3,5.7-2.3ZM23.1,32.5h-.3c0-2.1-.7-4-2.1-5.5s-3.3-2.3-5.4-2.4c-2,0-4,.7-5.5,2.1-1.5,1.4-2.3,3.3-2.4,5.4,0,2,.7,4,2.1,5.5s3.3,2.3,5.4,2.4c4.2.1,7.8-3.2,7.9-7.5h.3Z"/>
          <path d="M10.4,32.6c.1,2.4,2.1,4.4,4.5,4.5v5.1h.6v-5.1c1.1,0,2.2-.5,3-1.3.9-.9,1.4-2,1.5-3.2h5.1v-.6h-5.1c0-1.1-.5-2.2-1.3-3-.9-.9-2-1.4-3.2-1.5v-5.1h-.6v5.1c-1.1,0-2.2.5-3,1.3-.9.9-1.4,2-1.5,3.2h-5.1v.6h5.1Z"/>
        </g>
        <g>
          <path d="M15.2,4.2c0,0,.1,0,.2,0,3.9,0,7,3.4,6.9,7.3,0,1.9-.8,3.6-2.2,5s-3.2,2-5.1,1.9c-1.9,0-3.6-.8-5-2.2-1.3-1.4-2-3.2-1.9-5.1,0-3.8,3.3-6.9,7.1-6.9ZM15.2,17.8c1.7,0,3.3-.6,4.5-1.8,1.3-1.2,2-2.8,2-4.6,0-3.6-2.8-6.6-6.3-6.7,0,0-.1,0-.2,0-3.5,0-6.4,2.8-6.5,6.3,0,1.7.6,3.4,1.8,4.7,1.2,1.3,2.8,2,4.6,2,0,0,.1,0,.2,0Z"/>
          <path d="M6.3,11.6h5.2c.1,1.8,1.6,3.3,3.4,3.4v5.2h.6v-5.2c1.8-.1,3.3-1.6,3.4-3.4h5.2v-.6h-5.2c-.1-1.8-1.6-3.3-3.4-3.4V2.4h-.6v5.2c-1.8.1-3.3,1.6-3.4,3.4h-5.2v.6Z"/>
        </g>
      </g>
    </g>
  </g>
</svg>