<?xml version="1.0" encoding="UTF-8"?>
<svg xmlns="http://www.w3.org/2000/svg" version="1.1" viewBox="0 0 79.8 58">
  <defs>
    <style>
      .cls-1 {
        stroke-width: .4px;
      }

      .cls-1, .cls-2, .cls-3 {
        fill: #fff;
        stroke: #000;
        stroke-miterlimit: 10;
      }

      .cls-2 {
        stroke-width: .7px;
      }

      .cls-3 {
        stroke-width: 1.1px;
      }
    </style>
  </defs>
  <!-- Generator: Adobe Illustrator 28.6.0, SVG Export Plug-In . SVG Version: 1.2.0 Build 709)  -->
  <g>
    <g id="Layer_1">
      <g>
        <rect class="cls-3" x=".5" y=".5" width="78.7" height="45.2"/>
        <rect class="cls-3" x=".5" y="45.7" width="78.7" height="6.9"/>
        <path class="cls-3" d="M59.4,10.2c0-2.5,2.1-4.5,4.6-4.4,2.5,0,4.5,2.1,4.4,4.6,0,2.5-2.1,4.5-4.6,4.4-2.5,0-4.5-2.1-4.4-4.6Z"/>
        <path class="cls-3" d="M6.1,14.1c.1-4.7,4-8.4,8.7-8.3s8.4,4,8.3,8.7c-.1,4.7-4,8.4-8.7,8.3-4.7-.1-8.4-4-8.3-8.7Z"/>
        <path class="cls-3" d="M74.1,30.5c-.1,5.6-4.8,10.1-10.4,9.9-5.6-.1-10.1-4.8-9.9-10.4s4.8-10.1,10.4-9.9c5.6.1,10.1,4.8,9.9,10.4Z"/>
        <circle class="cls-3" cx="14.6" cy="33.7" r="6.8" transform="translate(-4.7 2.4) rotate(-8.2)"/>
        <rect class="cls-3" x="32.1" y="6.1" width="15.5" height="33.4" rx="5.1" ry="5.1"/>
        <path class="cls-2" d="M61.1,10.3c0-1.5,1.3-2.7,2.8-2.7,1.5,0,2.7,1.3,2.7,2.8,0,1.5-1.3,2.7-2.8,2.7-1.5,0-2.7-1.3-2.7-2.8Z"/>
        <path class="cls-2" d="M8.2,14.1c0-3.5,3-6.3,6.5-6.2,3.5,0,6.3,3,6.2,6.5s-3,6.3-6.5,6.2c-3.5,0-6.3-3-6.2-6.5Z"/>
        <path class="cls-2" d="M71.5,30.5c-.1,4.2-3.6,7.5-7.8,7.4-4.2-.1-7.5-3.6-7.4-7.8.1-4.2,3.6-7.5,7.8-7.4,4.2.1,7.5,3.6,7.4,7.8Z"/>
        <path class="cls-2" d="M19.7,33.8c0,2.8-2.4,5-5.2,5-2.8,0-5-2.4-5-5.2,0-2.8,2.4-5,5.2-5,2.8,0,5,2.4,5,5.2Z"/>
        <rect class="cls-2" x="34.1" y="8.4" width="11.7" height="28.9" rx="3.9" ry="3.9"/>
        <g>
          <g>
            <g>
              <path class="cls-1" d="M16.3,47.7c-.6.2-1,.8-1,1.5s.4,1.3,1,1.5v-3.1Z"/>
              <path class="cls-1" d="M17.6,47.7v3.1c.6-.2,1-.8,1-1.5s-.4-1.3-1-1.5Z"/>
            </g>
            <rect class="cls-1" x="16.3" y="47.2" width="1.3" height="4"/>
          </g>
          <g>
            <g>
              <path class="cls-1" d="M23.8,47.7c-.6.2-1,.8-1,1.5s.4,1.3,1,1.5v-3.1Z"/>
              <path class="cls-1" d="M25.1,47.7v3.1c.6-.2,1-.8,1-1.5s-.4-1.3-1-1.5Z"/>
            </g>
            <rect class="cls-1" x="23.8" y="47.2" width="1.3" height="4"/>
          </g>
          <g>
            <g>
              <path class="cls-1" d="M54.7,47.7c-.6.2-1,.8-1,1.5s.4,1.3,1,1.5v-3.1Z"/>
              <path class="cls-1" d="M56,47.7v3.1c.6-.2,1-.8,1-1.5s-.4-1.3-1-1.5Z"/>
            </g>
            <rect class="cls-1" x="54.7" y="47.2" width="1.3" height="4"/>
          </g>
          <g>
            <g>
              <path class="cls-1" d="M62.2,47.7c-.6.2-1,.8-1,1.5s.4,1.3,1,1.5v-3.1Z"/>
              <path class="cls-1" d="M63.5,47.7v3.1c.6-.2,1-.8,1-1.5s-.4-1.3-1-1.5Z"/>
            </g>
            <rect class="cls-1" x="62.2" y="47.2" width="1.3" height="4"/>
          </g>
          <path d="M34.2,49.2c0,.5-.4.9-.9.9s-.9-.4-.9-.9.4-.9.9-.9.9.4.9.9Z"/>
          <circle cx="40.1" cy="49.2" r=".9"/>
          <path d="M47.9,49.2c0,.5-.4.9-.9.9s-.9-.4-.9-.9.4-.9.9-.9.9.4.9.9Z"/>
        </g>
        <polygon class="cls-3" points="58.4 57.5 21.4 57.5 21.4 52.7 23.5 52.7 23.5 55.8 56.3 55.8 56.3 52.7 58.4 52.7 58.4 57.5"/>
      </g>
    </g>
  </g>
</svg>