<?xml version="1.0" encoding="UTF-8"?>
<svg xmlns="http://www.w3.org/2000/svg" version="1.1" viewBox="0 0 80.7 80.6">
  <defs>
    <style>
      .cls-1 {
        fill: #fff;
        stroke: #000;
        stroke-linecap: round;
        stroke-linejoin: round;
        stroke-width: .7px;
      }
    </style>
  </defs>
  <!-- Generator: Adobe Illustrator 28.6.0, SVG Export Plug-In . SVG Version: 1.2.0 Build 709)  -->
  <g>
    <g id="Layer_1">
      <g>
        <path class="cls-1" d="M22.8,6.1c-.7,0-1.5-.3-2.3-.5.5,3.4,2.1,7.6,3.7,9.9,2.3,3.2,3.1,8.7,4.2,13.4,1.1,0,2.2-.3,3.4-.8-.8,1-1.8,1.8-2.9,2.6.3,1.2.7,2.4,1.2,3.3,2.3,4.8,4.8,3.8,8.6,1.7,6.1-3.4,3.1-6.3-1.6-19.9-1.4-4.1-3.3-7.3-5.5-9.7-1.1,1-2.3,1.8-3.2,2.9.6-1.5,1.1-3,1.7-4.5-2.4-2.2-5-3.5-7.2-4.1-2.2-.6-2.8,1.5-2.5,4.4.7.5,1.5.9,2.3,1.2Z"/>
        <path class="cls-1" d="M42.9,32.9c1.7,1,2,2.8,8.5.8,1.4-.4,3.1-1.5,4.9-3.1-1.3-1.2-2.4-2.6-4-3.6,1.8.8,3.6,1.5,5.5,2.3,4.7-4.4,9.9-10.9,12.8-15.2-.8,0-1.5-.2-2.3-.3.9-1.3,2-1.2,3.1-1,.7-1.2,1.2-2.1,1.3-2.6.7-3.2-2.2-6.9-10.7-3.4-1.4.6-3.2,1.5-5.1,2.7.6,2.1.9,4.2.3,6.5-.8-1.8-2-3.2-3.4-4.5-5,3.5-10.2,8.2-12.6,12.5.7.6,1.4,1.2,1.9,2.2-.7-.6-1.7-.4-2.6-.5-1.1,2.9-.6,5.5,2.5,7.2Z"/>
        <path class="cls-1" d="M53.8,11.5c-5,3.5-10.2,8.2-12.6,12.5.7.6,1.4,1.2,1.9,2.2-.7-.6-1.7-.4-2.6-.5-1.1,2.9-.6,5.5,2.5,7.2,0,0,0,0,0,0,1.9-2.8,7-10,10.9-11.7,4.4-1.9,14.9-12.6,17.2-15.1-1.7-1-4.6-1.1-9,.7-1.4.6-3.2,1.5-5.1,2.7.6,2.1.9,4.2.3,6.5-.8-1.8-2-3.2-3.4-4.5Z"/>
        <path class="cls-1" d="M31.6,37.7c1.4,1.2,2.5,2.2,5.8,3.5-4.1,1.2-6,.6-6.7.3h0s-.2.6-.2.6h0c.8.3,2.7,1,7-.2l-5.3,6.7.5.4,5.2-6.6c-.2,2.9,1,6.9,1.1,7.1l.7-.2c0,0-1.5-4.8-1-7.6.8.5,2.8,1.9,5.9,5.2l.5-.5c-2.9-3.1-4.8-4.6-5.8-5.2,4.7-1.4,9.4-1.3,9.4-1.3v-.7s-4.8,0-9.7,1.4c.6-1.6,2.1-4.1,4.3-7.2.2-.2.2-.3.2-.4h-.2c0,0-.2-.3-.2-.3,0,0-.2.3-.3.3-1.8,2.6-3.2,4.8-4,6.5-.2-2.1-.9-3.7-1-3.8l-.6.3s1,2.2,1,4.7c-3.5-1.3-4.7-2.3-6.1-3.5-.9-.7-1.8-1.6-3.5-2.6l-.4.6c1.6,1,2.5,1.8,3.4,2.5Z"/>
        <path class="cls-1" d="M52.8,21.8l-4.2-6.2c-1.1,1-2.2,2-3.2,3l5.6,4.6c.6-.5,1.2-1,1.8-1.4Z"/>
        <path class="cls-1" d="M50,24l-5.1-2.7-1.1.3,5,3.7c.4-.4.8-.9,1.2-1.3Z"/>
        <path class="cls-1" d="M67.5,18.3l-6.1-2.9-4.4,3.8s4.7,3.3,6.3,4.3c1.5-1.7,2.9-3.5,4.2-5.2Z"/>
        <g>
          <path class="cls-1" d="M46.2,58.7c1.5-.8,2.8-1.7,4-3.1-.6,1.5-1.6,2.9-2.2,4.5,8.2,6,25.5,14.7,30.3,13.4,3.9-1,.4-7.9-3.2-11.9,0,0-2.8,1.8-4.8,2.5.9-1.4,2.2-2.5,3.2-3.7-1.2-.8-2.4-1.4-3.6-1.6-6-.9-16-25.3-25.7-11.5-.8,1.1-2.8,4.1-.4,8.9.4.7,1.2,1.5,2.4,2.5Z"/>
          <path class="cls-1" d="M67.1,63.6c5.8,3.2,9.9,7,12.3,9.3,2-1.8.7-6-4.4-11.3,0,0-2.8,1.8-4.8,2.5.9-1.4,2.2-2.5,3.2-3.7-1.2-.8-2.4-1.4-3.6-1.6-5.8-.9-15.4-24-24.9-12.5,2.1,5,14,12.7,22.1,17.3Z"/>
          <path class="cls-1" d="M68.4,64.3l-5.8,4.3c1.3.6,2.6,1.2,3.9,1.8l4.3-4.6c-.8-.5-1.6-1-2.4-1.5Z"/>
          <path class="cls-1" d="M71.4,66.2l-3.7,4.7c.7.3,1.5.6,2.2.9l2.5-4.9c-.3-.2-.7-.5-1-.7Z"/>
          <path class="cls-1" d="M59.3,48.4c-1.1,2.6-2.7,6.8-3.3,8.3.9.6,4.7,3.1,5.7,3.7.8-.8,5.2-3.4,5.2-3.4-.8-.9-4.6-5.2-5.4-6.2l-3.5,5.2-.2-.4,2.2-6.4c-.2-.3-.5-.5-.7-.8Z"/>
        </g>
        <path class="cls-1" d="M38,36.1c.2-.1.5-.3.7-.4,6.1-3.4,3.1-6.3-1.6-19.9-1.4-4.1-3.3-7.3-5.5-9.7-1.1,1-2.3,1.8-3.2,2.9.6-1.5,1.1-3,1.7-4.5-2.4-2.2-5-3.5-7.2-4.1-.6-.2-1-.1-1.4,0,8.1,9.7,14.7,29.8,16.5,35.5Z"/>
        <path class="cls-1" d="M1,24c.6-1.1,1.9-1.7,3.5-2,0,.6,0,1.2.1,1.8.8-.7,1.6-1.4,2.4-2,5.9,0,14.3,2.8,17.9,5,5.2,3.3,4,8,4,8-2.5,2.6-4.5,3.5-6.5,3.2-.1-2.2-.8-4.4-.8-4.4,0,0,0,2.3-1.5,3.9-1.8-1.3-5-4.3-7.4-6.5-1.1-1-2.3-1.7-3.4-2.3.4-.5.8-.9,1.1-1.4-.6.4-1.2.7-1.8,1.1-5.3-2.1-9.9-.4-7.6-4.4Z"/>
        <path class="cls-1" d="M25.7,37c-.3,1.1-.5,2.3-.4,3.6-.4-1-.7-2.2-1.2-3.3-7,1.2-19.9,5.8-21.6,8.9-1.4,2.5,2.5,4,6.3,4.1,0-.1,2.4-3.6,2.4-3.6.2,1.2.2,2.3.3,3.4,1-.2,23.2,3.2,21-8.5-.2-.9-.7-3.4-4.3-4.5-.5-.2-1.4-.2-2.4,0Z"/>
        <path class="cls-1" d="M13,45.3c-4.5,1.4-8.4,1.7-10.8,1.8,0,1.9,3.3,3.1,6.5,3.2l2.4-3.6c.2,1.2.2,2.3.3,3.4,1-.2,22.3,2.8,21.1-7.6-4.3-.5-13.3.9-19.6,2.8Z"/>
        <path class="cls-1" d="M.5,25c2.2-.3,7.4-.7,10.8.7,4.3,1.8,12.1,5.1,17.3,9.4-2.4,2.5-4.4,3.3-6.3,3.1-.1-2.2-.8-4.4-.8-4.4,0,0,0,2.3-1.5,3.9-1.8-1.3-5-4.3-7.4-6.5-1.1-1-2.3-1.7-3.4-2.3.4-.5.8-.9,1.1-1.4-.6.4-1.2.7-1.8,1.1-4.8-1.9-9.1-.7-8.1-3.5Z"/>
        <path class="cls-1" d="M38.7,20.1c-.5-1.3-1-2.7-1.5-4.3-.6-1.9-1.4-3.6-2.2-5.1l-3.1,8.4c.7,1.6,1.3,3.2,1.9,4.7l5-3.7Z"/>
        <path class="cls-1" d="M25.9,6.9l-5.5-4c0,.6,0,1.2,0,1.9.7.5,1.5.9,2.3,1.2-.7,0-1.5-.3-2.3-.5,0,.4.1.8.2,1.3,1.6.1,4.5.3,5.2.3,0,0,0-.1-.1-.2Z"/>
        <path class="cls-1" d="M40.6,41.6c.2-1.2-.7-2.3-1.9-2.5-1.2-.2-2.3.7-2.5,1.9-.2,1.2.7,2.3,1.9,2.5,1.2.2,2.3-.7,2.5-1.9Z"/>
        <path class="cls-1" d="M40.1,41.7c.1-.9-.6-1.7-1.6-1.8-1-.1-1.9.5-2,1.3-.1.9.6,1.7,1.6,1.8,1,.1,1.9-.5,2-1.3Z"/>
        <path class="cls-1" d="M39,40.4c-.4-.7-1.2-1-1.8-.6-.6.3-.7,1.2-.2,1.9.4.7,1.2,1,1.8.6s.7-1.2.2-1.9Z"/>
        <g>
          <path class="cls-1" d="M70.1,43.4c.2.5.5.9.8,1.4-2.3.3-5.4.1-7.2-.5-2.5-.9-6.3-.3-9.6-.1-.2-.8-.2-1.5-.1-2.4-.5.7-.8,1.6-1.1,2.4-.9,0-1.7,0-2.4-.1-3.6-.6-3.4-2.4-2.8-5.3,1.1-4.6,3.5-3.2,13.3-2.8,3,.1,5.4.8,7.4,1.7-.4.9-.7,1.8-1.3,2.7.9-.7,1.8-1.3,2.6-2,1.9,1.1,3.3,2.6,4.1,3.9.8,1.3-.5,2.1-2.4,2.5-.4-.4-.8-.8-1.2-1.3Z"/>
          <path class="cls-1" d="M47.6,39.2c0-.2,0-.4.1-.5,1.1-4.6,3.5-3.2,13.3-2.8,3,.1,5.4.8,7.4,1.7-.4.9-.7,1.8-1.3,2.7.9-.7,1.8-1.3,2.6-2,1.9,1.1,3.3,2.6,4.1,3.9.2.4.3.7.2.9-7.9-3.4-22.3-3.9-26.4-3.9Z"/>
          <path class="cls-1" d="M65.2,36.4v4.3c1,.2,2,.4,3,.6l2.8-2.2c-.4-.3-.8-.6-1.3-.9-.8.7-1.7,1.3-2.6,2,.5-.8.9-1.8,1.3-2.7-1-.4-2-.8-3.2-1.1Z"/>
          <path class="cls-1" d="M58.4,35.7c-.6,0-1.2,0-1.8-.1l-1,4c.5,0,1,0,1.6.1l1.2-4Z"/>
        </g>
        <path class="cls-1" d="M5.1,79.4c1.5.9,3.4,1,5.5.3-.3-.8-.6-1.6-1-2.3,1.4.3,2.8.7,4.2,1,7.3-3.7,16-12.4,19-17.4,4.4-7.3,0-12.4,0-12.4-4.7-1.7-7.8-1.5-10,0,1.2,2.8,1.8,6,1.8,6,0,0-1.5-2.8-4.2-3.9-1.5,2.8-3.5,8.4-5.1,12.7-.7,1.9-1.7,3.6-2.8,4.9.7.4,1.6.6,2.2,1.1-.9-.2-1.9-.2-2.9-.2-5.2,5.9-12,6.7-6.7,10.2Z"/>
        <path class="cls-1" d="M4,78.6c2.9-1,9.5-3.7,12.9-7.6,4.3-4.9,13.3-17.1,15.7-22.3-4.6-1.6-7.5-1.4-9.7.1,1.2,2.8,1.8,6,1.8,6,0,0-1.5-2.8-4.2-3.9-1.5,2.8-3.5,8.4-5.1,12.7-.7,1.9-1.7,3.6-2.8,4.9.7.4,1.6.6,2.2,1.1-.9-.2-1.9-.2-2.9-.2-4.8,5.4-10.8,6.5-7.8,9.3Z"/>
        <path class="cls-1" d="M24.7,60.9c-2.5,3.4-5.1,6.8-7,9l2.1,4.7c1.7-1.3,3.4-2.8,5-4.3v-3.4c0,0,1.9,1.5,1.9,1.5,1-1,2-2,2.8-3l-4-5.7-.9,1.2Z"/>
        <path class="cls-1" d="M39,45.9c-1.6.6-2.9-.3-5.3,5-.5,1.1-.7,2.9-.8,4.9,1.5-.1,3,0,4.6-.6-1.5.7-3,1.5-4.6,2.2.2,5.5,1.4,12.5,2.6,16.8.5-.4,2.5-2.2,3-2.7-1.5,2.1-2.7,3.9-2.7,3.9.3,1.1.7,1.9.9,2.3,1.7,2.3,5.7,2.5,8.3-5,.4-1.2.8-2.9,1.1-4.8-1.7-.8-4.5-2.5-4.5-2.5,0,0,3.4-.4,5-.6.6-5.2.5-11.2-.9-15.2-.8,0-1.6.3-2.5,0,.8-.1,1.2-.9,1.8-1.4-1.2-2.3-3.2-3.5-6.1-2.5Z"/>
        <path class="cls-1" d="M46.6,65c.6-5.2.5-11.2-.9-15.2-.8,0-1.6.3-2.5,0,.8-.1,1.2-.9,1.8-1.4-1.2-2.3-3.2-3.5-6.1-2.5,0,0,0,0,0,0,.7,2.8,2.5,10.1,1.4,13.6-1.3,3.9-.3,16.8,0,19.6,1.6-.5,3.3-2.3,4.7-6.2.4-1.2.8-2.9,1.1-4.8-1.7-.8-4.5-2.5-4.5-2.5,0,0,3.4-.4,5-.6Z"/>
      </g>
    </g>
  </g>
</svg>