<?xml version="1.0" encoding="UTF-8"?>
<svg xmlns="http://www.w3.org/2000/svg" version="1.1" viewBox="0 0 68.1 73.5">
  <defs>
    <style>
      .cls-1 {
        fill: #fff;
        stroke: #000;
        stroke-linecap: round;
        stroke-linejoin: round;
        stroke-width: .7px;
      }
    </style>
  </defs>
  <!-- Generator: Adobe Illustrator 28.6.0, SVG Export Plug-In . SVG Version: 1.2.0 Build 709)  -->
  <g>
    <g id="Layer_1">
      <g>
        <path class="cls-1" d="M31.2,39.4c0,0,32.6,0,32.6,2.9,0,2.9-13.3,2.4-16,1.8s-16.5-4.6-16.5-4.6Z"/>
        <path class="cls-1" d="M31.7,41.2c.2-.8,18.7-21.5,16.8-30-1.8-7.9-16.8,30-16.8,30Z"/>
        <path class="cls-1" d="M33.1,39.8s-.2-1.4-.9.6c-1.8,5.2-6.7,17.9-13.7,22.8-5.7,4,.3,6.1,5.1,0,6.1-7.9,8.3-16.1,9.5-23.4Z"/>
        <path class="cls-1" d="M33.1,39.8s-18.4,15.2-15.3,20.6c3,5.4,7.1-5.5,9.1-8.8s6.2-11.7,6.2-11.7Z"/>
        <path class="cls-1" d="M32.1,39.7c.5,0,36.2,9.6,35.6,15.1-.6,5.5-26.6-8-27.7-9-1-.9-7.9-6.1-7.9-6.1Z"/>
        <path class="cls-1" d="M32.9,40.7c0,.5,2.1,3.8,2.9,11.3.8,7.4,2.7,18.8,6.4,17s-6.7-25-9-27.9-.3-.3-.3-.3Z"/>
        <path class="cls-1" d="M32.1,39.6c-.3-.6,22.7,17.8,19.2,18.2-7.6,1.1-13.6-5.5-19.2-18.2Z"/>
        <path class="cls-1" d="M31.8,39.4s25.6-8.8,25.4-3.2c-.2,5.5-25.4,3.2-25.4,3.2Z"/>
        <path class="cls-1" d="M32.3,40.7s11-13,22.7-15.4c6.9-1.4,1.7-6.2-5.1-2.4-8.7,4.8-13.6,11.6-17.6,17.8Z"/>
        <path class="cls-1" d="M32.2,39.4s22.9-6.7,22.2-12.9c-.7-6.2-8.7,2.2-11.8,4.5s-10.3,8.4-10.3,8.4Z"/>
        <path class="cls-1" d="M33.1,39.9c.1.6-18.2-22.3-14.7-22,7.7.7,12,8.3,14.7,22Z"/>
        <path class="cls-1" d="M33.5,40.6c0,.6-11.1-26.6-7.9-25.3,7.2,2.8,9.2,11.4,7.9,25.3Z"/>
        <path class="cls-1" d="M32.8,40c0-.9,18.1-35.4,10.4-39.4-6-3.1-10.4,39.4-10.4,39.4Z"/>
        <path class="cls-1" d="M33.3,39.4c.1.7-11.2,12.8-28.9,14.1-17.8,1.3,28.9-14.1,28.9-14.1Z"/>
        <path class="cls-1" d="M33.7,39.8s-25.9,8.4-28.7,4.5c-2.7-4,28.7-4.5,28.7-4.5Z"/>
        <path class="cls-1" d="M33.8,40.1s-26.9,2.9-25.5-2.4c1.4-5.4,25.5,2.4,25.5,2.4Z"/>
        <path class="cls-1" d="M33,39.8s-18.4,15.2-15.3,20.6,7.9-5.1,9.9-8.4c2-3.4,5.4-12.1,5.4-12.1Z"/>
        <path class="cls-1" d="M33.1,40.3s-14.2,5-15,13.3c-.9,8.3,3.8-1.4,6.4-3.9,2.7-2.5,8.6-9.4,8.6-9.4Z"/>
        <path class="cls-1" d="M33.3,40.1c0,0-31.3-7.4-30.7-10.3.7-2.9,13.5.6,16,1.8s14.7,8.5,14.7,8.5Z"/>
        <path class="cls-1" d="M33,39.8c-.5,0-32.5-17.4-30.8-22.6s24.2,13.7,25,14.8,5.7,7.8,5.7,7.8Z"/>
        <path class="cls-1" d="M33.3,38.3c.3.8-3.8,28.2,2.5,34.3,5.8,5.7-2.5-34.3-2.5-34.3Z"/>
        <path class="cls-1" d="M33.1,38.8c.2-.4-.3-4.4,2-11.5,2.3-7.1,5.3-18.2,1.3-18.1s-4.3,25.6-3.5,29.1c.8,3.6.2.4.2.4Z"/>
        <path class="cls-1" d="M32.9,39.3c.7,4.7,1.7,23.6-2.5,24.4-5.7,1.1-4.4-7.7-2-11.9,3.4-5.8,4.6-12.5,4.5-12.5Z"/>
        <path class="cls-1" d="M33.2,39s15,1,19.1-6.3c4.1-7.3-4-.2-7.4,1.1s-11.6,5.3-11.6,5.3Z"/>
        <path class="cls-1" d="M32.4,40.4c1.9-3.4,10.2-22.1,13.7-21.1,4.9,1.4.5,6.8-3.5,9.3-5.4,3.5-10.4,11.8-10.3,11.8Z"/>
      </g>
    </g>
  </g>
</svg>