<?xml version="1.0" encoding="UTF-8"?>
<svg xmlns="http://www.w3.org/2000/svg" version="1.1" viewBox="0 0 77 77">
  <defs>
    <style>
      .cls-1 {
        fill: #fff;
        stroke: #000;
        stroke-linecap: round;
        stroke-linejoin: round;
        stroke-width: .7px;
      }
    </style>
  </defs>
  <!-- Generator: Adobe Illustrator 28.6.0, SVG Export Plug-In . SVG Version: 1.2.0 Build 709)  -->
  <g>
    <g id="Layer_1">
      <g>
        <path class="cls-1" d="M32.3,64.4c.4.5,4.5,8.9,4.5,8.9,0,0-.6-9.2-.5-10.4.1-1.1,4.4-13.1,5.1-15.2l7,5.3,3.4,16.4,2-16.9-6.5-9.2-8.6-7.5c-.4-.1-.9-.3-1.2-.6l-.6,10.3-3.8,8.7s-1.2,9.7-.8,10.2ZM37.8,35.5l2.9,5.6.5,5.1c-.9-2.6-2.9-8.7-3.5-10.7h.1Z"/>
        <path class="cls-1" d="M23.8,23.1l7.2,5.2,6.5,6.4h0s-.5.1-.5.1c.1.1.3.2.4.3h0s0,0,0,0h0c.4.3.8.5,1.2.7l-.5-.5,17.2,4.8,9.7,7.9,11.6-.9-4.6-8-12.2-4.2h-20.9c0,.1,8.4-3.2,8.4-3.2l4.8-6.7,10-6.1,1.7-6.7-5.7,2.5-11.3,6.4-2,7.9-6.6,5.8h-.3s5.3-7.7,5.3-7.7l3.8-13-2.4-7.4,1.5-3.3-8.1,4.5.9,15.9-1.2,11h-.2s-.1-6.6-.1-6.6l-7.4-10-5.5-4.7-.5-13-4.1,15.1,3.9,7.7Z"/>
        <path class="cls-1" d="M20.3,46.7l.2,13.3-3.1,4.5,3.4,12.2,8.4-9.6,1.5-20.9,5.9-9.7c0-.3-.1-.5-.2-.7l-16.1,10.9Z"/>
        <path class="cls-1" d="M12.5,39l6.6-4.5,11.8,4.4,5.6-3.2.9-.5h0s-.9.6-.9.6c0,.2.1.5.2.7l.8-1.3c-.1,0-.3-.2-.4-.3h0s-1-.3-1-.3c0,.1.1.3.2.4h.1-.1s-4.6.7-4.6.7l-14.7-8L.4,35.4l12.1,3.5Z"/>
        <path class="cls-1" d="M19.9,25.1l7.7,6.5s10.4,3.6,10.4,3.5l-10.7-5-8.1-8.3-1.8-2.8-4.5-.7-4.8,4.5,4.5-.8,7.4,3.2Z"/>
        <g>
          <path class="cls-1" d="M37.9,34.9c-.4.1-10.3-2.2-10.3-2.2,0,0-11,5.2-12,5.4-.9.2-8.4.5-8.4.5,0,0,7,2.6,7.4,2.9.4.2,8.1-1.5,8.1-1.5l6.7-3.7,8.5-1.3Z"/>
          <polygon class="cls-1" points="37.8 34.9 29.1 40.3 12.1 45.5 3.1 56 13.7 56.4 19.1 50.6 28.2 47.6 37.8 34.9"/>
          <polygon class="cls-1" points="37.7 35 32.3 21.1 20.1 12 19.1 6.1 24.6 9.3 36.1 17.1 37.7 35"/>
          <polygon class="cls-1" points="37.7 34.9 39.6 26.9 44.6 22.5 48.7 14 54 12.1 52.4 16.8 48.2 26.4 42.1 28.7 37.7 34.9"/>
          <polygon class="cls-1" points="37.6 35 43.7 29.8 53.8 25.8 60 27.1 62.5 25.6 59.6 32.4 46.7 33 37.6 35"/>
          <polygon class="cls-1" points="37.7 34.9 43.3 34.5 51.9 39.6 56.2 43.7 66.6 43 54.8 47.5 48.4 45 43.6 39.7 37.7 34.9"/>
          <polygon class="cls-1" points="37.8 35 35.2 40.6 39.7 49.7 36.6 55.4 40.4 64.8 45.2 50.9 37.4 39.7 37.8 35"/>
          <polygon class="cls-1" points="37.8 34.9 38.2 39.2 44 44.9 47.2 50.5 46.9 54.2 50.1 50 49.2 46.4 46.8 45.2 39.5 39.4 37.8 34.9"/>
          <polygon class="cls-1" points="37.7 34.9 34.4 40.3 34.6 43 32.6 47.4 30.3 48.8 34.2 48.9 36 46.8 35.6 44.8 35.6 40.8 37.7 34.9"/>
        </g>
        <path class="cls-1" d="M22,27.4l4.9,5.3h5.2s4.9,1.9,4.9,1.9h0s-.1.1-.1.1c0,0,.2.1.2.1s.2.1.2.1c0,0,.1-.1.2-.2v-.3c-.1,0-.2,0-.2,0l-7.5-7-7.9-4.5-13.4,3,13.4,1.4Z"/>
      </g>
    </g>
  </g>
</svg>