<?xml version="1.0" encoding="UTF-8"?>
<svg xmlns="http://www.w3.org/2000/svg" version="1.1" viewBox="0 0 78.7 84.5">
  <defs>
    <style>
      .cls-1 {
        fill: #fff;
        stroke: #000;
        stroke-linecap: round;
        stroke-linejoin: round;
        stroke-width: .7px;
      }
    </style>
  </defs>
  <!-- Generator: Adobe Illustrator 28.6.0, SVG Export Plug-In . SVG Version: 1.2.0 Build 709)  -->
  <g>
    <g id="Layer_1">
      <g>
        <g>
          <path class="cls-1" d="M20.3,7.8c1-1.8.3-4.7-8.1-4.8,2.4,5.7,7,6.8,8.1,4.8Z"/>
          <path class="cls-1" d="M25.4,12.6c-1.1-2.7-7.5-2.6-13.2,2,5,2.5,14.9,2.3,13.2-2Z"/>
          <path class="cls-1" d="M26.9,11.2c2.9,1,4.9-3.4,1.7-10.8-3.3,3.5-4.2,10-1.7,10.8Z"/>
          <path class="cls-1" d="M29.8,18.1c-1.1-2.7-8.3-1.1-13.5,4.1,5.3,1.9,14.8-.7,13.5-4.1Z"/>
          <path class="cls-1" d="M32.3,23.4c-1.1-2.7-8.8-1.1-14,4.2,5.3,1.9,15.4-.7,14-4.2Z"/>
          <path class="cls-1" d="M31.7,17.7c1.9.9,6-3.5,4.1-11.3-3.8,2.8-6.6,10.2-4.1,11.3Z"/>
          <path class="cls-1" d="M33.9,22.6c1,1.7,6.8.6,9.5-7.4-4.8.3-10.9,5.1-9.5,7.4Z"/>
          <path class="cls-1" d="M35.1,32.2c0-1.8-4.4-2.1-8.3.1,1,.4,1.7.5,2.8,1,2.7,1.1,5.6.4,5.5-1.1Z"/>
          <path class="cls-1" d="M36.7,28.8c1,1.9,6,1.3,8.2-5.6-4.1-.4-9.4,3.2-8.2,5.6Z"/>
          <path class="cls-1" d="M37.9,35.7c-.2,2.1,3.7,4.2,8.6-.4-2.8-2.5-8.4-2.3-8.6.4Z"/>
          <path class="cls-1" d="M37,38.3c.1-1.7-3.6-3.3-7.9.5,2.6,1.9,7.7,1.7,7.9-.5Z"/>
        </g>
        <g>
          <path class="cls-1" d="M37.3,75c-1.9.6-1.4,3.4,4.7,9.2,2.2-5.8-2.5-9.9-4.7-9.2Z"/>
          <path class="cls-1" d="M36.6,67.8c-1.1,2.7,3.7,6.9,11.1,7.5-2-5.3-9.4-11.8-11.1-7.5Z"/>
          <path class="cls-1" d="M35.2,67.2c-1.5-2.7-5.9-.8-8.6,6.8,4.8-.3,9.9-4.4,8.6-6.8Z"/>
          <path class="cls-1" d="M37,59.9c-1.1,2.7,5.3,6.5,12.7,6.2-2.6-5-11.3-9.6-12.7-6.2Z"/>
          <path class="cls-1" d="M39.4,52.7c-1.1,2.7,5.7,6.8,13.1,6.5-2.6-5-11.8-9.9-13.1-6.5Z"/>
          <path class="cls-1" d="M35.1,59.9c-.8-2-6.8-1.5-10.8,5.5,4.7.5,11.7-3,10.8-5.5Z"/>
          <path class="cls-1" d="M37.2,53.8c.4-2.1-4.9-4.9-12-1,3.7,3,11.5,3.7,12,1Z"/>
          <path class="cls-1" d="M42.4,47.8c-.6,2.4,5,4.7,11.2,3.5-1.2-1-2-1.4-3.4-2.5-3.2-2.7-7.3-3-7.8-1Z"/>
          <path class="cls-1" d="M39.9,47.9c1.3-1.7-1.4-6-8.6-5.1,1.4,3.9,6.9,7.2,8.6,5.1Z"/>
        </g>
        <g>
          <path class="cls-1" d="M9.5,49.3c-1.4-1.4-6.5.3-9.1,8.2,6.2-.5,10.7-6.6,9.1-8.2Z"/>
          <path class="cls-1" d="M14.9,45.8c-2.9.2-4.7,6.3-2.1,13.2,3.9-4.1,6.7-13.5,2.1-13.2Z"/>
          <path class="cls-1" d="M14.8,44.3c1.8-2.5-1.8-5.7-9.8-4.9,2.3,4.2,8.2,7,9.8,4.9Z"/>
          <path class="cls-1" d="M22.1,43.2c-2.9.2-3.6,7.6-.2,14.1,3.4-4.5,3.8-14.4.2-14.1Z"/>
          <path class="cls-1" d="M22.1,41c1.5-1.5-1.5-6.8-9.6-7.4,1.5,4.5,7.7,9.3,9.6,7.4Z"/>
          <path class="cls-1" d="M26.4,40.5c2.1-.5,2.3-6.5-4.2-11.3-1.1,4.7.7,12.2,4.2,11.3Z"/>
        </g>
        <path d="M9.3,49c0,0,.2,0,.3,0,2.2-2.1,4.7-3.8,7.4-5,2.7-1.2,5.7-2.1,8.6-2.4,3-.3,6-.2,8.9.4,2.8.6,5.1,1.4,7.5,2.7-2.7,4.4-4.5,9.2-5.7,14.2-.6,2.5-.9,5.1-.9,7.6,0,2.6.5,5.1,1.3,7.6,0,.1.2.2.3.1.1,0,.2-.2.1-.3-.8-2.4-1.2-4.9-1.2-7.4,0-2.5.3-5,1-7.5,1.1-4.2,2.9-8.1,5.1-11.9.5-.7,1-1.4,1.5-2,2.6.8,5.2,1.7,7.7,2.9,2.6,1.2,5,2.7,7.2,4.4,2.2,1.8,4.2,3.8,5.7,6.2,1.6,2.4,2.7,5,3.4,7.8,0,.1.1.2.2.2.1,0,.2-.1.2-.2-.7-2.8-1.8-5.5-3.4-7.9-1.6-2.4-3.5-4.6-5.8-6.4-2.2-1.8-4.7-3.3-7.3-4.6-2.4-1.2-4.7-2.5-7.3-3.3,1.2-1.6,2.3-2.7,3.7-4.1.3-.3.7-.6,1.1-1l1.1-.9,1.2-.8,1.2-.8c1.6-1.1,3.2-2.3,4.7-3.5,1.5-1.3,2.9-2.6,4.2-4.1,1.3-1.5,2.5-3,3.6-4.7,1.1-1.7,1.9-3.4,2.6-5.3.7-1.8,1.1-3.8,1.3-5.7,0-.1,0-.2-.2-.2-.1,0-.2,0-.2.2h0c-.3,1.9-.7,3.8-1.4,5.6-.7,1.8-1.6,3.5-2.6,5.1-1.1,1.6-2.2,3.1-3.5,4.5-1.3,1.4-2.7,2.7-4.2,4-1.5,1.2-3,2.4-4.6,3.5l-1.2.8-1.2.8-1.2.9c-.4.3-.7.6-1.1,1-1.4,1.3-2.7,2.8-3.9,4.4,0,.1-3.4-2.6-3.9-3.3-1-1.5-1.9-3.1-2.4-4.8-.3-.9-.5-1.7-.7-2.6l-.3-1.3-.3-1.3c-.5-1.8-.9-3.6-1.6-5.3-.6-1.7-1.3-3.4-2.2-5.1l-.3-.6c-.1-.2-.2-.4-.3-.6l-.7-1.2c-.5-.8-1-1.6-1.6-2.3-2.2-3-5.1-5.4-8.3-7.2,0,0-.2,0-.3,0,0,.1,0,.2,0,.3h0c3.2,1.8,5.9,4.2,8,7.2.6.7,1,1.5,1.5,2.2l.7,1.2c.1.2.2.4.3.6l.3.6c.8,1.6,1.5,3.3,2.1,5,.6,1.7,1.1,3.5,1.5,5.2l.3,1.3.3,1.3c.2.9.4,1.8.7,2.7.6,1.8,1.4,3.5,2.5,5,.5.8,1.1,1.5,1.7,2.2-1.9-.8-3.9-1.4-6-1.8-3-.6-6.1-.7-9.2-.3-3,.4-6,1.3-8.8,2.6-2.8,1.3-5.3,3.1-7.5,5.2,0,0,0,.2,0,.3Z"/>
        <g>
          <path class="cls-1" d="M68.4,67c1.9-.5,3.2,2,1.2,10.1-4.9-3.7-3.4-9.6-1.2-10.1Z"/>
          <path class="cls-1" d="M64.8,60.9c3.8,2.6-1.4,6.8-5.3,12.3-1.1-5.5,1.5-14.9,5.3-12.3Z"/>
          <path class="cls-1" d="M65.7,59.7c-.2-3,6.2-3.9,12.6,1.1-6.1,1-12.4,1.6-12.6-1.1Z"/>
          <path class="cls-1" d="M59.9,54.6c2.1,1.6-1.7,8.7-7.4,12-.5-5.6,4.4-14.2,7.4-12Z"/>
          <path class="cls-1" d="M61.2,53.6c-.4-2.1,4.9-4.9,12-1.1-3.7,3-11.5,3.8-12,1.1Z"/>
          <path class="cls-1" d="M56.9,50.4c-1.5-1.5,1.5-6.7,9.6-7.3-1.5,4.5-7.7,9.3-9.6,7.3Z"/>
        </g>
        <g>
          <path class="cls-1" d="M66.4,19c2.1-2-.4-7.9-6.8-11.5-.4,5.6,3.5,14.7,6.8,11.5Z"/>
          <path class="cls-1" d="M67.5,20.2c.2,3,5,3.3,10.7-2.5-4.4-1.7-10.8-.2-10.7,2.5Z"/>
          <path class="cls-1" d="M62,26.1c2.1-2-2.1-8.1-8.9-11,.2,5.6,6.2,13.5,8.9,11Z"/>
          <path class="cls-1" d="M57.5,31.6c2.1-2-2.3-8.6-9.1-11.4.2,5.6,6.5,14,9.1,11.4Z"/>
          <path class="cls-1" d="M64.1,26.8c-.2,2.1,5.5,4.2,12.1-.4-4.1-2.5-11.9-2.3-12.1.4Z"/>
          <path class="cls-1" d="M59.3,31.5c-1.3,1.7,2.4,6.5,10.5,6.1-2.1-4.3-8.9-8.2-10.5-6.1Z"/>
          <path class="cls-1" d="M51.8,35.8c1.6-1.9-2.5-6.4-8.6-7.9.7,1.4,1.3,2.2,2,3.7,1.7,3.8,5.3,5.8,6.7,4.2Z"/>
          <path class="cls-1" d="M54,36.3c-1.9,1-1.3,6,5.6,8.2.4-4.1-3.2-9.4-5.6-8.2Z"/>
          <path class="cls-1" d="M49.8,39.7c-2,.6-2.5,5.1,3.6,7.9,1.3-3.5-1-8.6-3.6-7.9Z"/>
          <path class="cls-1" d="M68.8,13.6c2,.2,4.5-1.5,1.4-9.3-4.4,4.3-3.7,9-1.4,9.3Z"/>
        </g>
        <circle cx="64.1" cy="21.4" r="1.2"/>
        <path d="M68.6,23.2c0-.7-.5-1.2-1.2-1.2s-1.2.5-1.2,1.2.5,1.2,1.2,1.2,1.2-.5,1.2-1.2Z"/>
        <path d="M71.3,15.8c0-.7-.5-1.2-1.2-1.2s-1.2.5-1.2,1.2.5,1.2,1.2,1.2,1.2-.5,1.2-1.2Z"/>
        <path d="M33.9,29c.3-.6,0-1.3-.6-1.6-.6-.3-1.3,0-1.6.6-.3.6,0,1.3.6,1.6.6.3,1.3,0,1.6-.6Z"/>
        <path d="M19.7,45.7c.3-.6,0-1.3-.6-1.6-.6-.3-1.3,0-1.6.6-.3.6,0,1.3.6,1.6.6.3,1.3,0,1.6-.6Z"/>
        <path d="M10.6,46.7c.3-.6,0-1.3-.6-1.6-.6-.3-1.3,0-1.6.6-.3.6,0,1.3.6,1.6.6.3,1.3,0,1.6-.6Z"/>
        <path d="M17.8,42.1c.3-.6,0-1.3-.6-1.6-.6-.3-1.3,0-1.6.6s0,1.3.6,1.6c.6.3,1.3,0,1.6-.6Z"/>
        <path d="M35.8,73.7c.3-.6,0-1.3-.6-1.6-.6-.3-1.3,0-1.6.6-.3.6,0,1.3.6,1.6s1.3,0,1.6-.6Z"/>
        <path d="M39.1,65.3c.3-.6,0-1.3-.6-1.6-.6-.3-1.3,0-1.6.6-.3.6,0,1.3.6,1.6.6.3,1.3,0,1.6-.6Z"/>
        <path d="M34.9,65c.3-.6,0-1.3-.6-1.6-.6-.3-1.3,0-1.6.6-.3.6,0,1.3.6,1.6s1.3,0,1.6-.6Z"/>
        <path d="M70.6,64.9c.3-.6,0-1.3-.6-1.6-.6-.3-1.3,0-1.6.6s0,1.3.6,1.6c.6.3,1.3,0,1.6-.6Z"/>
        <path d="M63.8,59.3c.3-.6,0-1.3-.6-1.6-.6-.3-1.3,0-1.6.6-.3.6,0,1.3.6,1.6.6.3,1.3,0,1.6-.6Z"/>
        <path d="M66.6,57c.3-.6,0-1.3-.6-1.6-.6-.3-1.3,0-1.6.6-.3.6,0,1.3.6,1.6.6.3,1.3,0,1.6-.6Z"/>
        <path d="M37.1,25.6c.3-.6,0-1.3-.6-1.6s-1.3,0-1.6.6c-.3.6,0,1.3.6,1.6.6.3,1.3,0,1.6-.6Z"/>
        <path d="M31.4,21.6c.3-.6,0-1.3-.6-1.6-.6-.3-1.3,0-1.6.6-.3.6,0,1.3.6,1.6.6.3,1.3,0,1.6-.6Z"/>
        <path d="M34.5,19.7c.3-.6,0-1.3-.6-1.6-.6-.3-1.3,0-1.6.6-.3.6,0,1.3.6,1.6.6.3,1.3,0,1.6-.6Z"/>
        <path d="M30.8,13.4c.3-.6,0-1.3-.6-1.6s-1.3,0-1.6.6c-.3.6,0,1.3.6,1.6.6.3,1.3,0,1.6-.6Z"/>
        <path d="M27.7,15.8c.3-.6,0-1.3-.6-1.6-.6-.3-1.3,0-1.6.6-.3.6,0,1.3.6,1.6.6.3,1.3,0,1.6-.6Z"/>
        <path d="M64.4,29.2c0-.7-.5-1.2-1.2-1.2s-1.2.5-1.2,1.2.5,1.2,1.2,1.2,1.2-.5,1.2-1.2Z"/>
        <path d="M61.2,27.5c0-.7-.5-1.2-1.2-1.2s-1.2.5-1.2,1.2.5,1.2,1.2,1.2,1.2-.5,1.2-1.2Z"/>
      </g>
    </g>
  </g>
</svg>