<?xml version="1.0" encoding="UTF-8"?>
<svg xmlns="http://www.w3.org/2000/svg" version="1.1" viewBox="0 0 52.9 53.2">
  <defs>
    <style>
      .cls-1 {
        fill: #fff;
        stroke: #000;
        stroke-linecap: round;
        stroke-linejoin: round;
        stroke-width: .7px;
      }
    </style>
  </defs>
  <!-- Generator: Adobe Illustrator 28.6.0, SVG Export Plug-In . SVG Version: 1.2.0 Build 709)  -->
  <g>
    <g id="Layer_1">
      <g>
        <rect class="cls-1" x="3.5" y=".4" width="46.3" height="46.3" transform="translate(53.2 47) rotate(180)"/>
        <rect class="cls-1" x="7.3" y="4.2" width="38.6" height="38.6" transform="translate(53.2 47) rotate(180)"/>
        <g>
          <path class="cls-1" d="M41.8,47.3c-.7,1.3-.1,3.4,5.9,3.3-1.8-4.1-5.1-4.8-5.9-3.3Z"/>
          <path class="cls-1" d="M39.1,44.6c.8,2,5.4,1.7,9.5-1.6-3.7-1.7-10.8-1.4-9.5,1.6Z"/>
          <path class="cls-1" d="M38.1,45c-2.1-.6-3.5,2.5-1.1,7.8,2.3-2.5,2.9-7.3,1.1-7.8Z"/>
          <path class="cls-1" d="M35.5,40.1c.8,1.9,6,.7,9.7-3.1-3.8-1.3-10.7.7-9.7,3.1Z"/>
          <path class="cls-1" d="M33.4,36.1c.8,1.9,6.4.6,10.1-3.2-3.9-1.3-11.1.8-10.1,3.2Z"/>
          <path class="cls-1" d="M34.5,41c-1.4-.7-4.3,2.6-2.8,8.2,2.7-2.1,4.6-7.4,2.8-8.2Z"/>
          <path class="cls-1" d="M32.6,36.8c-.8-1.3-5,0-6.8,5.5,3.4-.3,7.8-3.9,6.8-5.5Z"/>
          <path class="cls-1" d="M31.8,31.2c.6,1.1,3.5,0,5.4-2.7-.8,0-1.3.2-2.1.3-2.1.1-3.8,1.5-3.2,2.4Z"/>
          <path class="cls-1" d="M30.9,31.6c-.7-1.4-4.3-.8-5.8,4.2,3,.2,6.8-2.5,5.8-4.2Z"/>
          <path class="cls-1" d="M29.8,28.1c.1-1.5-2.8-3-6.2.4,2.1,1.8,6.1,1.5,6.2-.4Z"/>
        </g>
        <g>
          <path class="cls-1" d="M44.3,10.8c.9.5,2.5.1,2.5-4.4-3.1,1.3-3.6,3.8-2.5,4.4Z"/>
          <path class="cls-1" d="M42.3,12.8c1.5-.6,1.3-4-1.2-7.1-1.3,2.7-1.1,8,1.2,7.1Z"/>
          <path class="cls-1" d="M39.3,14.8c1.3-.9.4-4.2-2.7-6.7-.7,2.9.7,8.1,2.7,6.7Z"/>
          <path class="cls-1" d="M42.6,13.6c-.5,1.6,1.9,2.6,5.8.8-1.9-1.7-5.4-2.2-5.8-.8Z"/>
          <path class="cls-1" d="M39.6,16.2c-.5,1,1.9,3.2,6.1,2.1-1.5-2-5.5-3.4-6.1-2.1Z"/>
          <path class="cls-1" d="M36.5,17.6c-1,.6,0,3.7,4,5.1-.2-2.5-2.8-5.8-4-5.1Z"/>
          <path class="cls-1" d="M32.3,18.2c.8-.5,0-2.6-2-4,0,.6.1.9.2,1.6,0,1.6,1.1,2.8,1.8,2.4Z"/>
          <path class="cls-1" d="M32.6,18.8c-1,.5-.6,3.2,3.1,4.4.2-2.2-1.8-5-3.1-4.4Z"/>
          <path class="cls-1" d="M30,19.7c-1.1,0-2.2,2,.3,4.6,1.3-1.5,1.2-4.5-.3-4.6Z"/>
        </g>
        <path class="cls-1" d="M35.2,12.6c0,1,2.6,2,5.7-.1-1.9-1.2-5.6-1.1-5.7.1Z"/>
        <path class="cls-1" d="M33,14.7c-.6.8,1.1,3.1,4.9,2.9-1-2-4.2-3.9-4.9-2.9Z"/>
        <path class="cls-1" d="M29.7,16.5c.6-.6-.8-2.2-2.9-2.7.2.5.4.7.6,1.3.6,1.3,1.8,2,2.2,1.4Z"/>
        <path class="cls-1" d="M30.2,16.9c-.7.8.5,2.9,3.9,2.6-.5-1.9-3.1-3.6-3.9-2.6Z"/>
        <path class="cls-1" d="M26,22c-1,.3-1.2,2.4,1.7,3.7.6-1.7-.4-4.1-1.7-3.7Z"/>
        <g>
          <path class="cls-1" d="M8.5,19.1c-.3-.9-1.6-1.6-4.2,1.3,2.8,1,4.6-.3,4.2-1.3Z"/>
          <path class="cls-1" d="M11,19.1c-1.3-.5-3.3,1.8-3.5,5.3,2.5-1,5.6-4.5,3.5-5.3Z"/>
          <path class="cls-1" d="M11.3,18.4c1.3-.7.4-2.8-3.3-4,.2,2.2,2.2,4.7,3.3,4Z"/>
          <path class="cls-1" d="M14.8,19.4c-1.3-.5-3,2.5-2.9,6,2.4-1.3,4.5-5.4,2.9-6Z"/>
          <path class="cls-1" d="M17.6,20.2c-1.3-.5-3.2,2.8-3,6.2,2.3-1.3,4.6-5.6,3-6.2Z"/>
          <path class="cls-1" d="M14.8,18.5c.9-.4.7-3.2-2.7-5.1-.2,2.2,1.5,5.5,2.7,5.1Z"/>
          <path class="cls-1" d="M17.7,19.4c1,.2,2.3-2.4.4-5.7-1.4,1.8-1.7,5.5-.4,5.7Z"/>
          <path class="cls-1" d="M20.7,21.6c-.8-.2-1.6,1.7-1.1,3.8.3-.4.5-.7.8-1.1.9-1.1,1-2.5.3-2.6Z"/>
          <path class="cls-1" d="M20.9,21c1,.3,2.3-1.7.6-4.7-1.4,1.3-1.9,4.3-.6,4.7Z"/>
          <path class="cls-1" d="M23.1,22c.7.7,2.7,0,2.6-3.2-1.8.2-3.5,2.2-2.6,3.2Z"/>
        </g>
        <g>
          <path class="cls-1" d="M20.1,4.4c.8-1,.7-2.8-4.4-3.7.9,3.7,3.6,4.8,4.4,3.7Z"/>
          <path class="cls-1" d="M21.9,7.1c-.4-1.8-4.3-2.3-8.2,0,2.8,2,8.8,2.9,8.2,0Z"/>
          <path class="cls-1" d="M22.9,6.9c1.7.9,3.3-1.6,2.1-6.4-2.3,1.8-3.6,5.6-2.1,6.4Z"/>
          <path class="cls-1" d="M26,19.5c-.3-1-3-.5-4.9,1.4.7,0,1.1,0,1.8.1,1.8.2,3.4-.7,3.1-1.5Z"/>
          <path class="cls-1" d="M25.3,15.1c-.3-1-3-.5-4.9,1.4.7,0,1.1,0,1.8.1,1.8.2,3.4-.7,3.1-1.5Z"/>
          <path class="cls-1" d="M25.3,15.1c-.3-1-3-.5-4.9,1.4.7,0,1.1,0,1.8.1,1.8.2,3.4-.7,3.1-1.5Z"/>
          <path class="cls-1" d="M24.3,12.3c-.4-1.2-3.5-.6-5.8,1.7.8,0,1.3,0,2.2.1,2.1.3,4-.8,3.6-1.8Z"/>
          <path class="cls-1" d="M23.6,9.5c-.4-1.2-3.5-.6-5.8,1.7.8,0,1.3,0,2.2.1,2.1.3,4-.8,3.6-1.8Z"/>
          <path class="cls-1" d="M26.6,18.8c.4,1.2,3.5,1.4,5.5-2.6-2.5-.6-6.1,1-5.5,2.6Z"/>
          <path class="cls-1" d="M25.3,11.5c.4,1.2,3.5,1.4,5.5-2.6-2.5-.6-6.1,1-5.5,2.6Z"/>
          <path class="cls-1" d="M25,8.3c.6.8,2.9,0,3.4-3.3-2,.2-4.2,2.3-3.4,3.3Z"/>
          <path class="cls-1" d="M26,15c.4,1.2,3.5,1.4,5.5-2.6-2.5-.6-6.1,1-5.5,2.6Z"/>
          <path class="cls-1" d="M27.2,22.4c-.3,1.3,1.8,2.9,5.3.6-1.4-1.8-4.9-2.2-5.3-.6Z"/>
        </g>
        <g>
          <path class="cls-1" d="M5.8,39.2c-1.3-.7-3.4-.2-3.5,5.8,4.1-1.7,4.9-5,3.5-5.8Z"/>
          <path class="cls-1" d="M8.6,36.6c-2,.8-1.9,5.4,1.4,9.6,1.8-3.6,1.7-10.8-1.4-9.6Z"/>
          <path class="cls-1" d="M8.2,35.5c.7-2.1-2.4-3.5-7.8-1.3,2.5,2.4,7.2,3.1,7.8,1.3Z"/>
          <path class="cls-1" d="M17.2,31.1c-2,.8-.8,6.4,2.9,10.1,1.4-3.8-.5-11.1-2.9-10.1Z"/>
          <path class="cls-1" d="M16.5,30.2c1.3-.8.2-5-5.3-6.9.2,3.4,3.6,7.9,5.3,6.9Z"/>
          <path class="cls-1" d="M12.6,33.2c-1.8.8-.8,6.1,2.6,9.6,1.3-3.6-.3-10.6-2.6-9.6Z"/>
          <path class="cls-1" d="M12,32c.9-1.2-1.8-4.7-7.6-4.3,1.5,3.1,6.4,5.9,7.6,4.3Z"/>
          <path class="cls-1" d="M22.2,29.6c-1.1.6,0,3.5,2.5,5.4,0-.8-.2-1.3-.2-2.1,0-2.1-1.4-3.8-2.3-3.3Z"/>
          <path class="cls-1" d="M21.8,28.7c1.4-.7.9-4.3-4-5.9-.3,3,2.3,6.8,4,5.9Z"/>
          <path class="cls-1" d="M25.3,27.7c1.5.2,3.1-2.7-.2-6.2-1.8,2-1.7,6,.2,6.2Z"/>
        </g>
        <g>
          <path class="cls-1" d="M26.4,38.4c.9.4,1.4,1.7-1.8,4.1-.7-2.9.8-4.5,1.8-4.1Z"/>
          <path class="cls-1" d="M26.7,35.9c.3,1.3-2.2,3-5.7,2.9,1.3-2.4,5.1-5,5.7-2.9Z"/>
          <path class="cls-1" d="M27.4,35.7c.9-1.2,2.8,0,3.6,3.7-2.2-.4-4.4-2.7-3.6-3.7Z"/>
          <path class="cls-1" d="M26.8,32.1c.3,1.3-2.9,2.7-6.3,2.1,1.5-2.2,5.9-3.8,6.3-2.1Z"/>
          <path class="cls-1" d="M26.4,29.2c.3,1.4-3.1,2.8-6.6,2.3,1.5-2.2,6.1-4,6.6-2.3Z"/>
          <path class="cls-1" d="M27.8,32.2c.5-.9,3.3-.3,4.7,3.2-2.3,0-5.3-2.1-4.7-3.2Z"/>
          <path class="cls-1" d="M27.1,29.2c0-1,2.6-2,5.7.2-1.9,1.2-5.6,1-5.7-.2Z"/>
          <path class="cls-1" d="M25.3,26c.1.8-1.9,1.4-3.9.7.4-.3.7-.4,1.2-.7,1.2-.8,2.6-.7,2.7,0Z"/>
          <path class="cls-1" d="M25.9,25.8c-.1-1,2-2.1,4.7,0-1.5,1.3-4.5,1.4-4.7,0Z"/>
          <path class="cls-1" d="M25.2,23.5c-.7-.8.3-2.7,3.4-2.2-.4,1.7-2.6,3.2-3.4,2.2Z"/>
        </g>
        <g>
          <path class="cls-1" d="M47.9,28.1c.4,1,1.9,1.7,4.7-1.8-3.2-.9-5.2.7-4.7,1.8Z"/>
          <path class="cls-1" d="M45,28.3c1.5.5,3.6-2.3,3.6-6.2-2.7,1.3-5.9,5.5-3.6,6.2Z"/>
          <path class="cls-1" d="M44.8,29.1c-1.4.9-.2,3.2,4,4.3-.4-2.5-2.8-5.1-4-4.3Z"/>
          <path class="cls-1" d="M40.7,28.2c1.5.5,3.2-3.1,2.8-7-2.6,1.6-4.7,6.4-2.8,7Z"/>
          <path class="cls-1" d="M37.5,27.5c1.5.5,3.4-3.3,2.9-7.3-2.6,1.6-4.8,6.7-2.9,7.3Z"/>
          <path class="cls-1" d="M40.8,29.3c-1,.5-.5,3.7,3.4,5.5.1-2.5-2.1-6.1-3.4-5.5Z"/>
          <path class="cls-1" d="M37.5,28.4c-1.1-.1-2.4,2.8,0,6.5,1.4-2.1,1.5-6.3,0-6.5Z"/>
          <path class="cls-1" d="M33.9,26.1c.9.2,1.6-2,1-4.3-.3.5-.5.8-.9,1.3-.9,1.3-.9,2.8-.1,3Z"/>
          <path class="cls-1" d="M33.7,26.8c-1.1-.2-2.5,2.1-.4,5.3,1.5-1.6,1.8-5,.4-5.3Z"/>
          <path class="cls-1" d="M31.2,25.8c-.8-.8-3,.2-2.7,3.8,2-.3,3.8-2.8,2.7-3.8Z"/>
        </g>
        <g>
          <path class="cls-1" d="M12.2,14.8c-.8.5-2.2.2-2.3-3.8,2.7,1.1,3.3,3.3,2.3,3.8Z"/>
          <path class="cls-1" d="M14.1,16.5c-1.3-.5-1.3-3.5.9-6.3,1.2,2.4,1.2,7.1-.9,6.3Z"/>
          <path class="cls-1" d="M13.8,17.2c.5,1.4-1.6,2.4-5.1.9,1.6-1.6,4.7-2.1,5.1-.9Z"/>
          <path class="cls-1" d="M17.6,19.1c-1.3-.5-1.3-3.5.9-6.3,1.2,2.4,1.2,7.1-.9,6.3Z"/>
          <path class="cls-1" d="M21,19.4c-1-.4-1-2.8.7-5.1,1,1.9,1,5.7-.7,5.1Z"/>
          <path class="cls-1" d="M16.7,20c.8,1.2-1,2.7-4.8,2.1,1.2-1.9,4.1-3.2,4.8-2.1Z"/>
          <path class="cls-1" d="M19.4,20.9c1.2.8.1,2.8-3.6,3.8.4-2.2,2.6-4.5,3.6-3.8Z"/>
          <path class="cls-1" d="M23.1,21c-.8-.4,0-2.3,1.7-3.6,0,.5-.1.8-.1,1.4,0,1.4-.9,2.5-1.5,2.2Z"/>
          <path class="cls-1" d="M22.8,21.6c.9.5.6,2.8-2.6,3.9-.2-2,1.5-4.5,2.6-3.9Z"/>
          <path class="cls-1" d="M25.2,22.2c1-.1,2,1.8-.1,4.1-1.2-1.3-1.1-4,.1-4.1Z"/>
        </g>
      </g>
    </g>
  </g>
</svg>