<?xml version="1.0" encoding="UTF-8"?>
<svg xmlns="http://www.w3.org/2000/svg" xmlns:xlink="http://www.w3.org/1999/xlink" version="1.1" viewBox="0 0 55.7 44.3">
  <defs>
    <style>
      .cls-1 {
        opacity: .3;
      }

      .cls-1, .cls-2, .cls-3 {
        mix-blend-mode: multiply;
      }

      .cls-4 {
        isolation: isolate;
      }

      .cls-5 {
        clip-path: url(#clippath-1);
      }

      .cls-6 {
        clip-path: url(#clippath-3);
      }

      .cls-7 {
        clip-path: url(#clippath-4);
      }

      .cls-8 {
        clip-path: url(#clippath-2);
      }

      .cls-9 {
        clip-path: url(#clippath-5);
      }

      .cls-10, .cls-2, .cls-11, .cls-3 {
        fill: #fff;
      }

      .cls-2 {
        opacity: .6;
      }

      .cls-2, .cls-11, .cls-3 {
        stroke: #000;
        stroke-linecap: round;
        stroke-linejoin: round;
        stroke-width: .7px;
      }

      .cls-12 {
        clip-path: url(#clippath);
      }
    </style>
    <clipPath id="clippath">
      <path class="cls-10" d="M27.4,5.4c9,0,16.3,7.3,16.3,16.3s-7.3,16.3-16.3,16.3-16.3-7.3-16.3-16.3S18.4,5.4,27.4,5.4M27.4.4C15.6.4,6.1,10,6.1,21.7s9.6,21.4,21.4,21.4,21.4-9.6,21.4-21.4S39.2.4,27.4.4h0Z"/>
    </clipPath>
    <clipPath id="clippath-1">
      <path class="cls-12" d="M27.4,43.5c-12,0-21.7-9.8-21.7-21.7S15.4,0,27.4,0s21.7,9.8,21.7,21.7-9.8,21.7-21.7,21.7ZM27.4.7C15.8.7,6.4,10.2,6.4,21.7s9.4,21,21,21,21-9.4,21-21S39,.7,27.4.7ZM27.4,38.5c-9.2,0-16.7-7.5-16.7-16.7S18.2,5,27.4,5s16.7,7.5,16.7,16.7-7.5,16.7-16.7,16.7ZM27.4,5.8c-8.8,0-16,7.2-16,16s7.2,16,16,16,16-7.2,16-16-7.2-16-16-16Z"/>
    </clipPath>
    <clipPath id="clippath-2">
      <path class="cls-10" d="M27.4,5.4c9,0,16.3,7.3,16.3,16.3s-7.3,16.3-16.3,16.3-16.3-7.3-16.3-16.3S18.4,5.4,27.4,5.4M27.4.4C15.6.4,6.1,10,6.1,21.7s9.6,21.4,21.4,21.4,21.4-9.6,21.4-21.4S39.2.4,27.4.4h0Z"/>
    </clipPath>
    <clipPath id="clippath-3">
      <path class="cls-8" d="M27.4,43.5c-12,0-21.7-9.8-21.7-21.7S15.4,0,27.4,0s21.7,9.8,21.7,21.7-9.8,21.7-21.7,21.7ZM27.4.7C15.8.7,6.4,10.2,6.4,21.7s9.4,21,21,21,21-9.4,21-21S39,.7,27.4.7ZM27.4,38.5c-9.2,0-16.7-7.5-16.7-16.7S18.2,5,27.4,5s16.7,7.5,16.7,16.7-7.5,16.7-16.7,16.7ZM27.4,5.8c-8.8,0-16,7.2-16,16s7.2,16,16,16,16-7.2,16-16-7.2-16-16-16Z"/>
    </clipPath>
    <clipPath id="clippath-4">
      <path class="cls-10" d="M27.5,5.4c9,0,16.3,7.3,16.3,16.3s-7.3,16.3-16.3,16.3-16.3-7.3-16.3-16.3S18.4,5.4,27.5,5.4M27.5.4C15.7.4,6.1,10,6.1,21.7s9.6,21.4,21.4,21.4,21.4-9.6,21.4-21.4S39.3.4,27.5.4h0Z"/>
    </clipPath>
    <clipPath id="clippath-5">
      <path class="cls-7" d="M27.5,43.5c-12,0-21.7-9.8-21.7-21.7S15.5,0,27.5,0s21.7,9.8,21.7,21.7-9.8,21.7-21.7,21.7ZM27.5.7C15.9.7,6.5,10.2,6.5,21.7s9.4,21,21,21,21-9.4,21-21S39.1.7,27.5.7ZM27.5,38.5c-9.2,0-16.7-7.5-16.7-16.7S18.3,5,27.5,5s16.7,7.5,16.7,16.7-7.5,16.7-16.7,16.7ZM27.5,5.8c-8.8,0-16,7.2-16,16s7.2,16,16,16,16-7.2,16-16-7.2-16-16-16Z"/>
    </clipPath>
  </defs>
  <!-- Generator: Adobe Illustrator 28.6.0, SVG Export Plug-In . SVG Version: 1.2.0 Build 709)  -->
  <g class="cls-4">
    <g id="Layer_1">
      <g>
        <circle class="cls-10" cx="27.5" cy="21.7" r="16.3" transform="translate(-6.6 30) rotate(-51.9)"/>
        <path class="cls-3" d="M27.4,40.6c-10.4,0-18.9-8.5-18.9-18.9S17,2.9,27.4,2.9s18.9,8.5,18.9,18.9-8.5,18.9-18.9,18.9Z"/>
        <g>
          <path class="cls-10" d="M27.4,5.4c9,0,16.3,7.3,16.3,16.3s-7.3,16.3-16.3,16.3-16.3-7.3-16.3-16.3S18.4,5.4,27.4,5.4M27.4.4C15.6.4,6.1,10,6.1,21.7s9.6,21.4,21.4,21.4,21.4-9.6,21.4-21.4S39.2.4,27.4.4h0Z"/>
          <path d="M27.4,43.5c-12,0-21.7-9.8-21.7-21.7S15.4,0,27.4,0s21.7,9.8,21.7,21.7-9.8,21.7-21.7,21.7ZM27.4.7C15.8.7,6.4,10.2,6.4,21.7s9.4,21,21,21,21-9.4,21-21S39,.7,27.4.7ZM27.4,38.5c-9.2,0-16.7-7.5-16.7-16.7S18.2,5,27.4,5s16.7,7.5,16.7,16.7-7.5,16.7-16.7,16.7ZM27.4,5.8c-8.8,0-16,7.2-16,16s7.2,16,16,16,16-7.2,16-16-7.2-16-16-16Z"/>
        </g>
        <g>
          <path class="cls-10" d="M27.4,5.4c9,0,16.3,7.3,16.3,16.3s-7.3,16.3-16.3,16.3-16.3-7.3-16.3-16.3S18.4,5.4,27.4,5.4M27.4.4C15.6.4,6.1,10,6.1,21.7s9.6,21.4,21.4,21.4,21.4-9.6,21.4-21.4S39.2.4,27.4.4h0Z"/>
          <path d="M27.4,43.5c-12,0-21.7-9.8-21.7-21.7S15.4,0,27.4,0s21.7,9.8,21.7,21.7-9.8,21.7-21.7,21.7ZM27.4.7C15.8.7,6.4,10.2,6.4,21.7s9.4,21,21,21,21-9.4,21-21S39,.7,27.4.7ZM27.4,38.5c-9.2,0-16.7-7.5-16.7-16.7S18.2,5,27.4,5s16.7,7.5,16.7,16.7-7.5,16.7-16.7,16.7ZM27.4,5.8c-8.8,0-16,7.2-16,16s7.2,16,16,16,16-7.2,16-16-7.2-16-16-16Z"/>
        </g>
        <g class="cls-1">
          <g>
            <path class="cls-10" d="M27.4,5.4c9,0,16.3,7.3,16.3,16.3s-7.3,16.3-16.3,16.3-16.3-7.3-16.3-16.3S18.4,5.4,27.4,5.4M27.4.4C15.6.4,6.1,10,6.1,21.7s9.6,21.4,21.4,21.4,21.4-9.6,21.4-21.4S39.2.4,27.4.4h0Z"/>
            <path d="M27.4,43.5c-12,0-21.7-9.8-21.7-21.7S15.4,0,27.4,0s21.7,9.8,21.7,21.7-9.8,21.7-21.7,21.7ZM27.4.7C15.8.7,6.4,10.2,6.4,21.7s9.4,21,21,21,21-9.4,21-21S39,.7,27.4.7ZM27.4,38.5c-9.2,0-16.7-7.5-16.7-16.7S18.2,5,27.4,5s16.7,7.5,16.7,16.7-7.5,16.7-16.7,16.7ZM27.4,5.8c-8.8,0-16,7.2-16,16s7.2,16,16,16,16-7.2,16-16-7.2-16-16-16Z"/>
            <g class="cls-5">
              <image width="61" height="62" transform="translate(-3.8 -9.3)" xlink:href="flower plants-02-1.png"/>
              <image width="57" height="58" transform="translate(-1.8 -7.3)" xlink:href="flower plants-02-2.png"/>
            </g>
          </g>
        </g>
        <g>
          <path class="cls-10" d="M27.4,5.4c9,0,16.3,7.3,16.3,16.3s-7.3,16.3-16.3,16.3-16.3-7.3-16.3-16.3S18.4,5.4,27.4,5.4M27.4.4C15.6.4,6.1,10,6.1,21.7s9.6,21.4,21.4,21.4,21.4-9.6,21.4-21.4S39.2.4,27.4.4h0Z"/>
          <path d="M27.4,43.5c-12,0-21.7-9.8-21.7-21.7S15.4,0,27.4,0s21.7,9.8,21.7,21.7-9.8,21.7-21.7,21.7ZM27.4.7C15.8.7,6.4,10.2,6.4,21.7s9.4,21,21,21,21-9.4,21-21S39,.7,27.4.7ZM27.4,38.5c-9.2,0-16.7-7.5-16.7-16.7S18.2,5,27.4,5s16.7,7.5,16.7,16.7-7.5,16.7-16.7,16.7ZM27.4,5.8c-8.8,0-16,7.2-16,16s7.2,16,16,16,16-7.2,16-16-7.2-16-16-16Z"/>
        </g>
        <g class="cls-1">
          <g>
            <path class="cls-10" d="M27.4,5.4c9,0,16.3,7.3,16.3,16.3s-7.3,16.3-16.3,16.3-16.3-7.3-16.3-16.3S18.4,5.4,27.4,5.4M27.4.4C15.6.4,6.1,10,6.1,21.7s9.6,21.4,21.4,21.4,21.4-9.6,21.4-21.4S39.2.4,27.4.4h0Z"/>
            <path d="M27.4,43.5c-12,0-21.7-9.8-21.7-21.7S15.4,0,27.4,0s21.7,9.8,21.7,21.7-9.8,21.7-21.7,21.7ZM27.4.7C15.8.7,6.4,10.2,6.4,21.7s9.4,21,21,21,21-9.4,21-21S39,.7,27.4.7ZM27.4,38.5c-9.2,0-16.7-7.5-16.7-16.7S18.2,5,27.4,5s16.7,7.5,16.7,16.7-7.5,16.7-16.7,16.7ZM27.4,5.8c-8.8,0-16,7.2-16,16s7.2,16,16,16,16-7.2,16-16-7.2-16-16-16Z"/>
            <g class="cls-6">
              <image width="75" height="75" transform="translate(-13.8 -24.3)" xlink:href="flower plants-02-3.png"/>
              <image width="64" height="64" transform="translate(-7.8 -19.3)" xlink:href="flower plants-02-4.png"/>
            </g>
          </g>
        </g>
        <g>
          <path class="cls-10" d="M27.5,5.4c9,0,16.3,7.3,16.3,16.3s-7.3,16.3-16.3,16.3-16.3-7.3-16.3-16.3S18.4,5.4,27.5,5.4M27.5.4C15.7.4,6.1,10,6.1,21.7s9.6,21.4,21.4,21.4,21.4-9.6,21.4-21.4S39.3.4,27.5.4h0Z"/>
          <path d="M27.5,43.5c-12,0-21.7-9.8-21.7-21.7S15.5,0,27.5,0s21.7,9.8,21.7,21.7-9.8,21.7-21.7,21.7ZM27.5.7C15.9.7,6.5,10.2,6.5,21.7s9.4,21,21,21,21-9.4,21-21S39.1.7,27.5.7ZM27.5,38.5c-9.2,0-16.7-7.5-16.7-16.7S18.3,5,27.5,5s16.7,7.5,16.7,16.7-7.5,16.7-16.7,16.7ZM27.5,5.8c-8.8,0-16,7.2-16,16s7.2,16,16,16,16-7.2,16-16-7.2-16-16-16Z"/>
          <g class="cls-9">
            <image width="75" height="75" transform="translate(-13.8 -24.3)" xlink:href="flower plants-02-5.png"/>
            <image width="64" height="64" transform="translate(-7.8 -19.3)" xlink:href="flower plants-02-6.png"/>
          </g>
        </g>
        <g>
          <path class="cls-11" d="M21.1,26.7l5.1-3.2.8-2.3-.5,2.8-7.3,6.9,1.3,10.9,4.2-6.2-1.3-4.6,4.7-5.9-.9-4.4h0s2.8,9.1,2.8,9.1l6.9,1.1,1.3,4.4,3.7,1.7-1.8-7.7-7.8-2.6-5.1-5.9h0s5.8,2.2,5.8,2.2l5.9,3.4,3.1,3.7,6.7-2-6.2-1s-6.5-5.6-7.5-6.3l4.3-3,10,1.1-9.3-4.2-6.4,2-6.2,3.8,5.9-8.9,2.3-6.7L41.3.4l-5.4,1.1-4.6,6.2-3.8,12-.3-5.4-2.9-4-1.7-6.8-3.5-2.2.4,3.7,1.5,7.6,4.1,2.6,2.1,4.8v.2c0,0-3.5-4.4-3.5-4.4l-6.7-4.5h-4.7s-1.6-1.5-1.6-1.5l1.1,5.5,9.3,2.4,6.1,2.7h0c0,.1-3.8-1-3.8-1l-7.1,2.4-3.7,2.3-7.5-2.1,7.9,5.1,5.1-.8,4.3-3.1,4.9-2.5h0s0,.3,0,.3l-1.7,2.7-6.2,3.1-2,.5-1.2,2.5,1.7,3.6.4-2.7,3.2-3.6ZM34.2,20.5c-1.7,0-5.5,0-6.7,0h0c0,0,3.7-.7,3.7-.7l3,.7Z"/>
          <path class="cls-11" d="M27.1,20.1c-.8-.9-1.8-1.6-2.7-2.4-1-.7-2-1.4-3-2-1-.6-2.1-1.1-3.3-1.5-.3-.1-.6-.2-.8-.3l-.9-.3-.9-.2c-.3,0-.6-.1-.9-.2-1.2-.2-2.4-.4-3.6-.4-.3,0-.6,0-.9,0h-.4s-.4,0-.4,0c-.3,0-.6,0-.9.1l-.9.2c-1.2.3-2.3.6-3.4,1-.6.2-1.1.5-1.6.7-.3.1-.5.3-.8.4l-.8.4h0c0,.1.8-.3.8-.3.3-.1.5-.3.8-.4.5-.3,1.1-.5,1.6-.7,1.1-.5,2.3-.8,3.4-1l.9-.2c.3,0,.6,0,.9,0h.4s.4,0,.4,0c.3,0,.6,0,.9,0,1.2,0,2.4.2,3.5.4.3,0,.6.1.9.2l.9.2.8.3c.3,0,.6.2.8.3,1.1.4,2.2,1,3.2,1.5,1,.6,2,1.2,3,2,.9.7,1.9,1.5,2.7,2.3l.2-.2Z"/>
          <path class="cls-11" d="M6.1,14.1c-.6.2-3.7,1.3-5.5,2.2-.2,0-.3-.1-.2-.2,1.1-1,3-2.2,5.3-2.9,0,0,.1,0,.2,0,.2.3.2.6.2.7,0,0,0,.1-.1.1Z"/>
          <path class="cls-11" d="M24.3,18.5c-.3-.1-.6-.2-.8-.3l-.8-.3-.9-.3c-.3,0-.6-.2-.9-.2-1.2-.3-2.4-.5-3.6-.5-.3,0-.6,0-.9,0h-.5s-.4,0-.4,0c-.3,0-.6,0-.9,0h-.9c-1.2.3-2.4.6-3.5,1-.6.2-1.1.4-1.7.7-.3.1-.5.3-.8.4l-.8.4h0c0,.1.8-.3.8-.3.3-.1.5-.3.8-.4.5-.2,1.1-.5,1.7-.7,1.1-.4,2.3-.7,3.5-.9h.9c.3-.1.6-.2.9-.2h.4s.4,0,.4,0c.3,0,.6,0,.9,0,1.2,0,2.4.3,3.5.5.3,0,.6.1.9.2l.8.3.8.3c.3.1.5.2.8.3,1,.4,1.9.9,2.9,1.5,0,0,0-.2,0-.3-.9-.5-1.8-1-2.7-1.4Z"/>
          <path class="cls-11" d="M12.2,17.8c-.6.2-3.7,1.1-5.6,2-.2,0-.3-.1-.2-.3,1.2-1,3.1-2.1,5.4-2.7,0,0,.1,0,.2,0,.2.3.2.6.2.7,0,0,0,.1-.1.1Z"/>
          <g>
            <path class="cls-11" d="M27.2,20.3s-.2,0-.2,0l-2.9,5.5s.9,7.2.9,7.8c0,.6-1.3,4.8-1.3,4.8,0,0,2.8-3.5,3-3.7.2-.2.6-4.9.6-4.9l-.9-4.5.8-5.1Z"/>
            <polygon class="cls-11" points="27.1 20.3 28.5 26.2 28.4 36.9 32.7 43.9 34.9 38 32.6 33.8 32.6 28.1 27.1 20.3"/>
            <polygon class="cls-11" points="27.4 20.2 25.1 22.9 24.2 25.9 20.3 27.7 17 35.1 17.7 26.9 21.7 23.3 27.4 20.2"/>
            <polygon class="cls-11" points="27.4 20.4 18.3 20.9 10.9 26.2 7.3 25.7 10.1 23.1 16.7 18 27.4 20.4"/>
            <polygon class="cls-11" points="27.2 20.6 23 17.8 21.4 14.1 17.3 10.2 17.2 6.9 19.6 8.6 24.3 12.8 24.5 16.7 27.3 20.3 27.2 20.6"/>
            <polygon class="cls-11" points="27.1 20.3 25.4 16 24.9 9.5 26.8 6.2 26.4 4.5 29.8 7.5 27.7 14.9 27.1 20.3"/>
            <polygon class="cls-11" points="27.2 20.4 28 17.3 32.5 13.3 35.6 11.6 37.1 5.6 37.5 13.1 34.9 16.3 31 18 27.2 20.4"/>
            <polygon class="cls-11" points="27.2 20.3 30 22.8 36 22 38.6 24.8 44.7 24.3 37.7 19 29.9 21.4 27.2 20.3"/>
            <polygon class="cls-11" points="27.2 20.3 27 20.6 29.7 20.9 34 18.6 37.8 17.8 39.8 18.7 38.1 16.1 35.8 15.9 34.7 17.1 30 20.2 27.2 20.3"/>
            <polygon class="cls-11" points="27.1 20.4 29.6 23.3 31.1 23.6 33.3 25.6 33.7 27.1 34.5 24.9 33.6 23.5 32.4 23.4 30.1 22.6 27.5 20.4 27.1 20.4"/>
          </g>
          <path class="cls-11" d="M27,20.4c.6-1.4,1.2-2.7,2-3.9.7-1.3,1.6-2.5,2.5-3.6.9-1.2,1.9-2.3,2.9-3.3.3-.2.5-.5.8-.7l.8-.7.9-.7c.3-.2.6-.4.9-.6,1.2-.8,2.5-1.5,3.9-2.1.3-.2.7-.3,1-.4l.5-.2.5-.2c.4-.1.7-.2,1.1-.3l1.1-.2c1.4-.3,2.9-.5,4.4-.4.7,0,1.5,0,2.2,0,.4,0,.7,0,1.1.1l1.1.3h-1.1c-.4-.2-.7-.2-1.1-.2-.7,0-1.5,0-2.2,0-1.5,0-2.9.2-4.3.5l-1.1.2c-.4,0-.7.2-1,.3l-.5.2-.5.2c-.3.1-.7.2-1,.4-1.3.6-2.6,1.3-3.8,2.1-.3.2-.6.4-.9.6l-.9.7-.8.7c-.3.2-.5.5-.8.7-1,1-2,2.1-2.9,3.3-.9,1.2-1.7,2.4-2.4,3.6-.7,1.3-1.4,2.6-1.9,3.9h-.3Z"/>
          <path class="cls-11" d="M47.9,4c.8,0,4.8-.3,7.2,0,.2,0,.3-.3,0-.4-1.8-.6-4.5-1.1-7.4-.8,0,0-.2,0-.2.2,0,.5,0,.8,0,.9,0,0,.1.1.2.1Z"/>
          <path class="cls-2" d="M55.2,3.5c-.2,0-.4-.1-.6-.2h-.4c-1.7-.6-4-.9-6.4-.6,0,0-.2,0-.2.2,0,0,0,.2,0,.2-.6,0-1.2.2-1.7.3l-1.1.2c-.4,0-.7.2-1.1.3l-.5.2-.5.2c-.3.1-.7.2-1,.4-1.4.6-2.6,1.3-3.9,2.1-.2.1-.4.3-.6.4v-1.6c0,0-.6,2.1-.6,2.1l-.5.4-.8.7c-.3.2-.5.5-.8.7-.2.2-.4.4-.6.6l2-5.6L41.3.4l-5.4,1.1-4.6,6.2-2.9,9.2-.4.3-.5,2.1s0,0,0,0v-1.3c0,0,.3-3.2.3-3.2l2.1-7.4-3.4-2.9.4,1.7-1.9,3.3v2c.1,0-.7-1.2-.7-1.2l-1.7-6.8-3.5-2.2.4,3.7.9,4.2-.6-.5-2.4-1.7v3.3c0,0,4.2,3.9,4.2,3.9v.2c0,0-4.5-3.1-4.5-3.1h-4.7s-1.6-1.5-1.6-1.5l.6,3.1c0,0-.1,0-.2,0-.3,0-.6,0-.9,0h-.4s-.4,0-.4,0c-.3,0-.6,0-.9.1l-.9.2c-.5.1-1,.2-1.4.3,0-.1,0-.2-.2-.4,0,0-.1,0-.2,0-2.3.7-4.2,1.9-5.3,2.9-.1.1,0,.3.2.2,1.8-.9,4.9-2,5.5-2.2,0,0,.1,0,.1-.1,0,0,0-.1,0-.2.5-.1.9-.2,1.4-.3l.9-.2c.3,0,.6,0,.9,0h.4s.4,0,.4,0c.3,0,.6,0,.9,0,0,0,.2,0,.2,0l.4,2.1,9.3,2.4,5.2,2.3.5.3h-.6c0-.1-2.9-1-2.9-1h-.4c0,.1-6.1-1.2-6.1-1.2l-6.6,5.1h-.1c0,.1-5.1-1.3-5.1-1.3l3.8,2.5-1.5,1.3,3.6.5.4-.3,1.6,1,5.1-.8,3.6-2.6-3.6,3.3-.8.2-1.2,2.5,1.4,2.9-.3,2.7,3.3-7.4,3.8-1.8c0,0,0,.2,0,.3l-4.9,4.7,1.3,10.9,3.7-5.4c-.3,1.1-.6,2.1-.6,2.1,0,0,2.8-3.5,3-3.7.2-.2.6-4.9.6-4.9l-.6-3.1,1.4-1.8-.7-3.3,1.1,4.6-.2,10.7,4.4,7,2.2-5.9-2.4-4.2v-3.7s4.4.7,4.4.7l1.3,4.4,3.7,1.7-1.8-7.7-6.4-2.1.7-2-.9-1.4-1.2-.2-1.9-.6,1.9-.3.7.3,5.9,3.4,3.1,3.7,6.7-2-6.2-1s-1.2-1-2.7-2.3l4.7-.3-7-5.3h-.4c0,.1,1.4-.9,1.4-.9l1.2.5-.6-.9.2-.2,10,1.1-9.3-4.2-5,1.5,2.3-2.8-.3-5.6c.2-.2.5-.3.7-.5,1.2-.8,2.5-1.5,3.8-2.1.3-.2.7-.3,1-.4l.5-.2.5-.2c.3-.1.7-.2,1-.3l1.1-.2c.6-.1,1.1-.2,1.7-.3,0,.2,0,.4,0,.5,0,0,.1.1.2.1.8,0,4.8-.3,7.2,0,.2,0,.3-.3,0-.4ZM26.6,21.1l-.9,1.6-.4.6-.4.2.2-.7,1.4-1.7ZM24.8,24.4l-.4.7.2-.6h.2ZM28.5,20.3l1.9-.3-.3.2h-1.5ZM30,18.7l1-.6h.2c0,0-1.2.6-1.2.6ZM25.4,16l1.6,3.9-2.5-3.1v-1.9c0,0,.6.4.6.4l.3.7h0ZM22.2,23l1.2-.6-1.4.8h.2ZM25,33.6c0,.2-.1.7-.3,1.3l-1.2-4,1.1-1.3c.2,1.9.4,3.8.4,4ZM33.3,25.6l.3,1.3-1.3-.4-2.7-3.1,1.5.4,2.2,1.9ZM32.8,20.5c-.8,0-1.6,0-2.4,0l1.2-.6,1.9.4-.7.2ZM32.5,13.3l-1.1.9,2-3v-.4c.5-.4.8-.7,1.2-1.1.3-.2.5-.5.8-.7l.8-.7.3-.2-.9,3.5-3.1,1.7Z"/>
        </g>
      </g>
    </g>
  </g>
</svg>