<?xml version="1.0" encoding="UTF-8"?>
<svg xmlns="http://www.w3.org/2000/svg" xmlns:xlink="http://www.w3.org/1999/xlink" version="1.1" viewBox="0 0 52.9 53.1">
  <defs>
    <style>
      .cls-1 {
        clip-path: url(#clippath-1);
      }

      .cls-2, .cls-3 {
        fill: #fff;
      }

      .cls-3 {
        stroke: #000;
        stroke-linecap: round;
        stroke-linejoin: round;
        stroke-width: .7px;
      }

      .cls-4 {
        clip-path: url(#clippath);
      }
    </style>
    <clipPath id="clippath">
      <path class="cls-2" d="M25,12.5c9,0,16.3,7.3,16.3,16.3s-7.3,16.3-16.3,16.3-16.3-7.3-16.3-16.3S16,12.5,25,12.5M25,7.4C13.2,7.4,3.6,17,3.6,28.8s9.6,21.4,21.4,21.4,21.4-9.6,21.4-21.4S36.8,7.4,25,7.4h0Z"/>
    </clipPath>
    <clipPath id="clippath-1">
      <path class="cls-4" d="M25,50.6c-12,0-21.7-9.8-21.7-21.7S13,7.1,25,7.1s21.7,9.8,21.7,21.7-9.8,21.7-21.7,21.7ZM25,7.8C13.4,7.8,4,17.2,4,28.8s9.4,21,21,21,21-9.4,21-21S36.6,7.8,25,7.8ZM25,45.5c-9.2,0-16.7-7.5-16.7-16.7S15.8,12.1,25,12.1s16.7,7.5,16.7,16.7-7.5,16.7-16.7,16.7ZM25,12.9c-8.8,0-16,7.2-16,16s7.2,16,16,16,16-7.2,16-16-7.2-16-16-16Z"/>
    </clipPath>
  </defs>
  <!-- Generator: Adobe Illustrator 28.6.0, SVG Export Plug-In . SVG Version: 1.2.0 Build 709)  -->
  <g>
    <g id="Layer_1">
      <g>
        <g>
          <g>
            <path class="cls-2" d="M25.2,12.6c9,0,16.3,7.3,16.3,16.3s-7.3,16.3-16.3,16.3-16.3-7.3-16.3-16.3,7.3-16.3,16.3-16.3M25.2,7.6C13.4,7.6,3.8,17.2,3.8,29s9.6,21.4,21.4,21.4,21.4-9.6,21.4-21.4S36.9,7.6,25.2,7.6h0Z"/>
            <path d="M25.2,50.7c-12,0-21.7-9.8-21.7-21.7S13.2,7.2,25.2,7.2s21.7,9.8,21.7,21.7-9.8,21.7-21.7,21.7ZM25.2,7.9c-11.6,0-21,9.4-21,21s9.4,21,21,21,21-9.4,21-21S36.7,7.9,25.2,7.9ZM25.2,45.7c-9.2,0-16.7-7.5-16.7-16.7S15.9,12.3,25.2,12.3s16.7,7.5,16.7,16.7-7.5,16.7-16.7,16.7ZM25.2,13c-8.8,0-16,7.2-16,16s7.2,16,16,16,16-7.2,16-16-7.2-16-16-16Z"/>
          </g>
          <g>
            <path class="cls-2" d="M25.2,12.6c9,0,16.3,7.3,16.3,16.3s-7.3,16.3-16.3,16.3-16.3-7.3-16.3-16.3,7.3-16.3,16.3-16.3M25.2,7.6C13.4,7.6,3.8,17.2,3.8,29s9.6,21.4,21.4,21.4,21.4-9.6,21.4-21.4S36.9,7.6,25.2,7.6h0Z"/>
            <path d="M25.2,50.7c-12,0-21.7-9.8-21.7-21.7S13.2,7.2,25.2,7.2s21.7,9.8,21.7,21.7-9.8,21.7-21.7,21.7ZM25.2,7.9c-11.6,0-21,9.4-21,21s9.4,21,21,21,21-9.4,21-21S36.7,7.9,25.2,7.9ZM25.2,45.7c-9.2,0-16.7-7.5-16.7-16.7S15.9,12.3,25.2,12.3s16.7,7.5,16.7,16.7-7.5,16.7-16.7,16.7ZM25.2,13c-8.8,0-16,7.2-16,16s7.2,16,16,16,16-7.2,16-16-7.2-16-16-16Z"/>
          </g>
          <circle class="cls-2" cx="25" cy="28.8" r="18.5" transform="translate(-6 6.6) rotate(-13.4)"/>
          <g>
            <path class="cls-2" d="M25,12.5c9,0,16.3,7.3,16.3,16.3s-7.3,16.3-16.3,16.3-16.3-7.3-16.3-16.3S16,12.5,25,12.5M25,7.4C13.2,7.4,3.6,17,3.6,28.8s9.6,21.4,21.4,21.4,21.4-9.6,21.4-21.4S36.8,7.4,25,7.4h0Z"/>
            <path d="M25,50.6c-12,0-21.7-9.8-21.7-21.7S13,7.1,25,7.1s21.7,9.8,21.7,21.7-9.8,21.7-21.7,21.7ZM25,7.8C13.4,7.8,4,17.2,4,28.8s9.4,21,21,21,21-9.4,21-21S36.6,7.8,25,7.8ZM25,45.5c-9.2,0-16.7-7.5-16.7-16.7S15.8,12.1,25,12.1s16.7,7.5,16.7,16.7-7.5,16.7-16.7,16.7ZM25,12.9c-8.8,0-16,7.2-16,16s7.2,16,16,16,16-7.2,16-16-7.2-16-16-16Z"/>
            <g class="cls-1">
              <image width="62" height="62" transform="translate(-6.6 -2.3)" xlink:href="flower plants-01-1.png"/>
              <image width="57" height="58" transform="translate(-4.6 -.3)" xlink:href="flower plants-01-2.png"/>
            </g>
          </g>
        </g>
        <g>
          <path class="cls-3" d="M11.1,5.9c.7-1.3.1-3.4-5.9-3.3,1.8,4.1,5.1,4.8,5.9,3.3Z"/>
          <path class="cls-3" d="M13.8,8.6c-.8-2-5.4-1.7-9.5,1.6,3.7,1.7,10.8,1.4,9.5-1.6Z"/>
          <path class="cls-3" d="M14.9,8.2c2.1.6,3.5-2.5,1.1-7.8-2.3,2.5-2.9,7.3-1.1,7.8Z"/>
          <path class="cls-3" d="M17.4,13.2c-.8-1.9-6-.7-9.7,3.1,3.8,1.3,10.7-.7,9.7-3.1Z"/>
          <path class="cls-3" d="M19.5,17.1c-.8-1.9-6.4-.6-10,3.2,3.9,1.3,11.1-.8,10-3.2Z"/>
          <path class="cls-3" d="M18.5,12.2c1.4.7,4.3-2.6,2.8-8.2-2.7,2.1-4.6,7.4-2.8,8.2Z"/>
          <path class="cls-3" d="M20.4,16.4c.8,1.3,5,0,6.8-5.5-3.4.3-7.8,3.9-6.8,5.5Z"/>
          <path class="cls-3" d="M21.1,22c-.6-1.1-3.5,0-5.4,2.7.8,0,1.3-.2,2.1-.3,2.1-.1,3.8-1.5,3.2-2.4Z"/>
          <path class="cls-3" d="M22,21.6c.7,1.4,4.3.8,5.8-4.2-3-.2-6.8,2.5-5.8,4.2Z"/>
          <path class="cls-3" d="M23.1,25.1c-.1,1.5,2.8,3,6.2-.4-2.1-1.8-6.1-1.5-6.2.4Z"/>
        </g>
        <g>
          <path class="cls-3" d="M8.6,42.4c-.9-.5-2.5-.1-2.5,4.4,3.1-1.3,3.6-3.8,2.5-4.4Z"/>
          <path class="cls-3" d="M10.7,40.4c-1.5.6-1.3,4,1.2,7.1,1.3-2.7,1.1-8-1.2-7.1Z"/>
          <path class="cls-3" d="M13.6,38.4c-1.3.9-.4,4.2,2.7,6.7.7-2.9-.7-8.1-2.7-6.7Z"/>
          <path class="cls-3" d="M10.3,39.6c.5-1.6-1.9-2.6-5.8-.8,1.9,1.7,5.4,2.2,5.8.8Z"/>
          <path class="cls-3" d="M13.3,37c.5-1-1.9-3.2-6.1-2.1,1.5,2,5.5,3.4,6.1,2.1Z"/>
          <path class="cls-3" d="M16.5,35.6c1-.6,0-3.7-4-5.1.2,2.5,2.8,5.8,4,5.1Z"/>
          <path class="cls-3" d="M20.6,35.1c-.8.5,0,2.6,2,4,0-.6-.1-.9-.2-1.6,0-1.6-1.1-2.8-1.8-2.4Z"/>
          <path class="cls-3" d="M20.4,34.4c1-.5.6-3.2-3.1-4.4-.2,2.2,1.8,5,3.1,4.4Z"/>
          <path class="cls-3" d="M23,33.6c1.1,0,2.2-2-.3-4.6-1.3,1.5-1.2,4.5.3,4.6Z"/>
        </g>
        <path class="cls-3" d="M17.7,40.7c0-1-2.6-2-5.7.1,1.9,1.2,5.6,1.1,5.7-.1Z"/>
        <path class="cls-3" d="M19.9,38.5c.6-.8-1.1-3.1-4.9-2.9,1,2,4.2,3.9,4.9,2.9Z"/>
        <path class="cls-3" d="M23.2,36.8c-.6.6.8,2.2,2.9,2.7-.2-.5-.4-.7-.6-1.3-.6-1.3-1.8-2-2.2-1.4Z"/>
        <path class="cls-3" d="M22.8,36.3c.7-.8-.5-2.9-3.9-2.6.5,1.9,3.1,3.6,3.9,2.6Z"/>
        <path class="cls-3" d="M26.9,31.2c1-.3,1.2-2.4-1.7-3.7-.6,1.7.4,4.1,1.7,3.7Z"/>
        <g>
          <path class="cls-3" d="M44.4,34.1c.3.9,1.6,1.6,4.2-1.3-2.8-1-4.6.3-4.2,1.3Z"/>
          <path class="cls-3" d="M41.9,34.2c1.3.5,3.3-1.8,3.5-5.3-2.5,1-5.6,4.5-3.5,5.3Z"/>
          <path class="cls-3" d="M41.7,34.9c-1.3.7-.4,2.8,3.3,4-.2-2.2-2.2-4.7-3.3-4Z"/>
          <path class="cls-3" d="M38.1,33.9c1.3.5,3-2.5,2.9-6-2.4,1.3-4.5,5.4-2.9,6Z"/>
          <path class="cls-3" d="M35.3,33.1c1.3.5,3.2-2.8,3-6.2-2.3,1.3-4.6,5.6-3,6.2Z"/>
          <path class="cls-3" d="M38.1,34.8c-.9.4-.7,3.2,2.7,5.1.2-2.2-1.5-5.5-2.7-5.1Z"/>
          <path class="cls-3" d="M35.2,33.8c-1-.2-2.3,2.4-.4,5.7,1.4-1.8,1.7-5.5.4-5.7Z"/>
          <path class="cls-3" d="M32.2,31.6c.8.2,1.6-1.7,1.1-3.8-.3.4-.5.7-.8,1.1-.9,1.1-1,2.5-.3,2.6Z"/>
          <path class="cls-3" d="M32,32.2c-1-.3-2.3,1.7-.6,4.7,1.4-1.3,1.9-4.3.6-4.7Z"/>
          <path class="cls-3" d="M29.8,31.2c-.7-.7-2.7,0-2.6,3.2,1.8-.2,3.5-2.2,2.6-3.2Z"/>
        </g>
        <g>
          <path class="cls-3" d="M32.8,48.8c-.8,1-.7,2.8,4.4,3.7-.9-3.7-3.6-4.8-4.4-3.7Z"/>
          <path class="cls-3" d="M31,46.1c.4,1.8,4.3,2.3,8.2,0-2.8-2-8.8-2.9-8.2,0Z"/>
          <path class="cls-3" d="M30.1,46.3c-1.7-.9-3.3,1.6-2.1,6.4,2.3-1.8,3.6-5.6,2.1-6.4Z"/>
          <path class="cls-3" d="M27,33.7c.3,1,3,.5,4.9-1.4-.7,0-1.1,0-1.8-.1-1.8-.2-3.4.7-3.1,1.5Z"/>
          <path class="cls-3" d="M27.6,38.1c.3,1,3,.5,4.9-1.4-.7,0-1.1,0-1.8-.1-1.8-.2-3.4.7-3.1,1.5Z"/>
          <path class="cls-3" d="M27.6,38.1c.3,1,3,.5,4.9-1.4-.7,0-1.1,0-1.8-.1-1.8-.2-3.4.7-3.1,1.5Z"/>
          <path class="cls-3" d="M28.6,40.9c.4,1.2,3.5.6,5.8-1.7-.8,0-1.3,0-2.2-.1-2.1-.3-4,.8-3.6,1.8Z"/>
          <path class="cls-3" d="M29.3,43.7c.4,1.2,3.5.6,5.8-1.7-.8,0-1.3,0-2.2-.1-2.1-.3-4,.8-3.6,1.8Z"/>
          <path class="cls-3" d="M26.3,34.4c-.4-1.2-3.5-1.4-5.5,2.6,2.5.6,6.1-1,5.5-2.6Z"/>
          <path class="cls-3" d="M27.6,41.8c-.4-1.2-3.5-1.4-5.5,2.6,2.5.6,6.1-1,5.5-2.6Z"/>
          <path class="cls-3" d="M28,45c-.6-.8-2.9,0-3.4,3.3,2-.2,4.2-2.3,3.4-3.3Z"/>
          <path class="cls-3" d="M27,38.3c-.4-1.2-3.5-1.4-5.5,2.6,2.5.6,6.1-1,5.5-2.6Z"/>
          <path class="cls-3" d="M25.7,30.8c.3-1.3-1.8-2.9-5.3-.6,1.4,1.8,4.9,2.2,5.3.6Z"/>
        </g>
        <g>
          <path class="cls-3" d="M47.2,14.1c1.3.7,3.4.2,3.5-5.8-4.1,1.7-4.9,5-3.5,5.8Z"/>
          <path class="cls-3" d="M44.3,16.7c2-.8,1.9-5.4-1.4-9.6-1.8,3.6-1.7,10.8,1.4,9.6Z"/>
          <path class="cls-3" d="M44.8,17.7c-.7,2.1,2.4,3.5,7.8,1.3-2.5-2.4-7.2-3.1-7.8-1.3Z"/>
          <path class="cls-3" d="M35.8,22.1c2-.8.8-6.4-2.9-10.1-1.4,3.8.5,11.1,2.9,10.1Z"/>
          <path class="cls-3" d="M36.4,23c-1.3.8-.2,5,5.3,6.9-.2-3.4-3.6-7.9-5.3-6.9Z"/>
          <path class="cls-3" d="M40.4,20c1.8-.8.8-6.1-2.6-9.6-1.3,3.6.3,10.6,2.6,9.6Z"/>
          <path class="cls-3" d="M41,21.3c-.9,1.2,1.8,4.7,7.6,4.3-1.5-3.1-6.4-5.9-7.6-4.3Z"/>
          <path class="cls-3" d="M30.8,23.6c1.1-.6,0-3.5-2.5-5.4,0,.8.2,1.3.2,2.1,0,2.1,1.4,3.8,2.3,3.3Z"/>
          <path class="cls-3" d="M31.2,24.5c-1.4.7-.9,4.3,4,5.9.3-3-2.3-6.8-4-5.9Z"/>
          <path class="cls-3" d="M27.6,25.6c-1.5-.2-3.1,2.7.2,6.2,1.8-2,1.7-6-.2-6.2Z"/>
        </g>
        <g>
          <path class="cls-3" d="M26.6,14.9c-.9-.4-1.4-1.7,1.8-4.1.7,2.9-.8,4.5-1.8,4.1Z"/>
          <path class="cls-3" d="M26.2,17.4c-.3-1.3,2.2-3,5.7-2.9-1.3,2.4-5.1,5-5.7,2.9Z"/>
          <path class="cls-3" d="M25.5,17.5c-.9,1.2-2.8,0-3.6-3.7,2.2.4,4.4,2.7,3.6,3.7Z"/>
          <path class="cls-3" d="M26.1,21.2c-.3-1.3,2.9-2.7,6.3-2.1-1.5,2.2-5.9,3.8-6.3,2.1Z"/>
          <path class="cls-3" d="M26.5,24.1c-.3-1.4,3.1-2.8,6.6-2.3-1.5,2.2-6.1,4-6.6,2.3Z"/>
          <path class="cls-3" d="M25.2,21.1c-.5.9-3.3.3-4.7-3.2,2.3,0,5.3,2.1,4.7,3.2Z"/>
          <path class="cls-3" d="M25.8,24c0,1-2.6,2-5.7-.2,1.9-1.2,5.6-1,5.7.2Z"/>
          <path class="cls-3" d="M27.6,27.3c-.1-.8,1.9-1.4,3.9-.7-.4.3-.7.4-1.2.7-1.2.8-2.6.7-2.7,0Z"/>
          <path class="cls-3" d="M27,27.4c.1,1-2,2.1-4.7,0,1.5-1.3,4.5-1.4,4.7,0Z"/>
          <path class="cls-3" d="M27.8,29.7c.7.8-.3,2.7-3.4,2.2.4-1.7,2.6-3.2,3.4-2.2Z"/>
        </g>
        <g>
          <path class="cls-3" d="M5.1,25.2c-.4-1-1.9-1.7-4.7,1.8,3.2.9,5.2-.7,4.7-1.8Z"/>
          <path class="cls-3" d="M7.9,24.9c-1.5-.5-3.6,2.3-3.6,6.2,2.7-1.3,5.9-5.5,3.6-6.2Z"/>
          <path class="cls-3" d="M8.1,24.1c1.4-.9.2-3.2-4-4.3.4,2.5,2.8,5.1,4,4.3Z"/>
          <path class="cls-3" d="M12.2,25c-1.5-.5-3.2,3.1-2.8,7,2.6-1.6,4.7-6.4,2.8-7Z"/>
          <path class="cls-3" d="M15.4,25.7c-1.5-.5-3.4,3.3-2.9,7.3,2.6-1.6,4.8-6.7,2.9-7.3Z"/>
          <path class="cls-3" d="M12.1,24c1-.5.5-3.7-3.4-5.5-.1,2.5,2.1,6.1,3.4,5.5Z"/>
          <path class="cls-3" d="M15.5,24.9c1.1.1,2.4-2.8,0-6.5-1.4,2.1-1.5,6.3,0,6.5Z"/>
          <path class="cls-3" d="M19,27.1c-.9-.2-1.6,2-1,4.3.3-.5.5-.8.9-1.3.9-1.3.9-2.8.1-3Z"/>
          <path class="cls-3" d="M19.2,26.4c1.1.2,2.5-2.1.4-5.3-1.5,1.6-1.8,5-.4,5.3Z"/>
          <path class="cls-3" d="M21.8,27.4c.8.8,3-.2,2.7-3.8-2,.3-3.8,2.8-2.7,3.8Z"/>
        </g>
        <g>
          <path class="cls-3" d="M40.7,38.5c.8-.5,2.2-.2,2.3,3.8-2.7-1.1-3.3-3.3-2.3-3.8Z"/>
          <path class="cls-3" d="M38.9,36.8c1.3.5,1.3,3.5-.9,6.3-1.2-2.4-1.2-7.1.9-6.3Z"/>
          <path class="cls-3" d="M39.1,36.1c-.5-1.4,1.6-2.4,5.1-.9-1.6,1.6-4.7,2.1-5.1.9Z"/>
          <path class="cls-3" d="M35.3,34.1c1.3.5,1.3,3.5-.9,6.3-1.2-2.4-1.2-7.1.9-6.3Z"/>
          <path class="cls-3" d="M32,33.9c1,.4,1,2.8-.7,5.1-1-1.9-1-5.7.7-5.1Z"/>
          <path class="cls-3" d="M36.2,33.2c-.8-1.2,1-2.7,4.8-2.1-1.2,1.9-4.1,3.2-4.8,2.1Z"/>
          <path class="cls-3" d="M33.5,32.4c-1.2-.8-.1-2.8,3.6-3.8-.4,2.2-2.6,4.5-3.6,3.8Z"/>
          <path class="cls-3" d="M29.9,32.3c.8.4,0,2.3-1.7,3.6,0-.5.1-.8.1-1.4,0-1.4.9-2.5,1.5-2.2Z"/>
          <path class="cls-3" d="M30.1,31.7c-.9-.5-.6-2.8,2.6-3.9.2,2-1.5,4.5-2.6,3.9Z"/>
          <path class="cls-3" d="M27.8,31c-1,.1-2-1.8.1-4.1,1.2,1.3,1.1,4-.1,4.1Z"/>
        </g>
      </g>
    </g>
  </g>
</svg>