<?xml version="1.0" encoding="UTF-8"?>
<svg xmlns="http://www.w3.org/2000/svg" version="1.1" viewBox="0 0 134 56">
  <defs>
    <style>
      .cls-1 {
        fill: #fff;
      }
    </style>
  </defs>
  <!-- Generator: Adobe Illustrator 28.6.0, SVG Export Plug-In . SVG Version: 1.2.0 Build 709)  -->
  <g>
    <g id="Layer_1">
      <g>
        <g>
          <polyline class="cls-1" points="133.8 41.1 133.8 .3 .9 .3 .9 41.1"/>
          <polygon points="134.5 41.1 133 41.1 133 1 1.6 1 1.6 41.1 .2 41.1 .2 -.5 134.5 -.5 134.5 41.1"/>
        </g>
        <rect x=".9" y="20.3" width="132.9" height=".7"/>
        <rect x="6.6" y="6.4" width="1.1" height="29.3" transform="translate(-4.4 2) rotate(-12.5)"/>
        <rect x="11.2" y="4.2" width="1.1" height="30.4" transform="translate(-.3 .2) rotate(-.8)"/>
        <path d="M15.8,38.1h-1.1c.7-10.8,2.1-31.2,2.1-31.8h1.1c0,.6-1.9,28.6-2.1,31.8Z"/>
        <rect x="24.9" y="7.4" width="1.1" height="27.7" transform="translate(-3.5 5.2) rotate(-10.9)"/>
        <path d="M29.5,30.6h-1.1c0-.1,2.1-22.7,2.2-23.6h1.1c0,1.1-2.2,23.6-2.2,23.6Z"/>
        <rect x="6.3" y="20.6" width="29.1" height="1.1" transform="translate(-.4 41.9) rotate(-89.7)"/>
        <path d="M32.8,35.5l-1.1-.2c1.1-6.9,4.6-29.6,4.9-30.2l1,.4-.5-.2.5.2c-.2.8-3,18.4-4.8,30Z"/>
        <path d="M39.6,35.5h-1.1c0-.3.4-25,.4-25.5h1.1c0,.5-.4,24.4-.4,25.5Z"/>
        <path d="M42.4,36.8h-1.1c1.3-10.2,3.8-29.4,3.9-29.9h1.1c0,.3-2.7,21-3.9,29.9Z"/>
        <path d="M53,34.7l-1.1-.2c.2-1.3.9-19.7,1.1-26.7h1.1c0,1.1-.8,25.3-1.1,26.9Z"/>
        <path d="M46.2,34l-1.1-.3c.7-3,5.5-26.8,5.6-27.1l1.1.2c-.2,1-4.9,24.1-5.6,27.1Z"/>
        <rect x="57.1" y="7.5" width="1.1" height="27.7" transform="translate(-3 11.2) rotate(-10.9)"/>
        <path d="M61.6,30.8h-1.1c0-.1,2.1-22.7,2.2-23.6h1.1c0,1.1-2.2,23.6-2.2,23.6Z"/>
        <path d="M71.7,35.6h-1.1c0-.3.4-25,.4-25.5h1.1c0,.5-.4,24.4-.4,25.5Z"/>
        <path d="M74.6,37h-1.1c1.3-10.2,3.8-29.4,3.9-29.9h1.1c0,.3-2.7,21-3.9,29.9Z"/>
        <path d="M85.1,34.9l-1.1-.2c.2-1.3.9-19.7,1.1-26.7h1.1c0,1.1-.8,25.3-1.1,26.9Z"/>
        <path d="M78.3,34.1l-1.1-.3c.7-3,5.5-26.8,5.6-27.1l1.1.2c-.2,1-4.9,24.1-5.6,27.1Z"/>
        <path d="M112.1,31.4h-1.1c0-.1,2.1-22.7,2.2-23.6h1.1c0,1.1-2.2,23.6-2.2,23.6Z"/>
        <path d="M115.4,36.3l-1.1-.2c1.1-6.9,4.6-29.6,4.9-30.2l1,.4-.5-.2.5.2c-.2.8-3,18.4-4.8,30Z"/>
        <path d="M122.2,36.2h-1.1c0-.3.4-25,.4-25.5h1.1c0,.5-.4,24.4-.4,25.5Z"/>
        <path d="M125.1,37.6h-1.1c1.3-10.2,3.8-29.4,3.9-29.9h1.1c0,.3-2.7,21-3.9,29.9Z"/>
        <path d="M131,35.5l-1.1-.2c.2-1.3.9-19.7,1.1-26.7h1.1c0,1.1-.8,25.3-1.1,26.9Z"/>
        <path d="M89.2,32.4h-1.1c0-.1,2.1-22.7,2.2-23.6h1.1c0,1.1-2.2,23.6-2.2,23.6Z"/>
        <path d="M92.4,37.3l-1.1-.2c1.1-6.9,4.6-29.6,4.9-30.2l1,.4-.5-.2.5.2c-.2.8-3,18.4-4.8,30Z"/>
        <path d="M99.2,37.3h-1.1c0-.3.4-25,.4-25.5h1.1c0,.5-.4,24.4-.4,25.5Z"/>
        <path d="M102.1,38.7h-1.1c1.3-10.2,3.8-29.4,3.9-29.9h1.1c0,.3-2.7,21-3.9,29.9Z"/>
        <path d="M108.1,36.5l-1.1-.2c.2-1.3.9-19.7,1.1-26.7h1.1c0,1.1-.8,25.3-1.1,26.9Z"/>
        <rect x="14.5" y="32.3" width="1.1" height="31.6" transform="translate(-34.7 40.1) rotate(-63.5)"/>
        <rect x="37.9" y="47.6" width="31.6" height="1.1" transform="translate(-15.8 29) rotate(-26.5)"/>
        <rect x="81.5" y="32.3" width="1.1" height="31.6" transform="translate(2.4 100.1) rotate(-63.5)"/>
        <rect x="103.8" y="47.6" width="31.6" height="1.1" transform="translate(-8.9 58.3) rotate(-26.5)"/>
        <rect x="67.1" y=".2" width="1.4" height="40.9"/>
      </g>
    </g>
  </g>
</svg>