<?xml version="1.0" encoding="UTF-8"?>
<svg xmlns="http://www.w3.org/2000/svg" version="1.1" viewBox="0 0 67.9 63.4">
  <defs>
    <style>
      .cls-1 {
        fill: #fff;
      }
    </style>
  </defs>
  <!-- Generator: Adobe Illustrator 28.6.0, SVG Export Plug-In . SVG Version: 1.2.0 Build 709)  -->
  <g>
    <g id="Layer_1">
      <g>
        <g>
          <polyline class="cls-1" points="67.1 47 67.1 .7 .7 .7 .7 47"/>
          <polygon points="67.9 47 66.4 47 66.4 1.4 1.4 1.4 1.4 47 0 47 0 0 67.9 0 67.9 47"/>
        </g>
        <rect x=".7" y="23.4" width="66.3" height=".8"/>
        <rect x="6.4" y="7.8" width="1.1" height="33" transform="translate(-4.6 1.8) rotate(-11.1)"/>
        <rect x="11" y="5.2" width="1.1" height="34.5" transform="translate(-.3 .1) rotate(-.7)"/>
        <path d="M15.6,43.7h-1.1c.7-12.2,2.1-35.4,2.1-36h1.1c0,.7-2,34.6-2.1,36Z"/>
        <rect x="24.7" y="8.8" width="1.1" height="31.2" transform="translate(-3.7 4.6) rotate(-9.6)"/>
        <path d="M29.3,35.1h-1.1c0,0,2.1-25.7,2.2-26.8h1.1c0,1.2-2.2,26.8-2.2,26.8Z"/>
        <rect x="4.2" y="23.9" width="33" height="1.1" transform="translate(-3.9 45) rotate(-89.7)"/>
        <path d="M32.6,40.7h-1.1c.8-5.7,4.6-33.6,4.9-34.4l1,.4-.5-.2.5.2c-.2.8-3,20.8-4.8,34.1Z"/>
        <path d="M39.4,40.6h-1.1c0-.3.4-28.3.4-28.9h1.1c0,.5-.4,27.7-.4,28.9Z"/>
        <path d="M42.2,42.2h-1.1c1.3-11.6,3.8-33.3,3.9-33.9h1.1c0,.4-3,26.1-3.9,33.9Z"/>
        <path d="M52.8,39.7l-1.1-.2c.2-1.4.8-20.4,1.1-30.3h1.1c0,1.2-.8,28.6-1.1,30.5Z"/>
        <path d="M46,38.9l-1.1-.2c.7-3.4,5.5-30.4,5.6-30.7l1.1.2c0,.3-4.9,27.3-5.6,30.7Z"/>
        <rect x="56.9" y="9" width="1.1" height="31.2" transform="translate(-3.3 9.9) rotate(-9.6)"/>
        <path d="M61.4,35.4h-1.1c0,0,2.1-25.7,2.2-26.8h1.1c0,1.2-2.2,26.8-2.2,26.8Z"/>
        <rect x="14.3" y="38.7" width="1.1" height="32.5" transform="translate(-40.3 40.9) rotate(-60.6)"/>
        <rect x="37.3" y="54.4" width="32.5" height="1.1" transform="translate(-20.1 33.4) rotate(-29.4)"/>
      </g>
    </g>
  </g>
</svg>