<?xml version="1.0" encoding="UTF-8"?>
<svg xmlns="http://www.w3.org/2000/svg" version="1.1" viewBox="0 0 36.8 61.9">
  <defs>
    <style>
      .cls-1 {
        fill: #fff;
        stroke: #000;
        stroke-linecap: square;
        stroke-miterlimit: 10;
        stroke-width: 1.1px;
      }
    </style>
  </defs>
  <!-- Generator: Adobe Illustrator 28.6.0, SVG Export Plug-In . SVG Version: 1.2.0 Build 709)  -->
  <g>
    <g id="Layer_1">
      <g>
        <path class="cls-1" d="M.5,43.5L3.9.5h29.1l3.3,43c0,9.9-8,17.9-17.9,17.9h0C8.5,61.4.5,53.4.5,43.5Z"/>
        <path class="cls-1" d="M29.7,16.7H8c-1.5,2.6-7.3,25.9-7.3,25.9.2,2.6.6,5.2,1.2,7.5,2.6,6.6,9.1,11.3,16.6,11.3h0c7.6,0,14-4.7,16.6-11.3.6-2.4,1-4.9,1.2-7.6,0,0-5-23.1-6.5-25.8Z"/>
        <path class="cls-1" d="M18.5,5.6c-1.7,0-3.1,1.4-3.1,3.1s1.4,3.1,3.1,3.1,3.1-1.4,3.1-3.1-1.4-3.1-3.1-3.1Z"/>
      </g>
    </g>
  </g>
</svg>