<?xml version="1.0" encoding="UTF-8"?>
<svg xmlns="http://www.w3.org/2000/svg" version="1.1" viewBox="0 0 46.8 67.4">
  <defs>
    <style>
      .cls-1 {
        stroke-width: 1.1px;
      }

      .cls-1, .cls-2 {
        fill: #fff;
        stroke: #000;
        stroke-linecap: square;
        stroke-miterlimit: 10;
      }

      .cls-2 {
        stroke-width: .4px;
      }
    </style>
  </defs>
  <!-- Generator: Adobe Illustrator 28.6.0, SVG Export Plug-In . SVG Version: 1.2.0 Build 709)  -->
  <g>
    <g id="Layer_1">
      <g>
        <path class="cls-1" d="M39.2,33.9l-2.7-17.3H10.2l-2.7,17.3c-.4,2.3-.7,4.7-.7,7.2,0,14.2,7.4,25.8,16.5,25.8s16.5-11.5,16.5-25.8-.2-4.9-.7-7.2Z"/>
        <ellipse class="cls-1" cx="23.4" cy="44.9" rx="11.9" ry="18.6"/>
        <path class="cls-2" d="M17.8,36.4c0,3.1,2.5,5.6,5.6,5.6s5.6-2.5,5.6-5.6-2.5-5.6-5.6-5.6-5.6,2.5-5.6,5.6Z"/>
        <rect class="cls-1" x="15.4" y="-14.3" width="16" height="45.7" rx="4" ry="4" transform="translate(14.8 32) rotate(-90)"/>
        <path class="cls-1" d="M20.1,7.5c0,1.8,1.5,3.3,3.3,3.3s3.3-1.5,3.3-3.3-1.5-3.3-3.3-3.3-3.3,1.5-3.3,3.3Z"/>
      </g>
    </g>
  </g>
</svg>